<svg width="37" height="26" viewBox="0 0 37 26" fill="none" xmlns="http://www.w3.org/2000/svg">
<rect width="37" height="26" rx="13" fill="#13CD90" fill-opacity="0.12"/>
<rect x="0.5" y="0.5" width="36" height="25" rx="12.5" stroke="url(#paint0_linear_82_1270)" stroke-opacity="0.03"/>
<path d="M27.6666 12.225V13.9417C27.6666 14.4 27.2999 14.775 26.8333 14.7917H25.1999C24.2999 14.7917 23.4749 14.1333 23.3999 13.2333C23.3499 12.7083 23.5499 12.2167 23.8999 11.875C24.2083 11.5583 24.6333 11.375 25.0999 11.375H26.8333C27.2999 11.3917 27.6666 11.7667 27.6666 12.225Z" fill="#13CD90"/>
<path d="M26.3917 16.0417H25.2C23.6167 16.0417 22.2833 14.85 22.15 13.3333C22.075 12.4667 22.3917 11.6 23.025 10.9833C23.5583 10.4333 24.3 10.125 25.1 10.125H26.3917C26.6333 10.125 26.8333 9.925 26.8083 9.68333C26.625 7.65833 25.2833 6.275 23.2917 6.04167C23.0917 6.00833 22.8833 6 22.6667 6H15.1667C14.9333 6 14.7083 6.01667 14.4917 6.05C12.3667 6.31667 11 7.9 11 10.1667V16C11 18.3 12.8667 20.1667 15.1667 20.1667H22.6667C25 20.1667 26.6083 18.7083 26.8083 16.4833C26.8333 16.2417 26.6333 16.0417 26.3917 16.0417ZM20.1667 11.2083H15.1667C14.825 11.2083 14.5417 10.925 14.5417 10.5833C14.5417 10.2417 14.825 9.95833 15.1667 9.95833H20.1667C20.5083 9.95833 20.7917 10.2417 20.7917 10.5833C20.7917 10.925 20.5083 11.2083 20.1667 11.2083Z" fill="#13CD90"/>
<defs>
<linearGradient id="paint0_linear_82_1270" x1="18.9253" y1="0" x2="18.9253" y2="26" gradientUnits="userSpaceOnUse">
<stop stop-color="#B3D6FF"/>
<stop offset="1" stop-color="#B3D6FF" stop-opacity="0"/>
</linearGradient>
</defs>
</svg>
