<svg width="13" height="13" viewBox="0 0 13 13" fill="none" xmlns="http://www.w3.org/2000/svg">
<path d="M0.0498047 4.67231C0.0498047 3.48139 0.0498046 2.88594 0.419777 2.51597C0.789744 2.146 1.3852 2.146 2.57612 2.146H10.1551C11.346 2.146 11.9414 2.146 12.3114 2.51597C12.6814 2.88594 12.6814 3.48139 12.6814 4.67231C12.6814 4.97004 12.6814 5.11891 12.5889 5.2114C12.4964 5.30389 12.3475 5.30389 12.0498 5.30389H0.681384C0.383657 5.30389 0.234788 5.30389 0.142299 5.2114C0.0498047 5.11891 0.0498047 4.97004 0.0498047 4.67231Z" fill="#464F5D"/>
<path fill-rule="evenodd" clip-rule="evenodd" d="M0.0498047 10.3566C0.0498047 11.5475 0.0498046 12.143 0.419777 12.5129C0.789744 12.8829 1.3852 12.8829 2.57612 12.8829H10.1551C11.346 12.8829 11.9414 12.8829 12.3114 12.5129C12.6814 12.143 12.6814 11.5475 12.6814 10.3566V7.19872C12.6814 6.90099 12.6814 6.75213 12.5889 6.6596C12.4964 6.56714 12.3475 6.56714 12.0498 6.56714H0.681384C0.383657 6.56714 0.234788 6.56714 0.142299 6.6596C0.0498047 6.75213 0.0498047 6.90099 0.0498047 7.19872V10.3566ZM3.2077 8.46188C3.2077 8.16415 3.2077 8.01529 3.30019 7.92276C3.39268 7.8303 3.54155 7.8303 3.83928 7.8303H5.10244C5.40016 7.8303 5.54903 7.8303 5.64155 7.92276C5.73401 8.01529 5.73401 8.16415 5.73401 8.46188C5.73401 8.7596 5.73401 8.90846 5.64155 9.00099C5.54903 9.09345 5.40016 9.09345 5.10244 9.09345H3.83928C3.54155 9.09345 3.39268 9.09345 3.30019 9.00099C3.2077 8.90846 3.2077 8.7596 3.2077 8.46188ZM3.30019 10.4491C3.2077 10.5416 3.2077 10.6905 3.2077 10.9882C3.2077 11.2859 3.2077 11.4348 3.30019 11.5273C3.39268 11.6198 3.54155 11.6198 3.83928 11.6198H5.10244C5.40016 11.6198 5.54903 11.6198 5.64155 11.5273C5.73401 11.4348 5.73401 11.2859 5.73401 10.9882C5.73401 10.6905 5.73401 10.5416 5.64155 10.4491C5.54903 10.3566 5.40016 10.3566 5.10244 10.3566H3.83928C3.54155 10.3566 3.39268 10.3566 3.30019 10.4491ZM6.99717 8.46188C6.99717 8.16415 6.99717 8.01529 7.08964 7.92276C7.18216 7.8303 7.33103 7.8303 7.62875 7.8303H8.89191C9.18964 7.8303 9.3385 7.8303 9.43103 7.92276C9.52349 8.01529 9.52349 8.16415 9.52349 8.46188C9.52349 8.7596 9.52349 8.90846 9.43103 9.00099C9.3385 9.09345 9.18964 9.09345 8.89191 9.09345H7.62875C7.33103 9.09345 7.18216 9.09345 7.08964 9.00099C6.99717 8.90846 6.99717 8.7596 6.99717 8.46188ZM7.08964 10.4491C6.99717 10.5416 6.99717 10.6905 6.99717 10.9882C6.99717 11.2859 6.99717 11.4348 7.08964 11.5273C7.18216 11.6198 7.33103 11.6198 7.62875 11.6198H8.89191C9.18964 11.6198 9.3385 11.6198 9.43103 11.5273C9.52349 11.4348 9.52349 11.2859 9.52349 10.9882C9.52349 10.6905 9.52349 10.5416 9.43103 10.4491C9.3385 10.3566 9.18964 10.3566 8.89191 10.3566H7.62875C7.33103 10.3566 7.18216 10.3566 7.08964 10.4491Z" fill="#464F5D"/>
<path d="M3.20752 0.882812V2.77755" stroke="#464F5D" stroke-width="1.26316" stroke-linecap="round"/>
<path d="M9.52344 0.882812V2.77755" stroke="#464F5D" stroke-width="1.26316" stroke-linecap="round"/>
</svg>
