<svg xmlns="http://www.w3.org/2000/svg" viewBox="0 0 134.31 85.73"><defs><style>.a{fill:#222b65;}.b{fill:#d4353f;}</style></defs><title>Champion logo</title><path class="a" d="M557,498.41a151.61,151.61,0,0,1-30.16,8.18c-9.35,1.4-8.18.94-8.18-2.81-.23-16.37.7-32.74.23-49.11-.23-4.44,0-4.21,4.91-3.74a125.55,125.55,0,0,1,28.29,6.55c1.87.7,9.59,4.91,5.14-2.1-9.82-15-40.92-18.71-51.21-18.94-64.07-2.57-95.64,38.35-66.64,65.94,11,10.29,26.42,16.84,46.07,18.94a127.63,127.63,0,0,0,25,.23A132.22,132.22,0,0,0,529.44,518c15.67-4.68,26.66-12.63,32-19.17C565.45,493.73,560.08,497.24,557,498.41Z" transform="translate(-428.58 -436.32)"/><path class="b" d="M478,505.42c0,1.64-.94,1.4-1.4,1.4A69.51,69.51,0,0,1,464.2,505c-5.85-1.64-23.85-7.48-23.85-26.42,0-16.6,18.24-26,32.74-28.06,5.14-.94,4.91.47,4.91,1.64Z" transform="translate(-428.58 -436.32)"/></svg>