<svg width="43" height="43" viewBox="0 0 43 43" fill="none" xmlns="http://www.w3.org/2000/svg">
<path d="M38.1291 10.6368L26.1369 2.24649C22.8682 -0.043669 17.8507 0.0812495 14.7069 2.51715L4.27628 10.6576C2.19431 12.2816 0.549561 15.6127 0.549561 18.236V32.6016C0.549561 37.9106 4.85923 42.2411 10.1682 42.2411H32.6119C37.9209 42.2411 42.2305 37.9314 42.2305 32.6224V18.5067C42.2305 15.696 40.4192 12.2399 38.1291 10.6368ZM22.9515 33.9132C22.9515 34.7668 22.2437 35.4747 21.3901 35.4747C20.5364 35.4747 19.8286 34.7668 19.8286 33.9132V27.6673C19.8286 26.8137 20.5364 26.1058 21.3901 26.1058C22.2437 26.1058 22.9515 26.8137 22.9515 27.6673V33.9132Z" fill="#464F5D"/>
</svg>
