<svg width="20" height="4" viewBox="0 0 20 4" fill="none" xmlns="http://www.w3.org/2000/svg">
<g clip-path="url(#clip0_168_1820)">
<path d="M10.8789 3.7304H13.4596V3.38231H11.3218V2.26731H12.9274V1.91455H11.3218V0.887358H13.4596V0.540039H10.8789V3.7304Z" fill="white"/>
<path d="M12.2205 0.0244141L11.8711 0.45798L12.9678 0.0244141H12.2205Z" fill="white"/>
<path d="M17.3906 0.540039V3.7304H19.9994V3.38231H17.7941V0.540039H17.3906Z" fill="white"/>
<path d="M14.7253 2.50507L15.4191 0.984484L16.1179 2.50818L14.7253 2.50507ZM15.1337 0.540039L13.668 3.73041H14.1664L14.5418 2.90445H16.2993L16.6803 3.73041H17.1724L15.7031 0.540039H15.1337Z" fill="white"/>
<path d="M9.13489 2.01521H7.78656V0.917305H9.18129C9.50255 0.917305 9.68322 1.0828 9.75071 1.29493C9.77042 1.37283 9.77553 1.45436 9.76574 1.53452C9.75595 1.61468 9.73146 1.69179 9.69377 1.76113C9.57988 1.97402 9.35563 2.01987 9.13629 2.01987M9.48146 2.40137C10.143 2.20635 10.2069 1.66245 10.2034 1.46898C10.1641 0.899434 9.81679 0.545898 9.19183 0.545898H7.37109V3.7316H7.78586V2.38817H8.97039L9.83999 3.72694H10.363C10.363 3.72694 9.73665 2.82639 9.47795 2.39283" fill="white"/>
<path d="M4.87852 0C3.70805 0 2.91016 0.912199 2.91016 2.0202C2.91016 3.1857 3.7917 4.00388 4.87852 4.00388C5.96534 4.00388 6.84689 3.19503 6.84689 2.0202C6.84618 0.912199 6.03845 0 4.87852 0ZM4.86446 3.60373C4.05462 3.60373 3.38819 2.88422 3.38819 2.01787C3.39792 1.58854 3.55855 1.18028 3.83602 0.879632C4.11349 0.578987 4.48598 0.409598 4.87453 0.407375C5.26309 0.405152 5.63715 0.57027 5.91742 0.867724C6.19769 1.16518 6.36213 1.57158 6.37588 2.00078C6.37588 2.00648 6.37588 2.01217 6.37588 2.01787C6.37307 2.88422 5.6743 3.60373 4.86727 3.60373H4.86446Z" fill="white"/>
<path d="M1.86719 1.66902H2.16596L2.70937 0.540039H2.27281L1.86719 1.66902Z" fill="white"/>
<path d="M0 0.540039V3.7304H2.60879V3.38231H0.403515V0.540039H0Z" fill="white"/>
</g>
<defs>
<clipPath id="clip0_168_1820">
<rect width="20" height="4" fill="white"/>
</clipPath>
</defs>
</svg>
