<svg width="20" height="4" viewBox="0 0 20 4" fill="none" xmlns="http://www.w3.org/2000/svg">
<g clip-path="url(#clip0_168_1801)">
<path d="M11.0293 2.93021C10.9731 2.94271 10.922 2.97019 10.882 3.00935C10.8689 3.02065 10.8582 3.03412 10.8503 3.04907C10.8287 3.0924 10.8178 3.13977 10.8185 3.18762L10.7658 3.2372C10.6632 3.32504 10.5502 3.40149 10.429 3.46504L10.3655 3.4949C10.3256 3.51317 10.2815 3.52183 10.2372 3.52011C10.1929 3.51839 10.1497 3.50634 10.1115 3.48505C10.1011 3.47519 10.0906 3.4752 10.0906 3.46534C10.0762 3.44128 10.0724 3.41285 10.0801 3.38621C10.1077 3.33207 10.1432 3.28182 10.1855 3.2369L10.2172 3.20704C10.2785 3.13947 10.3454 3.07657 10.4172 3.01891C10.5275 2.92153 10.656 2.84427 10.7963 2.79106C10.8172 2.7812 10.8385 2.7812 10.8598 2.77135C10.9052 2.75976 10.9536 2.76324 10.9966 2.7812C11.0071 2.7812 11.0071 2.79106 11.0176 2.79106C11.0387 2.81255 11.0501 2.84094 11.0493 2.87019C11.0401 2.8905 11.0506 2.92006 11.0293 2.93021ZM8.54518 3.17777C8.12582 3.5821 7.8401 3.52417 7.7982 3.45489C7.7455 3.33544 8.04042 3.1282 8.1455 3.00935C8.41915 2.72238 8.62963 2.71222 8.70328 2.75194C8.72925 2.76945 8.74704 2.7957 8.75295 2.82524C8.75887 2.85477 8.75244 2.88531 8.73502 2.91051C8.67814 2.93197 8.62949 2.96914 8.59549 3.01711C8.56149 3.06508 8.54373 3.12161 8.54455 3.17926L8.54518 3.17777ZM5.35597 3.52417C5.1916 3.54564 5.02463 3.54231 4.86137 3.51431C4.83228 3.50476 4.80672 3.48756 4.78772 3.46474V3.45489C4.78772 3.43518 4.80867 3.42503 4.82994 3.41517C5.08391 3.32559 5.38772 3.37546 5.62994 3.45489H5.64042C5.5528 3.49862 5.45547 3.52236 5.35629 3.52417H5.35597ZM9.50296 0.553806C9.66169 0.673254 9.48201 0.900205 9.39756 1.01905C8.92425 1.47323 8.34363 1.81588 7.70296 2.01913C7.81915 1.77157 8.9874 0.297293 9.50328 0.553806H9.50296ZM11.8401 2.39539C11.7874 2.45511 11.1769 3.14791 11.1033 3.07863C11.0715 3.02906 11.2506 2.7815 10.9874 2.69252C10.3769 2.58352 10.0087 3.13805 9.8928 3.2372C9.77693 3.34619 9.31375 3.55403 9.1982 3.53432C9.05058 3.48445 9.74486 3.09834 9.68137 2.85078C9.62867 2.73134 9.59724 2.7815 9.39566 2.72208C9.43788 2.67251 9.60613 2.50439 9.47978 2.46467C9.34296 2.42495 9.30074 2.6737 9.28931 2.72208C9.26836 2.74179 8.83661 3.11805 8.80518 3.04877C8.80518 3.03891 8.96391 2.68236 8.58296 2.64294C8.15153 2.58322 7.78296 3.06877 7.76201 3.09834C7.02518 3.55373 6.07947 3.37546 6.07947 3.36709C6.16359 3.31752 7.12137 2.81256 7.56359 2.15918C7.9536 2.04163 8.32792 1.88221 8.67915 1.68408C8.7001 1.68408 10.0791 0.892142 9.5528 0.48602C9.32137 0.366573 9.04772 0.476166 8.84772 0.575606C8.1109 0.981429 7.32169 2.06064 7.24772 2.12992C6.8582 2.2195 6.38455 2.17949 6.13217 1.8528C5.79534 1.11013 7.20582 0.367767 8.24772 0.476464C8.2582 0.46661 8.2582 0.476464 8.26867 0.46661V0.456755C7.07915 0.288334 6.2582 0.842869 6.00582 1.24869C5.93407 1.36475 5.90392 1.49943 5.91981 1.63284C5.9357 1.76626 5.9968 1.89133 6.09407 1.98957C6.45185 2.35597 7.00963 2.27654 7.15724 2.27654C6.83434 2.73153 6.40147 3.10812 5.89407 3.37546C5.80994 3.35575 4.73629 3.18733 4.68359 3.4746C4.71534 3.72215 5.54677 3.62391 5.83089 3.52417C6.26232 3.63316 7.09407 3.63316 7.66232 3.30648L7.6728 3.31633C7.66232 3.3659 7.64105 3.52536 7.75693 3.58509C7.9674 3.67467 8.2201 3.6248 8.6201 3.2584C8.64105 3.23869 8.66232 3.24854 8.70423 3.23869C8.9582 3.17896 9.25153 2.86243 9.34613 2.82271C9.41361 2.82705 9.48054 2.83704 9.54613 2.85257C9.69343 2.90215 8.9147 3.24854 9.05153 3.54567C9.19883 3.79322 9.85153 3.44653 9.92518 3.34769C9.92518 3.34769 9.89343 3.64481 10.2109 3.63466C10.4727 3.58526 10.7117 3.46068 10.895 3.27811C11.2845 3.30797 11.8318 2.50588 11.8633 2.4366C11.8611 2.39539 11.8611 2.38553 11.8401 2.39539Z" fill="white"/>
<path d="M18.1442 3.51471C17.9655 3.44543 18.303 3.14831 18.3442 3.10889C18.776 2.69291 18.9442 2.7822 18.9547 2.81176C18.9969 2.86133 18.8277 3.08052 18.796 3.10889C18.4287 3.50486 18.2706 3.55413 18.1442 3.51471ZM15.6709 3.23759C15.5868 3.32718 15.3023 3.55443 15.155 3.51471C15.1341 3.50486 14.9646 3.43558 15.45 3.00975C15.555 2.92016 16.0182 2.62363 15.9868 2.8903C15.8881 3.01114 15.7826 3.12696 15.6709 3.23729V3.23759ZM19.9969 2.6732C19.9334 2.63349 19.5442 3.11874 19.3547 3.23759C19.2277 3.32718 18.8811 3.54457 18.7865 3.47649C18.723 3.42692 19.3338 2.89239 19.4392 2.72397H19.1655C19.1386 2.7524 19.1063 2.77589 19.0703 2.79325C18.902 2.50628 18.2703 2.92195 18.1757 3.02109C18.1122 3.08082 17.9966 3.23879 17.9852 3.24894C17.89 3.33853 17.5325 3.59534 17.4379 3.5177C17.3957 3.47798 17.7957 3.14144 17.8693 3.05245C17.9091 3.00862 17.9318 2.95335 17.9337 2.89576C17.9356 2.83817 17.9166 2.78169 17.8798 2.73561C17.6166 2.61617 17.5115 2.81475 17.3115 2.90404C17.3011 2.87417 17.3115 2.59705 16.9747 2.7159C16.6484 2.85446 16.2169 3.409 16.0065 3.47828C15.9404 3.50594 15.8666 3.51285 15.796 3.49799C15.7119 3.45827 16.175 3.12173 16.4487 2.74547H16.175C16.1538 2.76518 16.1115 2.81475 16.0798 2.81475C16.0271 2.72516 15.9115 2.64633 15.522 2.81475C15.2166 2.96406 15.122 3.12173 14.943 3.26029C14.7115 3.45827 14.3852 3.56727 14.322 3.50784C14.2588 3.44842 15.0379 2.76518 15.0588 2.74547H14.7639C14.743 2.76518 14.1007 3.31971 13.543 3.59683C13.543 3.69597 14.1115 3.36898 14.2061 3.30986C14.2061 3.30986 14.1109 3.57862 14.2903 3.61684C14.5639 3.6467 14.9534 3.34808 14.9639 3.36928C14.9581 3.39537 14.9579 3.4223 14.9633 3.44847C14.9688 3.47463 14.9798 3.4995 14.9957 3.52158C15.0113 3.54376 15.0316 3.56274 15.0552 3.57741C15.0788 3.59209 15.1053 3.60214 15.1331 3.60698C15.2898 3.62313 15.4472 3.58432 15.5753 3.49799C15.6071 3.50784 15.6071 3.66641 15.87 3.61744C16.0961 3.54474 16.294 3.41032 16.4385 3.23132C16.502 3.1716 17.0595 2.62751 17.1541 2.78578C17.1753 2.84551 17.1223 2.90523 17.049 2.99482C16.922 3.13337 16.6909 3.32151 16.428 3.58877H16.7439C16.7861 3.54905 17.4176 2.93539 17.4598 2.89567C17.6703 2.69769 17.7966 2.76697 17.7966 2.80609C17.7966 2.86581 17.723 2.9554 17.4176 3.25163C17.4071 3.26148 17.1125 3.49918 17.3334 3.60818C17.5239 3.62789 17.7125 3.55861 17.9439 3.39049C17.9425 3.43965 17.9598 3.48766 17.9926 3.52596C18.0254 3.56425 18.0716 3.59032 18.123 3.59952C18.2796 3.61567 18.4371 3.57685 18.5652 3.49052C18.6071 3.51023 18.6176 3.64879 18.8598 3.60997C19.102 3.55025 19.3757 3.33285 19.4807 3.25342C19.6176 3.1286 20.0284 2.70277 19.9969 2.6732Z" fill="white"/>
<path d="M15.7021 0.841459C16.1653 1.22757 15.9758 1.57397 15.9443 1.66326C15.6586 2.19779 15.2389 2.08909 15.1761 1.94038C15.0288 1.46527 15.7443 1.26699 15.7548 1.36613C15.5548 1.34642 15.0389 1.80182 15.3443 1.96994C15.5548 2.01951 15.9548 1.5244 15.8075 1.10872C15.7661 1.02678 15.7048 0.955172 15.6285 0.89969C15.3548 1.14725 14.9653 1.8699 14.9653 1.8699C14.8701 2.02817 14.7653 2.18674 14.6602 2.33515C14.4681 2.58338 14.246 2.80976 13.9983 3.00973C13.7349 3.21243 13.4356 3.36992 13.1142 3.47498C12.4301 3.65415 12.2828 3.35553 12.2196 3.22742C12.1355 2.94045 12.3986 2.8216 12.451 2.89088C12.578 3.09991 12.3351 3.22742 12.324 3.23728C12.3591 3.30493 12.415 3.36106 12.4845 3.39835C12.554 3.43564 12.6338 3.45236 12.7136 3.44631C13.5558 3.41645 14.2291 2.45639 14.6609 1.90186C14.9389 1.52822 15.2411 1.17109 15.5659 0.832501C15.1136 0.575091 14.4713 0.683191 14.0399 0.911635C12.8399 1.5453 12.7136 2.13926 12.9348 2.32739C13.3453 2.56628 14.1453 2.19868 14.5662 1.654C14.7136 1.48558 14.9767 1.10932 15.0189 0.842057C15.0507 1.16875 14.6926 1.64415 14.6821 1.654C14.1767 2.35695 13.7031 2.45609 13.3875 2.49551C13.0294 2.54508 12.4193 2.27782 12.8716 1.654C13.324 1.03019 13.9662 0.733359 14.6713 0.624364C15.0027 0.567424 15.3449 0.620183 15.6396 0.773673C15.6396 0.773673 16.3974 0.130149 16.6815 0.149858C16.3234 0.286924 15.6707 0.77218 15.7021 0.841459Z" fill="white"/>
<path d="M15.2396 2.2686C15.0396 2.28831 14.9238 2.57558 15.1555 2.57558C15.3977 2.56423 15.4292 2.24739 15.2396 2.2686Z" fill="white"/>
<path d="M2.68326 0.910303L2.91469 0.771744L3.13691 0.910303L3.06326 0.671408L3.26326 0.522098H3.00929L2.90389 0.283203L2.80866 0.522098H2.55469L2.75469 0.671408L2.68326 0.910303Z" fill="white"/>
<path d="M1.53873 2.08901L1.77016 1.95045L1.99238 2.08901L1.91873 1.85012L2.11873 1.70081H1.86476L1.75936 1.46191L1.66412 1.70081H1.41016L1.61016 1.85012L1.53873 2.08901Z" fill="white"/>
<path d="M3.67333 -0.000976562H1V0.0485943C1 0.0485943 1.02095 0.0683032 1.03175 0.0683032C1.06016 0.0813547 1.08467 0.100855 1.10307 0.125044C1.12147 0.149234 1.13318 0.177352 1.13714 0.206862V2.09802C1.13534 2.13809 1.13886 2.17821 1.14762 2.21746C1.16598 2.29697 1.21465 2.36739 1.28444 2.41545C1.34784 2.4619 1.42632 2.48637 1.50667 2.48473H2.16825C2.20305 2.48604 2.23687 2.49588 2.26638 2.51327C2.29589 2.53066 2.32007 2.555 2.33651 2.58387L2.34698 2.60358L2.35746 2.59372C2.37182 2.56517 2.39419 2.54085 2.42216 2.52338C2.45013 2.50591 2.48265 2.49595 2.51619 2.49458H3.17937C3.25971 2.49623 3.33819 2.47176 3.40159 2.4253C3.4369 2.40445 3.46726 2.37699 3.4908 2.34463C3.51434 2.31226 3.53055 2.27568 3.53841 2.23717C3.54717 2.19792 3.55069 2.1578 3.54889 2.11772V0.237919C3.55305 0.209701 3.56496 0.18299 3.58345 0.160421C3.60193 0.137852 3.62634 0.120204 3.65429 0.109214C3.66476 0.109214 3.68603 0.079352 3.68603 0.079352L3.67333 -0.000976562ZM1.31556 0.454417C1.30508 0.434708 1.32603 0.414701 1.3473 0.404846C1.36217 0.406341 1.37712 0.402852 1.38952 0.394992C1.37905 0.36513 1.37905 0.325712 1.41048 0.315858H1.44222C1.43828 0.307595 1.43717 0.298382 1.43905 0.289499C1.44092 0.280615 1.44569 0.272503 1.4527 0.266288C1.47365 0.256433 1.51619 0.256433 1.51619 0.216717C1.52667 0.206862 1.53714 0.197008 1.54794 0.197008C1.57968 0.187153 1.61143 0.22687 1.61143 0.177299C1.64317 0.127728 1.71683 0.177299 1.75873 0.15759C1.79048 0.167444 1.79048 0.197306 1.81143 0.217314C1.82291 0.20465 1.83784 0.195176 1.85463 0.189913C1.87141 0.184651 1.88941 0.1838 1.90667 0.187452C1.92762 0.197306 1.94889 0.197307 1.95937 0.227169C1.95937 0.237023 1.95936 0.237022 1.96984 0.246877C1.99079 0.237022 2.00159 0.227168 2.02254 0.237023C2.03645 0.242894 2.04796 0.252849 2.05534 0.265394C2.06272 0.277939 2.06558 0.292397 2.06349 0.306601C2.08444 0.306601 2.09524 0.296747 2.11619 0.316455C2.10571 0.316455 2.07397 0.336164 2.10571 0.346317C2.11619 0.346317 2.11619 0.366026 2.11619 0.366026C2.12667 0.375881 2.14794 0.375881 2.14794 0.395888C2.15841 0.42575 2.12698 0.445459 2.14794 0.475022C2.14794 0.484876 2.13746 0.494731 2.14794 0.504884C2.15841 0.504884 2.16889 0.514738 2.19016 0.514738C2.19972 0.529595 2.20343 0.547141 2.20064 0.564309C2.21111 0.604025 2.12698 0.594171 2.16889 0.633589C2.16889 0.653297 2.15841 0.66345 2.13714 0.673305C2.12667 0.683159 2.11619 0.66345 2.1054 0.673305C2.10732 0.6876 2.10424 0.702095 2.09662 0.714596C2.089 0.727097 2.07726 0.736922 2.06317 0.742584C2.04222 0.742584 2.01048 0.752439 1.98952 0.742584L1.95778 0.702868C1.94712 0.713228 1.93359 0.720568 1.91871 0.724052C1.90384 0.727536 1.88823 0.727025 1.87365 0.722577C1.82095 0.702869 1.87365 0.632991 1.82095 0.613581C1.77873 0.603726 1.73683 0.643443 1.71556 0.673305H1.70508C1.67295 0.625672 1.64482 0.57575 1.62095 0.523995C1.61048 0.523995 1.61048 0.523996 1.61048 0.53385C1.6278 0.591073 1.65633 0.644749 1.6946 0.692118C1.70508 0.701972 1.70508 0.711827 1.72635 0.701973C1.73485 0.685793 1.74665 0.671346 1.76108 0.659459C1.77552 0.647572 1.7923 0.638476 1.81048 0.632693C1.81909 0.654841 1.82266 0.678444 1.82095 0.701973C1.804 0.721002 1.79148 0.743168 1.7842 0.767036C1.77693 0.790904 1.77507 0.815942 1.77873 0.840531V0.939673C1.77458 1.02221 1.79271 1.1044 1.83143 1.17857C1.79968 1.19828 1.75778 1.17857 1.73619 1.16871C1.70444 1.16871 1.69397 1.18842 1.66254 1.18842C1.65206 1.17857 1.64159 1.18842 1.63079 1.17857C1.70444 1.11884 1.67302 1.0203 1.68349 0.931013C1.67477 0.901899 1.67123 0.871628 1.67302 0.841427C1.67812 0.813006 1.67601 0.783852 1.66685 0.756346C1.65769 0.72884 1.64175 0.703762 1.62032 0.683159C1.59648 0.642771 1.57874 0.599452 1.56762 0.554455C1.56762 0.5446 1.55714 0.5446 1.54667 0.5446C1.53619 0.554454 1.53619 0.584316 1.51492 0.594171C1.48317 0.61388 1.46222 0.554454 1.43079 0.594171C1.42032 0.594171 1.39905 0.584316 1.39905 0.574462C1.39905 0.571848 1.39794 0.569342 1.39598 0.567494C1.39401 0.565646 1.39135 0.564608 1.38857 0.564608C1.3781 0.564608 1.3781 0.564607 1.3781 0.574462C1.37789 0.584698 1.38075 0.594783 1.38637 0.603553C1.39199 0.612323 1.40012 0.619422 1.40984 0.624033H1.45206C1.46254 0.594171 1.48381 0.624033 1.49429 0.624033H1.55778C1.57532 0.6752 1.60397 0.722384 1.6419 0.762592C1.6419 0.772447 1.6419 0.792454 1.63143 0.792454C1.59968 0.762592 1.59968 0.812163 1.57873 0.812163C1.55778 0.812163 1.54698 0.812163 1.53651 0.802308L1.51556 0.772446C1.4946 0.772446 1.47333 0.782301 1.46286 0.762592V0.73273C1.44461 0.73536 1.42595 0.731871 1.41016 0.722875C1.38921 0.713021 1.41016 0.663152 1.36794 0.663152C1.35651 0.656901 1.34676 0.648266 1.33944 0.637911C1.33212 0.627556 1.32742 0.615759 1.32571 0.603428C1.32571 0.583719 1.33619 0.553857 1.30476 0.543704C1.29788 0.537775 1.29258 0.530403 1.28929 0.522186C1.286 0.513969 1.28482 0.505139 1.28584 0.496411C1.28686 0.487684 1.29005 0.479307 1.29516 0.471958C1.30027 0.46461 1.30715 0.458498 1.31524 0.454118L1.31556 0.454417ZM2.35746 2.48503C2.25206 2.4253 2.21016 2.38588 2.11524 2.39544H1.4419C1.39143 2.38649 1.34434 2.36523 1.30534 2.33379C1.26634 2.30234 1.2368 2.26182 1.21968 2.21627L1.20921 2.20641L1.19873 2.13713V1.28697H2.35651L2.35746 2.48503ZM2.41016 1.9505C2.41568 1.90341 2.42632 1.85698 2.44191 1.81194C2.44436 1.79524 2.44786 1.77868 2.45238 1.76237C2.43431 1.73579 2.42689 1.70404 2.43143 1.67278C2.43183 1.65134 2.43914 1.63051 2.45238 1.61306C2.46216 1.58484 2.47639 1.55816 2.4946 1.53392C2.52635 1.4742 2.53683 1.42493 2.56825 1.3655C2.58921 1.33564 2.65238 1.34579 2.68413 1.35565C2.6946 1.35565 2.70508 1.37536 2.70508 1.37536C2.72603 1.37536 2.73683 1.40522 2.73683 1.43508C2.74118 1.46938 2.73385 1.5041 2.71587 1.53422V1.58379C2.69492 1.58379 2.66317 1.58379 2.65238 1.55393C2.63143 1.54408 2.59968 1.55393 2.57873 1.53422C2.4946 1.53422 2.48349 1.6035 2.46286 1.66293C2.46286 1.67278 2.45238 1.68264 2.45238 1.69279C2.4419 1.70264 2.45238 1.72265 2.45238 1.73251C2.48413 1.74236 2.46286 1.78208 2.46286 1.80179C2.45238 1.86151 2.45238 1.92123 2.41016 1.9511C2.41048 1.96991 2.42095 1.9502 2.41048 1.9502L2.41016 1.9505ZM2.77841 1.72265C2.77267 1.72334 2.76685 1.72282 2.76135 1.72111C2.75586 1.71941 2.75084 1.71657 2.74667 1.7128C2.75714 1.70294 2.74667 1.68294 2.74667 1.67308C2.74667 1.66323 2.74667 1.66323 2.75714 1.66323C2.75714 1.64352 2.75714 1.61366 2.79936 1.62351C2.80463 1.63083 2.80745 1.63946 2.80745 1.6483C2.80745 1.65713 2.80463 1.66577 2.79936 1.67308C2.78921 1.69279 2.78921 1.7128 2.77873 1.72265H2.77841ZM2.76794 1.81224H2.75746C2.75594 1.79996 2.75701 1.78752 2.76061 1.77564C2.7642 1.76375 2.77025 1.75264 2.77841 1.74296C2.78227 1.75451 2.78333 1.76673 2.78151 1.77871C2.7797 1.7907 2.77506 1.80215 2.76794 1.81224ZM2.73619 1.78238C2.73619 1.79223 2.72571 1.80208 2.72571 1.81224C2.72571 1.82239 2.72571 1.82209 2.71524 1.83195H2.70476V1.8206C2.70476 1.79074 2.70476 1.76087 2.72571 1.75132C2.74667 1.74176 2.73651 1.77192 2.73651 1.78208L2.73619 1.78238ZM2.52571 1.7131C2.51524 1.70324 2.52571 1.69339 2.52571 1.67338V1.65367L2.55746 1.58439C2.56794 1.57454 2.57841 1.56468 2.58921 1.57454C2.6 1.58439 2.58921 1.59425 2.58921 1.61425L2.56825 1.68353L2.55778 1.71339C2.5473 1.7128 2.52603 1.72265 2.52603 1.7128L2.52571 1.7131ZM2.53619 1.79223V1.81194C2.53333 1.85129 2.51869 1.88908 2.49397 1.92093H2.48349C2.48534 1.88389 2.49239 1.84724 2.50444 1.81194C2.51492 1.79223 2.51492 1.77222 2.5254 1.75221C2.5254 1.74236 2.53587 1.75221 2.54635 1.75221C2.5473 1.76087 2.53651 1.78208 2.53651 1.79074L2.53619 1.79223ZM2.54667 1.86151L2.55714 1.82179L2.56762 1.76207C2.57179 1.7583 2.57681 1.75546 2.5823 1.75375C2.5878 1.75205 2.59363 1.75152 2.59937 1.75221C2.59937 1.77192 2.58889 1.79193 2.58889 1.81194C2.57711 1.8335 2.56999 1.85705 2.56794 1.88122C2.55746 1.88122 2.55746 1.89107 2.54698 1.88122L2.54667 1.86151ZM2.59937 1.7122V1.67248C2.60124 1.64176 2.60831 1.61152 2.62032 1.5829C2.62606 1.58221 2.63189 1.58273 2.63738 1.58444C2.64287 1.58614 2.64789 1.58898 2.65206 1.59275C2.65206 1.62261 2.64159 1.64232 2.64159 1.67189C2.64159 1.6916 2.63111 1.70175 2.63111 1.7116C2.61016 1.72215 2.59968 1.72255 2.59968 1.7128L2.59937 1.7122ZM2.63111 1.81134C2.6428 1.79318 2.64996 1.77276 2.65206 1.75162L2.66254 1.74176C2.67302 1.74176 2.68349 1.74176 2.68349 1.75162C2.68349 1.77133 2.67302 1.79133 2.67302 1.81134C2.67267 1.82971 2.66522 1.84734 2.65206 1.86091H2.64159C2.62095 1.85046 2.62095 1.83135 2.63143 1.81164L2.63111 1.81134ZM2.67333 1.7122V1.64292L2.68381 1.61306C2.69868 1.61156 2.71363 1.61505 2.72603 1.62291C2.72883 1.64008 2.72512 1.65763 2.71556 1.67248C2.71556 1.68234 2.70508 1.70235 2.70508 1.7122C2.70325 1.71455 2.70086 1.71645 2.6981 1.71777C2.69535 1.71908 2.6923 1.71977 2.68921 1.71977C2.68611 1.71977 2.68307 1.71908 2.68031 1.71777C2.67755 1.71645 2.67516 1.71455 2.67333 1.7122ZM2.67333 2.03889C2.65922 2.06967 2.63745 2.09682 2.60984 2.11802H2.59937C2.61058 2.08834 2.62856 2.06133 2.65206 2.03889C2.66286 2.02963 2.67333 2.02963 2.67333 2.03949V2.03889ZM2.71556 2.06875C2.71518 2.07386 2.71286 2.07868 2.70901 2.0823C2.70515 2.08592 2.70004 2.08811 2.6946 2.08846H2.68413C2.68317 2.07922 2.68457 2.06991 2.68821 2.06129C2.69186 2.05266 2.69764 2.04498 2.70508 2.03889L2.71556 2.02903C2.71556 2.02903 2.72603 2.03889 2.71556 2.03889C2.72603 2.04934 2.71556 2.05949 2.71556 2.06905V2.06875ZM2.72603 1.99947C2.71556 1.99947 2.70508 2.00933 2.69429 1.99947C2.69429 1.96961 2.72603 1.9499 2.74698 1.93019C2.76794 1.93019 2.78921 1.91048 2.79968 1.93019H2.81016C2.81016 1.92034 2.79968 1.91048 2.78921 1.90033C2.76191 1.89937 2.73483 1.90528 2.71077 1.91746C2.68672 1.92964 2.66656 1.94764 2.65238 1.96961L2.63143 2.03889L2.52603 2.17894C2.51556 2.2088 2.55778 2.19865 2.56825 2.21866C2.55368 2.21421 2.53806 2.2137 2.52319 2.21718C2.50832 2.22067 2.49478 2.22801 2.48413 2.23837C2.47365 2.22851 2.47365 2.19865 2.45238 2.19865C2.46286 2.1888 2.48413 2.19865 2.4946 2.1888C2.53683 2.13923 2.56825 2.08965 2.61048 2.03949C2.6431 1.99166 2.67828 1.94541 2.71587 1.90093C2.72735 1.88826 2.74229 1.87879 2.75907 1.87353C2.77586 1.86826 2.79385 1.86741 2.81111 1.87107C2.83206 1.87107 2.84286 1.89077 2.85333 1.90093C2.86061 1.92409 2.8625 1.94844 2.85888 1.97235C2.85527 1.99626 2.84623 2.01915 2.83238 2.03949C2.83238 2.04934 2.82191 2.04934 2.82191 2.05919V2.01948C2.81143 1.99977 2.80095 1.99977 2.77968 2.00962C2.75778 2.00962 2.74698 1.99977 2.72603 1.99977V1.99947ZM2.86286 1.46494C2.88381 1.45509 2.90508 1.46494 2.92635 1.45509C2.94634 1.4632 2.96814 1.46658 2.98984 1.46494C2.98984 1.48465 2.94762 1.4748 2.94762 1.50466V1.56438C2.94626 1.56306 2.94463 1.56201 2.94283 1.56129C2.94103 1.56058 2.9391 1.5602 2.93714 1.5602C2.93526 1.55986 2.93332 1.55986 2.93143 1.5602C2.92965 1.56089 2.92803 1.56191 2.92667 1.56319C2.91619 1.56319 2.92667 1.57304 2.91619 1.57304C2.90571 1.57304 2.89524 1.55333 2.88444 1.56319C2.88444 1.56319 2.87397 1.57304 2.87397 1.56319V1.53333C2.86349 1.51362 2.83175 1.51362 2.81048 1.51362C2.83143 1.49481 2.85238 1.48495 2.86286 1.46524V1.46494ZM2.8419 1.3658C2.85238 1.3658 2.85238 1.35595 2.8419 1.3658C2.84327 1.36448 2.84489 1.36344 2.84669 1.36272C2.84849 1.362 2.85043 1.36164 2.85238 1.36164C2.85433 1.36164 2.85627 1.362 2.85807 1.36272C2.85987 1.36344 2.8615 1.36448 2.86286 1.3658H2.88381C2.89429 1.35595 2.88381 1.31623 2.91556 1.32609C2.92603 1.33594 2.91556 1.3658 2.93651 1.3658H2.94698C2.95746 1.3658 2.97873 1.34609 2.98921 1.3658C2.98921 1.37566 2.97873 1.38551 2.96825 1.40552C2.92981 1.40056 2.89083 1.40056 2.85238 1.40552C2.85238 1.39596 2.8419 1.37596 2.8419 1.3661V1.3658ZM2.76825 2.03919C2.76825 2.02933 2.77873 2.02933 2.78921 2.02933V2.03919C2.78921 2.04904 2.77873 2.0589 2.77873 2.06905C2.77737 2.07037 2.77574 2.07142 2.77394 2.07213C2.77214 2.07285 2.77021 2.07322 2.76825 2.07322C2.7663 2.07322 2.76437 2.07285 2.76257 2.07213C2.76077 2.07142 2.75914 2.07037 2.75778 2.06905C2.75704 2.06365 2.7576 2.05817 2.75941 2.053C2.76123 2.04783 2.76425 2.04311 2.76825 2.03919ZM3.0946 2.19775C3.0946 2.19775 3.0419 2.15804 3.01048 2.12847C3 2.11862 3 2.12848 3 2.13833C3.02563 2.18215 3.05769 2.22236 3.09524 2.25778L3.10571 2.26763C3.09524 2.26763 3.08476 2.26763 3.08476 2.25778C3.06232 2.24658 3.04396 2.22932 3.03206 2.20821C3.01111 2.1885 3.01111 2.14848 2.97937 2.13893L2.96889 2.14878C2.97419 2.18494 2.97419 2.22162 2.96889 2.25778C2.96962 2.26317 2.96907 2.26866 2.96725 2.27383C2.96544 2.27899 2.96242 2.28371 2.95841 2.28764C2.94794 2.29749 2.93746 2.27778 2.92667 2.26793V2.25808C2.92667 2.21836 2.91619 2.17894 2.91619 2.14908C2.91619 2.13923 2.90571 2.14908 2.89524 2.14908C2.88057 2.19167 2.85917 2.23194 2.83175 2.26853C2.81568 2.28065 2.79795 2.29069 2.77905 2.29839C2.77905 2.28853 2.78952 2.27868 2.8 2.26853C2.82518 2.23439 2.84646 2.19786 2.86349 2.15953C2.86349 2.14968 2.86349 2.13982 2.85302 2.13982C2.83206 2.14968 2.82127 2.17954 2.80032 2.18939C2.79529 2.19544 2.78889 2.20034 2.78158 2.20375C2.77428 2.20716 2.76625 2.20899 2.7581 2.2091C2.76857 2.17924 2.78984 2.15953 2.80032 2.12997C2.81375 2.09811 2.83146 2.068 2.85302 2.04038C2.88476 1.99081 2.90571 1.94124 2.86349 1.89107C2.84553 1.87027 2.83128 1.84688 2.82127 1.82179C2.8108 1.77613 2.8108 1.72889 2.82127 1.68323C2.82127 1.67338 2.83175 1.65337 2.83175 1.64352C2.84222 1.62381 2.8527 1.58379 2.89524 1.59395C2.90571 1.6038 2.91619 1.61366 2.92698 1.6038C2.92698 1.59395 2.93746 1.59395 2.94794 1.59395C2.95841 1.6038 2.95841 1.61366 2.96889 1.61366C2.96889 1.6038 2.95841 1.61366 2.96889 1.61366C2.98984 1.63336 2.97937 1.66323 2.97937 1.69279C2.97937 1.73251 3.00032 1.77192 3.00032 1.80179C3.00032 1.81164 3.01079 1.82149 3.00032 1.83165C2.98984 1.86151 2.97937 1.90093 2.96857 1.93079C2.9663 1.977 2.98123 2.02252 3.01079 2.05949C3.01079 2.05949 3.00032 2.05949 3.01079 2.06935L3.0946 2.19775ZM3.07365 2.03919V2.05949C3.06822 2.05914 3.0631 2.05696 3.05925 2.05333C3.0554 2.04971 3.05307 2.0449 3.0527 2.03979V2.00992C3.07333 2.00963 3.07333 2.02963 3.07333 2.03949L3.07365 2.03919ZM3.12635 2.0789C3.11527 2.06796 3.10796 2.05411 3.1054 2.03919V2.00933H3.10952C3.11082 2.0098 3.11201 2.01051 3.11302 2.01142C3.11499 2.01322 3.11613 2.01569 3.11619 2.01828V2.03799C3.12603 2.05949 3.13651 2.06905 3.12603 2.0789H3.12635ZM3.21048 2.10877C3.18952 2.11862 3.17873 2.08906 3.16825 2.0789C3.16569 2.06398 3.15838 2.05014 3.1473 2.03919C3.1473 2.02933 3.1473 2.01948 3.15778 2.01948L3.17873 2.03919C3.1869 2.05698 3.19758 2.07365 3.21048 2.08876V2.10877ZM3.31587 2.20791C3.31039 2.1963 3.30151 2.1864 3.29026 2.17937C3.27902 2.17233 3.26588 2.16846 3.25238 2.16819C3.26286 2.15834 3.27333 2.13833 3.26286 2.12847L3.19937 2.03889L3.13587 1.93975C3.10413 1.92004 3.08317 1.89018 3.05175 1.90989C3.04127 1.90989 3.04127 1.91974 3.04127 1.92959C3.05175 1.93945 3.07302 1.92959 3.08349 1.92959C3.09583 1.93475 3.10636 1.94311 3.11383 1.95368C3.12131 1.96426 3.12543 1.97662 3.12571 1.98932C3.11789 1.98448 3.10873 1.9819 3.09937 1.9819C3.09 1.9819 3.08084 1.98448 3.07302 1.98932C3.05206 1.97946 3.03079 2.00903 3.02032 1.97946C3.02032 1.9496 2.99937 1.91018 3.02032 1.88988C3.04858 1.87291 3.08233 1.86592 3.11556 1.87017C3.13651 1.88002 3.1473 1.90003 3.16825 1.91974L3.2419 2.03919L3.3054 2.13833C3.31587 2.15804 3.34762 2.14818 3.3581 2.16819C3.33651 2.16819 3.32603 2.1879 3.31556 2.2088L3.31587 2.20791ZM3.28413 1.79223C3.28413 1.80208 3.2946 1.81194 3.2946 1.82209C3.3077 1.84669 3.31486 1.87372 3.31556 1.90123C3.31556 1.91108 3.30508 1.91108 3.30508 1.90123C3.28487 1.87816 3.27044 1.85112 3.26286 1.82209C3.25037 1.79981 3.23975 1.77665 3.23111 1.75281C3.23111 1.74296 3.23111 1.7331 3.24159 1.7331C3.26286 1.73101 3.27333 1.76087 3.28381 1.79074L3.28413 1.79223ZM3.25238 1.5832L3.26286 1.57334C3.30508 1.5832 3.30508 1.63307 3.32635 1.67248V1.68234C3.32598 1.68745 3.32365 1.69226 3.3198 1.69589C3.31595 1.69951 3.31083 1.7017 3.3054 1.70205C3.29492 1.70205 3.29492 1.70205 3.28444 1.69219V1.68234C3.28381 1.64322 3.25238 1.61366 3.25238 1.58379V1.5832ZM3.2419 1.70264H3.22095C3.21695 1.69872 3.21393 1.694 3.21211 1.68883C3.2103 1.68366 3.20974 1.67818 3.21048 1.67278C3.2 1.65307 3.2 1.63307 3.18952 1.61306C3.18952 1.6032 3.18952 1.6032 3.2 1.59335C3.23175 1.59335 3.23175 1.63307 3.2527 1.66263V1.68234C3.25208 1.69018 3.2482 1.69748 3.2419 1.70264ZM3.22095 1.78178C3.22095 1.79163 3.23143 1.80149 3.23143 1.81164C3.23143 1.82179 3.2419 1.8415 3.2419 1.85136C3.22095 1.85136 3.22095 1.83165 3.21016 1.82149V1.81164C3.19968 1.78178 3.17841 1.76207 3.18921 1.74236C3.19968 1.75222 3.21016 1.77192 3.22064 1.78208L3.22095 1.78178ZM3.16825 1.7125C3.13651 1.72235 3.12603 1.70264 3.12603 1.67278C3.12603 1.66293 3.12603 1.64292 3.11556 1.64292C3.11556 1.63307 3.12603 1.61306 3.13651 1.61306C3.17873 1.61306 3.16825 1.65277 3.17873 1.67278C3.17873 1.6754 3.17983 1.6779 3.1818 1.67975C3.18376 1.6816 3.18643 1.68264 3.18921 1.68264C3.18921 1.69279 3.18921 1.7128 3.16825 1.7128V1.7125ZM3.17873 1.82149C3.17873 1.83135 3.16825 1.82149 3.16825 1.82149C3.15657 1.80333 3.1494 1.78291 3.1473 1.76177C3.16825 1.76087 3.17873 1.79074 3.17873 1.8206V1.82149ZM3.12603 1.77192C3.12603 1.78178 3.13651 1.79163 3.13651 1.81164C3.12481 1.79348 3.11765 1.77306 3.11556 1.75192C3.11556 1.74236 3.12603 1.76087 3.12603 1.77192ZM3.09429 1.73221C3.06254 1.73221 3.06254 1.70235 3.06254 1.67248C3.06328 1.66709 3.06272 1.6616 3.0609 1.65643C3.05909 1.65127 3.05607 1.64655 3.05206 1.64262C3.05206 1.63277 3.05206 1.63277 3.06254 1.62291C3.08349 1.61306 3.09429 1.63277 3.09429 1.64262C3.09429 1.65248 3.09429 1.66233 3.10476 1.66233C3.10508 1.69279 3.11556 1.72265 3.0946 1.73101L3.09429 1.73221ZM3.06254 1.74206C3.08349 1.74206 3.08349 1.76177 3.09429 1.77192C3.09429 1.78178 3.10476 1.80179 3.09429 1.81164V1.8206C3.08381 1.83045 3.08381 1.8206 3.07333 1.81074C3.07333 1.80089 3.07333 1.80089 3.06286 1.80089C3.06286 1.78208 3.05238 1.76088 3.06286 1.74236L3.06254 1.74206ZM3.35714 1.90033C3.33869 1.87247 3.32448 1.84231 3.31492 1.81074C3.30445 1.79104 3.29397 1.76117 3.28318 1.74146C3.29365 1.74146 3.28317 1.73161 3.29365 1.72176C3.29909 1.7221 3.3042 1.72429 3.30805 1.72792C3.31191 1.73154 3.31423 1.73635 3.3146 1.74146C3.32639 1.76303 3.33351 1.78658 3.33556 1.81074C3.34632 1.82306 3.35383 1.8376 3.35748 1.85317C3.36112 1.86874 3.36079 1.8849 3.35651 1.90033C3.36825 1.91018 3.36825 1.90063 3.35746 1.90063L3.35714 1.90033ZM3.3781 1.81074C3.36494 1.78971 3.35773 1.76586 3.35714 1.74146C3.34667 1.7116 3.38889 1.70175 3.3781 1.67219C3.36666 1.62371 3.34116 1.57916 3.30444 1.54348C3.26222 1.52377 3.25175 1.57334 3.20921 1.56319C3.18825 1.60291 3.13556 1.57304 3.10381 1.60291V1.53363C3.08269 1.47924 3.08269 1.41959 3.10381 1.3652L3.13556 1.3455C3.1563 1.33607 3.17963 1.3329 3.20237 1.33643C3.2251 1.33996 3.24612 1.35001 3.26254 1.3652C3.29685 1.41838 3.32505 1.47484 3.34667 1.53363C3.35714 1.54348 3.35714 1.55333 3.36762 1.57334C3.38439 1.60782 3.39511 1.64463 3.39936 1.68234V1.72205C3.37841 1.75192 3.40984 1.78178 3.42032 1.80119V1.8206C3.43587 1.8591 3.44652 1.89919 3.45206 1.94005C3.41386 1.90557 3.38819 1.86064 3.37873 1.81164L3.3781 1.81074ZM3.51492 0.276142V1.28607H2.35778V0.098762H3.52603C3.47333 0.098762 3.51556 0.217612 3.51556 0.277038L3.51492 0.276142Z" fill="white"/>
<path d="M2.89596 1.50506L2.90644 1.49521C2.90644 1.48535 2.89596 1.48535 2.88548 1.48535C2.88271 1.48535 2.88004 1.48639 2.87808 1.48824C2.87611 1.49009 2.87501 1.49259 2.87501 1.49521C2.87469 1.50506 2.88548 1.50506 2.89596 1.50506Z" fill="white"/>
<path d="M1.8857 0.327622C1.8857 0.327622 1.87522 0.317768 1.87522 0.327622C1.87005 0.333091 1.86719 0.340158 1.86719 0.34748C1.86719 0.354803 1.87005 0.361869 1.87522 0.367338C1.87363 0.353352 1.87735 0.339287 1.8857 0.327622Z" fill="white"/>
<path d="M1.93675 0.317238C1.94723 0.307384 1.94723 0.297529 1.94723 0.277521C1.94686 0.272409 1.94453 0.267596 1.94068 0.263973C1.93683 0.26035 1.93171 0.258161 1.92628 0.257812C1.9158 0.267667 1.93675 0.287675 1.92628 0.297529C1.9158 0.317238 1.90532 0.317238 1.89453 0.327391C1.90501 0.336947 1.92628 0.317238 1.93675 0.317238Z" fill="white"/>
<path d="M2.0088 0.505149C2.04055 0.544865 2.08246 0.48544 2.12468 0.505149C2.12468 0.495294 2.1142 0.495294 2.10373 0.495294C2.08277 0.475585 2.0615 0.505148 2.04023 0.495294C2.02976 0.495294 2.02976 0.48544 2.01928 0.475586C2.00773 0.480662 1.99704 0.487301 1.98754 0.495294C1.97706 0.505148 1.95579 0.505149 1.94531 0.515003C1.96658 0.534712 1.98753 0.515003 2.0088 0.505149Z" fill="white"/>
<path d="M1.49271 0.435439C1.51366 0.435439 1.54541 0.445294 1.56636 0.425585C1.58731 0.405876 1.59811 0.445294 1.62985 0.435439C1.67208 0.435439 1.65081 0.385869 1.69335 0.395723C1.70447 0.393707 1.71491 0.389173 1.72376 0.382514C1.73261 0.375855 1.7396 0.36727 1.74414 0.3575C1.73366 0.317784 1.76509 0.30793 1.76509 0.278366C1.76509 0.268512 1.75462 0.248504 1.73335 0.258657V0.267915C1.74382 0.277769 1.73335 0.297776 1.73335 0.30763C1.7016 0.317485 1.72287 0.347347 1.71239 0.367354C1.70192 0.416925 1.63874 0.367355 1.63874 0.407071C1.62827 0.416925 1.61779 0.436933 1.59652 0.42678C1.56477 0.387064 1.5543 0.446489 1.51239 0.42678C1.50192 0.42678 1.49144 0.416925 1.48065 0.407071C1.46985 0.397217 1.48065 0.367355 1.45969 0.377209C1.44922 0.387064 1.44922 0.387064 1.44922 0.396918C1.46128 0.417224 1.47176 0.435439 1.49271 0.435439Z" fill="white"/>
<path d="M1.80816 0.564371C1.80816 0.5148 1.87166 0.544662 1.89229 0.495091C1.90065 0.483426 1.90436 0.469361 1.90277 0.455375C1.89229 0.425513 1.91324 0.405805 1.91324 0.376241C1.91324 0.366387 1.90277 0.356532 1.8815 0.366386C1.88884 0.378455 1.89247 0.392207 1.89197 0.406103C1.86023 0.435965 1.90245 0.475383 1.87102 0.505245C1.85007 0.524954 1.79737 0.505245 1.79737 0.544961C1.78689 0.554815 1.78689 0.574823 1.76562 0.574823C1.78068 0.576216 1.79576 0.572509 1.80816 0.564371Z" fill="white"/>
<path d="M4.34774 1.99016C4.39728 1.96393 4.45281 1.94933 4.50963 1.94761C4.56645 1.9459 4.62287 1.95711 4.67409 1.98031C4.66362 1.92059 4.63187 1.84175 4.52679 1.84175C4.54267 1.80741 4.55086 1.77036 4.55086 1.7329C4.55086 1.69545 4.54267 1.6584 4.52679 1.62406C4.49505 1.65392 4.49505 1.7435 4.4633 1.76262C4.2633 1.8522 4.43155 1.52372 4.43155 1.4855C4.44391 1.44806 4.44554 1.40822 4.43629 1.36999C4.42704 1.33177 4.40722 1.29652 4.37885 1.26781C4.36838 1.28751 4.36838 1.36695 4.32616 1.39651C4.25251 1.38666 4.3052 1.15762 4.25251 1.1391C4.26298 1.19882 4.22076 1.21823 4.21028 1.25855C4.18949 1.2357 4.17557 1.20803 4.16999 1.17841C4.16441 1.14879 4.16736 1.11831 4.17854 1.09013C4.19594 1.05805 4.21725 1.02799 4.24203 1.00054C4.17854 0.980832 4.12616 1.02025 4.06298 1.04026C4.05871 0.983679 4.0325 0.930546 3.98933 0.890948C3.99363 0.914622 3.9898 0.93897 3.97838 0.960452C3.96696 0.981933 3.94855 0.999429 3.92584 1.0104C3.90021 0.986189 3.88183 0.95604 3.87257 0.923001C3.86332 0.889963 3.86352 0.85521 3.87314 0.822266C3.86325 0.824619 3.85398 0.828856 3.8459 0.834713C3.83782 0.840571 3.8311 0.847925 3.82616 0.856321C3.82122 0.864718 3.81817 0.873977 3.81718 0.883529C3.8162 0.89308 3.81731 0.902719 3.82044 0.911851L3.79949 0.901997C3.76774 1.18897 3.97854 1.30782 3.95822 1.33768C3.89289 1.34136 3.8286 1.35477 3.76774 1.3774C3.76774 1.38725 3.99917 1.48639 4.08362 1.62495C4.19949 1.79337 4.10457 1.86385 4.06266 1.87251C3.93568 1.88236 3.95727 1.7438 4.06266 1.79337C4.00997 1.66467 3.87219 1.65481 3.86266 1.70379C3.85299 1.69572 3.84524 1.68581 3.83994 1.67472C3.83463 1.66363 3.83189 1.6516 3.83189 1.63944C3.83189 1.62727 3.83463 1.61525 3.83994 1.60415C3.84524 1.59306 3.85299 1.58315 3.86266 1.57508C3.75727 1.58494 3.75727 1.69453 3.74679 1.72439C3.71467 1.7181 3.68123 1.72256 3.65224 1.73701C3.62326 1.75146 3.60055 1.77499 3.58806 1.80353C3.69346 1.73425 4.13536 2.05108 3.86171 2.20935C3.75631 2.17949 3.86171 2.10035 3.85124 2.0899C3.71441 2.09976 3.756 2.22846 3.70393 2.20935C3.66375 2.20054 3.62485 2.18721 3.58806 2.16963C3.6203 2.22405 3.65548 2.27687 3.69346 2.3279C3.65124 2.36762 3.59822 2.45661 3.64076 2.49632C3.63028 2.45661 3.76774 2.37688 3.75663 2.51603C3.73568 2.61517 3.51441 2.63548 3.58838 2.4369C3.52489 2.44675 3.48298 2.50618 3.45155 2.55635C3.41981 2.55635 3.35631 2.50677 3.33568 2.50677C3.33568 2.51663 3.48298 2.6949 3.33568 2.84332C3.32621 2.81743 3.30936 2.79449 3.28696 2.777C3.26457 2.75952 3.23749 2.74816 3.2087 2.74418C3.09282 2.74418 3.08171 2.79375 3.08171 2.79375C3.11346 2.78389 3.15536 2.77404 3.16584 2.79375C3.20806 2.92245 3.10235 2.93231 3.00711 2.89289C3.00711 2.89289 2.92298 2.86303 2.93346 2.88303C3.01758 2.93261 2.9652 3.10073 2.83822 2.95231C2.78 3.02357 2.74673 3.11007 2.74298 3.19987C2.6398 3.32334 2.51947 3.43322 2.3852 3.52656C2.34298 3.44742 2.4487 3.41756 2.48044 3.41756C2.46997 3.36799 2.3852 3.3877 2.3852 3.3877C2.3852 3.36799 2.4487 3.30857 2.48044 3.32798C2.43822 3.27841 2.35346 3.30827 2.34362 3.30827C2.35409 3.23899 2.44901 3.15896 2.48044 3.1291C2.48682 3.13087 2.49275 3.13387 2.49785 3.13789C2.50296 3.14191 2.50712 3.14687 2.5101 3.15247C2.51308 3.15807 2.5148 3.16419 2.51516 3.17044C2.51552 3.1767 2.51451 3.18295 2.51219 3.18882C2.55441 3.18882 2.55441 3.1291 2.55441 3.1291C2.56826 3.12946 2.58202 3.12697 2.59474 3.12181C2.60746 3.11666 2.61883 3.10895 2.62806 3.09923C2.83854 2.90125 2.82806 2.83048 2.81854 2.80211C2.81217 2.78632 2.80231 2.77198 2.78961 2.76004C2.77692 2.7481 2.76167 2.73882 2.74489 2.73283C2.64965 2.72297 2.48171 2.88214 2.45028 3.02995C2.42933 3.02995 2.39758 3.03981 2.39758 3.06967C2.40806 3.06967 2.43981 3.05982 2.45028 3.07953C2.45028 3.07953 2.36616 3.16911 2.33441 3.19897C2.32126 3.13375 2.31774 3.06712 2.32393 3.00099C2.33441 2.99114 2.35568 3.03085 2.36616 3.03085C2.3979 3.03085 2.37663 2.97113 2.37663 2.95172C2.39758 2.92186 2.42933 2.86213 2.42933 2.86213C2.48203 2.61458 2.32393 2.59337 2.30235 2.59337C2.28076 2.59337 2.10235 2.60323 2.17536 2.86213C2.17536 2.86213 2.20711 2.92186 2.22806 2.95172C2.22806 2.97143 2.19631 3.03085 2.23854 3.03085C2.24901 3.03085 2.27028 2.99114 2.28076 3.00099C2.28696 3.06712 2.28343 3.13375 2.27028 3.19897C2.22794 3.1625 2.18916 3.12253 2.15441 3.07953C2.16489 3.05982 2.18616 3.06967 2.20711 3.06967C2.19663 3.02996 2.17536 3.02995 2.15441 3.02995C2.12266 2.87169 1.95441 2.71312 1.85981 2.73283C1.84214 2.73728 1.82604 2.74602 1.81311 2.75819C1.80018 2.77035 1.79089 2.78549 1.78616 2.80211C1.77568 2.82182 1.7652 2.90125 1.97663 3.09923C1.99758 3.10909 2.02933 3.11894 2.05028 3.1291C2.05028 3.1291 2.05028 3.18882 2.09251 3.18882C2.07155 3.13925 2.10298 3.1291 2.12425 3.1291C2.18927 3.17332 2.23728 3.23619 2.26108 3.30827C2.23842 3.30009 2.21388 3.2976 2.18989 3.30106C2.16589 3.30452 2.14327 3.31379 2.12425 3.32798C2.156 3.30827 2.21949 3.36769 2.21949 3.3877C2.21949 3.3877 2.14584 3.36799 2.12425 3.41756C2.16647 3.41756 2.26108 3.44742 2.21949 3.52656C2.08761 3.4306 1.9676 3.32101 1.86171 3.19987C1.85512 3.11061 1.82213 3.02487 1.76647 2.95231C1.6506 3.10162 1.59822 2.93261 1.67124 2.88303C1.69219 2.85317 1.59758 2.89289 1.59758 2.89289C1.51346 2.93261 1.40711 2.92275 1.43885 2.79375C1.44933 2.77404 1.50235 2.78389 1.52298 2.79375C1.52298 2.79375 1.51251 2.74418 1.396 2.74418C1.36677 2.74701 1.33909 2.75794 1.31648 2.77559C1.29388 2.79324 1.27735 2.81682 1.26901 2.84332C1.13219 2.69401 1.26901 2.51663 1.26901 2.50677C1.25854 2.50677 1.18489 2.54649 1.15314 2.55635C1.14198 2.52769 1.12377 2.50192 1.09999 2.48116C1.0762 2.46039 1.04753 2.44523 1.01631 2.4369C1.07981 2.64593 0.857585 2.61607 0.848061 2.51603C0.837585 2.37747 0.975045 2.45631 0.963934 2.49632C1.00616 2.45661 0.953457 2.36762 0.911235 2.3279C0.932187 2.29804 1.01663 2.16963 1.01663 2.16963C0.980589 2.18877 0.94144 2.20219 0.900759 2.20935C0.906293 2.19571 0.908419 2.18105 0.906971 2.16651C0.905523 2.15197 0.900541 2.13794 0.89241 2.1255C0.884279 2.11306 0.873216 2.10255 0.860077 2.09477C0.846937 2.08699 0.832073 2.08216 0.816632 2.08065C0.79568 2.0905 0.900759 2.17023 0.806156 2.20009C0.532505 2.04183 0.97441 1.72499 1.07981 1.79427C1.06732 1.76574 1.04461 1.74221 1.01562 1.72776C0.986638 1.7133 0.953193 1.70884 0.921077 1.71514C0.900124 1.68527 0.900124 1.58643 0.794093 1.57658C0.811136 1.59418 0.820582 1.61712 0.820582 1.64093C0.820582 1.66474 0.811136 1.68768 0.794093 1.70528C0.783616 1.66557 0.646791 1.66557 0.594093 1.79487C0.699489 1.7453 0.721077 1.88445 0.594093 1.874C0.55187 1.86415 0.457267 1.79487 0.57314 1.62645C0.657267 1.48789 0.889013 1.38755 0.889013 1.37889C0.828153 1.35626 0.763862 1.34285 0.698537 1.33917C0.688061 1.30931 0.898537 1.18987 0.866791 0.90349L0.845838 0.913344C0.848972 0.904212 0.850081 0.894573 0.849097 0.885022C0.848113 0.875471 0.845057 0.866211 0.840118 0.857815C0.835179 0.849419 0.828462 0.842064 0.820381 0.836207C0.812301 0.830349 0.80303 0.826112 0.79314 0.823758C0.79314 0.843467 0.814093 0.962318 0.740442 1.01189C0.716207 1.00267 0.696383 0.985448 0.684692 0.963454C0.673001 0.941461 0.670248 0.916209 0.67695 0.892441C0.635902 0.933423 0.610063 0.985805 0.603299 1.04175C0.5506 1.02204 0.497902 0.982026 0.424251 1.00203C0.445203 1.0319 0.476949 1.0516 0.487743 1.09162C0.498923 1.1198 0.501875 1.15029 0.496292 1.1799C0.490709 1.20952 0.476795 1.23719 0.455997 1.26004C0.445521 1.22032 0.413775 1.21047 0.413775 1.14059C0.361076 1.1603 0.424251 1.38815 0.340124 1.398C0.307779 1.36184 0.289228 1.31653 0.287426 1.2693C0.262286 1.29977 0.244541 1.33505 0.235437 1.37265C0.226333 1.41026 0.226091 1.44929 0.234727 1.48699C0.245203 1.52671 0.402981 1.8534 0.202981 1.76411C0.171235 1.73425 0.171235 1.65511 0.139489 1.62555C0.123593 1.65989 0.115389 1.69694 0.115389 1.7344C0.115389 1.77185 0.123593 1.8089 0.139489 1.84324C0.101791 1.84701 0.0666048 1.86281 0.0397988 1.88803C0.0129928 1.91324 -0.00381201 1.94634 -0.0078125 1.9818C0.0426749 1.95622 0.0994576 1.94366 0.156773 1.94539C0.214089 1.94712 0.269897 1.96308 0.318537 1.99166C0.339489 2.00151 0.509013 2.16008 0.318537 2.20935C0.255045 2.20935 0.21314 2.11977 0.21314 2.11977C0.199789 2.18271 0.211923 2.24808 0.247161 2.30305C0.282399 2.35802 0.338199 2.39862 0.403616 2.41689C0.445839 2.44675 0.487743 2.48617 0.477267 2.53634C0.435045 2.61547 0.382029 2.47662 0.382029 2.47662C0.364932 2.50143 0.354979 2.53 0.353143 2.55952C0.351306 2.58905 0.35765 2.61851 0.371553 2.64503C0.371553 2.64503 0.244568 2.72417 0.371553 2.87288C0.582029 2.46706 0.85568 2.72357 0.792505 2.8036C0.760759 2.85317 0.687108 2.84332 0.633775 2.84332C0.638018 2.87857 0.656974 2.9108 0.686474 2.9329C0.668492 2.95339 0.656183 2.97775 0.650644 3.0038C0.645104 3.02986 0.646507 3.05679 0.654728 3.08221C0.684878 3.03417 0.731507 2.99721 0.786951 2.9774C0.842394 2.95759 0.903354 2.95612 0.959807 2.97322C0.980759 2.98307 1.07568 3.0425 0.938854 3.10192C0.927167 3.12009 0.920004 3.14051 0.917902 3.16165C1.05473 3.07206 1.33885 3.09237 1.40203 3.1715C1.43378 3.27064 1.32838 3.27064 1.30679 3.29095C1.32955 3.31646 1.36125 3.33348 1.39617 3.33896C1.43109 3.34443 1.46694 3.338 1.49727 3.32081C1.51822 3.35067 1.48679 3.38053 1.48679 3.4104C1.51295 3.41105 1.53892 3.406 1.56265 3.39564C1.58639 3.38528 1.60726 3.36988 1.62362 3.35067C1.64993 3.3788 1.68231 3.40134 1.7186 3.41678C1.75489 3.43223 1.79426 3.44023 1.83409 3.44026C1.84457 3.42055 1.82362 3.40054 1.83409 3.38053C1.89758 3.36082 2.07631 3.5597 2.13917 3.67766C2.12657 3.67534 2.11353 3.67616 2.10137 3.68004C2.0892 3.68392 2.07833 3.69073 2.06983 3.69978C2.06132 3.70884 2.05548 3.71983 2.05289 3.73166C2.0503 3.7435 2.05104 3.75576 2.05504 3.76725C2.13917 3.68811 2.17092 3.79711 2.20235 3.82697C2.23409 3.86669 2.16012 3.84668 2.14965 3.87654C2.17551 3.88791 2.19726 3.90616 2.21221 3.92904C2.22716 3.95191 2.23466 3.97841 2.23377 4.00525H2.49695C2.49606 3.97841 2.50356 3.95191 2.51851 3.92904C2.53346 3.90616 2.55522 3.88791 2.58108 3.87654C2.58108 3.83682 2.50743 3.86669 2.52838 3.82697C2.56012 3.79711 2.59187 3.68841 2.67568 3.76725C2.67895 3.75581 2.67915 3.7438 2.67628 3.73227C2.6734 3.72074 2.66754 3.71006 2.6592 3.70119C2.65087 3.69232 2.64033 3.68552 2.62853 3.68142C2.61672 3.67731 2.60402 3.67602 2.59155 3.67766C2.64425 3.55821 2.83378 3.36082 2.89663 3.38053C2.90711 3.40024 2.88616 3.42025 2.89663 3.44026C2.9761 3.4357 3.05101 3.40381 3.10711 3.35067C3.12347 3.36988 3.14433 3.38528 3.16807 3.39564C3.19181 3.406 3.21777 3.41105 3.24393 3.4104C3.24393 3.38053 3.21219 3.35067 3.23346 3.32081C3.28616 3.34052 3.37028 3.37038 3.42393 3.29095C3.40298 3.28109 3.29695 3.27124 3.3287 3.1715C3.39219 3.08191 3.66552 3.07236 3.81282 3.16165C3.81429 3.15085 3.81318 3.13988 3.80955 3.12955C3.80592 3.11921 3.79988 3.10977 3.79187 3.10192C3.65505 3.0422 3.73917 2.98248 3.77092 2.97322C3.82737 2.95612 3.88833 2.95759 3.94377 2.9774C3.99922 2.99721 4.04585 3.03417 4.076 3.08221C4.08218 3.05663 4.08255 3.0301 4.07708 3.00437C4.07161 2.97864 4.06042 2.95429 4.04425 2.9329C4.0614 2.92447 4.07554 2.91149 4.08491 2.89556C4.09428 2.87963 4.09847 2.86147 4.09695 2.84332C4.04425 2.85317 3.96012 2.85317 3.93822 2.8036C3.87473 2.71402 4.1487 2.46706 4.35917 2.87288C4.48616 2.72357 4.35917 2.64503 4.35917 2.64503C4.37323 2.61855 4.37966 2.58906 4.37782 2.55951C4.37598 2.52996 4.36594 2.50138 4.3487 2.47662C4.3487 2.47662 4.296 2.61517 4.25346 2.53634C4.24298 2.48677 4.2852 2.44675 4.32711 2.41689C4.39306 2.39942 4.44946 2.35897 4.48484 2.30378C4.52023 2.24858 4.53193 2.18279 4.51758 2.11977C4.51758 2.11977 4.47536 2.21891 4.41219 2.20935C4.15949 2.15859 4.32679 2.00002 4.34774 1.99016Z" fill="white"/>
</g>
<defs>
<clipPath id="clip0_168_1801">
<rect width="20" height="4" fill="white"/>
</clipPath>
</defs>
</svg>
