<svg width="13" height="12" viewBox="0 0 13 12" fill="none" xmlns="http://www.w3.org/2000/svg">
<path fill-rule="evenodd" clip-rule="evenodd" d="M4.96772 0.788537C5.71868 -0.262846 7.28128 -0.262846 8.03229 0.788537L8.15187 0.95592C8.28399 1.14096 8.50594 1.24004 8.7319 1.21493L9.2648 1.15572C10.4642 1.02246 11.4775 2.03585 11.3443 3.23518L11.2851 3.76809C11.26 3.99408 11.359 4.21599 11.5441 4.34816L11.7115 4.46772C12.7628 5.21868 12.7628 6.78128 11.7115 7.53229L11.5441 7.65187C11.359 7.78399 11.26 8.00594 11.2851 8.2319L11.3443 8.7648C11.4775 9.96416 10.4642 10.9775 9.2648 10.8443L8.7319 10.7851C8.50594 10.76 8.28399 10.859 8.15187 11.0441L8.03229 11.2115C7.28128 12.2628 5.71874 12.2628 4.96772 11.2115L4.84816 11.0441C4.71599 10.859 4.49408 10.76 4.26808 10.7851L3.73518 10.8443C2.53585 10.9775 1.52246 9.96416 1.65572 8.7648L1.71493 8.2319C1.74004 8.00594 1.64096 7.78399 1.45592 7.65187L1.28854 7.53229C0.237154 6.78128 0.237154 5.21874 1.28854 4.46772L1.45592 4.34816C1.64096 4.21599 1.74004 3.99408 1.71493 3.76808L1.65572 3.23518C1.52246 2.03585 2.53585 1.02246 3.73518 1.15572L4.26809 1.21493C4.49408 1.24004 4.71599 1.14096 4.84816 0.95592L4.96772 0.788537ZM8.82687 4.30082C9.07198 4.54595 9.07198 4.94338 8.82687 5.18849L6.42984 7.58552C6.12196 7.89346 5.62271 7.89346 5.31483 7.58552L4.17314 6.44384C3.92802 6.19873 3.92802 5.80129 4.17314 5.55618C4.41827 5.31107 4.81569 5.31107 5.06082 5.55618L5.87233 6.3677L7.93921 4.30082C8.18432 4.0557 8.58176 4.0557 8.82687 4.30082Z" fill="#464F5D"/>
</svg>
