<svg width="47" height="47" viewBox="0 0 47 47" fill="none" xmlns="http://www.w3.org/2000/svg">
<g clip-path="url(#clip0_254_661)">
<path d="M40.2825 0.789062H6.49406C2.98007 0.789062 0.141846 3.42979 0.141846 6.69926V40.1484C0.141846 43.4179 2.98007 46.0586 6.49406 46.0586H40.2825C43.7965 46.0586 46.6347 43.4179 46.6347 40.1484V6.69926C46.7698 3.42979 43.7965 0.789062 40.2825 0.789062ZM37.5794 17.5137L21.361 32.6035C20.6852 33.2323 20.0094 33.4838 19.1985 33.4838C18.5227 33.4838 17.5767 33.2323 17.036 32.6035L9.19713 25.3101C8.52137 24.6813 8.52137 23.8011 9.19713 23.2981L11.3596 21.2861C12.0354 20.6574 12.9814 20.6574 13.522 21.2861L19.1985 26.5676L33.1193 13.6154C33.7951 12.9867 34.7412 12.9867 35.2818 13.6154L37.4442 15.6274C38.12 16.0047 38.12 17.0107 37.5794 17.5137Z" fill="#464F5D"/>
</g>
<defs>
<clipPath id="clip0_254_661">
<rect x="0.141602" y="0.789062" width="46.4973" height="45.2696" rx="22.6348" fill="white"/>
</clipPath>
</defs>
</svg>
