<svg width="20" height="17" viewBox="0 0 20 17" fill="none" xmlns="http://www.w3.org/2000/svg">
<path d="M19.2352 7.12639V9.06104C19.2352 9.57757 18.822 10.0002 18.2961 10.019H16.4553C15.4411 10.019 14.5113 9.27704 14.4268 8.26276C14.3704 7.6711 14.5958 7.117 14.9903 6.73195C15.3378 6.37507 15.8167 6.16846 16.3426 6.16846H18.2961C18.822 6.18724 19.2352 6.60986 19.2352 7.12639Z" fill="#13CD90"/>
<path d="M17.7981 11.4276H16.4551C14.6708 11.4276 13.1681 10.0846 13.0179 8.37536C12.9333 7.39864 13.2902 6.42193 14.004 5.72696C14.605 5.10712 15.4409 4.75963 16.3424 4.75963H17.7981C18.0705 4.75963 18.2959 4.53424 18.2677 4.26188C18.0611 1.97975 16.5491 0.420759 14.3045 0.157797C14.0791 0.120231 13.8443 0.11084 13.6001 0.11084H5.14778C4.88481 0.11084 4.63124 0.129623 4.38707 0.167189C1.99223 0.467717 0.452026 2.2521 0.452026 4.80659V11.3806C0.452026 13.9727 2.55572 16.0764 5.14778 16.0764H13.6001C16.2297 16.0764 18.0423 14.4329 18.2677 11.9253C18.2959 11.653 18.0705 11.4276 17.7981 11.4276ZM10.7827 5.98053H5.14778C4.76272 5.98053 4.44341 5.66122 4.44341 5.27617C4.44341 4.89111 4.76272 4.5718 5.14778 4.5718H10.7827C11.1677 4.5718 11.487 4.89111 11.487 5.27617C11.487 5.66122 11.1677 5.98053 10.7827 5.98053Z" fill="#13CD90"/>
</svg>
