<svg width="21" height="18" viewBox="0 0 21 18" fill="none" xmlns="http://www.w3.org/2000/svg">
<path d="M20.9162 7.92724V10.0731C20.9162 10.646 20.4579 11.1147 19.8746 11.1355H17.8329C16.7079 11.1355 15.6767 10.3126 15.5829 9.18765C15.5204 8.5314 15.7704 7.91682 16.2079 7.48974C16.5933 7.09391 17.1246 6.86475 17.7079 6.86475H19.8746C20.4579 6.88558 20.9162 7.35433 20.9162 7.92724Z" fill="white"/>
<path d="M19.3229 12.698H17.8333C15.8542 12.698 14.1875 11.2084 14.0208 9.3126C13.9271 8.22927 14.3229 7.14595 15.1146 6.37512C15.7812 5.68762 16.7083 5.30221 17.7083 5.30221H19.3229C19.625 5.30221 19.875 5.05221 19.8437 4.75013C19.6145 2.2189 17.9375 0.489744 15.4479 0.198079C15.1979 0.156413 14.9375 0.145996 14.6667 0.145996H5.29173C5.00007 0.145996 4.71882 0.166829 4.44799 0.208496C1.79176 0.541827 0.0834351 2.52098 0.0834351 5.35429V12.6459C0.0834351 15.5209 2.41675 17.8542 5.29173 17.8542H14.6667C17.5833 17.8542 19.5937 16.0313 19.8437 13.2501C19.875 12.948 19.625 12.698 19.3229 12.698ZM11.5417 6.65637H5.29173C4.86465 6.65637 4.51049 6.3022 4.51049 5.87512C4.51049 5.44804 4.86465 5.09388 5.29173 5.09388H11.5417C11.9688 5.09388 12.3229 5.44804 12.3229 5.87512C12.3229 6.3022 11.9688 6.65637 11.5417 6.65637Z" fill="white"/>
</svg>
