<svg width="18" height="18" viewBox="0 0 18 18" fill="none" xmlns="http://www.w3.org/2000/svg">
<path d="M15.7266 4.12677L10.7927 0.674762C9.44785 -0.267475 7.38349 -0.21608 6.09006 0.786117L1.7986 4.13534C0.942017 4.80347 0.26532 6.174 0.26532 7.25329V13.1637C0.26532 15.348 2.03844 17.1296 4.22271 17.1296H13.4566C15.6409 17.1296 17.414 15.3565 17.414 13.1722V7.36464C17.414 6.20826 16.6688 4.78634 15.7266 4.12677ZM9.48211 13.7033C9.48211 14.0545 9.19087 14.3458 8.83967 14.3458C8.48848 14.3458 8.19724 14.0545 8.19724 13.7033V11.1336C8.19724 10.7824 8.48848 10.4912 8.83967 10.4912C9.19087 10.4912 9.48211 10.7824 9.48211 11.1336V13.7033Z" fill="#464F5D"/>
</svg>
