<svg width="54" height="51" viewBox="0 0 54 51" fill="none" xmlns="http://www.w3.org/2000/svg">
<path d="M9.90954 34.596L1.31606 43.4556C-0.237376 45.0568 -0.198084 47.6143 1.40305 49.1675C3.00448 50.7208 5.56173 50.6816 7.11516 49.0803L15.7086 40.2208C13.4859 38.672 11.5253 36.7704 9.90954 34.596Z" fill="#09090D"/>
<path d="M28.8077 36.7341C37.5971 36.7341 44.7162 29.6027 44.7162 20.8189C44.7162 18.1492 44.0538 15.6289 42.8875 13.4167C42.281 12.2686 41.4786 11.1111 40.5828 10.1217C38.2036 7.49871 34.9565 5.66917 31.299 5.09977C29.069 4.74506 26.671 4.88507 24.5064 5.49181C17.8071 7.36803 12.8899 13.5194 12.8899 20.8189C12.8992 29.612 20.0184 36.7341 28.8077 36.7341Z" fill="url(#paint0_linear_1_11753)" fill-opacity="0.6"/>
<path d="M24.3754 11.5723C19.9291 11.5723 16.3338 15.1849 16.3338 19.6139C16.3338 20.6733 17.2022 21.5418 18.2617 21.5418C19.3212 21.5418 20.1896 20.6733 20.1896 19.6139C20.1896 17.3039 22.0828 15.4107 24.3928 15.4107C25.4522 15.4107 26.3207 14.5423 26.3207 13.4828C26.3033 12.4233 25.4349 11.5723 24.3754 11.5723Z" fill="white" fill-opacity="0.1"/>
<path d="M28.7536 0C17.2271 0 7.88306 9.34416 7.88306 20.8707C7.88306 32.3971 17.2273 41.7412 28.7536 41.7412C40.2799 41.7412 49.6242 32.397 49.6242 20.8707C49.6242 9.34426 40.28 0 28.7536 0ZM28.7536 36.3552C20.2154 36.3552 13.2689 29.4088 13.2689 20.8706C13.2689 12.3323 20.2154 5.38599 28.7536 5.38599C37.2918 5.38599 44.2383 12.3324 44.2383 20.8707C44.2383 29.4089 37.2918 36.3552 28.7536 36.3552Z" fill="#01BC6D"/>
<path d="M51.4244 5.28027C50.9907 5.28027 50.5831 5.44926 50.2763 5.75611L44.2685 11.7737L42.6672 10.1726C42.3606 9.86598 41.953 9.69706 41.5194 9.69706C41.0858 9.69706 40.6782 9.86598 40.3716 10.1725C40.065 10.4791 39.8962 10.8867 39.8962 11.3203C39.8962 11.7539 40.065 12.1615 40.3716 12.468L43.1209 15.2173C43.4275 15.524 43.8351 15.6929 44.2687 15.6929C44.7022 15.6929 45.1099 15.5239 45.4169 15.2171L52.5722 8.05141C53.205 7.41842 53.2049 6.3886 52.5722 5.75562C52.2657 5.44912 51.858 5.28027 51.4244 5.28027Z" fill="white"/>
<path d="M44.6383 4.08643C46.6607 4.08643 48.4958 4.88537 49.8483 6.18311L44.2682 11.7739L42.6676 10.1724C42.361 9.86573 41.9527 9.69678 41.5192 9.69678C41.0857 9.69685 40.6783 9.86592 40.3717 10.1724C40.0652 10.4789 39.8962 10.8864 39.8961 11.3198C39.8961 11.7534 40.0651 12.1618 40.3717 12.4683L43.1207 15.2173C43.4273 15.5239 43.8355 15.6929 44.2692 15.6929C44.7023 15.6928 45.1098 15.5238 45.4166 15.2173L51.6774 8.9458C51.992 9.77526 52.1666 10.674 52.1666 11.6138C52.1666 15.7711 48.7957 19.1421 44.6383 19.1421C40.481 19.142 37.111 15.7711 37.111 11.6138C37.1111 7.45659 40.4811 4.08656 44.6383 4.08643Z" fill="#09090D"/>
<defs>
<linearGradient id="paint0_linear_1_11753" x1="16.7827" y1="10.2253" x2="33.586" y2="41.1434" gradientUnits="userSpaceOnUse">
<stop stop-color="#6C8699"/>
<stop offset="0.370687" stop-color="#374752"/>
<stop offset="1" stop-color="#171D21"/>
</linearGradient>
</defs>
</svg>
