<svg width="105" height="105" viewBox="0 0 105 105" fill="none" xmlns="http://www.w3.org/2000/svg">
<path d="M48.9791 0.662598C49.9673 0.662598 50.7683 1.46364 50.7683 2.45176C50.7683 3.43992 49.9673 4.24092 48.9791 4.24092C47.991 4.24092 47.1899 3.43992 47.1899 2.45176C47.1899 1.46364 47.991 0.662598 48.9791 0.662598Z" fill="black"/>
<path d="M68.6658 2.45176C68.6658 2.86875 68.6658 4.24092 68.6658 4.24092C68.6658 4.24092 67.4478 4.24092 66.8767 4.24083C66.4307 4.24092 65.0875 4.24083 65.0875 4.24083C65.0875 4.24083 65.0875 2.99385 65.0875 2.45171C65.0876 1.46365 65.8886 0.662598 66.8766 0.662598C67.8648 0.662598 68.6658 1.46364 68.6658 2.45176Z" fill="black"/>
<path d="M29.2791 7.82783H32.8574V4.24951C30.8811 4.24952 29.2791 5.85155 29.2791 7.82783Z" fill="black"/>
<path d="M32.8721 4.24951V7.82783H36.4504C36.4504 5.85155 34.8483 4.24951 32.8721 4.24951Z" fill="black"/>
<path d="M41.8121 4.24756C42.2291 4.24756 43.6013 4.24756 43.6013 4.24756C43.6013 4.24756 43.6013 5.46549 43.6013 6.03672C43.6013 6.48261 43.6013 7.82588 43.6013 7.82588C43.6013 7.82588 42.3544 7.82588 41.8121 7.82588C40.8236 7.82588 40.0229 7.02448 40.0229 6.03672C40.0229 5.04884 40.8236 4.24756 41.8121 4.24756Z" fill="black"/>
<path d="M45.3874 7.82588C44.9704 7.82588 43.5983 7.82588 43.5983 7.82588C43.5983 7.82588 43.5983 6.60777 43.5983 6.03672C43.5983 5.59069 43.5983 4.24756 43.5983 4.24756C43.5983 4.24756 44.8454 4.24756 45.3874 4.24756C46.3755 4.24756 47.1766 5.04859 47.1766 6.03672C47.1766 7.02479 46.3755 7.82588 45.3874 7.82588Z" fill="black"/>
<path d="M61.4891 6.03672C61.4891 6.45371 61.4891 7.82588 61.4891 7.82588C61.4891 7.82588 60.2711 7.82588 59.6999 7.82579C59.2539 7.82588 57.9108 7.82579 57.9108 7.82579C57.9108 7.82579 57.9108 6.57881 57.9108 6.03667C57.9108 5.04861 58.7118 4.24756 59.6999 4.24756C60.688 4.24756 61.4891 5.0486 61.4891 6.03672Z" fill="black"/>
<path d="M68.6658 4.24756H65.0875V7.82588H68.6658V4.24756Z" fill="black"/>
<path d="M74.0184 4.24756C75.0066 4.24756 75.8076 5.0486 75.8076 6.03672C75.8076 7.02488 75.0066 7.82588 74.0184 7.82588C73.0303 7.82588 72.2292 7.02488 72.2292 6.03672C72.2292 5.0486 73.0303 4.24756 74.0184 4.24756Z" fill="black"/>
<path d="M32.8647 7.81738H29.2864V11.3957H32.8647V7.81738Z" fill="black"/>
<path d="M36.4504 7.81738H32.8721V11.3957C34.8483 11.3957 36.4504 9.79363 36.4504 7.81738Z" fill="black"/>
<path d="M56.1277 7.81738C56.5447 7.81738 57.9168 7.81738 57.9168 7.81738C57.9168 7.81738 57.9168 9.03531 57.9168 9.60654C57.9168 10.0524 57.9168 11.3957 57.9168 11.3957C57.9168 11.3957 56.67 11.3957 56.1277 11.3957C55.1392 11.3957 54.3385 10.5943 54.3385 9.60654C54.3385 8.61866 55.1392 7.81738 56.1277 7.81738Z" fill="black"/>
<path d="M61.482 7.81738H57.9037V11.3957C59.8799 11.3957 61.482 9.79363 61.482 7.81738Z" fill="black"/>
<path d="M68.6442 11.3957V7.81738H65.0659C65.0659 9.79363 66.668 11.3957 68.6442 11.3957Z" fill="black"/>
<path d="M70.4459 11.3957C70.0289 11.3957 68.6567 11.3957 68.6567 11.3957C68.6567 11.3957 68.6567 10.1776 68.6567 9.60654C68.6567 9.16051 68.6567 7.81738 68.6567 7.81738C68.6567 7.81738 69.9039 7.81738 70.4459 7.81738C71.434 7.81738 72.2351 8.61842 72.2351 9.60654C72.2351 10.5946 71.434 11.3957 70.4459 11.3957Z" fill="black"/>
<path d="M29.2864 13.1881C29.2864 12.7711 29.2864 11.3989 29.2864 11.3989C29.2864 11.3989 30.5044 11.3989 31.0755 11.3989C31.5216 11.3989 32.8647 11.3989 32.8647 11.3989C32.8647 11.3989 32.8647 12.646 32.8647 13.1881C32.8647 14.1762 32.0636 14.9772 31.0755 14.9772C30.0874 14.9772 29.2864 14.1762 29.2864 13.1881Z" fill="black"/>
<path d="M40.0321 13.1881C40.0321 13.6051 40.0321 14.9772 40.0321 14.9772C40.0321 14.9772 38.814 14.9772 38.2429 14.9772C37.7969 14.9772 36.4537 14.9772 36.4537 14.9772C36.4537 14.9772 36.4537 13.7302 36.4537 13.188C36.4538 12.2 37.2548 11.3989 38.2429 11.3989C39.231 11.3989 40.0321 12.2 40.0321 13.1881Z" fill="black"/>
<path d="M48.9791 11.3989C49.9673 11.3989 50.7683 12.2 50.7683 13.1881C50.7683 14.1763 49.9673 14.9772 48.9791 14.9772C47.991 14.9772 47.1899 14.1763 47.1899 13.1881C47.1899 12.2 47.991 11.3989 48.9791 11.3989Z" fill="black"/>
<path d="M63.2879 11.3989C64.2761 11.3989 65.0771 12.2 65.0771 13.1881C65.0771 14.1763 64.2761 14.9772 63.2879 14.9772C62.2998 14.9772 61.4988 14.1763 61.4988 13.1881C61.4988 12.2 62.2998 11.3989 63.2879 11.3989Z" fill="black"/>
<path d="M75.8076 13.1881C75.8076 13.6051 75.8076 14.9772 75.8076 14.9772C75.8076 14.9772 74.5895 14.9772 74.0184 14.9772C73.5724 14.9772 72.2292 14.9772 72.2292 14.9772C72.2292 14.9772 72.2292 13.7302 72.2292 13.188C72.2293 12.2 73.0303 11.3989 74.0184 11.3989C75.0065 11.3989 75.8076 12.2 75.8076 13.1881Z" fill="black"/>
<path d="M34.6609 14.9712C35.0779 14.9712 36.45 14.9712 36.45 14.9712C36.45 14.9712 36.45 16.1891 36.45 16.7604C36.45 17.2062 36.45 18.5495 36.45 18.5495C36.45 18.5495 35.2032 18.5495 34.6609 18.5495C33.6724 18.5495 32.8717 17.7481 32.8717 16.7604C32.8717 15.7725 33.6724 14.9712 34.6609 14.9712Z" fill="black"/>
<path d="M40.0321 14.9683H36.4537V18.5466C38.43 18.5466 40.0321 16.9445 40.0321 14.9683Z" fill="black"/>
<path d="M45.3874 14.9717C46.3756 14.9717 47.1766 15.7727 47.1766 16.7608C47.1766 17.749 46.3756 18.55 45.3874 18.55C44.3993 18.55 43.5983 17.749 43.5983 16.7608C43.5983 15.7727 44.3993 14.9717 45.3874 14.9717Z" fill="black"/>
<path d="M52.5548 14.9712C53.543 14.9712 54.3439 15.7722 54.3439 16.7604C54.3439 17.7485 53.543 18.5495 52.5548 18.5495C51.5667 18.5495 50.7656 17.7485 50.7656 16.7604C50.7656 15.7722 51.5667 14.9712 52.5548 14.9712Z" fill="black"/>
<path d="M61.4891 16.7604C61.4891 17.1773 61.4891 18.5495 61.4891 18.5495C61.4891 18.5495 60.2711 18.5495 59.6999 18.5494C59.2539 18.5495 57.9108 18.5494 57.9108 18.5494C57.9108 18.5494 57.9108 17.3024 57.9108 16.7603C57.9108 15.7722 58.7118 14.9712 59.6999 14.9712C60.688 14.9712 61.4891 15.7722 61.4891 16.7604Z" fill="black"/>
<path d="M66.8767 14.9712C67.2937 14.9712 68.6658 14.9712 68.6658 14.9712C68.6658 14.9712 68.6658 16.1891 68.6658 16.7604C68.6658 17.2062 68.6658 18.5495 68.6658 18.5495C68.6658 18.5495 67.419 18.5495 66.8767 18.5495C65.8882 18.5495 65.0875 17.7481 65.0875 16.7604C65.0875 15.7725 65.8882 14.9712 66.8767 14.9712Z" fill="black"/>
<path d="M72.2351 14.9712H68.6567V18.5495H72.2351V14.9712Z" fill="black"/>
<path d="M75.8079 14.9683H72.2296V18.5466C74.2059 18.5466 75.8079 16.9445 75.8079 14.9683Z" fill="black"/>
<path d="M41.8121 18.5654C42.8003 18.5654 43.6013 19.3665 43.6013 20.3546C43.6013 21.3428 42.8003 22.1437 41.8121 22.1437C40.824 22.1437 40.0229 21.3428 40.0229 20.3546C40.0229 19.3665 40.824 18.5654 41.8121 18.5654Z" fill="black"/>
<path d="M48.9791 18.5654C49.9673 18.5654 50.7683 19.3665 50.7683 20.3546C50.7683 21.3428 49.9673 22.1437 48.9791 22.1437C47.991 22.1437 47.1899 21.3428 47.1899 20.3546C47.1899 19.3665 47.991 18.5654 48.9791 18.5654Z" fill="black"/>
<path d="M61.4891 18.5654H57.9108V22.1437H61.4891V18.5654Z" fill="black"/>
<path d="M32.8647 23.9249C32.8647 24.3419 32.8647 25.7141 32.8647 25.7141C32.8647 25.7141 31.6467 25.7141 31.0755 25.714C30.6295 25.7141 29.2864 25.714 29.2864 25.714C29.2864 25.714 29.2864 24.467 29.2864 23.9249C29.2864 22.9368 30.0874 22.1357 31.0755 22.1357C32.0636 22.1357 32.8647 22.9368 32.8647 23.9249Z" fill="black"/>
<path d="M40.0321 23.9249C40.0321 24.3419 40.0321 25.7141 40.0321 25.7141C40.0321 25.7141 38.814 25.7141 38.2429 25.714C37.7969 25.7141 36.4537 25.714 36.4537 25.714C36.4537 25.714 36.4537 24.467 36.4537 23.9249C36.4538 22.9368 37.2548 22.1357 38.2429 22.1357C39.231 22.1357 40.0321 22.9368 40.0321 23.9249Z" fill="black"/>
<path d="M45.3874 22.1357C46.3756 22.1357 47.1766 22.9368 47.1766 23.9249C47.1766 24.9131 46.3756 25.7141 45.3874 25.7141C44.3993 25.7141 43.5983 24.9131 43.5983 23.9249C43.5983 22.9368 44.3993 22.1357 45.3874 22.1357Z" fill="black"/>
<path d="M54.3439 23.9249C54.3439 24.3419 54.3439 25.7141 54.3439 25.7141C54.3439 25.7141 53.1259 25.7141 52.5548 25.714C52.1088 25.7141 50.7656 25.714 50.7656 25.714C50.7656 25.714 50.7656 24.467 50.7656 23.9249C50.7657 22.9368 51.5667 22.1357 52.5547 22.1357C53.5429 22.1357 54.3439 22.9368 54.3439 23.9249Z" fill="black"/>
<path d="M61.4891 22.1357H57.9108V25.7141H61.4891V22.1357Z" fill="black"/>
<path d="M66.8767 22.1357C67.8649 22.1357 68.6658 22.9368 68.6658 23.9249C68.6658 24.9131 67.8649 25.7141 66.8767 25.7141C65.8886 25.7141 65.0875 24.9131 65.0875 23.9249C65.0875 22.9368 65.8886 22.1357 66.8767 22.1357Z" fill="black"/>
<path d="M74.0184 22.1357C75.0066 22.1357 75.8076 22.9368 75.8076 23.9249C75.8076 24.9131 75.0066 25.7141 74.0184 25.7141C73.0303 25.7141 72.2292 24.9131 72.2292 23.9249C72.2292 22.9368 73.0303 22.1357 74.0184 22.1357Z" fill="black"/>
<path d="M32.8647 25.7202H29.2864V29.2985H32.8647V25.7202Z" fill="black"/>
<path d="M40.0321 25.7202H36.4537V29.2985H40.0321V25.7202Z" fill="black"/>
<path d="M41.8121 29.2985C41.3951 29.2985 40.0229 29.2985 40.0229 29.2985C40.0229 29.2985 40.0229 28.0804 40.0229 27.5094C40.0229 27.0633 40.0229 25.7202 40.0229 25.7202C40.0229 25.7202 41.2701 25.7202 41.8121 25.7202C42.8002 25.7202 43.6013 26.5213 43.6013 27.5094C43.6013 28.4974 42.8002 29.2985 41.8121 29.2985Z" fill="black"/>
<path d="M54.3395 29.2966V25.7183H50.7612C50.7612 27.6945 52.3633 29.2966 54.3395 29.2966Z" fill="black"/>
<path d="M57.9168 25.7202H54.3385V29.2985H57.9168V25.7202Z" fill="black"/>
<path d="M61.482 25.7183H57.9037V29.2966C59.8799 29.2966 61.482 27.6945 61.482 25.7183Z" fill="black"/>
<path d="M2.44858 29.2896C3.43675 29.2896 4.23774 30.0906 4.23774 31.0787C4.23774 32.0669 3.43675 32.8679 2.44858 32.8679C1.46047 32.8679 0.659424 32.0669 0.659424 31.0787C0.659424 30.0906 1.46047 29.2896 2.44858 29.2896Z" fill="black"/>
<path d="M23.921 29.2896C24.9092 29.2896 25.7102 30.0906 25.7102 31.0787C25.7102 32.0669 24.9092 32.8679 23.921 32.8679C22.9329 32.8679 22.1318 32.0669 22.1318 31.0787C22.1318 30.0906 22.9329 29.2896 23.921 29.2896Z" fill="black"/>
<path d="M32.8574 32.8669V29.2886H29.2791C29.2791 31.2648 30.8811 32.8669 32.8574 32.8669Z" fill="black"/>
<path d="M36.45 29.2896H32.8717V32.8679H36.45V29.2896Z" fill="black"/>
<path d="M40.0321 29.2886H36.4537V32.8669C38.43 32.8669 40.0321 31.2648 40.0321 29.2886Z" fill="black"/>
<path d="M63.2879 29.2896C64.2761 29.2896 65.0771 30.0906 65.0771 31.0787C65.0771 32.0669 64.2761 32.8679 63.2879 32.8679C62.2998 32.8679 61.4988 32.0669 61.4988 31.0787C61.4988 30.0906 62.2998 29.2896 63.2879 29.2896Z" fill="black"/>
<path d="M68.6516 32.8669H72.2299V29.2886C70.2537 29.2886 68.6516 30.8906 68.6516 32.8669Z" fill="black"/>
<path d="M75.8076 29.2896H72.2292V32.8679H75.8076V29.2896Z" fill="black"/>
<path d="M79.3923 29.2896H75.814V32.8679H79.3923V29.2896Z" fill="black"/>
<path d="M81.1733 32.8679C80.7563 32.8679 79.3842 32.8679 79.3842 32.8679C79.3842 32.8679 79.3842 31.6498 79.3842 31.0787C79.3842 30.6327 79.3842 29.2896 79.3842 29.2896C79.3842 29.2896 80.6313 29.2896 81.1733 29.2896C82.1614 29.2896 82.9625 30.0906 82.9625 31.0787C82.9625 32.0668 82.1614 32.8679 81.1733 32.8679Z" fill="black"/>
<path d="M91.9126 29.2905C92.3296 29.2905 93.7017 29.2905 93.7017 29.2905C93.7017 29.2905 93.7017 30.5085 93.7017 31.0797C93.7017 31.5256 93.7017 32.8688 93.7017 32.8688C93.7017 32.8688 92.4549 32.8688 91.9126 32.8688C90.9241 32.8688 90.1234 32.0675 90.1234 31.0797C90.1234 30.0918 90.9241 29.2905 91.9126 29.2905Z" fill="black"/>
<path d="M97.2834 29.2896H93.7051V32.8679H97.2834V29.2896Z" fill="black"/>
<path d="M97.2777 29.2886V32.8669H100.856C100.856 30.8906 99.254 29.2886 97.2777 29.2886Z" fill="black"/>
<path d="M6.03293 32.8745C7.0211 32.8745 7.82209 33.6756 7.82209 34.6637C7.82209 35.6518 7.0211 36.4528 6.03293 36.4528C5.04482 36.4528 4.24377 35.6518 4.24377 34.6637C4.24377 33.6756 5.04482 32.8745 6.03293 32.8745Z" fill="black"/>
<path d="M20.3451 32.8745C21.3332 32.8745 22.1342 33.6756 22.1342 34.6637C22.1342 35.6518 21.3332 36.4528 20.3451 36.4528C19.357 36.4528 18.5559 35.6518 18.5559 34.6637C18.5559 33.6756 19.357 32.8745 20.3451 32.8745Z" fill="black"/>
<path d="M41.8121 32.8745C42.2291 32.8745 43.6013 32.8745 43.6013 32.8745C43.6013 32.8745 43.6013 34.0924 43.6013 34.6637C43.6013 35.1096 43.6013 36.4528 43.6013 36.4528C43.6013 36.4528 42.3544 36.4528 41.8121 36.4528C40.8236 36.4528 40.0229 35.6514 40.0229 34.6637C40.0229 33.6758 40.8236 32.8745 41.8121 32.8745Z" fill="black"/>
<path d="M47.1766 32.8745H43.5983V36.4528H47.1766V32.8745Z" fill="black"/>
<path d="M50.7683 32.8745H47.1899V36.4528H50.7683V32.8745Z" fill="black"/>
<path d="M54.3439 32.8745H50.7656V36.4528H54.3439V32.8745Z" fill="black"/>
<path d="M54.3345 32.8745V36.4528H57.9128C57.9128 34.4765 56.3107 32.8745 54.3345 32.8745Z" fill="black"/>
<path d="M65.0659 36.4528H68.6442V32.8745C66.668 32.8745 65.0659 34.4766 65.0659 36.4528Z" fill="black"/>
<path d="M72.2299 32.8745H68.6516V36.4528C70.6279 36.4528 72.2299 34.8508 72.2299 32.8745Z" fill="black"/>
<path d="M82.9716 36.4528H86.5499V32.8745C84.5736 32.8745 82.9716 34.4766 82.9716 36.4528Z" fill="black"/>
<path d="M88.3307 36.4528C87.9136 36.4528 86.5415 36.4528 86.5415 36.4528C86.5415 36.4528 86.5415 35.2347 86.5415 34.6637C86.5415 34.2176 86.5415 32.8745 86.5415 32.8745C86.5415 32.8745 87.7886 32.8745 88.3307 32.8745C89.3187 32.8745 90.1198 33.6755 90.1198 34.6637C90.1198 35.6517 89.3187 36.4528 88.3307 36.4528Z" fill="black"/>
<path d="M97.2817 36.4528V32.8745H93.7034C93.7034 34.8508 95.3054 36.4528 97.2817 36.4528Z" fill="black"/>
<path d="M100.856 32.8745H97.2777V36.4528C99.254 36.4528 100.856 34.8508 100.856 32.8745Z" fill="black"/>
<path d="M4.23774 38.2491C4.23774 38.6661 4.23774 40.0383 4.23774 40.0383C4.23774 40.0383 3.01973 40.0383 2.44858 40.0382C2.00255 40.0383 0.659424 40.0382 0.659424 40.0382C0.659424 40.0382 0.659424 38.7912 0.659424 38.2491C0.659467 37.261 1.46046 36.46 2.44854 36.46C3.43666 36.46 4.23774 37.261 4.23774 38.2491Z" fill="black"/>
<path d="M11.395 38.2491C11.395 38.6661 11.395 40.0383 11.395 40.0383C11.395 40.0383 10.177 40.0383 9.60581 40.0382C9.15978 40.0383 7.81665 40.0382 7.81665 40.0382C7.81665 40.0382 7.81665 38.7912 7.81665 38.2491C7.81669 37.261 8.61769 36.46 9.60577 36.46C10.5939 36.46 11.395 37.261 11.395 38.2491Z" fill="black"/>
<path d="M16.763 36.46C17.7512 36.46 18.5522 37.261 18.5522 38.2491C18.5522 39.2373 17.7512 40.0383 16.763 40.0383C15.7749 40.0383 14.9739 39.2373 14.9739 38.2491C14.9739 37.261 15.7749 36.46 16.763 36.46Z" fill="black"/>
<path d="M23.921 36.46C24.338 36.46 25.7102 36.46 25.7102 36.46C25.7102 36.46 25.7102 37.6779 25.7102 38.2491C25.7102 38.695 25.7102 40.0383 25.7102 40.0383C25.7102 40.0383 24.4633 40.0383 23.921 40.0383C22.9325 40.0383 22.1318 39.2369 22.1318 38.2491C22.1318 37.2612 22.9325 36.46 23.921 36.46Z" fill="black"/>
<path d="M27.503 40.0383C27.086 40.0383 25.7139 40.0383 25.7139 40.0383C25.7139 40.0383 25.7139 38.8202 25.7139 38.2491C25.7139 37.8031 25.7139 36.46 25.7139 36.46C25.7139 36.46 26.961 36.46 27.503 36.46C28.4911 36.46 29.2922 37.261 29.2922 38.2491C29.2922 39.2372 28.4911 40.0383 27.503 40.0383Z" fill="black"/>
<path d="M47.1766 36.46H43.5983V40.0383H47.1766V36.46Z" fill="black"/>
<path d="M50.7683 36.46H47.1899V40.0383H50.7683V36.46Z" fill="black"/>
<path d="M54.3439 36.46H50.7656V40.0383H54.3439V36.46Z" fill="black"/>
<path d="M57.9168 36.46H54.3385V40.0383H57.9168V36.46Z" fill="black"/>
<path d="M63.2879 36.46C63.705 36.46 65.0771 36.46 65.0771 36.46C65.0771 36.46 65.0771 37.6779 65.0771 38.2491C65.0771 38.695 65.0771 40.0383 65.0771 40.0383C65.0771 40.0383 63.8303 40.0383 63.2879 40.0383C62.2995 40.0383 61.4988 39.2369 61.4988 38.2491C61.4988 37.2612 62.2995 36.46 63.2879 36.46Z" fill="black"/>
<path d="M68.6442 36.4565H65.0659V40.0349C67.0422 40.0349 68.6442 38.4328 68.6442 36.4565Z" fill="black"/>
<path d="M79.3845 40.0349H82.9628V36.4565C80.9866 36.4566 79.3845 38.0586 79.3845 40.0349Z" fill="black"/>
<path d="M86.5499 36.4565H82.9716V40.0349C84.9478 40.0349 86.5499 38.4328 86.5499 36.4565Z" fill="black"/>
<path d="M4.23872 43.6037V40.0254H0.6604C0.660408 42.0016 2.26243 43.6037 4.23872 43.6037Z" fill="black"/>
<path d="M7.82209 40.0264H4.24377V43.6047H7.82209V40.0264Z" fill="black"/>
<path d="M11.395 40.0264H7.81665V43.6047H11.395V40.0264Z" fill="black"/>
<path d="M20.3451 40.0264C21.3332 40.0264 22.1342 40.8274 22.1342 41.8155C22.1342 42.8037 21.3332 43.6047 20.3451 43.6047C19.357 43.6047 18.5559 42.8037 18.5559 41.8155C18.5559 40.8274 19.357 40.0264 20.3451 40.0264Z" fill="black"/>
<path d="M34.6609 40.0264C35.0779 40.0264 36.45 40.0264 36.45 40.0264C36.45 40.0264 36.45 41.2443 36.45 41.8155C36.45 42.2614 36.45 43.6047 36.45 43.6047C36.45 43.6047 35.2032 43.6047 34.6609 43.6047C33.6724 43.6047 32.8717 42.8033 32.8717 41.8155C32.8717 40.8276 33.6724 40.0264 34.6609 40.0264Z" fill="black"/>
<path d="M40.0321 40.0264H36.4537V43.6047H40.0321V40.0264Z" fill="black"/>
<path d="M43.6013 40.0264H40.0229V43.6047H43.6013V40.0264Z" fill="black"/>
<path d="M47.1766 40.0264H43.5983V43.6047H47.1766V40.0264Z" fill="black"/>
<path d="M50.7683 40.0264H47.1899V43.6047H50.7683V40.0264Z" fill="black"/>
<path d="M57.9168 40.0264H54.3385V43.6047H57.9168V40.0264Z" fill="black"/>
<path d="M74.0184 40.0264C74.4354 40.0264 75.8076 40.0264 75.8076 40.0264C75.8076 40.0264 75.8076 41.2443 75.8076 41.8155C75.8076 42.2614 75.8076 43.6047 75.8076 43.6047C75.8076 43.6047 74.5607 43.6047 74.0184 43.6047C73.0299 43.6047 72.2292 42.8033 72.2292 41.8155C72.2292 40.8276 73.0299 40.0264 74.0184 40.0264Z" fill="black"/>
<path d="M79.3923 40.0264H75.814V43.6047H79.3923V40.0264Z" fill="black"/>
<path d="M82.9625 40.0264H79.3842V43.6047H82.9625V40.0264Z" fill="black"/>
<path d="M88.3307 40.0264C88.7477 40.0264 90.1198 40.0264 90.1198 40.0264C90.1198 40.0264 90.1198 41.2443 90.1198 41.8155C90.1198 42.2614 90.1198 43.6047 90.1198 43.6047C90.1198 43.6047 88.873 43.6047 88.3307 43.6047C87.3422 43.6047 86.5415 42.8033 86.5415 41.8155C86.5415 40.8276 87.3422 40.0264 88.3307 40.0264Z" fill="black"/>
<path d="M91.9126 43.6047C91.4955 43.6047 90.1234 43.6047 90.1234 43.6047C90.1234 43.6047 90.1234 42.3866 90.1234 41.8155C90.1234 41.3695 90.1234 40.0264 90.1234 40.0264C90.1234 40.0264 91.3705 40.0264 91.9126 40.0264C92.9006 40.0264 93.7017 40.8274 93.7017 41.8155C93.7017 42.8036 92.9006 43.6047 91.9126 43.6047Z" fill="black"/>
<path d="M11.395 43.5991H7.81665V47.1774H11.395V43.5991Z" fill="black"/>
<path d="M14.9803 43.5991H11.402V47.1774H14.9803V43.5991Z" fill="black"/>
<path d="M14.9675 43.5947V47.173H18.5458C18.5458 45.1968 16.9438 43.5947 14.9675 43.5947Z" fill="black"/>
<path d="M23.921 43.5991C24.9092 43.5991 25.7102 44.4002 25.7102 45.3883C25.7102 46.3764 24.9092 47.1774 23.921 47.1774C22.9329 47.1774 22.1318 46.3764 22.1318 45.3883C22.1318 44.4002 22.9329 43.5991 23.921 43.5991Z" fill="black"/>
<path d="M31.0755 43.5991C32.0637 43.5991 32.8647 44.4002 32.8647 45.3883C32.8647 46.3764 32.0637 47.1774 31.0755 47.1774C30.0874 47.1774 29.2864 46.3764 29.2864 45.3883C29.2864 44.4002 30.0874 43.5991 31.0755 43.5991Z" fill="black"/>
<path d="M43.6013 43.5991H40.0229V47.1774H43.6013V43.5991Z" fill="black"/>
<path d="M47.1766 43.5991H43.5983V47.1774H47.1766V43.5991Z" fill="black"/>
<path d="M50.7703 43.5947H47.192V47.173C49.1683 47.173 50.7703 45.571 50.7703 43.5947Z" fill="black"/>
<path d="M57.9168 43.5991H54.3385V47.1774H57.9168V43.5991Z" fill="black"/>
<path d="M72.2351 45.3883C72.2351 45.8053 72.2351 47.1774 72.2351 47.1774C72.2351 47.1774 71.017 47.1774 70.4459 47.1774C69.9999 47.1774 68.6567 47.1774 68.6567 47.1774C68.6567 47.1774 68.6567 45.9304 68.6567 45.3882C68.6568 44.4002 69.4578 43.5991 70.4459 43.5991C71.434 43.5991 72.2351 44.4002 72.2351 45.3883Z" fill="black"/>
<path d="M82.9625 43.5991H79.3842V47.1774H82.9625V43.5991Z" fill="black"/>
<path d="M82.9716 43.5947V47.173H86.5499C86.5499 45.1968 84.9478 43.5947 82.9716 43.5947Z" fill="black"/>
<path d="M104.436 45.3883C104.436 45.8053 104.436 47.1774 104.436 47.1774C104.436 47.1774 103.218 47.1774 102.646 47.1774C102.2 47.1774 100.857 47.1774 100.857 47.1774C100.857 47.1774 100.857 45.9304 100.857 45.3882C100.857 44.4002 101.658 43.5991 102.646 43.5991C103.635 43.5991 104.436 44.4002 104.436 45.3883Z" fill="black"/>
<path d="M2.44858 47.1875C3.43675 47.1875 4.23774 47.9885 4.23774 48.9767C4.23774 49.9648 3.43675 50.7658 2.44858 50.7658C1.46047 50.7658 0.659424 49.9648 0.659424 48.9767C0.659424 47.9885 1.46047 47.1875 2.44858 47.1875Z" fill="black"/>
<path d="M7.81665 48.9767C7.81665 48.5596 7.81665 47.1875 7.81665 47.1875C7.81665 47.1875 9.03472 47.1875 9.60581 47.1875C10.0518 47.1875 11.395 47.1875 11.395 47.1875C11.395 47.1875 11.395 48.4346 11.395 48.9767C11.395 49.9647 10.5939 50.7658 9.60581 50.7658C8.61769 50.7658 7.81665 49.9647 7.81665 48.9767Z" fill="black"/>
<path d="M18.5522 47.1875H14.9739V50.7658H18.5522V47.1875Z" fill="black"/>
<path d="M29.2922 48.9767C29.2922 49.3936 29.2922 50.7658 29.2922 50.7658C29.2922 50.7658 28.0742 50.7658 27.503 50.7657C27.057 50.7658 25.7139 50.7657 25.7139 50.7657C25.7139 50.7657 25.7139 49.5188 25.7139 48.9766C25.7139 47.9885 26.5149 47.1875 27.503 47.1875C28.4911 47.1875 29.2922 47.9885 29.2922 48.9767Z" fill="black"/>
<path d="M36.4537 50.7663H40.0321V47.188C38.0558 47.188 36.4537 48.79 36.4537 50.7663Z" fill="black"/>
<path d="M43.6013 47.1875H40.0229V50.7658H43.6013V47.1875Z" fill="black"/>
<path d="M47.1708 47.188H43.5925V50.7663C45.5688 50.7663 47.1708 49.1642 47.1708 47.188Z" fill="black"/>
<path d="M57.9168 47.1875H54.3385V50.7658H57.9168V47.1875Z" fill="black"/>
<path d="M61.4891 47.1875H57.9108V50.7658H61.4891V47.1875Z" fill="black"/>
<path d="M65.0771 47.1875H61.4988V50.7658H65.0771V47.1875Z" fill="black"/>
<path d="M68.6658 47.1875H65.0875V50.7658H68.6658V47.1875Z" fill="black"/>
<path d="M72.2351 47.1875H68.6567V50.7658H72.2351V47.1875Z" fill="black"/>
<path d="M72.2296 47.188V50.7663H75.8079C75.8079 48.79 74.2059 47.188 72.2296 47.188Z" fill="black"/>
<path d="M82.9625 47.1875H79.3842V50.7658H82.9625V47.1875Z" fill="black"/>
<path d="M86.5502 47.1875H82.9719V50.7658H86.5502V47.1875Z" fill="black"/>
<path d="M88.3307 50.7658C87.9136 50.7658 86.5415 50.7658 86.5415 50.7658C86.5415 50.7658 86.5415 49.5477 86.5415 48.9767C86.5415 48.5306 86.5415 47.1875 86.5415 47.1875C86.5415 47.1875 87.7886 47.1875 88.3307 47.1875C89.3187 47.1875 90.1198 47.9885 90.1198 48.9767C90.1198 49.9647 89.3187 50.7658 88.3307 50.7658Z" fill="black"/>
<path d="M99.0738 47.1875C99.4908 47.1875 100.863 47.1875 100.863 47.1875C100.863 47.1875 100.863 48.4054 100.863 48.9767C100.863 49.4226 100.863 50.7658 100.863 50.7658C100.863 50.7658 99.6162 50.7658 99.0738 50.7658C98.0854 50.7658 97.2847 49.9644 97.2847 48.9767C97.2847 47.9888 98.0854 47.1875 99.0738 47.1875Z" fill="black"/>
<path d="M104.436 47.188H100.858V50.7663C102.834 50.7663 104.436 49.1642 104.436 47.188Z" fill="black"/>
<path d="M7.82209 52.5587C7.82209 52.9757 7.82209 54.3478 7.82209 54.3478C7.82209 54.3478 6.60408 54.3478 6.03293 54.3478C5.5869 54.3478 4.24377 54.3478 4.24377 54.3478C4.24377 54.3478 4.24377 53.1008 4.24377 52.5586C4.24382 51.5706 5.04481 50.7695 6.03289 50.7695C7.02101 50.7695 7.82209 51.5706 7.82209 52.5587Z" fill="black"/>
<path d="M11.4114 54.3518H14.9897V50.7734C13.0135 50.7734 11.4114 52.3755 11.4114 54.3518Z" fill="black"/>
<path d="M18.5522 50.7695H14.9739V54.3478H18.5522V50.7695Z" fill="black"/>
<path d="M22.1342 50.7695H18.5559V54.3478H22.1342V50.7695Z" fill="black"/>
<path d="M25.7102 50.7695H22.1318V54.3478H25.7102V50.7695Z" fill="black"/>
<path d="M29.2922 50.7695H25.7139V54.3478H29.2922V50.7695Z" fill="black"/>
<path d="M31.0755 54.3478C30.6585 54.3478 29.2864 54.3478 29.2864 54.3478C29.2864 54.3478 29.2864 53.1297 29.2864 52.5587C29.2864 52.1127 29.2864 50.7695 29.2864 50.7695C29.2864 50.7695 30.5335 50.7695 31.0755 50.7695C32.0636 50.7695 32.8647 51.5706 32.8647 52.5587C32.8647 53.5468 32.0636 54.3478 31.0755 54.3478Z" fill="black"/>
<path d="M36.4537 52.5587C36.4537 52.1417 36.4537 50.7695 36.4537 50.7695C36.4537 50.7695 37.6718 50.7695 38.2429 50.7695C38.6889 50.7695 40.0321 50.7695 40.0321 50.7695C40.0321 50.7695 40.0321 52.0167 40.0321 52.5587C40.0321 53.5468 39.231 54.3478 38.2429 54.3478C37.2548 54.3478 36.4537 53.5468 36.4537 52.5587Z" fill="black"/>
<path d="M57.9168 50.7695H54.3385V54.3478H57.9168V50.7695Z" fill="black"/>
<path d="M61.4891 50.7695H57.9108V54.3478H61.4891V50.7695Z" fill="black"/>
<path d="M65.0771 50.7695H61.4988V54.3478H65.0771V50.7695Z" fill="black"/>
<path d="M68.6442 50.7734H65.0659V54.3518C67.0422 54.3518 68.6442 52.7497 68.6442 50.7734Z" fill="black"/>
<path d="M75.8076 50.7695H72.2292V54.3478H75.8076V50.7695Z" fill="black"/>
<path d="M82.9625 50.7695H79.3842V54.3478H82.9625V50.7695Z" fill="black"/>
<path d="M91.9126 50.7661C92.3296 50.7661 93.7017 50.7661 93.7017 50.7661C93.7017 50.7661 93.7017 51.984 93.7017 52.5553C93.7017 53.0012 93.7017 54.3444 93.7017 54.3444C93.7017 54.3444 92.4549 54.3444 91.9126 54.3444C90.9241 54.3444 90.1234 53.543 90.1234 52.5553C90.1234 51.5674 90.9241 50.7661 91.9126 50.7661Z" fill="black"/>
<path d="M93.7034 50.7734V54.3518H97.2817C97.2817 52.3755 95.6796 50.7734 93.7034 50.7734Z" fill="black"/>
<path d="M7.82209 54.3413H4.24377V57.9196H7.82209V54.3413Z" fill="black"/>
<path d="M11.395 54.3413H7.81665V57.9196H11.395V54.3413Z" fill="black"/>
<path d="M14.9803 54.3413H11.402V57.9196H14.9803V54.3413Z" fill="black"/>
<path d="M25.7139 56.1305C25.7139 55.7134 25.7139 54.3413 25.7139 54.3413C25.7139 54.3413 26.9319 54.3413 27.503 54.3413C27.9491 54.3413 29.2922 54.3413 29.2922 54.3413C29.2922 54.3413 29.2922 55.5884 29.2922 56.1305C29.2922 57.1185 28.4911 57.9196 27.503 57.9196C26.5149 57.9196 25.7139 57.1185 25.7139 56.1305Z" fill="black"/>
<path d="M34.6609 54.3413C35.649 54.3413 36.45 55.1424 36.45 56.1305C36.45 57.1186 35.649 57.9196 34.6609 57.9196C33.6727 57.9196 32.8717 57.1186 32.8717 56.1305C32.8717 55.1424 33.6727 54.3413 34.6609 54.3413Z" fill="black"/>
<path d="M43.6013 56.1305C43.6013 56.5475 43.6013 57.9196 43.6013 57.9196C43.6013 57.9196 42.3833 57.9196 41.8121 57.9195C41.3661 57.9196 40.0229 57.9195 40.0229 57.9195C40.0229 57.9195 40.0229 56.6726 40.0229 56.1304C40.023 55.1424 40.824 54.3413 41.8121 54.3413C42.8002 54.3413 43.6013 55.1424 43.6013 56.1305Z" fill="black"/>
<path d="M57.9168 54.3413H54.3385V57.9196H57.9168V54.3413Z" fill="black"/>
<path d="M75.8079 57.9211V54.3428H72.2296C72.2296 56.319 73.8316 57.9211 75.8079 57.9211Z" fill="black"/>
<path d="M79.3923 54.3413H75.814V57.9196H79.3923V54.3413Z" fill="black"/>
<path d="M82.9625 54.3413H79.3842V57.9196H82.9625V54.3413Z" fill="black"/>
<path d="M84.7611 57.9196C84.3441 57.9196 82.9719 57.9196 82.9719 57.9196C82.9719 57.9196 82.9719 56.7015 82.9719 56.1305C82.9719 55.6844 82.9719 54.3413 82.9719 54.3413C82.9719 54.3413 84.219 54.3413 84.7611 54.3413C85.7492 54.3413 86.5502 55.1423 86.5502 56.1305C86.5502 57.1185 85.7492 57.9196 84.7611 57.9196Z" fill="black"/>
<path d="M97.2834 54.3413H93.7051V57.9196H97.2834V54.3413Z" fill="black"/>
<path d="M102.646 54.3413C103.635 54.3413 104.436 55.1424 104.436 56.1305C104.436 57.1186 103.635 57.9196 102.646 57.9196C101.658 57.9196 100.857 57.1186 100.857 56.1305C100.857 55.1424 101.658 54.3413 102.646 54.3413Z" fill="black"/>
<path d="M4.24377 59.6939C4.24377 59.2769 4.24377 57.9048 4.24377 57.9048C4.24377 57.9048 5.46184 57.9048 6.03293 57.9048C6.47896 57.9048 7.82209 57.9048 7.82209 57.9048C7.82209 57.9048 7.82209 59.1519 7.82209 59.6939C7.82209 60.682 7.02101 61.4831 6.03293 61.4831C5.04481 61.4831 4.24377 60.682 4.24377 59.6939Z" fill="black"/>
<path d="M14.9803 57.9048H11.402V61.4831H14.9803V57.9048Z" fill="black"/>
<path d="M23.921 57.9048C24.9092 57.9048 25.7102 58.7058 25.7102 59.6939C25.7102 60.6821 24.9092 61.4831 23.921 61.4831C22.9329 61.4831 22.1318 60.6821 22.1318 59.6939C22.1318 58.7058 22.9329 57.9048 23.921 57.9048Z" fill="black"/>
<path d="M43.6013 61.4904V57.9121H40.0229C40.023 59.8884 41.625 61.4904 43.6013 61.4904Z" fill="black"/>
<path d="M43.5925 57.9121V61.4904H47.1708C47.1708 59.5141 45.5688 57.9121 43.5925 57.9121Z" fill="black"/>
<path d="M57.9168 57.9048H54.3385V61.4831H57.9168V57.9048Z" fill="black"/>
<path d="M61.4967 61.4904H65.075V57.9121C63.0988 57.9121 61.4967 59.5142 61.4967 61.4904Z" fill="black"/>
<path d="M68.6658 57.9048H65.0875V61.4831H68.6658V57.9048Z" fill="black"/>
<path d="M68.6516 57.9121V61.4904H72.2299C72.2299 59.5141 70.6279 57.9121 68.6516 57.9121Z" fill="black"/>
<path d="M75.814 59.6939C75.814 59.2769 75.814 57.9048 75.814 57.9048C75.814 57.9048 77.032 57.9048 77.6031 57.9048C78.0492 57.9048 79.3923 57.9048 79.3923 57.9048C79.3923 57.9048 79.3923 59.1519 79.3923 59.6939C79.3923 60.682 78.5912 61.4831 77.6031 61.4831C76.615 61.4831 75.814 60.682 75.814 59.6939Z" fill="black"/>
<path d="M91.9126 57.9048C92.3296 57.9048 93.7017 57.9048 93.7017 57.9048C93.7017 57.9048 93.7017 59.1227 93.7017 59.6939C93.7017 60.1398 93.7017 61.4831 93.7017 61.4831C93.7017 61.4831 92.4549 61.4831 91.9126 61.4831C90.9241 61.4831 90.1234 60.6817 90.1234 59.6939C90.1234 58.7061 90.9241 57.9048 91.9126 57.9048Z" fill="black"/>
<path d="M97.2834 57.9048H93.7051V61.4831H97.2834V57.9048Z" fill="black"/>
<path d="M4.23774 63.2921C4.23774 63.7091 4.23774 65.0812 4.23774 65.0812C4.23774 65.0812 3.01973 65.0812 2.44858 65.0812C2.00255 65.0812 0.659424 65.0812 0.659424 65.0812C0.659424 65.0812 0.659424 63.8342 0.659424 63.292C0.659467 62.304 1.46046 61.5029 2.44854 61.5029C3.43666 61.5029 4.23774 62.304 4.23774 63.2921Z" fill="black"/>
<path d="M11.402 63.2921C11.402 62.8751 11.402 61.5029 11.402 61.5029C11.402 61.5029 12.62 61.5029 13.1911 61.5029C13.6372 61.5029 14.9803 61.5029 14.9803 61.5029C14.9803 61.5029 14.9803 62.7501 14.9803 63.2921C14.9803 64.2802 14.1792 65.0812 13.1911 65.0812C12.203 65.0812 11.402 64.2802 11.402 63.2921Z" fill="black"/>
<path d="M20.3451 61.5029C21.3332 61.5029 22.1342 62.304 22.1342 63.2921C22.1342 64.2803 21.3332 65.0812 20.3451 65.0812C19.357 65.0812 18.5559 64.2803 18.5559 63.2921C18.5559 62.304 19.357 61.5029 20.3451 61.5029Z" fill="black"/>
<path d="M29.2791 65.0759H32.8574V61.4976C30.8811 61.4976 29.2791 63.0996 29.2791 65.0759Z" fill="black"/>
<path d="M34.6609 65.0812C34.2438 65.0812 32.8717 65.0812 32.8717 65.0812C32.8717 65.0812 32.8717 63.8631 32.8717 63.2921C32.8717 62.8461 32.8717 61.5029 32.8717 61.5029C32.8717 61.5029 34.1188 61.5029 34.6609 61.5029C35.6489 61.5029 36.45 62.304 36.45 63.2921C36.45 64.2802 35.6489 65.0812 34.6609 65.0812Z" fill="black"/>
<path d="M47.1766 61.5029H43.5983V65.0812H47.1766V61.5029Z" fill="black"/>
<path d="M50.7683 61.5029H47.1899V65.0812H50.7683V61.5029Z" fill="black"/>
<path d="M54.3439 61.5029H50.7656V65.0812H54.3439V61.5029Z" fill="black"/>
<path d="M57.9168 61.5029H54.3385V65.0812H57.9168V61.5029Z" fill="black"/>
<path d="M61.4891 61.5029H57.9108V65.0812H61.4891V61.5029Z" fill="black"/>
<path d="M65.075 61.4976H61.4967V65.0759C63.473 65.0759 65.075 63.4738 65.075 61.4976Z" fill="black"/>
<path d="M72.2351 61.5029H68.6567V65.0812H72.2351V61.5029Z" fill="black"/>
<path d="M74.0184 65.0812C73.6014 65.0812 72.2292 65.0812 72.2292 65.0812C72.2292 65.0812 72.2292 63.8631 72.2292 63.2921C72.2292 62.8461 72.2292 61.5029 72.2292 61.5029C72.2292 61.5029 73.4764 61.5029 74.0184 61.5029C75.0065 61.5029 75.8076 62.304 75.8076 63.2921C75.8076 64.2802 75.0065 65.0812 74.0184 65.0812Z" fill="black"/>
<path d="M81.1733 61.5029C82.1615 61.5029 82.9625 62.304 82.9625 63.2921C82.9625 64.2803 82.1615 65.0812 81.1733 65.0812C80.1852 65.0812 79.3842 64.2803 79.3842 63.2921C79.3842 62.304 80.1852 61.5029 81.1733 61.5029Z" fill="black"/>
<path d="M88.3307 61.5029C89.3188 61.5029 90.1198 62.304 90.1198 63.2921C90.1198 64.2803 89.3188 65.0812 88.3307 65.0812C87.3425 65.0812 86.5415 64.2803 86.5415 63.2921C86.5415 62.304 87.3425 61.5029 88.3307 61.5029Z" fill="black"/>
<path d="M97.2817 65.0759V61.4976H93.7034C93.7034 63.4738 95.3054 65.0759 97.2817 65.0759Z" fill="black"/>
<path d="M100.863 61.5029H97.2847V65.0812H100.863V61.5029Z" fill="black"/>
<path d="M100.858 61.4976V65.0759H104.436C104.436 63.0996 102.834 61.4976 100.858 61.4976Z" fill="black"/>
<path d="M4.23774 65.0781H0.659424V68.6564H4.23774V65.0781Z" fill="black"/>
<path d="M7.82209 65.0781H4.24377V68.6564H7.82209V65.0781Z" fill="black"/>
<path d="M9.60581 68.6564C9.18879 68.6564 7.81665 68.6564 7.81665 68.6564C7.81665 68.6564 7.81665 67.4383 7.81665 66.8673C7.81665 66.4213 7.81665 65.0781 7.81665 65.0781C7.81665 65.0781 9.06377 65.0781 9.60581 65.0781C10.5939 65.0781 11.395 65.8792 11.395 66.8673C11.395 67.8554 10.5939 68.6564 9.60581 68.6564Z" fill="black"/>
<path d="M18.5522 66.8673C18.5522 67.2843 18.5522 68.6564 18.5522 68.6564C18.5522 68.6564 17.3342 68.6564 16.763 68.6564C16.317 68.6564 14.9739 68.6564 14.9739 68.6564C14.9739 68.6564 14.9739 67.4094 14.9739 66.8672C14.9739 65.8792 15.7749 65.0781 16.763 65.0781C17.7511 65.0781 18.5522 65.8792 18.5522 66.8673Z" fill="black"/>
<path d="M23.921 65.0781C24.338 65.0781 25.7102 65.0781 25.7102 65.0781C25.7102 65.0781 25.7102 66.2961 25.7102 66.8673C25.7102 67.3132 25.7102 68.6564 25.7102 68.6564C25.7102 68.6564 24.4633 68.6564 23.921 68.6564C22.9325 68.6564 22.1318 67.8551 22.1318 66.8673C22.1318 65.8794 22.9325 65.0781 23.921 65.0781Z" fill="black"/>
<path d="M29.2922 65.0781H25.7139V68.6564H29.2922V65.0781Z" fill="black"/>
<path d="M32.8647 65.0781H29.2864V68.6564H32.8647V65.0781Z" fill="black"/>
<path d="M40.0229 68.6579H43.6013V65.0796C41.625 65.0796 40.0229 66.6816 40.0229 68.6579Z" fill="black"/>
<path d="M47.1708 65.0796H43.5925V68.6579C45.5688 68.6579 47.1708 67.0558 47.1708 65.0796Z" fill="black"/>
<path d="M54.3385 66.8673C54.3385 66.4503 54.3385 65.0781 54.3385 65.0781C54.3385 65.0781 55.5566 65.0781 56.1277 65.0781C56.5737 65.0781 57.9168 65.0781 57.9168 65.0781C57.9168 65.0781 57.9168 66.3252 57.9168 66.8673C57.9168 67.8554 57.1157 68.6564 56.1277 68.6564C55.1395 68.6564 54.3385 67.8554 54.3385 66.8673Z" fill="black"/>
<path d="M72.2351 65.0781H68.6567V68.6564H72.2351V65.0781Z" fill="black"/>
<path d="M91.9126 65.0781C92.9007 65.0781 93.7017 65.8792 93.7017 66.8673C93.7017 67.8555 92.9007 68.6564 91.9126 68.6564C90.9245 68.6564 90.1234 67.8555 90.1234 66.8673C90.1234 65.8792 90.9245 65.0781 91.9126 65.0781Z" fill="black"/>
<path d="M100.857 66.8673C100.857 66.4503 100.857 65.0781 100.857 65.0781C100.857 65.0781 102.075 65.0781 102.646 65.0781C103.092 65.0781 104.436 65.0781 104.436 65.0781C104.436 65.0781 104.436 66.3252 104.436 66.8673C104.436 67.8554 103.635 68.6564 102.646 68.6564C101.658 68.6564 100.857 67.8554 100.857 66.8673Z" fill="black"/>
<path d="M4.23774 68.647H0.659424V72.2253H4.23774V68.647Z" fill="black"/>
<path d="M18.5522 68.647H14.9739V72.2253H18.5522V68.647Z" fill="black"/>
<path d="M32.8574 72.2321V68.6538H29.2791C29.2791 70.6301 30.8811 72.2321 32.8574 72.2321Z" fill="black"/>
<path d="M34.6609 72.2253C34.2438 72.2253 32.8717 72.2253 32.8717 72.2253C32.8717 72.2253 32.8717 71.0072 32.8717 70.4361C32.8717 69.9901 32.8717 68.647 32.8717 68.647C32.8717 68.647 34.1188 68.647 34.6609 68.647C35.6489 68.647 36.45 69.448 36.45 70.4361C36.45 71.4242 35.6489 72.2253 34.6609 72.2253Z" fill="black"/>
<path d="M43.6013 68.647H40.0229V72.2253H43.6013V68.647Z" fill="black"/>
<path d="M48.9791 68.647C49.9673 68.647 50.7683 69.448 50.7683 70.4361C50.7683 71.4243 49.9673 72.2253 48.9791 72.2253C47.991 72.2253 47.1899 71.4243 47.1899 70.4361C47.1899 69.448 47.991 68.647 48.9791 68.647Z" fill="black"/>
<path d="M61.4891 70.4361C61.4891 70.8531 61.4891 72.2253 61.4891 72.2253C61.4891 72.2253 60.2711 72.2253 59.6999 72.2252C59.2539 72.2253 57.9108 72.2252 57.9108 72.2252C57.9108 72.2252 57.9108 70.9782 57.9108 70.4361C57.9108 69.448 58.7118 68.647 59.6999 68.647C60.688 68.647 61.4891 69.448 61.4891 70.4361Z" fill="black"/>
<path d="M72.2299 72.2321V68.6538H68.6516C68.6516 70.6301 70.2536 72.2321 72.2299 72.2321Z" fill="black"/>
<path d="M75.8076 68.647H72.2292V72.2253H75.8076V68.647Z" fill="black"/>
<path d="M79.3923 68.647H75.814V72.2253H79.3923V68.647Z" fill="black"/>
<path d="M79.3845 68.6538V72.2321H82.9628C82.9628 70.2558 81.3608 68.6538 79.3845 68.6538Z" fill="black"/>
<path d="M0.659424 74.0191C0.659424 73.6021 0.659424 72.23 0.659424 72.23C0.659424 72.23 1.87749 72.23 2.44858 72.23C2.89461 72.23 4.23774 72.23 4.23774 72.23C4.23774 72.23 4.23774 73.4771 4.23774 74.0191C4.23774 75.0072 3.43666 75.8083 2.44858 75.8083C1.46046 75.8083 0.659424 75.0072 0.659424 74.0191Z" fill="black"/>
<path d="M9.60581 72.23C10.594 72.23 11.395 73.031 11.395 74.0191C11.395 75.0073 10.594 75.8083 9.60581 75.8083C8.61769 75.8083 7.81665 75.0073 7.81665 74.0191C7.81665 73.031 8.61769 72.23 9.60581 72.23Z" fill="black"/>
<path d="M18.5458 75.8088V72.2305H14.9675C14.9675 74.2067 16.5696 75.8088 18.5458 75.8088Z" fill="black"/>
<path d="M22.1342 72.23H18.5559V75.8083H22.1342V72.23Z" fill="black"/>
<path d="M25.7102 72.23H22.1318V75.8083H25.7102V72.23Z" fill="black"/>
<path d="M27.503 75.8083C27.086 75.8083 25.7139 75.8083 25.7139 75.8083C25.7139 75.8083 25.7139 74.5902 25.7139 74.0191C25.7139 73.5731 25.7139 72.23 25.7139 72.23C25.7139 72.23 26.961 72.23 27.503 72.23C28.4911 72.23 29.2922 73.031 29.2922 74.0191C29.2922 75.0072 28.4911 75.8083 27.503 75.8083Z" fill="black"/>
<path d="M43.6013 72.23H40.0229V75.8083H43.6013V72.23Z" fill="black"/>
<path d="M54.3439 74.0191C54.3439 74.4361 54.3439 75.8083 54.3439 75.8083C54.3439 75.8083 53.1259 75.8083 52.5548 75.8082C52.1088 75.8083 50.7656 75.8082 50.7656 75.8082C50.7656 75.8082 50.7656 74.5612 50.7656 74.0191C50.7657 73.031 51.5667 72.23 52.5547 72.23C53.5429 72.23 54.3439 73.031 54.3439 74.0191Z" fill="black"/>
<path d="M61.4891 72.23H57.9108V75.8083H61.4891V72.23Z" fill="black"/>
<path d="M63.2879 75.8083C62.8709 75.8083 61.4988 75.8083 61.4988 75.8083C61.4988 75.8083 61.4988 74.5902 61.4988 74.0191C61.4988 73.5731 61.4988 72.23 61.4988 72.23C61.4988 72.23 62.7459 72.23 63.2879 72.23C64.276 72.23 65.0771 73.031 65.0771 74.0191C65.0771 75.0072 64.276 75.8083 63.2879 75.8083Z" fill="black"/>
<path d="M75.8076 72.23H72.2292V75.8083H75.8076V72.23Z" fill="black"/>
<path d="M79.3923 72.23H75.814V75.8083H79.3923V72.23Z" fill="black"/>
<path d="M82.9625 72.23H79.3842V75.8083H82.9625V72.23Z" fill="black"/>
<path d="M86.5502 72.23H82.9719V75.8083H86.5502V72.23Z" fill="black"/>
<path d="M86.5444 72.2305V75.8088H90.1228C90.1228 73.8325 88.5207 72.2305 86.5444 72.2305Z" fill="black"/>
<path d="M95.4942 72.23C95.9113 72.23 97.2834 72.23 97.2834 72.23C97.2834 72.23 97.2834 73.4479 97.2834 74.0191C97.2834 74.465 97.2834 75.8083 97.2834 75.8083C97.2834 75.8083 96.0366 75.8083 95.4942 75.8083C94.5058 75.8083 93.7051 75.0069 93.7051 74.0191C93.7051 73.0313 94.5058 72.23 95.4942 72.23Z" fill="black"/>
<path d="M100.863 72.23H97.2847V75.8083H100.863V72.23Z" fill="black"/>
<path d="M102.646 75.8083C102.229 75.8083 100.857 75.8083 100.857 75.8083C100.857 75.8083 100.857 74.5902 100.857 74.0191C100.857 73.5731 100.857 72.23 100.857 72.23C100.857 72.23 102.104 72.23 102.646 72.23C103.635 72.23 104.436 73.031 104.436 74.0191C104.436 75.0072 103.635 75.8083 102.646 75.8083Z" fill="black"/>
<path d="M31.0755 75.811C32.0637 75.811 32.8647 76.6121 32.8647 77.6002C32.8647 78.5884 32.0637 79.3894 31.0755 79.3894C30.0874 79.3894 29.2864 78.5884 29.2864 77.6002C29.2864 76.6121 30.0874 75.811 31.0755 75.811Z" fill="black"/>
<path d="M43.6013 79.3962V75.8179H40.0229C40.023 77.7941 41.625 79.3962 43.6013 79.3962Z" fill="black"/>
<path d="M43.5925 75.8179V79.3962H47.1708C47.1708 77.4199 45.5688 75.8179 43.5925 75.8179Z" fill="black"/>
<path d="M54.3395 79.3962V75.8179H50.7612C50.7612 77.7941 52.3633 79.3962 54.3395 79.3962Z" fill="black"/>
<path d="M57.9168 75.811H54.3385V79.3894H57.9168V75.811Z" fill="black"/>
<path d="M61.4891 75.811H57.9108V79.3894H61.4891V75.811Z" fill="black"/>
<path d="M66.8767 75.811C67.8649 75.811 68.6658 76.6121 68.6658 77.6002C68.6658 78.5884 67.8649 79.3894 66.8767 79.3894C65.8886 79.3894 65.0875 78.5884 65.0875 77.6002C65.0875 76.6121 65.8886 75.811 66.8767 75.811Z" fill="black"/>
<path d="M75.8076 75.811H72.2292V79.3894H75.8076V75.811Z" fill="black"/>
<path d="M90.1198 75.811H86.5415V79.3894H90.1198V75.811Z" fill="black"/>
<path d="M90.1355 75.8179V79.3962H93.7138C93.7138 77.4199 92.1117 75.8179 90.1355 75.8179Z" fill="black"/>
<path d="M34.6609 79.3872C35.0779 79.3872 36.45 79.3872 36.45 79.3872C36.45 79.3872 36.45 80.6051 36.45 81.1764C36.45 81.6223 36.45 82.9655 36.45 82.9655C36.45 82.9655 35.2032 82.9655 34.6609 82.9655C33.6724 82.9655 32.8717 82.1641 32.8717 81.1764C32.8717 80.1885 33.6724 79.3872 34.6609 79.3872Z" fill="black"/>
<path d="M36.4537 79.3872V82.9655H40.0321C40.0321 80.9892 38.43 79.3872 36.4537 79.3872Z" fill="black"/>
<path d="M47.1766 79.3872H43.5983V82.9655H47.1766V79.3872Z" fill="black"/>
<path d="M57.9128 82.9655V79.3872H54.3345C54.3345 81.3635 55.9365 82.9655 57.9128 82.9655Z" fill="black"/>
<path d="M61.4891 79.3872H57.9108V82.9655H61.4891V79.3872Z" fill="black"/>
<path d="M63.2879 82.9655C62.8709 82.9655 61.4988 82.9655 61.4988 82.9655C61.4988 82.9655 61.4988 81.7474 61.4988 81.1764C61.4988 80.7303 61.4988 79.3872 61.4988 79.3872C61.4988 79.3872 62.7459 79.3872 63.2879 79.3872C64.276 79.3872 65.0771 80.1882 65.0771 81.1764C65.0771 82.1644 64.276 82.9655 63.2879 82.9655Z" fill="black"/>
<path d="M68.6516 82.9655H72.2299V79.3872C70.2537 79.3872 68.6516 80.9892 68.6516 82.9655Z" fill="black"/>
<path d="M75.8076 79.3872H72.2292V82.9655H75.8076V79.3872Z" fill="black"/>
<path d="M81.1733 79.3872C82.1615 79.3872 82.9625 80.1882 82.9625 81.1764C82.9625 82.1645 82.1615 82.9655 81.1733 82.9655C80.1852 82.9655 79.3842 82.1645 79.3842 81.1764C79.3842 80.1882 80.1852 79.3872 81.1733 79.3872Z" fill="black"/>
<path d="M90.1198 79.3872H86.5415V82.9655H90.1198V79.3872Z" fill="black"/>
<path d="M93.7017 79.3872H90.1234V82.9655H93.7017V79.3872Z" fill="black"/>
<path d="M95.4942 82.9655C95.0772 82.9655 93.7051 82.9655 93.7051 82.9655C93.7051 82.9655 93.7051 81.7474 93.7051 81.1764C93.7051 80.7303 93.7051 79.3872 93.7051 79.3872C93.7051 79.3872 94.9522 79.3872 95.4942 79.3872C96.4823 79.3872 97.2834 80.1882 97.2834 81.1764C97.2834 82.1644 96.4823 82.9655 95.4942 82.9655Z" fill="black"/>
<path d="M36.4537 84.7643C36.4537 84.3472 36.4537 82.9751 36.4537 82.9751C36.4537 82.9751 37.6718 82.9751 38.2429 82.9751C38.6889 82.9751 40.0321 82.9751 40.0321 82.9751C40.0321 82.9751 40.0321 84.2222 40.0321 84.7643C40.0321 85.7523 39.231 86.5534 38.2429 86.5534C37.2548 86.5534 36.4537 85.7523 36.4537 84.7643Z" fill="black"/>
<path d="M47.1766 82.9751H43.5983V86.5534H47.1766V82.9751Z" fill="black"/>
<path d="M54.3439 84.7643C54.3439 85.1812 54.3439 86.5534 54.3439 86.5534C54.3439 86.5534 53.1259 86.5534 52.5548 86.5533C52.1088 86.5534 50.7656 86.5533 50.7656 86.5533C50.7656 86.5533 50.7656 85.3064 50.7656 84.7642C50.7657 83.7761 51.5667 82.9751 52.5547 82.9751C53.5429 82.9751 54.3439 83.7761 54.3439 84.7643Z" fill="black"/>
<path d="M61.4891 82.9751H57.9108V86.5534H61.4891V82.9751Z" fill="black"/>
<path d="M66.8767 82.9751C67.2937 82.9751 68.6658 82.9751 68.6658 82.9751C68.6658 82.9751 68.6658 84.193 68.6658 84.7643C68.6658 85.2102 68.6658 86.5534 68.6658 86.5534C68.6658 86.5534 67.419 86.5534 66.8767 86.5534C65.8882 86.5534 65.0875 85.752 65.0875 84.7643C65.0875 83.7764 65.8882 82.9751 66.8767 82.9751Z" fill="black"/>
<path d="M72.2351 82.9751H68.6567V86.5534H72.2351V82.9751Z" fill="black"/>
<path d="M75.8076 82.9751H72.2292V86.5534H75.8076V82.9751Z" fill="black"/>
<path d="M90.1198 82.9751H86.5415V86.5534H90.1198V82.9751Z" fill="black"/>
<path d="M104.436 84.7643C104.436 85.1812 104.436 86.5534 104.436 86.5534C104.436 86.5534 103.218 86.5534 102.646 86.5533C102.2 86.5534 100.857 86.5533 100.857 86.5533C100.857 86.5533 100.857 85.3064 100.857 84.7642C100.857 83.7761 101.658 82.9751 102.646 82.9751C103.635 82.9751 104.436 83.7761 104.436 84.7643Z" fill="black"/>
<path d="M34.6609 86.5361C35.649 86.5361 36.45 87.3372 36.45 88.3253C36.45 89.3135 35.649 90.1145 34.6609 90.1145C33.6727 90.1145 32.8717 89.3135 32.8717 88.3253C32.8717 87.3372 33.6727 86.5361 34.6609 86.5361Z" fill="black"/>
<path d="M40.0229 90.1149H43.6013V86.5366C41.625 86.5366 40.0229 88.1387 40.0229 90.1149Z" fill="black"/>
<path d="M47.1766 86.5361H43.5983V90.1145H47.1766V86.5361Z" fill="black"/>
<path d="M50.7683 86.5361H47.1899V90.1145H50.7683V86.5361Z" fill="black"/>
<path d="M54.3439 86.5361H50.7656V90.1145H54.3439V86.5361Z" fill="black"/>
<path d="M61.4891 86.5361H57.9108V90.1145H61.4891V86.5361Z" fill="black"/>
<path d="M72.2351 86.5361H68.6567V90.1145H72.2351V86.5361Z" fill="black"/>
<path d="M75.8076 86.5361H72.2292V90.1145H75.8076V86.5361Z" fill="black"/>
<path d="M79.3923 86.5361H75.814V90.1145H79.3923V86.5361Z" fill="black"/>
<path d="M82.9625 86.5361H79.3842V90.1145H82.9625V86.5361Z" fill="black"/>
<path d="M86.5502 86.5361H82.9719V90.1145H86.5502V86.5361Z" fill="black"/>
<path d="M90.1198 86.5361H86.5415V90.1145H90.1198V86.5361Z" fill="black"/>
<path d="M90.1355 86.5366V90.1149H93.7138C93.7138 88.1387 92.1117 86.5366 90.1355 86.5366Z" fill="black"/>
<path d="M104.436 86.5361H100.857V90.1145H104.436V86.5361Z" fill="black"/>
<path d="M43.6013 90.1206H40.0229V93.6989H43.6013V90.1206Z" fill="black"/>
<path d="M54.3439 90.1206H50.7656V93.6989H54.3439V90.1206Z" fill="black"/>
<path d="M57.9168 90.1206H54.3385V93.6989H57.9168V90.1206Z" fill="black"/>
<path d="M61.4891 90.1206H57.9108V93.6989H61.4891V90.1206Z" fill="black"/>
<path d="M72.2351 90.1206H68.6567V93.6989H72.2351V90.1206Z" fill="black"/>
<path d="M79.3923 90.1206H75.814V93.6989H79.3923V90.1206Z" fill="black"/>
<path d="M93.7017 90.1206H90.1234V93.6989H93.7017V90.1206Z" fill="black"/>
<path d="M93.7034 90.1235V93.7019H97.2817C97.2817 91.7256 95.6796 90.1235 93.7034 90.1235Z" fill="black"/>
<path d="M100.857 91.9098C100.857 91.4927 100.857 90.1206 100.857 90.1206C100.857 90.1206 102.075 90.1206 102.646 90.1206C103.092 90.1206 104.436 90.1206 104.436 90.1206C104.436 90.1206 104.436 91.3677 104.436 91.9098C104.436 92.8978 103.635 93.6989 102.646 93.6989C101.658 93.6989 100.857 92.8978 100.857 91.9098Z" fill="black"/>
<path d="M38.2429 93.709C38.6599 93.709 40.0321 93.709 40.0321 93.709C40.0321 93.709 40.0321 94.9269 40.0321 95.4981C40.0321 95.944 40.0321 97.2873 40.0321 97.2873C40.0321 97.2873 38.7852 97.2873 38.2429 97.2873C37.2544 97.2873 36.4537 96.4859 36.4537 95.4981C36.4537 94.5103 37.2544 93.709 38.2429 93.709Z" fill="black"/>
<path d="M43.6013 93.709H40.0229V97.2873H43.6013V93.709Z" fill="black"/>
<path d="M47.1766 93.709H43.5983V97.2873H47.1766V93.709Z" fill="black"/>
<path d="M50.7683 93.709H47.1899V97.2873H50.7683V93.709Z" fill="black"/>
<path d="M54.3439 93.709H50.7656V97.2873H54.3439V93.709Z" fill="black"/>
<path d="M57.9168 93.709H54.3385V97.2873H57.9168V93.709Z" fill="black"/>
<path d="M61.4891 93.709H57.9108V97.2873H61.4891V93.709Z" fill="black"/>
<path d="M65.0771 93.709H61.4988V97.2873H65.0771V93.709Z" fill="black"/>
<path d="M68.6658 93.709H65.0875V97.2873H68.6658V93.709Z" fill="black"/>
<path d="M72.2299 93.6982H68.6516V97.2766C70.6279 97.2766 72.2299 95.6745 72.2299 93.6982Z" fill="black"/>
<path d="M79.3923 93.709H75.814V97.2873H79.3923V93.709Z" fill="black"/>
<path d="M82.9625 93.709H79.3842V97.2873H82.9625V93.709Z" fill="black"/>
<path d="M86.5502 93.709H82.9719V97.2873H86.5502V93.709Z" fill="black"/>
<path d="M90.1198 93.709H86.5415V97.2873H90.1198V93.709Z" fill="black"/>
<path d="M93.7017 93.709H90.1234V97.2873H93.7017V93.709Z" fill="black"/>
<path d="M97.2834 93.709H93.7051V97.2873H97.2834V93.709Z" fill="black"/>
<path d="M99.0738 97.2873C98.6568 97.2873 97.2847 97.2873 97.2847 97.2873C97.2847 97.2873 97.2847 96.0692 97.2847 95.4981C97.2847 95.0521 97.2847 93.709 97.2847 93.709C97.2847 93.709 98.5318 93.709 99.0738 93.709C100.062 93.709 100.863 94.51 100.863 95.4981C100.863 96.4862 100.062 97.2873 99.0738 97.2873Z" fill="black"/>
<path d="M54.3439 97.2876H50.7656V100.866H54.3439V97.2876Z" fill="black"/>
<path d="M57.9128 97.2876H54.3345V100.866C56.3107 100.866 57.9128 99.2638 57.9128 97.2876Z" fill="black"/>
<path d="M65.0875 99.0768C65.0875 98.6597 65.0875 97.2876 65.0875 97.2876C65.0875 97.2876 66.3056 97.2876 66.8767 97.2876C67.3227 97.2876 68.6658 97.2876 68.6658 97.2876C68.6658 97.2876 68.6658 98.5347 68.6658 99.0768C68.6658 100.065 67.8648 100.866 66.8767 100.866C65.8886 100.866 65.0875 100.065 65.0875 99.0768Z" fill="black"/>
<path d="M79.3923 97.2876H75.814V100.866H79.3923V97.2876Z" fill="black"/>
<path d="M93.7017 97.2876H90.1234V100.866H93.7017V97.2876Z" fill="black"/>
<path d="M97.2834 97.2876H93.7051V100.866H97.2834V97.2876Z" fill="black"/>
<path d="M102.646 97.2876C103.635 97.2876 104.436 98.0886 104.436 99.0768C104.436 100.065 103.635 100.866 102.646 100.866C101.658 100.866 100.857 100.065 100.857 99.0768C100.857 98.0886 101.658 97.2876 102.646 97.2876Z" fill="black"/>
<path d="M31.0755 100.857C31.4926 100.857 32.8647 100.857 32.8647 100.857C32.8647 100.857 32.8647 102.075 32.8647 102.646C32.8647 103.092 32.8647 104.435 32.8647 104.435C32.8647 104.435 31.6179 104.435 31.0755 104.435C30.0871 104.435 29.2864 103.634 29.2864 102.646C29.2864 101.658 30.0871 100.857 31.0755 100.857Z" fill="black"/>
<path d="M34.6609 104.435C34.2438 104.435 32.8717 104.435 32.8717 104.435C32.8717 104.435 32.8717 103.217 32.8717 102.646C32.8717 102.2 32.8717 100.857 32.8717 100.857C32.8717 100.857 34.1188 100.857 34.6609 100.857C35.6489 100.857 36.45 101.658 36.45 102.646C36.45 103.634 35.6489 104.435 34.6609 104.435Z" fill="black"/>
<path d="M41.8121 100.857C42.8003 100.857 43.6013 101.658 43.6013 102.646C43.6013 103.634 42.8003 104.435 41.8121 104.435C40.824 104.435 40.0229 103.634 40.0229 102.646C40.0229 101.658 40.824 100.857 41.8121 100.857Z" fill="black"/>
<path d="M48.9791 100.857C49.3961 100.857 50.7683 100.857 50.7683 100.857C50.7683 100.857 50.7683 102.075 50.7683 102.646C50.7683 103.092 50.7683 104.435 50.7683 104.435C50.7683 104.435 49.5214 104.435 48.9791 104.435C47.9906 104.435 47.1899 103.634 47.1899 102.646C47.1899 101.658 47.9906 100.857 48.9791 100.857Z" fill="black"/>
<path d="M54.3395 100.86H50.7612V104.439C52.7375 104.439 54.3395 102.837 54.3395 100.86Z" fill="black"/>
<path d="M63.2879 100.857C64.2761 100.857 65.0771 101.658 65.0771 102.646C65.0771 103.634 64.2761 104.435 63.2879 104.435C62.2998 104.435 61.4988 103.634 61.4988 102.646C61.4988 101.658 62.2998 100.857 63.2879 100.857Z" fill="black"/>
<path d="M70.4459 100.857C71.4341 100.857 72.2351 101.658 72.2351 102.646C72.2351 103.634 71.4341 104.435 70.4459 104.435C69.4578 104.435 68.6567 103.634 68.6567 102.646C68.6567 101.658 69.4578 100.857 70.4459 100.857Z" fill="black"/>
<path d="M75.814 102.646C75.814 102.229 75.814 100.857 75.814 100.857C75.814 100.857 77.032 100.857 77.6031 100.857C78.0492 100.857 79.3923 100.857 79.3923 100.857C79.3923 100.857 79.3923 102.104 79.3923 102.646C79.3923 103.634 78.5912 104.435 77.6031 104.435C76.615 104.435 75.814 103.634 75.814 102.646Z" fill="black"/>
<path d="M84.7611 100.857C85.1781 100.857 86.5502 100.857 86.5502 100.857C86.5502 100.857 86.5502 102.075 86.5502 102.646C86.5502 103.092 86.5502 104.435 86.5502 104.435C86.5502 104.435 85.3034 104.435 84.7611 104.435C83.7726 104.435 82.9719 103.634 82.9719 102.646C82.9719 101.658 83.7726 100.857 84.7611 100.857Z" fill="black"/>
<path d="M90.1198 100.857H86.5415V104.435H90.1198V100.857Z" fill="black"/>
<path d="M93.7017 100.857H90.1234V104.435H93.7017V100.857Z" fill="black"/>
<path d="M97.2817 100.86H93.7034V104.439C95.6796 104.439 97.2817 102.837 97.2817 100.86Z" fill="black"/>
<path d="M17.1569 0.662598H9.21212C5.34016 0.662598 2.05984 3.22077 1.01108 6.71726C0.902617 7.07895 0.817954 7.45067 0.75909 7.83065C0.694215 8.24996 0.6604 8.67928 0.6604 9.11638V17.2498C0.6604 21.9135 4.49779 25.7061 9.21212 25.7061L13.1845 25.7068L17.1569 25.7058C21.871 25.7058 25.7086 21.9133 25.7086 17.2495V9.11638C25.7086 4.4549 21.8712 0.662598 17.1569 0.662598ZM21.9514 17.2498C21.9514 19.8408 19.8008 21.9488 17.1559 21.9488L13.1845 21.9496L9.21312 21.9486C6.56828 21.9486 4.41763 19.8405 4.41763 17.2498V9.11638C4.41763 8.30707 4.62754 7.5451 4.997 6.87932C5.35268 6.23884 5.8559 5.68802 6.46182 5.27097C7.24082 4.73469 8.1894 4.41983 9.21187 4.41983H17.1569C19.8008 4.41983 21.9514 6.52664 21.9514 9.11638V17.2498Z" fill="black"/>
<path d="M95.881 0.662598H87.9362C84.0643 0.662598 80.784 3.22077 79.7352 6.71726C79.6267 7.07895 79.5421 7.45067 79.4832 7.83065C79.4183 8.24996 79.3845 8.67928 79.3845 9.11638V17.2498C79.3845 21.9135 83.2219 25.7061 87.9362 25.7061L91.9086 25.7068L95.881 25.7058C100.595 25.7058 104.433 21.9133 104.433 17.2495V9.11638C104.433 4.4549 100.595 0.662598 95.881 0.662598ZM100.676 17.2498C100.676 19.8408 98.5249 21.9488 95.88 21.9488L91.9086 21.9496L87.9372 21.9486C85.2924 21.9486 83.1418 19.8405 83.1418 17.2498V9.11638C83.1418 8.30707 83.3517 7.5451 83.7211 6.87932C84.0768 6.23884 84.58 5.68802 85.1859 5.27097C85.9649 4.73469 86.9135 4.41983 87.936 4.41983H95.881C98.5249 4.41983 100.676 6.52664 100.676 9.11638V17.2498Z" fill="black"/>
<path d="M17.1569 79.3921H9.21212C5.34016 79.3921 2.05984 81.9503 1.01108 85.4467C0.902617 85.8084 0.817954 86.1802 0.75909 86.5601C0.694215 86.9794 0.6604 87.4088 0.6604 87.8459V95.9793C0.6604 100.643 4.49779 104.436 9.21212 104.436L13.1845 104.436L17.1569 104.435C21.871 104.435 25.7086 100.643 25.7086 95.979V87.8459C25.7086 83.1844 21.8712 79.3921 17.1569 79.3921ZM21.9514 95.9793C21.9514 98.5703 19.8008 100.678 17.1559 100.678L13.1845 100.679L9.21312 100.678C6.56828 100.678 4.41763 98.57 4.41763 95.9793V87.8459C4.41763 87.0366 4.62754 86.2746 4.997 85.6088C5.35268 84.9683 5.8559 84.4175 6.46182 84.0005C7.24082 83.4642 8.1894 83.1493 9.21187 83.1493H17.1569C19.8008 83.1493 21.9514 85.2561 21.9514 87.8459V95.9793Z" fill="black"/>
<path d="M10.7633 18.5577C9.1434 18.5577 7.82568 17.2661 7.82568 15.6799V10.6991C7.82568 10.2036 7.9545 9.73723 8.18004 9.32919C8.39786 8.93651 8.70616 8.599 9.07749 8.34437C9.55444 8.01609 10.1358 7.82275 10.7617 7.82275H15.6275C17.2459 7.82275 18.5636 9.11288 18.5636 10.699V15.6798C18.5636 17.2659 17.246 18.5576 15.6275 18.5576H13.1947L10.7633 18.5577Z" fill="black"/>
<path d="M89.4646 18.5577C87.8447 18.5577 86.527 17.2661 86.527 15.6799V10.6991C86.527 10.2036 86.6558 9.73723 86.8813 9.32919C87.0992 8.93651 87.4075 8.599 87.7788 8.34437C88.2557 8.01609 88.8371 7.82275 89.463 7.82275H94.3288C95.9472 7.82275 97.2649 9.11288 97.2649 10.699V15.6798C97.2649 17.2659 95.9473 18.5576 94.3288 18.5576H91.896L89.4646 18.5577Z" fill="black"/>
<path d="M10.7633 97.2765C9.1434 97.2765 7.82568 95.9848 7.82568 94.3986V89.4178C7.82568 88.9223 7.9545 88.456 8.18004 88.0479C8.39786 87.6553 8.70616 87.3177 9.07749 87.0631C9.55444 86.7348 10.1358 86.5415 10.7617 86.5415H15.6275C17.2459 86.5415 18.5636 87.8316 18.5636 89.4177V94.3985C18.5636 95.9846 17.246 97.2764 15.6275 97.2764H13.1947L10.7633 97.2765Z" fill="black"/>
</svg>
