<svg width="44" height="64" viewBox="0 0 44 64" fill="none" xmlns="http://www.w3.org/2000/svg">
<g clip-path="url(#clip0_1_27804)">
<path d="M3.53449 13.0803C4.84527 11.7735 5.35246 10.8553 5.30108 8.95961C5.58695 9.37195 6.13629 9.85542 6.35629 9.47734C7.84096 6.90847 9.27425 4.83889 11.7891 3.09075C15.321 0.631229 19.2098 1.43482 23.0671 0.637815C24.8534 0.268953 27.2668 1.43219 29.3417 2.16728C33.5362 3.65063 35.8178 7.99662 37.7623 11.5904C39.845 15.4384 41.908 19.6658 42.3889 24.2674C41.8184 24.108 41.306 24.4452 41.306 24.8576C41.3073 25.2699 41.6999 25.4636 42.3889 25.4464C41.7381 25.5018 41.2889 25.9009 41.3626 26.2513C42.0174 29.3353 40.6052 31.8053 41.5155 34.9473C41.6485 35.4097 40.3377 36.7349 40.3588 37.2052C40.4602 39.4698 42.7828 42.2415 42.7525 43.6788C42.6062 50.6648 35.6822 54.7578 30.0452 59.3752C29.4853 59.8349 29.8199 60.6122 29.4365 61.3565C29.5577 60.8374 29.2284 60.2328 28.8701 60.3C26.4487 60.7597 26.9296 63.8331 24.8007 63.3668C22.5823 62.8833 19.8843 64.4602 18.2508 61.9454C17.8384 62.2312 17.5012 62.55 17.6619 63.1231C15.4566 62.3511 13.9996 59.7572 11.7878 59.8639C11.3715 59.8824 10.5495 60.3434 10.066 60.0773C6.79629 58.2686 5.61329 54.5721 2.35677 52.5249C0.741677 51.5118 3.05892 50.5725 2.33305 49.6003C1.99054 49.1419 1.5703 48.798 1.17904 48.4068C1.5703 48.0142 2.27114 47.5492 2.19737 47.2686C0.953773 42.4681 0.666586 37.7875 0.339879 33.0753C0.185747 30.8582 1.56766 28.5396 1.07234 26.055C0.978803 25.5848 0.0764071 25.1145 0.159401 24.9247C0.740359 23.5692 1.58874 21.8553 0 20.7355C2.96539 19.4155 1.48335 16.9652 2.43186 14.2857C2.60048 13.8062 3.13269 13.4808 3.53186 13.0803" fill="url(#paint0_linear_1_27804)"/>
<path d="M8.3455 16.7149C8.04514 17.0086 8.10442 17.8438 8.31652 18.3497C9.09508 20.2125 11.2371 19.372 12.2989 19.1797C16.8254 18.3563 21.1332 19.3035 25.213 18.0375C29.2995 16.7715 24.9838 13.71 22.8471 12.7588C19.4166 11.2333 15.9493 14.312 12.2871 12.6732C11.5994 12.3663 12.1198 14.1592 11.1897 14.1908C10.9974 14.1961 10.8011 13.868 10.6022 13.6691C9.7933 14.6321 9.30983 15.7743 8.34815 16.7149" fill="#151920"/>
<path d="M8.82868 26.6257C9.04473 26.814 9.33324 27.1566 9.36354 27.1328C11.3396 25.6218 9.15276 24.2992 8.24377 23.0872C7.44809 24.0186 6.92114 24.971 8.82868 26.6257Z" fill="#151920"/>
<path d="M15.3089 34.2766C16.1336 34.1383 17.5326 34.6297 17.4312 33.7115C17.2441 32.0068 14.9479 32.954 13.5423 33.6851C13.9533 34.4163 14.5896 34.3991 15.3089 34.2766Z" fill="#151920"/>
<path d="M15.9635 21.7081C19.6324 21.0797 20.8799 25.7669 23.5515 27.7969C23.159 28.1895 22.7901 28.8179 22.3633 28.8548C21.4912 28.9299 21.6387 27.1962 20.6138 27.2858C19.718 27.3635 20.3042 29.2618 18.8406 28.9733C19.2293 30.4975 18.5021 31.5132 17.0556 31.8281C14.4077 32.4037 10.9536 31.8425 11.1802 29.6215C11.3369 28.0933 11.0142 25.838 12.3566 24.2558C13.3946 23.0333 14.8358 21.8991 15.9635 21.7067M17.6379 27.0434C18.3203 26.934 18.8419 26.0316 19.4308 25.4428C17.8302 25.0423 16.7328 26.5955 15.314 26.5309C14.8872 26.5125 14.5605 26.0145 14.7212 25.4428C14.1324 25.4428 13.4263 25.2465 13.0271 25.5403C12.6556 25.8143 13.197 25.9552 13.4223 26.1621C15.1928 27.8114 16.3087 27.2515 17.6379 27.0434Z" fill="#151920"/>
</g>
<defs>
<linearGradient id="paint0_linear_1_27804" x1="21.3764" y1="0.567322" x2="21.3764" y2="63.4189" gradientUnits="userSpaceOnUse">
<stop stop-color="#E8F2F9"/>
<stop offset="1" stop-color="#A7B1B7"/>
</linearGradient>
<clipPath id="clip0_1_27804">
<rect width="44" height="63.1018" fill="white" transform="translate(0 0.567322)"/>
</clipPath>
</defs>
</svg>
