<svg width="89" height="17" viewBox="0 0 89 17" fill="none" xmlns="http://www.w3.org/2000/svg">
<g clip-path="url(#clip0_1_27762)">
<path d="M21.6 2.68272C21.6201 2.29986 22.0577 2.38945 22.6596 2.4044C23.3063 2.41435 23.5704 2.34955 23.5756 2.68761C23.5756 2.77705 23.5659 2.86185 23.5609 2.95128C23.5012 3.91178 23.5458 3.92749 23.5707 4.36046C23.6155 5.11679 23.5752 5.87845 23.5951 6.63975C23.6349 7.87215 23.6849 8.53882 23.7445 8.64464C23.7993 8.74417 23.8642 8.75923 23.9389 8.68956L24.9643 7.74425C25.5663 7.18699 26.0041 6.87338 26.2729 6.81358C26.9049 6.66428 27.0891 7.10238 27.2035 7.27159C27.4474 7.63501 28.0942 9.79392 28.9799 9.20225L30.976 7.8585C32.1803 7.04735 33.2955 6.69452 34.3207 6.79405C34.8626 6.84392 34.6084 7.10675 34.4691 7.20128C34.3837 7.26123 32.7133 7.81416 32.723 9.10264C32.728 10.2273 34.1711 10.1183 34.5346 9.06847C34.6938 8.61559 34.5792 7.30177 35.475 7.56554C35.6592 7.62546 35.9927 7.93392 36.4652 8.50597C36.7041 8.79468 36.963 9.38649 37.2416 9.24718C37.2864 9.22727 37.3161 9.19198 37.351 9.1671C37.6494 8.93824 37.8985 8.65013 38.182 8.40636C38.9683 7.73948 39.8446 6.82862 40.183 6.70421C40.5562 6.56995 40.8648 6.79879 40.9096 6.8585L42.3773 8.63487C42.5117 8.804 42.621 8.83385 42.7006 8.73448L44.015 7.10753C44.5673 6.42592 45.2585 6.67916 45.4926 6.97764L46.7367 8.58507C46.891 8.78413 47.0209 8.81895 47.1254 8.68956L48.434 7.08702C48.7275 6.72388 49.0611 6.57979 49.4242 6.65929C49.832 6.7488 51.8205 9.02017 52.0219 9.09776C52.3404 9.22217 52.8383 8.81912 53.515 7.89854C53.7539 7.57506 53.9037 7.19147 54.1625 6.88292C54.3165 6.69894 54.3619 6.52964 55.2865 6.57432C56.0778 6.60916 55.9538 6.82394 55.9389 7.72472C55.9339 8.10765 55.9443 8.30186 55.9691 8.30186H56.0141C56.0485 8.30155 56.0733 8.26703 56.1078 8.24718C56.1526 8.21234 57.3325 6.86868 58.8803 6.63975C60.6318 6.38601 61.7064 7.34584 61.642 8.17686C61.6271 8.37586 61.5723 8.61988 61.4828 8.90343C61.3733 9.25179 60.8265 9.84902 62.0209 9.5753C62.817 9.39605 63.558 8.9083 64.2396 8.12218C64.802 7.47028 64.3542 7.40568 64.6029 6.81358C64.7621 6.43054 65.2996 6.49526 65.474 6.49034C67.8131 6.42067 67.0621 6.54532 67.2064 8.3419C67.2659 9.10338 66.7541 10.3572 68.5453 9.38194C70.8692 8.11293 71.5657 5.90326 73.6605 6.13194C74.208 6.19166 74.457 6.37573 74.2182 6.54991C74.1327 6.61468 72.8699 6.79925 72.6908 7.99815C72.6212 8.48582 72.8646 9.86887 73.7201 9.64561C74.2078 9.5212 74.5119 8.70475 74.3676 7.89854C74.3029 7.53033 73.87 7.03775 74.223 7.01768L75.3285 6.96788C76.737 6.90304 79.1157 6.16132 79.5287 6.36534C79.6581 6.42513 79.7971 6.60495 79.9662 6.90343C80.1851 7.3066 80.3896 8.31653 80.6781 8.03819L81.4096 7.32628C82.2606 6.50513 82.9078 6.22109 83.3656 6.46495C83.9777 6.7936 84.8137 9.40639 86.3363 8.71007C86.9136 8.4463 87.6802 7.5252 88.1381 7.90343C88.3371 8.06767 88.2073 8.43093 87.7445 8.99327C87.3315 9.49089 86.6895 10.0132 85.8187 10.5655C85.336 10.8741 84.9227 11.0341 84.5893 11.0441C84.281 11.0539 84.0521 10.9643 83.893 10.7804L82.2309 8.84874C82.1115 8.70949 82.0221 8.68518 81.9574 8.76475L81.3598 9.51573C81.2652 9.64015 80.1401 10.9048 79.5131 11.0392C79.0356 11.1483 78.8562 10.7301 78.682 10.4415C78.5186 10.1318 78.3626 9.81827 78.2143 9.50108C77.2986 7.60506 77.6372 7.48564 76.5873 7.68468C75.8856 7.81407 76.453 8.1428 76.4281 8.80968C76.3481 11.1135 73.4223 11.8046 71.7602 10.9239C70.3368 10.1725 70.5902 9.22765 70.2816 9.48643L69.5199 10.1232C68.3157 11.1232 66.0869 11.3422 65.1312 10.8995C64.2753 10.5014 64.6526 9.4016 64.3988 9.44639C64.149 9.49284 62.9394 10.8842 60.9301 11.1329C60.7045 11.1631 59.0141 11.441 57.8354 10.3966C57.5417 10.1378 57.5417 10.0088 57.8354 10.0138C58.278 10.0188 58.5022 10.2127 58.9896 9.74034C59.3329 9.40701 59.4477 8.99357 59.3334 8.50108C59.2538 8.1776 58.9942 8.06287 58.5463 8.15245C58.4306 8.17291 57.7548 8.42177 57.1684 9.11241C56.3323 10.0927 55.9342 11.4914 55.9789 13.3077C55.9839 13.5366 55.9691 13.7663 55.9691 13.9952C55.9692 14.443 56.0141 14.8913 56.0141 15.3341C56.0191 16.0005 56.1279 16.3739 55.6557 16.4884C55.4516 16.5332 54.3664 16.6673 54.2221 16.4483C54.1822 16.3935 53.9536 14.9453 53.9984 13.5519C54.0233 12.8354 54.0128 12.2035 53.973 11.6661C53.8586 10.0338 54.0626 9.25253 53.7689 9.48643L52.8529 10.2179C51.8976 10.9841 51.1513 11.3419 50.6039 11.2921C50.0018 11.2373 49.2554 10.0734 48.6234 9.50108C48.4642 9.35178 48.3342 9.33212 48.2396 9.43663L47.1605 10.6651C46.628 11.2723 46.2044 11.4719 45.9008 11.2579C45.8262 11.2131 45.772 11.1379 45.7123 11.0782C44.7468 10.1128 44.3431 9.14272 44.0346 9.45128L42.6762 10.8302C41.7657 11.7504 41.3377 11.3274 40.9496 10.8995C39.8896 9.71507 39.8242 9.0879 39.3812 9.35167C39.2964 9.40165 39.0178 9.60117 38.5404 9.95421C37.8786 10.4469 36.8186 11.3916 36.3607 11.4464C35.5699 11.5508 35.1916 10.5225 34.8881 10.422C34.4253 10.2627 34.3949 11.0485 32.8871 11.3819C31.6779 11.6457 30.6376 11.0838 30.3588 10.3175C30.2991 10.1582 30.3388 9.79946 30.0004 9.97862C29.7365 10.1131 28.5769 11.3024 27.4174 11.3273C26.7557 11.3422 26.5264 11.337 25.8695 10.4513C25.7005 10.2174 25.5858 9.93888 25.4018 9.71007C25.1331 9.39174 24.9836 9.60083 24.8393 9.75011C24.6591 9.92615 23.6747 11.5156 22.5658 11.3419C22.1777 11.2822 21.8839 10.9442 21.6898 10.3321C21.436 9.54583 21.356 8.09759 21.4506 5.98253L21.6 2.68272ZM2.34023 10.0431C-1.86973 6.11652 2.70848 0.244814 11.935 0.583114C13.4329 0.637857 17.9424 1.13525 19.3607 3.29015C20.0221 4.28979 18.8936 3.65844 18.6293 3.56847C17.1763 3.0609 15.8124 2.7523 14.5385 2.6378C13.8519 2.57312 13.8311 2.54859 13.851 3.16026C13.9256 5.50422 13.7916 7.84862 13.8314 10.1876C13.8414 10.7301 13.6624 10.8097 15.016 10.6007C16.5051 10.3701 17.9651 9.98013 19.3705 9.43663C19.8134 9.26742 20.5745 8.79469 20.0121 9.48643C19.2357 10.4369 17.6235 11.5665 15.3744 12.2433C14.633 12.4672 13.7171 12.6415 12.6225 12.756C11.3934 12.8903 10.1837 12.8846 8.99941 12.7403H8.99355C6.14713 12.4218 3.9277 11.5211 2.34023 10.0431ZM7.68008 2.588C7.51596 2.56316 7.3568 2.57823 7.19765 2.63292C5.09252 2.91161 2.87792 4.1261 2.48476 6.19639C2.44993 6.3957 2.41051 7.28677 2.77871 8.04307C3.46065 9.43611 5.07236 10.153 5.86855 10.3819C6.49561 10.5661 7.6954 10.7203 7.81484 10.6456C7.86955 10.6108 7.89394 10.5457 7.89394 10.4562L7.91445 2.87218C7.9045 2.69799 7.909 2.61786 7.68008 2.588ZM64.768 4.00694C65.7235 3.27537 67.4099 3.82285 67.2357 4.83311C67.0662 5.8377 65.6837 5.81327 65.3451 5.72374C64.0711 5.41022 64.2256 4.42003 64.768 4.00694ZM86.1 3.96886C86.331 3.9682 86.5534 4.0599 86.7172 4.22276C86.8808 4.38559 86.9734 4.60717 86.974 4.838C86.9738 5.32048 86.5755 5.708 86.1029 5.70811C85.6203 5.70811 85.232 5.31553 85.2318 4.84288C85.2312 4.6119 85.3219 4.38949 85.4848 4.22569C85.6476 4.06195 85.8691 3.96958 86.1 3.96886Z" fill="url(#paint0_linear_1_27762)"/>
</g>
<defs>
<linearGradient id="paint0_linear_1_27762" x1="44.4968" y1="0.569122" x2="44.4968" y2="16.5702" gradientUnits="userSpaceOnUse">
<stop stop-color="#E8F2F9"/>
<stop offset="1" stop-color="#A7B1B7"/>
</linearGradient>
<clipPath id="clip0_1_27762">
<rect width="87.465" height="16" fill="white" transform="translate(0.767578 0.567322)"/>
</clipPath>
</defs>
</svg>
