<svg width="20" height="17" viewBox="0 0 20 17" fill="none" xmlns="http://www.w3.org/2000/svg">
<path d="M19.2352 7.12662V9.06127C19.2352 9.5778 18.822 10.0004 18.2961 10.0192H16.4553C15.4411 10.0192 14.5113 9.27728 14.4268 8.26299C14.3704 7.67133 14.5958 7.11723 14.9903 6.73218C15.3378 6.3753 15.8167 6.16869 16.3426 6.16869H18.2961C18.822 6.18747 19.2352 6.61009 19.2352 7.12662Z" fill="#13CD90"/>
<path d="M17.7981 11.4279H16.4551C14.6708 11.4279 13.1681 10.0849 13.0179 8.3757C12.9333 7.39898 13.2902 6.42226 14.004 5.72729C14.605 5.10745 15.4409 4.75997 16.3424 4.75997H17.7981C18.0705 4.75997 18.2959 4.53457 18.2677 4.26222C18.0611 1.98008 16.5491 0.421095 14.3045 0.158133C14.0791 0.120567 13.8443 0.111176 13.6001 0.111176H5.14778C4.88481 0.111176 4.63124 0.129958 4.38707 0.167524C1.99223 0.468052 0.452026 2.25244 0.452026 4.80693V11.381C0.452026 13.973 2.55572 16.0767 5.14778 16.0767H13.6001C16.2297 16.0767 18.0423 14.4332 18.2677 11.9257C18.2959 11.6533 18.0705 11.4279 17.7981 11.4279ZM10.7827 5.98086H5.14778C4.76272 5.98086 4.44341 5.66155 4.44341 5.2765C4.44341 4.89145 4.76272 4.57214 5.14778 4.57214H10.7827C11.1677 4.57214 11.487 4.89145 11.487 5.2765C11.487 5.66155 11.1677 5.98086 10.7827 5.98086Z" fill="#13CD90"/>
</svg>
