<svg width="79" height="37" viewBox="0 0 79 37" fill="none" xmlns="http://www.w3.org/2000/svg">
<path fill-rule="evenodd" clip-rule="evenodd" d="M32.392 17.1459L23.4006 17.4661L31.9381 17.9406L32.392 17.1459ZM31.3165 19.0353L22.3037 19.356L30.873 19.8321L31.3165 19.0353ZM30.2409 20.9406L21.2395 21.2567L29.7983 21.7324L30.2409 20.9406ZM29.1876 22.8363L20.1748 23.1574L28.7236 23.6322L29.1876 22.8363ZM40.2051 7.60897L28.729 8.01737L40.2377 8.65693L40.2051 7.60897ZM40.1324 5.73377L29.8229 6.09535L40.165 6.68851L40.1324 5.73377ZM40.0588 3.92503L30.8734 4.22725L40.1031 4.73974L40.0588 3.92503ZM39.9969 2.06822L31.9456 2.33742L40.0287 2.81479L39.9969 2.06822ZM39.9447 0.567139H32.9421L39.9551 0.939169L39.9447 0.567139ZM28.1016 24.7312L19.1105 25.0568H27.9181L28.1016 24.7312Z" fill="url(#paint0_linear_1_27799)"/>
<path fill-rule="evenodd" clip-rule="evenodd" d="M58.5715 0.627502H45.6139L45.2465 1.27793L51.7307 1.62195C51.8068 1.62195 51.8068 1.7298 51.6981 1.7298L44.8686 1.95804L44.2098 3.11091L50.6497 3.4913C50.7362 3.50217 50.7149 3.62089 50.6393 3.62089L43.7985 3.84578L43.1619 4.94975L49.5913 5.30673C49.7318 5.3176 49.7318 5.43673 49.5913 5.43673L42.7618 5.67625L42.1135 6.8308L48.5216 7.19824C48.6621 7.20911 48.6516 7.33869 48.5216 7.33869L41.6921 7.58197L41.0325 8.72231L47.4511 9.07887C47.5481 9.08974 47.5598 9.20888 47.4298 9.20888L27.751 9.86808L46.4249 10.9056C46.5432 10.9056 46.5327 11.0569 46.4027 11.0569L26.6922 11.7596L45.366 12.7967C45.4526 12.7967 45.4739 12.9371 45.3439 12.9371L25.6007 13.6503L44.2746 14.6878C44.3507 14.6986 44.4255 14.8391 44.2642 14.85L24.5524 15.5514L43.2258 16.5885C43.2797 16.5993 43.3337 16.7398 43.2045 16.7398L33.2838 17.0934L33.3164 17.9888L42.1561 18.48C42.2205 18.4908 42.2531 18.6204 42.134 18.6204L33.349 18.9327L33.3921 19.9342L41.0651 20.3606C41.1403 20.3715 41.173 20.5228 41.0429 20.5228L33.4351 20.7899L33.4682 21.8889L40.0063 22.2521C40.0815 22.2626 40.1033 22.403 39.9737 22.403L33.5008 22.6342L33.5438 23.8431L38.947 24.1432C39.0231 24.1541 39.0231 24.2841 38.9149 24.2841L33.5656 24.4776L33.5873 24.9972H51.0293C55.6542 24.9972 59.8033 21.6255 60.5817 18.9452C61.3604 16.2653 61.3604 13.8446 57.6426 12.6345C59.7181 12.1588 63.3268 9.81834 64.0403 6.5825C64.6874 3.64262 63.6073 0.638371 58.5715 0.627502ZM49.7982 19.3963H44.4385L47.464 14.0361H51.441C55.5476 14.0361 53.5587 19.3963 49.7982 19.3963ZM56.7356 7.89715C56.5625 8.54549 55.265 10.1883 53.6234 10.1883H49.6465L52.1964 5.69297H54.2283C56.8212 5.7795 56.9078 7.24924 56.7356 7.89715ZM78.2051 32.7643C78.2051 30.6872 76.4783 28.9474 74.4012 28.9474C72.2701 28.9474 70.5304 30.7148 70.5304 32.8859C70.5282 33.3966 70.6272 33.9027 70.8217 34.375C71.0161 34.8472 71.3022 35.2763 71.6634 35.6374C72.0245 35.9985 72.4536 36.2845 72.9259 36.479C73.3981 36.6734 73.9042 36.7723 74.415 36.7701C75.9921 36.7701 77.4894 35.6912 77.9346 34.2211H75.9654C75.5741 34.8414 75.0625 35.1244 74.3602 35.1244C73.4703 35.1244 72.6752 34.5174 72.4185 33.6542H78.1098C78.1779 33.2366 78.2051 33.0339 78.2051 32.7643ZM72.365 32.2443C72.6213 31.2327 73.4305 30.5852 74.4283 30.5852C75.427 30.5852 76.2091 31.2193 76.4515 32.2443H72.365ZM52.6369 29.3073V29.913C52.0709 29.3061 51.2508 28.9608 50.3738 28.9608C48.4317 28.9608 46.776 30.6195 46.776 32.7777C46.776 34.8138 48.2407 36.6401 50.4123 36.6401C51.3699 36.6401 52.0981 36.419 52.7858 35.6369V36.5945H54.4319V29.3073H52.6369ZM50.6267 35.0955C50.0269 35.0955 49.4516 34.8573 49.0275 34.4331C48.6033 34.009 48.3651 33.4337 48.3651 32.8339C48.3651 32.2341 48.6033 31.6588 49.0275 31.2347C49.4516 30.8105 50.0269 30.5722 50.6267 30.5722C51.2265 30.5722 51.8018 30.8105 52.226 31.2347C52.6501 31.6588 52.8884 32.2341 52.8884 32.8339C52.8884 33.4337 52.6501 34.009 52.226 34.4331C51.8018 34.8573 51.2265 35.0955 50.6267 35.0955ZM3.5878 28.947C2.84625 28.947 2.27984 29.2032 1.65909 29.8374V29.1226H0V36.5945H1.79411V33.074C1.79411 32.1168 1.87478 30.5923 3.19654 30.5923C4.4372 30.5923 4.57222 32.0219 4.57222 32.939V36.5941H6.36591V32.5883C6.36591 31.5362 6.28523 31.0375 6.00182 30.4439C5.58381 29.554 4.59939 28.947 3.5878 28.947ZM14.7337 32.7643C14.7337 30.6872 13.0073 28.9474 10.9302 28.9474C8.79916 28.9474 7.05939 30.7148 7.05939 32.8859C7.05729 33.3966 7.15632 33.9026 7.35078 34.3748C7.54523 34.847 7.83126 35.276 8.19235 35.6371C8.55345 35.9982 8.98247 36.2843 9.45467 36.4787C9.92687 36.6732 10.4329 36.7722 10.9436 36.7701C12.5216 36.7701 14.0185 35.6912 14.4636 34.2211H12.4948C12.1035 34.8414 11.5911 35.1244 10.8896 35.1244C9.99969 35.1244 9.20379 34.5174 8.94755 33.6542H14.6388C14.7069 33.2366 14.7337 33.0339 14.7337 32.7643ZM8.89405 32.2443C9.15029 31.2327 9.95956 30.5852 10.9578 30.5852C11.956 30.5852 12.7381 31.2193 12.981 32.2443H8.89405ZM44.2474 36.5883H46.0411V26.6212H44.2474V36.5883ZM59.1642 28.947C58.4222 28.947 57.8554 29.2032 57.2351 29.8374V29.1226H55.576V36.5945H57.3705V33.074C57.3705 32.1168 57.4512 30.5923 58.7729 30.5923C60.0132 30.5923 60.1486 32.0219 60.1486 32.939V36.5941H61.9423V32.5883C61.9423 31.5362 61.8616 31.0375 61.5782 30.4439C61.1602 29.554 60.1758 28.947 59.1642 28.947ZM66.4201 30.5927C67.2423 30.5927 67.7142 30.8628 68.1598 31.6177H70.1822C69.6296 30.0129 68.2138 28.947 66.4869 28.947C64.302 28.947 62.5484 30.6868 62.5484 32.8316C62.5484 34.9894 64.3154 36.7697 66.4869 36.7697C67.0408 36.7668 67.5881 36.649 68.0941 36.4238C68.6001 36.1986 69.0539 35.8709 69.4268 35.4613C69.8047 35.0433 69.9397 34.8004 70.1822 34.14H68.1598C67.741 34.7871 67.2022 35.124 66.5279 35.124C65.273 35.124 64.343 34.1529 64.343 32.8579C64.343 31.5504 65.2329 30.5927 66.4201 30.5927ZM21.5899 33.6814L20.3196 29.123H18.8762L17.592 33.6814L16.0734 29.123H14.4908L16.9855 36.5945H18.1346L19.5914 31.7531L21.0072 36.5945H22.2132L24.6055 29.123H23.1223L21.5899 33.6814ZM31.2004 28.9549C30.3239 28.9549 29.5037 29.3002 28.9373 29.9068V26.6216H27.1432V36.5883H28.7885V35.631C29.4766 36.4131 30.2047 36.6338 31.1624 36.6338C33.334 36.6338 34.7987 34.8079 34.7987 32.7714C34.7991 30.6136 33.1429 28.9549 31.2004 28.9549ZM30.9475 35.0955C30.3477 35.0955 29.7724 34.8573 29.3483 34.4331C28.9242 34.009 28.6859 33.4337 28.6859 32.8339C28.6859 32.2341 28.9242 31.6588 29.3483 31.2347C29.7724 30.8105 30.3477 30.5722 30.9475 30.5722C31.5474 30.5722 32.1226 30.8105 32.5468 31.2347C32.9709 31.6588 33.2092 32.2341 33.2092 32.8339C33.2092 33.4337 32.9709 34.009 32.5468 34.4331C32.1226 34.8573 31.5474 35.0955 30.9475 35.0955ZM41.2549 29.3073V29.913C40.6885 29.3061 39.8688 28.9608 38.9918 28.9608C37.0497 28.9608 35.3931 30.6195 35.3931 32.7777C35.3931 34.8138 36.8582 36.6401 39.0294 36.6401C39.9871 36.6401 40.7152 36.419 41.4033 35.6369V36.5945H43.0486V29.3073H41.2549ZM39.2451 35.0955C38.6453 35.0955 38.07 34.8573 37.6458 34.4331C37.2217 34.009 36.9834 33.4337 36.9834 32.8339C36.9834 32.2341 37.2217 31.6588 37.6458 31.2347C38.07 30.8105 38.6453 30.5722 39.2451 30.5722C39.8449 30.5722 40.4202 30.8105 40.8443 31.2347C41.2685 31.6588 41.5067 32.2341 41.5067 32.8339C41.5067 33.4337 41.2685 34.009 40.8443 34.4331C40.4202 34.8573 39.8449 35.0955 39.2451 35.0955Z" fill="url(#paint1_linear_1_27799)"/>
<defs>
<linearGradient id="paint0_linear_1_27799" x1="29.6741" y1="0.567139" x2="29.6741" y2="25.0568" gradientUnits="userSpaceOnUse">
<stop stop-color="#E8F2F9"/>
<stop offset="1" stop-color="#A7B1B7"/>
</linearGradient>
<linearGradient id="paint1_linear_1_27799" x1="39.1025" y1="0.627502" x2="39.1025" y2="36.7701" gradientUnits="userSpaceOnUse">
<stop stop-color="#E8F2F9"/>
<stop offset="1" stop-color="#A7B1B7"/>
</linearGradient>
</defs>
</svg>
