<svg width="21" height="19" viewBox="0 0 21 19" fill="none" xmlns="http://www.w3.org/2000/svg">
<g clip-path="url(#clip0_1_29974)">
<path d="M17.3992 0H3.49776C2.052 0 0.884277 1.08647 0.884277 2.43162V16.1935C0.884277 17.5387 2.052 18.6252 3.49776 18.6252H17.3992C18.845 18.6252 20.0127 17.5387 20.0127 16.1935V2.43162C20.0683 1.08647 18.845 0 17.3992 0ZM16.2871 6.88096L9.61441 13.0893C9.33638 13.348 9.05835 13.4515 8.72471 13.4515C8.44668 13.4515 8.05744 13.348 7.83502 13.0893L4.60987 10.0886C4.33184 9.82994 4.33184 9.46779 4.60987 9.26084L5.49957 8.43306C5.7776 8.17437 6.16684 8.17437 6.38926 8.43306L8.72471 10.606L14.4521 5.27713C14.7302 5.01845 15.1194 5.01845 15.3418 5.27713L16.2315 6.10491C16.5095 6.26012 16.5095 6.67401 16.2871 6.88096Z" fill="#464F5D"/>
</g>
<defs>
<clipPath id="clip0_1_29974">
<rect x="0.884277" width="19.1303" height="18.6252" rx="9.31258" fill="white"/>
</clipPath>
</defs>
</svg>
