<svg width="62" height="18" viewBox="0 0 62 18" fill="none" xmlns="http://www.w3.org/2000/svg">
<path d="M0.116035 0.741684C-0.00184837 0.912306 -0.0266659 0.986757 0.0260713 1.00847C0.0415823 1.01158 0.162568 1.25355 0.29286 1.54515C0.426254 1.83366 0.581363 2.178 0.640305 2.30519C0.826436 2.69917 0.88848 2.84497 0.913298 2.91942C0.925706 2.95975 1.07461 3.28548 1.24213 3.64533C1.40965 4.00209 1.54925 4.2999 1.54925 4.3061C1.54925 4.31231 1.67023 4.56979 1.81603 4.88001C1.96184 5.19022 2.12005 5.54387 2.16968 5.66486C2.21622 5.78895 2.42717 6.25117 2.63501 6.69479C3.11275 7.71231 3.33921 8.20866 3.41056 8.38548C3.4695 8.53439 3.95034 9.57982 4.1737 10.0514L4.3102 10.3399V13.8205L4.3133 17.3043L4.43739 17.4346L4.56147 17.568H5.70618H6.85089L6.97498 17.4346L7.09906 17.3043L7.10217 13.8608V10.4205L7.20764 10.1848C7.26658 10.0576 7.41859 9.71322 7.54888 9.42471C7.67607 9.13311 7.93355 8.56541 8.12279 8.16212C8.30892 7.75574 8.54158 7.24698 8.63155 7.02982C8.72461 6.81267 8.89833 6.42179 9.01932 6.16741C9.5622 5.00099 9.86311 4.34953 9.86311 4.33402C9.86311 4.31231 10.0244 3.94625 10.1671 3.63913C10.7627 2.36413 11.3832 0.983656 11.3832 0.930918C11.3832 0.915407 11.3429 0.844057 11.2901 0.769604C11.2405 0.695152 11.1971 0.620699 11.1971 0.602087C11.1971 0.577269 10.8062 0.567963 9.92206 0.567963C8.83939 0.567963 8.64085 0.574167 8.60363 0.614494C8.57881 0.639313 8.53848 0.670334 8.51676 0.682743C8.47644 0.707561 8.35545 0.94643 8.04833 1.62271C7.95837 1.81814 7.80016 2.15318 7.69779 2.36723C7.50545 2.77362 7.31932 3.18931 7.31932 3.21723C7.31932 3.22654 7.25728 3.36304 7.18282 3.52125C7.10837 3.67946 6.95016 4.0176 6.82917 4.27508C6.71129 4.52946 6.48173 5.02581 6.32041 5.37636C6.1591 5.7269 5.95125 6.18293 5.86129 6.39077L5.69687 6.76614L5.56038 6.46833C5.05162 5.35774 4.78793 4.77453 4.71348 4.5853C4.66695 4.46431 4.53355 4.1665 4.41877 3.91833C4.30399 3.67015 4.10545 3.23895 3.97826 2.95665C3.85107 2.67435 3.70527 2.35482 3.65253 2.24314C3.6029 2.13147 3.50983 1.92362 3.45089 1.77782C3.39195 1.63201 3.25855 1.3311 3.15618 1.10464C3.00107 0.769604 2.95144 0.688948 2.87698 0.657927C2.83045 0.639313 2.79012 0.611393 2.79012 0.595882C2.79012 0.580372 2.22552 0.567963 1.51202 0.567963L0.230816 0.571064L0.116035 0.741684Z" fill="url(#paint0_linear_1_27777)"/>
<path d="M13.6106 0.707714L13.4927 0.838005V9.07122L13.4958 17.3044L13.6199 17.4347L13.744 17.5681H18.3135H22.883L23.0257 17.4378L23.1715 17.3075V16.1876V15.0678L23.035 14.953L22.8954 14.8382H19.5916H16.2846V12.6356V10.4331H19.3341H22.3836L22.5294 10.2842L22.6752 10.1353V9.0495V7.96374L22.5263 7.81793L22.3773 7.67213H19.331H16.2846V5.48509V3.29804H19.5978L22.9078 3.29494L23.0412 3.17085L23.1715 3.04676V1.93618V0.828699L23.0257 0.698406L22.883 0.568115L18.3042 0.571217L13.7253 0.57432L13.6106 0.707714Z" fill="url(#paint1_linear_1_27777)"/>
<path d="M25.8331 0.707714L25.7152 0.838005V9.07122L25.7183 17.3044L25.8424 17.4347L25.9665 17.5681H30.5515H35.1397L35.2669 17.4409L35.394 17.3137V16.1876V15.0615L35.2638 14.9499L35.1335 14.8382H31.8203H28.5072V12.6356V10.4331H31.5566H34.6061L34.7364 10.2997L34.8667 10.1663V9.0495V7.93271L34.7333 7.80242L34.5999 7.67213H31.5535H28.5072V5.48509V3.29804H31.8141H35.1242L35.2575 3.18636L35.394 3.07779V1.94859V0.819391L35.2638 0.695305L35.1304 0.571217H30.5391L25.9479 0.57432L25.8331 0.707714Z" fill="url(#paint2_linear_1_27777)"/>
<path d="M38.3158 0.701509L38.1855 0.8318V1.9579V3.08089L38.3127 3.19877L38.4429 3.31355L41.3063 3.32906L44.1696 3.34457L44.0455 3.56173C43.9741 3.67961 43.8252 3.95881 43.7136 4.18217C43.453 4.70023 43.0218 5.51611 42.6991 6.10552C42.4137 6.62669 42.24 6.95863 42.2307 7.00516C42.2276 7.02377 42.147 7.17888 42.0477 7.35571L41.8709 7.67213H40.5121H39.1533L39.0262 7.81483L38.899 7.96063V9.06501V10.1663L39.0293 10.2997L39.1596 10.4331H39.8079H40.4532L40.3074 10.703C40.2267 10.855 40.1088 11.0659 40.0468 11.1776C39.9816 11.2893 39.811 11.6088 39.6683 11.8911C39.5225 12.1734 39.2185 12.7442 38.992 13.163C38.7656 13.5818 38.4491 14.1743 38.294 14.4814C38.1389 14.7886 37.9807 15.0895 37.9435 15.1484C37.8783 15.2539 37.8752 15.2849 37.8752 16.2807L37.8783 17.3044L38.0024 17.4378L38.1265 17.5681H42.8418H47.5572L47.6968 17.4378L47.8333 17.3106V16.1814V15.0553L47.7061 14.9375L47.5758 14.8227L44.3867 14.8072L41.1946 14.7917L41.4893 14.2488C41.6506 13.951 41.9019 13.4763 42.0446 13.194C42.3765 12.5364 42.9256 11.4909 43.2079 10.976C43.3289 10.7526 43.4375 10.5417 43.4468 10.5013L43.4654 10.4331H44.8521H46.2387L46.369 10.2997L46.4993 10.1663V9.06812V7.96684L46.3721 7.82103L46.2481 7.67213L45.5687 7.66593L44.8924 7.65662L45.1406 7.19129C45.2771 6.93381 45.4942 6.53052 45.6245 6.29166C45.7548 6.05279 45.9658 5.6464 46.096 5.39202C46.2263 5.13454 46.4993 4.61957 46.701 4.24421C46.9026 3.86884 47.1632 3.3787 47.2811 3.15844L47.4889 2.75516V1.79348V0.8318L47.3648 0.698406L47.2408 0.568115H42.845L38.4491 0.571217L38.3158 0.701509Z" fill="url(#paint3_linear_1_27777)"/>
<path d="M49.8867 0.732531C49.8309 0.822495 49.7875 0.912458 49.7875 0.93107C49.7875 0.949684 49.8216 1.03965 49.8619 1.12961C49.9023 1.22268 49.9922 1.43052 50.0605 1.59184C50.1287 1.75315 50.2652 2.05406 50.3614 2.25881C50.4575 2.46355 50.6065 2.78308 50.6933 2.97231C50.7802 3.15844 50.9074 3.43764 50.9818 3.59275C51.0532 3.74476 51.1462 3.95571 51.1928 4.05808C51.4254 4.59786 51.6643 5.12213 52.3002 6.47779C52.3716 6.62979 52.4802 6.87487 52.5391 7.02067C52.6012 7.16647 52.7966 7.59768 52.9734 7.98235C53.4667 9.03709 53.8079 9.78782 53.8358 9.87158C53.8482 9.91501 53.9072 10.0453 53.963 10.1663L54.0685 10.3834V13.8455L54.0716 17.3044L54.1957 17.4347L54.3198 17.5681H55.4645H56.6123L56.7209 17.4502L56.8263 17.3355L56.8294 13.8858V10.4393L56.9815 10.1167C57.2824 9.4776 57.7074 8.55315 57.7446 8.44768C57.788 8.32669 58.0269 7.79622 58.1479 7.54184C58.2782 7.27815 58.9886 5.71155 59.032 5.59366C59.0568 5.53472 59.1964 5.2214 59.3484 4.90187C59.4973 4.57925 59.6214 4.31246 59.6214 4.30625C59.6214 4.30005 59.7486 4.02706 59.9037 3.69512C60.0588 3.36629 60.2201 3.00954 60.2605 2.90406C60.3008 2.79859 60.4373 2.48837 60.5676 2.21228C60.6948 1.93618 60.8003 1.70662 60.8003 1.70041C60.8003 1.69421 60.884 1.51118 60.9864 1.29713L61.1756 0.909355L61.095 0.822495C61.0515 0.775961 60.9988 0.701509 60.9771 0.651875L60.9398 0.568115H59.6617C58.9575 0.568115 58.3805 0.580524 58.3805 0.592932C58.3805 0.608444 58.3464 0.636362 58.303 0.654976C58.2223 0.692202 57.9742 1.16994 57.7756 1.66939C57.7291 1.78728 57.6205 2.03235 57.5336 2.21228C57.4499 2.3922 57.3072 2.69932 57.2172 2.89476C57.1273 3.09019 56.9784 3.41282 56.8822 3.60826C56.6433 4.11392 56.4851 4.45516 56.4758 4.49238C56.4665 4.52961 56.4324 4.60717 56.1221 5.28344C55.9857 5.58125 55.784 6.01556 55.6754 6.24512C55.5638 6.47468 55.4676 6.68563 55.4583 6.71045C55.4428 6.75388 55.2287 6.33819 55.1698 6.14895C55.1574 6.10863 55.0209 5.80151 54.8658 5.46957C54.3291 4.30315 53.9382 3.43454 53.8513 3.22049C53.8048 3.0995 53.6776 2.8141 53.5721 2.58454C53.4667 2.35498 53.2712 1.92687 53.1378 1.63837C53.0044 1.34676 52.8524 1.01483 52.7997 0.900049C52.7346 0.763554 52.6756 0.676691 52.626 0.654976C52.5825 0.636362 52.5484 0.608444 52.5484 0.592932C52.5484 0.580524 51.9714 0.568115 51.2672 0.568115H49.986L49.8867 0.732531Z" fill="url(#paint4_linear_1_27777)"/>
<defs>
<linearGradient id="paint0_linear_1_27777" x1="5.69147" y1="17.568" x2="5.69147" y2="0.567963" gradientUnits="userSpaceOnUse">
<stop stop-color="#E8F2F9"/>
<stop offset="1" stop-color="#A7B1B7"/>
</linearGradient>
<linearGradient id="paint1_linear_1_27777" x1="18.3321" y1="17.5681" x2="18.3321" y2="0.568115" gradientUnits="userSpaceOnUse">
<stop stop-color="#E8F2F9"/>
<stop offset="1" stop-color="#A7B1B7"/>
</linearGradient>
<linearGradient id="paint2_linear_1_27777" x1="30.5546" y1="17.5681" x2="30.5546" y2="0.571217" gradientUnits="userSpaceOnUse">
<stop stop-color="#E8F2F9"/>
<stop offset="1" stop-color="#A7B1B7"/>
</linearGradient>
<linearGradient id="paint3_linear_1_27777" x1="42.8543" y1="17.5681" x2="42.8543" y2="0.568115" gradientUnits="userSpaceOnUse">
<stop stop-color="#E8F2F9"/>
<stop offset="1" stop-color="#A7B1B7"/>
</linearGradient>
<linearGradient id="paint4_linear_1_27777" x1="55.4815" y1="17.5681" x2="55.4815" y2="0.568115" gradientUnits="userSpaceOnUse">
<stop stop-color="#E8F2F9"/>
<stop offset="1" stop-color="#A7B1B7"/>
</linearGradient>
</defs>
</svg>
