<svg width="56" height="57" viewBox="0 0 56 57" fill="none" xmlns="http://www.w3.org/2000/svg">
<path d="M31.6167 5.68676V5.51175C31.6167 4.69509 31.8803 3.96476 32.4053 3.32309C32.9303 2.68142 33.6 2.36176 34.4167 2.36176C35.2333 2.36176 35.9637 2.62309 36.6053 3.14809C37.247 3.67309 37.597 4.37309 37.6553 5.24809C37.7137 6.12309 37.45 6.85342 36.8667 7.43676C36.2833 8.02009 35.5833 8.31176 34.7667 8.31176L34.2417 8.48676L34.4167 8.74809L34.2417 9.71175L33.8917 12.5118C34.0083 12.6284 34.0667 12.7451 34.0667 12.8618L33.7167 14.6118C33.6 14.8451 33.4833 15.0201 33.3667 15.1368L33.1917 15.8368C32.8862 17.074 32.536 18.2999 32.1417 19.5118V19.8618C32.025 20.4451 31.9387 20.9118 31.8803 21.2618C31.822 21.6118 31.6167 22.1951 31.2667 23.0118C31.0333 23.4784 31.0333 24.2368 31.2667 25.2868L31.4417 25.4618C31.4417 25.8118 31.5887 26.2201 31.8803 26.6868C32.172 27.1534 32.3167 27.5618 32.3167 27.9118C32.4333 30.2451 32.2583 32.2284 31.7917 33.8618L32.1417 34.9118C33.5417 35.6118 33.95 36.3701 33.3667 37.1868L34.2417 37.5368C35.6417 38.2368 36.6333 38.8481 37.2167 39.3731C37.8 39.8981 38.3833 40.4534 38.9667 41.0368C39.4333 41.1534 39.7833 41.3284 40.0167 41.5618L40.5417 41.7368C42.9917 43.3701 45.4417 45.3534 47.8917 47.6868L48.5917 48.2118V48.3868L48.4167 48.7368L48.9417 49.0868H49.1167C49.4667 49.3201 49.7 49.4368 49.8167 49.4368H49.9917C50.1083 49.4368 50.225 49.3784 50.3417 49.2618L50.6917 49.0868C50.925 48.8534 51.1583 48.6784 51.3917 48.5618H52.0917C52.2083 48.5618 52.2083 48.6201 52.0917 48.7368L51.3917 49.0868L50.5167 50.1368H51.7417L52.9667 50.3118C53.3167 50.1951 53.6083 50.0784 53.8417 49.9618L54.7167 49.4368C55.0667 49.3201 55.4167 49.4368 55.7667 49.7868H55.9417C56.0583 49.9034 56 50.0784 55.7667 50.3118L53.6667 52.2368C53.0833 52.7034 52.5583 52.9951 52.0917 53.1118L49.8167 54.6868C49.7 54.8034 49.5833 54.8034 49.4667 54.6868L48.9417 53.9868L48.5917 53.2868L48.153 52.6731L47.628 51.9731L47.1917 51.4481L46.8417 51.0118L46.1417 50.4868C45.9083 50.4868 45.675 50.4284 45.4417 50.3118L43.1667 48.5618C42.8167 48.5618 42.4083 48.3868 41.9417 48.0368C40.1917 46.5201 39.025 45.5868 38.4417 45.2368L37.3917 44.5368L35.2917 44.1868C34.5917 44.0701 33.6583 43.7201 32.4917 43.1368L31.0917 42.4368C30.1583 41.9701 29.5167 41.7368 29.1667 41.7368L28.4667 41.3868C28 41.2701 27.65 41.1534 27.4167 41.0368L27.0667 40.6868C26.8333 40.6868 26.6 40.7451 26.3667 40.8618L22.8667 42.6118L18.4917 44.5368C17.325 45.4701 16.2167 46.2284 15.1667 46.8118L13.2417 47.6868L10.2667 49.7868C10.0333 50.0201 9.8 50.0201 9.56667 49.7868L9.21667 50.1368C8.86667 50.2534 8.63333 50.3118 8.51667 50.3118L7.81667 50.6618V51.0118H7.46667L7.11667 51.5368C6.88333 52.0034 6.65 52.2648 6.41667 52.3231C6.18333 52.3814 6.03867 52.4701 5.98033 52.5868C5.93597 52.6824 5.87692 52.7706 5.80533 52.8481L5.45533 53.1981L4.93033 53.5481L4.14167 53.4618L3.09167 53.6368L2.39167 53.8118C1.80833 53.9284 1.34167 53.8398 0.991667 53.5481C0.641667 53.2564 0.35 52.8201 0.116667 52.2368C-0.116667 51.8868 0 51.5951 0.466667 51.3618L0.641667 51.1868C0.758333 51.0701 0.933333 51.0118 1.16667 51.0118H2.21667L3.61667 50.4868L4.31667 50.3118C4.31667 50.0784 4.375 49.9034 4.49167 49.7868C4.60833 49.6701 4.78333 49.6118 5.01667 49.6118V49.4368C4.90422 49.2204 4.84427 48.9806 4.84167 48.7368C4.725 48.5034 4.69467 48.3284 4.75533 48.2118C4.81367 48.0951 4.872 48.0368 4.93033 48.0368H5.01667L5.19167 48.5618C5.30833 49.1451 5.48333 49.3201 5.71667 49.0868L5.89167 48.7368C6.00833 48.5034 6.18333 48.3868 6.41667 48.3868L6.76667 48.7368L7.11667 48.3868L6.94167 48.2118C6.94167 48.0951 7 48.0368 7.11667 48.0368L7.81667 47.3368C8.4 46.6368 9.1 45.9951 9.91667 45.4118C11.55 44.1284 13.3 43.1368 15.1667 42.4368C15.75 41.8534 16.3917 41.5618 17.0917 41.5618C17.5583 40.7451 18.2583 39.8701 19.1917 38.9368C20.0083 38.3534 20.5917 37.9451 20.9417 37.7118C21.175 37.2451 21.4667 37.0118 21.8167 37.0118H21.9917L22.3417 36.6618C22.575 36.5451 22.75 36.4284 22.8667 36.3118V35.4368C22.8667 34.8534 22.925 34.3868 23.0417 34.0368C23.1583 33.6868 23.45 33.5118 23.9167 33.5118L24.6167 32.8118C24.3833 32.3451 24.2667 31.8201 24.2667 31.2368H24.0917C23.8583 30.8868 23.7417 30.5368 23.7417 30.1868C23.3917 29.6034 23.1583 29.1368 23.0417 28.7868H22.5167C22.4 29.1368 22.1083 29.3701 21.6417 29.4868L21.4667 29.8368C21 30.6534 20.5917 31.2648 20.2417 31.6731C19.8917 32.0814 19.25 32.5784 18.3167 33.1618C17.7333 33.7451 17.325 34.3868 17.0917 35.0868C16.975 35.4368 16.975 35.7868 17.0917 36.1368L16.9167 36.4868H17.0917C17.0917 36.7201 17.15 36.8368 17.2667 36.8368H17.4417C17.675 36.9534 17.7917 37.0981 17.7917 37.2731C17.7917 37.4481 17.6167 37.5064 17.2667 37.4481C16.9746 37.416 16.6997 37.2936 16.4803 37.0981C16.3053 36.9231 16.1583 36.8368 16.0417 36.8368L15.5167 37.3618C15.2833 37.7118 15.05 37.8564 14.8167 37.7981C14.5833 37.7398 14.525 37.6534 14.6417 37.5368L14.8167 37.3618C14.9333 37.1284 14.9333 37.0118 14.8167 37.0118L13.4167 37.3618C13.3 37.4784 13.1553 37.4784 12.9803 37.3618C12.8053 37.2451 12.8333 37.1284 13.0667 37.0118L13.9417 36.6618C13.9417 36.5451 13.8833 36.4868 13.7667 36.4868C13.3 36.7201 12.8333 36.7784 12.3667 36.6618L11.4917 36.4868L11.3167 36.3118C11.3167 36.1951 11.375 36.1368 11.4917 36.1368C11.9583 36.2534 12.5417 36.1951 13.2417 35.9618L14.4667 35.4368L15.8667 33.8618L16.0417 33.5118C16.5083 32.5784 17.0053 31.7314 17.5303 30.9731C17.9925 30.2839 18.5521 29.6654 19.1917 29.1368L19.3667 28.4368C19.6 27.9701 19.8333 27.5618 20.0667 27.2118C20.3 26.8618 20.5917 26.3951 20.9417 25.8118L21.4667 25.1118C21.9333 24.4118 22.4583 24.0618 23.0417 24.0618L23.5667 23.5368C23.6833 23.4201 23.7417 23.2451 23.7417 23.0118L24.0917 22.6618L23.9167 22.4868C23.2167 21.9034 22.8667 21.3784 22.8667 20.9118C22.75 20.0951 23.0137 19.3951 23.6553 18.8118C24.297 18.2284 24.9387 17.9648 25.5803 18.0231C26.222 18.0814 26.7167 18.2868 27.0667 18.6368L27.4167 18.9868C27.5333 18.9868 27.5917 19.0451 27.5917 19.1618L28.2917 19.5118V20.0368C28.525 20.2701 28.6417 20.4451 28.6417 20.5618C28.875 20.2118 29.225 19.8034 29.6917 19.3368L30.5667 16.5368C30.5667 16.0701 30.6833 15.6034 30.9167 15.1368L31.2667 14.6118V14.2618L31.7917 12.1618H32.1417L32.6667 10.0618C32.7839 9.66184 32.7839 9.23667 32.6667 8.83675L31.9667 7.08675L31.6167 5.68676Z" fill="url(#paint0_linear_1_27759)"/>
<defs>
<linearGradient id="paint0_linear_1_27759" x1="28" y1="2.36176" x2="28" y2="54.7743" gradientUnits="userSpaceOnUse">
<stop stop-color="#E8F2F9"/>
<stop offset="1" stop-color="#A7B1B7"/>
</linearGradient>
</defs>
</svg>
