<svg width="87" height="18" viewBox="0 0 87 18" fill="none" xmlns="http://www.w3.org/2000/svg">
<g clip-path="url(#clip0_1_27773)">
<path d="M23.2059 10.9946L22.4262 11.638L21.7597 10.9596V0.582716L19.0143 2.70731L19.5586 3.28367V10.8902L18.9663 11.4286L20.6639 13.3451L23.3323 11.1523L23.2065 10.9946H23.2059ZM10.0392 3.94246L9.12066 4.68366V10.4259L7.25104 11.8923L5.43835 13.3451L4.4896 12.63V14.5435C4.9825 14.385 5.44502 14.1442 5.85757 13.8313L5.95956 13.8764C5.6198 14.5067 5.14661 15.0766 4.4896 15.4282V16.3591L2.3152 17.0992V15.6108C1.76019 15.4009 1.32139 15.0196 1.00831 14.6739C-0.715442 12.7693 0.318096 10.0577 2.3152 9.48431V5.92474L0.588488 7.2678L0.46693 7.10652L2.3152 5.66917V3.84047H1.33444C0.792468 3.84047 0.669131 3.30205 0.570699 2.81345C0.472267 2.32544 0.57485 1.11045 0.57485 1.11045L0.705895 1.09385C0.681583 1.5196 0.915211 1.64887 1.051 1.67377C1.1862 1.69927 3.28055 1.56111 3.73595 1.52375C4.19194 1.48639 4.48723 1.84929 4.48723 2.12502C4.48723 2.40075 4.4896 3.0619 4.4896 3.0619V3.97803L6.4535 2.45115L7.64833 1.48462L10.0392 3.94246ZM2.3152 11.0729C1.42575 10.956 0.384508 11.061 0.348337 12.1764C0.309201 13.3931 1.1518 14.2956 2.3152 14.6135V11.0729ZM5.299 3.60328L4.4896 4.2336V9.70192L5.299 10.3441V3.60328ZM5.49883 3.4497V10.5018L6.94626 11.6498V4.1577L5.91924 3.12179L5.49705 3.45029L5.49883 3.4497ZM17.7714 11.5372L18.4083 10.9964L18.5364 11.1523L15.9647 13.3451L14.5736 12.0465V11.2158L12.0137 13.3451L10.6381 12.0465V5.4474L12.8119 4.46723L14.5024 3.70171L16.6667 5.36201L17.4388 4.74533L17.5615 4.90543L16.748 5.55473V10.7651L17.7714 11.5372ZM12.8119 10.7805L13.8365 11.5775L14.5736 10.9549V6.69144L12.8125 5.34838V10.7799L12.8119 10.7805ZM66.0708 11.2164L66.0684 5.55354L66.8814 4.90484L66.7586 4.74474L65.986 5.36201L63.8229 3.70112L62.1317 4.46604L61.4136 4.79217L61.4065 4.79514L59.9579 5.47527V12.0465L61.2126 13.2307L59.0062 15.1044L59.1337 15.2598C60.0101 15.2598 61.0502 16.0306 61.7635 17.0458L61.9325 17.1525C61.9408 17.1407 62.7496 15.8332 64.7562 15.414C65.8223 15.2301 67.1168 14.6763 67.1168 13.1903C67.1168 12.8144 66.9039 12.6282 66.6709 12.4236C66.3862 12.1746 66.0708 11.8977 66.0708 11.2164ZM62.1317 10.7805V5.36854L63.894 6.70271V8.16614L63.8911 10.9572L63.1587 11.5793L62.1317 10.7805ZM64.7004 15.2189C64.1311 15.3354 63.5849 15.5448 63.0834 15.8385L63.0639 15.8065C62.8694 15.4816 62.1673 14.3099 60.204 14.352L63.8905 11.2217V12.4017C63.8905 12.7397 63.9272 13.1411 64.5801 13.5538C65.1796 13.9333 65.4274 14.7902 64.7004 15.2189ZM74.2822 9.91421L74.4055 10.0731L70.3532 13.3451L68.1812 11.3023L67.504 11.8431L67.3807 11.683L68.0964 11.112V6.12219L70.2702 4.82538V9.48905L72.2198 7.93192L70.2702 4.82538L72.1232 3.70112L73.9388 6.74896L73.9359 6.75192L73.9679 6.79343L70.2702 9.74758V10.1212L71.956 11.7791L74.2822 9.91421ZM78.4217 11.638L79.202 10.9946L79.3277 11.1523L76.6594 13.3451L74.9617 11.4286L75.5541 10.8902V3.28367L75.0091 2.70731L77.7552 0.582123V10.9596L78.4217 11.638ZM86.5044 8.30549L84.9443 6.87407C86.6615 5.07027 86.3543 3.67088 86.3395 3.60802C86.3175 3.48333 86.2779 3.36236 86.2221 3.24869C86.2221 3.24869 86.0187 4.47612 85.0214 4.47612C84.5179 4.47612 83.8793 3.85114 83.772 3.74263L83.7489 3.71535L81.597 5.0762L80.0333 6.01843V8.10448L80.0357 8.10329L80.0351 8.10448L81.6527 9.68591C81.1659 10.1449 80.7775 10.5137 80.5415 10.739C80.1098 11.0343 79.7588 11.5134 79.7588 12.2813C79.7588 14.0288 81.5418 14.0999 81.5418 14.0999C80.0814 13.5455 80.7912 12.5013 81.5418 12.5013C82.2925 12.5013 82.844 13.3487 82.844 13.3487L84.4094 12.3086L86.5044 11.0468V8.30549ZM82.2344 7.23104V4.91136L82.2368 4.90958C82.4491 5.23393 83.2099 6.26628 84.3033 6.26628C84.8221 6.26628 85.3226 5.96447 85.7009 5.53101C85.437 6.00716 85.0297 6.54913 84.4023 7.1249C83.9997 7.49432 83.603 7.86195 83.2235 8.21417L82.2344 7.23104ZM82.0227 10.283C81.8603 10.283 81.5169 10.3168 81.1451 10.4431C81.6723 9.94326 82.4449 9.21391 83.3154 8.40333L84.3033 9.2655V12.0489C83.587 10.4384 82.4467 10.283 82.0227 10.283ZM49.3705 11.5383L50.0062 10.9964L50.1337 11.1523L47.562 13.3451L46.6494 12.477L45.754 9.15936H42.7596L42.4803 10.1733L42.5135 10.1727C43.7125 10.1727 44.698 11.2579 44.698 11.2579L43.3519 13.4163C43.0762 12.8755 42.5455 12.3216 41.7563 12.139C41.3382 12.0424 40.3035 12.0014 40.3035 13.016C40.3035 14.183 41.085 14.8275 42.7358 14.8275C44.5705 14.8275 45.0508 13.6107 45.1866 12.7942H45.3384C45.3384 12.7942 45.4208 15.8006 42.7602 15.8006C41.1016 15.8006 40.0995 14.381 40.0995 12.9781C40.0995 11.8603 40.5508 10.3162 42.2698 10.1834L44.1512 3.36016C43.8981 2.75119 43.3371 1.76212 42.3646 1.76212C41.1532 1.76212 40.8876 2.71502 40.8876 3.19888C40.8876 3.81615 41.3121 4.28934 42.1411 4.28934C43.0608 4.28934 43.3318 3.39633 43.3318 3.39633H43.4593C43.4593 3.39633 43.6354 4.97362 42.2597 5.07443C40.8425 5.17701 40.6794 3.87545 40.6794 3.35779C40.6794 2.60058 41.1004 1.267 43.094 1.267C44.7917 1.267 45.7795 2.03844 46.2195 2.75475L46.6613 1.55933L46.8481 1.63048L46.3464 2.98837C46.3737 3.04708 46.3986 3.10519 46.4176 3.16093L48.5178 10.8932L49.3717 11.5377L49.3705 11.5383ZM44.2698 3.67977L43.1604 7.7066H45.3621L44.3155 3.82742C44.3155 3.82742 44.3007 3.77168 44.2698 3.67977ZM36.489 10.9946L35.7086 11.638L35.0409 10.9584V5.65197L35.9227 4.94753L35.7993 4.78862L34.9514 5.46578L33.3599 3.84699L33.2176 3.70112L30.9673 5.49721L29.3449 3.84758L29.2026 3.70112L27.0104 5.45037L25.4337 3.84758L25.2914 3.70112L22.6741 5.79013L22.7974 5.95023L23.6068 5.3039L24.9084 6.62444V10.8908L24.3166 11.4286L26.2022 13.3451L27.8293 11.6907L27.1094 10.9584V5.63063L27.5186 5.3045L28.8255 6.63037V10.8908L28.2331 11.4286L30.1187 13.3451L31.7464 11.6907L31.026 10.9584V5.7083L31.533 5.3045L32.841 6.63096V10.8902L32.2481 11.4286L33.9463 13.3451L36.6147 11.1523L36.489 10.9946ZM58.2721 11.638L59.0525 10.9946L59.1782 11.1523L56.5098 13.3451L54.8122 11.4286L55.4051 10.8902V6.60724L54.119 5.30509L53.5895 5.72728V10.959L54.3093 11.6907L52.6822 13.3457L50.7966 11.4292L51.3884 10.8914V6.60724L50.1058 5.3045L49.2964 5.94964L49.1731 5.78954L51.7904 3.70112L51.9327 3.84758L53.5551 5.49721L55.8054 3.70053L55.9477 3.84758L57.5208 5.4474L58.3634 4.77379L58.4874 4.9333L57.605 5.63774V10.959L58.2721 11.638Z" fill="url(#paint0_linear_1_27773)"/>
</g>
<defs>
<linearGradient id="paint0_linear_1_27773" x1="43.3195" y1="0.582123" x2="43.3195" y2="17.1525" gradientUnits="userSpaceOnUse">
<stop stop-color="#E8F2F9"/>
<stop offset="1" stop-color="#A7B1B7"/>
</linearGradient>
<clipPath id="clip0_1_27773">
<rect width="86.395" height="16.5674" fill="white" transform="translate(0 0.567322)"/>
</clipPath>
</defs>
</svg>
