<svg width="84" height="43" viewBox="0 0 84 43" fill="none" xmlns="http://www.w3.org/2000/svg">
<g clip-path="url(#clip0_1_27811)">
<path d="M45.2499 0.827261C44.9771 0.881213 44.7043 1.85103 44.1601 2.39055C43.7782 2.76821 43.2872 2.76821 43.0158 3.19983C42.9067 3.36168 42.9612 3.68539 42.8521 3.95515C42.6339 4.54862 41.8701 4.60257 41.8701 5.19473C41.8701 5.84215 42.5248 6.00401 43.069 6.48826C43.5054 6.86592 43.56 7.13568 44.051 7.29753C44.4874 7.45939 45.1408 6.97382 45.7409 7.13568C46.2318 7.29753 46.7228 7.40544 46.8306 7.891C46.9384 8.37657 46.8306 9.07663 46.2305 8.96872C46.0123 8.96872 45.1408 8.64501 44.1042 8.75292C42.7962 8.91477 41.3232 9.29243 41.2141 10.7478C41.1596 11.5571 42.1416 12.473 43.0677 12.3111C43.7223 12.2032 43.395 11.3939 43.7769 11.0176C44.2679 10.532 46.9384 12.6888 49.4466 12.6888C50.4818 12.6888 51.3001 12.419 52.0639 11.611C52.1184 11.5571 52.2276 11.3952 52.3367 11.3952C52.4458 11.3952 52.6094 11.5031 52.664 11.5571C54.6812 13.1743 56.2074 16.3562 63.5683 16.4101C64.6035 16.4101 65.8037 16.8957 66.7844 17.7576C67.6572 18.5669 68.1469 19.8065 68.6379 21.046C69.4017 22.933 70.7096 24.7661 72.7268 26.761C72.836 26.8689 74.4713 28.1624 74.6349 28.2164C74.6349 28.2164 74.7986 28.5401 74.744 28.7019C74.6895 29.9415 74.5258 33.4471 77.1977 33.6089C77.8523 33.6629 77.6887 33.1773 77.6887 32.8536C77.6887 32.2601 77.5796 31.614 77.9069 31.0205C78.3433 30.1573 76.9795 29.781 76.9795 27.894C77.034 26.4925 75.8351 26.7084 75.235 25.6833C74.9077 25.0898 74.5804 24.7121 74.5804 23.9581C74.6895 19.6986 73.6529 16.8957 73.1633 16.2483C72.7814 15.7088 72.3995 15.5469 72.7814 15.2771C75.0168 13.8218 75.5078 12.473 75.5078 12.473C76.7067 9.72273 77.7432 7.18963 79.2149 6.11059C79.4876 5.89479 80.2501 5.30132 80.7411 5.08682C82.1036 4.4394 82.8128 4.06306 83.1947 3.68539C83.7948 3.09192 84.339 1.79839 83.7403 1.04307C82.9765 0.0719357 81.7231 0.827261 81.123 1.20492C77.034 3.63144 76.4339 7.83705 75.0168 10.2623C73.8725 12.2032 72.0722 13.6586 70.4369 13.7665C69.1834 13.8744 67.8741 13.6046 66.5661 13.0112C63.3501 11.6097 61.6043 9.83064 61.1692 9.50693C60.2963 8.8595 53.646 2.3366 48.1932 2.06684C48.1932 2.06684 47.5385 0.719358 47.3748 0.719358C46.993 0.665406 46.5565 1.52864 46.2851 1.63654C45.9577 1.79839 45.5213 0.773309 45.2499 0.827261ZM21.4254 39.6476C20.9194 39.6332 20.5126 39.2308 20.498 38.7304V21.9619H14.8828V40.4555C14.8828 41.3727 15.6466 42.1267 16.5181 42.1267H26.2222C27.1497 42.1267 27.8575 41.3714 27.8575 40.4555V21.9619H22.3515V38.7304C22.3369 39.2308 21.9301 39.6331 21.4241 39.6476H21.4254ZM40.0711 21.9632H31.6205C30.6385 21.9632 29.8215 22.7725 29.8215 23.7423V42.0741H35.3821V25.3056C35.3821 24.7661 35.8185 24.3884 36.3095 24.3884C36.8551 24.3884 37.237 24.7661 37.237 25.3056V42.128H42.7976V25.2517C42.7976 24.7661 43.234 24.3345 43.725 24.3345C44.216 24.3345 44.6524 24.7661 44.6524 25.2517V42.0741H50.213V23.7423C50.213 22.7185 49.3947 21.9632 48.414 21.9632H40.0725H40.0711ZM11.1757 37.0053H5.5606V42.0728H0V21.9619H11.2303C12.2123 21.9619 13.0293 22.7712 13.0293 23.795V35.2248C13.0293 36.2486 12.211 37.0039 11.1757 37.0039V37.0053ZM7.46868 25.3056C7.46868 24.7661 7.03224 24.3345 6.54125 24.3345H5.61382V34.5248H6.54125C7.03224 34.5248 7.46868 34.1471 7.46868 33.5537V25.3043V25.3056ZM59.1298 42.182V37.1332H57.2145V42.182H51.633V23.9178C51.633 22.8978 52.4544 22.1453 53.4388 22.1453H62.8507C63.8364 22.1453 64.6565 22.9516 64.6565 23.9178V42.182H59.1298ZM59.1298 34.6605V25.4754C59.1298 24.9916 58.6917 24.5616 58.1988 24.5616C57.706 24.5616 57.2679 24.9916 57.2679 25.4754V34.7143L59.1284 34.6605H59.1298Z" fill="url(#paint0_linear_1_27811)"/>
<path d="M69.7201 41.7275C71.1118 41.7275 72.2401 40.5993 72.2401 39.2075C72.2401 37.8157 71.1118 36.6875 69.7201 36.6875C68.3283 36.6875 67.2001 37.8157 67.2001 39.2075C67.2001 40.5993 68.3283 41.7275 69.7201 41.7275Z" stroke="url(#paint1_linear_1_27811)" stroke-width="0.42"/>
<path d="M70.718 40.4671L70.1838 39.4356C70.4156 39.3516 70.6206 39.1432 70.6206 38.8072C70.6206 38.4074 70.3316 38.0748 69.8444 38.0748H68.907V40.4671H69.374V39.5128H69.71L70.1771 40.4671H70.718ZM70.1535 38.8072C70.1535 38.992 70.0191 39.1231 69.8142 39.1231H69.374V38.4914H69.8142C70.0191 38.4914 70.1535 38.6224 70.1535 38.8072Z" fill="url(#paint2_linear_1_27811)"/>
</g>
<defs>
<linearGradient id="paint0_linear_1_27811" x1="42" y1="0.567322" x2="42" y2="42.182" gradientUnits="userSpaceOnUse">
<stop stop-color="#E8F2F9"/>
<stop offset="1" stop-color="#A7B1B7"/>
</linearGradient>
<linearGradient id="paint1_linear_1_27811" x1="69.7201" y1="36.6875" x2="69.7201" y2="41.7275" gradientUnits="userSpaceOnUse">
<stop stop-color="#E8F2F9"/>
<stop offset="1" stop-color="#A7B1B7"/>
</linearGradient>
<linearGradient id="paint2_linear_1_27811" x1="69.8125" y1="38.0748" x2="69.8125" y2="40.4671" gradientUnits="userSpaceOnUse">
<stop stop-color="#E8F2F9"/>
<stop offset="1" stop-color="#A7B1B7"/>
</linearGradient>
<clipPath id="clip0_1_27811">
<rect width="84" height="42" fill="white" transform="translate(0 0.567322)"/>
</clipPath>
</defs>
</svg>
