<svg width="79" height="30" viewBox="0 0 79 30" fill="none" xmlns="http://www.w3.org/2000/svg">
<path d="M42.1538 19.4181C42.6888 19.4181 42.8416 19.762 42.8416 20.297V26.3217C42.8416 26.9076 42.6888 27.2006 42.1538 27.2006V27.8884H45.4273V27.2006C44.8414 27.1496 44.6885 26.9586 44.6885 26.2198V20.1951C44.6885 19.6092 44.8796 19.3162 45.4273 19.3162V18.6284H42.1538V19.4181Z" fill="url(#paint0_linear_1_27786)"/>
<path d="M50.2284 23.4303C49.7444 22.8444 49.2477 22.4496 49.1075 22.2585L48.1268 21.2777C47.7829 20.9848 47.6428 20.6918 47.5918 20.4498C47.4899 20.2078 47.4899 19.711 47.7447 19.469C47.9994 19.227 48.2796 19.1251 48.6235 19.1761C48.9674 19.227 49.3623 19.52 49.5534 19.762C49.7444 20.055 49.9482 20.3989 50.0374 20.6409C50.0883 20.8829 50.1393 21.0357 50.1393 21.0867C50.1393 21.1376 50.1902 21.3287 50.1902 21.3796H50.9672V18.6411H50.3813C50.3813 18.6411 50.3303 18.794 50.2284 18.8322C50.1265 18.8831 50.0756 18.8322 50.0374 18.8322C49.9864 18.7812 49.5024 18.5902 48.9165 18.4883C48.3306 18.3864 47.5918 18.4373 47.1078 18.6793C46.8148 18.8322 46.6238 18.9723 46.369 19.1633C46.178 19.3544 45.9742 19.6474 45.885 19.9021C45.694 20.3861 45.643 20.9848 45.8341 21.5197C46.0251 22.0547 46.42 22.5515 46.713 22.8954L47.4008 23.5832C47.6937 23.8761 48.0376 24.22 48.1395 24.3601C48.3815 24.6021 48.6235 24.8442 48.9674 25.239C49.3113 25.6848 49.4132 26.016 49.3623 26.4108C49.3113 26.8057 49.1203 26.9967 48.9165 27.1496C48.6745 27.3024 48.3306 27.3406 47.9867 27.2005C47.6428 27.0604 47.4008 26.8057 47.2989 26.6146C47.146 26.4236 47.0059 26.0287 46.904 25.7358C46.8021 25.4428 46.713 25.0479 46.713 25.0479H46.0251V27.8374H46.5092C46.5601 27.7865 46.662 27.6463 46.7512 27.5954C46.904 27.4935 47.0441 27.5444 47.197 27.5954C47.3498 27.6463 47.4899 27.7482 47.7319 27.7865C48.0758 27.8883 48.4197 27.9393 48.8528 27.9393C49.3368 27.8883 49.4897 27.8374 49.7826 27.6973C50.1265 27.5444 50.5214 27.2515 50.8143 26.7165C51.1073 26.1306 51.1582 25.4428 51.0563 24.9078C50.9544 24.3601 50.6615 23.9653 50.2284 23.4303Z" fill="url(#paint1_linear_1_27786)"/>
<path d="M33.8741 27.239C33.1863 27.239 32.7914 26.755 32.7914 25.9653V23.4178C33.7722 23.4178 34.651 23.7617 34.7529 24.6406H35.3898V21.6601H34.7529C34.6001 22.4371 33.7722 22.7428 32.7914 22.7428V19.4183H33.2754C34.1543 19.4183 34.9822 19.6094 35.5299 20.6921H36.1158V18.7305H30.002V19.4183C30.5369 19.4183 30.7789 19.7113 30.7789 20.2972V26.22C30.7789 26.8569 30.6261 27.1498 30.0402 27.2008V27.8886H36.0139L36.2559 25.5449H35.67C35.3006 26.6531 34.5619 27.239 33.8741 27.239Z" fill="url(#paint2_linear_1_27786)"/>
<path d="M26.9324 19.418C27.6202 19.5199 27.7603 19.902 27.7603 20.8827V24.36H27.7094L24.2321 18.7301H21.5955V19.418C21.9394 19.5199 22.5763 19.7619 22.8183 20.2968V25.1879C22.8183 26.6018 22.6654 26.9457 21.9904 27.2386V27.9264H24.4869V27.2386C23.7481 27.0858 23.608 26.6018 23.608 25.7738V20.9337L23.659 20.9846L27.9132 27.9774H28.55V20.6789C28.55 20.144 28.6519 19.7491 28.843 19.5581C29.0341 19.367 29.5818 19.367 29.5818 19.367V18.6792H26.9834V19.418H26.9324Z" fill="url(#paint3_linear_1_27786)"/>
<path d="M14.2076 18.7305H7.01111V20.743H7.59702C7.83903 19.5202 8.97264 19.4183 9.6095 19.4183V26.3729C9.6095 26.9588 9.5076 27.2517 8.87074 27.2517V27.9395H12.399V27.2517C11.6602 27.2008 11.6602 26.8569 11.6602 26.271V19.4183C12.348 19.4183 13.3288 19.6094 13.5708 20.743H14.2076V18.7305Z" fill="url(#paint4_linear_1_27786)"/>
<path d="M5.78812 23.4303C5.3041 22.8444 4.80735 22.3986 4.66724 22.2585L3.68648 21.2777C3.34257 20.9848 3.20246 20.6918 3.15151 20.4498C3.04961 20.2078 3.04961 19.711 3.30436 19.469C3.5591 19.227 3.83932 19.1251 4.18323 19.1761C4.52713 19.227 4.92199 19.52 5.11305 19.762C5.3041 20.004 5.5079 20.3989 5.59706 20.6409C5.64801 20.8829 5.69896 21.0357 5.69896 21.0867C5.69896 21.1376 5.74991 21.3287 5.74991 21.3796H6.52688V18.6411H5.94097C5.94097 18.6411 5.89002 18.794 5.78812 18.8322C5.68622 18.8831 5.63527 18.8322 5.59706 18.8322C5.54611 18.7812 5.0621 18.5902 4.47618 18.4883C3.89027 18.3864 3.15151 18.4373 2.6675 18.6793C2.37454 18.8322 2.18348 18.9723 1.92874 19.1633C1.73768 19.3544 1.53388 19.6474 1.44472 19.9021C1.25367 20.3861 1.20272 20.9848 1.39377 21.5197C1.58483 22.0547 1.92874 22.5515 2.27264 22.8954L2.96045 23.5832C3.25341 23.8761 3.59732 24.22 3.69921 24.3601C3.94122 24.6021 4.18323 24.8442 4.52713 25.239C4.87104 25.6848 4.97294 26.016 4.92199 26.4108C4.87104 26.8057 4.67998 26.9967 4.47618 27.1496C4.23418 27.3024 3.89027 27.3406 3.54637 27.2005C3.20246 27.0477 2.96045 26.8057 2.85856 26.6146C2.70571 26.4236 2.5656 26.0287 2.4637 25.7358C2.3618 25.4301 2.25991 25.0479 2.25991 25.0479H1.5721V27.8374H2.05611C2.10706 27.7865 2.20896 27.6463 2.29812 27.5954C2.45096 27.4935 2.59107 27.5444 2.74392 27.5954C2.89677 27.6463 3.03688 27.7482 3.27888 27.7865C3.62279 27.8883 3.9667 27.9393 4.39976 27.9393C4.88378 27.8883 5.03662 27.8374 5.32958 27.6973C5.67348 27.5444 6.06834 27.2515 6.36129 26.7165C6.65425 26.1306 6.7052 25.4428 6.6033 24.9078C6.51414 24.3601 6.22118 23.9653 5.78812 23.4303Z" fill="url(#paint5_linear_1_27786)"/>
<path d="M17.9777 18.5777C16.946 18.5777 14.2075 19.2146 14.2075 23.2777C14.2075 27.29 16.8059 28.0797 17.9777 28.0797C19.1496 28.0797 21.748 27.3027 21.748 23.2777C21.7352 19.2146 18.9458 18.5777 17.9777 18.5777ZM19.0986 26.3601C18.8566 26.8951 18.6146 27.3919 17.9777 27.3919C17.3409 27.3919 16.8951 26.704 16.755 26.22C16.6531 25.736 16.462 24.6534 16.513 23.2395C16.513 21.8639 16.6658 20.8449 16.755 20.4501C16.8569 20.0552 17.2008 19.2273 17.9777 19.2273C18.5127 19.2273 18.9585 19.6731 19.1496 20.31C19.3406 20.9468 19.4425 22.3607 19.4425 23.2523C19.4425 24.1184 19.3406 25.8252 19.0986 26.3601Z" fill="url(#paint6_linear_1_27786)"/>
<path d="M41.3127 11.0879L39.4021 1.84064L37.5425 11.0879L28.2953 12.9475L37.5425 14.8071L39.4021 24.0544L41.2618 14.8071L50.509 12.9475L41.3127 11.0879ZM29.4798 12.9475L37.6571 11.2789L39.2748 12.9475H29.4798ZM39.4149 22.8825L37.7463 14.7052L39.4149 13.0876V22.8825ZM39.4149 3.01246L41.0835 11.1898L39.4149 12.8074V3.01246ZM41.2236 14.6161L39.6059 12.9475H49.3881L41.2236 14.6161Z" fill="url(#paint7_linear_1_27786)"/>
<path d="M68.7229 19.4186C69.4107 19.5205 69.5508 19.9535 69.5508 20.9343V24.4116H69.5126L66.0863 18.7817H63.7426V19.4695C64.0865 19.5714 64.6215 20.2465 64.6215 20.2465V25.5834C64.5705 26.2202 64.5705 26.8571 64.2776 27.1501C64.1757 27.252 64.0865 27.252 63.9337 27.252C63.5898 27.252 63.3987 26.959 63.0548 25.6343L61.2971 18.7817H59.3865L59.5776 19.5205L57.909 25.2904C57.5141 26.7043 57.3231 27.1501 56.8773 27.3921V27.927H59.1317V27.3921C58.6859 27.2392 58.4949 26.8571 58.4949 26.4623C58.4949 26.2712 58.5968 25.9273 58.6477 25.6853L58.8897 24.8574H60.9022L61.1442 25.8891C61.2461 26.3349 61.2971 26.5259 61.2971 26.666C61.2971 27.01 61.106 27.3539 60.7621 27.443V27.978H66.2901V27.3921C65.5513 27.2392 65.3603 26.6533 65.3603 25.8254V20.9343L65.4112 20.9852L69.6654 27.978H70.3023V20.6795C70.3023 19.9026 70.3532 19.5077 70.8882 19.4058V18.718H68.6847V19.4058H68.7229V19.4186ZM59.1827 23.9658L59.9597 20.7814H60.0106L60.7494 23.9658H59.1827Z" fill="url(#paint8_linear_1_27786)"/>
<path d="M73.9072 18.7305H71.2706V19.4183C71.6145 19.5202 71.7164 19.8641 71.7164 20.2463V26.22C71.7164 26.8569 71.7164 27.1498 71.2706 27.2008V27.8886H74.162C77.0533 27.8886 77.6902 25.494 77.6902 23.2905C77.6775 20.0043 76.4037 18.7305 73.9072 18.7305ZM74.3021 27.239C73.8563 27.239 73.6143 27.0479 73.6143 26.2073V19.4056H73.8563C74.7861 19.4056 75.5631 20.1444 75.5631 23.2268C75.5758 25.5832 75.3338 27.239 74.3021 27.239Z" fill="url(#paint9_linear_1_27786)"/>
<path d="M54.4318 27.239C53.9477 27.239 53.986 26.755 53.986 25.8252V20.3482C53.986 19.7622 54.1388 19.4693 54.7247 19.4183V18.7305H51.5404V19.4183C52.0244 19.4693 52.1773 19.7113 52.1773 20.3482V26.3219C52.1773 26.9078 52.0754 27.2008 51.5404 27.2517V27.9395H56.5334L56.8264 25.6341H56.2914C55.8583 26.6531 55.1196 27.239 54.4318 27.239Z" fill="url(#paint10_linear_1_27786)"/>
<defs>
<linearGradient id="paint0_linear_1_27786" x1="43.7905" y1="18.6284" x2="43.7905" y2="27.8884" gradientUnits="userSpaceOnUse">
<stop stop-color="#E8F2F9"/>
<stop offset="1" stop-color="#A7B1B7"/>
</linearGradient>
<linearGradient id="paint1_linear_1_27786" x1="48.4091" y1="18.4387" x2="48.4091" y2="27.9393" gradientUnits="userSpaceOnUse">
<stop stop-color="#E8F2F9"/>
<stop offset="1" stop-color="#A7B1B7"/>
</linearGradient>
<linearGradient id="paint2_linear_1_27786" x1="33.1289" y1="18.7305" x2="33.1289" y2="27.8886" gradientUnits="userSpaceOnUse">
<stop stop-color="#E8F2F9"/>
<stop offset="1" stop-color="#A7B1B7"/>
</linearGradient>
<linearGradient id="paint3_linear_1_27786" x1="25.5886" y1="18.6792" x2="25.5886" y2="27.9774" gradientUnits="userSpaceOnUse">
<stop stop-color="#E8F2F9"/>
<stop offset="1" stop-color="#A7B1B7"/>
</linearGradient>
<linearGradient id="paint4_linear_1_27786" x1="10.6094" y1="18.7305" x2="10.6094" y2="27.9395" gradientUnits="userSpaceOnUse">
<stop stop-color="#E8F2F9"/>
<stop offset="1" stop-color="#A7B1B7"/>
</linearGradient>
<linearGradient id="paint5_linear_1_27786" x1="3.9624" y1="18.4387" x2="3.9624" y2="27.9393" gradientUnits="userSpaceOnUse">
<stop stop-color="#E8F2F9"/>
<stop offset="1" stop-color="#A7B1B7"/>
</linearGradient>
<linearGradient id="paint6_linear_1_27786" x1="17.9777" y1="18.5777" x2="17.9777" y2="28.0797" gradientUnits="userSpaceOnUse">
<stop stop-color="#E8F2F9"/>
<stop offset="1" stop-color="#A7B1B7"/>
</linearGradient>
<linearGradient id="paint7_linear_1_27786" x1="39.4021" y1="1.84064" x2="39.4021" y2="24.0544" gradientUnits="userSpaceOnUse">
<stop stop-color="#E8F2F9"/>
<stop offset="1" stop-color="#A7B1B7"/>
</linearGradient>
<linearGradient id="paint8_linear_1_27786" x1="63.8827" y1="18.718" x2="63.8827" y2="27.978" gradientUnits="userSpaceOnUse">
<stop stop-color="#E8F2F9"/>
<stop offset="1" stop-color="#A7B1B7"/>
</linearGradient>
<linearGradient id="paint9_linear_1_27786" x1="74.4804" y1="18.7305" x2="74.4804" y2="27.8886" gradientUnits="userSpaceOnUse">
<stop stop-color="#E8F2F9"/>
<stop offset="1" stop-color="#A7B1B7"/>
</linearGradient>
<linearGradient id="paint10_linear_1_27786" x1="54.1834" y1="18.7305" x2="54.1834" y2="27.9395" gradientUnits="userSpaceOnUse">
<stop stop-color="#E8F2F9"/>
<stop offset="1" stop-color="#A7B1B7"/>
</linearGradient>
</defs>
</svg>
