<svg width="69" height="25" viewBox="0 0 69 25" fill="none" xmlns="http://www.w3.org/2000/svg">
<g clip-path="url(#clip0_1_27816)">
<path d="M69.0005 24.3731H0V0.567322H69.0005V24.3731Z" fill="url(#paint0_linear_1_27816)"/>
<path d="M10.3336 6.37276C9.93098 5.67777 9.34623 5.24041 8.44874 5.24041C7.58958 5.24041 6.65614 5.89945 6.50995 6.79455C6.14448 9.11677 11.7763 8.14858 11.0454 12.7739C10.6068 15.5358 8.57695 17.4926 5.76104 17.4926C3.85821 17.4926 2.63359 16.395 1.9386 14.8037L3.95047 13.1034C4.15178 14.1638 4.95581 15.1153 6.10734 15.1153C7.20494 15.1153 8.04612 14.183 8.21148 13.1226C8.43076 11.6966 7.18697 11.2928 6.16246 10.8722C4.51725 10.1413 3.34655 9.24499 3.69405 7.1061C4.05952 4.81982 6.05342 2.97211 8.37564 2.97211C9.60026 2.97211 11.1915 3.57603 11.8865 4.50947L10.3336 6.37276ZM14.9373 8.14738L14.1692 13.0111C14.0051 14.0356 13.9679 15.2602 15.2668 15.2602C16.5645 15.2602 16.93 14.0356 17.0954 13.0111L17.8623 8.14618H20.4229L19.5818 13.4305C19.1624 16.0463 17.589 17.4183 14.9193 17.4183C12.2496 17.4183 11.1149 16.0463 11.5354 13.4317L12.3766 8.14738H14.9373ZM27.1895 12.6265C27.3716 11.4198 26.7857 10.1221 25.47 10.1221C24.1519 10.1221 23.1286 11.4198 22.9465 12.6265C22.7631 13.8343 23.3479 15.15 24.6648 15.15C25.9816 15.15 27.005 13.8343 27.1883 12.6265H27.1895ZM23.7864 8.96939C24.4814 8.2744 25.488 7.85501 26.4382 7.85501C28.9809 7.85501 30.1696 10.2312 29.7849 12.5905C29.4015 15.041 27.5178 17.4183 24.8661 17.4183C23.9518 17.4183 23.0567 17.0157 22.6529 16.2848H22.6169L21.7386 21.9166H19.1791L21.354 8.14738H23.9135L23.7864 8.96939ZM33.5115 9.07963H33.5474C34.1873 8.29357 35.0105 7.85381 35.9619 7.85381C36.3274 7.85381 36.6929 7.94608 36.9852 8.07429L36.3094 10.4504C36.0216 10.2287 35.6661 10.1128 35.3029 10.1221C33.5295 10.1221 33.0909 11.6942 32.8704 13.0842L32.2306 17.1259H29.6711L31.097 8.14738H33.6577L33.5115 9.07963ZM42.3247 11.457C42.3427 10.5427 41.9041 9.6464 40.9167 9.6464C39.8922 9.6464 39.1793 10.5235 38.9049 11.4558L42.3247 11.457ZM38.5765 13.0471C38.4112 14.1818 38.6305 15.4616 39.9665 15.4616C40.8065 15.4616 41.4284 14.9499 41.8861 14.2357L44.1904 14.6192C43.2761 16.4118 41.5386 17.4183 39.655 17.4183C36.875 17.4183 35.5042 15.4436 35.9248 12.7187C36.3634 9.9939 38.1368 7.85381 41.0449 7.85381C43.9891 7.85381 44.9585 10.0298 44.5379 12.7367L44.4827 13.0483H38.5753M48.1758 8.95141H48.2117C48.5058 8.61265 48.8681 8.33977 49.2748 8.15063C49.6816 7.96149 50.1237 7.86034 50.5723 7.85381C51.6867 7.85381 52.4919 8.31154 52.9305 9.26176C53.6255 8.38464 54.7219 7.85381 55.7644 7.85381C58.0506 7.85381 58.343 9.57331 58.0327 11.5301L57.1543 17.1259H54.5948L55.3438 12.4072C55.472 11.5301 55.8015 9.90283 54.5397 9.90283C53.1497 9.90283 52.8574 11.7853 52.7112 12.7187L52.0162 17.1259H49.4555L50.1685 12.5726C50.3159 11.6942 50.7173 9.90283 49.3824 9.90283C47.9565 9.90283 47.7192 11.7673 47.5731 12.7187L46.8781 17.1259H44.3174L45.7433 8.14738H48.304L48.1758 8.95141ZM64.8699 11.457C64.8891 10.5427 64.4505 9.6464 63.462 9.6464C62.4387 9.6464 61.7245 10.5235 61.4513 11.4558L64.8699 11.457ZM61.1218 13.0471C60.9576 14.1818 61.1769 15.4616 62.5117 15.4616C63.3529 15.4616 63.9736 14.9499 64.4314 14.2357L66.7356 14.6192C65.8213 16.4118 64.0839 17.4183 62.2002 17.4183C59.4202 17.4183 58.0494 15.4436 58.47 12.7187C58.9086 9.9939 60.6832 7.85381 63.5902 7.85381C66.5343 7.85381 67.5037 10.0298 67.0831 12.7367L67.028 13.0483H61.1218" fill="#151920"/>
</g>
<defs>
<linearGradient id="paint0_linear_1_27816" x1="34.5002" y1="0.567322" x2="34.5002" y2="24.3731" gradientUnits="userSpaceOnUse">
<stop stop-color="#E8F2F9"/>
<stop offset="1" stop-color="#A7B1B7"/>
</linearGradient>
<clipPath id="clip0_1_27816">
<rect width="69.0005" height="23.8058" fill="white" transform="translate(0 0.567322)"/>
</clipPath>
</defs>
</svg>
