<svg width="38" height="38" viewBox="0 0 38 38" fill="none" xmlns="http://www.w3.org/2000/svg">
<path d="M19.0834 37.8539C29.4964 37.8539 37.9373 29.413 37.9373 19C37.9373 8.58698 29.4964 0.146088 19.0834 0.146088C8.67039 0.146088 0.229492 8.58698 0.229492 19C0.229492 29.413 8.67039 37.8539 19.0834 37.8539Z" fill="url(#paint0_linear_1_27733)"/>
<path d="M9.9168 19.2928C11.6764 18.3306 13.6414 17.5272 15.4774 16.7208C18.6331 15.3878 21.8121 14.1106 25.013 12.8898C25.635 12.6845 26.7546 12.4822 26.8655 13.3994C26.8055 14.6959 26.5582 15.9864 26.3874 17.2754C25.9572 20.1112 25.4596 22.938 24.974 25.7632C24.8076 26.706 23.6176 27.1931 22.8576 26.5906C21.0291 25.3646 19.187 24.152 17.3824 22.899C16.7919 22.3025 17.3405 21.4466 17.8681 21.021C19.3729 19.5491 20.9706 18.2991 22.3975 16.7493C22.7827 15.8275 21.6451 16.6054 21.2704 16.8437C19.208 18.2526 17.1981 19.7485 15.0248 20.9865C13.9157 21.592 12.6207 21.0749 11.5115 20.7362C10.5163 20.327 9.05797 19.9163 9.9168 19.2928Z" fill="#13CD90"/>
<defs>
<linearGradient id="paint0_linear_1_27733" x1="19.0834" y1="0.146088" x2="19.0834" y2="37.8539" gradientUnits="userSpaceOnUse">
<stop stop-color="#161B24"/>
<stop offset="1" stop-color="#0E1117"/>
</linearGradient>
</defs>
</svg>
