<svg width="90" height="42" viewBox="0 0 90 42" fill="none" xmlns="http://www.w3.org/2000/svg">
<path fill-rule="evenodd" clip-rule="evenodd" d="M37.1661 19.225L26.855 19.5922L36.6456 20.1362L37.1661 19.225ZM35.9327 21.3917L25.5972 21.7594L35.4241 22.3054L35.9327 21.3917ZM34.6993 23.5766L24.3767 23.939L34.1917 24.4845L34.6993 23.5766ZM33.4913 25.7505L23.1558 26.1187L32.9592 26.6633L33.4913 25.7505ZM46.1259 8.28826L32.9655 8.7566L46.1633 9.49003L46.1259 8.28826ZM46.0425 6.13783L34.22 6.55249L46.0799 7.2327L46.0425 6.13783ZM45.9582 4.06362L35.4246 4.41021L46.009 4.99791L45.9582 4.06362ZM45.8872 1.93429L36.6542 2.243L45.9237 2.79043L45.8872 1.93429ZM45.8273 0.212891H37.797L45.8393 0.639525L45.8273 0.212891ZM32.246 27.9235L21.9353 28.2969H32.0355L32.246 27.9235Z" fill="url(#paint0_linear_1_2780)"/>
<path fill-rule="evenodd" clip-rule="evenodd" d="M67.1886 0.282227H52.3292L51.9079 1.02812L59.3438 1.42263C59.431 1.42263 59.431 1.54631 59.3064 1.54631L51.4745 1.80804L50.719 3.13013L58.1041 3.56635C58.2034 3.57881 58.1789 3.71496 58.0921 3.71496L50.2473 3.97285L49.5173 5.23885L56.8904 5.64823C57.0514 5.6607 57.0514 5.79731 56.8904 5.79731L49.0585 6.07199L48.315 7.39599L55.6637 7.81736C55.8248 7.82982 55.8128 7.97842 55.6637 7.97842L47.8318 8.25741L47.0754 9.56512L54.436 9.97401C54.5472 9.98648 54.5607 10.1231 54.4116 10.1231L31.8446 10.8791L53.2592 12.0688C53.3949 12.0688 53.3829 12.2424 53.2338 12.2424L30.6303 13.0482L52.045 14.2375C52.1442 14.2375 52.1686 14.3986 52.0196 14.3986L29.3787 15.2163L50.7933 16.4061C50.8806 16.4186 50.9664 16.5797 50.7814 16.5921L28.1765 17.3965L49.5906 18.5858C49.6525 18.5983 49.7143 18.7593 49.5662 18.7593L38.1894 19.1649L38.2268 20.1917L48.3639 20.7549C48.4377 20.7674 48.4751 20.916 48.3385 20.916L38.2642 21.2741L38.3136 22.4226L47.1128 22.9116C47.1991 22.924 47.2365 23.0976 47.0874 23.0976L38.3629 23.4039L38.4008 24.6641L45.8986 25.0807C45.9848 25.0927 46.0098 25.2538 45.8612 25.2538L38.4382 25.5188L38.4876 26.9052L44.6838 27.2494C44.7711 27.2618 44.7711 27.4109 44.6469 27.4109L38.5125 27.6328L38.5374 28.2287H58.5394C63.8431 28.2287 68.6012 24.3621 69.4938 21.2885C70.3869 18.2153 70.3869 15.4393 66.1234 14.0515C68.5035 13.506 72.6418 10.822 73.4601 7.11125C74.2021 3.73988 72.9635 0.29469 67.1886 0.282227ZM57.1277 21.8057H50.9813L54.4509 15.6588H59.0116C63.7208 15.6588 61.44 21.8057 57.1277 21.8057ZM65.0832 8.61885C64.8847 9.36235 63.3968 11.2463 61.5143 11.2463H56.9537L59.8778 6.09116H62.208C65.1815 6.19039 65.2807 7.87584 65.0832 8.61885ZM89.7038 37.1358C89.7038 34.7538 87.7236 32.7587 85.3416 32.7587C82.8978 32.7587 80.9027 34.7854 80.9027 37.2753C80.9002 37.8609 81.0138 38.4413 81.2368 38.9829C81.4598 39.5244 81.7878 40.0165 82.202 40.4306C82.6161 40.8447 83.1082 41.1727 83.6498 41.3956C84.1914 41.6186 84.7718 41.7321 85.3574 41.7295C87.1661 41.7295 88.8832 40.4923 89.3937 38.8064H87.1354C86.6867 39.5177 86.1 39.8423 85.2946 39.8423C84.2741 39.8423 83.3623 39.1462 83.068 38.1563H89.5945C89.6727 37.6774 89.7038 37.445 89.7038 37.1358ZM83.0066 36.5394C83.3005 35.3794 84.2285 34.6368 85.3728 34.6368C86.518 34.6368 87.4149 35.364 87.6929 36.5394H83.0066ZM60.383 33.1714V33.866C59.734 33.17 58.7935 32.774 57.7878 32.774C55.5606 32.774 53.6619 34.6761 53.6619 37.1511C53.6619 39.4861 55.3416 41.5804 57.8319 41.5804C58.9301 41.5804 59.7651 41.3268 60.5537 40.43V41.5282H62.4414V33.1714H60.383ZM58.0778 39.8092C57.3899 39.8092 56.7302 39.5359 56.2438 39.0495C55.7574 38.5631 55.4842 37.9034 55.4842 37.2156C55.4842 36.5277 55.7574 35.868 56.2438 35.3816C56.7302 34.8952 57.3899 34.622 58.0778 34.622C58.7656 34.622 59.4253 34.8952 59.9117 35.3816C60.3981 35.868 60.6714 36.5277 60.6714 37.2156C60.6714 37.9034 60.3981 38.5631 59.9117 39.0495C59.4253 39.5359 58.7656 39.8092 58.0778 39.8092ZM4.13489 32.7582C3.2845 32.7582 2.63496 33.0521 1.92311 33.7793V32.9595H0.0205078V41.5282H2.07794V37.491C2.07794 36.3932 2.17046 34.645 3.68621 34.645C5.10896 34.645 5.2638 36.2844 5.2638 37.3361V41.5277H7.32075V36.9339C7.32075 35.7274 7.22823 35.1555 6.90322 34.4748C6.42386 33.4542 5.29495 32.7582 4.13489 32.7582ZM16.9167 37.1358C16.9167 34.7538 14.9369 32.7587 12.5549 32.7587C10.1111 32.7587 8.11601 34.7854 8.11601 37.2753C8.1136 37.8609 8.22717 38.4412 8.45017 38.9827C8.67316 39.5242 9.00117 40.0162 9.41526 40.4303C9.82936 40.8444 10.3213 41.1724 10.8629 41.3954C11.4044 41.6184 11.9847 41.7319 12.5703 41.7295C14.3799 41.7295 16.0965 40.4923 16.607 38.8064H14.3492C13.9005 39.5177 13.3128 39.8423 12.5084 39.8423C11.4879 39.8423 10.5752 39.1462 10.2813 38.1563H16.8078C16.886 37.6774 16.9167 37.445 16.9167 37.1358ZM10.2199 36.5394C10.5138 35.3794 11.4418 34.6368 12.5866 34.6368C13.7313 34.6368 14.6282 35.364 14.9067 36.5394H10.2199ZM50.7622 41.521H52.8191V30.091H50.7622V41.521ZM67.8683 32.7582C67.0174 32.7582 66.3674 33.0521 65.656 33.7793V32.9595H63.7534V41.5282H65.8114V37.491C65.8114 36.3932 65.9039 34.645 67.4196 34.645C68.8419 34.645 68.9972 36.2844 68.9972 37.3361V41.5277H71.0542V36.9339C71.0542 35.7274 70.9616 35.1555 70.6366 34.4748C70.1573 33.4542 69.0284 32.7582 67.8683 32.7582ZM76.1891 34.6455C77.132 34.6455 77.6732 34.9551 78.1842 35.8209H80.5034C79.8697 33.9806 78.2461 32.7582 76.2658 32.7582C73.7602 32.7582 71.7492 34.7533 71.7492 37.2129C71.7492 39.6874 73.7755 41.729 76.2658 41.729C76.901 41.7257 77.5285 41.5907 78.1088 41.3324C78.6891 41.0741 79.2096 40.6983 79.6372 40.2286C80.0705 39.7493 80.2254 39.4707 80.5034 38.7134H78.1842C77.7039 39.4554 77.086 39.8418 76.3128 39.8418C74.8737 39.8418 73.8072 38.7282 73.8072 37.2431C73.8072 35.7437 74.8277 34.6455 76.1891 34.6455ZM24.7792 38.1875L23.3224 32.96H21.6672L20.1946 38.1875L18.453 32.96H16.6382L19.499 41.5282H20.8168L22.4874 35.9762L24.111 41.5282H25.4939L28.2373 32.96H26.5365L24.7792 38.1875ZM35.8003 32.7673C34.795 32.7673 33.8545 33.1633 33.205 33.8588V30.0915H31.1476V41.521H33.0343V40.4232C33.8234 41.3201 34.6584 41.5732 35.7566 41.5732C38.2469 41.5732 39.9266 39.4794 39.9266 37.1439C39.9271 34.6694 38.0279 32.7673 35.8003 32.7673ZM35.5103 39.8092C34.8224 39.8092 34.1627 39.5359 33.6763 39.0495C33.1899 38.5631 32.9167 37.9034 32.9167 37.2156C32.9167 36.5277 33.1899 35.868 33.6763 35.3816C34.1627 34.8952 34.8224 34.622 35.5103 34.622C36.1981 34.622 36.8578 34.8952 37.3442 35.3816C37.8306 35.868 38.1039 36.5277 38.1039 37.2156C38.1039 37.9034 37.8306 38.5631 37.3442 39.0495C36.8578 39.5359 36.1981 39.8092 35.5103 39.8092ZM47.3304 33.1714V33.866C46.6809 33.17 45.7408 32.774 44.7351 32.774C42.508 32.774 40.6083 34.6761 40.6083 37.1511C40.6083 39.4861 42.2885 41.5804 44.7783 41.5804C45.8765 41.5804 46.7116 41.3268 47.5006 40.43V41.5282H49.3874V33.1714H47.3304ZM45.0256 39.8092C44.3378 39.8092 43.6781 39.5359 43.1917 39.0495C42.7053 38.5631 42.432 37.9034 42.432 37.2156C42.432 36.5277 42.7053 35.868 43.1917 35.3816C43.6781 34.8952 44.3378 34.622 45.0256 34.622C45.7135 34.622 46.3732 34.8952 46.8596 35.3816C47.346 35.868 47.6192 36.5277 47.6192 37.2156C47.6192 37.9034 47.346 38.5631 46.8596 39.0495C46.3732 39.5359 45.7135 39.8092 45.0256 39.8092Z" fill="url(#paint1_linear_1_2780)"/>
<defs>
<linearGradient id="paint0_linear_1_2780" x1="34.0493" y1="0.212891" x2="34.0493" y2="28.2969" gradientUnits="userSpaceOnUse">
<stop stop-color="#E8F2F9"/>
<stop offset="1" stop-color="#A7B1B7"/>
</linearGradient>
<linearGradient id="paint1_linear_1_2780" x1="44.8622" y1="0.282227" x2="44.8622" y2="41.7296" gradientUnits="userSpaceOnUse">
<stop stop-color="#E8F2F9"/>
<stop offset="1" stop-color="#A7B1B7"/>
</linearGradient>
</defs>
</svg>
