<svg width="20" height="17" viewBox="0 0 20 17" fill="none" xmlns="http://www.w3.org/2000/svg">
<path d="M19.2352 7.12663V9.06128C19.2352 9.57782 18.822 10.0004 18.2961 10.0192H16.4553C15.4411 10.0192 14.5113 9.27729 14.4268 8.26301C14.3704 7.67134 14.5958 7.11724 14.9903 6.73219C15.3378 6.37531 15.8167 6.1687 16.3426 6.1687H18.2961C18.822 6.18748 19.2352 6.6101 19.2352 7.12663Z" fill="#13CD90"/>
<path d="M17.798 11.428H16.455C14.6706 11.428 13.168 10.085 13.0177 8.37573C12.9332 7.39901 13.2901 6.42229 14.0038 5.72732C14.6049 5.10748 15.4407 4.76 16.3423 4.76H17.798C18.0704 4.76 18.2958 4.5346 18.2676 4.26225C18.061 1.98011 16.5489 0.421126 14.3044 0.158164C14.079 0.120598 13.8442 0.111206 13.6 0.111206H5.14765C4.88469 0.111206 4.63112 0.129989 4.38694 0.167555C1.99211 0.468083 0.451904 2.25247 0.451904 4.80696V11.381C0.451904 13.9731 2.5556 16.0768 5.14765 16.0768H13.6C16.2296 16.0768 18.0422 14.4332 18.2676 11.9257C18.2958 11.6534 18.0704 11.428 17.798 11.428ZM10.7826 5.98089H5.14765C4.7626 5.98089 4.44329 5.66158 4.44329 5.27653C4.44329 4.89148 4.7626 4.57217 5.14765 4.57217H10.7826C11.1676 4.57217 11.4869 4.89148 11.4869 5.27653C11.4869 5.66158 11.1676 5.98089 10.7826 5.98089Z" fill="#13CD90"/>
</svg>
