<svg width="90" height="42" viewBox="0 0 90 42" fill="none" xmlns="http://www.w3.org/2000/svg">
<path fill-rule="evenodd" clip-rule="evenodd" d="M37.4645 19.225L27.1534 19.5922L36.9439 20.1362L37.4645 19.225ZM36.2311 21.3917L25.8955 21.7594L35.7225 22.3054L36.2311 21.3917ZM34.9977 23.5766L24.675 23.939L34.49 24.4845L34.9977 23.5766ZM33.7897 25.7505L23.4541 26.1187L33.2576 26.6633L33.7897 25.7505ZM46.4243 8.28826L33.2638 8.7566L46.4617 9.49003L46.4243 8.28826ZM46.3409 6.13783L34.5183 6.55249L46.3783 7.2327L46.3409 6.13783ZM46.2565 4.06362L35.723 4.41021L46.3073 4.99791L46.2565 4.06362ZM46.1856 1.93429L36.9525 2.243L46.222 2.79043L46.1856 1.93429ZM46.1256 0.212891H38.0953L46.1376 0.639525L46.1256 0.212891ZM32.5443 27.9235L22.2336 28.2969H32.3339L32.5443 27.9235Z" fill="url(#paint0_linear_1_2753)"/>
<path fill-rule="evenodd" clip-rule="evenodd" d="M67.4869 0.282227H52.6276L52.2062 1.02812L59.6421 1.42263C59.7294 1.42263 59.7294 1.54631 59.6047 1.54631L51.7729 1.80804L51.0174 3.13013L58.4025 3.56635C58.5017 3.57881 58.4773 3.71496 58.3905 3.71496L50.5457 3.97285L49.8156 5.23885L57.1887 5.64823C57.3498 5.6607 57.3498 5.79731 57.1887 5.79731L49.3569 6.07199L48.6134 7.39599L55.962 7.81736C56.1231 7.82982 56.1111 7.97842 55.962 7.97842L48.1302 8.25741L47.3737 9.56512L54.7344 9.97401C54.8456 9.98648 54.859 10.1231 54.7099 10.1231L32.1429 10.8791L53.5575 12.0688C53.6932 12.0688 53.6812 12.2424 53.5321 12.2424L30.9287 13.0482L52.3433 14.2375C52.4425 14.2375 52.467 14.3986 52.3179 14.3986L29.677 15.2163L51.0917 16.4061C51.1789 16.4186 51.2647 16.5797 51.0797 16.5921L28.4748 17.3965L49.889 18.5858C49.9508 18.5983 50.0126 18.7593 49.8645 18.7593L38.4878 19.1649L38.5252 20.1917L48.6623 20.7549C48.7361 20.7674 48.7735 20.916 48.6369 20.916L38.5625 21.2741L38.6119 22.4226L47.4111 22.9116C47.4974 22.924 47.5348 23.0976 47.3857 23.0976L38.6613 23.4039L38.6992 24.6641L46.1969 25.0807C46.2832 25.0927 46.3081 25.2538 46.1595 25.2538L38.7365 25.5188L38.7859 26.9052L44.9822 27.2494C45.0694 27.2618 45.0694 27.4109 44.9453 27.4109L38.8109 27.6328L38.8358 28.2287H58.8377C64.1414 28.2287 68.8996 24.3621 69.7922 21.2885C70.6852 18.2153 70.6852 15.4393 66.4218 14.0515C68.8018 13.506 72.9402 10.822 73.7584 7.11125C74.5005 3.73988 73.2618 0.29469 67.4869 0.282227ZM57.426 21.8057H51.2796L54.7492 15.6588H59.3099C64.0192 15.6588 61.7384 21.8057 57.426 21.8057ZM65.3815 8.61885C65.1831 9.36235 63.6951 11.2463 61.8127 11.2463H57.252L60.1761 6.09116H62.5063C65.4798 6.19039 65.579 7.87584 65.3815 8.61885ZM90.0022 37.1358C90.0022 34.7538 88.0219 32.7587 85.64 32.7587C83.1962 32.7587 81.201 34.7854 81.201 37.2753C81.1986 37.8609 81.3121 38.4413 81.5351 38.9829C81.7581 39.5244 82.0862 40.0165 82.5003 40.4306C82.9145 40.8447 83.4066 41.1727 83.9481 41.3956C84.4897 41.6186 85.0701 41.7321 85.6558 41.7295C87.4644 41.7295 89.1815 40.4923 89.692 38.8064H87.4337C86.9851 39.5177 86.3983 39.8423 85.593 39.8423C84.5724 39.8423 83.6607 39.1462 83.3663 38.1563H89.8929C89.971 37.6774 90.0022 37.445 90.0022 37.1358ZM83.305 36.5394C83.5988 35.3794 84.5269 34.6368 85.6711 34.6368C86.8163 34.6368 87.7132 35.364 87.9912 36.5394H83.305ZM60.6814 33.1714V33.866C60.0323 33.17 59.0918 32.774 58.0861 32.774C55.859 32.774 53.9602 34.6761 53.9602 37.1511C53.9602 39.4861 55.6399 41.5804 58.1302 41.5804C59.2284 41.5804 60.0635 41.3268 60.852 40.43V41.5282H62.7398V33.1714H60.6814ZM58.3761 39.8092C57.6882 39.8092 57.0285 39.5359 56.5422 39.0495C56.0558 38.5631 55.7825 37.9034 55.7825 37.2156C55.7825 36.5277 56.0558 35.868 56.5422 35.3816C57.0285 34.8952 57.6882 34.622 58.3761 34.622C59.064 34.622 59.7237 34.8952 60.2101 35.3816C60.6965 35.868 60.9697 36.5277 60.9697 37.2156C60.9697 37.9034 60.6965 38.5631 60.2101 39.0495C59.7237 39.5359 59.064 39.8092 58.3761 39.8092ZM4.43323 32.7582C3.58284 32.7582 2.9333 33.0521 2.22144 33.7793V32.9595H0.318848V41.5282H2.37628V37.491C2.37628 36.3932 2.4688 34.645 3.98455 34.645C5.4073 34.645 5.56214 36.2844 5.56214 37.3361V41.5277H7.61909V36.9339C7.61909 35.7274 7.52657 35.1555 7.20156 34.4748C6.7222 33.4542 5.59329 32.7582 4.43323 32.7582ZM17.215 37.1358C17.215 34.7538 15.2352 32.7587 12.8533 32.7587C10.4095 32.7587 8.41435 34.7854 8.41435 37.2753C8.41194 37.8609 8.52551 38.4412 8.74851 38.9827C8.9715 39.5242 9.29951 40.0162 9.7136 40.4303C10.1277 40.8444 10.6197 41.1724 11.1612 41.3954C11.7027 41.6184 12.283 41.7319 12.8686 41.7295C14.6782 41.7295 16.3948 40.4923 16.9053 38.8064H14.6475C14.1988 39.5177 13.6111 39.8423 12.8068 39.8423C11.7862 39.8423 10.8735 39.1462 10.5796 38.1563H17.1062C17.1843 37.6774 17.215 37.445 17.215 37.1358ZM10.5183 36.5394C10.8121 35.3794 11.7402 34.6368 12.8849 34.6368C14.0296 34.6368 14.9265 35.364 15.205 36.5394H10.5183ZM51.0605 41.521H53.1175V30.091H51.0605V41.521ZM68.1666 32.7582C67.3158 32.7582 66.6658 33.0521 65.9544 33.7793V32.9595H64.0518V41.5282H66.1097V37.491C66.1097 36.3932 66.2022 34.645 67.718 34.645C69.1402 34.645 69.2955 36.2844 69.2955 37.3361V41.5277H71.3525V36.9339C71.3525 35.7274 71.26 35.1555 70.935 34.4748C70.4556 33.4542 69.3267 32.7582 68.1666 32.7582ZM76.4875 34.6455C77.4304 34.6455 77.9716 34.9551 78.4826 35.8209H80.8017C80.168 33.9806 78.5444 32.7582 76.5642 32.7582C74.0585 32.7582 72.0476 34.7533 72.0476 37.2129C72.0476 39.6874 74.0739 41.729 76.5642 41.729C77.1993 41.7257 77.8269 41.5907 78.4072 41.3324C78.9875 41.0741 79.5079 40.6983 79.9355 40.2286C80.3689 39.7493 80.5237 39.4707 80.8017 38.7134H78.4826C78.0023 39.4554 77.3843 39.8418 76.6111 39.8418C75.1721 39.8418 74.1055 38.7282 74.1055 37.2431C74.1055 35.7437 75.1261 34.6455 76.4875 34.6455ZM25.0775 38.1875L23.6208 32.96H21.9655L20.4929 38.1875L18.7514 32.96H16.9365L19.7973 41.5282H21.1151L22.7857 35.9762L24.4093 41.5282H25.7923L28.5357 32.96H26.8349L25.0775 38.1875ZM36.0986 32.7673C35.0934 32.7673 34.1529 33.1633 33.5033 33.8588V30.0915H31.4459V41.521H33.3327V40.4232C34.1217 41.3201 34.9568 41.5732 36.055 41.5732C38.5453 41.5732 40.225 39.4794 40.225 37.1439C40.2255 34.6694 38.3262 32.7673 36.0986 32.7673ZM35.8086 39.8092C35.1207 39.8092 34.461 39.5359 33.9746 39.0495C33.4882 38.5631 33.215 37.9034 33.215 37.2156C33.215 36.5277 33.4882 35.868 33.9746 35.3816C34.461 34.8952 35.1207 34.622 35.8086 34.622C36.4965 34.622 37.1562 34.8952 37.6425 35.3816C38.1289 35.868 38.4022 36.5277 38.4022 37.2156C38.4022 37.9034 38.1289 38.5631 37.6425 39.0495C37.1562 39.5359 36.4965 39.8092 35.8086 39.8092ZM47.6288 33.1714V33.866C46.9792 33.17 46.0392 32.774 45.0335 32.774C42.8064 32.774 40.9066 34.6761 40.9066 37.1511C40.9066 39.4861 42.5868 41.5804 45.0766 41.5804C46.1748 41.5804 47.0099 41.3268 47.7989 40.43V41.5282H49.6857V33.1714H47.6288ZM45.324 39.8092C44.6361 39.8092 43.9764 39.5359 43.49 39.0495C43.0036 38.5631 42.7304 37.9034 42.7304 37.2156C42.7304 36.5277 43.0036 35.868 43.49 35.3816C43.9764 34.8952 44.6361 34.622 45.324 34.622C46.0118 34.622 46.6715 34.8952 47.1579 35.3816C47.6443 35.868 47.9176 36.5277 47.9176 37.2156C47.9176 37.9034 47.6443 38.5631 47.1579 39.0495C46.6715 39.5359 46.0118 39.8092 45.324 39.8092Z" fill="url(#paint1_linear_1_2753)"/>
<defs>
<linearGradient id="paint0_linear_1_2753" x1="34.3477" y1="0.212891" x2="34.3477" y2="28.2969" gradientUnits="userSpaceOnUse">
<stop stop-color="#E8F2F9"/>
<stop offset="1" stop-color="#A7B1B7"/>
</linearGradient>
<linearGradient id="paint1_linear_1_2753" x1="45.1605" y1="0.282227" x2="45.1605" y2="41.7296" gradientUnits="userSpaceOnUse">
<stop stop-color="#E8F2F9"/>
<stop offset="1" stop-color="#A7B1B7"/>
</linearGradient>
</defs>
</svg>
