<svg width="91" height="42" viewBox="0 0 91 42" fill="none" xmlns="http://www.w3.org/2000/svg">
<path fill-rule="evenodd" clip-rule="evenodd" d="M37.7638 19.225L27.4527 19.5922L37.2432 20.1362L37.7638 19.225ZM36.5304 21.3917L26.1948 21.7594L36.0218 22.3054L36.5304 21.3917ZM35.297 23.5766L24.9744 23.939L34.7893 24.4845L35.297 23.5766ZM34.089 25.7505L23.7534 26.1187L33.5569 26.6633L34.089 25.7505ZM46.7236 8.28826L33.5631 8.7566L46.761 9.49003L46.7236 8.28826ZM46.6402 6.13783L34.8176 6.55249L46.6776 7.2327L46.6402 6.13783ZM46.5558 4.06362L36.0223 4.41021L46.6066 4.99791L46.5558 4.06362ZM46.4849 1.93429L37.2518 2.243L46.5213 2.79043L46.4849 1.93429ZM46.425 0.212891H38.3946L46.4369 0.639525L46.425 0.212891ZM32.8436 27.9235L22.533 28.2969H32.6332L32.8436 27.9235Z" fill="url(#paint0_linear_1_2726)"/>
<path fill-rule="evenodd" clip-rule="evenodd" d="M67.7862 0.282227H52.9269L52.5055 1.02812L59.9414 1.42263C60.0287 1.42263 60.0287 1.54631 59.904 1.54631L52.0722 1.80804L51.3167 3.13013L58.7018 3.56635C58.801 3.57881 58.7766 3.71496 58.6898 3.71496L50.845 3.97285L50.1149 5.23885L57.488 5.64823C57.6491 5.6607 57.6491 5.79731 57.488 5.79731L49.6562 6.07199L48.9127 7.39599L56.2613 7.81736C56.4224 7.82982 56.4104 7.97842 56.2613 7.97842L48.4295 8.25741L47.6731 9.56512L55.0337 9.97401C55.1449 9.98648 55.1583 10.1231 55.0092 10.1231L32.4422 10.8791L53.8569 12.0688C53.9925 12.0688 53.9805 12.2424 53.8314 12.2424L31.228 13.0482L52.6426 14.2375C52.7419 14.2375 52.7663 14.3986 52.6172 14.3986L29.9764 15.2163L51.391 16.4061C51.4782 16.4186 51.5641 16.5797 51.379 16.5921L28.7741 17.3965L50.1883 18.5858C50.2501 18.5983 50.312 18.7593 50.1638 18.7593L38.7871 19.1649L38.8245 20.1917L48.9616 20.7549C49.0354 20.7674 49.0728 20.916 48.9362 20.916L38.8619 21.2741L38.9112 22.4226L47.7104 22.9116C47.7967 22.924 47.8341 23.0976 47.685 23.0976L38.9606 23.4039L38.9985 24.6641L46.4962 25.0807C46.5825 25.0927 46.6074 25.2538 46.4588 25.2538L39.0359 25.5188L39.0852 26.9052L45.2815 27.2494C45.3687 27.2618 45.3687 27.4109 45.2446 27.4109L39.1102 27.6328L39.1351 28.2287H59.1371C64.4407 28.2287 69.1989 24.3621 70.0915 21.2885C70.9845 18.2153 70.9845 15.4393 66.7211 14.0515C69.1011 13.506 73.2395 10.822 74.0577 7.11125C74.7998 3.73988 73.5611 0.29469 67.7862 0.282227ZM57.7253 21.8057H51.5789L55.0486 15.6588H59.6092C64.3185 15.6588 62.0377 21.8057 57.7253 21.8057ZM65.6809 8.61885C65.4824 9.36235 63.9944 11.2463 62.112 11.2463H57.5513L60.4754 6.09116H62.8056C65.7791 6.19039 65.8784 7.87584 65.6809 8.61885ZM90.3015 37.1358C90.3015 34.7538 88.3212 32.7587 85.9393 32.7587C83.4955 32.7587 81.5004 34.7854 81.5004 37.2753C81.4979 37.8609 81.6114 38.4413 81.8344 38.9829C82.0574 39.5244 82.3855 40.0165 82.7996 40.4306C83.2138 40.8447 83.7059 41.1727 84.2475 41.3956C84.789 41.6186 85.3694 41.7321 85.9551 41.7295C87.7637 41.7295 89.4808 40.4923 89.9913 38.8064H87.7331C87.2844 39.5177 86.6976 39.8423 85.8923 39.8423C84.8717 39.8423 83.96 39.1462 83.6656 38.1563H90.1922C90.2703 37.6774 90.3015 37.445 90.3015 37.1358ZM83.6043 36.5394C83.8981 35.3794 84.8262 34.6368 85.9704 34.6368C87.1156 34.6368 88.0125 35.364 88.2906 36.5394H83.6043ZM60.9807 33.1714V33.866C60.3316 33.17 59.3911 32.774 58.3854 32.774C56.1583 32.774 54.2595 34.6761 54.2595 37.1511C54.2595 39.4861 55.9392 41.5804 58.4295 41.5804C59.5277 41.5804 60.3628 41.3268 61.1513 40.43V41.5282H63.0391V33.1714H60.9807ZM58.6754 39.8092C57.9876 39.8092 57.3279 39.5359 56.8415 39.0495C56.3551 38.5631 56.0818 37.9034 56.0818 37.2156C56.0818 36.5277 56.3551 35.868 56.8415 35.3816C57.3279 34.8952 57.9876 34.622 58.6754 34.622C59.3633 34.622 60.023 34.8952 60.5094 35.3816C60.9958 35.868 61.269 36.5277 61.269 37.2156C61.269 37.9034 60.9958 38.5631 60.5094 39.0495C60.023 39.5359 59.3633 39.8092 58.6754 39.8092ZM4.73255 32.7582C3.88216 32.7582 3.23262 33.0521 2.52076 33.7793V32.9595H0.618164V41.5282H2.6756V37.491C2.6756 36.3932 2.76811 34.645 4.28386 34.645C5.70662 34.645 5.86145 36.2844 5.86145 37.3361V41.5277H7.9184V36.9339C7.9184 35.7274 7.82589 35.1555 7.50088 34.4748C7.02151 33.4542 5.89261 32.7582 4.73255 32.7582ZM17.5143 37.1358C17.5143 34.7538 15.5345 32.7587 13.1526 32.7587C10.7088 32.7587 8.71367 34.7854 8.71367 37.2753C8.71126 37.8609 8.82483 38.4412 9.04782 38.9827C9.27082 39.5242 9.59882 40.0162 10.0129 40.4303C10.427 40.8444 10.919 41.1724 11.4605 41.3954C12.002 41.6184 12.5823 41.7319 13.1679 41.7295C14.9775 41.7295 16.6941 40.4923 17.2047 38.8064H14.9468C14.4982 39.5177 13.9105 39.8423 13.1061 39.8423C12.0855 39.8423 11.1728 39.1462 10.879 38.1563H17.4055C17.4836 37.6774 17.5143 37.445 17.5143 37.1358ZM10.8176 36.5394C11.1115 35.3794 12.0395 34.6368 13.1842 34.6368C14.3289 34.6368 15.2258 35.364 15.5043 36.5394H10.8176ZM51.3598 41.521H53.4168V30.091H51.3598V41.521ZM68.466 32.7582C67.6151 32.7582 66.9651 33.0521 66.2537 33.7793V32.9595H64.3511V41.5282H66.409V37.491C66.409 36.3932 66.5015 34.645 68.0173 34.645C69.4396 34.645 69.5949 36.2844 69.5949 37.3361V41.5277H71.6518V36.9339C71.6518 35.7274 71.5593 35.1555 71.2343 34.4748C70.7549 33.4542 69.626 32.7582 68.466 32.7582ZM76.7868 34.6455C77.7297 34.6455 78.2709 34.9551 78.7819 35.8209H81.1011C80.4673 33.9806 78.8437 32.7582 76.8635 32.7582C74.3578 32.7582 72.3469 34.7533 72.3469 37.2129C72.3469 39.6874 74.3732 41.729 76.8635 41.729C77.4986 41.7257 78.1262 41.5907 78.7065 41.3324C79.2868 41.0741 79.8072 40.6983 80.2348 40.2286C80.6682 39.7493 80.823 39.4707 81.1011 38.7134H78.7819C78.3016 39.4554 77.6837 39.8418 76.9104 39.8418C75.4714 39.8418 74.4048 38.7282 74.4048 37.2431C74.4048 35.7437 75.4254 34.6455 76.7868 34.6455ZM25.3769 38.1875L23.9201 32.96H22.2648L20.7922 38.1875L19.0507 32.96H17.2358L20.0967 41.5282H21.4144L23.085 35.9762L24.7086 41.5282H26.0916L28.835 32.96H27.1342L25.3769 38.1875ZM36.3979 32.7673C35.3927 32.7673 34.4522 33.1633 33.8026 33.8588V30.0915H31.7452V41.521H33.632V40.4232C34.421 41.3201 35.2561 41.5732 36.3543 41.5732C38.8446 41.5732 40.5243 39.4794 40.5243 37.1439C40.5248 34.6694 38.6255 32.7673 36.3979 32.7673ZM36.1079 39.8092C35.42 39.8092 34.7603 39.5359 34.274 39.0495C33.7876 38.5631 33.5143 37.9034 33.5143 37.2156C33.5143 36.5277 33.7876 35.868 34.274 35.3816C34.7603 34.8952 35.42 34.622 36.1079 34.622C36.7958 34.622 37.4555 34.8952 37.9419 35.3816C38.4283 35.868 38.7015 36.5277 38.7015 37.2156C38.7015 37.9034 38.4283 38.5631 37.9419 39.0495C37.4555 39.5359 36.7958 39.8092 36.1079 39.8092ZM47.9281 33.1714V33.866C47.2785 33.17 46.3385 32.774 45.3328 32.774C43.1057 32.774 41.2059 34.6761 41.2059 37.1511C41.2059 39.4861 42.8861 41.5804 45.3759 41.5804C46.4742 41.5804 47.3092 41.3268 48.0983 40.43V41.5282H49.985V33.1714H47.9281ZM45.6233 39.8092C44.9354 39.8092 44.2757 39.5359 43.7893 39.0495C43.3029 38.5631 43.0297 37.9034 43.0297 37.2156C43.0297 36.5277 43.3029 35.868 43.7893 35.3816C44.2757 34.8952 44.9354 34.622 45.6233 34.622C46.3112 34.622 46.9708 34.8952 47.4572 35.3816C47.9436 35.868 48.2169 36.5277 48.2169 37.2156C48.2169 37.9034 47.9436 38.5631 47.4572 39.0495C46.9708 39.5359 46.3112 39.8092 45.6233 39.8092Z" fill="url(#paint1_linear_1_2726)"/>
<defs>
<linearGradient id="paint0_linear_1_2726" x1="34.647" y1="0.212891" x2="34.647" y2="28.2969" gradientUnits="userSpaceOnUse">
<stop stop-color="#E8F2F9"/>
<stop offset="1" stop-color="#A7B1B7"/>
</linearGradient>
<linearGradient id="paint1_linear_1_2726" x1="45.4598" y1="0.282227" x2="45.4598" y2="41.7296" gradientUnits="userSpaceOnUse">
<stop stop-color="#E8F2F9"/>
<stop offset="1" stop-color="#A7B1B7"/>
</linearGradient>
</defs>
</svg>
