<svg width="82" height="23" viewBox="0 0 82 23" fill="none" xmlns="http://www.w3.org/2000/svg">
<path d="M0.864174 0.478914C0.707833 0.705196 0.67492 0.803938 0.744861 0.832737C0.765432 0.836851 0.925887 1.15776 1.09868 1.5445C1.2756 1.92712 1.48131 2.3838 1.55948 2.55248C1.80633 3.07499 1.88861 3.26835 1.92153 3.3671C1.93798 3.42058 2.13547 3.85257 2.35763 4.32982C2.5798 4.80296 2.76494 5.19792 2.76494 5.20615C2.76494 5.21438 2.9254 5.55586 3.11876 5.96728C3.31213 6.3787 3.52196 6.84772 3.58779 7.00818C3.6495 7.17275 3.92927 7.78577 4.20492 8.3741C4.83851 9.72356 5.13885 10.3818 5.23347 10.6163C5.31164 10.8138 5.94935 12.2003 6.24557 12.8257L6.4266 13.2083V17.8245L6.43071 22.4447L6.59528 22.6175L6.75985 22.7944H8.27799H9.79614L9.96071 22.6175L10.1253 22.4447L10.1294 17.8779V13.3153L10.2693 13.0026C10.3474 12.8339 10.549 12.3772 10.7218 11.9946C10.8905 11.6079 11.232 10.855 11.483 10.3201C11.7298 9.78116 12.0384 9.10643 12.1577 8.81843C12.2811 8.53044 12.5115 8.01205 12.672 7.67468C13.392 6.12774 13.791 5.26375 13.791 5.24318C13.791 5.21438 14.005 4.7289 14.1942 4.32159C14.9842 2.63065 15.807 0.799824 15.807 0.729881C15.807 0.709311 15.7535 0.614683 15.6836 0.515944C15.6178 0.417202 15.5602 0.31846 15.5602 0.293776C15.5602 0.26086 15.0418 0.248518 13.8692 0.248518C12.4334 0.248518 12.17 0.256746 12.1207 0.310232C12.0878 0.343145 12.0343 0.384289 12.0055 0.400745C11.952 0.433659 11.7915 0.750454 11.3842 1.64735C11.2649 1.90655 11.0551 2.35088 10.9193 2.63477C10.6642 3.17373 10.4174 3.72503 10.4174 3.76206C10.4174 3.7744 10.3351 3.95543 10.2364 4.16525C10.1376 4.37508 9.9278 4.82353 9.76734 5.16501C9.611 5.50237 9.30655 6.16065 9.09261 6.62556C8.87867 7.09046 8.60302 7.69525 8.4837 7.97091L8.26565 8.46873L8.08463 8.07376C7.40989 6.60087 7.06019 5.8274 6.96144 5.57643C6.89973 5.41598 6.72282 5.02101 6.57059 4.69187C6.41837 4.36274 6.15506 3.79086 5.98637 3.41647C5.81769 3.04207 5.62432 2.61831 5.55438 2.4702C5.48855 2.32208 5.36513 2.04643 5.28696 1.85306C5.20879 1.65969 5.03188 1.26062 4.89611 0.960278C4.6904 0.515944 4.62457 0.408974 4.52583 0.36783C4.46411 0.343145 4.41063 0.306118 4.41063 0.285547C4.41063 0.264975 3.66184 0.248518 2.71557 0.248518L1.0164 0.252632L0.864174 0.478914Z" fill="url(#paint0_linear_1_2719)"/>
<path d="M18.7611 0.433659L18.6047 0.606455V11.5256L18.6089 22.4447L18.7734 22.6175L18.938 22.7944H24.9982H31.0585L31.2477 22.6216L31.4411 22.4488V20.9636V19.4784L31.2601 19.3261L31.0749 19.1739H26.6933H22.3075V16.2528V13.3317H26.3518H30.3961L30.5895 13.1342L30.7828 12.9368V11.4968V10.0568L30.5853 9.86345L30.3879 9.67008H26.3477H22.3075V6.76955V3.86903H26.7015L31.0914 3.86492L31.2683 3.70035L31.4411 3.53578V2.06289V0.594112L31.2477 0.421316L31.0585 0.248518L24.9859 0.252632L18.9133 0.256746L18.7611 0.433659Z" fill="url(#paint1_linear_1_2719)"/>
<path d="M34.9715 0.433659L34.8152 0.606455V11.5256L34.8193 22.4447L34.9839 22.6175L35.1484 22.7944H41.2293H47.3142L47.4829 22.6258L47.6515 22.4571V20.9636V19.4701L47.4787 19.322L47.306 19.1739H42.912H38.518V16.2528V13.3317H42.5623H46.6065L46.7793 13.1548L46.9521 12.9779V11.4968V10.0157L46.7752 9.84288L46.5983 9.67008H42.5581H38.518V6.76955V3.86903H42.9037H47.2936L47.4705 3.72092L47.6515 3.57692V2.07935V0.58177L47.4787 0.417202L47.3018 0.252632H41.2128L35.1238 0.256746L34.9715 0.433659Z" fill="url(#paint2_linear_1_2719)"/>
<path d="M51.5259 0.42543L51.3531 0.598227V2.09169V3.58104L51.5218 3.73738L51.6946 3.8896L55.492 3.91017L59.2894 3.93074L59.1248 4.21874C59.0302 4.37508 58.8327 4.74536 58.6846 5.04158C58.339 5.72866 57.7671 6.8107 57.3393 7.5924C56.9608 8.28359 56.7304 8.72381 56.718 8.78552C56.7139 8.81021 56.6069 9.01592 56.4753 9.25043L56.2408 9.67008H54.4387H52.6367L52.468 9.85933L52.2993 10.0527V11.5174V12.9779L52.4721 13.1548L52.6449 13.3317H53.5048H54.3606L54.1672 13.6897C54.0602 13.8913 53.9039 14.171 53.8216 14.3191C53.7352 14.4673 53.5089 14.891 53.3197 15.2654C53.1263 15.6398 52.7231 16.3968 52.4228 16.9522C52.1224 17.5077 51.7028 18.2935 51.4971 18.7008C51.2914 19.1081 51.0815 19.5072 51.0322 19.5853C50.9458 19.7252 50.9417 19.7664 50.9417 21.087L50.9458 22.4447L51.1103 22.6216L51.2749 22.7944H57.5285H63.7821L63.9673 22.6216L64.1483 22.453V20.9554V19.4619L63.9796 19.3056L63.8068 19.1534L59.5774 19.1328L55.3439 19.1122L55.7347 18.3922C55.9487 17.9973 56.2819 17.3678 56.4712 16.9934C56.9114 16.1212 57.6396 14.7347 58.014 14.0517C58.1744 13.7555 58.3184 13.4757 58.3308 13.4222L58.3555 13.3317H60.1945H62.0336L62.2064 13.1548L62.3792 12.9779V11.5215V10.0609L62.2105 9.86756L62.0459 9.67008L61.1449 9.66185L60.248 9.64951L60.5771 9.03237C60.7582 8.69089 61.0462 8.15605 61.219 7.83925C61.3918 7.52246 61.6715 6.98349 61.8443 6.64613C62.0171 6.30465 62.3792 5.62169 62.6466 5.12387C62.914 4.62605 63.2596 3.976 63.416 3.68389L63.6916 3.14904V1.87363V0.598227L63.527 0.421316L63.3625 0.248518H57.5326L51.7028 0.252632L51.5259 0.42543Z" fill="url(#paint3_linear_1_2719)"/>
<path d="M66.8719 0.466572C66.7978 0.585884 66.7402 0.705196 66.7402 0.729881C66.7402 0.754568 66.7855 0.87388 66.839 0.993193C66.8925 1.11662 67.0118 1.39227 67.1023 1.60621C67.1928 1.82015 67.3738 2.21923 67.5014 2.49077C67.6289 2.76231 67.8264 3.18607 67.9416 3.43704C68.0568 3.68389 68.2255 4.05417 68.3242 4.25988C68.4188 4.46148 68.5423 4.74125 68.604 4.87701C68.9125 5.59289 69.2293 6.28819 70.0728 8.0861C70.1674 8.2877 70.3114 8.61272 70.3895 8.80609C70.4718 8.99946 70.731 9.57134 70.9655 10.0815C71.6197 11.4803 72.0723 12.476 72.1093 12.5871C72.1257 12.6447 72.2039 12.8175 72.278 12.9779L72.4179 13.2659V17.8574L72.422 22.4447L72.5865 22.6175L72.7511 22.7944H74.2693H75.7915L75.9355 22.6381L76.0754 22.4859L76.0795 17.9109V13.34L76.2811 12.9121C76.6802 12.0646 77.2438 10.8385 77.2932 10.6986C77.3508 10.5382 77.6676 9.83465 77.8281 9.49728C78.0008 9.14757 78.943 7.06989 79.0006 6.91355C79.0335 6.83538 79.2187 6.41985 79.4203 5.99608C79.6177 5.5682 79.7823 5.21438 79.7823 5.20615C79.7823 5.19792 79.951 4.83587 80.1567 4.39565C80.3624 3.95954 80.5763 3.48641 80.6298 3.34653C80.6833 3.20664 80.8643 2.79522 81.0371 2.42905C81.2058 2.06289 81.3457 1.75844 81.3457 1.75021C81.3457 1.74198 81.4568 1.49924 81.5926 1.21536L81.8435 0.701082L81.7366 0.585884C81.679 0.524172 81.609 0.42543 81.5802 0.359602L81.5308 0.248518H79.8358C78.9019 0.248518 78.1366 0.264975 78.1366 0.281433C78.1366 0.302004 78.0914 0.339031 78.0338 0.363716C77.9268 0.413088 77.5977 1.04668 77.3343 1.70907C77.2726 1.86541 77.1286 2.19043 77.0134 2.42905C76.9024 2.66768 76.7131 3.07499 76.5938 3.33418C76.4745 3.59338 76.277 4.02126 76.1495 4.28045C75.8327 4.95107 75.6228 5.40363 75.6105 5.453C75.5981 5.50237 75.5529 5.60523 75.1415 6.50213C74.9604 6.89709 74.693 7.47309 74.549 7.77754C74.4009 8.08199 74.2734 8.36176 74.261 8.39467C74.2405 8.45227 73.9566 7.90096 73.8784 7.65C73.8619 7.59651 73.6809 7.1892 73.4752 6.74898C72.7634 5.20204 72.2451 4.05006 72.1299 3.76617C72.0681 3.60572 71.8995 3.22721 71.7596 2.92276C71.6197 2.61831 71.3605 2.05055 71.1836 1.66792C71.0067 1.28119 70.8051 0.840965 70.7351 0.68874C70.6487 0.507715 70.5706 0.392517 70.5047 0.363716C70.4471 0.339031 70.4019 0.302004 70.4019 0.281433C70.4019 0.264975 69.6366 0.248518 68.7027 0.248518H67.0035L66.8719 0.466572Z" fill="url(#paint4_linear_1_2719)"/>
<defs>
<linearGradient id="paint0_linear_1_2719" x1="8.25849" y1="22.7944" x2="8.25849" y2="0.24852" gradientUnits="userSpaceOnUse">
<stop stop-color="#E8F2F9"/>
<stop offset="1" stop-color="#A7B1B7"/>
</linearGradient>
<linearGradient id="paint1_linear_1_2719" x1="25.0229" y1="22.7944" x2="25.0229" y2="0.24852" gradientUnits="userSpaceOnUse">
<stop stop-color="#E8F2F9"/>
<stop offset="1" stop-color="#A7B1B7"/>
</linearGradient>
<linearGradient id="paint2_linear_1_2719" x1="41.2334" y1="22.7944" x2="41.2334" y2="0.252634" gradientUnits="userSpaceOnUse">
<stop stop-color="#E8F2F9"/>
<stop offset="1" stop-color="#A7B1B7"/>
</linearGradient>
<linearGradient id="paint3_linear_1_2719" x1="57.545" y1="22.7944" x2="57.545" y2="0.24852" gradientUnits="userSpaceOnUse">
<stop stop-color="#E8F2F9"/>
<stop offset="1" stop-color="#A7B1B7"/>
</linearGradient>
<linearGradient id="paint4_linear_1_2719" x1="74.2919" y1="22.7944" x2="74.2919" y2="0.24852" gradientUnits="userSpaceOnUse">
<stop stop-color="#E8F2F9"/>
<stop offset="1" stop-color="#A7B1B7"/>
</linearGradient>
</defs>
</svg>
