<svg width="54" height="51" viewBox="0 0 54 51" fill="none" xmlns="http://www.w3.org/2000/svg">
<path d="M9.90954 34.5957L1.31606 43.4553C-0.237376 45.0565 -0.198084 47.6141 1.40305 49.1672C3.00448 50.7206 5.56173 50.6814 7.11516 49.08L15.7086 40.2206C13.4859 38.6717 11.5253 36.7701 9.90954 34.5957Z" fill="#09090D"/>
<path d="M28.8077 36.7343C37.5971 36.7343 44.7162 29.603 44.7162 20.8191C44.7162 18.1495 44.0538 15.6292 42.8875 13.417C42.281 12.2689 41.4786 11.1114 40.5828 10.1219C38.2036 7.49896 34.9565 5.66941 31.299 5.10001C29.069 4.7453 26.671 4.88532 24.5064 5.49205C17.8071 7.36828 12.8899 13.5197 12.8899 20.8191C12.8992 29.6122 20.0184 36.7343 28.8077 36.7343Z" fill="url(#paint0_linear_1_2912)" fill-opacity="0.6"/>
<path d="M24.3753 11.5723C19.929 11.5723 16.3337 15.1849 16.3337 19.6139C16.3337 20.6733 17.2022 21.5418 18.2616 21.5418C19.3211 21.5418 20.1895 20.6733 20.1895 19.6139C20.1895 17.3039 22.0827 15.4107 24.3927 15.4107C25.4522 15.4107 26.3206 14.5423 26.3206 13.4828C26.3032 12.4233 25.4348 11.5723 24.3753 11.5723Z" fill="white" fill-opacity="0.1"/>
<path d="M28.7536 0C17.2271 0 7.88306 9.34416 7.88306 20.8707C7.88306 32.3971 17.2273 41.7412 28.7536 41.7412C40.2799 41.7412 49.6242 32.397 49.6242 20.8707C49.6242 9.34426 40.28 0 28.7536 0ZM28.7536 36.3552C20.2154 36.3552 13.2689 29.4088 13.2689 20.8706C13.2689 12.3323 20.2154 5.38599 28.7536 5.38599C37.2918 5.38599 44.2383 12.3324 44.2383 20.8707C44.2383 29.4089 37.2918 36.3552 28.7536 36.3552Z" fill="#01BC6D"/>
<path d="M51.4244 5.28027C50.9907 5.28027 50.5831 5.44926 50.2763 5.75611L44.2685 11.7737L42.6672 10.1726C42.3607 9.86598 41.9531 9.69706 41.5195 9.69706C41.0858 9.69706 40.6782 9.86598 40.3716 10.1725C40.065 10.4791 39.8962 10.8867 39.8962 11.3203C39.8962 11.7539 40.065 12.1615 40.3716 12.468L43.1209 15.2173C43.4275 15.524 43.8351 15.6929 44.2688 15.6929C44.7022 15.6929 45.11 15.5239 45.4169 15.2171L52.5723 8.05141C53.205 7.41842 53.205 6.3886 52.5723 5.75562C52.2657 5.44912 51.858 5.28027 51.4244 5.28027Z" fill="white"/>
<path d="M44.6382 4.08643C46.6606 4.08643 48.4957 4.88537 49.8481 6.18311L44.2681 11.7739L42.6675 10.1724C42.3609 9.86573 41.9526 9.69678 41.519 9.69678C41.0855 9.69685 40.6781 9.86592 40.3716 10.1724C40.0651 10.4789 39.8961 10.8864 39.896 11.3198C39.896 11.7534 40.065 12.1618 40.3716 12.4683L43.1206 15.2173C43.4272 15.5239 43.8354 15.6929 44.269 15.6929C44.7022 15.6928 45.1097 15.5238 45.4165 15.2173L51.6772 8.9458C51.9918 9.77526 52.1665 10.674 52.1665 11.6138C52.1665 15.7711 48.7956 19.1421 44.6382 19.1421C40.4809 19.142 37.1108 15.7711 37.1108 11.6138C37.111 7.45659 40.481 4.08656 44.6382 4.08643Z" fill="#09090D"/>
<defs>
<linearGradient id="paint0_linear_1_2912" x1="16.7827" y1="10.2255" x2="33.586" y2="41.1436" gradientUnits="userSpaceOnUse">
<stop stop-color="#6C8699"/>
<stop offset="0.370687" stop-color="#374752"/>
<stop offset="1" stop-color="#171D21"/>
</linearGradient>
</defs>
</svg>
