<svg width="82" height="23" viewBox="0 0 82 23" fill="none" xmlns="http://www.w3.org/2000/svg">
<path d="M0.266517 0.478914C0.110177 0.705196 0.0772634 0.803938 0.147205 0.832737C0.167776 0.836851 0.328231 1.15776 0.501028 1.5445C0.677939 1.92712 0.88365 2.3838 0.96182 2.55248C1.20867 3.07499 1.29096 3.26835 1.32387 3.3671C1.34033 3.42058 1.53781 3.85257 1.75998 4.32982C1.98215 4.80296 2.16729 5.19792 2.16729 5.20615C2.16729 5.21438 2.32774 5.55586 2.52111 5.96728C2.71448 6.3787 2.9243 6.84772 2.99013 7.00818C3.05184 7.17275 3.33161 7.78577 3.60726 8.3741C4.24085 9.72356 4.54119 10.3818 4.63582 10.6163C4.71399 10.8138 5.35169 12.2003 5.64791 12.8257L5.82894 13.2083V17.8245L5.83305 22.4447L5.99762 22.6175L6.16219 22.7944H7.68034H9.19848L9.36305 22.6175L9.52762 22.4447L9.53174 17.8779V13.3153L9.67162 13.0026C9.74979 12.8339 9.95139 12.3772 10.1242 11.9946C10.2929 11.6079 10.6343 10.855 10.8853 10.3201C11.1322 9.78116 11.4407 9.10643 11.56 8.81843C11.6835 8.53044 11.9139 8.01205 12.0743 7.67468C12.7943 6.12774 13.1934 5.26375 13.1934 5.24318C13.1934 5.21438 13.4073 4.7289 13.5966 4.32159C14.3865 2.63065 15.2094 0.799824 15.2094 0.729881C15.2094 0.709311 15.1559 0.614683 15.0859 0.515944C15.0201 0.417202 14.9625 0.31846 14.9625 0.293776C14.9625 0.26086 14.4441 0.248518 13.2716 0.248518C11.8357 0.248518 11.5724 0.256746 11.523 0.310232C11.4901 0.343145 11.4366 0.384289 11.4078 0.400745C11.3543 0.433659 11.1939 0.750454 10.7866 1.64735C10.6673 1.90655 10.4574 2.35088 10.3217 2.63477C10.0666 3.17373 9.81973 3.72503 9.81973 3.76206C9.81973 3.7744 9.73745 3.95543 9.63871 4.16525C9.53996 4.37508 9.33014 4.82353 9.16968 5.16501C9.01334 5.50237 8.70889 6.16065 8.49495 6.62556C8.28101 7.09046 8.00536 7.69525 7.88605 7.97091L7.66799 8.46873L7.48697 8.07376C6.81224 6.60087 6.46253 5.8274 6.36379 5.57643C6.30207 5.41598 6.12516 5.02101 5.97294 4.69187C5.82071 4.36274 5.5574 3.79086 5.38872 3.41647C5.22004 3.04207 5.02667 2.61831 4.95673 2.4702C4.8909 2.32208 4.76747 2.04643 4.6893 1.85306C4.61113 1.65969 4.43422 1.26062 4.29845 0.960278C4.09274 0.515944 4.02691 0.408974 3.92817 0.36783C3.86646 0.343145 3.81297 0.306118 3.81297 0.285547C3.81297 0.264975 3.06419 0.248518 2.11792 0.248518L0.418743 0.252632L0.266517 0.478914Z" fill="url(#paint0_linear_1_2773)"/>
<path d="M18.1634 0.433659L18.0071 0.606455V11.5256L18.0112 22.4447L18.1758 22.6175L18.3403 22.7944H24.4006H30.4608L30.6501 22.6216L30.8434 22.4488V20.9636V19.4784L30.6624 19.3261L30.4773 19.1739H26.0956H21.7099V16.2528V13.3317H25.7542H29.7984L29.9918 13.1342L30.1852 12.9368V11.4968V10.0568L29.9877 9.86345L29.7902 9.67008H25.75H21.7099V6.76955V3.86903H26.1039L30.4937 3.86492L30.6706 3.70035L30.8434 3.53578V2.06289V0.594112L30.6501 0.421316L30.4608 0.248518L24.3882 0.252632L18.3156 0.256746L18.1634 0.433659Z" fill="url(#paint1_linear_1_2773)"/>
<path d="M34.3736 0.433659L34.2173 0.606455V11.5256L34.2214 22.4447L34.386 22.6175L34.5505 22.7944H40.6314H46.7163L46.885 22.6258L47.0536 22.4571V20.9636V19.4701L46.8808 19.322L46.7081 19.1739H42.3141H37.9201V16.2528V13.3317H41.9644H46.0086L46.1814 13.1548L46.3542 12.9779V11.4968V10.0157L46.1773 9.84288L46.0004 9.67008H41.9602H37.9201V6.76955V3.86903H42.3058H46.6957L46.8726 3.72092L47.0536 3.57692V2.07935V0.58177L46.8808 0.417202L46.7039 0.252632H40.6149L34.5259 0.256746L34.3736 0.433659Z" fill="url(#paint2_linear_1_2773)"/>
<path d="M50.9282 0.42543L50.7554 0.598227V2.09169V3.58104L50.9241 3.73738L51.0969 3.8896L54.8943 3.91017L58.6917 3.93074L58.5272 4.21874C58.4325 4.37508 58.2351 4.74536 58.087 5.04158C57.7414 5.72866 57.1695 6.8107 56.7416 7.5924C56.3631 8.28359 56.1327 8.72381 56.1204 8.78552C56.1162 8.81021 56.0093 9.01592 55.8776 9.25043L55.6431 9.67008H53.8411H52.0391L51.8704 9.85933L51.7017 10.0527V11.5174V12.9779L51.8745 13.1548L52.0473 13.3317H52.9072H53.7629L53.5695 13.6897C53.4626 13.8913 53.3062 14.171 53.2239 14.3191C53.1375 14.4673 52.9113 14.891 52.722 15.2654C52.5286 15.6398 52.1255 16.3968 51.8251 16.9522C51.5248 17.5077 51.1051 18.2935 50.8994 18.7008C50.6937 19.1081 50.4839 19.5072 50.4345 19.5853C50.3481 19.7252 50.344 19.7664 50.344 21.087L50.3481 22.4447L50.5127 22.6216L50.6772 22.7944H56.9309H63.1845L63.3696 22.6216L63.5506 22.453V20.9554V19.4619L63.3819 19.3056L63.2092 19.1534L58.9797 19.1328L54.7462 19.1122L55.1371 18.3922C55.351 17.9973 55.6842 17.3678 55.8735 16.9934C56.3137 16.1212 57.0419 14.7347 57.4163 14.0517C57.5768 13.7555 57.7208 13.4757 57.7331 13.4222L57.7578 13.3317H59.5969H61.4359L61.6087 13.1548L61.7815 12.9779V11.5215V10.0609L61.6128 9.86756L61.4483 9.67008L60.5473 9.66185L59.6504 9.64951L59.9795 9.03237C60.1605 8.69089 60.4485 8.15605 60.6213 7.83925C60.7941 7.52246 61.0739 6.98349 61.2467 6.64613C61.4195 6.30465 61.7815 5.62169 62.0489 5.12387C62.3164 4.62605 62.662 3.976 62.8183 3.68389L63.094 3.14904V1.87363V0.598227L62.9294 0.421316L62.7648 0.248518H56.935L51.1051 0.252632L50.9282 0.42543Z" fill="url(#paint3_linear_1_2773)"/>
<path d="M66.274 0.466572C66.1999 0.585884 66.1423 0.705196 66.1423 0.729881C66.1423 0.754568 66.1876 0.87388 66.2411 0.993193C66.2946 1.11662 66.4139 1.39227 66.5044 1.60621C66.5949 1.82015 66.7759 2.21923 66.9035 2.49077C67.031 2.76231 67.2285 3.18607 67.3437 3.43704C67.4589 3.68389 67.6276 4.05417 67.7263 4.25988C67.8209 4.46148 67.9444 4.74125 68.0061 4.87701C68.3146 5.59289 68.6314 6.28819 69.4749 8.0861C69.5695 8.2877 69.7135 8.61272 69.7916 8.80609C69.8739 8.99946 70.1331 9.57134 70.3676 10.0815C71.0218 11.4803 71.4744 12.476 71.5114 12.5871C71.5278 12.6447 71.606 12.8175 71.6801 12.9779L71.82 13.2659V17.8574L71.8241 22.4447L71.9886 22.6175L72.1532 22.7944H73.6714H75.1936L75.3376 22.6381L75.4775 22.4859L75.4816 17.9109V13.34L75.6832 12.9121C76.0823 12.0646 76.6459 10.8385 76.6953 10.6986C76.7529 10.5382 77.0697 9.83465 77.2302 9.49728C77.4029 9.14757 78.3451 7.06989 78.4027 6.91355C78.4356 6.83538 78.6208 6.41985 78.8224 5.99608C79.0198 5.5682 79.1844 5.21438 79.1844 5.20615C79.1844 5.19792 79.3531 4.83587 79.5588 4.39565C79.7645 3.95954 79.9784 3.48641 80.0319 3.34653C80.0854 3.20664 80.2664 2.79522 80.4392 2.42905C80.6079 2.06289 80.7478 1.75844 80.7478 1.75021C80.7478 1.74198 80.8589 1.49924 80.9947 1.21536L81.2456 0.701082L81.1387 0.585884C81.0811 0.524172 81.0111 0.42543 80.9823 0.359602L80.9329 0.248518H79.2379C78.304 0.248518 77.5387 0.264975 77.5387 0.281433C77.5387 0.302004 77.4935 0.339031 77.4359 0.363716C77.3289 0.413088 76.9998 1.04668 76.7364 1.70907C76.6747 1.86541 76.5307 2.19043 76.4155 2.42905C76.3045 2.66768 76.1152 3.07499 75.9959 3.33418C75.8766 3.59338 75.6791 4.02126 75.5515 4.28045C75.2348 4.95107 75.0249 5.40363 75.0126 5.453C75.0002 5.50237 74.955 5.60523 74.5436 6.50213C74.3625 6.89709 74.0951 7.47309 73.9511 7.77754C73.803 8.08199 73.6755 8.36176 73.6631 8.39467C73.6426 8.45227 73.3587 7.90096 73.2805 7.65C73.264 7.59651 73.083 7.1892 72.8773 6.74898C72.1655 5.20204 71.6472 4.05006 71.532 3.76617C71.4702 3.60572 71.3016 3.22721 71.1617 2.92276C71.0218 2.61831 70.7626 2.05055 70.5857 1.66792C70.4088 1.28119 70.2072 0.840965 70.1372 0.68874C70.0508 0.507715 69.9727 0.392517 69.9068 0.363716C69.8492 0.339031 69.804 0.302004 69.804 0.281433C69.804 0.264975 69.0387 0.248518 68.1048 0.248518H66.4056L66.274 0.466572Z" fill="url(#paint4_linear_1_2773)"/>
<defs>
<linearGradient id="paint0_linear_1_2773" x1="7.66083" y1="22.7944" x2="7.66083" y2="0.24852" gradientUnits="userSpaceOnUse">
<stop stop-color="#E8F2F9"/>
<stop offset="1" stop-color="#A7B1B7"/>
</linearGradient>
<linearGradient id="paint1_linear_1_2773" x1="24.4253" y1="22.7944" x2="24.4253" y2="0.24852" gradientUnits="userSpaceOnUse">
<stop stop-color="#E8F2F9"/>
<stop offset="1" stop-color="#A7B1B7"/>
</linearGradient>
<linearGradient id="paint2_linear_1_2773" x1="40.6355" y1="22.7944" x2="40.6355" y2="0.252634" gradientUnits="userSpaceOnUse">
<stop stop-color="#E8F2F9"/>
<stop offset="1" stop-color="#A7B1B7"/>
</linearGradient>
<linearGradient id="paint3_linear_1_2773" x1="56.9473" y1="22.7944" x2="56.9473" y2="0.24852" gradientUnits="userSpaceOnUse">
<stop stop-color="#E8F2F9"/>
<stop offset="1" stop-color="#A7B1B7"/>
</linearGradient>
<linearGradient id="paint4_linear_1_2773" x1="73.694" y1="22.7944" x2="73.694" y2="0.24852" gradientUnits="userSpaceOnUse">
<stop stop-color="#E8F2F9"/>
<stop offset="1" stop-color="#A7B1B7"/>
</linearGradient>
</defs>
</svg>
