<svg width="18" height="18" viewBox="0 0 18 18" fill="none" xmlns="http://www.w3.org/2000/svg">
<path d="M15.7266 4.12677L10.7927 0.674762C9.44791 -0.267475 7.38355 -0.21608 6.09012 0.786117L1.79866 4.13534C0.942078 4.80347 0.265381 6.174 0.265381 7.25329V13.1637C0.265381 15.348 2.0385 17.1296 4.22278 17.1296H13.4567C15.641 17.1296 17.4141 15.3565 17.4141 13.1722V7.36464C17.4141 6.20826 16.6689 4.78634 15.7266 4.12677ZM9.48217 13.7033C9.48217 14.0545 9.19093 14.3458 8.83974 14.3458C8.48854 14.3458 8.1973 14.0545 8.1973 13.7033V11.1336C8.1973 10.7824 8.48854 10.4912 8.83974 10.4912C9.19093 10.4912 9.48217 10.7824 9.48217 11.1336V13.7033Z" fill="url(#paint0_linear_1_5053)"/>
<defs>
<linearGradient id="paint0_linear_1_5053" x1="12.4927" y1="-0.380659" x2="-3.73649" y2="6.51129" gradientUnits="userSpaceOnUse">
<stop stop-color="#0CC88B"/>
<stop offset="1" stop-color="#1D785B"/>
</linearGradient>
</defs>
</svg>
