<svg width="105" height="105" viewBox="0 0 105 105" fill="none" xmlns="http://www.w3.org/2000/svg">
<path d="M48.9789 0.662354C49.967 0.662354 50.768 1.4634 50.768 2.45151C50.768 3.43968 49.967 4.24067 48.9789 4.24067C47.9907 4.24067 47.1897 3.43968 47.1897 2.45151C47.1897 1.4634 47.9907 0.662354 48.9789 0.662354Z" fill="black"/>
<path d="M68.6655 2.45151C68.6655 2.8685 68.6655 4.24067 68.6655 4.24067C68.6655 4.24067 67.4475 4.24067 66.8763 4.24059C66.4303 4.24067 65.0872 4.24059 65.0872 4.24059C65.0872 4.24059 65.0872 2.99361 65.0872 2.45147C65.0872 1.4634 65.8882 0.662354 66.8763 0.662354C67.8644 0.662354 68.6655 1.4634 68.6655 2.45151Z" fill="black"/>
<path d="M29.2786 7.82783H32.8569V4.24951C30.8807 4.24952 29.2786 5.85155 29.2786 7.82783Z" fill="black"/>
<path d="M32.8718 4.24951V7.82783H36.4501C36.4501 5.85155 34.8481 4.24951 32.8718 4.24951Z" fill="black"/>
<path d="M41.8119 4.24731C42.2289 4.24731 43.601 4.24731 43.601 4.24731C43.601 4.24731 43.601 5.46525 43.601 6.03647C43.601 6.48237 43.601 7.82563 43.601 7.82563C43.601 7.82563 42.3542 7.82563 41.8119 7.82563C40.8234 7.82563 40.0227 7.02424 40.0227 6.03647C40.0227 5.04859 40.8234 4.24731 41.8119 4.24731Z" fill="black"/>
<path d="M45.3871 7.82563C44.97 7.82563 43.5979 7.82563 43.5979 7.82563C43.5979 7.82563 43.5979 6.60752 43.5979 6.03647C43.5979 5.59044 43.5979 4.24731 43.5979 4.24731C43.5979 4.24731 44.845 4.24731 45.3871 4.24731C46.3751 4.24731 47.1762 5.04835 47.1762 6.03647C47.1762 7.02455 46.3751 7.82563 45.3871 7.82563Z" fill="black"/>
<path d="M61.4887 6.03647C61.4887 6.45346 61.4887 7.82563 61.4887 7.82563C61.4887 7.82563 60.2707 7.82563 59.6996 7.82555C59.2535 7.82563 57.9104 7.82555 57.9104 7.82555C57.9104 7.82555 57.9104 6.57857 57.9104 6.03643C57.9104 5.04836 58.7114 4.24731 59.6995 4.24731C60.6876 4.24731 61.4887 5.04836 61.4887 6.03647Z" fill="black"/>
<path d="M68.6655 4.24731H65.0872V7.82563H68.6655V4.24731Z" fill="black"/>
<path d="M74.0182 4.24731C75.0063 4.24731 75.8073 5.04836 75.8073 6.03647C75.8073 7.02464 75.0063 7.82563 74.0182 7.82563C73.03 7.82563 72.229 7.02464 72.229 6.03647C72.229 5.04836 73.03 4.24731 74.0182 4.24731Z" fill="black"/>
<path d="M32.8645 7.81689H29.2861V11.3952H32.8645V7.81689Z" fill="black"/>
<path d="M36.4501 7.81738H32.8718V11.3957C34.8481 11.3957 36.4501 9.79363 36.4501 7.81738Z" fill="black"/>
<path d="M56.1273 7.81689C56.5443 7.81689 57.9165 7.81689 57.9165 7.81689C57.9165 7.81689 57.9165 9.03483 57.9165 9.60605C57.9165 10.0519 57.9165 11.3952 57.9165 11.3952C57.9165 11.3952 56.6696 11.3952 56.1273 11.3952C55.1388 11.3952 54.3381 10.5938 54.3381 9.60605C54.3381 8.61817 55.1388 7.81689 56.1273 7.81689Z" fill="black"/>
<path d="M61.4816 7.81738H57.9033V11.3957C59.8796 11.3957 61.4816 9.79363 61.4816 7.81738Z" fill="black"/>
<path d="M68.644 11.3957V7.81738H65.0657C65.0657 9.79363 66.6677 11.3957 68.644 11.3957Z" fill="black"/>
<path d="M70.4454 11.3952C70.0284 11.3952 68.6562 11.3952 68.6562 11.3952C68.6562 11.3952 68.6562 10.1771 68.6562 9.60605C68.6562 9.16002 68.6562 7.81689 68.6562 7.81689C68.6562 7.81689 69.9034 7.81689 70.4454 7.81689C71.4335 7.81689 72.2346 8.61793 72.2346 9.60605C72.2346 10.5941 71.4335 11.3952 70.4454 11.3952Z" fill="black"/>
<path d="M29.2861 13.1878C29.2861 12.7708 29.2861 11.3987 29.2861 11.3987C29.2861 11.3987 30.5042 11.3987 31.0753 11.3987C31.5213 11.3987 32.8645 11.3987 32.8645 11.3987C32.8645 11.3987 32.8645 12.6458 32.8645 13.1878C32.8645 14.1759 32.0634 14.977 31.0753 14.977C30.0872 14.977 29.2861 14.1759 29.2861 13.1878Z" fill="black"/>
<path d="M40.0317 13.1878C40.0317 13.6048 40.0317 14.977 40.0317 14.977C40.0317 14.977 38.8137 14.977 38.2425 14.9769C37.7965 14.977 36.4534 14.9769 36.4534 14.9769C36.4534 14.9769 36.4534 13.7299 36.4534 13.1878C36.4534 12.1997 37.2544 11.3987 38.2425 11.3987C39.2306 11.3987 40.0317 12.1997 40.0317 13.1878Z" fill="black"/>
<path d="M48.9789 11.3987C49.967 11.3987 50.768 12.1997 50.768 13.1878C50.768 14.176 49.967 14.977 48.9789 14.977C47.9907 14.977 47.1897 14.176 47.1897 13.1878C47.1897 12.1997 47.9907 11.3987 48.9789 11.3987Z" fill="black"/>
<path d="M63.2877 11.3987C64.2759 11.3987 65.0769 12.1997 65.0769 13.1878C65.0769 14.176 64.2759 14.977 63.2877 14.977C62.2996 14.977 61.4985 14.176 61.4985 13.1878C61.4985 12.1997 62.2996 11.3987 63.2877 11.3987Z" fill="black"/>
<path d="M75.8073 13.1878C75.8073 13.6048 75.8073 14.977 75.8073 14.977C75.8073 14.977 74.5893 14.977 74.0182 14.9769C73.5721 14.977 72.229 14.9769 72.229 14.9769C72.229 14.9769 72.229 13.7299 72.229 13.1878C72.229 12.1997 73.03 11.3987 74.0181 11.3987C75.0062 11.3987 75.8073 12.1997 75.8073 13.1878Z" fill="black"/>
<path d="M34.6605 14.9709C35.0775 14.9709 36.4497 14.9709 36.4497 14.9709C36.4497 14.9709 36.4497 16.1889 36.4497 16.7601C36.4497 17.206 36.4497 18.5493 36.4497 18.5493C36.4497 18.5493 35.2028 18.5493 34.6605 18.5493C33.672 18.5493 32.8713 17.7479 32.8713 16.7601C32.8713 15.7722 33.672 14.9709 34.6605 14.9709Z" fill="black"/>
<path d="M40.0317 14.9683H36.4534V18.5466C38.4296 18.5466 40.0317 16.9445 40.0317 14.9683Z" fill="black"/>
<path d="M45.3871 14.9714C46.3752 14.9714 47.1762 15.7725 47.1762 16.7606C47.1762 17.7488 46.3752 18.5498 45.3871 18.5498C44.3989 18.5498 43.5979 17.7488 43.5979 16.7606C43.5979 15.7725 44.3989 14.9714 45.3871 14.9714Z" fill="black"/>
<path d="M52.5543 14.9709C53.5425 14.9709 54.3435 15.772 54.3435 16.7601C54.3435 17.7483 53.5425 18.5493 52.5543 18.5493C51.5662 18.5493 50.7651 17.7483 50.7651 16.7601C50.7651 15.772 51.5662 14.9709 52.5543 14.9709Z" fill="black"/>
<path d="M61.4887 16.7601C61.4887 17.1771 61.4887 18.5493 61.4887 18.5493C61.4887 18.5493 60.2707 18.5493 59.6996 18.5492C59.2535 18.5493 57.9104 18.5492 57.9104 18.5492C57.9104 18.5492 57.9104 17.3022 57.9104 16.7601C57.9104 15.772 58.7114 14.9709 59.6995 14.9709C60.6876 14.9709 61.4887 15.772 61.4887 16.7601Z" fill="black"/>
<path d="M66.8763 14.9709C67.2933 14.9709 68.6655 14.9709 68.6655 14.9709C68.6655 14.9709 68.6655 16.1889 68.6655 16.7601C68.6655 17.206 68.6655 18.5493 68.6655 18.5493C68.6655 18.5493 67.4187 18.5493 66.8763 18.5493C65.8878 18.5493 65.0872 17.7479 65.0872 16.7601C65.0872 15.7722 65.8878 14.9709 66.8763 14.9709Z" fill="black"/>
<path d="M72.2346 14.9709H68.6562V18.5493H72.2346V14.9709Z" fill="black"/>
<path d="M75.8076 14.9683H72.2292V18.5466C74.2055 18.5466 75.8076 16.9445 75.8076 14.9683Z" fill="black"/>
<path d="M41.8119 18.5652C42.8 18.5652 43.601 19.3662 43.601 20.3543C43.601 21.3425 42.8 22.1435 41.8119 22.1435C40.8237 22.1435 40.0227 21.3425 40.0227 20.3543C40.0227 19.3662 40.8237 18.5652 41.8119 18.5652Z" fill="black"/>
<path d="M48.9789 18.5652C49.967 18.5652 50.768 19.3662 50.768 20.3543C50.768 21.3425 49.967 22.1435 48.9789 22.1435C47.9907 22.1435 47.1897 21.3425 47.1897 20.3543C47.1897 19.3662 47.9907 18.5652 48.9789 18.5652Z" fill="black"/>
<path d="M61.4887 18.5652H57.9104V22.1435H61.4887V18.5652Z" fill="black"/>
<path d="M32.8645 23.9247C32.8645 24.3416 32.8645 25.7138 32.8645 25.7138C32.8645 25.7138 31.6464 25.7138 31.0753 25.7137C30.6293 25.7138 29.2861 25.7137 29.2861 25.7137C29.2861 25.7137 29.2861 24.4668 29.2861 23.9246C29.2862 22.9365 30.0872 22.1355 31.0752 22.1355C32.0634 22.1355 32.8645 22.9365 32.8645 23.9247Z" fill="black"/>
<path d="M40.0317 23.9247C40.0317 24.3416 40.0317 25.7138 40.0317 25.7138C40.0317 25.7138 38.8137 25.7138 38.2425 25.7137C37.7965 25.7138 36.4534 25.7137 36.4534 25.7137C36.4534 25.7137 36.4534 24.4668 36.4534 23.9246C36.4534 22.9365 37.2544 22.1355 38.2425 22.1355C39.2306 22.1355 40.0317 22.9365 40.0317 23.9247Z" fill="black"/>
<path d="M45.3871 22.1355C46.3752 22.1355 47.1762 22.9365 47.1762 23.9247C47.1762 24.9128 46.3752 25.7138 45.3871 25.7138C44.3989 25.7138 43.5979 24.9128 43.5979 23.9247C43.5979 22.9365 44.3989 22.1355 45.3871 22.1355Z" fill="black"/>
<path d="M54.3435 23.9247C54.3435 24.3416 54.3435 25.7138 54.3435 25.7138C54.3435 25.7138 53.1254 25.7138 52.5543 25.7137C52.1083 25.7138 50.7651 25.7137 50.7651 25.7137C50.7651 25.7137 50.7651 24.4668 50.7651 23.9246C50.7652 22.9365 51.5662 22.1355 52.5543 22.1355C53.5424 22.1355 54.3435 22.9365 54.3435 23.9247Z" fill="black"/>
<path d="M61.4887 22.1355H57.9104V25.7138H61.4887V22.1355Z" fill="black"/>
<path d="M66.8763 22.1355C67.8645 22.1355 68.6655 22.9365 68.6655 23.9247C68.6655 24.9128 67.8645 25.7138 66.8763 25.7138C65.8882 25.7138 65.0872 24.9128 65.0872 23.9247C65.0872 22.9365 65.8882 22.1355 66.8763 22.1355Z" fill="black"/>
<path d="M74.0182 22.1355C75.0063 22.1355 75.8073 22.9365 75.8073 23.9247C75.8073 24.9128 75.0063 25.7138 74.0182 25.7138C73.03 25.7138 72.229 24.9128 72.229 23.9247C72.229 22.9365 73.03 22.1355 74.0182 22.1355Z" fill="black"/>
<path d="M32.8645 25.72H29.2861V29.2983H32.8645V25.72Z" fill="black"/>
<path d="M40.0317 25.72H36.4534V29.2983H40.0317V25.72Z" fill="black"/>
<path d="M41.8119 29.2983C41.3948 29.2983 40.0227 29.2983 40.0227 29.2983C40.0227 29.2983 40.0227 28.0802 40.0227 27.5091C40.0227 27.0631 40.0227 25.72 40.0227 25.72C40.0227 25.72 41.2698 25.72 41.8119 25.72C42.7999 25.72 43.601 26.521 43.601 27.5091C43.601 28.4972 42.7999 29.2983 41.8119 29.2983Z" fill="black"/>
<path d="M54.3391 29.2961V25.7178H50.7607C50.7607 27.694 52.3628 29.2961 54.3391 29.2961Z" fill="black"/>
<path d="M57.9165 25.72H54.3381V29.2983H57.9165V25.72Z" fill="black"/>
<path d="M61.4816 25.7178H57.9033V29.2961C59.8796 29.2961 61.4816 27.694 61.4816 25.7178Z" fill="black"/>
<path d="M2.44809 29.2893C3.43626 29.2893 4.23725 30.0903 4.23725 31.0785C4.23725 32.0666 3.43626 32.8676 2.44809 32.8676C1.45998 32.8676 0.658936 32.0666 0.658936 31.0785C0.658936 30.0903 1.45998 29.2893 2.44809 29.2893Z" fill="black"/>
<path d="M23.9208 29.2893C24.9089 29.2893 25.7099 30.0903 25.7099 31.0785C25.7099 32.0666 24.9089 32.8676 23.9208 32.8676C22.9326 32.8676 22.1316 32.0666 22.1316 31.0785C22.1316 30.0903 22.9326 29.2893 23.9208 29.2893Z" fill="black"/>
<path d="M32.8569 32.8666V29.2883H29.2786C29.2786 31.2646 30.8806 32.8666 32.8569 32.8666Z" fill="black"/>
<path d="M36.4497 29.2893H32.8713V32.8676H36.4497V29.2893Z" fill="black"/>
<path d="M40.0317 29.2883H36.4534V32.8666C38.4296 32.8666 40.0317 31.2646 40.0317 29.2883Z" fill="black"/>
<path d="M63.2877 29.2893C64.2759 29.2893 65.0769 30.0903 65.0769 31.0785C65.0769 32.0666 64.2759 32.8676 63.2877 32.8676C62.2996 32.8676 61.4985 32.0666 61.4985 31.0785C61.4985 30.0903 62.2996 29.2893 63.2877 29.2893Z" fill="black"/>
<path d="M68.6514 32.8666H72.2297V29.2883C70.2535 29.2883 68.6514 30.8904 68.6514 32.8666Z" fill="black"/>
<path d="M75.8073 29.2893H72.229V32.8676H75.8073V29.2893Z" fill="black"/>
<path d="M79.3918 29.2893H75.8135V32.8676H79.3918V29.2893Z" fill="black"/>
<path d="M81.1729 32.8676C80.7559 32.8676 79.3838 32.8676 79.3838 32.8676C79.3838 32.8676 79.3838 31.6495 79.3838 31.0785C79.3838 30.6324 79.3838 29.2893 79.3838 29.2893C79.3838 29.2893 80.6309 29.2893 81.1729 29.2893C82.161 29.2893 82.9621 30.0903 82.9621 31.0785C82.9621 32.0665 82.161 32.8676 81.1729 32.8676Z" fill="black"/>
<path d="M91.9122 29.29C92.3292 29.29 93.7014 29.29 93.7014 29.29C93.7014 29.29 93.7014 30.508 93.7014 31.0792C93.7014 31.5251 93.7014 32.8684 93.7014 32.8684C93.7014 32.8684 92.4545 32.8684 91.9122 32.8684C90.9237 32.8684 90.123 32.067 90.123 31.0792C90.123 30.0913 90.9237 29.29 91.9122 29.29Z" fill="black"/>
<path d="M97.2832 29.2893H93.7048V32.8676H97.2832V29.2893Z" fill="black"/>
<path d="M97.2773 29.2883V32.8666H100.856C100.856 30.8904 99.2536 29.2883 97.2773 29.2883Z" fill="black"/>
<path d="M6.03257 32.8745C7.02073 32.8745 7.82173 33.6756 7.82173 34.6637C7.82173 35.6518 7.02073 36.4528 6.03257 36.4528C5.04445 36.4528 4.24341 35.6518 4.24341 34.6637C4.24341 33.6756 5.04445 32.8745 6.03257 32.8745Z" fill="black"/>
<path d="M20.3446 32.8745C21.3327 32.8745 22.1337 33.6756 22.1337 34.6637C22.1337 35.6518 21.3327 36.4528 20.3446 36.4528C19.3565 36.4528 18.5554 35.6518 18.5554 34.6637C18.5554 33.6756 19.3565 32.8745 20.3446 32.8745Z" fill="black"/>
<path d="M41.8119 32.8745C42.2289 32.8745 43.601 32.8745 43.601 32.8745C43.601 32.8745 43.601 34.0924 43.601 34.6637C43.601 35.1096 43.601 36.4528 43.601 36.4528C43.601 36.4528 42.3542 36.4528 41.8119 36.4528C40.8234 36.4528 40.0227 35.6514 40.0227 34.6637C40.0227 33.6758 40.8234 32.8745 41.8119 32.8745Z" fill="black"/>
<path d="M47.1762 32.8745H43.5979V36.4528H47.1762V32.8745Z" fill="black"/>
<path d="M50.768 32.8745H47.1897V36.4528H50.768V32.8745Z" fill="black"/>
<path d="M54.3435 32.8745H50.7651V36.4528H54.3435V32.8745Z" fill="black"/>
<path d="M54.334 32.8745V36.4528H57.9123C57.9123 34.4765 56.3102 32.8745 54.334 32.8745Z" fill="black"/>
<path d="M65.0657 36.4528H68.644V32.8745C66.6678 32.8745 65.0657 34.4766 65.0657 36.4528Z" fill="black"/>
<path d="M72.2297 32.8745H68.6514V36.4528C70.6276 36.4528 72.2297 34.8508 72.2297 32.8745Z" fill="black"/>
<path d="M82.9712 36.4528H86.5495V32.8745C84.5733 32.8745 82.9712 34.4766 82.9712 36.4528Z" fill="black"/>
<path d="M88.3302 36.4528C87.9132 36.4528 86.541 36.4528 86.541 36.4528C86.541 36.4528 86.541 35.2347 86.541 34.6637C86.541 34.2176 86.541 32.8745 86.541 32.8745C86.541 32.8745 87.7881 32.8745 88.3302 32.8745C89.3182 32.8745 90.1193 33.6755 90.1193 34.6637C90.1193 35.6517 89.3182 36.4528 88.3302 36.4528Z" fill="black"/>
<path d="M97.2814 36.4528V32.8745H93.7031C93.7031 34.8508 95.3052 36.4528 97.2814 36.4528Z" fill="black"/>
<path d="M100.856 32.8745H97.2773V36.4528C99.2536 36.4528 100.856 34.8508 100.856 32.8745Z" fill="black"/>
<path d="M4.23725 38.2489C4.23725 38.6659 4.23725 40.038 4.23725 40.038C4.23725 40.038 3.01924 40.038 2.44809 40.0379C2.00206 40.038 0.658936 40.0379 0.658936 40.0379C0.658936 40.0379 0.658936 38.791 0.658936 38.2488C0.658978 37.2608 1.45997 36.4597 2.44805 36.4597C3.43617 36.4597 4.23725 37.2608 4.23725 38.2489Z" fill="black"/>
<path d="M11.3947 38.2489C11.3947 38.6659 11.3947 40.038 11.3947 40.038C11.3947 40.038 10.1767 40.038 9.60557 40.0379C9.15954 40.038 7.81641 40.0379 7.81641 40.0379C7.81641 40.0379 7.81641 38.791 7.81641 38.2488C7.81645 37.2608 8.61744 36.4597 9.60552 36.4597C10.5936 36.4597 11.3947 37.2608 11.3947 38.2489Z" fill="black"/>
<path d="M16.7628 36.4597C17.751 36.4597 18.552 37.2608 18.552 38.2489C18.552 39.237 17.751 40.038 16.7628 40.038C15.7747 40.038 14.9736 39.237 14.9736 38.2489C14.9736 37.2608 15.7747 36.4597 16.7628 36.4597Z" fill="black"/>
<path d="M23.9208 36.4597C24.3378 36.4597 25.7099 36.4597 25.7099 36.4597C25.7099 36.4597 25.7099 37.6776 25.7099 38.2489C25.7099 38.6948 25.7099 40.038 25.7099 40.038C25.7099 40.038 24.4631 40.038 23.9208 40.038C22.9323 40.038 22.1316 39.2366 22.1316 38.2489C22.1316 37.261 22.9323 36.4597 23.9208 36.4597Z" fill="black"/>
<path d="M27.5025 40.038C27.0855 40.038 25.7134 40.038 25.7134 40.038C25.7134 40.038 25.7134 38.8199 25.7134 38.2489C25.7134 37.8028 25.7134 36.4597 25.7134 36.4597C25.7134 36.4597 26.9605 36.4597 27.5025 36.4597C28.4906 36.4597 29.2917 37.2608 29.2917 38.2489C29.2917 39.2369 28.4906 40.038 27.5025 40.038Z" fill="black"/>
<path d="M47.1762 36.4597H43.5979V40.038H47.1762V36.4597Z" fill="black"/>
<path d="M50.768 36.4597H47.1897V40.038H50.768V36.4597Z" fill="black"/>
<path d="M54.3435 36.4597H50.7651V40.038H54.3435V36.4597Z" fill="black"/>
<path d="M57.9165 36.4597H54.3381V40.038H57.9165V36.4597Z" fill="black"/>
<path d="M63.2877 36.4597C63.7047 36.4597 65.0769 36.4597 65.0769 36.4597C65.0769 36.4597 65.0769 37.6776 65.0769 38.2489C65.0769 38.6948 65.0769 40.038 65.0769 40.038C65.0769 40.038 63.83 40.038 63.2877 40.038C62.2992 40.038 61.4985 39.2366 61.4985 38.2489C61.4985 37.261 62.2992 36.4597 63.2877 36.4597Z" fill="black"/>
<path d="M68.644 36.4561H65.0657V40.0344C67.0419 40.0344 68.644 38.4323 68.644 36.4561Z" fill="black"/>
<path d="M79.3843 40.0344H82.9626V36.4561C80.9864 36.4561 79.3843 38.0581 79.3843 40.0344Z" fill="black"/>
<path d="M86.5495 36.4561H82.9712V40.0344C84.9474 40.0344 86.5495 38.4323 86.5495 36.4561Z" fill="black"/>
<path d="M4.23847 43.6037V40.0254H0.660156C0.660163 42.0016 2.26219 43.6037 4.23847 43.6037Z" fill="black"/>
<path d="M7.82173 40.0259H4.24341V43.6042H7.82173V40.0259Z" fill="black"/>
<path d="M11.3947 40.0259H7.81641V43.6042H11.3947V40.0259Z" fill="black"/>
<path d="M20.3446 40.0259C21.3327 40.0259 22.1337 40.8269 22.1337 41.815C22.1337 42.8032 21.3327 43.6042 20.3446 43.6042C19.3565 43.6042 18.5554 42.8032 18.5554 41.815C18.5554 40.8269 19.3565 40.0259 20.3446 40.0259Z" fill="black"/>
<path d="M34.6605 40.0259C35.0775 40.0259 36.4497 40.0259 36.4497 40.0259C36.4497 40.0259 36.4497 41.2438 36.4497 41.815C36.4497 42.2609 36.4497 43.6042 36.4497 43.6042C36.4497 43.6042 35.2028 43.6042 34.6605 43.6042C33.672 43.6042 32.8713 42.8028 32.8713 41.815C32.8713 40.8272 33.672 40.0259 34.6605 40.0259Z" fill="black"/>
<path d="M40.0317 40.0259H36.4534V43.6042H40.0317V40.0259Z" fill="black"/>
<path d="M43.601 40.0259H40.0227V43.6042H43.601V40.0259Z" fill="black"/>
<path d="M47.1762 40.0259H43.5979V43.6042H47.1762V40.0259Z" fill="black"/>
<path d="M50.768 40.0259H47.1897V43.6042H50.768V40.0259Z" fill="black"/>
<path d="M57.9165 40.0259H54.3381V43.6042H57.9165V40.0259Z" fill="black"/>
<path d="M74.0182 40.0259C74.4352 40.0259 75.8073 40.0259 75.8073 40.0259C75.8073 40.0259 75.8073 41.2438 75.8073 41.815C75.8073 42.2609 75.8073 43.6042 75.8073 43.6042C75.8073 43.6042 74.5605 43.6042 74.0182 43.6042C73.0297 43.6042 72.229 42.8028 72.229 41.815C72.229 40.8272 73.0297 40.0259 74.0182 40.0259Z" fill="black"/>
<path d="M79.3918 40.0259H75.8135V43.6042H79.3918V40.0259Z" fill="black"/>
<path d="M82.9621 40.0259H79.3838V43.6042H82.9621V40.0259Z" fill="black"/>
<path d="M88.3302 40.0259C88.7472 40.0259 90.1193 40.0259 90.1193 40.0259C90.1193 40.0259 90.1193 41.2438 90.1193 41.815C90.1193 42.2609 90.1193 43.6042 90.1193 43.6042C90.1193 43.6042 88.8725 43.6042 88.3302 43.6042C87.3417 43.6042 86.541 42.8028 86.541 41.815C86.541 40.8272 87.3417 40.0259 88.3302 40.0259Z" fill="black"/>
<path d="M91.9122 43.6042C91.4952 43.6042 90.123 43.6042 90.123 43.6042C90.123 43.6042 90.123 42.3861 90.123 41.815C90.123 41.369 90.123 40.0259 90.123 40.0259C90.123 40.0259 91.3702 40.0259 91.9122 40.0259C92.9003 40.0259 93.7014 40.8269 93.7014 41.815C93.7014 42.8031 92.9003 43.6042 91.9122 43.6042Z" fill="black"/>
<path d="M11.3947 43.5989H7.81641V47.1772H11.3947V43.5989Z" fill="black"/>
<path d="M14.9799 43.5989H11.4016V47.1772H14.9799V43.5989Z" fill="black"/>
<path d="M14.967 43.5945V47.1728H18.5454C18.5454 45.1965 16.9433 43.5945 14.967 43.5945Z" fill="black"/>
<path d="M23.9208 43.5989C24.9089 43.5989 25.7099 44.3999 25.7099 45.388C25.7099 46.3762 24.9089 47.1772 23.9208 47.1772C22.9326 47.1772 22.1316 46.3762 22.1316 45.388C22.1316 44.3999 22.9326 43.5989 23.9208 43.5989Z" fill="black"/>
<path d="M31.0753 43.5989C32.0635 43.5989 32.8645 44.3999 32.8645 45.388C32.8645 46.3762 32.0635 47.1772 31.0753 47.1772C30.0872 47.1772 29.2861 46.3762 29.2861 45.388C29.2861 44.3999 30.0872 43.5989 31.0753 43.5989Z" fill="black"/>
<path d="M43.601 43.5989H40.0227V47.1772H43.601V43.5989Z" fill="black"/>
<path d="M47.1762 43.5989H43.5979V47.1772H47.1762V43.5989Z" fill="black"/>
<path d="M50.77 43.5945H47.1917V47.1728C49.1679 47.1728 50.77 45.5707 50.77 43.5945Z" fill="black"/>
<path d="M57.9165 43.5989H54.3381V47.1772H57.9165V43.5989Z" fill="black"/>
<path d="M72.2346 45.388C72.2346 45.805 72.2346 47.1772 72.2346 47.1772C72.2346 47.1772 71.0166 47.1772 70.4454 47.1771C69.9994 47.1772 68.6562 47.1771 68.6562 47.1771C68.6562 47.1771 68.6562 45.9301 68.6562 45.388C68.6563 44.3999 69.4573 43.5989 70.4454 43.5989C71.4335 43.5989 72.2346 44.3999 72.2346 45.388Z" fill="black"/>
<path d="M82.9621 43.5989H79.3838V47.1772H82.9621V43.5989Z" fill="black"/>
<path d="M82.9712 43.5945V47.1728H86.5495C86.5495 45.1965 84.9474 43.5945 82.9712 43.5945Z" fill="black"/>
<path d="M104.435 45.388C104.435 45.805 104.435 47.1772 104.435 47.1772C104.435 47.1772 103.217 47.1772 102.646 47.1771C102.2 47.1772 100.857 47.1771 100.857 47.1771C100.857 47.1771 100.857 45.9301 100.857 45.388C100.857 44.3999 101.658 43.5989 102.646 43.5989C103.634 43.5989 104.435 44.3999 104.435 45.388Z" fill="black"/>
<path d="M2.44809 47.1873C3.43626 47.1873 4.23725 47.9883 4.23725 48.9764C4.23725 49.9646 3.43626 50.7656 2.44809 50.7656C1.45998 50.7656 0.658936 49.9646 0.658936 48.9764C0.658936 47.9883 1.45998 47.1873 2.44809 47.1873Z" fill="black"/>
<path d="M7.81641 48.9764C7.81641 48.5594 7.81641 47.1873 7.81641 47.1873C7.81641 47.1873 9.03447 47.1873 9.60557 47.1873C10.0516 47.1873 11.3947 47.1873 11.3947 47.1873C11.3947 47.1873 11.3947 48.4344 11.3947 48.9764C11.3947 49.9645 10.5936 50.7656 9.60557 50.7656C8.61744 50.7656 7.81641 49.9645 7.81641 48.9764Z" fill="black"/>
<path d="M18.552 47.1873H14.9736V50.7656H18.552V47.1873Z" fill="black"/>
<path d="M29.2917 48.9764C29.2917 49.3934 29.2917 50.7656 29.2917 50.7656C29.2917 50.7656 28.0737 50.7656 27.5025 50.7655C27.0565 50.7656 25.7134 50.7655 25.7134 50.7655C25.7134 50.7655 25.7134 49.5185 25.7134 48.9764C25.7134 47.9883 26.5144 47.1873 27.5025 47.1873C28.4906 47.1873 29.2917 47.9883 29.2917 48.9764Z" fill="black"/>
<path d="M36.4534 50.7658H40.0317V47.1875C38.0555 47.1875 36.4534 48.7895 36.4534 50.7658Z" fill="black"/>
<path d="M43.601 47.1873H40.0227V50.7656H43.601V47.1873Z" fill="black"/>
<path d="M47.1706 47.1875H43.5923V50.7658C45.5685 50.7658 47.1706 49.1637 47.1706 47.1875Z" fill="black"/>
<path d="M57.9165 47.1873H54.3381V50.7656H57.9165V47.1873Z" fill="black"/>
<path d="M61.4887 47.1873H57.9104V50.7656H61.4887V47.1873Z" fill="black"/>
<path d="M65.0769 47.1873H61.4985V50.7656H65.0769V47.1873Z" fill="black"/>
<path d="M68.6655 47.1873H65.0872V50.7656H68.6655V47.1873Z" fill="black"/>
<path d="M72.2346 47.1873H68.6562V50.7656H72.2346V47.1873Z" fill="black"/>
<path d="M72.2292 47.1875V50.7658H75.8076C75.8076 48.7895 74.2055 47.1875 72.2292 47.1875Z" fill="black"/>
<path d="M82.9621 47.1873H79.3838V50.7656H82.9621V47.1873Z" fill="black"/>
<path d="M86.5498 47.1873H82.9714V50.7656H86.5498V47.1873Z" fill="black"/>
<path d="M88.3302 50.7656C87.9132 50.7656 86.541 50.7656 86.541 50.7656C86.541 50.7656 86.541 49.5475 86.541 48.9764C86.541 48.5304 86.541 47.1873 86.541 47.1873C86.541 47.1873 87.7881 47.1873 88.3302 47.1873C89.3182 47.1873 90.1193 47.9883 90.1193 48.9764C90.1193 49.9645 89.3182 50.7656 88.3302 50.7656Z" fill="black"/>
<path d="M99.0736 47.1873C99.4906 47.1873 100.863 47.1873 100.863 47.1873C100.863 47.1873 100.863 48.4052 100.863 48.9764C100.863 49.4223 100.863 50.7656 100.863 50.7656C100.863 50.7656 99.6159 50.7656 99.0736 50.7656C98.0851 50.7656 97.2844 49.9642 97.2844 48.9764C97.2844 47.9885 98.0851 47.1873 99.0736 47.1873Z" fill="black"/>
<path d="M104.436 47.1875H100.858V50.7658C102.834 50.7658 104.436 49.1637 104.436 47.1875Z" fill="black"/>
<path d="M7.82173 52.5584C7.82173 52.9754 7.82173 54.3476 7.82173 54.3476C7.82173 54.3476 6.60371 54.3476 6.03257 54.3475C5.58654 54.3476 4.24341 54.3475 4.24341 54.3475C4.24341 54.3475 4.24341 53.1005 4.24341 52.5584C4.24345 51.5703 5.04444 50.7693 6.03252 50.7693C7.02064 50.7693 7.82173 51.5703 7.82173 52.5584Z" fill="black"/>
<path d="M11.4111 54.3515H14.9895V50.7732C13.0132 50.7732 11.4111 52.3752 11.4111 54.3515Z" fill="black"/>
<path d="M18.552 50.7693H14.9736V54.3476H18.552V50.7693Z" fill="black"/>
<path d="M22.1337 50.7693H18.5554V54.3476H22.1337V50.7693Z" fill="black"/>
<path d="M25.7099 50.7693H22.1316V54.3476H25.7099V50.7693Z" fill="black"/>
<path d="M29.2917 50.7693H25.7134V54.3476H29.2917V50.7693Z" fill="black"/>
<path d="M31.0753 54.3476C30.6583 54.3476 29.2861 54.3476 29.2861 54.3476C29.2861 54.3476 29.2861 53.1295 29.2861 52.5584C29.2861 52.1124 29.2861 50.7693 29.2861 50.7693C29.2861 50.7693 30.5333 50.7693 31.0753 50.7693C32.0634 50.7693 32.8645 51.5703 32.8645 52.5584C32.8645 53.5465 32.0634 54.3476 31.0753 54.3476Z" fill="black"/>
<path d="M36.4534 52.5584C36.4534 52.1414 36.4534 50.7693 36.4534 50.7693C36.4534 50.7693 37.6714 50.7693 38.2425 50.7693C38.6886 50.7693 40.0317 50.7693 40.0317 50.7693C40.0317 50.7693 40.0317 52.0164 40.0317 52.5584C40.0317 53.5465 39.2306 54.3476 38.2425 54.3476C37.2544 54.3476 36.4534 53.5465 36.4534 52.5584Z" fill="black"/>
<path d="M57.9165 50.7693H54.3381V54.3476H57.9165V50.7693Z" fill="black"/>
<path d="M61.4887 50.7693H57.9104V54.3476H61.4887V50.7693Z" fill="black"/>
<path d="M65.0769 50.7693H61.4985V54.3476H65.0769V50.7693Z" fill="black"/>
<path d="M68.644 50.7732H65.0657V54.3515C67.0419 54.3515 68.644 52.7494 68.644 50.7732Z" fill="black"/>
<path d="M75.8073 50.7693H72.229V54.3476H75.8073V50.7693Z" fill="black"/>
<path d="M82.9621 50.7693H79.3838V54.3476H82.9621V50.7693Z" fill="black"/>
<path d="M91.9122 50.7659C92.3292 50.7659 93.7014 50.7659 93.7014 50.7659C93.7014 50.7659 93.7014 51.9838 93.7014 52.555C93.7014 53.0009 93.7014 54.3442 93.7014 54.3442C93.7014 54.3442 92.4545 54.3442 91.9122 54.3442C90.9237 54.3442 90.123 53.5428 90.123 52.555C90.123 51.5671 90.9237 50.7659 91.9122 50.7659Z" fill="black"/>
<path d="M93.7031 50.7732V54.3515H97.2814C97.2814 52.3752 95.6794 50.7732 93.7031 50.7732Z" fill="black"/>
<path d="M7.82173 54.3411H4.24341V57.9194H7.82173V54.3411Z" fill="black"/>
<path d="M11.3947 54.3411H7.81641V57.9194H11.3947V54.3411Z" fill="black"/>
<path d="M14.9799 54.3411H11.4016V57.9194H14.9799V54.3411Z" fill="black"/>
<path d="M25.7134 56.1302C25.7134 55.7132 25.7134 54.3411 25.7134 54.3411C25.7134 54.3411 26.9314 54.3411 27.5025 54.3411C27.9486 54.3411 29.2917 54.3411 29.2917 54.3411C29.2917 54.3411 29.2917 55.5882 29.2917 56.1302C29.2917 57.1183 28.4906 57.9194 27.5025 57.9194C26.5144 57.9194 25.7134 57.1183 25.7134 56.1302Z" fill="black"/>
<path d="M34.6605 54.3411C35.6487 54.3411 36.4497 55.1421 36.4497 56.1302C36.4497 57.1184 35.6487 57.9194 34.6605 57.9194C33.6724 57.9194 32.8713 57.1184 32.8713 56.1302C32.8713 55.1421 33.6724 54.3411 34.6605 54.3411Z" fill="black"/>
<path d="M43.601 56.1302C43.601 56.5472 43.601 57.9194 43.601 57.9194C43.601 57.9194 42.383 57.9194 41.8119 57.9193C41.3658 57.9194 40.0227 57.9193 40.0227 57.9193C40.0227 57.9193 40.0227 56.6723 40.0227 56.1302C40.0227 55.1421 40.8237 54.3411 41.8118 54.3411C42.7999 54.3411 43.601 55.1421 43.601 56.1302Z" fill="black"/>
<path d="M57.9165 54.3411H54.3381V57.9194H57.9165V54.3411Z" fill="black"/>
<path d="M75.8076 57.9208V54.3425H72.2292C72.2293 56.3188 73.8313 57.9208 75.8076 57.9208Z" fill="black"/>
<path d="M79.3918 54.3411H75.8135V57.9194H79.3918V54.3411Z" fill="black"/>
<path d="M82.9621 54.3411H79.3838V57.9194H82.9621V54.3411Z" fill="black"/>
<path d="M84.7606 57.9194C84.3436 57.9194 82.9714 57.9194 82.9714 57.9194C82.9714 57.9194 82.9714 56.7013 82.9714 56.1302C82.9714 55.6842 82.9714 54.3411 82.9714 54.3411C82.9714 54.3411 84.2186 54.3411 84.7606 54.3411C85.7487 54.3411 86.5498 55.1421 86.5498 56.1302C86.5498 57.1183 85.7487 57.9194 84.7606 57.9194Z" fill="black"/>
<path d="M97.2832 54.3411H93.7048V57.9194H97.2832V54.3411Z" fill="black"/>
<path d="M102.646 54.3411C103.634 54.3411 104.435 55.1421 104.435 56.1302C104.435 57.1184 103.634 57.9194 102.646 57.9194C101.658 57.9194 100.857 57.1184 100.857 56.1302C100.857 55.1421 101.658 54.3411 102.646 54.3411Z" fill="black"/>
<path d="M4.24341 59.6939C4.24341 59.2769 4.24341 57.9048 4.24341 57.9048C4.24341 57.9048 5.46147 57.9048 6.03257 57.9048C6.4786 57.9048 7.82173 57.9048 7.82173 57.9048C7.82173 57.9048 7.82173 59.1519 7.82173 59.6939C7.82173 60.682 7.02064 61.4831 6.03257 61.4831C5.04444 61.4831 4.24341 60.682 4.24341 59.6939Z" fill="black"/>
<path d="M14.9799 57.9048H11.4016V61.4831H14.9799V57.9048Z" fill="black"/>
<path d="M23.9208 57.9048C24.9089 57.9048 25.7099 58.7058 25.7099 59.6939C25.7099 60.6821 24.9089 61.4831 23.9208 61.4831C22.9326 61.4831 22.1316 60.6821 22.1316 59.6939C22.1316 58.7058 22.9326 57.9048 23.9208 57.9048Z" fill="black"/>
<path d="M43.601 61.4899V57.9116H40.0227C40.0227 59.8879 41.6247 61.4899 43.601 61.4899Z" fill="black"/>
<path d="M43.5923 57.9116V61.4899H47.1706C47.1706 59.5137 45.5685 57.9116 43.5923 57.9116Z" fill="black"/>
<path d="M57.9165 57.9048H54.3381V61.4831H57.9165V57.9048Z" fill="black"/>
<path d="M61.4963 61.4899H65.0747V57.9116C63.0984 57.9116 61.4963 59.5137 61.4963 61.4899Z" fill="black"/>
<path d="M68.6655 57.9048H65.0872V61.4831H68.6655V57.9048Z" fill="black"/>
<path d="M68.6514 57.9116V61.4899H72.2297C72.2297 59.5137 70.6276 57.9116 68.6514 57.9116Z" fill="black"/>
<path d="M75.8135 59.6939C75.8135 59.2769 75.8135 57.9048 75.8135 57.9048C75.8135 57.9048 77.0315 57.9048 77.6026 57.9048C78.0487 57.9048 79.3918 57.9048 79.3918 57.9048C79.3918 57.9048 79.3918 59.1519 79.3918 59.6939C79.3918 60.682 78.5907 61.4831 77.6026 61.4831C76.6145 61.4831 75.8135 60.682 75.8135 59.6939Z" fill="black"/>
<path d="M91.9122 57.9048C92.3292 57.9048 93.7014 57.9048 93.7014 57.9048C93.7014 57.9048 93.7014 59.1227 93.7014 59.6939C93.7014 60.1398 93.7014 61.4831 93.7014 61.4831C93.7014 61.4831 92.4545 61.4831 91.9122 61.4831C90.9237 61.4831 90.123 60.6817 90.123 59.6939C90.123 58.7061 90.9237 57.9048 91.9122 57.9048Z" fill="black"/>
<path d="M97.2832 57.9048H93.7048V61.4831H97.2832V57.9048Z" fill="black"/>
<path d="M4.23725 63.2916C4.23725 63.7086 4.23725 65.0808 4.23725 65.0808C4.23725 65.0808 3.01924 65.0808 2.44809 65.0807C2.00206 65.0808 0.658936 65.0807 0.658936 65.0807C0.658936 65.0807 0.658936 63.8337 0.658936 63.2916C0.658978 62.3035 1.45997 61.5024 2.44805 61.5024C3.43617 61.5024 4.23725 62.3035 4.23725 63.2916Z" fill="black"/>
<path d="M11.4016 63.2916C11.4016 62.8746 11.4016 61.5024 11.4016 61.5024C11.4016 61.5024 12.6197 61.5024 13.1908 61.5024C13.6368 61.5024 14.9799 61.5024 14.9799 61.5024C14.9799 61.5024 14.9799 62.7496 14.9799 63.2916C14.9799 64.2797 14.1788 65.0808 13.1908 65.0808C12.2026 65.0808 11.4016 64.2797 11.4016 63.2916Z" fill="black"/>
<path d="M20.3446 61.5024C21.3327 61.5024 22.1337 62.3035 22.1337 63.2916C22.1337 64.2798 21.3327 65.0808 20.3446 65.0808C19.3565 65.0808 18.5554 64.2798 18.5554 63.2916C18.5554 62.3035 19.3565 61.5024 20.3446 61.5024Z" fill="black"/>
<path d="M29.2786 65.0756H32.8569V61.4973C30.8807 61.4973 29.2786 63.0994 29.2786 65.0756Z" fill="black"/>
<path d="M34.6605 65.0808C34.2435 65.0808 32.8713 65.0808 32.8713 65.0808C32.8713 65.0808 32.8713 63.8627 32.8713 63.2916C32.8713 62.8456 32.8713 61.5024 32.8713 61.5024C32.8713 61.5024 34.1185 61.5024 34.6605 61.5024C35.6486 61.5024 36.4497 62.3035 36.4497 63.2916C36.4497 64.2797 35.6486 65.0808 34.6605 65.0808Z" fill="black"/>
<path d="M47.1762 61.5024H43.5979V65.0808H47.1762V61.5024Z" fill="black"/>
<path d="M50.768 61.5024H47.1897V65.0808H50.768V61.5024Z" fill="black"/>
<path d="M54.3435 61.5024H50.7651V65.0808H54.3435V61.5024Z" fill="black"/>
<path d="M57.9165 61.5024H54.3381V65.0808H57.9165V61.5024Z" fill="black"/>
<path d="M61.4887 61.5024H57.9104V65.0808H61.4887V61.5024Z" fill="black"/>
<path d="M65.0747 61.4973H61.4963V65.0756C63.4726 65.0756 65.0747 63.4736 65.0747 61.4973Z" fill="black"/>
<path d="M72.2346 61.5024H68.6562V65.0808H72.2346V61.5024Z" fill="black"/>
<path d="M74.0182 65.0808C73.6011 65.0808 72.229 65.0808 72.229 65.0808C72.229 65.0808 72.229 63.8627 72.229 63.2916C72.229 62.8456 72.229 61.5024 72.229 61.5024C72.229 61.5024 73.4761 61.5024 74.0182 61.5024C75.0062 61.5024 75.8073 62.3035 75.8073 63.2916C75.8073 64.2797 75.0062 65.0808 74.0182 65.0808Z" fill="black"/>
<path d="M81.1729 61.5024C82.1611 61.5024 82.9621 62.3035 82.9621 63.2916C82.9621 64.2798 82.1611 65.0808 81.1729 65.0808C80.1848 65.0808 79.3838 64.2798 79.3838 63.2916C79.3838 62.3035 80.1848 61.5024 81.1729 61.5024Z" fill="black"/>
<path d="M88.3302 61.5024C89.3183 61.5024 90.1193 62.3035 90.1193 63.2916C90.1193 64.2798 89.3183 65.0808 88.3302 65.0808C87.3421 65.0808 86.541 64.2798 86.541 63.2916C86.541 62.3035 87.3421 61.5024 88.3302 61.5024Z" fill="black"/>
<path d="M97.2814 65.0756V61.4973H93.7031C93.7031 63.4736 95.3052 65.0756 97.2814 65.0756Z" fill="black"/>
<path d="M100.863 61.5024H97.2844V65.0808H100.863V61.5024Z" fill="black"/>
<path d="M100.858 61.4973V65.0756H104.436C104.436 63.0993 102.834 61.4973 100.858 61.4973Z" fill="black"/>
<path d="M4.23725 65.0776H0.658936V68.656H4.23725V65.0776Z" fill="black"/>
<path d="M7.82173 65.0776H4.24341V68.656H7.82173V65.0776Z" fill="black"/>
<path d="M9.60557 68.656C9.18854 68.656 7.81641 68.656 7.81641 68.656C7.81641 68.656 7.81641 67.4378 7.81641 66.8668C7.81641 66.4208 7.81641 65.0776 7.81641 65.0776C7.81641 65.0776 9.06353 65.0776 9.60557 65.0776C10.5936 65.0776 11.3947 65.8787 11.3947 66.8668C11.3947 67.8549 10.5936 68.656 9.60557 68.656Z" fill="black"/>
<path d="M18.552 66.8668C18.552 67.2838 18.552 68.656 18.552 68.656C18.552 68.656 17.3339 68.656 16.7628 68.6559C16.3168 68.656 14.9736 68.6559 14.9736 68.6559C14.9736 68.6559 14.9736 67.4089 14.9736 66.8668C14.9737 65.8787 15.7747 65.0776 16.7627 65.0776C17.7509 65.0776 18.552 65.8787 18.552 66.8668Z" fill="black"/>
<path d="M23.9208 65.0776C24.3378 65.0776 25.7099 65.0776 25.7099 65.0776C25.7099 65.0776 25.7099 66.2956 25.7099 66.8668C25.7099 67.3127 25.7099 68.656 25.7099 68.656C25.7099 68.656 24.4631 68.656 23.9208 68.656C22.9323 68.656 22.1316 67.8546 22.1316 66.8668C22.1316 65.8789 22.9323 65.0776 23.9208 65.0776Z" fill="black"/>
<path d="M29.2917 65.0776H25.7134V68.656H29.2917V65.0776Z" fill="black"/>
<path d="M32.8645 65.0776H29.2861V68.656H32.8645V65.0776Z" fill="black"/>
<path d="M40.0227 68.6577H43.601V65.0793C41.6248 65.0794 40.0227 66.6814 40.0227 68.6577Z" fill="black"/>
<path d="M47.1706 65.0793H43.5923V68.6577C45.5685 68.6577 47.1706 67.0556 47.1706 65.0793Z" fill="black"/>
<path d="M54.3381 66.8668C54.3381 66.4498 54.3381 65.0776 54.3381 65.0776C54.3381 65.0776 55.5562 65.0776 56.1273 65.0776C56.5733 65.0776 57.9165 65.0776 57.9165 65.0776C57.9165 65.0776 57.9165 66.3248 57.9165 66.8668C57.9165 67.8549 57.1154 68.656 56.1273 68.656C55.1392 68.656 54.3381 67.8549 54.3381 66.8668Z" fill="black"/>
<path d="M72.2346 65.0776H68.6562V68.656H72.2346V65.0776Z" fill="black"/>
<path d="M91.9122 65.0776C92.9004 65.0776 93.7014 65.8787 93.7014 66.8668C93.7014 67.855 92.9004 68.656 91.9122 68.656C90.9241 68.656 90.123 67.855 90.123 66.8668C90.123 65.8787 90.9241 65.0776 91.9122 65.0776Z" fill="black"/>
<path d="M100.857 66.8668C100.857 66.4498 100.857 65.0776 100.857 65.0776C100.857 65.0776 102.075 65.0776 102.646 65.0776C103.092 65.0776 104.435 65.0776 104.435 65.0776C104.435 65.0776 104.435 66.3248 104.435 66.8668C104.435 67.8549 103.634 68.656 102.646 68.656C101.658 68.656 100.857 67.8549 100.857 66.8668Z" fill="black"/>
<path d="M4.23725 68.647H0.658936V72.2253H4.23725V68.647Z" fill="black"/>
<path d="M18.552 68.647H14.9736V72.2253H18.552V68.647Z" fill="black"/>
<path d="M32.8569 72.2319V68.6536H29.2786C29.2786 70.6298 30.8806 72.2319 32.8569 72.2319Z" fill="black"/>
<path d="M34.6605 72.2253C34.2435 72.2253 32.8713 72.2253 32.8713 72.2253C32.8713 72.2253 32.8713 71.0072 32.8713 70.4361C32.8713 69.9901 32.8713 68.647 32.8713 68.647C32.8713 68.647 34.1185 68.647 34.6605 68.647C35.6486 68.647 36.4497 69.448 36.4497 70.4361C36.4497 71.4242 35.6486 72.2253 34.6605 72.2253Z" fill="black"/>
<path d="M43.601 68.647H40.0227V72.2253H43.601V68.647Z" fill="black"/>
<path d="M48.9789 68.647C49.967 68.647 50.768 69.448 50.768 70.4361C50.768 71.4243 49.967 72.2253 48.9789 72.2253C47.9907 72.2253 47.1897 71.4243 47.1897 70.4361C47.1897 69.448 47.9907 68.647 48.9789 68.647Z" fill="black"/>
<path d="M61.4887 70.4361C61.4887 70.8531 61.4887 72.2253 61.4887 72.2253C61.4887 72.2253 60.2707 72.2253 59.6996 72.2252C59.2535 72.2253 57.9104 72.2252 57.9104 72.2252C57.9104 72.2252 57.9104 70.9782 57.9104 70.4361C57.9104 69.448 58.7114 68.647 59.6995 68.647C60.6876 68.647 61.4887 69.448 61.4887 70.4361Z" fill="black"/>
<path d="M72.2297 72.2319V68.6536H68.6514C68.6514 70.6298 70.2534 72.2319 72.2297 72.2319Z" fill="black"/>
<path d="M75.8073 68.647H72.229V72.2253H75.8073V68.647Z" fill="black"/>
<path d="M79.3918 68.647H75.8135V72.2253H79.3918V68.647Z" fill="black"/>
<path d="M79.3843 68.6536V72.2319H82.9626C82.9626 70.2556 81.3605 68.6536 79.3843 68.6536Z" fill="black"/>
<path d="M0.658936 74.0187C0.658936 73.6016 0.658936 72.2295 0.658936 72.2295C0.658936 72.2295 1.877 72.2295 2.44809 72.2295C2.89412 72.2295 4.23725 72.2295 4.23725 72.2295C4.23725 72.2295 4.23725 73.4766 4.23725 74.0187C4.23725 75.0067 3.43617 75.8078 2.44809 75.8078C1.45997 75.8078 0.658936 75.0067 0.658936 74.0187Z" fill="black"/>
<path d="M9.60557 72.2295C10.5937 72.2295 11.3947 73.0305 11.3947 74.0187C11.3947 75.0068 10.5937 75.8078 9.60557 75.8078C8.61745 75.8078 7.81641 75.0068 7.81641 74.0187C7.81641 73.0305 8.61745 72.2295 9.60557 72.2295Z" fill="black"/>
<path d="M18.5454 75.8085V72.2302H14.967C14.967 74.2065 16.5691 75.8085 18.5454 75.8085Z" fill="black"/>
<path d="M22.1337 72.2295H18.5554V75.8078H22.1337V72.2295Z" fill="black"/>
<path d="M25.7099 72.2295H22.1316V75.8078H25.7099V72.2295Z" fill="black"/>
<path d="M27.5025 75.8078C27.0855 75.8078 25.7134 75.8078 25.7134 75.8078C25.7134 75.8078 25.7134 74.5897 25.7134 74.0187C25.7134 73.5726 25.7134 72.2295 25.7134 72.2295C25.7134 72.2295 26.9605 72.2295 27.5025 72.2295C28.4906 72.2295 29.2917 73.0305 29.2917 74.0187C29.2917 75.0067 28.4906 75.8078 27.5025 75.8078Z" fill="black"/>
<path d="M43.601 72.2295H40.0227V75.8078H43.601V72.2295Z" fill="black"/>
<path d="M54.3435 74.0187C54.3435 74.4356 54.3435 75.8078 54.3435 75.8078C54.3435 75.8078 53.1254 75.8078 52.5543 75.8077C52.1083 75.8078 50.7651 75.8077 50.7651 75.8077C50.7651 75.8077 50.7651 74.5607 50.7651 74.0186C50.7652 73.0305 51.5662 72.2295 52.5543 72.2295C53.5424 72.2295 54.3435 73.0305 54.3435 74.0187Z" fill="black"/>
<path d="M61.4887 72.2295H57.9104V75.8078H61.4887V72.2295Z" fill="black"/>
<path d="M63.2877 75.8078C62.8707 75.8078 61.4985 75.8078 61.4985 75.8078C61.4985 75.8078 61.4985 74.5897 61.4985 74.0187C61.4985 73.5726 61.4985 72.2295 61.4985 72.2295C61.4985 72.2295 62.7457 72.2295 63.2877 72.2295C64.2758 72.2295 65.0769 73.0305 65.0769 74.0187C65.0769 75.0067 64.2758 75.8078 63.2877 75.8078Z" fill="black"/>
<path d="M75.8073 72.2295H72.229V75.8078H75.8073V72.2295Z" fill="black"/>
<path d="M79.3918 72.2295H75.8135V75.8078H79.3918V72.2295Z" fill="black"/>
<path d="M82.9621 72.2295H79.3838V75.8078H82.9621V72.2295Z" fill="black"/>
<path d="M86.5498 72.2295H82.9714V75.8078H86.5498V72.2295Z" fill="black"/>
<path d="M86.5442 72.2302V75.8085H90.1225C90.1225 73.8323 88.5204 72.2302 86.5442 72.2302Z" fill="black"/>
<path d="M95.494 72.2295C95.911 72.2295 97.2832 72.2295 97.2832 72.2295C97.2832 72.2295 97.2832 73.4474 97.2832 74.0187C97.2832 74.4645 97.2832 75.8078 97.2832 75.8078C97.2832 75.8078 96.0363 75.8078 95.494 75.8078C94.5055 75.8078 93.7048 75.0064 93.7048 74.0187C93.7048 73.0308 94.5055 72.2295 95.494 72.2295Z" fill="black"/>
<path d="M100.863 72.2295H97.2844V75.8078H100.863V72.2295Z" fill="black"/>
<path d="M102.646 75.8078C102.229 75.8078 100.857 75.8078 100.857 75.8078C100.857 75.8078 100.857 74.5897 100.857 74.0187C100.857 73.5726 100.857 72.2295 100.857 72.2295C100.857 72.2295 102.104 72.2295 102.646 72.2295C103.634 72.2295 104.435 73.0305 104.435 74.0187C104.435 75.0067 103.634 75.8078 102.646 75.8078Z" fill="black"/>
<path d="M31.0753 75.811C32.0635 75.811 32.8645 76.6121 32.8645 77.6002C32.8645 78.5884 32.0635 79.3894 31.0753 79.3894C30.0872 79.3894 29.2861 78.5884 29.2861 77.6002C29.2861 76.6121 30.0872 75.811 31.0753 75.811Z" fill="black"/>
<path d="M43.601 79.3959V75.8176H40.0227C40.0227 77.7939 41.6247 79.3959 43.601 79.3959Z" fill="black"/>
<path d="M43.5923 75.8176V79.3959H47.1706C47.1706 77.4197 45.5685 75.8176 43.5923 75.8176Z" fill="black"/>
<path d="M54.3391 79.3959V75.8176H50.7607C50.7607 77.7939 52.3628 79.3959 54.3391 79.3959Z" fill="black"/>
<path d="M57.9165 75.811H54.3381V79.3894H57.9165V75.811Z" fill="black"/>
<path d="M61.4887 75.811H57.9104V79.3894H61.4887V75.811Z" fill="black"/>
<path d="M66.8763 75.811C67.8645 75.811 68.6655 76.6121 68.6655 77.6002C68.6655 78.5884 67.8645 79.3894 66.8763 79.3894C65.8882 79.3894 65.0872 78.5884 65.0872 77.6002C65.0872 76.6121 65.8882 75.811 66.8763 75.811Z" fill="black"/>
<path d="M75.8073 75.811H72.229V79.3894H75.8073V75.811Z" fill="black"/>
<path d="M90.1193 75.811H86.541V79.3894H90.1193V75.811Z" fill="black"/>
<path d="M90.1353 75.8176V79.3959H93.7136C93.7136 77.4197 92.1115 75.8176 90.1353 75.8176Z" fill="black"/>
<path d="M34.6605 79.387C35.0775 79.387 36.4497 79.387 36.4497 79.387C36.4497 79.387 36.4497 80.6049 36.4497 81.1761C36.4497 81.622 36.4497 82.9653 36.4497 82.9653C36.4497 82.9653 35.2028 82.9653 34.6605 82.9653C33.672 82.9653 32.8713 82.1639 32.8713 81.1761C32.8713 80.1882 33.672 79.387 34.6605 79.387Z" fill="black"/>
<path d="M36.4534 79.387V82.9653H40.0317C40.0317 80.989 38.4296 79.387 36.4534 79.387Z" fill="black"/>
<path d="M47.1762 79.387H43.5979V82.9653H47.1762V79.387Z" fill="black"/>
<path d="M57.9123 82.9653V79.387H54.334C54.334 81.3632 55.936 82.9653 57.9123 82.9653Z" fill="black"/>
<path d="M61.4887 79.387H57.9104V82.9653H61.4887V79.387Z" fill="black"/>
<path d="M63.2877 82.9653C62.8707 82.9653 61.4985 82.9653 61.4985 82.9653C61.4985 82.9653 61.4985 81.7472 61.4985 81.1761C61.4985 80.7301 61.4985 79.387 61.4985 79.387C61.4985 79.387 62.7457 79.387 63.2877 79.387C64.2758 79.387 65.0769 80.188 65.0769 81.1761C65.0769 82.1642 64.2758 82.9653 63.2877 82.9653Z" fill="black"/>
<path d="M68.6514 82.9653H72.2297V79.387C70.2535 79.387 68.6514 80.989 68.6514 82.9653Z" fill="black"/>
<path d="M75.8073 79.387H72.229V82.9653H75.8073V79.387Z" fill="black"/>
<path d="M81.1729 79.387C82.1611 79.387 82.9621 80.188 82.9621 81.1761C82.9621 82.1643 82.1611 82.9653 81.1729 82.9653C80.1848 82.9653 79.3838 82.1643 79.3838 81.1761C79.3838 80.188 80.1848 79.387 81.1729 79.387Z" fill="black"/>
<path d="M90.1193 79.387H86.541V82.9653H90.1193V79.387Z" fill="black"/>
<path d="M93.7014 79.387H90.123V82.9653H93.7014V79.387Z" fill="black"/>
<path d="M95.494 82.9653C95.077 82.9653 93.7048 82.9653 93.7048 82.9653C93.7048 82.9653 93.7048 81.7472 93.7048 81.1761C93.7048 80.7301 93.7048 79.387 93.7048 79.387C93.7048 79.387 94.952 79.387 95.494 79.387C96.4821 79.387 97.2832 80.188 97.2832 81.1761C97.2832 82.1642 96.4821 82.9653 95.494 82.9653Z" fill="black"/>
<path d="M36.4534 84.764C36.4534 84.347 36.4534 82.9749 36.4534 82.9749C36.4534 82.9749 37.6714 82.9749 38.2425 82.9749C38.6886 82.9749 40.0317 82.9749 40.0317 82.9749C40.0317 82.9749 40.0317 84.222 40.0317 84.764C40.0317 85.7521 39.2306 86.5532 38.2425 86.5532C37.2544 86.5532 36.4534 85.7521 36.4534 84.764Z" fill="black"/>
<path d="M47.1762 82.9749H43.5979V86.5532H47.1762V82.9749Z" fill="black"/>
<path d="M54.3435 84.764C54.3435 85.181 54.3435 86.5532 54.3435 86.5532C54.3435 86.5532 53.1254 86.5532 52.5543 86.5531C52.1083 86.5532 50.7651 86.5531 50.7651 86.5531C50.7651 86.5531 50.7651 85.3061 50.7651 84.764C50.7652 83.7759 51.5662 82.9749 52.5543 82.9749C53.5424 82.9749 54.3435 83.7759 54.3435 84.764Z" fill="black"/>
<path d="M61.4887 82.9749H57.9104V86.5532H61.4887V82.9749Z" fill="black"/>
<path d="M66.8763 82.9749C67.2933 82.9749 68.6655 82.9749 68.6655 82.9749C68.6655 82.9749 68.6655 84.1928 68.6655 84.764C68.6655 85.2099 68.6655 86.5532 68.6655 86.5532C68.6655 86.5532 67.4187 86.5532 66.8763 86.5532C65.8878 86.5532 65.0872 85.7518 65.0872 84.764C65.0872 83.7761 65.8878 82.9749 66.8763 82.9749Z" fill="black"/>
<path d="M72.2346 82.9749H68.6562V86.5532H72.2346V82.9749Z" fill="black"/>
<path d="M75.8073 82.9749H72.229V86.5532H75.8073V82.9749Z" fill="black"/>
<path d="M90.1193 82.9749H86.541V86.5532H90.1193V82.9749Z" fill="black"/>
<path d="M104.435 84.764C104.435 85.181 104.435 86.5532 104.435 86.5532C104.435 86.5532 103.217 86.5532 102.646 86.5531C102.2 86.5532 100.857 86.5531 100.857 86.5531C100.857 86.5531 100.857 85.3061 100.857 84.764C100.857 83.7759 101.658 82.9749 102.646 82.9749C103.634 82.9749 104.435 83.7759 104.435 84.764Z" fill="black"/>
<path d="M34.6605 86.5356C35.6487 86.5356 36.4497 87.3367 36.4497 88.3248C36.4497 89.313 35.6487 90.114 34.6605 90.114C33.6724 90.114 32.8713 89.313 32.8713 88.3248C32.8713 87.3367 33.6724 86.5356 34.6605 86.5356Z" fill="black"/>
<path d="M40.0227 90.1147H43.601V86.5364C41.6248 86.5364 40.0227 88.1384 40.0227 90.1147Z" fill="black"/>
<path d="M47.1762 86.5356H43.5979V90.114H47.1762V86.5356Z" fill="black"/>
<path d="M50.768 86.5356H47.1897V90.114H50.768V86.5356Z" fill="black"/>
<path d="M54.3435 86.5356H50.7651V90.114H54.3435V86.5356Z" fill="black"/>
<path d="M61.4887 86.5356H57.9104V90.114H61.4887V86.5356Z" fill="black"/>
<path d="M72.2346 86.5356H68.6562V90.114H72.2346V86.5356Z" fill="black"/>
<path d="M75.8073 86.5356H72.229V90.114H75.8073V86.5356Z" fill="black"/>
<path d="M79.3918 86.5356H75.8135V90.114H79.3918V86.5356Z" fill="black"/>
<path d="M82.9621 86.5356H79.3838V90.114H82.9621V86.5356Z" fill="black"/>
<path d="M86.5498 86.5356H82.9714V90.114H86.5498V86.5356Z" fill="black"/>
<path d="M90.1193 86.5356H86.541V90.114H90.1193V86.5356Z" fill="black"/>
<path d="M90.1353 86.5364V90.1147H93.7136C93.7136 88.1384 92.1115 86.5364 90.1353 86.5364Z" fill="black"/>
<path d="M104.435 86.5356H100.857V90.114H104.435V86.5356Z" fill="black"/>
<path d="M43.601 90.1204H40.0227V93.6987H43.601V90.1204Z" fill="black"/>
<path d="M54.3435 90.1204H50.7651V93.6987H54.3435V90.1204Z" fill="black"/>
<path d="M57.9165 90.1204H54.3381V93.6987H57.9165V90.1204Z" fill="black"/>
<path d="M61.4887 90.1204H57.9104V93.6987H61.4887V90.1204Z" fill="black"/>
<path d="M72.2346 90.1204H68.6562V93.6987H72.2346V90.1204Z" fill="black"/>
<path d="M79.3918 90.1204H75.8135V93.6987H79.3918V90.1204Z" fill="black"/>
<path d="M93.7014 90.1204H90.123V93.6987H93.7014V90.1204Z" fill="black"/>
<path d="M93.7031 90.1235V93.7019H97.2814C97.2814 91.7256 95.6794 90.1235 93.7031 90.1235Z" fill="black"/>
<path d="M100.857 91.9095C100.857 91.4925 100.857 90.1204 100.857 90.1204C100.857 90.1204 102.075 90.1204 102.646 90.1204C103.092 90.1204 104.435 90.1204 104.435 90.1204C104.435 90.1204 104.435 91.3675 104.435 91.9095C104.435 92.8976 103.634 93.6987 102.646 93.6987C101.658 93.6987 100.857 92.8976 100.857 91.9095Z" fill="black"/>
<path d="M38.2425 93.7087C38.6595 93.7087 40.0317 93.7087 40.0317 93.7087C40.0317 93.7087 40.0317 94.9267 40.0317 95.4979C40.0317 95.9438 40.0317 97.2871 40.0317 97.2871C40.0317 97.2871 38.7849 97.2871 38.2425 97.2871C37.2541 97.2871 36.4534 96.4857 36.4534 95.4979C36.4534 94.51 37.2541 93.7087 38.2425 93.7087Z" fill="black"/>
<path d="M43.601 93.7087H40.0227V97.2871H43.601V93.7087Z" fill="black"/>
<path d="M47.1762 93.7087H43.5979V97.2871H47.1762V93.7087Z" fill="black"/>
<path d="M50.768 93.7087H47.1897V97.2871H50.768V93.7087Z" fill="black"/>
<path d="M54.3435 93.7087H50.7651V97.2871H54.3435V93.7087Z" fill="black"/>
<path d="M57.9165 93.7087H54.3381V97.2871H57.9165V93.7087Z" fill="black"/>
<path d="M61.4887 93.7087H57.9104V97.2871H61.4887V93.7087Z" fill="black"/>
<path d="M65.0769 93.7087H61.4985V97.2871H65.0769V93.7087Z" fill="black"/>
<path d="M68.6655 93.7087H65.0872V97.2871H68.6655V93.7087Z" fill="black"/>
<path d="M72.2297 93.698H68.6514V97.2763C70.6276 97.2763 72.2297 95.6742 72.2297 93.698Z" fill="black"/>
<path d="M79.3918 93.7087H75.8135V97.2871H79.3918V93.7087Z" fill="black"/>
<path d="M82.9621 93.7087H79.3838V97.2871H82.9621V93.7087Z" fill="black"/>
<path d="M86.5498 93.7087H82.9714V97.2871H86.5498V93.7087Z" fill="black"/>
<path d="M90.1193 93.7087H86.541V97.2871H90.1193V93.7087Z" fill="black"/>
<path d="M93.7014 93.7087H90.123V97.2871H93.7014V93.7087Z" fill="black"/>
<path d="M97.2832 93.7087H93.7048V97.2871H97.2832V93.7087Z" fill="black"/>
<path d="M99.0736 97.2871C98.6566 97.2871 97.2844 97.2871 97.2844 97.2871C97.2844 97.2871 97.2844 96.0689 97.2844 95.4979C97.2844 95.0519 97.2844 93.7087 97.2844 93.7087C97.2844 93.7087 98.5315 93.7087 99.0736 93.7087C100.062 93.7087 100.863 94.5098 100.863 95.4979C100.863 96.486 100.062 97.2871 99.0736 97.2871Z" fill="black"/>
<path d="M54.3435 97.2874H50.7651V100.866H54.3435V97.2874Z" fill="black"/>
<path d="M57.9123 97.2874H54.334V100.866C56.3102 100.866 57.9123 99.2636 57.9123 97.2874Z" fill="black"/>
<path d="M65.0872 99.0765C65.0872 98.6595 65.0872 97.2874 65.0872 97.2874C65.0872 97.2874 66.3052 97.2874 66.8763 97.2874C67.3223 97.2874 68.6655 97.2874 68.6655 97.2874C68.6655 97.2874 68.6655 98.5345 68.6655 99.0765C68.6655 100.065 67.8644 100.866 66.8763 100.866C65.8882 100.866 65.0872 100.065 65.0872 99.0765Z" fill="black"/>
<path d="M79.3918 97.2874H75.8135V100.866H79.3918V97.2874Z" fill="black"/>
<path d="M93.7014 97.2874H90.123V100.866H93.7014V97.2874Z" fill="black"/>
<path d="M97.2832 97.2874H93.7048V100.866H97.2832V97.2874Z" fill="black"/>
<path d="M102.646 97.2874C103.634 97.2874 104.435 98.0884 104.435 99.0765C104.435 100.065 103.634 100.866 102.646 100.866C101.658 100.866 100.857 100.065 100.857 99.0765C100.857 98.0884 101.658 97.2874 102.646 97.2874Z" fill="black"/>
<path d="M31.0753 100.857C31.4923 100.857 32.8645 100.857 32.8645 100.857C32.8645 100.857 32.8645 102.075 32.8645 102.646C32.8645 103.092 32.8645 104.435 32.8645 104.435C32.8645 104.435 31.6176 104.435 31.0753 104.435C30.0868 104.435 29.2861 103.634 29.2861 102.646C29.2861 101.658 30.0868 100.857 31.0753 100.857Z" fill="black"/>
<path d="M34.6605 104.435C34.2435 104.435 32.8713 104.435 32.8713 104.435C32.8713 104.435 32.8713 103.217 32.8713 102.646C32.8713 102.2 32.8713 100.857 32.8713 100.857C32.8713 100.857 34.1185 100.857 34.6605 100.857C35.6486 100.857 36.4497 101.658 36.4497 102.646C36.4497 103.634 35.6486 104.435 34.6605 104.435Z" fill="black"/>
<path d="M41.8119 100.857C42.8 100.857 43.601 101.658 43.601 102.646C43.601 103.634 42.8 104.435 41.8119 104.435C40.8237 104.435 40.0227 103.634 40.0227 102.646C40.0227 101.658 40.8237 100.857 41.8119 100.857Z" fill="black"/>
<path d="M48.9789 100.857C49.3959 100.857 50.768 100.857 50.768 100.857C50.768 100.857 50.768 102.075 50.768 102.646C50.768 103.092 50.768 104.435 50.768 104.435C50.768 104.435 49.5212 104.435 48.9789 104.435C47.9904 104.435 47.1897 103.634 47.1897 102.646C47.1897 101.658 47.9904 100.857 48.9789 100.857Z" fill="black"/>
<path d="M54.3391 100.86H50.7607V104.439C52.737 104.439 54.3391 102.837 54.3391 100.86Z" fill="black"/>
<path d="M63.2877 100.857C64.2759 100.857 65.0769 101.658 65.0769 102.646C65.0769 103.634 64.2759 104.435 63.2877 104.435C62.2996 104.435 61.4985 103.634 61.4985 102.646C61.4985 101.658 62.2996 100.857 63.2877 100.857Z" fill="black"/>
<path d="M70.4454 100.857C71.4336 100.857 72.2346 101.658 72.2346 102.646C72.2346 103.634 71.4336 104.435 70.4454 104.435C69.4573 104.435 68.6562 103.634 68.6562 102.646C68.6562 101.658 69.4573 100.857 70.4454 100.857Z" fill="black"/>
<path d="M75.8135 102.646C75.8135 102.229 75.8135 100.857 75.8135 100.857C75.8135 100.857 77.0315 100.857 77.6026 100.857C78.0487 100.857 79.3918 100.857 79.3918 100.857C79.3918 100.857 79.3918 102.104 79.3918 102.646C79.3918 103.634 78.5907 104.435 77.6026 104.435C76.6145 104.435 75.8135 103.634 75.8135 102.646Z" fill="black"/>
<path d="M84.7606 100.857C85.1776 100.857 86.5498 100.857 86.5498 100.857C86.5498 100.857 86.5498 102.075 86.5498 102.646C86.5498 103.092 86.5498 104.435 86.5498 104.435C86.5498 104.435 85.3029 104.435 84.7606 104.435C83.7721 104.435 82.9714 103.634 82.9714 102.646C82.9714 101.658 83.7721 100.857 84.7606 100.857Z" fill="black"/>
<path d="M90.1193 100.857H86.541V104.435H90.1193V100.857Z" fill="black"/>
<path d="M93.7014 100.857H90.123V104.435H93.7014V100.857Z" fill="black"/>
<path d="M97.2814 100.86H93.7031V104.439C95.6794 104.439 97.2814 102.837 97.2814 100.86Z" fill="black"/>
<path d="M17.1567 0.662354H9.21187C5.33992 0.662354 2.0596 3.22053 1.01083 6.71701C0.902373 7.07871 0.81771 7.45042 0.758846 7.83041C0.693971 8.24971 0.660156 8.67904 0.660156 9.11613V17.2495C0.660156 21.9133 4.49754 25.7058 9.21187 25.7058L13.1843 25.7066L17.1567 25.7056C21.8707 25.7056 25.7084 21.913 25.7084 17.2493V9.11613C25.7084 4.45466 21.871 0.662354 17.1567 0.662354ZM21.9512 17.2495C21.9512 19.8405 19.8005 21.9486 17.1557 21.9486L13.1843 21.9493L9.21287 21.9483C6.56803 21.9483 4.41739 19.8403 4.41739 17.2495V9.11613C4.41739 8.30682 4.62729 7.54486 4.99676 6.87907C5.35244 6.23859 5.85566 5.68778 6.46158 5.27073C7.24058 4.73444 8.18915 4.41959 9.21162 4.41959H17.1567C19.8005 4.41959 21.9512 6.5264 21.9512 9.11613V17.2495Z" fill="black"/>
<path d="M95.8808 0.662354H87.936C84.064 0.662354 80.7837 3.22053 79.735 6.71701C79.6265 7.07871 79.5418 7.45042 79.483 7.83041C79.4181 8.24971 79.3843 8.67904 79.3843 9.11613V17.2495C79.3843 21.9133 83.2217 25.7058 87.936 25.7058L91.9084 25.7066L95.8808 25.7056C100.595 25.7056 104.433 21.913 104.433 17.2493V9.11613C104.433 4.45466 100.595 0.662354 95.8808 0.662354ZM100.675 17.2495C100.675 19.8405 98.5246 21.9486 95.8798 21.9486L91.9084 21.9493L87.937 21.9483C85.2922 21.9483 83.1415 19.8403 83.1415 17.2495V9.11613C83.1415 8.30682 83.3514 7.54486 83.7209 6.87907C84.0766 6.23859 84.5798 5.68778 85.1857 5.27073C85.9647 4.73444 86.9133 4.41959 87.9357 4.41959H95.8808C98.5246 4.41959 100.675 6.5264 100.675 9.11613V17.2495Z" fill="black"/>
<path d="M17.1567 79.3918H9.21187C5.33992 79.3918 2.0596 81.95 1.01083 85.4465C0.902373 85.8082 0.81771 86.1799 0.758846 86.5599C0.693971 86.9792 0.660156 87.4085 0.660156 87.8456V95.979C0.660156 100.643 4.49754 104.435 9.21187 104.435L13.1843 104.436L17.1567 104.435C21.8707 104.435 25.7084 100.643 25.7084 95.9788V87.8456C25.7084 83.1841 21.871 79.3918 17.1567 79.3918ZM21.9512 95.979C21.9512 98.57 19.8005 100.678 17.1557 100.678L13.1843 100.679L9.21287 100.678C6.56803 100.678 4.41739 98.5698 4.41739 95.979V87.8456C4.41739 87.0363 4.62729 86.2743 4.99676 85.6086C5.35244 84.9681 5.85566 84.4173 6.46158 84.0002C7.24058 83.4639 8.18915 83.1491 9.21162 83.1491H17.1567C19.8005 83.1491 21.9512 85.2559 21.9512 87.8456V95.979Z" fill="black"/>
<path d="M10.7631 18.5577C9.14316 18.5577 7.82544 17.2661 7.82544 15.6799V10.6991C7.82544 10.2036 7.95426 9.73723 8.1798 9.32919C8.39761 8.93651 8.70592 8.599 9.07724 8.34437C9.5542 8.01609 10.1356 7.82275 10.7614 7.82275H15.6273C17.2457 7.82275 18.5634 9.11288 18.5634 10.699V15.6798C18.5634 17.2659 17.2458 18.5576 15.6273 18.5576H13.1944L10.7631 18.5577Z" fill="black"/>
<path d="M89.4642 18.5577C87.8443 18.5577 86.5266 17.2661 86.5266 15.6799V10.6991C86.5266 10.2036 86.6554 9.73723 86.881 9.32919C87.0988 8.93651 87.4071 8.599 87.7784 8.34437C88.2554 8.01609 88.8368 7.82275 89.4626 7.82275H94.3285C95.9469 7.82275 97.2646 9.11288 97.2646 10.699V15.6798C97.2646 17.2659 95.947 18.5576 94.3285 18.5576H91.8956L89.4642 18.5577Z" fill="black"/>
<path d="M10.7631 97.2765C9.14316 97.2765 7.82544 95.9848 7.82544 94.3986V89.4178C7.82544 88.9223 7.95426 88.456 8.1798 88.0479C8.39761 87.6553 8.70592 87.3177 9.07724 87.0631C9.5542 86.7348 10.1356 86.5415 10.7614 86.5415H15.6273C17.2457 86.5415 18.5634 87.8316 18.5634 89.4177V94.3985C18.5634 95.9846 17.2458 97.2764 15.6273 97.2764H13.1944L10.7631 97.2765Z" fill="black"/>
</svg>
