<svg width="100" height="100" viewBox="0 0 100 100" fill="none" xmlns="http://www.w3.org/2000/svg">
<path d="M34.5774 1.80997V3.83766H31.1624V1.80997L32.8699 0.422607L34.5774 1.80997Z" fill="black"/>
<path d="M41.4014 0.422363H37.9863V3.83742H41.4014V0.422363Z" fill="black"/>
<path d="M46.1979 0.422607H48.2256V3.83766H46.1979L44.8105 2.13013L46.1979 0.422607Z" fill="black"/>
<path d="M51.6577 0.422363H48.2427V3.83742H51.6577V0.422363Z" fill="black"/>
<path d="M55.0713 0.422363H51.6562V3.83742H55.0713V0.422363Z" fill="black"/>
<path d="M65.3128 0.422363H61.8977V3.83742H65.3128V0.422363Z" fill="black"/>
<path d="M31.1604 3.82593H27.7454V7.24098H31.1604V3.82593Z" fill="black"/>
<path d="M34.5774 3.82593H31.1624V7.24098H34.5774V3.82593Z" fill="black"/>
<path d="M44.8213 3.82593H41.4062V7.24098H44.8213V3.82593Z" fill="black"/>
<path d="M55.074 5.85484V3.82715H51.6589V5.85484L53.3665 7.2422L55.074 5.85484Z" fill="black"/>
<path d="M61.9016 3.82593H58.4866V7.24098H61.9016V3.82593Z" fill="black"/>
<path d="M31.1604 7.25854H27.7454V10.6736H31.1604V7.25854Z" fill="black"/>
<path d="M34.5774 7.25854H31.1624V10.6736H34.5774V7.25854Z" fill="black"/>
<path d="M41.4014 7.25854H37.9863V10.6736H41.4014V7.25854Z" fill="black"/>
<path d="M51.6553 8.63322V10.6609H48.2402V8.63322L49.9478 7.24585L51.6553 8.63322Z" fill="black"/>
<path d="M58.4756 7.25854H55.0605V10.6736H58.4756V7.25854Z" fill="black"/>
<path d="M68.7319 7.25854H65.3169V10.6736H68.7319V7.25854Z" fill="black"/>
<path d="M31.1565 12.7032V10.6755H27.7415V12.7032L29.449 14.0906L31.1565 12.7032Z" fill="black"/>
<path d="M37.9944 10.6719H34.5793V14.0869H37.9944V10.6719Z" fill="black"/>
<path d="M44.8252 12.0629V14.0906H41.4102V12.0629L43.1177 10.6755L44.8252 12.0629Z" fill="black"/>
<path d="M51.6577 10.6719H48.2427V14.0869H51.6577V10.6719Z" fill="black"/>
<path d="M55.0713 10.6719H51.6562V14.0869H55.0713V10.6719Z" fill="black"/>
<path d="M61.9016 10.6719H58.4866V14.0869H61.9016V10.6719Z" fill="black"/>
<path d="M34.5774 15.4726V17.5003H31.1624V15.4726L32.8699 14.0852L34.5774 15.4726Z" fill="black"/>
<path d="M44.8213 14.083H41.4062V17.4981H44.8213V14.083Z" fill="black"/>
<path d="M48.2507 14.083H44.8357V17.4981H48.2507V14.083Z" fill="black"/>
<path d="M51.6577 14.083H48.2427V17.4981H51.6577V14.083Z" fill="black"/>
<path d="M55.0713 14.083H51.6562V17.4981H55.0713V14.083Z" fill="black"/>
<path d="M66.7038 14.0852H68.7315V17.5003H66.7038L65.3164 15.7927L66.7038 14.0852Z" fill="black"/>
<path d="M72.1463 14.083H68.7312V17.4981H72.1463V14.083Z" fill="black"/>
<path d="M34.5774 19.5265V17.4988H31.1624V19.5265L32.8699 20.9138L34.5774 19.5265Z" fill="black"/>
<path d="M48.2507 17.5056H44.8357V20.9207H48.2507V17.5056Z" fill="black"/>
<path d="M51.6577 17.5056H48.2427V20.9207H51.6577V17.5056Z" fill="black"/>
<path d="M58.4756 17.5056H55.0605V20.9207H58.4756V17.5056Z" fill="black"/>
<path d="M60.5262 17.4988H58.4985V20.9138H60.5262L61.9136 19.2063L60.5262 17.4988Z" fill="black"/>
<path d="M72.1463 17.5056H68.7312V20.9207H72.1463V17.5056Z" fill="black"/>
<path d="M31.1565 22.2941V24.3218H27.7415V22.2941L29.449 20.9067L31.1565 22.2941Z" fill="black"/>
<path d="M37.9871 22.2941V24.3218H34.572V22.2941L36.2795 20.9067L37.9871 22.2941Z" fill="black"/>
<path d="M44.8213 20.9136H41.4062V24.3286H44.8213V20.9136Z" fill="black"/>
<path d="M51.6553 22.9344V20.9067H48.2402V22.9344L49.9478 24.3218L51.6553 22.9344Z" fill="black"/>
<path d="M58.4732 22.9344V20.9067H55.0581V22.9344L56.7656 24.3218L58.4732 22.9344Z" fill="black"/>
<path d="M65.304 22.2941V24.3218H61.8889V22.2941L63.5964 20.9067L65.304 22.2941Z" fill="black"/>
<path d="M72.1463 20.9136H68.7312V24.3286H72.1463V20.9136Z" fill="black"/>
<path d="M31.1604 24.3396H27.7454V27.7547H31.1604V24.3396Z" fill="black"/>
<path d="M37.9871 26.3644V24.3367H34.572V26.3644L36.2795 27.7517L37.9871 26.3644Z" fill="black"/>
<path d="M48.2507 24.3396H44.8357V27.7547H48.2507V24.3396Z" fill="black"/>
<path d="M65.304 26.3644V24.3367H61.8889V26.3644L63.5964 27.7517L65.304 26.3644Z" fill="black"/>
<path d="M72.147 26.3644V24.3367H68.7319V26.3644L70.4395 27.7517L72.147 26.3644Z" fill="black"/>
<path d="M3.8401 29.1335V31.1611H0.425049V29.1335L2.13258 27.7461L3.8401 29.1335Z" fill="black"/>
<path d="M24.3369 27.7397H20.9219V31.1548H24.3369V27.7397Z" fill="black"/>
<path d="M31.1604 27.7397H27.7454V31.1548H31.1604V27.7397Z" fill="black"/>
<path d="M34.5774 27.7397H31.1624V31.1548H34.5774V27.7397Z" fill="black"/>
<path d="M41.4014 27.7397H37.9863V31.1548H41.4014V27.7397Z" fill="black"/>
<path d="M43.4378 27.7461H41.4102V31.1611H43.4378L44.8252 29.4536L43.4378 27.7461Z" fill="black"/>
<path d="M51.6577 27.7397H48.2427V31.1548H51.6577V27.7397Z" fill="black"/>
<path d="M53.6866 27.7461H51.6589V31.1611H53.6866L55.074 29.4536L53.6866 27.7461Z" fill="black"/>
<path d="M73.5339 27.7461H75.5615V31.1611H73.5339L72.1465 29.4536L73.5339 27.7461Z" fill="black"/>
<path d="M77.588 27.7461H75.5603V31.1611H77.588L78.9754 29.4536L77.588 27.7461Z" fill="black"/>
<path d="M87.1918 27.7461H89.2195V31.1611H87.1918L85.8044 29.4536L87.1918 27.7461Z" fill="black"/>
<path d="M92.637 27.7397H89.2219V31.1548H92.637V27.7397Z" fill="black"/>
<path d="M96.0535 27.7397H92.6384V31.1548H96.0535V27.7397Z" fill="black"/>
<path d="M3.83986 31.1633H0.424805V34.5784H3.83986V31.1633Z" fill="black"/>
<path d="M7.26271 31.1633H3.84766V34.5784H7.26271V31.1633Z" fill="black"/>
<path d="M10.6797 31.1633H7.26465V34.5784H10.6797V31.1633Z" fill="black"/>
<path d="M14.0928 31.1633H10.6777V34.5784H14.0928V31.1633Z" fill="black"/>
<path d="M17.5032 31.1633H14.0881V34.5784H17.5032V31.1633Z" fill="black"/>
<path d="M19.5365 31.1599H17.5088V34.575H19.5365L20.9238 32.8674L19.5365 31.1599Z" fill="black"/>
<path d="M34.5774 31.1633H31.1624V34.5784H34.5774V31.1633Z" fill="black"/>
<path d="M41.4014 31.1633H37.9863V34.5784H41.4014V31.1633Z" fill="black"/>
<path d="M51.6553 33.1949V31.1672H48.2402V33.1949L49.9478 34.5823L51.6553 33.1949Z" fill="black"/>
<path d="M61.9136 32.5473V34.575H58.4985V32.5473L60.2061 31.1599L61.9136 32.5473Z" fill="black"/>
<path d="M68.7319 31.1633H65.3169V34.5784H68.7319V31.1633Z" fill="black"/>
<path d="M85.8132 32.5473V34.575H82.3982V32.5473L84.1057 31.1599L85.8132 32.5473Z" fill="black"/>
<path d="M92.637 31.1633H89.2219V34.5784H92.637V31.1633Z" fill="black"/>
<path d="M96.0535 31.1633H92.6384V34.5784H96.0535V31.1633Z" fill="black"/>
<path d="M3.83986 34.5701H0.424805V37.9851H3.83986V34.5701Z" fill="black"/>
<path d="M7.26271 34.5701H3.84766V37.9851H7.26271V34.5701Z" fill="black"/>
<path d="M10.6797 34.5701H7.26465V37.9851H10.6797V34.5701Z" fill="black"/>
<path d="M24.3369 34.5701H20.9219V37.9851H24.3369V34.5701Z" fill="black"/>
<path d="M29.1288 34.564H31.1565V37.979H29.1288L27.7415 36.2715L29.1288 34.564Z" fill="black"/>
<path d="M34.5774 34.5701H31.1624V37.9851H34.5774V34.5701Z" fill="black"/>
<path d="M41.4014 34.5701H37.9863V37.9851H41.4014V34.5701Z" fill="black"/>
<path d="M43.4378 34.564H41.4102V37.979H43.4378L44.8252 36.2715L43.4378 34.564Z" fill="black"/>
<path d="M61.9136 36.5917V34.564H58.4985V36.5917L60.2061 37.979L61.9136 36.5917Z" fill="black"/>
<path d="M78.9761 34.5701H75.561V37.9851H78.9761V34.5701Z" fill="black"/>
<path d="M82.3836 34.5701H78.9685V37.9851H82.3836V34.5701Z" fill="black"/>
<path d="M85.813 34.5701H82.3979V37.9851H85.813V34.5701Z" fill="black"/>
<path d="M10.6797 37.9902H7.26465V41.4053H10.6797V37.9902Z" fill="black"/>
<path d="M12.7096 37.9866H10.6819V41.4016H12.7096L14.0969 39.6941L12.7096 37.9866Z" fill="black"/>
<path d="M27.7468 39.3739V41.4016H24.3318V39.3739L26.0393 37.9866L27.7468 39.3739Z" fill="black"/>
<path d="M41.4026 40.0233V37.9956H37.9875V40.0233L39.6951 41.4107L41.4026 40.0233Z" fill="black"/>
<path d="M51.6577 37.9902H48.2427V41.4053H51.6577V37.9902Z" fill="black"/>
<path d="M55.0713 37.9902H51.6562V41.4053H55.0713V37.9902Z" fill="black"/>
<path d="M57.0858 37.9866H55.0581V41.4016H57.0858L58.4732 39.6941L57.0858 37.9866Z" fill="black"/>
<path d="M68.7319 37.9902H65.3169V41.4053H68.7319V37.9902Z" fill="black"/>
<path d="M73.5339 37.9866H75.5615V41.4016H73.5339L72.1465 39.6941L73.5339 37.9866Z" fill="black"/>
<path d="M78.9761 37.9902H75.561V41.4053H78.9761V37.9902Z" fill="black"/>
<path d="M82.3836 37.9907H78.9685V41.4058H82.3836V37.9907Z" fill="black"/>
<path d="M85.813 37.9902H82.3979V41.4053H85.813V37.9902Z" fill="black"/>
<path d="M87.8321 37.9956H85.8044V41.4107H87.8321L89.2195 39.7031L87.8321 37.9956Z" fill="black"/>
<path d="M10.6887 43.4273V41.3997H7.27368V43.4273L8.98121 44.8147L10.6887 43.4273Z" fill="black"/>
<path d="M17.5032 41.4004H14.0881V44.8154H17.5032V41.4004Z" fill="black"/>
<path d="M20.9168 41.4004H17.5017V44.8154H20.9168V41.4004Z" fill="black"/>
<path d="M24.3369 41.4004H20.9219V44.8154H24.3369V41.4004Z" fill="black"/>
<path d="M27.7539 41.4004H24.3389V44.8154H27.7539V41.4004Z" fill="black"/>
<path d="M31.1604 41.4004H27.7454V44.8154H31.1604V41.4004Z" fill="black"/>
<path d="M33.19 41.3997H31.1624V44.8147H33.19L34.5774 43.1072L33.19 41.3997Z" fill="black"/>
<path d="M42.7975 41.3997H44.8252V44.8147H42.7975L41.4102 43.1072L42.7975 41.3997Z" fill="black"/>
<path d="M48.2507 41.4004H44.8357V44.8154H48.2507V41.4004Z" fill="black"/>
<path d="M51.6577 41.4004H48.2427V44.8154H51.6577V41.4004Z" fill="black"/>
<path d="M78.9761 41.4004H75.561V44.8154H78.9761V41.4004Z" fill="black"/>
<path d="M82.3836 41.3999H78.9685V44.815H82.3836V41.3999Z" fill="black"/>
<path d="M99.4632 42.787V44.8147H96.0481V42.787L97.7556 41.3997L99.4632 42.787Z" fill="black"/>
<path d="M12.0693 44.8171H14.0969V48.2322H12.0693L10.6819 46.5247L12.0693 44.8171Z" fill="black"/>
<path d="M17.5032 44.8174H14.0881V48.2324H17.5032V44.8174Z" fill="black"/>
<path d="M27.7539 44.8174H24.3389V48.2324H27.7539V44.8174Z" fill="black"/>
<path d="M31.1604 44.8174H27.7454V48.2324H31.1604V44.8174Z" fill="black"/>
<path d="M41.4026 46.2045V48.2322H37.9875V46.2045L39.6951 44.8171L41.4026 46.2045Z" fill="black"/>
<path d="M48.2507 44.8174H44.8357V48.2324H48.2507V44.8174Z" fill="black"/>
<path d="M51.6577 44.8174H48.2427V48.2324H51.6577V44.8174Z" fill="black"/>
<path d="M66.7038 44.8171H68.7315V48.2322H66.7038L65.3164 46.5247L66.7038 44.8171Z" fill="black"/>
<path d="M72.1463 44.8174H68.7312V48.2324H72.1463V44.8174Z" fill="black"/>
<path d="M78.9761 44.8174H75.561V48.2324H78.9761V44.8174Z" fill="black"/>
<path d="M82.3836 44.8169H78.9685V48.2319H82.3836V44.8169Z" fill="black"/>
<path d="M85.813 44.8174H82.3979V48.2324H85.813V44.8174Z" fill="black"/>
<path d="M94.0334 44.8171H96.0611V48.2322H94.0334L92.646 46.5247L94.0334 44.8171Z" fill="black"/>
<path d="M99.4578 44.8174H96.0427V48.2324H99.4578V44.8174Z" fill="black"/>
<path d="M3.83986 48.2375H0.424805V51.6526H3.83986V48.2375Z" fill="black"/>
<path d="M10.6887 49.6252V51.6528H7.27368V49.6252L8.98121 48.2378L10.6887 49.6252Z" fill="black"/>
<path d="M17.5066 50.2655V48.2378H14.0916V50.2655L15.7991 51.6528L17.5066 50.2655Z" fill="black"/>
<path d="M22.3095 48.2378H24.3372V51.6528H22.3095L20.9221 49.9453L22.3095 48.2378Z" fill="black"/>
<path d="M27.7539 48.2375H24.3389V51.6526H27.7539V48.2375Z" fill="black"/>
<path d="M34.5774 48.2375H31.1624V51.6526H34.5774V48.2375Z" fill="black"/>
<path d="M41.4026 50.2655V48.2378H37.9875V50.2655L39.6951 51.6528L41.4026 50.2655Z" fill="black"/>
<path d="M48.2507 48.2375H44.8357V51.6526H48.2507V48.2375Z" fill="black"/>
<path d="M51.6577 48.2375H48.2427V51.6526H51.6577V48.2375Z" fill="black"/>
<path d="M55.0713 48.2375H51.6562V51.6526H55.0713V48.2375Z" fill="black"/>
<path d="M58.4756 48.2375H55.0605V51.6526H58.4756V48.2375Z" fill="black"/>
<path d="M61.9016 48.2375H58.4866V51.6526H61.9016V48.2375Z" fill="black"/>
<path d="M63.9166 48.2378H61.8889V51.6528H63.9166L65.304 49.9453L63.9166 48.2378Z" fill="black"/>
<path d="M72.1463 48.2375H68.7312V51.6526H72.1463V48.2375Z" fill="black"/>
<path d="M74.1742 48.2378H72.1465V51.6528H74.1742L75.5615 49.9453L74.1742 48.2378Z" fill="black"/>
<path d="M82.3836 48.2375H78.9685V51.6526H82.3836V48.2375Z" fill="black"/>
<path d="M85.813 48.2375H82.3979V51.6526H85.813V48.2375Z" fill="black"/>
<path d="M89.2298 48.2375H85.8147V51.6526H89.2298V48.2375Z" fill="black"/>
<path d="M92.637 48.2375H89.2219V51.6526H92.637V48.2375Z" fill="black"/>
<path d="M10.6887 53.6751V51.6475H7.27368V53.6751L8.98121 55.0625L10.6887 53.6751Z" fill="black"/>
<path d="M20.9168 51.6443H17.5017V55.0593H20.9168V51.6443Z" fill="black"/>
<path d="M42.7975 51.6511H44.8252V55.0662H42.7975L41.4102 53.3587L42.7975 51.6511Z" fill="black"/>
<path d="M48.2507 51.6443H44.8357V55.0593H48.2507V51.6443Z" fill="black"/>
<path d="M51.6577 51.6443H48.2427V55.0593H51.6577V51.6443Z" fill="black"/>
<path d="M58.4732 53.6788V51.6511H55.0581V53.6788L56.7656 55.0662L58.4732 53.6788Z" fill="black"/>
<path d="M68.7315 53.0385V55.0662H65.3164V53.0385L67.0239 51.6511L68.7315 53.0385Z" fill="black"/>
<path d="M82.3782 53.6788V51.6511H78.9631V53.6788L80.6707 55.0662L82.3782 53.6788Z" fill="black"/>
<path d="M92.637 51.6443H89.2219V55.0593H92.637V51.6443Z" fill="black"/>
<path d="M99.4578 51.6443H96.0427V55.0593H99.4578V51.6443Z" fill="black"/>
<path d="M3.83986 55.0681H0.424805V58.4832H3.83986V55.0681Z" fill="black"/>
<path d="M5.84995 55.0684H3.82227V58.4834H5.84995L7.23732 56.7759L5.84995 55.0684Z" fill="black"/>
<path d="M14.0928 55.0681H10.6777V58.4832H14.0928V55.0681Z" fill="black"/>
<path d="M24.3369 55.0681H20.9219V58.4832H24.3369V55.0681Z" fill="black"/>
<path d="M51.6577 55.0681H48.2427V58.4832H51.6577V55.0681Z" fill="black"/>
<path d="M53.6866 55.0684H51.6589V58.4834H53.6866L55.074 56.7759L53.6866 55.0684Z" fill="black"/>
<path d="M61.9016 55.0681H58.4866V58.4832H61.9016V55.0681Z" fill="black"/>
<path d="M68.7319 55.0681H65.3169V58.4832H68.7319V55.0681Z" fill="black"/>
<path d="M87.1918 55.0684H89.2195V58.4834H87.1918L85.8044 56.7759L87.1918 55.0684Z" fill="black"/>
<path d="M92.637 55.0681H89.2219V58.4832H92.637V55.0681Z" fill="black"/>
<path d="M3.83986 58.4785H0.424805V61.8936H3.83986V58.4785Z" fill="black"/>
<path d="M10.6887 59.8654V61.8931H7.27368V59.8654L8.98121 58.478L10.6887 59.8654Z" fill="black"/>
<path d="M17.5066 59.8654V61.8931H14.0916V59.8654L15.7991 58.478L17.5066 59.8654Z" fill="black"/>
<path d="M31.1565 59.8654V61.8931H27.7415V59.8654L29.449 58.478L31.1565 59.8654Z" fill="black"/>
<path d="M37.9944 58.4785H34.5793V61.8936H37.9944V58.4785Z" fill="black"/>
<path d="M44.8252 59.8654V61.8931H41.4102V59.8654L43.1177 58.478L44.8252 59.8654Z" fill="black"/>
<path d="M58.4732 59.8654V61.8931H55.0581V59.8654L56.7656 58.478L58.4732 59.8654Z" fill="black"/>
<path d="M68.7319 58.4785H65.3169V61.8936H68.7319V58.4785Z" fill="black"/>
<path d="M72.1463 58.4785H68.7312V61.8936H72.1463V58.4785Z" fill="black"/>
<path d="M75.5691 58.4785H72.1541V61.8936H75.5691V58.4785Z" fill="black"/>
<path d="M78.9761 58.4785H75.561V61.8936H78.9761V58.4785Z" fill="black"/>
<path d="M82.3836 58.4788H78.9685V61.8938H82.3836V58.4788Z" fill="black"/>
<path d="M84.4259 58.478H82.3982V61.8931H84.4259L85.8132 60.1856L84.4259 58.478Z" fill="black"/>
<path d="M92.637 58.4814H89.2219V61.8965H92.637V58.4814Z" fill="black"/>
<path d="M96.0535 58.4785H92.6384V61.8936H96.0535V58.4785Z" fill="black"/>
<path d="M99.4578 58.4785H96.0427V61.8936H99.4578V58.4785Z" fill="black"/>
<path d="M3.83986 61.8884H0.424805V65.3035H3.83986V61.8884Z" fill="black"/>
<path d="M7.26271 61.8884H3.84766V65.3035H7.26271V61.8884Z" fill="black"/>
<path d="M10.6797 61.8884H7.26465V65.3035H10.6797V61.8884Z" fill="black"/>
<path d="M14.0928 61.8884H10.6777V65.3035H14.0928V61.8884Z" fill="black"/>
<path d="M17.5032 61.8884H14.0881V65.3035H17.5032V61.8884Z" fill="black"/>
<path d="M20.9168 61.8884H17.5017V65.3035H20.9168V61.8884Z" fill="black"/>
<path d="M22.9498 61.8914H20.9221V65.3064H22.9498L24.3372 63.5989L22.9498 61.8914Z" fill="black"/>
<path d="M31.1565 63.919V61.8914H27.7415V63.919L29.449 65.3064L31.1565 63.919Z" fill="black"/>
<path d="M44.8213 61.8884H41.4062V65.3035H44.8213V61.8884Z" fill="black"/>
<path d="M48.2507 61.8884H44.8357V65.3035H48.2507V61.8884Z" fill="black"/>
<path d="M51.6577 61.8884H48.2427V65.3035H51.6577V61.8884Z" fill="black"/>
<path d="M58.4756 61.8884H55.0605V65.3035H58.4756V61.8884Z" fill="black"/>
<path d="M60.5262 61.8914H58.4985V65.3064H60.5262L61.9136 63.5989L60.5262 61.8914Z" fill="black"/>
<path d="M68.7319 61.8884H65.3169V65.3035H68.7319V61.8884Z" fill="black"/>
<path d="M72.1463 61.8884H68.7312V65.3035H72.1463V61.8884Z" fill="black"/>
<path d="M78.9761 61.8884H75.561V65.3035H78.9761V61.8884Z" fill="black"/>
<path d="M82.3836 61.8884H78.9685V65.3035H82.3836V61.8884Z" fill="black"/>
<path d="M89.2298 61.8884H85.8147V65.3035H89.2298V61.8884Z" fill="black"/>
<path d="M99.4632 63.919V61.8914H96.0481V63.919L97.7556 65.3064L99.4632 63.919Z" fill="black"/>
<path d="M3.83986 65.3152H0.424805V68.7302H3.83986V65.3152Z" fill="black"/>
<path d="M10.6797 65.3152H7.26465V68.7302H10.6797V65.3152Z" fill="black"/>
<path d="M17.5032 65.3152H14.0881V68.7302H17.5032V65.3152Z" fill="black"/>
<path d="M20.9168 65.3152H17.5017V68.7302H20.9168V65.3152Z" fill="black"/>
<path d="M27.7539 65.3152H24.3389V68.7302H27.7539V65.3152Z" fill="black"/>
<path d="M35.9594 65.3083H37.9871V68.7234H35.9594L34.572 67.0159L35.9594 65.3083Z" fill="black"/>
<path d="M40.0152 65.3083H37.9875V68.7234H40.0152L41.4026 67.0159L40.0152 65.3083Z" fill="black"/>
<path d="M51.6577 65.3152H48.2427V68.7302H51.6577V65.3152Z" fill="black"/>
<path d="M55.0713 65.3152H51.6562V68.7302H55.0713V65.3152Z" fill="black"/>
<path d="M58.4756 65.3152H55.0605V68.7302H58.4756V65.3152Z" fill="black"/>
<path d="M65.3128 65.3152H61.8977V68.7302H65.3128V65.3152Z" fill="black"/>
<path d="M72.1463 65.3152H68.7312V68.7302H72.1463V65.3152Z" fill="black"/>
<path d="M75.5691 65.3152H72.1541V68.7302H75.5691V65.3152Z" fill="black"/>
<path d="M82.3836 65.3152H78.9685V68.7302H82.3836V65.3152Z" fill="black"/>
<path d="M3.8401 70.7572V68.7295H0.425049V70.7572L2.13258 72.1445L3.8401 70.7572Z" fill="black"/>
<path d="M10.6797 68.7219H7.26465V72.137H10.6797V68.7219Z" fill="black"/>
<path d="M12.7096 68.7295H10.6819V72.1445H12.7096L14.0969 70.437L12.7096 68.7295Z" fill="black"/>
<path d="M24.3369 68.7219H20.9219V72.137H24.3369V68.7219Z" fill="black"/>
<path d="M61.9016 68.7219H58.4866V72.137H61.9016V68.7219Z" fill="black"/>
<path d="M72.1463 68.7219H68.7312V72.137H72.1463V68.7219Z" fill="black"/>
<path d="M75.5691 68.7219H72.1541V72.137H75.5691V68.7219Z" fill="black"/>
<path d="M78.9761 68.7219H75.561V72.137H78.9761V68.7219Z" fill="black"/>
<path d="M82.3836 68.7219H78.9685V72.137H82.3836V68.7219Z" fill="black"/>
<path d="M85.813 68.7219H82.3979V72.137H85.813V68.7219Z" fill="black"/>
<path d="M90.6049 68.7295H92.6326V72.1445H90.6049L89.2175 70.437L90.6049 68.7295Z" fill="black"/>
<path d="M96.0535 68.7219H92.6384V72.137H96.0535V68.7219Z" fill="black"/>
<path d="M98.0758 68.7295H96.0481V72.1445H98.0758L99.4632 70.437L98.0758 68.7295Z" fill="black"/>
<path d="M29.1288 72.1428H31.1565V75.5579H29.1288L27.7415 73.8503L29.1288 72.1428Z" fill="black"/>
<path d="M34.5774 72.1423H31.1624V75.5574H34.5774V72.1423Z" fill="black"/>
<path d="M37.9944 72.1423H34.5793V75.5574H37.9944V72.1423Z" fill="black"/>
<path d="M42.7975 72.1428H44.8252V75.5579H42.7975L41.4102 73.8503L42.7975 72.1428Z" fill="black"/>
<path d="M48.2507 72.1423H44.8357V75.5574H48.2507V72.1423Z" fill="black"/>
<path d="M58.4732 73.5302V75.5579H55.0581V73.5302L56.7656 72.1428L58.4732 73.5302Z" fill="black"/>
<path d="M72.1463 72.1423H68.7312V75.5574H72.1463V72.1423Z" fill="black"/>
<path d="M85.813 72.1423H82.3979V75.5574H85.813V72.1423Z" fill="black"/>
<path d="M89.2298 72.1423H85.8147V75.5574H89.2298V72.1423Z" fill="black"/>
<path d="M34.5774 75.5493H31.1624V78.9644H34.5774V75.5493Z" fill="black"/>
<path d="M37.9944 75.5466H34.5793V78.9617H37.9944V75.5466Z" fill="black"/>
<path d="M48.2507 75.5466H44.8357V78.9617H48.2507V75.5466Z" fill="black"/>
<path d="M51.6577 75.5493H48.2427V78.9644H51.6577V75.5493Z" fill="black"/>
<path d="M55.0713 75.5466H51.6562V78.9617H55.0713V75.5466Z" fill="black"/>
<path d="M58.4756 75.5493H55.0605V78.9644H58.4756V75.5493Z" fill="black"/>
<path d="M68.7319 75.5493H65.3169V78.9644H68.7319V75.5493Z" fill="black"/>
<path d="M72.1463 75.5466H68.7312V78.9617H72.1463V75.5466Z" fill="black"/>
<path d="M78.9761 75.5493H75.561V78.9644H78.9761V75.5493Z" fill="black"/>
<path d="M85.813 75.5493H82.3979V78.9644H85.813V75.5493Z" fill="black"/>
<path d="M89.2298 75.5466H85.8147V78.9617H89.2298V75.5466Z" fill="black"/>
<path d="M91.2452 75.5601H89.2175V78.9751H91.2452L92.6326 77.2676L91.2452 75.5601Z" fill="black"/>
<path d="M34.5774 78.9727H31.1624V82.3877H34.5774V78.9727Z" fill="black"/>
<path d="M37.9944 78.9727H34.5793V82.3877H37.9944V78.9727Z" fill="black"/>
<path d="M40.0152 78.9692H37.9875V82.3843H40.0152L41.4026 80.6768L40.0152 78.9692Z" fill="black"/>
<path d="M48.2507 78.9727H44.8357V82.3877H48.2507V78.9727Z" fill="black"/>
<path d="M55.0713 78.9727H51.6562V82.3877H55.0713V78.9727Z" fill="black"/>
<path d="M58.4756 78.9727H55.0605V82.3877H58.4756V78.9727Z" fill="black"/>
<path d="M68.7319 78.9727H65.3169V82.3877H68.7319V78.9727Z" fill="black"/>
<path d="M72.1463 78.9727H68.7312V82.3877H72.1463V78.9727Z" fill="black"/>
<path d="M85.813 78.9727H82.3979V82.3877H85.813V78.9727Z" fill="black"/>
<path d="M94.0334 78.9692H96.0611V82.3843H94.0334L92.646 80.6768L94.0334 78.9692Z" fill="black"/>
<path d="M98.0758 78.9692H96.0481V82.3843H98.0758L99.4632 80.6768L98.0758 78.9692Z" fill="black"/>
<path d="M34.5774 82.3796H31.1624V85.7947H34.5774V82.3796Z" fill="black"/>
<path d="M48.2256 84.4071V82.3794H44.8105V84.4071L46.5181 85.7944L48.2256 84.4071Z" fill="black"/>
<path d="M58.4756 82.3796H55.0605V85.7947H58.4756V82.3796Z" fill="black"/>
<path d="M68.7319 82.3796H65.3169V85.7947H68.7319V82.3796Z" fill="black"/>
<path d="M72.1463 82.3796H68.7312V85.7947H72.1463V82.3796Z" fill="black"/>
<path d="M75.5691 82.3796H72.1541V85.7947H75.5691V82.3796Z" fill="black"/>
<path d="M78.9761 82.3796H75.561V85.7947H78.9761V82.3796Z" fill="black"/>
<path d="M82.3836 82.3796H78.9685V85.7947H82.3836V82.3796Z" fill="black"/>
<path d="M85.813 82.3796H82.3979V85.7947H85.813V82.3796Z" fill="black"/>
<path d="M89.2298 82.3796H85.8147V85.7947H89.2298V82.3796Z" fill="black"/>
<path d="M34.5774 87.8202V85.7925H31.1624V87.8202L32.8699 89.2075L34.5774 87.8202Z" fill="black"/>
<path d="M41.4026 87.1798V89.2075H37.9875V87.1798L39.6951 85.7925L41.4026 87.1798Z" fill="black"/>
<path d="M55.0713 85.8022H51.6562V89.2173H55.0713V85.8022Z" fill="black"/>
<path d="M58.4756 85.8022H55.0605V89.2173H58.4756V85.8022Z" fill="black"/>
<path d="M65.3128 85.8022H61.8977V89.2173H65.3128V85.8022Z" fill="black"/>
<path d="M75.5691 85.8022H72.1541V89.2173H75.5691V85.8022Z" fill="black"/>
<path d="M89.2298 85.8022H85.8147V89.2173H89.2298V85.8022Z" fill="black"/>
<path d="M92.637 85.8022H89.2219V89.2173H92.637V85.8022Z" fill="black"/>
<path d="M96.0535 85.8022H92.6384V89.2173H96.0535V85.8022Z" fill="black"/>
<path d="M37.9944 89.21H34.5793V92.625H37.9944V89.21Z" fill="black"/>
<path d="M41.4014 89.21H37.9863V92.625H41.4014V89.21Z" fill="black"/>
<path d="M55.0713 89.21H51.6562V92.625H55.0713V89.21Z" fill="black"/>
<path d="M58.4756 89.21H55.0605V92.625H58.4756V89.21Z" fill="black"/>
<path d="M66.7038 89.2224H68.7315V92.6375H66.7038L65.3164 90.9299L66.7038 89.2224Z" fill="black"/>
<path d="M72.1463 89.21H68.7312V92.625H72.1463V89.21Z" fill="black"/>
<path d="M75.5691 89.21H72.1541V92.625H75.5691V89.21Z" fill="black"/>
<path d="M77.588 89.2224H75.5603V92.6375H77.588L78.9754 90.9299L77.588 89.2224Z" fill="black"/>
<path d="M85.813 89.21H82.3979V92.625H85.813V89.21Z" fill="black"/>
<path d="M89.2298 89.21H85.8147V92.625H89.2298V89.21Z" fill="black"/>
<path d="M92.637 89.21H89.2219V92.625H92.637V89.21Z" fill="black"/>
<path d="M96.0535 89.21H92.6384V92.625H96.0535V89.21Z" fill="black"/>
<path d="M32.5497 92.6321H34.5774V96.0471H32.5497L31.1624 94.3396L32.5497 92.6321Z" fill="black"/>
<path d="M37.9944 92.6299H34.5793V96.0449H37.9944V92.6299Z" fill="black"/>
<path d="M41.4014 92.6299H37.9863V96.0449H41.4014V92.6299Z" fill="black"/>
<path d="M51.6577 92.6299H48.2427V96.0449H51.6577V92.6299Z" fill="black"/>
<path d="M58.4732 94.6598V92.6321H55.0581V94.6598L56.7656 96.0471L58.4732 94.6598Z" fill="black"/>
<path d="M65.3128 92.6299H61.8977V96.0449H65.3128V92.6299Z" fill="black"/>
<path d="M75.5691 92.6299H72.1541V96.0449H75.5691V92.6299Z" fill="black"/>
<path d="M85.813 92.6299H82.3979V96.0449H85.813V92.6299Z" fill="black"/>
<path d="M89.2298 92.6299H85.8147V96.0449H89.2298V92.6299Z" fill="black"/>
<path d="M92.637 92.6299H89.2219V96.0449H92.637V92.6299Z" fill="black"/>
<path d="M99.4578 92.6299H96.0427V96.0449H99.4578V92.6299Z" fill="black"/>
<path d="M31.1604 96.0496H27.7454V99.4646H31.1604V96.0496Z" fill="black"/>
<path d="M37.9871 98.0716V96.0439H34.572V98.0716L36.2795 99.459L37.9871 98.0716Z" fill="black"/>
<path d="M48.2507 96.0496H44.8357V99.4646H48.2507V96.0496Z" fill="black"/>
<path d="M61.9016 96.0496H58.4866V99.4646H61.9016V96.0496Z" fill="black"/>
<path d="M68.7319 96.0496H65.3169V99.4646H68.7319V96.0496Z" fill="black"/>
<path d="M75.5615 98.0716V96.0439H72.1465V98.0716L73.854 99.459L75.5615 98.0716Z" fill="black"/>
<path d="M80.3505 96.0439H82.3782V99.459H80.3505L78.9631 97.7515L80.3505 96.0439Z" fill="black"/>
<path d="M85.813 96.0496H82.3979V99.4646H85.813V96.0496Z" fill="black"/>
<path d="M89.2298 96.0496H85.8147V99.4646H89.2298V96.0496Z" fill="black"/>
<path d="M92.637 96.0496H89.2219V99.4646H92.637V96.0496Z" fill="black"/>
<path d="M16.1687 0.422607H8.58634C4.89105 0.422607 1.7604 2.86406 0.75948 6.20102C0.65597 6.54621 0.57517 6.90097 0.518992 7.26361C0.457077 7.66379 0.424805 8.07353 0.424805 8.49068V16.253C0.424805 20.7039 4.08711 24.3235 8.58634 24.3235L12.3775 24.3242L16.1687 24.3232C20.6676 24.3232 24.3302 20.7037 24.3302 16.2528V8.49068C24.3302 4.04188 20.6679 0.422607 16.1687 0.422607ZM20.7444 16.253C20.7444 18.7258 18.6919 20.7376 16.1677 20.7376L12.3775 20.7384L8.5873 20.7374C6.06313 20.7374 4.01061 18.7255 4.01061 16.253V8.49068C4.01061 7.71829 4.21094 6.99109 4.56354 6.35569C4.903 5.74442 5.38326 5.21875 5.96153 4.82072C6.70499 4.30891 7.61029 4.00842 8.5861 4.00842H16.1687C18.6919 4.00842 20.7444 6.0191 20.7444 8.49068V16.253Z" fill="black"/>
<path d="M91.3042 0.422607H83.7218C80.0265 0.422607 76.8959 2.86406 75.895 6.20102C75.7915 6.54621 75.7107 6.90097 75.6545 7.26361C75.5926 7.66379 75.5603 8.07353 75.5603 8.49068V16.253C75.5603 20.7039 79.2226 24.3235 83.7218 24.3235L87.513 24.3242L91.3042 24.3232C95.8031 24.3232 99.4657 20.7037 99.4657 16.2528V8.49068C99.4657 4.04188 95.8034 0.422607 91.3042 0.422607ZM95.8799 16.253C95.8799 18.7258 93.8274 20.7376 91.3032 20.7376L87.513 20.7384L83.7228 20.7374C81.1986 20.7374 79.1461 18.7255 79.1461 16.253V8.49068C79.1461 7.71829 79.3464 6.99109 79.699 6.35569C80.0385 5.74442 80.5188 5.21875 81.097 4.82072C81.8405 4.30891 82.7458 4.00842 83.7216 4.00842H91.3042C93.8274 4.00842 95.8799 6.0191 95.8799 8.49068V16.253Z" fill="black"/>
<path d="M16.1689 75.5601H8.58659C4.89129 75.5601 1.76064 78.0015 0.759724 81.3385C0.656214 81.6837 0.575414 82.0384 0.519236 82.4011C0.457321 82.8012 0.425049 83.211 0.425049 83.6281V91.3904C0.425049 95.8414 4.08735 99.4609 8.58659 99.4609L12.3777 99.4616L16.1689 99.4607C20.6679 99.4607 24.3304 95.8411 24.3304 91.3902V83.6281C24.3304 79.1793 20.6681 75.5601 16.1689 75.5601ZM20.7446 91.3904C20.7446 93.8632 18.6921 95.8751 16.1679 95.8751L12.3777 95.8758L8.58754 95.8749C6.06337 95.8749 4.01086 93.863 4.01086 91.3904V83.6281C4.01086 82.8557 4.21118 82.1285 4.56379 81.4931C4.90324 80.8819 5.3835 80.3562 5.96177 79.9582C6.70523 79.4464 7.61053 79.1459 8.58635 79.1459H16.1689C18.6921 79.1459 20.7446 81.1565 20.7446 83.6281V91.3904Z" fill="black"/>
<path d="M12.2868 17.3028C15.0604 17.3028 17.3089 15.0543 17.3089 12.2807C17.3089 9.50703 15.0604 7.25854 12.2868 7.25854C9.51314 7.25854 7.26465 9.50703 7.26465 12.2807C7.26465 15.0543 9.51314 17.3028 12.2868 17.3028Z" fill="black"/>
<path d="M87.4201 17.3028C90.1937 17.3028 92.4422 15.0543 92.4422 12.2807C92.4422 9.50703 90.1937 7.25854 87.4201 7.25854C84.6464 7.25854 82.3979 9.50703 82.3979 12.2807C82.3979 15.0543 84.6464 17.3028 87.4201 17.3028Z" fill="black"/>
<path d="M12.2868 92.4239C15.0604 92.4239 17.3089 90.1754 17.3089 87.4018C17.3089 84.6281 15.0604 82.3796 12.2868 82.3796C9.51314 82.3796 7.26465 84.6281 7.26465 87.4018C7.26465 90.1754 9.51314 92.4239 12.2868 92.4239Z" fill="black"/>
</svg>
