<svg width="82" height="23" viewBox="0 0 82 23" fill="none" xmlns="http://www.w3.org/2000/svg">
<path d="M0.565346 0.478914C0.409005 0.705196 0.376091 0.803938 0.446033 0.832737C0.466604 0.836851 0.627059 1.15776 0.799856 1.5445C0.976767 1.92712 1.18248 2.3838 1.26065 2.55248C1.5075 3.07499 1.58979 3.26835 1.6227 3.3671C1.63916 3.42058 1.83664 3.85257 2.05881 4.32982C2.28097 4.80296 2.46611 5.19792 2.46611 5.20615C2.46611 5.21438 2.62657 5.55586 2.81994 5.96728C3.0133 6.3787 3.22313 6.84772 3.28896 7.00818C3.35067 7.17275 3.63044 7.78577 3.90609 8.3741C4.53968 9.72356 4.84002 10.3818 4.93464 10.6163C5.01281 10.8138 5.65052 12.2003 5.94674 12.8257L6.12777 13.2083V17.8245L6.13188 22.4447L6.29645 22.6175L6.46102 22.7944H7.97917H9.49731L9.66188 22.6175L9.82645 22.4447L9.83056 17.8779V13.3153L9.97045 13.0026C10.0486 12.8339 10.2502 12.3772 10.423 11.9946C10.5917 11.6079 10.9332 10.855 11.1841 10.3201C11.431 9.78116 11.7396 9.10643 11.8589 8.81843C11.9823 8.53044 12.2127 8.01205 12.3731 7.67468C13.0931 6.12774 13.4922 5.26375 13.4922 5.24318C13.4922 5.21438 13.7062 4.7289 13.8954 4.32159C14.6853 2.63065 15.5082 0.799824 15.5082 0.729881C15.5082 0.709311 15.4547 0.614683 15.3848 0.515944C15.3189 0.417202 15.2613 0.31846 15.2613 0.293776C15.2613 0.26086 14.7429 0.248518 13.5704 0.248518C12.1345 0.248518 11.8712 0.256746 11.8218 0.310232C11.7889 0.343145 11.7354 0.384289 11.7066 0.400745C11.6532 0.433659 11.4927 0.750454 11.0854 1.64735C10.9661 1.90655 10.7563 2.35088 10.6205 2.63477C10.3654 3.17373 10.1186 3.72503 10.1186 3.76206C10.1186 3.7744 10.0363 3.95543 9.93753 4.16525C9.83879 4.37508 9.62897 4.82353 9.46851 5.16501C9.31217 5.50237 9.00772 6.16065 8.79378 6.62556C8.57984 7.09046 8.30419 7.69525 8.18488 7.97091L7.96682 8.46873L7.7858 8.07376C7.11107 6.60087 6.76136 5.8274 6.66262 5.57643C6.6009 5.41598 6.42399 5.02101 6.27177 4.69187C6.11954 4.36274 5.85623 3.79086 5.68755 3.41647C5.51886 3.04207 5.3255 2.61831 5.25555 2.4702C5.18973 2.32208 5.0663 2.04643 4.98813 1.85306C4.90996 1.65969 4.73305 1.26062 4.59728 0.960278C4.39157 0.515944 4.32574 0.408974 4.227 0.36783C4.16529 0.343145 4.1118 0.306118 4.1118 0.285547C4.1118 0.264975 3.36301 0.248518 2.41674 0.248518L0.717572 0.252632L0.565346 0.478914Z" fill="url(#paint0_linear_1_2746)"/>
<path d="M18.4625 0.433659L18.3062 0.606455V11.5256L18.3103 22.4447L18.4748 22.6175L18.6394 22.7944H24.6996H30.7599L30.9491 22.6216L31.1425 22.4488V20.9636V19.4784L30.9615 19.3261L30.7763 19.1739H26.3947H22.0089V16.2528V13.3317H26.0532H30.0975L30.2909 13.1342L30.4842 12.9368V11.4968V10.0568L30.2868 9.86345L30.0893 9.67008H26.0491H22.0089V6.76955V3.86903H26.4029L30.7928 3.86492L30.9697 3.70035L31.1425 3.53578V2.06289V0.594112L30.9491 0.421316L30.7599 0.248518L24.6873 0.252632L18.6147 0.256746L18.4625 0.433659Z" fill="url(#paint1_linear_1_2746)"/>
<path d="M34.6727 0.433659L34.5164 0.606455V11.5256L34.5205 22.4447L34.685 22.6175L34.8496 22.7944H40.9304H47.0154L47.184 22.6258L47.3527 22.4571V20.9636V19.4701L47.1799 19.322L47.0071 19.1739H42.6131H38.2192V16.2528V13.3317H42.2634H46.3077L46.4805 13.1548L46.6533 12.9779V11.4968V10.0157L46.4764 9.84288L46.2995 9.67008H42.2593H38.2192V6.76955V3.86903H42.6049H46.9948L47.1717 3.72092L47.3527 3.57692V2.07935V0.58177L47.1799 0.417202L47.003 0.252632H40.914L34.8249 0.256746L34.6727 0.433659Z" fill="url(#paint2_linear_1_2746)"/>
<path d="M51.2273 0.42543L51.0545 0.598227V2.09169V3.58104L51.2232 3.73738L51.396 3.8896L55.1934 3.91017L58.9908 3.93074L58.8262 4.21874C58.7316 4.37508 58.5341 4.74536 58.386 5.04158C58.0404 5.72866 57.4686 6.8107 57.0407 7.5924C56.6622 8.28359 56.4318 8.72381 56.4194 8.78552C56.4153 8.81021 56.3083 9.01592 56.1767 9.25043L55.9422 9.67008H54.1402H52.3381L52.1694 9.85933L52.0008 10.0527V11.5174V12.9779L52.1736 13.1548L52.3464 13.3317H53.2062H54.062L53.8686 13.6897C53.7616 13.8913 53.6053 14.171 53.523 14.3191C53.4366 14.4673 53.2103 14.891 53.0211 15.2654C52.8277 15.6398 52.4245 16.3968 52.1242 16.9522C51.8238 17.5077 51.4042 18.2935 51.1985 18.7008C50.9928 19.1081 50.7829 19.5072 50.7336 19.5853C50.6472 19.7252 50.6431 19.7664 50.6431 21.087L50.6472 22.4447L50.8117 22.6216L50.9763 22.7944H57.2299H63.4835L63.6687 22.6216L63.8497 22.453V20.9554V19.4619L63.681 19.3056L63.5082 19.1534L59.2788 19.1328L55.0453 19.1122L55.4361 18.3922C55.6501 17.9973 55.9833 17.3678 56.1726 16.9934C56.6128 16.1212 57.341 14.7347 57.7154 14.0517C57.8759 13.7555 58.0199 13.4757 58.0322 13.4222L58.0569 13.3317H59.8959H61.735L61.9078 13.1548L62.0806 12.9779V11.5215V10.0609L61.9119 9.86756L61.7473 9.67008L60.8463 9.66185L59.9494 9.64951L60.2786 9.03237C60.4596 8.69089 60.7476 8.15605 60.9204 7.83925C61.0932 7.52246 61.3729 6.98349 61.5457 6.64613C61.7185 6.30465 62.0806 5.62169 62.348 5.12387C62.6154 4.62605 62.961 3.976 63.1174 3.68389L63.393 3.14904V1.87363V0.598227L63.2285 0.421316L63.0639 0.248518H57.234L51.4042 0.252632L51.2273 0.42543Z" fill="url(#paint3_linear_1_2746)"/>
<path d="M66.5731 0.466572C66.499 0.585884 66.4414 0.705196 66.4414 0.729881C66.4414 0.754568 66.4867 0.87388 66.5401 0.993193C66.5936 1.11662 66.7129 1.39227 66.8035 1.60621C66.894 1.82015 67.075 2.21923 67.2025 2.49077C67.3301 2.76231 67.5276 3.18607 67.6428 3.43704C67.758 3.68389 67.9266 4.05417 68.0254 4.25988C68.12 4.46148 68.2434 4.74125 68.3051 4.87701C68.6137 5.59289 68.9305 6.28819 69.7739 8.0861C69.8685 8.2877 70.0125 8.61272 70.0907 8.80609C70.173 8.99946 70.4322 9.57134 70.6667 10.0815C71.3209 11.4803 71.7734 12.476 71.8105 12.5871C71.8269 12.6447 71.9051 12.8175 71.9791 12.9779L72.119 13.2659V17.8574L72.1231 22.4447L72.2877 22.6175L72.4523 22.7944H73.9704H75.4927L75.6367 22.6381L75.7766 22.4859L75.7807 17.9109V13.34L75.9823 12.9121C76.3814 12.0646 76.945 10.8385 76.9944 10.6986C77.052 10.5382 77.3688 9.83465 77.5292 9.49728C77.702 9.14757 78.6442 7.06989 78.7018 6.91355C78.7347 6.83538 78.9198 6.41985 79.1214 5.99608C79.3189 5.5682 79.4835 5.21438 79.4835 5.20615C79.4835 5.19792 79.6522 4.83587 79.8579 4.39565C80.0636 3.95954 80.2775 3.48641 80.331 3.34653C80.3845 3.20664 80.5655 2.79522 80.7383 2.42905C80.907 2.06289 81.0469 1.75844 81.0469 1.75021C81.0469 1.74198 81.158 1.49924 81.2937 1.21536L81.5447 0.701082L81.4377 0.585884C81.3801 0.524172 81.3102 0.42543 81.2814 0.359602L81.232 0.248518H79.537C78.603 0.248518 77.8378 0.264975 77.8378 0.281433C77.8378 0.302004 77.7925 0.339031 77.7349 0.363716C77.628 0.413088 77.2988 1.04668 77.0355 1.70907C76.9738 1.86541 76.8298 2.19043 76.7146 2.42905C76.6035 2.66768 76.4143 3.07499 76.295 3.33418C76.1756 3.59338 75.9782 4.02126 75.8506 4.28045C75.5338 4.95107 75.324 5.40363 75.3117 5.453C75.2993 5.50237 75.2541 5.60523 74.8426 6.50213C74.6616 6.89709 74.3942 7.47309 74.2502 7.77754C74.1021 8.08199 73.9745 8.36176 73.9622 8.39467C73.9416 8.45227 73.6577 7.90096 73.5796 7.65C73.5631 7.59651 73.3821 7.1892 73.1764 6.74898C72.4646 5.20204 71.9462 4.05006 71.831 3.76617C71.7693 3.60572 71.6006 3.22721 71.4608 2.92276C71.3209 2.61831 71.0617 2.05055 70.8848 1.66792C70.7078 1.28119 70.5063 0.840965 70.4363 0.68874C70.3499 0.507715 70.2717 0.392517 70.2059 0.363716C70.1483 0.339031 70.1031 0.302004 70.1031 0.281433C70.1031 0.264975 69.3378 0.248518 68.4039 0.248518H66.7047L66.5731 0.466572Z" fill="url(#paint4_linear_1_2746)"/>
<defs>
<linearGradient id="paint0_linear_1_2746" x1="7.95966" y1="22.7944" x2="7.95966" y2="0.24852" gradientUnits="userSpaceOnUse">
<stop stop-color="#E8F2F9"/>
<stop offset="1" stop-color="#A7B1B7"/>
</linearGradient>
<linearGradient id="paint1_linear_1_2746" x1="24.7243" y1="22.7944" x2="24.7243" y2="0.24852" gradientUnits="userSpaceOnUse">
<stop stop-color="#E8F2F9"/>
<stop offset="1" stop-color="#A7B1B7"/>
</linearGradient>
<linearGradient id="paint2_linear_1_2746" x1="40.9345" y1="22.7944" x2="40.9345" y2="0.252634" gradientUnits="userSpaceOnUse">
<stop stop-color="#E8F2F9"/>
<stop offset="1" stop-color="#A7B1B7"/>
</linearGradient>
<linearGradient id="paint3_linear_1_2746" x1="57.2464" y1="22.7944" x2="57.2464" y2="0.24852" gradientUnits="userSpaceOnUse">
<stop stop-color="#E8F2F9"/>
<stop offset="1" stop-color="#A7B1B7"/>
</linearGradient>
<linearGradient id="paint4_linear_1_2746" x1="73.9931" y1="22.7944" x2="73.9931" y2="0.24852" gradientUnits="userSpaceOnUse">
<stop stop-color="#E8F2F9"/>
<stop offset="1" stop-color="#A7B1B7"/>
</linearGradient>
</defs>
</svg>
