<svg width="331" height="145" viewBox="0 0 331 145" fill="none" xmlns="http://www.w3.org/2000/svg">
<g opacity="0.06" clip-path="url(#clip0_1_2635)">
<path d="M324.892 60.3542C347.76 143.226 263.045 151.662 201.906 126.639C166.235 113.77 142.81 153.791 98.62 137.819C54.4306 121.847 107.405 71.5347 39.7893 45.713C-27.8259 19.8914 5.18323 -95.6405 64.28 -96.9714C123.377 -98.3026 107.138 -117.735 166.235 -162.191C225.332 -206.647 324.892 -144.888 300.135 -79.6685C275.377 -14.4487 300.135 -29.356 324.892 60.3542Z" stroke="white" stroke-width="0.347722"/>
<path d="M197.701 -4.14078C200.34 3.75233 187.981 16.4859 178.042 11.0516C168.942 6.07529 159.675 9.43147 153.552 7.21297C137.433 1.37246 143.362 -1.71907 136.157 -8.65561C127.389 -17.0964 123.205 -39.1992 143.362 -39.1992C159.941 -39.1992 154.98 -47.2513 167.394 -50.8192C179.809 -54.3868 193.887 -48.3138 193.887 -32.3247C193.887 -26.3205 193.306 -17.287 197.701 -4.14078Z" stroke="white" stroke-width="0.347722"/>
<path d="M313.332 54.8936C334.362 130.949 256.222 139.776 199.739 116.533C166.483 104.382 144.345 141.07 103.616 126.348C61.9783 111.297 110.675 65.2778 48.5521 41.173C-13.7134 16.9315 15.9145 -90.1068 71.4714 -91.3169C126.703 -92.5268 111.49 -110.925 166.343 -151.664C221.195 -192.403 312.984 -135.706 290.478 -74.9619C267.972 -15.1253 290.425 -27.8562 313.332 54.8936Z" stroke="white" stroke-width="0.347722"/>
<path d="M301.77 49.433C320.96 118.673 249.398 127.889 197.571 106.428C166.731 94.994 145.879 128.349 108.611 114.878C69.5251 100.748 113.946 59.021 57.3139 36.6331C0.398089 13.9715 26.6449 -84.5733 78.6618 -85.6622C130.028 -86.7513 115.84 -104.115 166.449 -141.137C217.059 -178.158 301.076 -126.524 280.821 -70.2553C260.565 -15.802 280.715 -26.3566 301.77 49.433Z" stroke="white" stroke-width="0.347722"/>
<path d="M290.208 43.9717C307.559 106.395 242.577 116.003 195.403 96.3218C166.978 85.6054 147.414 115.627 113.606 103.406C77.0726 90.1972 117.216 52.7634 66.0762 32.0921C14.5103 11.0107 37.3758 -79.0405 85.8528 -80.0086C133.354 -80.9765 120.191 -97.3054 166.556 -130.61C212.921 -163.915 289.168 -117.343 271.163 -65.5496C253.158 -16.4795 271.004 -24.8576 290.208 43.9717Z" stroke="white" stroke-width="0.347722"/>
<path d="M278.647 38.5103C294.159 94.1173 235.754 104.115 193.235 86.2157C167.225 76.2167 148.948 102.906 118.601 91.9346C84.6194 79.6468 120.486 46.5057 74.838 27.5512C28.6218 8.04995 48.1063 -73.5076 93.0432 -74.3547C136.679 -75.2018 124.542 -90.4962 166.663 -120.084C208.784 -149.671 277.26 -108.161 261.506 -60.8438C245.751 -17.157 261.293 -23.3586 278.647 38.5103Z" stroke="white" stroke-width="0.347722"/>
<path d="M267.085 32.7719C280.759 81.5626 228.933 91.9518 191.067 75.8326C167.473 66.5513 150.483 89.9068 123.597 80.1864C92.1665 68.8195 123.756 39.9711 83.6003 22.7335C42.7337 4.81237 58.837 -68.2517 100.234 -68.9778C140.004 -69.7039 128.892 -83.9635 166.77 -109.834C204.647 -135.704 265.352 -99.2571 251.848 -56.415C238.344 -18.1113 251.585 -22.1364 267.085 32.7719Z" stroke="white" stroke-width="0.347722"/>
<path d="M255.523 26.7066C267.359 68.681 222.11 79.4609 188.898 65.1227C167.72 56.5587 152.017 76.5811 128.591 68.1108C99.7131 57.665 127.026 33.1095 92.3618 17.5888C56.845 1.24762 69.567 -63.3229 107.424 -63.928C143.329 -64.533 133.242 -77.7582 166.876 -99.9113C200.509 -122.065 253.443 -90.6797 242.189 -52.3131C230.937 -19.3928 241.872 -21.2415 255.523 26.7066Z" stroke="white" stroke-width="0.347722"/>
<path d="M243.961 20.6229C253.956 55.7811 215.286 66.9516 186.729 54.3942C167.966 46.5478 153.551 63.2368 133.585 56.017C107.259 46.4924 130.296 26.2296 101.123 12.4257C70.9558 -2.33541 80.2967 -58.4124 114.614 -58.8965C146.654 -59.3805 137.592 -71.5709 166.982 -90.0072C196.371 -108.443 241.535 -82.1207 232.531 -48.2297C223.53 -20.6926 232.162 -20.3648 243.961 20.6229Z" stroke="white" stroke-width="0.347722"/>
<path d="M232.4 14.513C240.556 42.8548 208.462 54.4162 184.56 43.6395C168.213 36.5107 155.085 49.8666 138.58 43.897C114.806 35.2934 133.565 19.3234 109.884 7.2364C85.0671 -5.94465 91.0267 -53.5281 121.804 -53.8912C149.978 -54.2542 141.942 -65.4101 167.088 -80.1292C192.234 -94.8483 229.625 -73.588 222.874 -44.1726C216.121 -22.0186 222.451 -19.5143 232.4 14.513Z" stroke="white" stroke-width="0.347722"/>
<path d="M220.836 8.36437C227.154 29.89 201.638 41.842 182.391 32.8462C168.459 26.4348 156.618 36.4574 143.574 31.7382C122.351 24.0558 136.834 12.3786 118.645 2.00837C99.1774 -9.59262 101.756 -48.6826 128.993 -48.9246C153.302 -49.1664 146.291 -59.2878 167.193 -70.2897C188.095 -81.2917 217.715 -65.0939 213.214 -40.1539C208.713 -23.3832 212.739 -18.7026 220.836 8.36437Z" stroke="white" stroke-width="0.347722"/>
<path d="M209.271 2.15734C213.749 16.8667 194.812 29.2095 180.219 21.9945C168.703 16.3006 158.149 22.99 148.565 19.5212C129.895 12.7596 140.101 5.3753 127.403 -3.27806C113.286 -13.299 112.483 -43.8953 136.18 -44.0164C156.624 -44.1374 150.638 -53.224 167.296 -60.509C183.954 -67.7938 205.804 -56.6583 203.553 -36.1938C201.303 -24.8063 203.025 -17.9492 209.271 2.15734Z" stroke="white" stroke-width="0.347722"/>
</g>
<defs>
<clipPath id="clip0_1_2635">
<rect width="330.336" height="145" fill="white" transform="translate(0.5)"/>
</clipPath>
</defs>
</svg>
