<svg width="390" height="171" viewBox="0 0 390 171" fill="none" xmlns="http://www.w3.org/2000/svg">
<g opacity="0.06" clip-path="url(#clip0_1_2674)">
<path d="M382.958 71.0717C409.887 168.66 310.129 178.593 238.133 149.127C196.128 133.972 168.542 181.101 116.506 162.293C64.4693 143.484 126.85 84.2376 47.228 53.8306C-32.3941 23.4236 6.47674 -112.624 76.0677 -114.191C145.659 -115.759 126.537 -138.642 196.128 -190.993C265.719 -243.343 382.958 -170.617 353.806 -93.8157C324.651 -17.0145 353.806 -34.5689 382.958 71.0717Z" stroke="white" stroke-width="0.409469"/>
<path d="M233.182 -4.8761C236.289 4.41865 221.735 19.4134 210.032 13.0141C199.316 7.15411 188.403 11.1063 181.193 8.49382C162.212 1.61617 169.194 -2.02434 160.709 -10.1927C150.384 -20.1324 145.457 -46.1601 169.194 -46.1601C188.716 -46.1601 182.875 -55.642 197.493 -59.8435C212.112 -64.0447 228.691 -56.8932 228.691 -38.0649C228.691 -30.9944 228.007 -20.3567 233.182 -4.8761Z" stroke="white" stroke-width="0.409469"/>
<path d="M369.346 64.6415C394.11 154.203 302.094 164.596 235.581 137.227C196.42 122.918 170.35 166.121 122.389 148.785C73.3573 131.061 130.702 76.8696 57.547 48.4844C-15.7755 19.9382 19.1137 -106.108 84.5362 -107.533C149.575 -108.957 131.661 -130.623 196.254 -178.596C260.847 -226.569 368.936 -159.804 342.433 -88.2733C315.931 -17.8112 342.371 -32.8027 369.346 64.6415Z" stroke="white" stroke-width="0.409469"/>
<path d="M355.731 58.2111C378.328 139.746 294.059 150.6 233.028 125.327C196.711 111.863 172.157 151.141 128.271 135.277C82.2444 118.638 134.553 69.5018 67.8648 43.1383C0.842026 16.4525 31.7497 -99.5916 93.0035 -100.874C153.491 -102.156 136.784 -122.603 196.38 -166.199C255.977 -209.795 354.913 -148.992 331.061 -82.731C307.209 -18.6081 330.936 -31.0369 355.731 58.2111Z" stroke="white" stroke-width="0.409469"/>
<path d="M342.116 51.7801C362.548 125.288 286.027 136.602 230.475 113.426C197.003 100.807 173.965 136.16 134.154 121.769C91.1324 106.214 138.404 62.133 78.1833 37.7909C17.4604 12.966 44.3864 -93.0762 101.472 -94.2162C157.408 -95.356 141.908 -114.585 196.506 -153.803C251.105 -193.022 340.891 -138.18 319.689 -77.1896C298.487 -19.4059 319.501 -29.2718 342.116 51.7801Z" stroke="white" stroke-width="0.409469"/>
<path d="M328.501 45.349C346.769 110.83 277.992 122.604 227.922 101.526C197.294 89.7511 175.771 121.179 140.036 108.26C100.019 93.7903 142.255 54.7641 88.5009 32.4438C34.0778 9.47956 57.0223 -86.5607 109.939 -87.5582C161.323 -88.5557 147.031 -106.566 196.632 -141.408C246.233 -176.249 326.869 -127.368 308.316 -71.6481C289.764 -20.2036 308.066 -27.5065 328.501 45.349Z" stroke="white" stroke-width="0.409469"/>
<path d="M314.886 38.5914C330.989 96.0462 269.959 108.28 225.369 89.2987C197.586 78.3693 177.579 105.872 145.918 94.4257C108.907 81.0403 146.106 47.0691 98.8191 26.7705C50.6957 5.66694 69.6585 -80.3716 118.407 -81.2266C165.239 -82.0816 152.154 -98.8735 196.758 -129.338C241.361 -159.802 312.846 -116.883 296.944 -66.433C281.042 -21.3275 296.634 -26.0673 314.886 38.5914Z" stroke="white" stroke-width="0.409469"/>
<path d="M301.272 31.4491C315.209 80.8772 261.925 93.5713 222.815 76.687C197.877 66.6023 179.385 90.1801 151.799 80.2057C117.793 67.905 149.957 38.989 109.137 20.7122C67.3128 1.46919 82.2938 -74.5676 126.874 -75.2801C169.154 -75.9926 157.277 -91.5662 196.883 -117.653C236.489 -143.741 298.822 -106.782 285.569 -61.6027C272.319 -22.8365 285.197 -25.0135 301.272 31.4491Z" stroke="white" stroke-width="0.409469"/>
<path d="M287.656 24.285C299.426 65.6865 253.889 78.8406 220.261 64.0532C198.166 54.8136 181.191 74.4662 157.68 65.9642C126.679 54.7483 153.806 30.8873 119.453 14.6322C83.929 -2.75017 94.9287 -68.7852 135.34 -69.3552C173.069 -69.9252 162.398 -84.2803 197.007 -105.99C231.615 -127.7 284.799 -96.7034 274.196 -56.7943C263.596 -24.3671 273.761 -23.9812 287.656 24.285Z" stroke="white" stroke-width="0.409469"/>
<path d="M274.042 17.0901C283.647 50.4648 245.854 64.0792 217.708 51.3888C198.458 42.9941 182.998 58.7217 163.562 51.692C135.566 41.5606 157.657 22.7548 129.771 8.52139C100.547 -7.00031 107.565 -63.0335 143.807 -63.461C176.985 -63.8885 167.522 -77.0254 197.132 -94.3583C226.744 -111.691 270.775 -86.6556 262.825 -52.0166C254.872 -25.9286 262.327 -22.9797 274.042 17.0901Z" stroke="white" stroke-width="0.409469"/>
<path d="M260.424 9.84969C267.864 35.1977 237.817 49.2721 215.152 38.679C198.747 31.129 184.803 42.9314 169.442 37.3742C144.451 28.3275 161.506 14.5767 140.087 2.36501C117.162 -11.296 120.199 -57.3275 152.272 -57.6125C180.898 -57.8973 172.642 -69.8159 197.256 -82.7716C221.869 -95.7272 256.749 -76.6531 251.449 -47.2844C246.149 -27.5355 250.89 -22.0237 260.424 9.84969Z" stroke="white" stroke-width="0.409469"/>
<path d="M246.806 2.5404C252.08 19.8618 229.779 34.3964 212.595 25.9002C199.034 19.1952 186.605 27.0724 175.32 22.9877C153.334 15.0254 165.352 6.32979 150.401 -3.8602C133.776 -15.6606 132.831 -51.6902 160.736 -51.8327C184.81 -51.9752 177.761 -62.6753 197.378 -71.254C216.994 -79.8324 242.723 -66.7195 240.073 -42.621C237.422 -29.2113 239.451 -21.1366 246.806 2.5404Z" stroke="white" stroke-width="0.409469"/>
</g>
<defs>
<clipPath id="clip0_1_2674">
<rect width="388.996" height="170.749" fill="white" transform="translate(0.962402)"/>
</clipPath>
</defs>
</svg>
