<svg width="390" height="172" viewBox="0 0 390 172" fill="none" xmlns="http://www.w3.org/2000/svg">
<g opacity="0.06" clip-path="url(#clip0_1_2655)">
<path d="M382.958 71.782C409.888 169.37 310.129 179.304 238.134 149.837C196.129 134.683 168.543 181.811 116.506 163.003C64.47 144.194 126.851 84.9479 47.2287 54.5409C-32.3934 24.1339 6.47747 -111.914 76.0684 -113.481C145.66 -115.048 126.538 -137.932 196.129 -190.282C265.72 -242.632 382.958 -169.906 353.806 -93.1054C324.652 -16.3041 353.806 -33.8586 382.958 71.782Z" stroke="white" stroke-width="0.409469"/>
<path d="M233.183 -4.16589C236.29 5.12886 221.736 20.1236 210.033 13.7243C199.316 7.86431 188.403 11.8165 181.193 9.20403C162.212 2.32638 169.194 -1.31414 160.709 -9.48245C150.384 -19.4222 145.458 -45.4499 169.194 -45.4499C188.717 -45.4499 182.875 -54.9318 197.494 -59.1332C212.113 -63.3345 228.691 -56.183 228.691 -37.3547C228.691 -30.2842 228.007 -19.6465 233.183 -4.16589Z" stroke="white" stroke-width="0.409469"/>
<path d="M369.346 65.3518C394.111 154.913 302.094 165.307 235.582 137.937C196.421 123.628 170.351 166.832 122.389 149.495C73.358 131.772 130.703 77.58 57.5477 49.1947C-15.7748 20.6485 19.1144 -105.397 84.5369 -106.822C149.576 -108.247 131.662 -129.912 196.255 -177.885C260.847 -225.858 368.936 -159.094 342.434 -87.563C315.932 -17.1008 342.372 -32.0924 369.346 65.3518Z" stroke="white" stroke-width="0.409469"/>
<path d="M355.731 58.9213C378.329 140.456 294.06 151.31 233.028 126.037C196.712 112.573 172.158 151.851 128.271 135.987C82.2449 119.348 134.553 70.212 67.8653 43.8485C0.842514 17.1627 31.7502 -98.8814 93.004 -100.164C153.492 -101.446 136.785 -121.893 196.38 -165.489C255.977 -209.085 354.914 -148.281 331.062 -82.0208C307.209 -17.8979 330.937 -30.3267 355.731 58.9213Z" stroke="white" stroke-width="0.409469"/>
<path d="M342.117 52.4904C362.549 125.999 286.027 137.312 230.476 114.137C197.004 101.517 173.965 136.87 134.154 122.479C91.1329 106.924 138.405 62.8433 78.1838 38.5013C17.4609 13.6763 44.3869 -92.3659 101.472 -93.5059C157.408 -94.6456 141.908 -113.874 196.507 -153.093C251.105 -192.312 340.892 -137.47 319.689 -76.4793C298.487 -18.6955 319.502 -28.5614 342.117 52.4904Z" stroke="white" stroke-width="0.409469"/>
<path d="M328.502 46.0592C346.769 111.541 277.992 123.314 227.922 102.236C197.295 90.4613 175.772 121.89 140.036 108.97C100.02 94.5005 142.256 55.4743 88.5014 33.154C34.0783 10.1898 57.0228 -85.8505 109.939 -86.848C161.324 -87.8455 147.031 -105.856 196.632 -140.697C246.233 -175.539 326.869 -126.658 308.317 -70.9379C289.765 -19.4934 308.067 -26.7963 328.502 46.0592Z" stroke="white" stroke-width="0.409469"/>
<path d="M314.887 39.3017C330.989 96.7565 269.96 108.991 225.369 90.0091C197.586 79.0796 177.579 106.582 145.918 95.136C108.907 81.7506 146.107 47.7794 98.8196 27.4808C50.6962 6.37727 69.659 -79.6613 118.407 -80.5163C165.24 -81.3713 152.155 -98.1631 196.758 -128.627C241.362 -159.092 312.847 -116.173 296.944 -65.7227C281.042 -20.6171 296.634 -25.357 314.887 39.3017Z" stroke="white" stroke-width="0.409469"/>
<path d="M301.272 32.1594C315.209 81.5875 261.925 94.2816 222.816 77.3973C197.877 67.3126 179.385 90.8904 151.8 80.916C117.794 68.6154 149.957 39.6993 109.137 21.4225C67.3132 2.17952 82.2943 -73.8572 126.874 -74.5697C169.155 -75.2822 157.277 -90.8559 196.883 -116.943C236.489 -143.03 298.822 -106.072 285.57 -60.8924C272.32 -22.1261 285.197 -24.3031 301.272 32.1594Z" stroke="white" stroke-width="0.409469"/>
<path d="M287.657 24.9953C299.427 66.3968 253.89 79.5509 220.262 64.7636C198.167 55.5239 181.191 75.1765 157.681 66.6745C126.68 55.4586 153.807 31.5976 119.454 15.3425C83.9297 -2.03984 94.9294 -68.0749 135.34 -68.6448C173.07 -69.2148 162.399 -83.57 197.008 -105.28C231.616 -126.99 284.799 -95.9931 274.197 -56.0839C263.597 -23.6568 273.762 -23.2708 287.657 24.9953Z" stroke="white" stroke-width="0.409469"/>
<path d="M274.043 17.8004C283.647 51.1751 245.854 64.7895 217.708 52.0991C198.458 43.7044 182.998 59.4321 163.563 52.4024C135.567 42.2709 157.658 23.4651 129.771 9.23171C100.547 -6.28998 107.565 -62.3232 143.808 -62.7507C176.985 -63.1782 167.522 -76.3151 197.133 -93.6479C226.744 -110.981 270.775 -85.9453 262.825 -51.3063C254.873 -25.2183 262.328 -22.2693 274.043 17.8004Z" stroke="white" stroke-width="0.409469"/>
<path d="M260.425 10.56C267.865 35.9081 237.818 49.9824 215.153 39.3893C198.747 31.8393 184.803 43.6417 169.443 38.0845C144.452 29.0379 161.506 15.287 140.087 3.07534C117.163 -10.5857 120.199 -56.6172 152.273 -56.9022C180.899 -57.1869 172.643 -69.1056 197.256 -82.0612C221.87 -95.0169 256.75 -75.9428 251.45 -46.574C246.149 -26.8252 250.891 -21.3134 260.425 10.56Z" stroke="white" stroke-width="0.409469"/>
<path d="M246.807 3.25072C252.08 20.5721 229.779 35.1067 212.596 26.6105C199.035 19.9055 186.606 27.7828 175.321 23.698C153.335 15.7357 165.353 7.04012 150.401 -3.14987C133.776 -14.9503 132.831 -50.9798 160.737 -51.1223C184.81 -51.2648 177.762 -61.965 197.378 -70.5437C216.994 -79.1221 242.724 -66.0092 240.073 -41.9107C237.423 -28.501 239.452 -20.4263 246.807 3.25072Z" stroke="white" stroke-width="0.409469"/>
</g>
<defs>
<clipPath id="clip0_1_2655">
<rect width="388.996" height="170.749" fill="white" transform="translate(0.962646 0.710327)"/>
</clipPath>
</defs>
</svg>
