<svg width="93" height="35" viewBox="0 0 93 35" fill="none" xmlns="http://www.w3.org/2000/svg">
<path d="M49.5864 22.4778C50.2086 22.4778 50.3864 22.8778 50.3864 23.5001V30.5074C50.3864 31.1889 50.2086 31.5296 49.5864 31.5296V32.3296H53.3938V31.5296C52.7123 31.4704 52.5346 31.2482 52.5346 30.3889V23.3815C52.5346 22.7001 52.7568 22.3593 53.3938 22.3593V21.5593H49.5864V22.4778Z" fill="url(#paint0_linear_1_2757)"/>
<path d="M58.9786 27.1447C58.4156 26.4632 57.8379 26.004 57.6749 25.7817L56.5342 24.641C56.1342 24.3003 55.9712 23.9595 55.9119 23.678C55.7934 23.3966 55.7934 22.8188 56.0897 22.5373C56.386 22.2558 56.7119 22.1373 57.1119 22.1966C57.5119 22.2558 57.9712 22.5966 58.1934 22.878C58.4156 23.2188 58.6527 23.6188 58.7564 23.9003C58.8156 24.1817 58.8749 24.3595 58.8749 24.4188C58.8749 24.478 58.9341 24.7003 58.9341 24.7595H59.8378V21.5744H59.1564C59.1564 21.5744 59.0971 21.7521 58.9786 21.7966C58.8601 21.8558 58.8008 21.7966 58.7564 21.7966C58.6971 21.7373 58.1342 21.5151 57.4527 21.3966C56.7712 21.2781 55.9119 21.3373 55.349 21.6188C55.0082 21.7966 54.786 21.9595 54.4897 22.1818C54.2675 22.404 54.0305 22.7447 53.9268 23.041C53.7045 23.604 53.6453 24.3003 53.8675 24.9225C54.0897 25.5447 54.549 26.1225 54.8897 26.5225L55.6897 27.3225C56.0305 27.6632 56.4305 28.0632 56.549 28.2262C56.8305 28.5077 57.1119 28.7891 57.5119 29.2484C57.9119 29.7669 58.0304 30.1521 57.9712 30.6113C57.9119 31.0706 57.6897 31.2928 57.4527 31.4706C57.1712 31.6484 56.7712 31.6928 56.3712 31.5299C55.9712 31.3669 55.6897 31.0706 55.5712 30.8484C55.3934 30.6262 55.2305 30.1669 55.1119 29.8262C54.9934 29.4854 54.8897 29.0262 54.8897 29.0262H54.0897V32.2706H54.6527C54.7119 32.2113 54.8305 32.0484 54.9342 31.9891C55.1119 31.8706 55.2749 31.9299 55.4527 31.9891C55.6305 32.0484 55.7934 32.1669 56.0749 32.2113C56.4749 32.3299 56.8749 32.3891 57.3786 32.3891C57.9416 32.3299 58.1193 32.2706 58.4601 32.1076C58.8601 31.9299 59.3193 31.5891 59.6601 30.9669C60.0008 30.2854 60.0601 29.4854 59.9415 28.8632C59.823 28.2262 59.4823 27.7669 58.9786 27.1447Z" fill="url(#paint1_linear_1_2757)"/>
<path d="M39.9568 31.5745C39.1568 31.5745 38.6976 31.0115 38.6976 30.093V27.13C39.8383 27.13 40.8605 27.53 40.979 28.5523H41.7198V25.0856H40.979C40.8012 25.9893 39.8383 26.3449 38.6976 26.3449V22.4782H39.2605C40.2827 22.4782 41.2457 22.7004 41.8827 23.9597H42.5642V21.6782H35.4531V22.4782C36.0753 22.4782 36.3568 22.819 36.3568 23.5004V30.3893C36.3568 31.13 36.179 31.4708 35.4976 31.53V32.33H42.4457L42.7272 29.6041H42.0457C41.6161 30.893 40.7568 31.5745 39.9568 31.5745Z" fill="url(#paint2_linear_1_2757)"/>
<path d="M31.8827 22.4779C32.6827 22.5964 32.8456 23.0409 32.8456 24.1816V28.226H32.7864L28.7419 21.6779H25.6753V22.4779C26.0753 22.5964 26.816 22.8779 27.0975 23.5001V29.189C27.0975 30.8334 26.9197 31.2334 26.1346 31.5742V32.3742H29.0382V31.5742C28.179 31.3964 28.016 30.8334 28.016 29.8705V24.2409L28.0753 24.3001L33.0234 32.4334H33.7641V23.9446C33.7641 23.3223 33.8827 22.8631 34.1049 22.6409C34.3271 22.4186 34.9641 22.4186 34.9641 22.4186V21.6187H31.9419V22.4779H31.8827Z" fill="url(#paint3_linear_1_2757)"/>
<path d="M17.0825 21.6782H8.71216V24.019H9.39364C9.67512 22.5967 10.9936 22.4782 11.7344 22.4782V30.5671C11.7344 31.2485 11.6158 31.5893 10.8751 31.5893V32.3893H14.9788V31.5893C14.1195 31.53 14.1195 31.13 14.1195 30.4486V22.4782C14.9195 22.4782 16.0603 22.7004 16.3418 24.019H17.0825V21.6782Z" fill="url(#paint4_linear_1_2757)"/>
<path d="M7.28987 27.1447C6.72691 26.4632 6.14914 25.9447 5.98617 25.7817L4.84544 24.641C4.44544 24.3003 4.28248 23.9595 4.22322 23.678C4.1047 23.3966 4.1047 22.8188 4.401 22.5373C4.69729 22.2558 5.02321 22.1373 5.42321 22.1966C5.82321 22.2558 6.28247 22.5966 6.50469 22.878C6.72691 23.1595 6.96395 23.6188 7.06765 23.9003C7.12691 24.1817 7.18617 24.3595 7.18617 24.4188C7.18617 24.478 7.24543 24.7003 7.24543 24.7595H8.14913V21.5744H7.46765C7.46765 21.5744 7.40839 21.7521 7.28987 21.7966C7.17135 21.8558 7.11209 21.7966 7.06765 21.7966C7.00839 21.7373 6.44543 21.5151 5.76395 21.3966C5.08247 21.2781 4.22322 21.3373 3.66026 21.6188C3.31952 21.7966 3.0973 21.9595 2.801 22.1818C2.57878 22.404 2.34175 22.7447 2.23804 23.041C2.01582 23.604 1.95656 24.3003 2.17878 24.9225C2.401 25.5447 2.801 26.1225 3.201 26.5225L4.001 27.3225C4.34174 27.6632 4.74173 28.0632 4.86025 28.2262C5.14173 28.5077 5.42321 28.7891 5.82321 29.2484C6.22321 29.7669 6.34173 30.1521 6.28247 30.6113C6.22321 31.0706 6.00099 31.2928 5.76395 31.4706C5.48247 31.6484 5.08247 31.6928 4.68248 31.5299C4.28248 31.3521 4.001 31.0706 3.88248 30.8484C3.7047 30.6262 3.54174 30.1669 3.42322 29.8262C3.3047 29.4706 3.18619 29.0262 3.18619 29.0262H2.38619V32.2706H2.94915C3.00841 32.2113 3.12693 32.0484 3.23063 31.9891C3.40841 31.8706 3.57137 31.9299 3.74915 31.9891C3.92692 32.0484 4.08989 32.1669 4.37137 32.2113C4.77136 32.3299 5.17136 32.3891 5.67506 32.3891C6.23802 32.3299 6.4158 32.2706 6.75654 32.1076C7.15654 31.9299 7.6158 31.5891 7.95653 30.9669C8.29727 30.2854 8.35653 29.4854 8.23801 28.8632C8.13431 28.2262 7.79357 27.7669 7.28987 27.1447Z" fill="url(#paint5_linear_1_2757)"/>
<path d="M21.4677 21.5002C20.2677 21.5002 17.0825 22.241 17.0825 26.9669C17.0825 31.6335 20.1047 32.552 21.4677 32.552C22.8306 32.552 25.8528 31.6483 25.8528 26.9669C25.838 22.241 22.5936 21.5002 21.4677 21.5002ZM22.7714 30.5521C22.4899 31.1743 22.2084 31.752 21.4677 31.752C20.7269 31.752 20.2084 30.9521 20.0455 30.3891C19.927 29.8261 19.7047 28.5669 19.764 26.9224C19.764 25.3224 19.9418 24.1373 20.0455 23.678C20.164 23.2188 20.564 22.2558 21.4677 22.2558C22.0899 22.2558 22.6084 22.7743 22.8306 23.5151C23.0529 24.2558 23.1714 25.9002 23.1714 26.9373C23.1714 27.9447 23.0529 29.9298 22.7714 30.5521Z" fill="url(#paint6_linear_1_2757)"/>
<path d="M48.6082 12.7889L46.386 2.03345L44.223 12.7889L33.4675 14.9519L44.223 17.1149L46.386 27.8704L48.5489 17.1149L59.3044 14.9519L48.6082 12.7889ZM34.8453 14.9519L44.3564 13.0112L46.2378 14.9519H34.8453ZM46.4008 26.5074L44.4601 16.9963L46.4008 15.1149V26.5074ZM46.4008 3.3964L48.3415 12.9075L46.4008 14.7889V3.3964ZM48.5045 16.8926L46.623 14.9519H58.0007L48.5045 16.8926Z" fill="url(#paint7_linear_1_2757)"/>
<path d="M80.4896 22.4781C81.2896 22.5967 81.4526 23.1004 81.4526 24.2411V28.2855H81.4081L77.423 21.7374H74.6971V22.5374C75.0971 22.6559 75.7193 23.4411 75.7193 23.4411V29.6485C75.66 30.3892 75.66 31.13 75.3193 31.4707C75.2008 31.5892 75.0971 31.5892 74.9193 31.5892C74.5193 31.5892 74.2971 31.2485 73.8971 29.7077L71.8526 21.7374H69.6304L69.8526 22.5967L67.9119 29.3077C67.4527 30.9522 67.2304 31.4707 66.7119 31.7522V32.3744H69.3341V31.7522C68.8156 31.5744 68.5934 31.13 68.5934 30.6707C68.5934 30.4485 68.7119 30.0485 68.7712 29.767L69.0526 28.804H71.3934L71.6749 30.004C71.7934 30.5225 71.8526 30.7448 71.8526 30.9077C71.8526 31.3077 71.6304 31.7077 71.2304 31.8114V32.4336H77.66V31.7522C76.8008 31.5744 76.5785 30.8929 76.5785 29.93V24.2411L76.6378 24.3004L81.5859 32.4336H82.3267V23.9448C82.3267 23.0411 82.3859 22.5818 83.0081 22.4633V21.6633H80.4452V22.4633H80.4896V22.4781ZM69.3934 27.767L70.2971 24.0633H70.3563L71.2156 27.767H69.3934Z" fill="url(#paint8_linear_1_2757)"/>
<path d="M86.5198 21.6782H83.4531V22.4782C83.8531 22.5967 83.9716 22.9967 83.9716 23.4412V30.3893C83.9716 31.13 83.9716 31.4708 83.4531 31.53V32.33H86.8161C90.179 32.33 90.9198 29.5449 90.9198 26.9819C90.9049 23.1597 89.4235 21.6782 86.5198 21.6782ZM86.979 31.5745C86.4605 31.5745 86.179 31.3523 86.179 30.3745V22.4634H86.4605C87.542 22.4634 88.4457 23.3227 88.4457 26.9078C88.4605 29.6486 88.179 31.5745 86.979 31.5745Z" fill="url(#paint9_linear_1_2757)"/>
<path d="M63.8671 31.5745C63.3041 31.5745 63.3486 31.0115 63.3486 29.93V23.5597C63.3486 22.8782 63.5264 22.5375 64.2078 22.4782V21.6782H60.5042V22.4782C61.0671 22.5375 61.2449 22.819 61.2449 23.5597V30.5078C61.2449 31.1893 61.1264 31.53 60.5042 31.5893V32.3893H66.3115L66.6523 29.7078H66.03C65.5263 30.893 64.6671 31.5745 63.8671 31.5745Z" fill="url(#paint10_linear_1_2757)"/>
<defs>
<linearGradient id="paint0_linear_1_2757" x1="51.4901" y1="21.5593" x2="51.4901" y2="32.3296" gradientUnits="userSpaceOnUse">
<stop stop-color="#E8F2F9"/>
<stop offset="1" stop-color="#A7B1B7"/>
</linearGradient>
<linearGradient id="paint1_linear_1_2757" x1="56.8625" y1="21.3389" x2="56.8625" y2="32.3891" gradientUnits="userSpaceOnUse">
<stop stop-color="#E8F2F9"/>
<stop offset="1" stop-color="#A7B1B7"/>
</linearGradient>
<linearGradient id="paint2_linear_1_2757" x1="39.0901" y1="21.6782" x2="39.0901" y2="32.33" gradientUnits="userSpaceOnUse">
<stop stop-color="#E8F2F9"/>
<stop offset="1" stop-color="#A7B1B7"/>
</linearGradient>
<linearGradient id="paint3_linear_1_2757" x1="30.3197" y1="21.6187" x2="30.3197" y2="32.4334" gradientUnits="userSpaceOnUse">
<stop stop-color="#E8F2F9"/>
<stop offset="1" stop-color="#A7B1B7"/>
</linearGradient>
<linearGradient id="paint4_linear_1_2757" x1="12.8973" y1="21.6782" x2="12.8973" y2="32.3893" gradientUnits="userSpaceOnUse">
<stop stop-color="#E8F2F9"/>
<stop offset="1" stop-color="#A7B1B7"/>
</linearGradient>
<linearGradient id="paint5_linear_1_2757" x1="5.16636" y1="21.3389" x2="5.16636" y2="32.3891" gradientUnits="userSpaceOnUse">
<stop stop-color="#E8F2F9"/>
<stop offset="1" stop-color="#A7B1B7"/>
</linearGradient>
<linearGradient id="paint6_linear_1_2757" x1="21.4677" y1="21.5002" x2="21.4677" y2="32.552" gradientUnits="userSpaceOnUse">
<stop stop-color="#E8F2F9"/>
<stop offset="1" stop-color="#A7B1B7"/>
</linearGradient>
<linearGradient id="paint7_linear_1_2757" x1="46.386" y1="2.03345" x2="46.386" y2="27.8704" gradientUnits="userSpaceOnUse">
<stop stop-color="#E8F2F9"/>
<stop offset="1" stop-color="#A7B1B7"/>
</linearGradient>
<linearGradient id="paint8_linear_1_2757" x1="74.86" y1="21.6633" x2="74.86" y2="32.4336" gradientUnits="userSpaceOnUse">
<stop stop-color="#E8F2F9"/>
<stop offset="1" stop-color="#A7B1B7"/>
</linearGradient>
<linearGradient id="paint9_linear_1_2757" x1="87.1864" y1="21.6782" x2="87.1864" y2="32.33" gradientUnits="userSpaceOnUse">
<stop stop-color="#E8F2F9"/>
<stop offset="1" stop-color="#A7B1B7"/>
</linearGradient>
<linearGradient id="paint10_linear_1_2757" x1="63.5782" y1="21.6782" x2="63.5782" y2="32.3893" gradientUnits="userSpaceOnUse">
<stop stop-color="#E8F2F9"/>
<stop offset="1" stop-color="#A7B1B7"/>
</linearGradient>
</defs>
</svg>
