<svg width="93" height="35" viewBox="0 0 93 35" fill="none" xmlns="http://www.w3.org/2000/svg">
<path d="M49.885 22.4778C50.5072 22.4778 50.685 22.8778 50.685 23.5001V30.5074C50.685 31.1889 50.5072 31.5296 49.885 31.5296V32.3296H53.6924V31.5296C53.0109 31.4704 52.8331 31.2482 52.8331 30.3889V23.3815C52.8331 22.7001 53.0554 22.3593 53.6924 22.3593V21.5593H49.885V22.4778Z" fill="url(#paint0_linear_1_2730)"/>
<path d="M59.2772 27.1447C58.7142 26.4632 58.1364 26.004 57.9735 25.7817L56.8327 24.641C56.4327 24.3003 56.2698 23.9595 56.2105 23.678C56.092 23.3966 56.092 22.8188 56.3883 22.5373C56.6846 22.2558 57.0105 22.1373 57.4105 22.1966C57.8105 22.2558 58.2698 22.5966 58.492 22.878C58.7142 23.2188 58.9512 23.6188 59.055 23.9003C59.1142 24.1817 59.1735 24.3595 59.1735 24.4188C59.1735 24.478 59.2327 24.7003 59.2327 24.7595H60.1364V21.5744H59.455C59.455 21.5744 59.3957 21.7521 59.2772 21.7966C59.1587 21.8558 59.0994 21.7966 59.055 21.7966C58.9957 21.7373 58.4327 21.5151 57.7513 21.3966C57.0698 21.2781 56.2105 21.3373 55.6476 21.6188C55.3068 21.7966 55.0846 21.9595 54.7883 22.1818C54.5661 22.404 54.3291 22.7447 54.2253 23.041C54.0031 23.604 53.9439 24.3003 54.1661 24.9225C54.3883 25.5447 54.8476 26.1225 55.1883 26.5225L55.9883 27.3225C56.329 27.6632 56.729 28.0632 56.8476 28.2262C57.129 28.5077 57.4105 28.7891 57.8105 29.2484C58.2105 29.7669 58.329 30.1521 58.2698 30.6113C58.2105 31.0706 57.9883 31.2928 57.7513 31.4706C57.4698 31.6484 57.0698 31.6928 56.6698 31.5299C56.2698 31.3669 55.9883 31.0706 55.8698 30.8484C55.692 30.6262 55.529 30.1669 55.4105 29.8262C55.292 29.4854 55.1883 29.0262 55.1883 29.0262H54.3883V32.2706H54.9513C55.0105 32.2113 55.129 32.0484 55.2328 31.9891C55.4105 31.8706 55.5735 31.9299 55.7513 31.9891C55.929 32.0484 56.092 32.1669 56.3735 32.2113C56.7735 32.3299 57.1735 32.3891 57.6772 32.3891C58.2401 32.3299 58.4179 32.2706 58.7587 32.1076C59.1587 31.9299 59.6179 31.5891 59.9587 30.9669C60.2994 30.2854 60.3586 29.4854 60.2401 28.8632C60.1216 28.2262 59.7809 27.7669 59.2772 27.1447Z" fill="url(#paint1_linear_1_2730)"/>
<path d="M40.2554 31.5745C39.4554 31.5745 38.9961 31.0115 38.9961 30.093V27.13C40.1369 27.13 41.1591 27.53 41.2776 28.5523H42.0183V25.0856H41.2776C41.0998 25.9893 40.1369 26.3449 38.9961 26.3449V22.4782H39.5591C40.5813 22.4782 41.5443 22.7004 42.1813 23.9597H42.8628V21.6782H35.7517V22.4782C36.3739 22.4782 36.6554 22.819 36.6554 23.5004V30.3893C36.6554 31.13 36.4776 31.4708 35.7962 31.53V32.33H42.7443L43.0257 29.6041H42.3443C41.9146 30.893 41.0554 31.5745 40.2554 31.5745Z" fill="url(#paint2_linear_1_2730)"/>
<path d="M32.1813 22.4779C32.9812 22.5964 33.1442 23.0409 33.1442 24.1816V28.226H33.085L29.0405 21.6779H25.9739V22.4779C26.3739 22.5964 27.1146 22.8779 27.3961 23.5001V29.189C27.3961 30.8334 27.2183 31.2334 26.4331 31.5742V32.3742H29.3368V31.5742C28.4776 31.3964 28.3146 30.8334 28.3146 29.8705V24.2409L28.3739 24.3001L33.322 32.4334H34.0627V23.9446C34.0627 23.3223 34.1812 22.8631 34.4035 22.6409C34.6257 22.4186 35.2627 22.4186 35.2627 22.4186V21.6187H32.2405V22.4779H32.1813Z" fill="url(#paint3_linear_1_2730)"/>
<path d="M17.3811 21.6782H9.01074V24.019H9.69222C9.9737 22.5967 11.2922 22.4782 12.033 22.4782V30.5671C12.033 31.2485 11.9144 31.5893 11.1737 31.5893V32.3893H15.2774V31.5893C14.4181 31.53 14.4181 31.13 14.4181 30.4486V22.4782C15.2181 22.4782 16.3589 22.7004 16.6403 24.019H17.3811V21.6782Z" fill="url(#paint4_linear_1_2730)"/>
<path d="M7.58846 27.1447C7.0255 26.4632 6.44772 25.9447 6.28476 25.7817L5.14402 24.641C4.74402 24.3003 4.58106 23.9595 4.5218 23.678C4.40328 23.3966 4.40328 22.8188 4.69958 22.5373C4.99587 22.2558 5.3218 22.1373 5.7218 22.1966C6.12179 22.2558 6.58105 22.5966 6.80327 22.878C7.02549 23.1595 7.26253 23.6188 7.36623 23.9003C7.42549 24.1817 7.48475 24.3595 7.48475 24.4188C7.48475 24.478 7.54401 24.7003 7.54401 24.7595H8.44771V21.5744H7.76623C7.76623 21.5744 7.70697 21.7521 7.58846 21.7966C7.46994 21.8558 7.41068 21.7966 7.36623 21.7966C7.30697 21.7373 6.74401 21.5151 6.06254 21.3966C5.38106 21.2781 4.5218 21.3373 3.95884 21.6188C3.6181 21.7966 3.39588 21.9595 3.09959 22.1818C2.87737 22.404 2.64033 22.7447 2.53663 23.041C2.31441 23.604 2.25515 24.3003 2.47737 24.9225C2.69959 25.5447 3.09959 26.1225 3.49958 26.5225L4.29958 27.3225C4.64032 27.6632 5.04032 28.0632 5.15884 28.2262C5.44032 28.5077 5.7218 28.7891 6.1218 29.2484C6.52179 29.7669 6.64031 30.1521 6.58105 30.6113C6.52179 31.0706 6.29957 31.2928 6.06254 31.4706C5.78106 31.6484 5.38106 31.6928 4.98106 31.5299C4.58106 31.3521 4.29958 31.0706 4.18106 30.8484C4.00329 30.6262 3.84032 30.1669 3.72181 29.8262C3.60329 29.4706 3.48477 29.0262 3.48477 29.0262H2.68477V32.2706H3.24773C3.30699 32.2113 3.42551 32.0484 3.52921 31.9891C3.70699 31.8706 3.86995 31.9299 4.04773 31.9891C4.22551 32.0484 4.38847 32.1669 4.66995 32.2113C5.06995 32.3299 5.46995 32.3891 5.97365 32.3891C6.53661 32.3299 6.71439 32.2706 7.05512 32.1076C7.45512 31.9299 7.91438 31.5891 8.25512 30.9669C8.59586 30.2854 8.65512 29.4854 8.5366 28.8632C8.4329 28.2262 8.09216 27.7669 7.58846 27.1447Z" fill="url(#paint5_linear_1_2730)"/>
<path d="M21.7663 21.5002C20.5663 21.5002 17.3811 22.241 17.3811 26.9669C17.3811 31.6335 20.4033 32.552 21.7663 32.552C23.1292 32.552 26.1514 31.6483 26.1514 26.9669C26.1366 22.241 22.8922 21.5002 21.7663 21.5002ZM23.07 30.5521C22.7885 31.1743 22.507 31.752 21.7663 31.752C21.0255 31.752 20.507 30.9521 20.3441 30.3891C20.2255 29.8261 20.0033 28.5669 20.0626 26.9224C20.0626 25.3224 20.2403 24.1373 20.3441 23.678C20.4626 23.2188 20.8626 22.2558 21.7663 22.2558C22.3885 22.2558 22.907 22.7743 23.1292 23.5151C23.3514 24.2558 23.47 25.9002 23.47 26.9373C23.47 27.9447 23.3514 29.9298 23.07 30.5521Z" fill="url(#paint6_linear_1_2730)"/>
<path d="M48.9068 12.7889L46.6846 2.03345L44.5216 12.7889L33.7661 14.9519L44.5216 17.1149L46.6846 27.8704L48.8475 17.1149L59.603 14.9519L48.9068 12.7889ZM35.1439 14.9519L44.6549 13.0112L46.5364 14.9519H35.1439ZM46.6994 26.5074L44.7586 16.9963L46.6994 15.1149V26.5074ZM46.6994 3.3964L48.6401 12.9075L46.6994 14.7889V3.3964ZM48.8031 16.8926L46.9216 14.9519H58.2993L48.8031 16.8926Z" fill="url(#paint7_linear_1_2730)"/>
<path d="M80.7882 22.4781C81.5882 22.5967 81.7512 23.1004 81.7512 24.2411V28.2855H81.7067L77.7216 21.7374H74.9956V22.5374C75.3956 22.6559 76.0179 23.4411 76.0179 23.4411V29.6485C75.9586 30.3892 75.9586 31.13 75.6179 31.4707C75.4993 31.5892 75.3956 31.5892 75.2179 31.5892C74.8179 31.5892 74.5956 31.2485 74.1956 29.7077L72.1512 21.7374H69.929L70.1512 22.5967L68.2105 29.3077C67.7512 30.9522 67.529 31.4707 67.0105 31.7522V32.3744H69.6327V31.7522C69.1142 31.5744 68.892 31.13 68.892 30.6707C68.892 30.4485 69.0105 30.0485 69.0697 29.767L69.3512 28.804H71.692L71.9734 30.004C72.092 30.5225 72.1512 30.7448 72.1512 30.9077C72.1512 31.3077 71.929 31.7077 71.529 31.8114V32.4336H77.9586V31.7522C77.0993 31.5744 76.8771 30.8929 76.8771 29.93V24.2411L76.9364 24.3004L81.8845 32.4336H82.6252V23.9448C82.6252 23.0411 82.6845 22.5818 83.3067 22.4633V21.6633H80.7438V22.4633H80.7882V22.4781ZM69.692 27.767L70.5957 24.0633H70.6549L71.5142 27.767H69.692Z" fill="url(#paint8_linear_1_2730)"/>
<path d="M86.8184 21.6782H83.7517V22.4782C84.1517 22.5967 84.2702 22.9967 84.2702 23.4412V30.3893C84.2702 31.13 84.2702 31.4708 83.7517 31.53V32.33H87.1146C90.4776 32.33 91.2183 29.5449 91.2183 26.9819C91.2035 23.1597 89.722 21.6782 86.8184 21.6782ZM87.2776 31.5745C86.7591 31.5745 86.4776 31.3523 86.4776 30.3745V22.4634H86.7591C87.8406 22.4634 88.7443 23.3227 88.7443 26.9078C88.7591 29.6486 88.4776 31.5745 87.2776 31.5745Z" fill="url(#paint9_linear_1_2730)"/>
<path d="M64.1657 31.5745C63.6027 31.5745 63.6472 31.0115 63.6472 29.93V23.5597C63.6472 22.8782 63.8249 22.5375 64.5064 22.4782V21.6782H60.8027V22.4782C61.3657 22.5375 61.5435 22.819 61.5435 23.5597V30.5078C61.5435 31.1893 61.425 31.53 60.8027 31.5893V32.3893H66.6101L66.9509 29.7078H66.3286C65.8249 30.893 64.9657 31.5745 64.1657 31.5745Z" fill="url(#paint10_linear_1_2730)"/>
<defs>
<linearGradient id="paint0_linear_1_2730" x1="51.7887" y1="21.5593" x2="51.7887" y2="32.3296" gradientUnits="userSpaceOnUse">
<stop stop-color="#E8F2F9"/>
<stop offset="1" stop-color="#A7B1B7"/>
</linearGradient>
<linearGradient id="paint1_linear_1_2730" x1="57.1611" y1="21.3389" x2="57.1611" y2="32.3891" gradientUnits="userSpaceOnUse">
<stop stop-color="#E8F2F9"/>
<stop offset="1" stop-color="#A7B1B7"/>
</linearGradient>
<linearGradient id="paint2_linear_1_2730" x1="39.3887" y1="21.6782" x2="39.3887" y2="32.33" gradientUnits="userSpaceOnUse">
<stop stop-color="#E8F2F9"/>
<stop offset="1" stop-color="#A7B1B7"/>
</linearGradient>
<linearGradient id="paint3_linear_1_2730" x1="30.6183" y1="21.6187" x2="30.6183" y2="32.4334" gradientUnits="userSpaceOnUse">
<stop stop-color="#E8F2F9"/>
<stop offset="1" stop-color="#A7B1B7"/>
</linearGradient>
<linearGradient id="paint4_linear_1_2730" x1="13.1959" y1="21.6782" x2="13.1959" y2="32.3893" gradientUnits="userSpaceOnUse">
<stop stop-color="#E8F2F9"/>
<stop offset="1" stop-color="#A7B1B7"/>
</linearGradient>
<linearGradient id="paint5_linear_1_2730" x1="5.46495" y1="21.3389" x2="5.46495" y2="32.3891" gradientUnits="userSpaceOnUse">
<stop stop-color="#E8F2F9"/>
<stop offset="1" stop-color="#A7B1B7"/>
</linearGradient>
<linearGradient id="paint6_linear_1_2730" x1="21.7663" y1="21.5002" x2="21.7663" y2="32.552" gradientUnits="userSpaceOnUse">
<stop stop-color="#E8F2F9"/>
<stop offset="1" stop-color="#A7B1B7"/>
</linearGradient>
<linearGradient id="paint7_linear_1_2730" x1="46.6846" y1="2.03345" x2="46.6846" y2="27.8704" gradientUnits="userSpaceOnUse">
<stop stop-color="#E8F2F9"/>
<stop offset="1" stop-color="#A7B1B7"/>
</linearGradient>
<linearGradient id="paint8_linear_1_2730" x1="75.1586" y1="21.6633" x2="75.1586" y2="32.4336" gradientUnits="userSpaceOnUse">
<stop stop-color="#E8F2F9"/>
<stop offset="1" stop-color="#A7B1B7"/>
</linearGradient>
<linearGradient id="paint9_linear_1_2730" x1="87.485" y1="21.6782" x2="87.485" y2="32.33" gradientUnits="userSpaceOnUse">
<stop stop-color="#E8F2F9"/>
<stop offset="1" stop-color="#A7B1B7"/>
</linearGradient>
<linearGradient id="paint10_linear_1_2730" x1="63.8768" y1="21.6782" x2="63.8768" y2="32.3893" gradientUnits="userSpaceOnUse">
<stop stop-color="#E8F2F9"/>
<stop offset="1" stop-color="#A7B1B7"/>
</linearGradient>
</defs>
</svg>
