<svg width="93" height="35" viewBox="0 0 93 35" fill="none" xmlns="http://www.w3.org/2000/svg">
<path d="M49.2876 22.4778C49.9098 22.4778 50.0876 22.8778 50.0876 23.5001V30.5074C50.0876 31.1889 49.9098 31.5296 49.2876 31.5296V32.3296H53.095V31.5296C52.4135 31.4704 52.2357 31.2482 52.2357 30.3889V23.3815C52.2357 22.7001 52.458 22.3593 53.095 22.3593V21.5593H49.2876V22.4778Z" fill="url(#paint0_linear_1_2784)"/>
<path d="M58.6798 27.1447C58.1168 26.4632 57.539 26.004 57.3761 25.7817L56.2353 24.641C55.8353 24.3003 55.6724 23.9595 55.6131 23.678C55.4946 23.3966 55.4946 22.8188 55.7909 22.5373C56.0872 22.2558 56.4131 22.1373 56.8131 22.1966C57.2131 22.2558 57.6724 22.5966 57.8946 22.878C58.1168 23.2188 58.3538 23.6188 58.4575 23.9003C58.5168 24.1817 58.5761 24.3595 58.5761 24.4188C58.5761 24.478 58.6353 24.7003 58.6353 24.7595H59.539V21.5744H58.8575C58.8575 21.5744 58.7983 21.7521 58.6798 21.7966C58.5612 21.8558 58.502 21.7966 58.4575 21.7966C58.3983 21.7373 57.8353 21.5151 57.1538 21.3966C56.4724 21.2781 55.6131 21.3373 55.0501 21.6188C54.7094 21.7966 54.4872 21.9595 54.1909 22.1818C53.9687 22.404 53.7316 22.7447 53.6279 23.041C53.4057 23.604 53.3465 24.3003 53.5687 24.9225C53.7909 25.5447 54.2502 26.1225 54.5909 26.5225L55.3909 27.3225C55.7316 27.6632 56.1316 28.0632 56.2501 28.2262C56.5316 28.5077 56.8131 28.7891 57.2131 29.2484C57.6131 29.7669 57.7316 30.1521 57.6724 30.6113C57.6131 31.0706 57.3909 31.2928 57.1538 31.4706C56.8724 31.6484 56.4724 31.6928 56.0724 31.5299C55.6724 31.3669 55.3909 31.0706 55.2724 30.8484C55.0946 30.6262 54.9316 30.1669 54.8131 29.8262C54.6946 29.4854 54.5909 29.0262 54.5909 29.0262H53.7909V32.2706H54.3539C54.4131 32.2113 54.5316 32.0484 54.6353 31.9891C54.8131 31.8706 54.9761 31.9299 55.1539 31.9891C55.3316 32.0484 55.4946 32.1669 55.7761 32.2113C56.1761 32.3299 56.5761 32.3891 57.0798 32.3891C57.6427 32.3299 57.8205 32.2706 58.1612 32.1076C58.5612 31.9299 59.0205 31.5891 59.3612 30.9669C59.702 30.2854 59.7612 29.4854 59.6427 28.8632C59.5242 28.2262 59.1835 27.7669 58.6798 27.1447Z" fill="url(#paint1_linear_1_2784)"/>
<path d="M39.658 31.5745C38.858 31.5745 38.3987 31.0115 38.3987 30.093V27.13C39.5395 27.13 40.5617 27.53 40.6802 28.5523H41.4209V25.0856H40.6802C40.5024 25.9893 39.5395 26.3449 38.3987 26.3449V22.4782H38.9617C39.9839 22.4782 40.9469 22.7004 41.5839 23.9597H42.2654V21.6782H35.1543V22.4782C35.7765 22.4782 36.058 22.819 36.058 23.5004V30.3893C36.058 31.13 35.8802 31.4708 35.1987 31.53V32.33H42.1469L42.4283 29.6041H41.7469C41.3172 30.893 40.458 31.5745 39.658 31.5745Z" fill="url(#paint2_linear_1_2784)"/>
<path d="M31.5838 22.4779C32.3838 22.5964 32.5468 23.0409 32.5468 24.1816V28.226H32.4875L28.4431 21.6779H25.3765V22.4779C25.7765 22.5964 26.5172 22.8779 26.7987 23.5001V29.189C26.7987 30.8334 26.6209 31.2334 25.8357 31.5742V32.3742H28.7394V31.5742C27.8802 31.3964 27.7172 30.8334 27.7172 29.8705V24.2409L27.7765 24.3001L32.7246 32.4334H33.4653V23.9446C33.4653 23.3223 33.5838 22.8631 33.8061 22.6409C34.0283 22.4186 34.6653 22.4186 34.6653 22.4186V21.6187H31.6431V22.4779H31.5838Z" fill="url(#paint3_linear_1_2784)"/>
<path d="M16.7837 21.6782H8.41333V24.019H9.09481C9.37629 22.5967 10.6948 22.4782 11.4355 22.4782V30.5671C11.4355 31.2485 11.317 31.5893 10.5763 31.5893V32.3893H14.68V31.5893C13.8207 31.53 13.8207 31.13 13.8207 30.4486V22.4782C14.6207 22.4782 15.7614 22.7004 16.0429 24.019H16.7837V21.6782Z" fill="url(#paint4_linear_1_2784)"/>
<path d="M6.9908 27.1447C6.42784 26.4632 5.85006 25.9447 5.6871 25.7817L4.54637 24.641C4.14637 24.3003 3.98341 23.9595 3.92415 23.678C3.80563 23.3966 3.80563 22.8188 4.10192 22.5373C4.39822 22.2558 4.72414 22.1373 5.12414 22.1966C5.52414 22.2558 5.9834 22.5966 6.20562 22.878C6.42784 23.1595 6.66487 23.6188 6.76858 23.9003C6.82784 24.1817 6.8871 24.3595 6.8871 24.4188C6.8871 24.478 6.94635 24.7003 6.94635 24.7595H7.85005V21.5744H7.16858C7.16858 21.5744 7.10932 21.7521 6.9908 21.7966C6.87228 21.8558 6.81302 21.7966 6.76858 21.7966C6.70932 21.7373 6.14636 21.5151 5.46488 21.3966C4.7834 21.2781 3.92415 21.3373 3.36119 21.6188C3.02045 21.7966 2.79823 21.9595 2.50193 22.1818C2.27971 22.404 2.04267 22.7447 1.93897 23.041C1.71675 23.604 1.65749 24.3003 1.87971 24.9225C2.10193 25.5447 2.50193 26.1225 2.90193 26.5225L3.70192 27.3225C4.04266 27.6632 4.44266 28.0632 4.56118 28.2262C4.84266 28.5077 5.12414 28.7891 5.52414 29.2484C5.92414 29.7669 6.04265 30.1521 5.9834 30.6113C5.92414 31.0706 5.70192 31.2928 5.46488 31.4706C5.1834 31.6484 4.7834 31.6928 4.3834 31.5299C3.98341 31.3521 3.70193 31.0706 3.58341 30.8484C3.40563 30.6262 3.24267 30.1669 3.12415 29.8262C3.00563 29.4706 2.88711 29.0262 2.88711 29.0262H2.08712V32.2706H2.65008C2.70934 32.2113 2.82785 32.0484 2.93156 31.9891C3.10934 31.8706 3.2723 31.9299 3.45007 31.9891C3.62785 32.0484 3.79081 32.1669 4.07229 32.2113C4.47229 32.3299 4.87229 32.3891 5.37599 32.3891C5.93895 32.3299 6.11673 32.2706 6.45747 32.1076C6.85747 31.9299 7.31672 31.5891 7.65746 30.9669C7.9982 30.2854 8.05746 29.4854 7.93894 28.8632C7.83524 28.2262 7.4945 27.7669 6.9908 27.1447Z" fill="url(#paint5_linear_1_2784)"/>
<path d="M21.1689 21.5002C19.9689 21.5002 16.7837 22.241 16.7837 26.9669C16.7837 31.6335 19.8059 32.552 21.1689 32.552C22.5318 32.552 25.554 31.6483 25.554 26.9669C25.5392 22.241 22.2948 21.5002 21.1689 21.5002ZM22.4726 30.5521C22.1911 31.1743 21.9096 31.752 21.1689 31.752C20.4281 31.752 19.9096 30.9521 19.7466 30.3891C19.6281 29.8261 19.4059 28.5669 19.4652 26.9224C19.4652 25.3224 19.6429 24.1373 19.7466 23.678C19.8652 23.2188 20.2652 22.2558 21.1689 22.2558C21.7911 22.2558 22.3096 22.7743 22.5318 23.5151C22.754 24.2558 22.8726 25.9002 22.8726 26.9373C22.8726 27.9447 22.754 29.9298 22.4726 30.5521Z" fill="url(#paint6_linear_1_2784)"/>
<path d="M48.3094 12.7889L46.0872 2.03345L43.9242 12.7889L33.1687 14.9519L43.9242 17.1149L46.0872 27.8704L48.2501 17.1149L59.0056 14.9519L48.3094 12.7889ZM34.5465 14.9519L44.0575 13.0112L45.939 14.9519H34.5465ZM46.102 26.5074L44.1612 16.9963L46.102 15.1149V26.5074ZM46.102 3.3964L48.0427 12.9075L46.102 14.7889V3.3964ZM48.2057 16.8926L46.3242 14.9519H57.7019L48.2057 16.8926Z" fill="url(#paint7_linear_1_2784)"/>
<path d="M80.1908 22.4781C80.9908 22.5967 81.1538 23.1004 81.1538 24.2411V28.2855H81.1093L77.1241 21.7374H74.3982V22.5374C74.7982 22.6559 75.4204 23.4411 75.4204 23.4411V29.6485C75.3612 30.3892 75.3612 31.13 75.0205 31.4707C74.9019 31.5892 74.7982 31.5892 74.6205 31.5892C74.2205 31.5892 73.9982 31.2485 73.5982 29.7077L71.5538 21.7374H69.3316L69.5538 22.5967L67.6131 29.3077C67.1538 30.9522 66.9316 31.4707 66.4131 31.7522V32.3744H69.0353V31.7522C68.5168 31.5744 68.2946 31.13 68.2946 30.6707C68.2946 30.4485 68.4131 30.0485 68.4723 29.767L68.7538 28.804H71.0945L71.376 30.004C71.4945 30.5225 71.5538 30.7448 71.5538 30.9077C71.5538 31.3077 71.3316 31.7077 70.9316 31.8114V32.4336H77.3612V31.7522C76.5019 31.5744 76.2797 30.8929 76.2797 29.93V24.2411L76.339 24.3004L81.2871 32.4336H82.0278V23.9448C82.0278 23.0411 82.0871 22.5818 82.7093 22.4633V21.6633H80.1464V22.4633H80.1908V22.4781ZM69.0946 27.767L69.9983 24.0633H70.0575L70.9168 27.767H69.0946Z" fill="url(#paint8_linear_1_2784)"/>
<path d="M86.2209 21.6782H83.1543V22.4782C83.5543 22.5967 83.6728 22.9967 83.6728 23.4412V30.3893C83.6728 31.13 83.6728 31.4708 83.1543 31.53V32.33H86.5172C89.8802 32.33 90.6209 29.5449 90.6209 26.9819C90.6061 23.1597 89.1246 21.6782 86.2209 21.6782ZM86.6802 31.5745C86.1617 31.5745 85.8802 31.3523 85.8802 30.3745V22.4634H86.1617C87.2432 22.4634 88.1469 23.3227 88.1469 26.9078C88.1617 29.6486 87.8802 31.5745 86.6802 31.5745Z" fill="url(#paint9_linear_1_2784)"/>
<path d="M63.5683 31.5745C63.0053 31.5745 63.0498 31.0115 63.0498 29.93V23.5597C63.0498 22.8782 63.2275 22.5375 63.909 22.4782V21.6782H60.2053V22.4782C60.7683 22.5375 60.9461 22.819 60.9461 23.5597V30.5078C60.9461 31.1893 60.8275 31.53 60.2053 31.5893V32.3893H66.0127L66.3534 29.7078H65.7312C65.2275 30.893 64.3683 31.5745 63.5683 31.5745Z" fill="url(#paint10_linear_1_2784)"/>
<defs>
<linearGradient id="paint0_linear_1_2784" x1="51.1913" y1="21.5593" x2="51.1913" y2="32.3296" gradientUnits="userSpaceOnUse">
<stop stop-color="#E8F2F9"/>
<stop offset="1" stop-color="#A7B1B7"/>
</linearGradient>
<linearGradient id="paint1_linear_1_2784" x1="56.5637" y1="21.3389" x2="56.5637" y2="32.3891" gradientUnits="userSpaceOnUse">
<stop stop-color="#E8F2F9"/>
<stop offset="1" stop-color="#A7B1B7"/>
</linearGradient>
<linearGradient id="paint2_linear_1_2784" x1="38.7913" y1="21.6782" x2="38.7913" y2="32.33" gradientUnits="userSpaceOnUse">
<stop stop-color="#E8F2F9"/>
<stop offset="1" stop-color="#A7B1B7"/>
</linearGradient>
<linearGradient id="paint3_linear_1_2784" x1="30.0209" y1="21.6187" x2="30.0209" y2="32.4334" gradientUnits="userSpaceOnUse">
<stop stop-color="#E8F2F9"/>
<stop offset="1" stop-color="#A7B1B7"/>
</linearGradient>
<linearGradient id="paint4_linear_1_2784" x1="12.5985" y1="21.6782" x2="12.5985" y2="32.3893" gradientUnits="userSpaceOnUse">
<stop stop-color="#E8F2F9"/>
<stop offset="1" stop-color="#A7B1B7"/>
</linearGradient>
<linearGradient id="paint5_linear_1_2784" x1="4.86729" y1="21.3389" x2="4.86729" y2="32.3891" gradientUnits="userSpaceOnUse">
<stop stop-color="#E8F2F9"/>
<stop offset="1" stop-color="#A7B1B7"/>
</linearGradient>
<linearGradient id="paint6_linear_1_2784" x1="21.1689" y1="21.5002" x2="21.1689" y2="32.552" gradientUnits="userSpaceOnUse">
<stop stop-color="#E8F2F9"/>
<stop offset="1" stop-color="#A7B1B7"/>
</linearGradient>
<linearGradient id="paint7_linear_1_2784" x1="46.0872" y1="2.03345" x2="46.0872" y2="27.8704" gradientUnits="userSpaceOnUse">
<stop stop-color="#E8F2F9"/>
<stop offset="1" stop-color="#A7B1B7"/>
</linearGradient>
<linearGradient id="paint8_linear_1_2784" x1="74.5612" y1="21.6633" x2="74.5612" y2="32.4336" gradientUnits="userSpaceOnUse">
<stop stop-color="#E8F2F9"/>
<stop offset="1" stop-color="#A7B1B7"/>
</linearGradient>
<linearGradient id="paint9_linear_1_2784" x1="86.8876" y1="21.6782" x2="86.8876" y2="32.33" gradientUnits="userSpaceOnUse">
<stop stop-color="#E8F2F9"/>
<stop offset="1" stop-color="#A7B1B7"/>
</linearGradient>
<linearGradient id="paint10_linear_1_2784" x1="63.2794" y1="21.6782" x2="63.2794" y2="32.3893" gradientUnits="userSpaceOnUse">
<stop stop-color="#E8F2F9"/>
<stop offset="1" stop-color="#A7B1B7"/>
</linearGradient>
</defs>
</svg>
