<svg width="14" height="14" viewBox="0 0 14 14" fill="none" xmlns="http://www.w3.org/2000/svg">
<path fill-rule="evenodd" clip-rule="evenodd" d="M5.33876 0.978744C6.18832 -0.210688 7.9561 -0.210688 8.80572 0.978744L8.94099 1.1681C9.09047 1.37744 9.34156 1.48953 9.59719 1.46112L10.2001 1.39413C11.5569 1.24338 12.7033 2.38983 12.5526 3.74663L12.4856 4.34951C12.4572 4.60518 12.5693 4.85623 12.7786 5.00575L12.968 5.14101C14.1574 5.99057 14.1574 7.75834 12.968 8.60797L12.7786 8.74324C12.5693 8.89271 12.4572 9.1438 12.4856 9.39944L12.5526 10.0023C12.7033 11.3591 11.5569 12.5056 10.2001 12.3548L9.59719 12.2879C9.34156 12.2595 9.09047 12.3715 8.94099 12.5809L8.80572 12.7702C7.9561 13.9596 6.1884 13.9596 5.33876 12.7702L5.20351 12.5809C5.05398 12.3715 4.80294 12.2595 4.54726 12.2879L3.94439 12.3548C2.58758 12.5056 1.44113 11.3591 1.59189 10.0023L1.65888 9.39944C1.68728 9.1438 1.57519 8.89271 1.36586 8.74324L1.1765 8.60797C-0.0129342 7.75834 -0.0129342 5.99064 1.1765 5.14101L1.36586 5.00575C1.57519 4.85623 1.68728 4.60518 1.65888 4.34951L1.59189 3.74663C1.44113 2.38983 2.58758 1.24338 3.94439 1.39413L4.54727 1.46112C4.80294 1.48953 5.05398 1.37744 5.20351 1.1681L5.33876 0.978744ZM9.70463 4.9522C9.98192 5.22951 9.98192 5.67912 9.70463 5.95641L6.99286 8.66818C6.64456 9.01655 6.07975 9.01655 5.73145 8.66818L4.43986 7.3766C4.16255 7.09931 4.16255 6.64968 4.43986 6.37239C4.71717 6.0951 5.16677 6.0951 5.44408 6.37239L6.36215 7.29046L8.70042 4.9522C8.97771 4.67489 9.42734 4.67489 9.70463 4.9522Z" fill="#464F5D"/>
</svg>
