<svg width="15" height="14" viewBox="0 0 15 14" fill="none" xmlns="http://www.w3.org/2000/svg">
<path fill-rule="evenodd" clip-rule="evenodd" d="M5.69008 0.978744C6.53964 -0.210688 8.30742 -0.210688 9.15704 0.978744L9.29231 1.1681C9.44179 1.37744 9.69288 1.48953 9.94851 1.46112L10.5514 1.39413C11.9082 1.24338 13.0547 2.38983 12.9039 3.74663L12.8369 4.34951C12.8085 4.60518 12.9206 4.85623 13.1299 5.00575L13.3193 5.14101C14.5087 5.99057 14.5087 7.75834 13.3193 8.60797L13.1299 8.74324C12.9206 8.89271 12.8085 9.1438 12.8369 9.39944L12.9039 10.0023C13.0547 11.3591 11.9082 12.5056 10.5514 12.3548L9.94851 12.2879C9.69288 12.2595 9.44179 12.3715 9.29231 12.5809L9.15704 12.7702C8.30742 13.9596 6.53971 13.9596 5.69008 12.7702L5.55482 12.5809C5.4053 12.3715 5.15425 12.2595 4.89858 12.2879L4.2957 12.3548C2.9389 12.5056 1.79245 11.3591 1.94321 10.0023L2.0102 9.39944C2.0386 9.1438 1.92651 8.89271 1.71718 8.74324L1.52782 8.60797C0.338384 7.75834 0.338384 5.99064 1.52782 5.14101L1.71718 5.00575C1.92651 4.85623 2.0386 4.60518 2.0102 4.34951L1.94321 3.74663C1.79245 2.38983 2.9389 1.24338 4.2957 1.39413L4.89859 1.46112C5.15425 1.48953 5.4053 1.37744 5.55482 1.1681L5.69008 0.978744ZM10.0559 4.9522C10.3332 5.22951 10.3332 5.67912 10.0559 5.95641L7.34418 8.66818C6.99588 9.01655 6.43107 9.01655 6.08277 8.66818L4.79118 7.3766C4.51387 7.09931 4.51387 6.64968 4.79118 6.37239C5.06849 6.0951 5.51809 6.0951 5.7954 6.37239L6.71347 7.29046L9.05173 4.9522C9.32902 4.67489 9.77865 4.67489 10.0559 4.9522Z" fill="#464F5D"/>
</svg>
