<svg width="15" height="14" viewBox="0 0 15 14" fill="none" xmlns="http://www.w3.org/2000/svg">
<path fill-rule="evenodd" clip-rule="evenodd" d="M5.86586 0.978744C6.71542 -0.210688 8.4832 -0.210688 9.33282 0.978744L9.46809 1.1681C9.61757 1.37744 9.86866 1.48953 10.1243 1.46112L10.7272 1.39413C12.084 1.24338 13.2304 2.38983 13.0797 3.74663L13.0127 4.34951C12.9843 4.60518 13.0964 4.85623 13.3057 5.00575L13.4951 5.14101C14.6845 5.99057 14.6845 7.75834 13.4951 8.60797L13.3057 8.74324C13.0964 8.89271 12.9843 9.1438 13.0127 9.39944L13.0797 10.0023C13.2304 11.3591 12.084 12.5056 10.7272 12.3548L10.1243 12.2879C9.86866 12.2595 9.61757 12.3715 9.46809 12.5809L9.33282 12.7702C8.4832 13.9596 6.7155 13.9596 5.86586 12.7702L5.73061 12.5809C5.58108 12.3715 5.33004 12.2595 5.07436 12.2879L4.47148 12.3548C3.11468 12.5056 1.96823 11.3591 2.11899 10.0023L2.18598 9.39944C2.21438 9.1438 2.10229 8.89271 1.89296 8.74324L1.7036 8.60797C0.514165 7.75834 0.514165 5.99064 1.7036 5.14101L1.89296 5.00575C2.10229 4.85623 2.21438 4.60518 2.18598 4.34951L2.11899 3.74663C1.96823 2.38983 3.11468 1.24338 4.47148 1.39413L5.07437 1.46112C5.33004 1.48953 5.58108 1.37744 5.73061 1.1681L5.86586 0.978744ZM10.2317 4.9522C10.509 5.22951 10.509 5.67912 10.2317 5.95641L7.51996 8.66818C7.17166 9.01655 6.60685 9.01655 6.25855 8.66818L4.96696 7.3766C4.68965 7.09931 4.68965 6.64968 4.96696 6.37239C5.24427 6.0951 5.69387 6.0951 5.97118 6.37239L6.88925 7.29046L9.22752 4.9522C9.50481 4.67489 9.95444 4.67489 10.2317 4.9522Z" fill="#464F5D"/>
</svg>
