<svg width="15" height="14" viewBox="0 0 15 14" fill="none" xmlns="http://www.w3.org/2000/svg">
<path fill-rule="evenodd" clip-rule="evenodd" d="M5.5143 0.978744C6.36386 -0.210688 8.13163 -0.210688 8.98126 0.978744L9.11653 1.1681C9.26601 1.37744 9.51709 1.48953 9.77273 1.46112L10.3756 1.39413C11.7324 1.24338 12.8789 2.38983 12.7281 3.74663L12.6612 4.34951C12.6328 4.60518 12.7448 4.85623 12.9542 5.00575L13.1435 5.14101C14.3329 5.99057 14.3329 7.75834 13.1435 8.60797L12.9542 8.74324C12.7448 8.89271 12.6328 9.1438 12.6612 9.39944L12.7281 10.0023C12.8789 11.3591 11.7324 12.5056 10.3756 12.3548L9.77273 12.2879C9.51709 12.2595 9.26601 12.3715 9.11653 12.5809L8.98126 12.7702C8.13163 13.9596 6.36393 13.9596 5.5143 12.7702L5.37904 12.5809C5.22952 12.3715 4.97847 12.2595 4.7228 12.2879L4.11992 12.3548C2.76312 12.5056 1.61667 11.3591 1.76742 10.0023L1.83441 9.39944C1.86282 9.1438 1.75073 8.89271 1.54139 8.74324L1.35203 8.60797C0.162603 7.75834 0.162603 5.99064 1.35203 5.14101L1.54139 5.00575C1.75073 4.85623 1.86282 4.60518 1.83441 4.34951L1.76742 3.74663C1.61667 2.38983 2.76312 1.24338 4.11992 1.39413L4.7228 1.46112C4.97847 1.48953 5.22952 1.37744 5.37904 1.1681L5.5143 0.978744ZM9.88016 4.9522C10.1575 5.22951 10.1575 5.67912 9.88016 5.95641L7.1684 8.66818C6.8201 9.01655 6.25529 9.01655 5.90699 8.66818L4.6154 7.3766C4.33809 7.09931 4.33809 6.64968 4.6154 6.37239C4.89271 6.0951 5.34231 6.0951 5.61962 6.37239L6.53769 7.29046L8.87595 4.9522C9.15324 4.67489 9.60287 4.67489 9.88016 4.9522Z" fill="#464F5D"/>
</svg>
