<svg width="15" height="14" viewBox="0 0 15 14" fill="none" xmlns="http://www.w3.org/2000/svg">
<path fill-rule="evenodd" clip-rule="evenodd" d="M5.84462 1.0244C6.69418 -0.165034 8.46196 -0.165034 9.31158 1.0244L9.44685 1.21376C9.59633 1.42309 9.84742 1.53518 10.103 1.50678L10.7059 1.43979C12.0628 1.28903 13.2092 2.43549 13.0585 3.79229L12.9915 4.39517C12.9631 4.65084 13.0751 4.90188 13.2845 5.05141L13.4739 5.18666C14.6633 6.03622 14.6633 7.804 13.4739 8.65362L13.2845 8.78889C13.0751 8.93837 12.9631 9.18946 12.9915 9.44509L13.0585 10.048C13.2092 11.4048 12.0628 12.5512 10.7059 12.4005L10.103 12.3335C9.84742 12.3051 9.59633 12.4172 9.44685 12.6265L9.31158 12.8159C8.46196 14.0053 6.69425 14.0053 5.84462 12.8159L5.70936 12.6265C5.55984 12.4172 5.3088 12.3051 5.05312 12.3335L4.45024 12.4005C3.09344 12.5512 1.94699 11.4048 2.09775 10.048L2.16474 9.44509C2.19314 9.18946 2.08105 8.93837 1.87172 8.78889L1.68236 8.65362C0.492925 7.804 0.492925 6.0363 1.68236 5.18666L1.87172 5.05141C2.08105 4.90188 2.19314 4.65084 2.16474 4.39516L2.09775 3.79229C1.94699 2.43549 3.09344 1.28903 4.45024 1.43979L5.05313 1.50678C5.30879 1.53518 5.55984 1.42309 5.70936 1.21376L5.84462 1.0244ZM10.2105 4.99785C10.4878 5.27516 10.4878 5.72478 10.2105 6.00207L7.49872 8.71384C7.15042 9.06221 6.58561 9.06221 6.23731 8.71384L4.94572 7.42225C4.66841 7.14496 4.66841 6.69533 4.94572 6.41804C5.22303 6.14075 5.67263 6.14075 5.94994 6.41804L6.86801 7.33612L9.20627 4.99785C9.48357 4.72055 9.9332 4.72055 10.2105 4.99785Z" fill="#464F5D"/>
</svg>
