<svg width="50" height="71" viewBox="0 0 50 71" fill="none" xmlns="http://www.w3.org/2000/svg">
<g clip-path="url(#clip0_1_225)">
<path d="M4.85468 14.6587C6.29097 13.2267 6.84672 12.2206 6.79042 10.1434C7.10366 10.5952 7.7056 11.125 7.94667 10.7107C9.5735 7.89584 11.144 5.62809 13.8997 3.71256C17.7697 1.01754 22.031 1.89807 26.2575 1.02475C28.2149 0.620571 30.8594 1.89519 33.133 2.70066C37.7291 4.32605 40.2292 9.08818 42.3599 13.0261C44.642 17.2425 46.9026 21.8747 47.4295 26.9169C46.8044 26.7422 46.2429 27.1118 46.2429 27.5636C46.2443 28.0154 46.6745 28.2276 47.4295 28.2088C46.7164 28.2695 46.2241 28.7069 46.305 29.0908C47.0224 32.4701 45.4749 35.1766 46.4724 38.6194C46.6182 39.1261 45.1819 40.5782 45.205 41.0936C45.3162 43.575 47.8611 46.6121 47.8279 48.187C47.6676 55.8419 40.0806 60.3269 33.9038 65.3863C33.2903 65.8901 33.657 66.7418 33.2369 67.5574C33.3697 66.9886 33.0088 66.3261 32.6162 66.3997C29.963 66.9035 30.4899 70.2712 28.1572 69.7602C25.7263 69.2304 22.77 70.9583 20.9801 68.2026C20.5283 68.5159 20.1587 68.8652 20.3348 69.4931C17.9184 68.6472 16.3219 65.805 13.8982 65.9219C13.4421 65.9421 12.5413 66.4473 12.0116 66.1557C8.4288 64.1738 7.13253 60.1233 3.56418 57.8801C1.79444 56.7701 4.33357 55.7408 3.5382 54.6755C3.16289 54.1732 2.70241 53.7964 2.27369 53.3677C2.70241 52.9375 3.47036 52.428 3.38952 52.1205C2.02685 46.8604 1.71216 41.7316 1.35417 36.5682C1.18528 34.1388 2.69952 31.5982 2.15676 28.8757C2.05428 28.3604 1.06547 27.8451 1.15641 27.6372C1.793 26.1518 2.72262 24.2738 0.98175 23.0469C4.23108 21.6005 2.60714 18.9156 3.64646 15.9795C3.83123 15.454 4.41441 15.0975 4.85179 14.6587" fill="url(#paint0_linear_1_225)"/>
<path d="M10.1263 18.641C9.79717 18.9629 9.86213 19.8781 10.0945 20.4324C10.9476 22.4735 13.2948 21.5525 14.4583 21.3418C19.4181 20.4396 24.1384 21.4775 28.6089 20.0903C33.0867 18.7031 28.3578 15.3484 26.0164 14.3062C22.2575 12.6346 18.4582 16.008 14.4453 14.2123C13.6918 13.876 14.2619 15.8406 13.2428 15.8752C13.0321 15.881 12.817 15.5216 12.599 15.3036C11.7127 16.3588 11.183 17.6103 10.1292 18.641" fill="#151920"/>
<path d="M10.6557 29.501C10.8924 29.7075 11.2085 30.0828 11.2417 30.0568C13.407 28.4011 11.0108 26.9518 10.0148 25.6238C9.14287 26.6443 8.56547 27.688 10.6557 29.501Z" fill="#151920"/>
<path d="M17.7566 37.8849C18.6602 37.7333 20.1932 38.2717 20.0821 37.2656C19.8771 35.3977 17.3611 36.4356 15.8209 37.2367C16.2712 38.0379 16.9684 38.0191 17.7566 37.8849Z" fill="#151920"/>
<path d="M18.4735 24.1123C22.4937 23.4237 23.8607 28.5597 26.7881 30.7842C26.3579 31.2144 25.9537 31.9029 25.4861 31.9433C24.5305 32.0256 24.6921 30.1259 23.5691 30.2241C22.5875 30.3093 23.2299 32.3894 21.6261 32.0732C22.052 33.7434 21.2551 34.8563 19.6702 35.2013C16.7687 35.8321 12.9838 35.2172 13.2321 32.7834C13.4039 31.109 13.0502 28.6377 14.5212 26.904C15.6587 25.5645 17.2379 24.3216 18.4735 24.1109M20.3082 29.9585C21.0559 29.8387 21.6276 28.8499 22.2728 28.2046C20.5189 27.7658 19.3165 29.4677 17.7619 29.397C17.2942 29.3768 16.9362 28.8311 17.1123 28.2046C16.467 28.2046 15.6933 27.9896 15.2559 28.3115C14.8489 28.6117 15.4421 28.7662 15.689 28.9928C17.6291 30.8001 18.8517 30.1866 20.3082 29.9585Z" fill="#151920"/>
</g>
<defs>
<linearGradient id="paint0_linear_1_225" x1="24.405" y1="0.94751" x2="24.405" y2="69.8173" gradientUnits="userSpaceOnUse">
<stop stop-color="#E8F2F9"/>
<stop offset="1" stop-color="#A7B1B7"/>
</linearGradient>
<clipPath id="clip0_1_225">
<rect width="48.2131" height="69.1439" fill="white" transform="translate(0.98175 0.94751)"/>
</clipPath>
</defs>
</svg>
