<svg width="49" height="71" viewBox="0 0 49 71" fill="none" xmlns="http://www.w3.org/2000/svg">
<g clip-path="url(#clip0_1_252)">
<path d="M4.55603 14.6587C5.99232 13.2267 6.54807 12.2206 6.49178 10.1434C6.80502 10.5952 7.40696 11.125 7.64802 10.7107C9.27485 7.89584 10.8454 5.62809 13.601 3.71256C17.4711 1.01754 21.7323 1.89807 25.9589 1.02475C27.9163 0.620571 30.5608 1.89519 32.8343 2.70066C37.4304 4.32605 39.9306 9.08818 42.0612 13.0261C44.3434 17.2425 46.6039 21.8747 47.1308 26.9169C46.5058 26.7422 45.9442 27.1118 45.9442 27.5636C45.9457 28.0154 46.3759 28.2276 47.1308 28.2088C46.4177 28.2695 45.9255 28.7069 46.0063 29.0908C46.7237 32.4701 45.1763 35.1766 46.1738 38.6194C46.3196 39.1261 44.8833 40.5782 44.9064 41.0936C45.0175 43.575 47.5624 46.6121 47.5292 48.187C47.369 55.8419 39.7819 60.3269 33.6052 65.3863C32.9917 65.8901 33.3583 66.7418 32.9383 67.5574C33.0711 66.9886 32.7102 66.3261 32.3175 66.3997C29.6644 66.9035 30.1913 70.2712 27.8586 69.7602C25.4277 69.2304 22.4714 70.9583 20.6814 68.2026C20.2296 68.5159 19.8601 68.8652 20.0362 69.4931C17.6198 68.6472 16.0232 65.805 13.5996 65.9219C13.1435 65.9421 12.2427 66.4473 11.7129 66.1557C8.13015 64.1738 6.83389 60.1233 3.26554 57.8801C1.4958 56.7701 4.03493 55.7408 3.23955 54.6755C2.86424 54.1732 2.40376 53.7964 1.97504 53.3677C2.40376 52.9375 3.17171 52.428 3.09087 52.1205C1.7282 46.8604 1.41352 41.7316 1.05553 36.5682C0.886638 34.1388 2.40088 31.5982 1.85812 28.8757C1.75563 28.3604 0.766829 27.8451 0.85777 27.6372C1.49436 26.1518 2.42397 24.2738 0.683105 23.0469C3.93244 21.6005 2.30849 18.9156 3.34782 15.9795C3.53259 15.454 4.11576 15.0975 4.55315 14.6587" fill="url(#paint0_linear_1_252)"/>
<path d="M9.82783 18.641C9.49871 18.9629 9.56367 19.8781 9.79607 20.4324C10.6492 22.4735 12.9963 21.5525 14.1598 21.3418C19.1197 20.4396 23.8399 21.4775 28.3105 20.0903C32.7882 18.7031 28.0593 15.3484 25.7179 14.3062C21.9591 12.6346 18.1597 16.008 14.1468 14.2123C13.3933 13.876 13.9635 15.8406 12.9444 15.8752C12.7336 15.881 12.5185 15.5216 12.3006 15.3036C11.4143 16.3588 10.8845 17.6103 9.83073 18.641" fill="#151920"/>
<path d="M10.3573 29.501C10.594 29.7075 10.9101 30.0828 10.9433 30.0568C13.1086 28.4011 10.7124 26.9518 9.71635 25.6238C8.84447 26.6443 8.26707 27.688 10.3573 29.501Z" fill="#151920"/>
<path d="M17.4582 37.8849C18.3618 37.7333 19.8948 38.2717 19.7837 37.2656C19.5787 35.3977 17.0627 36.4356 15.5225 37.2367C15.9728 38.0379 16.67 38.0191 17.4582 37.8849Z" fill="#151920"/>
<path d="M18.1751 24.1123C22.1953 23.4237 23.5623 28.5597 26.4897 30.7842C26.0595 31.2144 25.6553 31.9029 25.1877 31.9433C24.2321 32.0256 24.3937 30.1259 23.2707 30.2241C22.2891 30.3093 22.9315 32.3894 21.3277 32.0732C21.7536 33.7434 20.9567 34.8563 19.3718 35.2013C16.4703 35.8321 12.6854 35.2172 12.9337 32.7834C13.1055 31.109 12.7518 28.6377 14.2228 26.904C15.3603 25.5645 16.9395 24.3216 18.1751 24.1109M20.0098 29.9585C20.7575 29.8387 21.3292 28.8499 21.9744 28.2046C20.2205 27.7658 19.0181 29.4677 17.4635 29.397C16.9958 29.3768 16.6378 28.8311 16.8139 28.2046C16.1686 28.2046 15.3949 27.9896 14.9575 28.3115C14.5505 28.6117 15.1437 28.7662 15.3906 28.9928C17.3306 30.8001 18.5533 30.1866 20.0098 29.9585Z" fill="#151920"/>
</g>
<defs>
<linearGradient id="paint0_linear_1_252" x1="24.1063" y1="0.94751" x2="24.1063" y2="69.8173" gradientUnits="userSpaceOnUse">
<stop stop-color="#E8F2F9"/>
<stop offset="1" stop-color="#A7B1B7"/>
</linearGradient>
<clipPath id="clip0_1_252">
<rect width="48.2131" height="69.1439" fill="white" transform="translate(0.683105 0.94751)"/>
</clipPath>
</defs>
</svg>
