<svg width="49" height="71" viewBox="0 0 49 71" fill="none" xmlns="http://www.w3.org/2000/svg">
<g clip-path="url(#clip0_1_198)">
<path d="M4.15351 14.6587C5.58979 13.2267 6.14555 12.2206 6.08925 10.1434C6.40249 10.5952 7.00443 11.125 7.2455 10.7107C8.87233 7.89584 10.4429 5.62809 13.1985 3.71256C17.0686 1.01754 21.3298 1.89807 25.5564 1.02475C27.5138 0.620571 30.1583 1.89519 32.4318 2.70066C37.0279 4.32605 39.5281 9.08818 41.6587 13.0261C43.9409 17.2425 46.2014 21.8747 46.7283 26.9169C46.1032 26.7422 45.5417 27.1118 45.5417 27.5636C45.5432 28.0154 45.9733 28.2276 46.7283 28.2088C46.0152 28.2695 45.523 28.7069 45.6038 29.0908C46.3212 32.4701 44.7738 35.1766 45.7712 38.6194C45.917 39.1261 44.4807 40.5782 44.5038 41.0936C44.615 43.575 47.1599 46.6121 47.1267 48.187C46.9665 55.8419 39.3794 60.3269 33.2026 65.3863C32.5891 65.8901 32.9558 66.7418 32.5357 67.5574C32.6685 66.9886 32.3077 66.3261 31.915 66.3997C29.2619 66.9035 29.7887 70.2712 27.456 69.7602C25.0252 69.2304 22.0689 70.9583 20.2789 68.2026C19.8271 68.5159 19.4576 68.8652 19.6337 69.4931C17.2172 68.6472 15.6207 65.805 13.1971 65.9219C12.7409 65.9421 11.8402 66.4473 11.3104 66.1557C7.72763 64.1738 6.43136 60.1233 2.86301 57.8801C1.09327 56.7701 3.6324 55.7408 2.83703 54.6755C2.46172 54.1732 2.00124 53.7964 1.57252 53.3677C2.00124 52.9375 2.76918 52.428 2.68835 52.1205C1.32568 46.8604 1.01099 41.7316 0.653002 36.5682C0.484112 34.1388 1.99835 31.5982 1.45559 28.8757C1.3531 28.3604 0.364302 27.8451 0.455243 27.6372C1.09183 26.1518 2.02145 24.2738 0.280579 23.0469C3.52991 21.6005 1.90597 18.9156 2.94529 15.9795C3.13006 15.454 3.71324 15.0975 4.15062 14.6587" fill="url(#paint0_linear_1_198)"/>
<path d="M9.42533 18.641C9.09621 18.9629 9.16117 19.8781 9.39358 20.4324C10.2467 22.4735 12.5938 21.5525 13.7573 21.3418C18.7172 20.4396 23.4374 21.4775 27.908 20.0903C32.3857 18.7031 27.6568 15.3484 25.3154 14.3062C21.5566 12.6346 17.7573 16.008 13.7443 14.2123C12.9908 13.876 13.561 15.8406 12.5419 15.8752C12.3311 15.881 12.116 15.5216 11.8981 15.3036C11.0118 16.3588 10.482 17.6103 9.42823 18.641" fill="#151920"/>
<path d="M9.95474 29.501C10.1915 29.7075 10.5076 30.0828 10.5408 30.0568C12.7061 28.4011 10.3098 26.9518 9.31382 25.6238C8.44195 26.6443 7.86454 27.688 9.95474 29.501Z" fill="#151920"/>
<path d="M17.0559 37.8849C17.9595 37.7333 19.4925 38.2717 19.3814 37.2656C19.1764 35.3977 16.6604 36.4356 15.1201 37.2367C15.5705 38.0379 16.2677 38.0191 17.0559 37.8849Z" fill="#151920"/>
<path d="M17.7728 24.1123C21.793 23.4237 23.16 28.5597 26.0874 30.7842C25.6572 31.2144 25.253 31.9029 24.7853 31.9433C23.8297 32.0256 23.9914 30.1259 22.8684 30.2241C21.8868 30.3093 22.5291 32.3894 20.9254 32.0732C21.3512 33.7434 20.5544 34.8563 18.9695 35.2013C16.068 35.8321 12.2831 35.2172 12.5314 32.7834C12.7032 31.109 12.3495 28.6377 13.8205 26.904C14.958 25.5645 16.5371 24.3216 17.7728 24.1109M19.6075 29.9585C20.3552 29.8387 20.9268 28.8499 21.5721 28.2046C19.8182 27.7658 18.6158 29.4677 17.0611 29.397C16.5934 29.3768 16.2355 28.8311 16.4116 28.2046C15.7663 28.2046 14.9926 27.9896 14.5552 28.3115C14.1481 28.6117 14.7414 28.7662 14.9883 28.9928C16.9283 30.8001 18.151 30.1866 19.6075 29.9585Z" fill="#151920"/>
</g>
<defs>
<linearGradient id="paint0_linear_1_198" x1="23.7038" y1="0.94751" x2="23.7038" y2="69.8173" gradientUnits="userSpaceOnUse">
<stop stop-color="#E8F2F9"/>
<stop offset="1" stop-color="#A7B1B7"/>
</linearGradient>
<clipPath id="clip0_1_198">
<rect width="48.2131" height="69.1439" fill="white" transform="translate(0.280579 0.94751)"/>
</clipPath>
</defs>
</svg>
