<svg width="91" height="42" viewBox="0 0 91 42" fill="none" xmlns="http://www.w3.org/2000/svg">
<path fill-rule="evenodd" clip-rule="evenodd" d="M37.8426 19.0309L27.5315 19.3981L37.322 19.9421L37.8426 19.0309ZM36.6092 21.1976L26.2736 21.5653L36.1006 22.1113L36.6092 21.1976ZM35.3758 23.3825L25.0532 23.7449L34.8681 24.2905L35.3758 23.3825ZM34.1678 25.5565L23.8322 25.9246L33.6357 26.4692L34.1678 25.5565ZM46.8024 8.09417L33.6419 8.56251L46.8398 9.29594L46.8024 8.09417ZM46.719 5.94374L34.8964 6.35839L46.7564 7.03861L46.719 5.94374ZM46.6346 3.86953L36.1011 4.21611L46.6854 4.80381L46.6346 3.86953ZM46.5637 1.7402L37.3306 2.04891L46.6001 2.59634L46.5637 1.7402ZM46.5038 0.0187988H38.4734L46.5157 0.445433L46.5038 0.0187988ZM32.9224 27.7294L22.6118 28.1028H32.712L32.9224 27.7294Z" fill="url(#paint0_linear_1_311)"/>
<path fill-rule="evenodd" clip-rule="evenodd" d="M67.865 0.0881348H53.0056L52.5843 0.834026L60.0202 1.22854C60.1074 1.22854 60.1074 1.35222 59.9828 1.35222L52.1509 1.61395L51.3954 2.93604L58.7805 3.37226C58.8798 3.38472 58.8553 3.52086 58.7685 3.52086L50.9237 3.77876L50.1937 5.04476L57.5668 5.45414C57.7278 5.4666 57.7278 5.60322 57.5668 5.60322L49.7349 5.8779L48.9914 7.2019L56.3401 7.62327C56.5011 7.63573 56.4892 7.78433 56.3401 7.78433L48.5082 8.06332L47.7518 9.37103L55.1124 9.77992C55.2236 9.79239 55.2371 9.92901 55.088 9.92901L32.5209 10.685L53.9356 11.8747C54.0712 11.8747 54.0593 12.0483 53.9102 12.0483L31.3067 12.8541L52.7214 14.0434C52.8206 14.0434 52.845 14.2045 52.6959 14.2045L30.0551 15.0223L51.4697 16.212C51.557 16.2245 51.6428 16.3856 51.4578 16.398L28.8528 17.2024L50.267 18.3917C50.3288 18.4042 50.3907 18.5652 50.2426 18.5652L38.8658 18.9708L38.9032 19.9976L49.0403 20.5608C49.1141 20.5733 49.1515 20.7219 49.0149 20.7219L38.9406 21.08L38.99 22.2285L47.7892 22.7175C47.8755 22.73 47.9129 22.9035 47.7638 22.9035L39.0393 23.2098L39.0772 24.47L46.5749 24.8866C46.6612 24.8986 46.6862 25.0597 46.5376 25.0597L39.1146 25.3248L39.164 26.7111L45.3602 27.0553C45.4475 27.0677 45.4475 27.2168 45.3233 27.2168L39.1889 27.4388L39.2138 28.0346H59.2158C64.5195 28.0346 69.2776 24.168 70.1702 21.0944C71.0633 18.0212 71.0633 15.2452 66.7998 13.8574C69.1799 13.3119 73.3182 10.6279 74.1365 6.91716C74.8785 3.54579 73.6399 0.100598 67.865 0.0881348ZM57.8041 21.6116H51.6576L55.1273 15.4647H59.688C64.3972 15.4647 62.1164 21.6116 57.8041 21.6116ZM65.7596 8.42476C65.5611 9.16826 64.0732 11.0522 62.1907 11.0522H57.6301L60.5542 5.89707H62.8844C65.8579 5.9963 65.9571 7.68175 65.7596 8.42476ZM90.3802 36.9417C90.3802 34.5597 88.4 32.5646 86.018 32.5646C83.5742 32.5646 81.5791 34.5914 81.5791 37.0812C81.5766 37.6668 81.6902 38.2472 81.9132 38.7888C82.1362 39.3303 82.4642 39.8224 82.8784 40.2365C83.2925 40.6506 83.7846 40.9786 84.3262 41.2015C84.8678 41.4245 85.4482 41.538 86.0338 41.5354C87.8425 41.5354 89.5595 40.2982 90.0701 38.6123H87.8118C87.3631 39.3236 86.7764 39.6482 85.971 39.6482C84.9505 39.6482 84.0387 38.9521 83.7444 37.9622H90.2709C90.3491 37.4834 90.3802 37.2509 90.3802 36.9417ZM83.683 36.3453C83.9769 35.1853 84.9049 34.4427 86.0492 34.4427C87.1944 34.4427 88.0913 35.1699 88.3693 36.3453H83.683ZM61.0594 32.9773V33.6719C60.4104 32.9759 59.4699 32.5799 58.4641 32.5799C56.237 32.5799 54.3383 34.4821 54.3383 36.957C54.3383 39.292 56.0179 41.3863 58.5082 41.3863C59.6065 41.3863 60.4415 41.1328 61.2301 40.2359V41.3341H63.1178V32.9773H61.0594ZM58.7542 39.6151C58.0663 39.6151 57.4066 39.3418 56.9202 38.8554C56.4338 38.369 56.1606 37.7094 56.1606 37.0215C56.1606 36.3336 56.4338 35.6739 56.9202 35.1875C57.4066 34.7011 58.0663 34.4279 58.7542 34.4279C59.442 34.4279 60.1017 34.7011 60.5881 35.1875C61.0745 35.6739 61.3478 36.3336 61.3478 37.0215C61.3478 37.7094 61.0745 38.369 60.5881 38.8554C60.1017 39.3418 59.442 39.6151 58.7542 39.6151ZM4.81128 32.5641C3.96089 32.5641 3.31135 32.858 2.5995 33.5852V32.7654H0.696899V41.3341H2.75433V37.2969C2.75433 36.1991 2.84685 34.4509 4.3626 34.4509C5.78535 34.4509 5.94019 36.0903 5.94019 37.142V41.3336H7.99714V36.7399C7.99714 35.5333 7.90462 34.9614 7.57961 34.2807C7.10025 33.2602 5.97135 32.5641 4.81128 32.5641ZM17.5931 36.9417C17.5931 34.5597 15.6133 32.5646 13.2313 32.5646C10.7875 32.5646 8.79241 34.5914 8.79241 37.0812C8.79 37.6668 8.90356 38.2471 9.12656 38.7886C9.34955 39.3301 9.67756 39.8221 10.0917 40.2362C10.5057 40.6503 10.9977 40.9783 11.5392 41.2013C12.0807 41.4243 12.661 41.5378 13.2467 41.5354C15.0563 41.5354 16.7729 40.2982 17.2834 38.6123H15.0256C14.5769 39.3236 13.9892 39.6482 13.1848 39.6482C12.1643 39.6482 11.2515 38.9521 10.9577 37.9622H17.4842C17.5624 37.4834 17.5931 37.2509 17.5931 36.9417ZM10.8963 36.3453C11.1902 35.1853 12.1182 34.4427 13.263 34.4427C14.4077 34.4427 15.3046 35.1699 15.5831 36.3453H10.8963ZM51.4386 41.3269H53.4955V29.8969H51.4386V41.3269ZM68.5447 32.5641C67.6938 32.5641 67.0438 32.858 66.3324 33.5852V32.7654H64.4298V41.3341H66.4877V37.2969C66.4877 36.1991 66.5803 34.4509 68.096 34.4509C69.5183 34.4509 69.6736 36.0903 69.6736 37.142V41.3336H71.7306V36.7399C71.7306 35.5333 71.638 34.9614 71.313 34.2807C70.8337 33.2602 69.7048 32.5641 68.5447 32.5641ZM76.8655 34.4514C77.8084 34.4514 78.3496 34.761 78.8606 35.6268H81.1798C80.5461 33.7865 78.9225 32.5641 76.9422 32.5641C74.4366 32.5641 72.4256 34.5592 72.4256 37.0188C72.4256 39.4933 74.4519 41.5349 76.9422 41.5349C77.5774 41.5316 78.2049 41.3966 78.7852 41.1383C79.3655 40.88 79.886 40.5042 80.3136 40.0345C80.7469 39.5552 80.9018 39.2767 81.1798 38.5193H78.8606C78.3803 39.2613 77.7624 39.6477 76.9892 39.6477C75.5501 39.6477 74.4835 38.5341 74.4835 37.049C74.4835 35.5496 75.5041 34.4514 76.8655 34.4514ZM25.4556 37.9934L23.9988 32.7659H22.3436L20.8709 37.9934L19.1294 32.7659H17.3145L20.1754 41.3341H21.4932L23.1637 35.7821L24.7874 41.3341H26.1703L28.9137 32.7659H27.2129L25.4556 37.9934ZM36.4767 32.5732C35.4714 32.5732 34.5309 32.9692 33.8814 33.6647V29.8974H31.8239V41.3269H33.7107V40.2292C34.4998 41.126 35.3348 41.3792 36.433 41.3792C38.9233 41.3792 40.603 39.2853 40.603 36.9498C40.6035 34.4753 38.7043 32.5732 36.4767 32.5732ZM36.1866 39.6151C35.4988 39.6151 34.8391 39.3418 34.3527 38.8554C33.8663 38.369 33.593 37.7094 33.593 37.0215C33.593 36.3336 33.8663 35.6739 34.3527 35.1875C34.8391 34.7011 35.4988 34.4279 36.1866 34.4279C36.8745 34.4279 37.5342 34.7011 38.0206 35.1875C38.507 35.6739 38.7802 36.3336 38.7802 37.0215C38.7802 37.7094 38.507 38.369 38.0206 38.8554C37.5342 39.3418 36.8745 39.6151 36.1866 39.6151ZM48.0068 32.9773V33.6719C47.3573 32.9759 46.4172 32.5799 45.4115 32.5799C43.1844 32.5799 41.2847 34.4821 41.2847 36.957C41.2847 39.292 42.9649 41.3863 45.4547 41.3863C46.5529 41.3863 47.388 41.1328 48.177 40.2359V41.3341H50.0638V32.9773H48.0068ZM45.702 39.6151C45.0142 39.6151 44.3545 39.3418 43.8681 38.8554C43.3817 38.369 43.1084 37.7094 43.1084 37.0215C43.1084 36.3336 43.3817 35.6739 43.8681 35.1875C44.3545 34.7011 45.0142 34.4279 45.702 34.4279C46.3899 34.4279 47.0496 34.7011 47.536 35.1875C48.0224 35.6739 48.2956 36.3336 48.2956 37.0215C48.2956 37.7094 48.0224 38.369 47.536 38.8554C47.0496 39.3418 46.3899 39.6151 45.702 39.6151Z" fill="url(#paint1_linear_1_311)"/>
<defs>
<linearGradient id="paint0_linear_1_311" x1="34.7258" y1="0.0187988" x2="34.7258" y2="28.1028" gradientUnits="userSpaceOnUse">
<stop stop-color="#E8F2F9"/>
<stop offset="1" stop-color="#A7B1B7"/>
</linearGradient>
<linearGradient id="paint1_linear_1_311" x1="45.5386" y1="0.0881348" x2="45.5386" y2="41.5355" gradientUnits="userSpaceOnUse">
<stop stop-color="#E8F2F9"/>
<stop offset="1" stop-color="#A7B1B7"/>
</linearGradient>
</defs>
</svg>
