<svg width="90" height="42" viewBox="0 0 90 42" fill="none" xmlns="http://www.w3.org/2000/svg">
<path fill-rule="evenodd" clip-rule="evenodd" d="M37.1415 19.0309L26.8304 19.3981L36.6209 19.9421L37.1415 19.0309ZM35.9081 21.1976L25.5725 21.5653L35.3995 22.1113L35.9081 21.1976ZM34.6747 23.3825L24.352 23.7449L34.167 24.2905L34.6747 23.3825ZM33.4667 25.5565L23.1311 25.9246L32.9346 26.4692L33.4667 25.5565ZM46.1013 8.09417L32.9408 8.56251L46.1387 9.29594L46.1013 8.09417ZM46.0179 5.94374L34.1953 6.35839L46.0553 7.03861L46.0179 5.94374ZM45.9335 3.86953L35.4 4.21611L45.9843 4.80381L45.9335 3.86953ZM45.8626 1.7402L36.6295 2.04891L45.899 2.59634L45.8626 1.7402ZM45.8026 0.0187988H37.7723L45.8146 0.445433L45.8026 0.0187988ZM32.2213 27.7294L21.9106 28.1028H32.0109L32.2213 27.7294Z" fill="url(#paint0_linear_1_272)"/>
<path fill-rule="evenodd" clip-rule="evenodd" d="M67.1636 0.0881348H52.3042L51.8829 0.834026L59.3188 1.22854C59.406 1.22854 59.406 1.35222 59.2814 1.35222L51.4495 1.61395L50.694 2.93604L58.0791 3.37226C58.1784 3.38472 58.1539 3.52086 58.0672 3.52086L50.2224 3.77876L49.4923 5.04476L56.8654 5.45414C57.0265 5.4666 57.0265 5.60322 56.8654 5.60322L49.0335 5.8779L48.29 7.2019L55.6387 7.62327C55.7998 7.63573 55.7878 7.78433 55.6387 7.78433L47.8068 8.06332L47.0504 9.37103L54.411 9.77992C54.5223 9.79239 54.5357 9.92901 54.3866 9.92901L31.8196 10.685L53.2342 11.8747C53.3699 11.8747 53.3579 12.0483 53.2088 12.0483L30.6053 12.8541L52.02 14.0434C52.1192 14.0434 52.1437 14.2045 51.9946 14.2045L29.3537 15.0223L50.7684 16.212C50.8556 16.2245 50.9414 16.3856 50.7564 16.398L28.1515 17.2024L49.5656 18.3917C49.6275 18.4042 49.6893 18.5652 49.5412 18.5652L38.1644 18.9708L38.2018 19.9976L48.3389 20.5608C48.4128 20.5733 48.4501 20.7219 48.3135 20.7219L38.2392 21.08L38.2886 22.2285L47.0878 22.7175C47.1741 22.73 47.2115 22.9035 47.0624 22.9035L38.338 23.2098L38.3758 24.47L45.8736 24.8866C45.9599 24.8986 45.9848 25.0597 45.8362 25.0597L38.4132 25.3248L38.4626 26.7111L44.6589 27.0553C44.7461 27.0677 44.7461 27.2168 44.6219 27.2168L38.4875 27.4388L38.5124 28.0346H58.5144C63.8181 28.0346 68.5763 24.168 69.4688 21.0944C70.3619 18.0212 70.3619 15.2452 66.0984 13.8574C68.4785 13.3119 72.6168 10.6279 73.4351 6.91716C74.1772 3.54579 72.9385 0.100598 67.1636 0.0881348ZM57.1027 21.6116H50.9563L54.4259 15.4647H58.9866C63.6959 15.4647 61.415 21.6116 57.1027 21.6116ZM65.0582 8.42476C64.8597 9.16826 63.3718 11.0522 61.4893 11.0522H56.9287L59.8528 5.89707H62.183C65.1565 5.9963 65.2557 7.68175 65.0582 8.42476ZM89.6788 36.9417C89.6788 34.5597 87.6986 32.5646 85.3166 32.5646C82.8728 32.5646 80.8777 34.5914 80.8777 37.0812C80.8752 37.6668 80.9888 38.2472 81.2118 38.7888C81.4348 39.3303 81.7628 39.8224 82.177 40.2365C82.5911 40.6506 83.0832 40.9786 83.6248 41.2015C84.1664 41.4245 84.7468 41.538 85.3324 41.5354C87.1411 41.5354 88.8582 40.2982 89.3687 38.6123H87.1104C86.6617 39.3236 86.075 39.6482 85.2696 39.6482C84.2491 39.6482 83.3373 38.9521 83.043 37.9622H89.5695C89.6477 37.4834 89.6788 37.2509 89.6788 36.9417ZM82.9816 36.3453C83.2755 35.1853 84.2035 34.4427 85.3478 34.4427C86.493 34.4427 87.3899 35.1699 87.6679 36.3453H82.9816ZM60.358 32.9773V33.6719C59.709 32.9759 58.7685 32.5799 57.7628 32.5799C55.5356 32.5799 53.6369 34.4821 53.6369 36.957C53.6369 39.292 55.3166 41.3863 57.8069 41.3863C58.9051 41.3863 59.7401 41.1328 60.5287 40.2359V41.3341H62.4164V32.9773H60.358ZM58.0528 39.6151C57.3649 39.6151 56.7052 39.3418 56.2188 38.8554C55.7324 38.369 55.4592 37.7094 55.4592 37.0215C55.4592 36.3336 55.7324 35.6739 56.2188 35.1875C56.7052 34.7011 57.3649 34.4279 58.0528 34.4279C58.7406 34.4279 59.4003 34.7011 59.8867 35.1875C60.3731 35.6739 60.6464 36.3336 60.6464 37.0215C60.6464 37.7094 60.3731 38.369 59.8867 38.8554C59.4003 39.3418 58.7406 39.6151 58.0528 39.6151ZM4.1099 32.5641C3.25951 32.5641 2.60997 32.858 1.89811 33.5852V32.7654H-0.00448608V41.3341H2.05295V37.2969C2.05295 36.1991 2.14546 34.4509 3.66121 34.4509C5.08397 34.4509 5.2388 36.0903 5.2388 37.142V41.3336H7.29575V36.7399C7.29575 35.5333 7.20324 34.9614 6.87823 34.2807C6.39886 33.2602 5.26996 32.5641 4.1099 32.5641ZM16.8917 36.9417C16.8917 34.5597 14.9119 32.5646 12.5299 32.5646C10.0861 32.5646 8.09102 34.5914 8.09102 37.0812C8.08861 37.6668 8.20218 38.2471 8.42517 38.7886C8.64817 39.3301 8.97617 39.8221 9.39027 40.2362C9.80436 40.6503 10.2964 40.9783 10.8379 41.2013C11.3794 41.4243 11.9597 41.5378 12.5453 41.5354C14.3549 41.5354 16.0715 40.2982 16.582 38.6123H14.3242C13.8755 39.3236 13.2878 39.6482 12.4834 39.6482C11.4629 39.6482 10.5502 38.9521 10.2563 37.9622H16.7829C16.861 37.4834 16.8917 37.2509 16.8917 36.9417ZM10.195 36.3453C10.4888 35.1853 11.4169 34.4427 12.5616 34.4427C13.7063 34.4427 14.6032 35.1699 14.8817 36.3453H10.195ZM50.7372 41.3269H52.7941V29.8969H50.7372V41.3269ZM67.8433 32.5641C66.9924 32.5641 66.3424 32.858 65.631 33.5852V32.7654H63.7285V41.3341H65.7864V37.2969C65.7864 36.1991 65.8789 34.4509 67.3946 34.4509C68.8169 34.4509 68.9722 36.0903 68.9722 37.142V41.3336H71.0292V36.7399C71.0292 35.5333 70.9366 34.9614 70.6116 34.2807C70.1323 33.2602 69.0034 32.5641 67.8433 32.5641ZM76.1641 34.4514C77.107 34.4514 77.6482 34.761 78.1592 35.6268H80.4784C79.8447 33.7865 78.2211 32.5641 76.2408 32.5641C73.7352 32.5641 71.7242 34.5592 71.7242 37.0188C71.7242 39.4933 73.7505 41.5349 76.2408 41.5349C76.876 41.5316 77.5036 41.3966 78.0839 41.1383C78.6642 40.88 79.1846 40.5042 79.6122 40.0345C80.0455 39.5552 80.2004 39.2767 80.4784 38.5193H78.1592C77.6789 39.2613 77.061 39.6477 76.2878 39.6477C74.8487 39.6477 73.7822 38.5341 73.7822 37.049C73.7822 35.5496 74.8027 34.4514 76.1641 34.4514ZM24.7542 37.9934L23.2974 32.7659H21.6422L20.1696 37.9934L18.428 32.7659H16.6132L19.474 41.3341H20.7918L22.4624 35.7821L24.086 41.3341H25.4689L28.2123 32.7659H26.5116L24.7542 37.9934ZM35.7753 32.5732C34.77 32.5732 33.8295 32.9692 33.18 33.6647V29.8974H31.1226V41.3269H33.0093V40.2292C33.7984 41.126 34.6334 41.3792 35.7317 41.3792C38.222 41.3792 39.9016 39.2853 39.9016 36.9498C39.9021 34.4753 38.0029 32.5732 35.7753 32.5732ZM35.4853 39.6151C34.7974 39.6151 34.1377 39.3418 33.6513 38.8554C33.1649 38.369 32.8917 37.7094 32.8917 37.0215C32.8917 36.3336 33.1649 35.6739 33.6513 35.1875C34.1377 34.7011 34.7974 34.4279 35.4853 34.4279C36.1731 34.4279 36.8328 34.7011 37.3192 35.1875C37.8056 35.6739 38.0789 36.3336 38.0789 37.0215C38.0789 37.7094 37.8056 38.369 37.3192 38.8554C36.8328 39.3418 36.1731 39.6151 35.4853 39.6151ZM47.3054 32.9773V33.6719C46.6559 32.9759 45.7159 32.5799 44.7101 32.5799C42.483 32.5799 40.5833 34.4821 40.5833 36.957C40.5833 39.292 42.2635 41.3863 44.7533 41.3863C45.8515 41.3863 46.6866 41.1328 47.4756 40.2359V41.3341H49.3624V32.9773H47.3054ZM45.0006 39.6151C44.3128 39.6151 43.6531 39.3418 43.1667 38.8554C42.6803 38.369 42.407 37.7094 42.407 37.0215C42.407 36.3336 42.6803 35.6739 43.1667 35.1875C43.6531 34.7011 44.3128 34.4279 45.0006 34.4279C45.6885 34.4279 46.3482 34.7011 46.8346 35.1875C47.321 35.6739 47.5942 36.3336 47.5942 37.0215C47.5942 37.7094 47.321 38.369 46.8346 38.8554C46.3482 39.3418 45.6885 39.6151 45.0006 39.6151Z" fill="url(#paint1_linear_1_272)"/>
<defs>
<linearGradient id="paint0_linear_1_272" x1="34.0247" y1="0.0187988" x2="34.0247" y2="28.1028" gradientUnits="userSpaceOnUse">
<stop stop-color="#E8F2F9"/>
<stop offset="1" stop-color="#A7B1B7"/>
</linearGradient>
<linearGradient id="paint1_linear_1_272" x1="44.8372" y1="0.0881348" x2="44.8372" y2="41.5355" gradientUnits="userSpaceOnUse">
<stop stop-color="#E8F2F9"/>
<stop offset="1" stop-color="#A7B1B7"/>
</linearGradient>
</defs>
</svg>
