<svg width="91" height="42" viewBox="0 0 91 42" fill="none" xmlns="http://www.w3.org/2000/svg">
<path fill-rule="evenodd" clip-rule="evenodd" d="M37.6663 19.0309L27.3551 19.3981L37.1457 19.9421L37.6663 19.0309ZM36.4329 21.1976L26.0973 21.5653L35.9243 22.1113L36.4329 21.1976ZM35.1995 23.3825L24.8768 23.7449L34.6918 24.2905L35.1995 23.3825ZM33.9915 25.5565L23.6559 25.9246L33.4594 26.4692L33.9915 25.5565ZM46.6261 8.09417L33.4656 8.56251L46.6635 9.29594L46.6261 8.09417ZM46.5427 5.94374L34.7201 6.35839L46.5801 7.03861L46.5427 5.94374ZM46.4583 3.86953L35.9247 4.21611L46.5091 4.80381L46.4583 3.86953ZM46.3873 1.7402L37.1543 2.04891L46.4238 2.59634L46.3873 1.7402ZM46.3274 0.0187988H38.2971L46.3394 0.445433L46.3274 0.0187988ZM32.7461 27.7294L22.4354 28.1028H32.5356L32.7461 27.7294Z" fill="url(#paint0_linear_1_164)"/>
<path fill-rule="evenodd" clip-rule="evenodd" d="M67.6886 0.0881348H52.8292L52.4079 0.834026L59.8438 1.22854C59.931 1.22854 59.931 1.35222 59.8064 1.35222L51.9745 1.61395L51.219 2.93604L58.6041 3.37226C58.7034 3.38472 58.6789 3.52086 58.5921 3.52086L50.7473 3.77876L50.0173 5.04476L57.3904 5.45414C57.5514 5.4666 57.5514 5.60322 57.3904 5.60322L49.5585 5.8779L48.815 7.2019L56.1637 7.62327C56.3248 7.63573 56.3128 7.78433 56.1637 7.78433L48.3318 8.06332L47.5754 9.37103L54.936 9.77992C55.0472 9.79239 55.0607 9.92901 54.9116 9.92901L32.3446 10.685L53.7592 11.8747C53.8949 11.8747 53.8829 12.0483 53.7338 12.0483L31.1303 12.8541L52.545 14.0434C52.6442 14.0434 52.6686 14.2045 52.5196 14.2045L29.8787 15.0223L51.2933 16.212C51.3806 16.2245 51.4664 16.3856 51.2814 16.398L28.6765 17.2024L50.0906 18.3917C50.1525 18.4042 50.2143 18.5652 50.0662 18.5652L38.6894 18.9708L38.7268 19.9976L48.8639 20.5608C48.9377 20.5733 48.9751 20.7219 48.8385 20.7219L38.7642 21.08L38.8136 22.2285L47.6128 22.7175C47.6991 22.73 47.7365 22.9035 47.5874 22.9035L38.8629 23.2098L38.9008 24.47L46.3986 24.8866C46.4848 24.8986 46.5098 25.0597 46.3612 25.0597L38.9382 25.3248L38.9876 26.7111L45.1838 27.0553C45.2711 27.0677 45.2711 27.2168 45.1469 27.2168L39.0125 27.4388L39.0374 28.0346H59.0394C64.3431 28.0346 69.1012 24.168 69.9938 21.0944C70.8869 18.0212 70.8869 15.2452 66.6234 13.8574C69.0035 13.3119 73.1418 10.6279 73.9601 6.91716C74.7021 3.54579 73.4635 0.100598 67.6886 0.0881348ZM57.6277 21.6116H51.4813L54.9509 15.4647H59.5116C64.2208 15.4647 61.94 21.6116 57.6277 21.6116ZM65.5832 8.42476C65.3847 9.16826 63.8968 11.0522 62.0143 11.0522H57.4537L60.3778 5.89707H62.708C65.6815 5.9963 65.7807 7.68175 65.5832 8.42476ZM90.2038 36.9417C90.2038 34.5597 88.2236 32.5646 85.8416 32.5646C83.3978 32.5646 81.4027 34.5914 81.4027 37.0812C81.4002 37.6668 81.5138 38.2472 81.7368 38.7888C81.9598 39.3303 82.2878 39.8224 82.702 40.2365C83.1161 40.6506 83.6082 40.9786 84.1498 41.2015C84.6914 41.4245 85.2718 41.538 85.8574 41.5354C87.6661 41.5354 89.3832 40.2982 89.8937 38.6123H87.6354C87.1867 39.3236 86.6 39.6482 85.7946 39.6482C84.7741 39.6482 83.8623 38.9521 83.568 37.9622H90.0945C90.1727 37.4834 90.2038 37.2509 90.2038 36.9417ZM83.5066 36.3453C83.8005 35.1853 84.7285 34.4427 85.8728 34.4427C87.018 34.4427 87.9149 35.1699 88.1929 36.3453H83.5066ZM60.883 32.9773V33.6719C60.234 32.9759 59.2935 32.5799 58.2878 32.5799C56.0606 32.5799 54.1619 34.4821 54.1619 36.957C54.1619 39.292 55.8416 41.3863 58.3319 41.3863C59.4301 41.3863 60.2651 41.1328 61.0537 40.2359V41.3341H62.9414V32.9773H60.883ZM58.5778 39.6151C57.8899 39.6151 57.2302 39.3418 56.7438 38.8554C56.2574 38.369 55.9842 37.7094 55.9842 37.0215C55.9842 36.3336 56.2574 35.6739 56.7438 35.1875C57.2302 34.7011 57.8899 34.4279 58.5778 34.4279C59.2656 34.4279 59.9253 34.7011 60.4117 35.1875C60.8981 35.6739 61.1714 36.3336 61.1714 37.0215C61.1714 37.7094 60.8981 38.369 60.4117 38.8554C59.9253 39.3418 59.2656 39.6151 58.5778 39.6151ZM4.63489 32.5641C3.7845 32.5641 3.13496 32.858 2.42311 33.5852V32.7654H0.520508V41.3341H2.57794V37.2969C2.57794 36.1991 2.67046 34.4509 4.18621 34.4509C5.60896 34.4509 5.7638 36.0903 5.7638 37.142V41.3336H7.82075V36.7399C7.82075 35.5333 7.72823 34.9614 7.40322 34.2807C6.92386 33.2602 5.79495 32.5641 4.63489 32.5641ZM17.4167 36.9417C17.4167 34.5597 15.4369 32.5646 13.0549 32.5646C10.6111 32.5646 8.61601 34.5914 8.61601 37.0812C8.6136 37.6668 8.72717 38.2471 8.95017 38.7886C9.17316 39.3301 9.50117 39.8221 9.91526 40.2362C10.3294 40.6503 10.8213 40.9783 11.3629 41.2013C11.9044 41.4243 12.4847 41.5378 13.0703 41.5354C14.8799 41.5354 16.5965 40.2982 17.107 38.6123H14.8492C14.4005 39.3236 13.8128 39.6482 13.0084 39.6482C11.9879 39.6482 11.0752 38.9521 10.7813 37.9622H17.3078C17.386 37.4834 17.4167 37.2509 17.4167 36.9417ZM10.7199 36.3453C11.0138 35.1853 11.9418 34.4427 13.0866 34.4427C14.2313 34.4427 15.1282 35.1699 15.4067 36.3453H10.7199ZM51.2622 41.3269H53.3191V29.8969H51.2622V41.3269ZM68.3683 32.5641C67.5174 32.5641 66.8674 32.858 66.156 33.5852V32.7654H64.2534V41.3341H66.3114V37.2969C66.3114 36.1991 66.4039 34.4509 67.9196 34.4509C69.3419 34.4509 69.4972 36.0903 69.4972 37.142V41.3336H71.5542V36.7399C71.5542 35.5333 71.4616 34.9614 71.1366 34.2807C70.6573 33.2602 69.5284 32.5641 68.3683 32.5641ZM76.6891 34.4514C77.632 34.4514 78.1732 34.761 78.6842 35.6268H81.0034C80.3697 33.7865 78.7461 32.5641 76.7658 32.5641C74.2602 32.5641 72.2492 34.5592 72.2492 37.0188C72.2492 39.4933 74.2755 41.5349 76.7658 41.5349C77.401 41.5316 78.0285 41.3966 78.6088 41.1383C79.1891 40.88 79.7096 40.5042 80.1372 40.0345C80.5705 39.5552 80.7254 39.2767 81.0034 38.5193H78.6842C78.2039 39.2613 77.586 39.6477 76.8128 39.6477C75.3737 39.6477 74.3072 38.5341 74.3072 37.049C74.3072 35.5496 75.3277 34.4514 76.6891 34.4514ZM25.2792 37.9934L23.8224 32.7659H22.1672L20.6946 37.9934L18.953 32.7659H17.1382L19.999 41.3341H21.3168L22.9874 35.7821L24.611 41.3341H25.9939L28.7373 32.7659H27.0365L25.2792 37.9934ZM36.3003 32.5732C35.295 32.5732 34.3545 32.9692 33.705 33.6647V29.8974H31.6476V41.3269H33.5343V40.2292C34.3234 41.126 35.1584 41.3792 36.2566 41.3792C38.7469 41.3792 40.4266 39.2853 40.4266 36.9498C40.4271 34.4753 38.5279 32.5732 36.3003 32.5732ZM36.0103 39.6151C35.3224 39.6151 34.6627 39.3418 34.1763 38.8554C33.6899 38.369 33.4167 37.7094 33.4167 37.0215C33.4167 36.3336 33.6899 35.6739 34.1763 35.1875C34.6627 34.7011 35.3224 34.4279 36.0103 34.4279C36.6981 34.4279 37.3578 34.7011 37.8442 35.1875C38.3306 35.6739 38.6039 36.3336 38.6039 37.0215C38.6039 37.7094 38.3306 38.369 37.8442 38.8554C37.3578 39.3418 36.6981 39.6151 36.0103 39.6151ZM47.8304 32.9773V33.6719C47.1809 32.9759 46.2408 32.5799 45.2351 32.5799C43.008 32.5799 41.1083 34.4821 41.1083 36.957C41.1083 39.292 42.7885 41.3863 45.2783 41.3863C46.3765 41.3863 47.2116 41.1328 48.0006 40.2359V41.3341H49.8874V32.9773H47.8304ZM45.5256 39.6151C44.8378 39.6151 44.1781 39.3418 43.6917 38.8554C43.2053 38.369 42.932 37.7094 42.932 37.0215C42.932 36.3336 43.2053 35.6739 43.6917 35.1875C44.1781 34.7011 44.8378 34.4279 45.5256 34.4279C46.2135 34.4279 46.8732 34.7011 47.3596 35.1875C47.846 35.6739 48.1192 36.3336 48.1192 37.0215C48.1192 37.7094 47.846 38.369 47.3596 38.8554C46.8732 39.3418 46.2135 39.6151 45.5256 39.6151Z" fill="url(#paint1_linear_1_164)"/>
<defs>
<linearGradient id="paint0_linear_1_164" x1="34.5494" y1="0.0187988" x2="34.5494" y2="28.1028" gradientUnits="userSpaceOnUse">
<stop stop-color="#E8F2F9"/>
<stop offset="1" stop-color="#A7B1B7"/>
</linearGradient>
<linearGradient id="paint1_linear_1_164" x1="45.3622" y1="0.0881348" x2="45.3622" y2="41.5355" gradientUnits="userSpaceOnUse">
<stop stop-color="#E8F2F9"/>
<stop offset="1" stop-color="#A7B1B7"/>
</linearGradient>
</defs>
</svg>
