<svg width="91" height="42" viewBox="0 0 91 42" fill="none" xmlns="http://www.w3.org/2000/svg">
<path fill-rule="evenodd" clip-rule="evenodd" d="M37.5437 19.0309L27.2326 19.3981L37.0231 19.9421L37.5437 19.0309ZM36.3103 21.1976L25.9747 21.5653L35.8017 22.1113L36.3103 21.1976ZM35.0769 23.3825L24.7543 23.7449L34.5693 24.2905L35.0769 23.3825ZM33.8689 25.5565L23.5333 25.9246L33.3368 26.4692L33.8689 25.5565ZM46.5035 8.09417L33.343 8.56251L46.5409 9.29594L46.5035 8.09417ZM46.4201 5.94374L34.5975 6.35839L46.4575 7.03861L46.4201 5.94374ZM46.3357 3.86953L35.8022 4.21611L46.3865 4.80381L46.3357 3.86953ZM46.2648 1.7402L37.0317 2.04891L46.3012 2.59634L46.2648 1.7402ZM46.2049 0.0187988H38.1746L46.2169 0.445433L46.2049 0.0187988ZM32.6235 27.7294L22.3129 28.1028H32.4131L32.6235 27.7294Z" fill="url(#paint0_linear_1_350)"/>
<path fill-rule="evenodd" clip-rule="evenodd" d="M67.566 0.0881348H52.7067L52.2853 0.834026L59.7212 1.22854C59.8085 1.22854 59.8085 1.35222 59.6838 1.35222L51.852 1.61395L51.0965 2.93604L58.4816 3.37226C58.5808 3.38472 58.5564 3.52086 58.4696 3.52086L50.6248 3.77876L49.8947 5.04476L57.2678 5.45414C57.4289 5.4666 57.4289 5.60322 57.2678 5.60322L49.436 5.8779L48.6925 7.2019L56.0411 7.62327C56.2022 7.63573 56.1902 7.78433 56.0411 7.78433L48.2093 8.06332L47.4528 9.37103L54.8135 9.77992C54.9247 9.79239 54.9381 9.92901 54.789 9.92901L32.222 10.685L53.6366 11.8747C53.7723 11.8747 53.7603 12.0483 53.6112 12.0483L31.0078 12.8541L52.4224 14.0434C52.5216 14.0434 52.5461 14.2045 52.397 14.2045L29.7561 15.0223L51.1708 16.212C51.258 16.2245 51.3438 16.3856 51.1588 16.398L28.5539 17.2024L49.9681 18.3917C50.0299 18.4042 50.0917 18.5652 49.9436 18.5652L38.5669 18.9708L38.6043 19.9976L48.7414 20.5608C48.8152 20.5733 48.8526 20.7219 48.716 20.7219L38.6416 21.08L38.691 22.2285L47.4902 22.7175C47.5765 22.73 47.6139 22.9035 47.4648 22.9035L38.7404 23.2098L38.7783 24.47L46.276 24.8866C46.3623 24.8986 46.3872 25.0597 46.2386 25.0597L38.8156 25.3248L38.865 26.7111L45.0613 27.0553C45.1485 27.0677 45.1485 27.2168 45.0244 27.2168L38.89 27.4388L38.9149 28.0346H58.9168C64.2205 28.0346 68.9787 24.168 69.8713 21.0944C70.7643 18.0212 70.7643 15.2452 66.5009 13.8574C68.8809 13.3119 73.0193 10.6279 73.8375 6.91716C74.5796 3.54579 73.3409 0.100598 67.566 0.0881348ZM57.5051 21.6116H51.3587L54.8283 15.4647H59.389C64.0983 15.4647 61.8175 21.6116 57.5051 21.6116ZM65.4606 8.42476C65.2622 9.16826 63.7742 11.0522 61.8918 11.0522H57.3311L60.2552 5.89707H62.5854C65.5589 5.9963 65.6581 7.68175 65.4606 8.42476ZM90.0813 36.9417C90.0813 34.5597 88.101 32.5646 85.7191 32.5646C83.2753 32.5646 81.2801 34.5914 81.2801 37.0812C81.2777 37.6668 81.3912 38.2472 81.6142 38.7888C81.8372 39.3303 82.1653 39.8224 82.5794 40.2365C82.9936 40.6506 83.4857 40.9786 84.0272 41.2015C84.5688 41.4245 85.1492 41.538 85.7349 41.5354C87.5435 41.5354 89.2606 40.2982 89.7711 38.6123H87.5128C87.0642 39.3236 86.4774 39.6482 85.6721 39.6482C84.6515 39.6482 83.7398 38.9521 83.4454 37.9622H89.972C90.0501 37.4834 90.0813 37.2509 90.0813 36.9417ZM83.3841 36.3453C83.6779 35.1853 84.606 34.4427 85.7502 34.4427C86.8954 34.4427 87.7923 35.1699 88.0703 36.3453H83.3841ZM60.7605 32.9773V33.6719C60.1114 32.9759 59.1709 32.5799 58.1652 32.5799C55.9381 32.5799 54.0393 34.4821 54.0393 36.957C54.0393 39.292 55.719 41.3863 58.2093 41.3863C59.3075 41.3863 60.1426 41.1328 60.9311 40.2359V41.3341H62.8189V32.9773H60.7605ZM58.4552 39.6151C57.7673 39.6151 57.1077 39.3418 56.6213 38.8554C56.1349 38.369 55.8616 37.7094 55.8616 37.0215C55.8616 36.3336 56.1349 35.6739 56.6213 35.1875C57.1077 34.7011 57.7673 34.4279 58.4552 34.4279C59.1431 34.4279 59.8028 34.7011 60.2892 35.1875C60.7756 35.6739 61.0488 36.3336 61.0488 37.0215C61.0488 37.7094 60.7756 38.369 60.2892 38.8554C59.8028 39.3418 59.1431 39.6151 58.4552 39.6151ZM4.51233 32.5641C3.66194 32.5641 3.0124 32.858 2.30055 33.5852V32.7654H0.397949V41.3341H2.45538V37.2969C2.45538 36.1991 2.5479 34.4509 4.06365 34.4509C5.4864 34.4509 5.64124 36.0903 5.64124 37.142V41.3336H7.69819V36.7399C7.69819 35.5333 7.60567 34.9614 7.28066 34.2807C6.8013 33.2602 5.6724 32.5641 4.51233 32.5641ZM17.2941 36.9417C17.2941 34.5597 15.3143 32.5646 12.9324 32.5646C10.4886 32.5646 8.49345 34.5914 8.49345 37.0812C8.49105 37.6668 8.60461 38.2471 8.82761 38.7886C9.0506 39.3301 9.37861 39.8221 9.7927 40.2362C10.2068 40.6503 10.6988 40.9783 11.2403 41.2013C11.7818 41.4243 12.3621 41.5378 12.9477 41.5354C14.7573 41.5354 16.4739 40.2982 16.9844 38.6123H14.7266C14.2779 39.3236 13.6902 39.6482 12.8859 39.6482C11.8653 39.6482 10.9526 38.9521 10.6587 37.9622H17.1853C17.2634 37.4834 17.2941 37.2509 17.2941 36.9417ZM10.5974 36.3453C10.8912 35.1853 11.8193 34.4427 12.964 34.4427C14.1087 34.4427 15.0056 35.1699 15.2841 36.3453H10.5974ZM51.1396 41.3269H53.1966V29.8969H51.1396V41.3269ZM68.2458 32.5641C67.3949 32.5641 66.7449 32.858 66.0335 33.5852V32.7654H64.1309V41.3341H66.1888V37.2969C66.1888 36.1991 66.2813 34.4509 67.7971 34.4509C69.2193 34.4509 69.3746 36.0903 69.3746 37.142V41.3336H71.4316V36.7399C71.4316 35.5333 71.3391 34.9614 71.0141 34.2807C70.5347 33.2602 69.4058 32.5641 68.2458 32.5641ZM76.5666 34.4514C77.5095 34.4514 78.0507 34.761 78.5617 35.6268H80.8808C80.2471 33.7865 78.6235 32.5641 76.6433 32.5641C74.1376 32.5641 72.1267 34.5592 72.1267 37.0188C72.1267 39.4933 74.153 41.5349 76.6433 41.5349C77.2784 41.5316 77.906 41.3966 78.4863 41.1383C79.0666 40.88 79.587 40.5042 80.0146 40.0345C80.448 39.5552 80.6028 39.2767 80.8808 38.5193H78.5617C78.0814 39.2613 77.4634 39.6477 76.6902 39.6477C75.2512 39.6477 74.1846 38.5341 74.1846 37.049C74.1846 35.5496 75.2052 34.4514 76.5666 34.4514ZM25.1566 37.9934L23.6999 32.7659H22.0446L20.572 37.9934L18.8305 32.7659H17.0156L19.8764 41.3341H21.1942L22.8648 35.7821L24.4884 41.3341H25.8714L28.6148 32.7659H26.914L25.1566 37.9934ZM36.1777 32.5732C35.1725 32.5732 34.232 32.9692 33.5824 33.6647V29.8974H31.525V41.3269H33.4118V40.2292C34.2008 41.126 35.0359 41.3792 36.1341 41.3792C38.6244 41.3792 40.3041 39.2853 40.3041 36.9498C40.3046 34.4753 38.4053 32.5732 36.1777 32.5732ZM35.8877 39.6151C35.1998 39.6151 34.5401 39.3418 34.0537 38.8554C33.5673 38.369 33.2941 37.7094 33.2941 37.0215C33.2941 36.3336 33.5673 35.6739 34.0537 35.1875C34.5401 34.7011 35.1998 34.4279 35.8877 34.4279C36.5756 34.4279 37.2353 34.7011 37.7216 35.1875C38.208 35.6739 38.4813 36.3336 38.4813 37.0215C38.4813 37.7094 38.208 38.369 37.7216 38.8554C37.2353 39.3418 36.5756 39.6151 35.8877 39.6151ZM47.7079 32.9773V33.6719C47.0583 32.9759 46.1183 32.5799 45.1126 32.5799C42.8855 32.5799 40.9857 34.4821 40.9857 36.957C40.9857 39.292 42.6659 41.3863 45.1557 41.3863C46.2539 41.3863 47.089 41.1328 47.878 40.2359V41.3341H49.7648V32.9773H47.7079ZM45.4031 39.6151C44.7152 39.6151 44.0555 39.3418 43.5691 38.8554C43.0827 38.369 42.8095 37.7094 42.8095 37.0215C42.8095 36.3336 43.0827 35.6739 43.5691 35.1875C44.0555 34.7011 44.7152 34.4279 45.4031 34.4279C46.0909 34.4279 46.7506 34.7011 47.237 35.1875C47.7234 35.6739 47.9967 36.3336 47.9967 37.0215C47.9967 37.7094 47.7234 38.369 47.237 38.8554C46.7506 39.3418 46.0909 39.6151 45.4031 39.6151Z" fill="url(#paint1_linear_1_350)"/>
<defs>
<linearGradient id="paint0_linear_1_350" x1="34.4269" y1="0.0187988" x2="34.4269" y2="28.1028" gradientUnits="userSpaceOnUse">
<stop stop-color="#E8F2F9"/>
<stop offset="1" stop-color="#A7B1B7"/>
</linearGradient>
<linearGradient id="paint1_linear_1_350" x1="45.2396" y1="0.0881348" x2="45.2396" y2="41.5355" gradientUnits="userSpaceOnUse">
<stop stop-color="#E8F2F9"/>
<stop offset="1" stop-color="#A7B1B7"/>
</linearGradient>
</defs>
</svg>
