<svg width="90" height="42" viewBox="0 0 90 42" fill="none" xmlns="http://www.w3.org/2000/svg">
<path fill-rule="evenodd" clip-rule="evenodd" d="M37.2638 19.0309L26.9527 19.3981L36.7432 19.9421L37.2638 19.0309ZM36.0304 21.1976L25.6948 21.5653L35.5218 22.1113L36.0304 21.1976ZM34.797 23.3825L24.4744 23.7449L34.2893 24.2905L34.797 23.3825ZM33.589 25.5565L23.2534 25.9246L33.0569 26.4692L33.589 25.5565ZM46.2236 8.09417L33.0631 8.56251L46.261 9.29594L46.2236 8.09417ZM46.1402 5.94374L34.3176 6.35839L46.1776 7.03861L46.1402 5.94374ZM46.0558 3.86953L35.5223 4.21611L46.1066 4.80381L46.0558 3.86953ZM45.9849 1.7402L36.7518 2.04891L46.0213 2.59634L45.9849 1.7402ZM45.925 0.0187988H37.8946L45.9369 0.445433L45.925 0.0187988ZM32.3436 27.7294L22.033 28.1028H32.1332L32.3436 27.7294Z" fill="url(#paint0_linear_1_110)"/>
<path fill-rule="evenodd" clip-rule="evenodd" d="M67.2861 0.0881348H52.4268L52.0054 0.834026L59.4413 1.22854C59.5285 1.22854 59.5285 1.35222 59.4039 1.35222L51.5721 1.61395L50.8166 2.93604L58.2017 3.37226C58.3009 3.38472 58.2764 3.52086 58.1897 3.52086L50.3449 3.77876L49.6148 5.04476L56.9879 5.45414C57.149 5.4666 57.149 5.60322 56.9879 5.60322L49.1561 5.8779L48.4126 7.2019L55.7612 7.62327C55.9223 7.63573 55.9103 7.78433 55.7612 7.78433L47.9294 8.06332L47.1729 9.37103L54.5336 9.77992C54.6448 9.79239 54.6582 9.92901 54.5091 9.92901L31.9421 10.685L53.3567 11.8747C53.4924 11.8747 53.4804 12.0483 53.3313 12.0483L30.7279 12.8541L52.1425 14.0434C52.2417 14.0434 52.2662 14.2045 52.1171 14.2045L29.4762 15.0223L50.8909 16.212C50.9781 16.2245 51.0639 16.3856 50.8789 16.398L28.274 17.2024L49.6882 18.3917C49.75 18.4042 49.8118 18.5652 49.6637 18.5652L38.287 18.9708L38.3243 19.9976L48.4615 20.5608C48.5353 20.5733 48.5727 20.7219 48.4361 20.7219L38.3617 21.08L38.4111 22.2285L47.2103 22.7175C47.2966 22.73 47.334 22.9035 47.1849 22.9035L38.4605 23.2098L38.4984 24.47L45.9961 24.8866C46.0824 24.8986 46.1073 25.0597 45.9587 25.0597L38.5357 25.3248L38.5851 26.7111L44.7814 27.0553C44.8686 27.0677 44.8686 27.2168 44.7445 27.2168L38.61 27.4388L38.635 28.0346H58.6369C63.9406 28.0346 68.6988 24.168 69.5914 21.0944C70.4844 18.0212 70.4844 15.2452 66.221 13.8574C68.601 13.3119 72.7393 10.6279 73.5576 6.91716C74.2997 3.54579 73.061 0.100598 67.2861 0.0881348ZM57.2252 21.6116H51.0788L54.5484 15.4647H59.1091C63.8184 15.4647 61.5376 21.6116 57.2252 21.6116ZM65.1807 8.42476C64.9823 9.16826 63.4943 11.0522 61.6119 11.0522H57.0512L59.9753 5.89707H62.3055C65.279 5.9963 65.3782 7.68175 65.1807 8.42476ZM89.8014 36.9417C89.8014 34.5597 87.8211 32.5646 85.4392 32.5646C82.9954 32.5646 81.0002 34.5914 81.0002 37.0812C80.9978 37.6668 81.1113 38.2472 81.3343 38.7888C81.5573 39.3303 81.8854 39.8224 82.2995 40.2365C82.7137 40.6506 83.2057 40.9786 83.7473 41.2015C84.2889 41.4245 84.8693 41.538 85.455 41.5354C87.2636 41.5354 88.9807 40.2982 89.4912 38.6123H87.2329C86.7842 39.3236 86.1975 39.6482 85.3922 39.6482C84.3716 39.6482 83.4599 38.9521 83.1655 37.9622H89.6921C89.7702 37.4834 89.8014 37.2509 89.8014 36.9417ZM83.1042 36.3453C83.398 35.1853 84.3261 34.4427 85.4703 34.4427C86.6155 34.4427 87.5124 35.1699 87.7904 36.3453H83.1042ZM60.4806 32.9773V33.6719C59.8315 32.9759 58.891 32.5799 57.8853 32.5799C55.6582 32.5799 53.7594 34.4821 53.7594 36.957C53.7594 39.292 55.4391 41.3863 57.9294 41.3863C59.0276 41.3863 59.8627 41.1328 60.6512 40.2359V41.3341H62.539V32.9773H60.4806ZM58.1753 39.6151C57.4874 39.6151 56.8277 39.3418 56.3414 38.8554C55.855 38.369 55.5817 37.7094 55.5817 37.0215C55.5817 36.3336 55.855 35.6739 56.3414 35.1875C56.8277 34.7011 57.4874 34.4279 58.1753 34.4279C58.8632 34.4279 59.5229 34.7011 60.0093 35.1875C60.4957 35.6739 60.7689 36.3336 60.7689 37.0215C60.7689 37.7094 60.4957 38.369 60.0093 38.8554C59.5229 39.3418 58.8632 39.6151 58.1753 39.6151ZM4.23243 32.5641C3.38203 32.5641 2.7325 32.858 2.02064 33.5852V32.7654H0.118042V41.3341H2.17547V37.2969C2.17547 36.1991 2.26799 34.4509 3.78374 34.4509C5.20649 34.4509 5.36133 36.0903 5.36133 37.142V41.3336H7.41828V36.7399C7.41828 35.5333 7.32577 34.9614 7.00076 34.2807C6.52139 33.2602 5.39249 32.5641 4.23243 32.5641ZM17.0142 36.9417C17.0142 34.5597 15.0344 32.5646 12.6525 32.5646C10.2087 32.5646 8.21355 34.5914 8.21355 37.0812C8.21114 37.6668 8.32471 38.2471 8.5477 38.7886C8.77069 39.3301 9.0987 39.8221 9.5128 40.2362C9.92689 40.6503 10.4189 40.9783 10.9604 41.2013C11.5019 41.4243 12.0822 41.5378 12.6678 41.5354C14.4774 41.5354 16.194 40.2982 16.7045 38.6123H14.4467C13.998 39.3236 13.4103 39.6482 12.606 39.6482C11.5854 39.6482 10.6727 38.9521 10.3788 37.9622H16.9054C16.9835 37.4834 17.0142 37.2509 17.0142 36.9417ZM10.3175 36.3453C10.6113 35.1853 11.5394 34.4427 12.6841 34.4427C13.8288 34.4427 14.7257 35.1699 15.0042 36.3453H10.3175ZM50.8597 41.3269H52.9167V29.8969H50.8597V41.3269ZM67.9658 32.5641C67.115 32.5641 66.465 32.858 65.7536 33.5852V32.7654H63.851V41.3341H65.9089V37.2969C65.9089 36.1991 66.0014 34.4509 67.5172 34.4509C68.9394 34.4509 69.0947 36.0903 69.0947 37.142V41.3336H71.1517V36.7399C71.1517 35.5333 71.0592 34.9614 70.7342 34.2807C70.2548 33.2602 69.1259 32.5641 67.9658 32.5641ZM76.2867 34.4514C77.2296 34.4514 77.7708 34.761 78.2818 35.6268H80.6009C79.9672 33.7865 78.3436 32.5641 76.3633 32.5641C73.8577 32.5641 71.8468 34.5592 71.8468 37.0188C71.8468 39.4933 73.8731 41.5349 76.3633 41.5349C76.9985 41.5316 77.6261 41.3966 78.2064 41.1383C78.7867 40.88 79.3071 40.5042 79.7347 40.0345C80.1681 39.5552 80.3229 39.2767 80.6009 38.5193H78.2818C77.8014 39.2613 77.1835 39.6477 76.4103 39.6477C74.9713 39.6477 73.9047 38.5341 73.9047 37.049C73.9047 35.5496 74.9253 34.4514 76.2867 34.4514ZM24.8767 37.9934L23.4199 32.7659H21.7647L20.2921 37.9934L18.5506 32.7659H16.7357L19.5965 41.3341H20.9143L22.5849 35.7821L24.2085 41.3341H25.5915L28.3349 32.7659H26.6341L24.8767 37.9934ZM35.8978 32.5732C34.8926 32.5732 33.9521 32.9692 33.3025 33.6647V29.8974H31.2451V41.3269H33.1319V40.2292C33.9209 41.126 34.756 41.3792 35.8542 41.3792C38.3445 41.3792 40.0242 39.2853 40.0242 36.9498C40.0247 34.4753 38.1254 32.5732 35.8978 32.5732ZM35.6078 39.6151C34.9199 39.6151 34.2602 39.3418 33.7738 38.8554C33.2874 38.369 33.0142 37.7094 33.0142 37.0215C33.0142 36.3336 33.2874 35.6739 33.7738 35.1875C34.2602 34.7011 34.9199 34.4279 35.6078 34.4279C36.2957 34.4279 36.9553 34.7011 37.4417 35.1875C37.9281 35.6739 38.2014 36.3336 38.2014 37.0215C38.2014 37.7094 37.9281 38.369 37.4417 38.8554C36.9553 39.3418 36.2957 39.6151 35.6078 39.6151ZM47.428 32.9773V33.6719C46.7784 32.9759 45.8384 32.5799 44.8327 32.5799C42.6055 32.5799 40.7058 34.4821 40.7058 36.957C40.7058 39.292 42.386 41.3863 44.8758 41.3863C45.974 41.3863 46.8091 41.1328 47.5981 40.2359V41.3341H49.4849V32.9773H47.428ZM45.1232 39.6151C44.4353 39.6151 43.7756 39.3418 43.2892 38.8554C42.8028 38.369 42.5296 37.7094 42.5296 37.0215C42.5296 36.3336 42.8028 35.6739 43.2892 35.1875C43.7756 34.7011 44.4353 34.4279 45.1232 34.4279C45.811 34.4279 46.4707 34.7011 46.9571 35.1875C47.4435 35.6739 47.7168 36.3336 47.7168 37.0215C47.7168 37.7094 47.4435 38.369 46.9571 38.8554C46.4707 39.3418 45.811 39.6151 45.1232 39.6151Z" fill="url(#paint1_linear_1_110)"/>
<defs>
<linearGradient id="paint0_linear_1_110" x1="34.147" y1="0.0187988" x2="34.147" y2="28.1028" gradientUnits="userSpaceOnUse">
<stop stop-color="#E8F2F9"/>
<stop offset="1" stop-color="#A7B1B7"/>
</linearGradient>
<linearGradient id="paint1_linear_1_110" x1="44.9597" y1="0.0881348" x2="44.9597" y2="41.5355" gradientUnits="userSpaceOnUse">
<stop stop-color="#E8F2F9"/>
<stop offset="1" stop-color="#A7B1B7"/>
</linearGradient>
</defs>
</svg>
