<svg width="91" height="42" viewBox="0 0 91 42" fill="none" xmlns="http://www.w3.org/2000/svg">
<path fill-rule="evenodd" clip-rule="evenodd" d="M37.9646 19.0309L27.6535 19.3981L37.444 19.9421L37.9646 19.0309ZM36.7312 21.1976L26.3956 21.5653L36.2226 22.1113L36.7312 21.1976ZM35.4978 23.3825L25.1752 23.7449L34.9902 24.2905L35.4978 23.3825ZM34.2898 25.5565L23.9542 25.9246L33.7577 26.4692L34.2898 25.5565ZM46.9244 8.09417L33.7639 8.56251L46.9618 9.29594L46.9244 8.09417ZM46.841 5.94374L35.0184 6.35839L46.8784 7.03861L46.841 5.94374ZM46.7566 3.86953L36.2231 4.21611L46.8074 4.80381L46.7566 3.86953ZM46.6857 1.7402L37.4526 2.04891L46.7221 2.59634L46.6857 1.7402ZM46.6258 0.0187988H38.5955L46.6378 0.445433L46.6258 0.0187988ZM33.0444 27.7294L22.7338 28.1028H32.834L33.0444 27.7294Z" fill="url(#paint0_linear_1_137)"/>
<path fill-rule="evenodd" clip-rule="evenodd" d="M67.9869 0.0881348H53.1276L52.7062 0.834026L60.1421 1.22854C60.2294 1.22854 60.2294 1.35222 60.1047 1.35222L52.2729 1.61395L51.5174 2.93604L58.9025 3.37226C59.0017 3.38472 58.9773 3.52086 58.8905 3.52086L51.0457 3.77876L50.3156 5.04476L57.6887 5.45414C57.8498 5.4666 57.8498 5.60322 57.6887 5.60322L49.8569 5.8779L49.1134 7.2019L56.462 7.62327C56.6231 7.63573 56.6111 7.78433 56.462 7.78433L48.6302 8.06332L47.8737 9.37103L55.2344 9.77992C55.3456 9.79239 55.359 9.92901 55.2099 9.92901L32.6429 10.685L54.0575 11.8747C54.1932 11.8747 54.1812 12.0483 54.0321 12.0483L31.4287 12.8541L52.8433 14.0434C52.9425 14.0434 52.967 14.2045 52.8179 14.2045L30.177 15.0223L51.5917 16.212C51.6789 16.2245 51.7647 16.3856 51.5797 16.398L28.9748 17.2024L50.389 18.3917C50.4508 18.4042 50.5126 18.5652 50.3645 18.5652L38.9878 18.9708L39.0252 19.9976L49.1623 20.5608C49.2361 20.5733 49.2735 20.7219 49.1369 20.7219L39.0625 21.08L39.1119 22.2285L47.9111 22.7175C47.9974 22.73 48.0348 22.9035 47.8857 22.9035L39.1613 23.2098L39.1992 24.47L46.6969 24.8866C46.7832 24.8986 46.8081 25.0597 46.6595 25.0597L39.2365 25.3248L39.2859 26.7111L45.4822 27.0553C45.5694 27.0677 45.5694 27.2168 45.4453 27.2168L39.3109 27.4388L39.3358 28.0346H59.3377C64.6414 28.0346 69.3996 24.168 70.2922 21.0944C71.1852 18.0212 71.1852 15.2452 66.9218 13.8574C69.3018 13.3119 73.4402 10.6279 74.2584 6.91716C75.0005 3.54579 73.7618 0.100598 67.9869 0.0881348ZM57.926 21.6116H51.7796L55.2492 15.4647H59.8099C64.5192 15.4647 62.2384 21.6116 57.926 21.6116ZM65.8815 8.42476C65.6831 9.16826 64.1951 11.0522 62.3127 11.0522H57.752L60.6761 5.89707H63.0063C65.9798 5.9963 66.079 7.68175 65.8815 8.42476ZM90.5022 36.9417C90.5022 34.5597 88.5219 32.5646 86.14 32.5646C83.6962 32.5646 81.701 34.5914 81.701 37.0812C81.6986 37.6668 81.8121 38.2472 82.0351 38.7888C82.2581 39.3303 82.5862 39.8224 83.0003 40.2365C83.4145 40.6506 83.9066 40.9786 84.4481 41.2015C84.9897 41.4245 85.5701 41.538 86.1558 41.5354C87.9644 41.5354 89.6815 40.2982 90.192 38.6123H87.9337C87.4851 39.3236 86.8983 39.6482 86.093 39.6482C85.0724 39.6482 84.1607 38.9521 83.8663 37.9622H90.3929C90.471 37.4834 90.5022 37.2509 90.5022 36.9417ZM83.805 36.3453C84.0988 35.1853 85.0269 34.4427 86.1711 34.4427C87.3163 34.4427 88.2132 35.1699 88.4912 36.3453H83.805ZM61.1814 32.9773V33.6719C60.5323 32.9759 59.5918 32.5799 58.5861 32.5799C56.359 32.5799 54.4602 34.4821 54.4602 36.957C54.4602 39.292 56.1399 41.3863 58.6302 41.3863C59.7284 41.3863 60.5635 41.1328 61.352 40.2359V41.3341H63.2398V32.9773H61.1814ZM58.8761 39.6151C58.1882 39.6151 57.5285 39.3418 57.0422 38.8554C56.5558 38.369 56.2825 37.7094 56.2825 37.0215C56.2825 36.3336 56.5558 35.6739 57.0422 35.1875C57.5285 34.7011 58.1882 34.4279 58.8761 34.4279C59.564 34.4279 60.2237 34.7011 60.7101 35.1875C61.1965 35.6739 61.4697 36.3336 61.4697 37.0215C61.4697 37.7094 61.1965 38.369 60.7101 38.8554C60.2237 39.3418 59.564 39.6151 58.8761 39.6151ZM4.93323 32.5641C4.08284 32.5641 3.4333 32.858 2.72144 33.5852V32.7654H0.818848V41.3341H2.87628V37.2969C2.87628 36.1991 2.9688 34.4509 4.48455 34.4509C5.9073 34.4509 6.06214 36.0903 6.06214 37.142V41.3336H8.11909V36.7399C8.11909 35.5333 8.02657 34.9614 7.70156 34.2807C7.2222 33.2602 6.09329 32.5641 4.93323 32.5641ZM17.715 36.9417C17.715 34.5597 15.7352 32.5646 13.3533 32.5646C10.9095 32.5646 8.91435 34.5914 8.91435 37.0812C8.91194 37.6668 9.02551 38.2471 9.24851 38.7886C9.4715 39.3301 9.79951 39.8221 10.2136 40.2362C10.6277 40.6503 11.1197 40.9783 11.6612 41.2013C12.2027 41.4243 12.783 41.5378 13.3686 41.5354C15.1782 41.5354 16.8948 40.2982 17.4053 38.6123H15.1475C14.6988 39.3236 14.1111 39.6482 13.3068 39.6482C12.2862 39.6482 11.3735 38.9521 11.0796 37.9622H17.6062C17.6843 37.4834 17.715 37.2509 17.715 36.9417ZM11.0183 36.3453C11.3121 35.1853 12.2402 34.4427 13.3849 34.4427C14.5296 34.4427 15.4265 35.1699 15.705 36.3453H11.0183ZM51.5605 41.3269H53.6175V29.8969H51.5605V41.3269ZM68.6666 32.5641C67.8158 32.5641 67.1658 32.858 66.4544 33.5852V32.7654H64.5518V41.3341H66.6097V37.2969C66.6097 36.1991 66.7022 34.4509 68.218 34.4509C69.6402 34.4509 69.7955 36.0903 69.7955 37.142V41.3336H71.8525V36.7399C71.8525 35.5333 71.76 34.9614 71.435 34.2807C70.9556 33.2602 69.8267 32.5641 68.6666 32.5641ZM76.9875 34.4514C77.9304 34.4514 78.4716 34.761 78.9826 35.6268H81.3017C80.668 33.7865 79.0444 32.5641 77.0642 32.5641C74.5585 32.5641 72.5476 34.5592 72.5476 37.0188C72.5476 39.4933 74.5739 41.5349 77.0642 41.5349C77.6993 41.5316 78.3269 41.3966 78.9072 41.1383C79.4875 40.88 80.0079 40.5042 80.4355 40.0345C80.8689 39.5552 81.0237 39.2767 81.3017 38.5193H78.9826C78.5023 39.2613 77.8843 39.6477 77.1111 39.6477C75.6721 39.6477 74.6055 38.5341 74.6055 37.049C74.6055 35.5496 75.6261 34.4514 76.9875 34.4514ZM25.5775 37.9934L24.1208 32.7659H22.4655L20.9929 37.9934L19.2514 32.7659H17.4365L20.2973 41.3341H21.6151L23.2857 35.7821L24.9093 41.3341H26.2923L29.0357 32.7659H27.3349L25.5775 37.9934ZM36.5986 32.5732C35.5934 32.5732 34.6529 32.9692 34.0033 33.6647V29.8974H31.9459V41.3269H33.8327V40.2292C34.6217 41.126 35.4568 41.3792 36.555 41.3792C39.0453 41.3792 40.725 39.2853 40.725 36.9498C40.7255 34.4753 38.8262 32.5732 36.5986 32.5732ZM36.3086 39.6151C35.6207 39.6151 34.961 39.3418 34.4746 38.8554C33.9882 38.369 33.715 37.7094 33.715 37.0215C33.715 36.3336 33.9882 35.6739 34.4746 35.1875C34.961 34.7011 35.6207 34.4279 36.3086 34.4279C36.9965 34.4279 37.6562 34.7011 38.1425 35.1875C38.6289 35.6739 38.9022 36.3336 38.9022 37.0215C38.9022 37.7094 38.6289 38.369 38.1425 38.8554C37.6562 39.3418 36.9965 39.6151 36.3086 39.6151ZM48.1288 32.9773V33.6719C47.4792 32.9759 46.5392 32.5799 45.5335 32.5799C43.3064 32.5799 41.4066 34.4821 41.4066 36.957C41.4066 39.292 43.0868 41.3863 45.5766 41.3863C46.6748 41.3863 47.5099 41.1328 48.2989 40.2359V41.3341H50.1857V32.9773H48.1288ZM45.824 39.6151C45.1361 39.6151 44.4764 39.3418 43.99 38.8554C43.5036 38.369 43.2304 37.7094 43.2304 37.0215C43.2304 36.3336 43.5036 35.6739 43.99 35.1875C44.4764 34.7011 45.1361 34.4279 45.824 34.4279C46.5118 34.4279 47.1715 34.7011 47.6579 35.1875C48.1443 35.6739 48.4176 36.3336 48.4176 37.0215C48.4176 37.7094 48.1443 38.369 47.6579 38.8554C47.1715 39.3418 46.5118 39.6151 45.824 39.6151Z" fill="url(#paint1_linear_1_137)"/>
<defs>
<linearGradient id="paint0_linear_1_137" x1="34.8478" y1="0.0187988" x2="34.8478" y2="28.1028" gradientUnits="userSpaceOnUse">
<stop stop-color="#E8F2F9"/>
<stop offset="1" stop-color="#A7B1B7"/>
</linearGradient>
<linearGradient id="paint1_linear_1_137" x1="45.6605" y1="0.0881348" x2="45.6605" y2="41.5355" gradientUnits="userSpaceOnUse">
<stop stop-color="#E8F2F9"/>
<stop offset="1" stop-color="#A7B1B7"/>
</linearGradient>
</defs>
</svg>
