<svg width="105" height="105" viewBox="0 0 105 105" fill="none" xmlns="http://www.w3.org/2000/svg">
<path d="M48.9791 0.662354C49.9673 0.662354 50.7683 1.4634 50.7683 2.45151C50.7683 3.43968 49.9673 4.24067 48.9791 4.24067C47.991 4.24067 47.1899 3.43968 47.1899 2.45151C47.1899 1.4634 47.991 0.662354 48.9791 0.662354Z" fill="black"/>
<path d="M68.6658 2.45151C68.6658 2.8685 68.6658 4.24067 68.6658 4.24067C68.6658 4.24067 67.4478 4.24067 66.8767 4.24059C66.4307 4.24067 65.0875 4.24059 65.0875 4.24059C65.0875 4.24059 65.0875 2.99361 65.0875 2.45147C65.0876 1.4634 65.8886 0.662354 66.8766 0.662354C67.8648 0.662354 68.6658 1.4634 68.6658 2.45151Z" fill="black"/>
<path d="M29.2791 7.82783H32.8574V4.24951C30.8811 4.24952 29.2791 5.85155 29.2791 7.82783Z" fill="black"/>
<path d="M32.8721 4.24951V7.82783H36.4504C36.4504 5.85155 34.8483 4.24951 32.8721 4.24951Z" fill="black"/>
<path d="M41.8121 4.24731C42.2291 4.24731 43.6013 4.24731 43.6013 4.24731C43.6013 4.24731 43.6013 5.46525 43.6013 6.03647C43.6013 6.48237 43.6013 7.82563 43.6013 7.82563C43.6013 7.82563 42.3544 7.82563 41.8121 7.82563C40.8236 7.82563 40.0229 7.02424 40.0229 6.03647C40.0229 5.04859 40.8236 4.24731 41.8121 4.24731Z" fill="black"/>
<path d="M45.3874 7.82563C44.9704 7.82563 43.5983 7.82563 43.5983 7.82563C43.5983 7.82563 43.5983 6.60752 43.5983 6.03647C43.5983 5.59044 43.5983 4.24731 43.5983 4.24731C43.5983 4.24731 44.8454 4.24731 45.3874 4.24731C46.3755 4.24731 47.1766 5.04835 47.1766 6.03647C47.1766 7.02455 46.3755 7.82563 45.3874 7.82563Z" fill="black"/>
<path d="M61.4891 6.03647C61.4891 6.45346 61.4891 7.82563 61.4891 7.82563C61.4891 7.82563 60.2711 7.82563 59.6999 7.82555C59.2539 7.82563 57.9108 7.82555 57.9108 7.82555C57.9108 7.82555 57.9108 6.57857 57.9108 6.03643C57.9108 5.04836 58.7118 4.24731 59.6999 4.24731C60.688 4.24731 61.4891 5.04836 61.4891 6.03647Z" fill="black"/>
<path d="M68.6658 4.24731H65.0875V7.82563H68.6658V4.24731Z" fill="black"/>
<path d="M74.0184 4.24731C75.0066 4.24731 75.8076 5.04836 75.8076 6.03647C75.8076 7.02464 75.0066 7.82563 74.0184 7.82563C73.0303 7.82563 72.2292 7.02464 72.2292 6.03647C72.2292 5.04836 73.0303 4.24731 74.0184 4.24731Z" fill="black"/>
<path d="M32.8647 7.81689H29.2864V11.3952H32.8647V7.81689Z" fill="black"/>
<path d="M36.4504 7.81738H32.8721V11.3957C34.8483 11.3957 36.4504 9.79363 36.4504 7.81738Z" fill="black"/>
<path d="M56.1277 7.81689C56.5447 7.81689 57.9168 7.81689 57.9168 7.81689C57.9168 7.81689 57.9168 9.03483 57.9168 9.60605C57.9168 10.0519 57.9168 11.3952 57.9168 11.3952C57.9168 11.3952 56.67 11.3952 56.1277 11.3952C55.1392 11.3952 54.3385 10.5938 54.3385 9.60605C54.3385 8.61817 55.1392 7.81689 56.1277 7.81689Z" fill="black"/>
<path d="M61.482 7.81738H57.9037V11.3957C59.8799 11.3957 61.482 9.79363 61.482 7.81738Z" fill="black"/>
<path d="M68.6442 11.3957V7.81738H65.0659C65.0659 9.79363 66.668 11.3957 68.6442 11.3957Z" fill="black"/>
<path d="M70.4459 11.3952C70.0289 11.3952 68.6567 11.3952 68.6567 11.3952C68.6567 11.3952 68.6567 10.1771 68.6567 9.60605C68.6567 9.16002 68.6567 7.81689 68.6567 7.81689C68.6567 7.81689 69.9039 7.81689 70.4459 7.81689C71.434 7.81689 72.2351 8.61793 72.2351 9.60605C72.2351 10.5941 71.434 11.3952 70.4459 11.3952Z" fill="black"/>
<path d="M29.2864 13.1878C29.2864 12.7708 29.2864 11.3987 29.2864 11.3987C29.2864 11.3987 30.5044 11.3987 31.0755 11.3987C31.5216 11.3987 32.8647 11.3987 32.8647 11.3987C32.8647 11.3987 32.8647 12.6458 32.8647 13.1878C32.8647 14.1759 32.0636 14.977 31.0755 14.977C30.0874 14.977 29.2864 14.1759 29.2864 13.1878Z" fill="black"/>
<path d="M40.0321 13.1878C40.0321 13.6048 40.0321 14.977 40.0321 14.977C40.0321 14.977 38.814 14.977 38.2429 14.9769C37.7969 14.977 36.4537 14.9769 36.4537 14.9769C36.4537 14.9769 36.4537 13.7299 36.4537 13.1878C36.4538 12.1997 37.2548 11.3987 38.2429 11.3987C39.231 11.3987 40.0321 12.1997 40.0321 13.1878Z" fill="black"/>
<path d="M48.9791 11.3987C49.9673 11.3987 50.7683 12.1997 50.7683 13.1878C50.7683 14.176 49.9673 14.977 48.9791 14.977C47.991 14.977 47.1899 14.176 47.1899 13.1878C47.1899 12.1997 47.991 11.3987 48.9791 11.3987Z" fill="black"/>
<path d="M63.2879 11.3987C64.2761 11.3987 65.0771 12.1997 65.0771 13.1878C65.0771 14.176 64.2761 14.977 63.2879 14.977C62.2998 14.977 61.4988 14.176 61.4988 13.1878C61.4988 12.1997 62.2998 11.3987 63.2879 11.3987Z" fill="black"/>
<path d="M75.8076 13.1878C75.8076 13.6048 75.8076 14.977 75.8076 14.977C75.8076 14.977 74.5895 14.977 74.0184 14.9769C73.5724 14.977 72.2292 14.9769 72.2292 14.9769C72.2292 14.9769 72.2292 13.7299 72.2292 13.1878C72.2293 12.1997 73.0303 11.3987 74.0184 11.3987C75.0065 11.3987 75.8076 12.1997 75.8076 13.1878Z" fill="black"/>
<path d="M34.6609 14.9709C35.0779 14.9709 36.45 14.9709 36.45 14.9709C36.45 14.9709 36.45 16.1889 36.45 16.7601C36.45 17.206 36.45 18.5493 36.45 18.5493C36.45 18.5493 35.2032 18.5493 34.6609 18.5493C33.6724 18.5493 32.8717 17.7479 32.8717 16.7601C32.8717 15.7722 33.6724 14.9709 34.6609 14.9709Z" fill="black"/>
<path d="M40.0321 14.9683H36.4537V18.5466C38.43 18.5466 40.0321 16.9445 40.0321 14.9683Z" fill="black"/>
<path d="M45.3874 14.9714C46.3756 14.9714 47.1766 15.7725 47.1766 16.7606C47.1766 17.7488 46.3756 18.5498 45.3874 18.5498C44.3993 18.5498 43.5983 17.7488 43.5983 16.7606C43.5983 15.7725 44.3993 14.9714 45.3874 14.9714Z" fill="black"/>
<path d="M52.5548 14.9709C53.543 14.9709 54.3439 15.772 54.3439 16.7601C54.3439 17.7483 53.543 18.5493 52.5548 18.5493C51.5667 18.5493 50.7656 17.7483 50.7656 16.7601C50.7656 15.772 51.5667 14.9709 52.5548 14.9709Z" fill="black"/>
<path d="M61.4891 16.7601C61.4891 17.1771 61.4891 18.5493 61.4891 18.5493C61.4891 18.5493 60.2711 18.5493 59.6999 18.5492C59.2539 18.5493 57.9108 18.5492 57.9108 18.5492C57.9108 18.5492 57.9108 17.3022 57.9108 16.7601C57.9108 15.772 58.7118 14.9709 59.6999 14.9709C60.688 14.9709 61.4891 15.772 61.4891 16.7601Z" fill="black"/>
<path d="M66.8767 14.9709C67.2937 14.9709 68.6658 14.9709 68.6658 14.9709C68.6658 14.9709 68.6658 16.1889 68.6658 16.7601C68.6658 17.206 68.6658 18.5493 68.6658 18.5493C68.6658 18.5493 67.419 18.5493 66.8767 18.5493C65.8882 18.5493 65.0875 17.7479 65.0875 16.7601C65.0875 15.7722 65.8882 14.9709 66.8767 14.9709Z" fill="black"/>
<path d="M72.2351 14.9709H68.6567V18.5493H72.2351V14.9709Z" fill="black"/>
<path d="M75.8079 14.9683H72.2296V18.5466C74.2059 18.5466 75.8079 16.9445 75.8079 14.9683Z" fill="black"/>
<path d="M41.8121 18.5652C42.8003 18.5652 43.6013 19.3662 43.6013 20.3543C43.6013 21.3425 42.8003 22.1435 41.8121 22.1435C40.824 22.1435 40.0229 21.3425 40.0229 20.3543C40.0229 19.3662 40.824 18.5652 41.8121 18.5652Z" fill="black"/>
<path d="M48.9791 18.5652C49.9673 18.5652 50.7683 19.3662 50.7683 20.3543C50.7683 21.3425 49.9673 22.1435 48.9791 22.1435C47.991 22.1435 47.1899 21.3425 47.1899 20.3543C47.1899 19.3662 47.991 18.5652 48.9791 18.5652Z" fill="black"/>
<path d="M61.4891 18.5652H57.9108V22.1435H61.4891V18.5652Z" fill="black"/>
<path d="M32.8647 23.9247C32.8647 24.3416 32.8647 25.7138 32.8647 25.7138C32.8647 25.7138 31.6467 25.7138 31.0755 25.7137C30.6295 25.7138 29.2864 25.7137 29.2864 25.7137C29.2864 25.7137 29.2864 24.4668 29.2864 23.9246C29.2864 22.9365 30.0874 22.1355 31.0755 22.1355C32.0636 22.1355 32.8647 22.9365 32.8647 23.9247Z" fill="black"/>
<path d="M40.0321 23.9247C40.0321 24.3416 40.0321 25.7138 40.0321 25.7138C40.0321 25.7138 38.814 25.7138 38.2429 25.7137C37.7969 25.7138 36.4537 25.7137 36.4537 25.7137C36.4537 25.7137 36.4537 24.4668 36.4537 23.9246C36.4538 22.9365 37.2548 22.1355 38.2429 22.1355C39.231 22.1355 40.0321 22.9365 40.0321 23.9247Z" fill="black"/>
<path d="M45.3874 22.1355C46.3756 22.1355 47.1766 22.9365 47.1766 23.9247C47.1766 24.9128 46.3756 25.7138 45.3874 25.7138C44.3993 25.7138 43.5983 24.9128 43.5983 23.9247C43.5983 22.9365 44.3993 22.1355 45.3874 22.1355Z" fill="black"/>
<path d="M54.3439 23.9247C54.3439 24.3416 54.3439 25.7138 54.3439 25.7138C54.3439 25.7138 53.1259 25.7138 52.5548 25.7137C52.1088 25.7138 50.7656 25.7137 50.7656 25.7137C50.7656 25.7137 50.7656 24.4668 50.7656 23.9246C50.7657 22.9365 51.5667 22.1355 52.5547 22.1355C53.5429 22.1355 54.3439 22.9365 54.3439 23.9247Z" fill="black"/>
<path d="M61.4891 22.1355H57.9108V25.7138H61.4891V22.1355Z" fill="black"/>
<path d="M66.8767 22.1355C67.8649 22.1355 68.6658 22.9365 68.6658 23.9247C68.6658 24.9128 67.8649 25.7138 66.8767 25.7138C65.8886 25.7138 65.0875 24.9128 65.0875 23.9247C65.0875 22.9365 65.8886 22.1355 66.8767 22.1355Z" fill="black"/>
<path d="M74.0184 22.1355C75.0066 22.1355 75.8076 22.9365 75.8076 23.9247C75.8076 24.9128 75.0066 25.7138 74.0184 25.7138C73.0303 25.7138 72.2292 24.9128 72.2292 23.9247C72.2292 22.9365 73.0303 22.1355 74.0184 22.1355Z" fill="black"/>
<path d="M32.8647 25.72H29.2864V29.2983H32.8647V25.72Z" fill="black"/>
<path d="M40.0321 25.72H36.4537V29.2983H40.0321V25.72Z" fill="black"/>
<path d="M41.8121 29.2983C41.3951 29.2983 40.0229 29.2983 40.0229 29.2983C40.0229 29.2983 40.0229 28.0802 40.0229 27.5091C40.0229 27.0631 40.0229 25.72 40.0229 25.72C40.0229 25.72 41.2701 25.72 41.8121 25.72C42.8002 25.72 43.6013 26.521 43.6013 27.5091C43.6013 28.4972 42.8002 29.2983 41.8121 29.2983Z" fill="black"/>
<path d="M54.3395 29.2961V25.7178H50.7612C50.7612 27.694 52.3633 29.2961 54.3395 29.2961Z" fill="black"/>
<path d="M57.9168 25.72H54.3385V29.2983H57.9168V25.72Z" fill="black"/>
<path d="M61.482 25.7178H57.9037V29.2961C59.8799 29.2961 61.482 27.694 61.482 25.7178Z" fill="black"/>
<path d="M2.44858 29.2893C3.43675 29.2893 4.23774 30.0903 4.23774 31.0785C4.23774 32.0666 3.43675 32.8676 2.44858 32.8676C1.46047 32.8676 0.659424 32.0666 0.659424 31.0785C0.659424 30.0903 1.46047 29.2893 2.44858 29.2893Z" fill="black"/>
<path d="M23.921 29.2893C24.9092 29.2893 25.7102 30.0903 25.7102 31.0785C25.7102 32.0666 24.9092 32.8676 23.921 32.8676C22.9329 32.8676 22.1318 32.0666 22.1318 31.0785C22.1318 30.0903 22.9329 29.2893 23.921 29.2893Z" fill="black"/>
<path d="M32.8574 32.8666V29.2883H29.2791C29.2791 31.2646 30.8811 32.8666 32.8574 32.8666Z" fill="black"/>
<path d="M36.45 29.2893H32.8717V32.8676H36.45V29.2893Z" fill="black"/>
<path d="M40.0321 29.2883H36.4537V32.8666C38.43 32.8666 40.0321 31.2646 40.0321 29.2883Z" fill="black"/>
<path d="M63.2879 29.2893C64.2761 29.2893 65.0771 30.0903 65.0771 31.0785C65.0771 32.0666 64.2761 32.8676 63.2879 32.8676C62.2998 32.8676 61.4988 32.0666 61.4988 31.0785C61.4988 30.0903 62.2998 29.2893 63.2879 29.2893Z" fill="black"/>
<path d="M68.6516 32.8666H72.2299V29.2883C70.2537 29.2883 68.6516 30.8904 68.6516 32.8666Z" fill="black"/>
<path d="M75.8076 29.2893H72.2292V32.8676H75.8076V29.2893Z" fill="black"/>
<path d="M79.3923 29.2893H75.814V32.8676H79.3923V29.2893Z" fill="black"/>
<path d="M81.1733 32.8676C80.7563 32.8676 79.3842 32.8676 79.3842 32.8676C79.3842 32.8676 79.3842 31.6495 79.3842 31.0785C79.3842 30.6324 79.3842 29.2893 79.3842 29.2893C79.3842 29.2893 80.6313 29.2893 81.1733 29.2893C82.1614 29.2893 82.9625 30.0903 82.9625 31.0785C82.9625 32.0665 82.1614 32.8676 81.1733 32.8676Z" fill="black"/>
<path d="M91.9126 29.29C92.3296 29.29 93.7017 29.29 93.7017 29.29C93.7017 29.29 93.7017 30.508 93.7017 31.0792C93.7017 31.5251 93.7017 32.8684 93.7017 32.8684C93.7017 32.8684 92.4549 32.8684 91.9126 32.8684C90.9241 32.8684 90.1234 32.067 90.1234 31.0792C90.1234 30.0913 90.9241 29.29 91.9126 29.29Z" fill="black"/>
<path d="M97.2834 29.2893H93.7051V32.8676H97.2834V29.2893Z" fill="black"/>
<path d="M97.2777 29.2883V32.8666H100.856C100.856 30.8904 99.254 29.2883 97.2777 29.2883Z" fill="black"/>
<path d="M6.03293 32.8745C7.0211 32.8745 7.82209 33.6756 7.82209 34.6637C7.82209 35.6518 7.0211 36.4528 6.03293 36.4528C5.04482 36.4528 4.24377 35.6518 4.24377 34.6637C4.24377 33.6756 5.04482 32.8745 6.03293 32.8745Z" fill="black"/>
<path d="M20.3451 32.8745C21.3332 32.8745 22.1342 33.6756 22.1342 34.6637C22.1342 35.6518 21.3332 36.4528 20.3451 36.4528C19.357 36.4528 18.5559 35.6518 18.5559 34.6637C18.5559 33.6756 19.357 32.8745 20.3451 32.8745Z" fill="black"/>
<path d="M41.8121 32.8745C42.2291 32.8745 43.6013 32.8745 43.6013 32.8745C43.6013 32.8745 43.6013 34.0924 43.6013 34.6637C43.6013 35.1096 43.6013 36.4528 43.6013 36.4528C43.6013 36.4528 42.3544 36.4528 41.8121 36.4528C40.8236 36.4528 40.0229 35.6514 40.0229 34.6637C40.0229 33.6758 40.8236 32.8745 41.8121 32.8745Z" fill="black"/>
<path d="M47.1766 32.8745H43.5983V36.4528H47.1766V32.8745Z" fill="black"/>
<path d="M50.7683 32.8745H47.1899V36.4528H50.7683V32.8745Z" fill="black"/>
<path d="M54.3439 32.8745H50.7656V36.4528H54.3439V32.8745Z" fill="black"/>
<path d="M54.3345 32.8745V36.4528H57.9128C57.9128 34.4765 56.3107 32.8745 54.3345 32.8745Z" fill="black"/>
<path d="M65.0659 36.4528H68.6442V32.8745C66.668 32.8745 65.0659 34.4766 65.0659 36.4528Z" fill="black"/>
<path d="M72.2299 32.8745H68.6516V36.4528C70.6279 36.4528 72.2299 34.8508 72.2299 32.8745Z" fill="black"/>
<path d="M82.9716 36.4528H86.5499V32.8745C84.5736 32.8745 82.9716 34.4766 82.9716 36.4528Z" fill="black"/>
<path d="M88.3307 36.4528C87.9136 36.4528 86.5415 36.4528 86.5415 36.4528C86.5415 36.4528 86.5415 35.2347 86.5415 34.6637C86.5415 34.2176 86.5415 32.8745 86.5415 32.8745C86.5415 32.8745 87.7886 32.8745 88.3307 32.8745C89.3187 32.8745 90.1198 33.6755 90.1198 34.6637C90.1198 35.6517 89.3187 36.4528 88.3307 36.4528Z" fill="black"/>
<path d="M97.2817 36.4528V32.8745H93.7034C93.7034 34.8508 95.3054 36.4528 97.2817 36.4528Z" fill="black"/>
<path d="M100.856 32.8745H97.2777V36.4528C99.254 36.4528 100.856 34.8508 100.856 32.8745Z" fill="black"/>
<path d="M4.23774 38.2489C4.23774 38.6659 4.23774 40.038 4.23774 40.038C4.23774 40.038 3.01973 40.038 2.44858 40.0379C2.00255 40.038 0.659424 40.0379 0.659424 40.0379C0.659424 40.0379 0.659424 38.791 0.659424 38.2488C0.659467 37.2608 1.46046 36.4597 2.44854 36.4597C3.43666 36.4597 4.23774 37.2608 4.23774 38.2489Z" fill="black"/>
<path d="M11.395 38.2489C11.395 38.6659 11.395 40.038 11.395 40.038C11.395 40.038 10.177 40.038 9.60581 40.0379C9.15978 40.038 7.81665 40.0379 7.81665 40.0379C7.81665 40.0379 7.81665 38.791 7.81665 38.2488C7.81669 37.2608 8.61769 36.4597 9.60577 36.4597C10.5939 36.4597 11.395 37.2608 11.395 38.2489Z" fill="black"/>
<path d="M16.763 36.4597C17.7512 36.4597 18.5522 37.2608 18.5522 38.2489C18.5522 39.237 17.7512 40.038 16.763 40.038C15.7749 40.038 14.9739 39.237 14.9739 38.2489C14.9739 37.2608 15.7749 36.4597 16.763 36.4597Z" fill="black"/>
<path d="M23.921 36.4597C24.338 36.4597 25.7102 36.4597 25.7102 36.4597C25.7102 36.4597 25.7102 37.6776 25.7102 38.2489C25.7102 38.6948 25.7102 40.038 25.7102 40.038C25.7102 40.038 24.4633 40.038 23.921 40.038C22.9325 40.038 22.1318 39.2366 22.1318 38.2489C22.1318 37.261 22.9325 36.4597 23.921 36.4597Z" fill="black"/>
<path d="M27.503 40.038C27.086 40.038 25.7139 40.038 25.7139 40.038C25.7139 40.038 25.7139 38.8199 25.7139 38.2489C25.7139 37.8028 25.7139 36.4597 25.7139 36.4597C25.7139 36.4597 26.961 36.4597 27.503 36.4597C28.4911 36.4597 29.2922 37.2608 29.2922 38.2489C29.2922 39.2369 28.4911 40.038 27.503 40.038Z" fill="black"/>
<path d="M47.1766 36.4597H43.5983V40.038H47.1766V36.4597Z" fill="black"/>
<path d="M50.7683 36.4597H47.1899V40.038H50.7683V36.4597Z" fill="black"/>
<path d="M54.3439 36.4597H50.7656V40.038H54.3439V36.4597Z" fill="black"/>
<path d="M57.9168 36.4597H54.3385V40.038H57.9168V36.4597Z" fill="black"/>
<path d="M63.2879 36.4597C63.705 36.4597 65.0771 36.4597 65.0771 36.4597C65.0771 36.4597 65.0771 37.6776 65.0771 38.2489C65.0771 38.6948 65.0771 40.038 65.0771 40.038C65.0771 40.038 63.8303 40.038 63.2879 40.038C62.2995 40.038 61.4988 39.2366 61.4988 38.2489C61.4988 37.261 62.2995 36.4597 63.2879 36.4597Z" fill="black"/>
<path d="M68.6442 36.4561H65.0659V40.0344C67.0422 40.0344 68.6442 38.4323 68.6442 36.4561Z" fill="black"/>
<path d="M79.3845 40.0344H82.9628V36.4561C80.9866 36.4561 79.3845 38.0581 79.3845 40.0344Z" fill="black"/>
<path d="M86.5499 36.4561H82.9716V40.0344C84.9478 40.0344 86.5499 38.4323 86.5499 36.4561Z" fill="black"/>
<path d="M4.23872 43.6037V40.0254H0.6604C0.660408 42.0016 2.26243 43.6037 4.23872 43.6037Z" fill="black"/>
<path d="M7.82209 40.0259H4.24377V43.6042H7.82209V40.0259Z" fill="black"/>
<path d="M11.395 40.0259H7.81665V43.6042H11.395V40.0259Z" fill="black"/>
<path d="M20.3451 40.0259C21.3332 40.0259 22.1342 40.8269 22.1342 41.815C22.1342 42.8032 21.3332 43.6042 20.3451 43.6042C19.357 43.6042 18.5559 42.8032 18.5559 41.815C18.5559 40.8269 19.357 40.0259 20.3451 40.0259Z" fill="black"/>
<path d="M34.6609 40.0259C35.0779 40.0259 36.45 40.0259 36.45 40.0259C36.45 40.0259 36.45 41.2438 36.45 41.815C36.45 42.2609 36.45 43.6042 36.45 43.6042C36.45 43.6042 35.2032 43.6042 34.6609 43.6042C33.6724 43.6042 32.8717 42.8028 32.8717 41.815C32.8717 40.8272 33.6724 40.0259 34.6609 40.0259Z" fill="black"/>
<path d="M40.0321 40.0259H36.4537V43.6042H40.0321V40.0259Z" fill="black"/>
<path d="M43.6013 40.0259H40.0229V43.6042H43.6013V40.0259Z" fill="black"/>
<path d="M47.1766 40.0259H43.5983V43.6042H47.1766V40.0259Z" fill="black"/>
<path d="M50.7683 40.0259H47.1899V43.6042H50.7683V40.0259Z" fill="black"/>
<path d="M57.9168 40.0259H54.3385V43.6042H57.9168V40.0259Z" fill="black"/>
<path d="M74.0184 40.0259C74.4354 40.0259 75.8076 40.0259 75.8076 40.0259C75.8076 40.0259 75.8076 41.2438 75.8076 41.815C75.8076 42.2609 75.8076 43.6042 75.8076 43.6042C75.8076 43.6042 74.5607 43.6042 74.0184 43.6042C73.0299 43.6042 72.2292 42.8028 72.2292 41.815C72.2292 40.8272 73.0299 40.0259 74.0184 40.0259Z" fill="black"/>
<path d="M79.3923 40.0259H75.814V43.6042H79.3923V40.0259Z" fill="black"/>
<path d="M82.9625 40.0259H79.3842V43.6042H82.9625V40.0259Z" fill="black"/>
<path d="M88.3307 40.0259C88.7477 40.0259 90.1198 40.0259 90.1198 40.0259C90.1198 40.0259 90.1198 41.2438 90.1198 41.815C90.1198 42.2609 90.1198 43.6042 90.1198 43.6042C90.1198 43.6042 88.873 43.6042 88.3307 43.6042C87.3422 43.6042 86.5415 42.8028 86.5415 41.815C86.5415 40.8272 87.3422 40.0259 88.3307 40.0259Z" fill="black"/>
<path d="M91.9126 43.6042C91.4955 43.6042 90.1234 43.6042 90.1234 43.6042C90.1234 43.6042 90.1234 42.3861 90.1234 41.815C90.1234 41.369 90.1234 40.0259 90.1234 40.0259C90.1234 40.0259 91.3705 40.0259 91.9126 40.0259C92.9006 40.0259 93.7017 40.8269 93.7017 41.815C93.7017 42.8031 92.9006 43.6042 91.9126 43.6042Z" fill="black"/>
<path d="M11.395 43.5989H7.81665V47.1772H11.395V43.5989Z" fill="black"/>
<path d="M14.9803 43.5989H11.402V47.1772H14.9803V43.5989Z" fill="black"/>
<path d="M14.9675 43.5945V47.1728H18.5458C18.5458 45.1965 16.9438 43.5945 14.9675 43.5945Z" fill="black"/>
<path d="M23.921 43.5989C24.9092 43.5989 25.7102 44.3999 25.7102 45.388C25.7102 46.3762 24.9092 47.1772 23.921 47.1772C22.9329 47.1772 22.1318 46.3762 22.1318 45.388C22.1318 44.3999 22.9329 43.5989 23.921 43.5989Z" fill="black"/>
<path d="M31.0755 43.5989C32.0637 43.5989 32.8647 44.3999 32.8647 45.388C32.8647 46.3762 32.0637 47.1772 31.0755 47.1772C30.0874 47.1772 29.2864 46.3762 29.2864 45.388C29.2864 44.3999 30.0874 43.5989 31.0755 43.5989Z" fill="black"/>
<path d="M43.6013 43.5989H40.0229V47.1772H43.6013V43.5989Z" fill="black"/>
<path d="M47.1766 43.5989H43.5983V47.1772H47.1766V43.5989Z" fill="black"/>
<path d="M50.7703 43.5945H47.192V47.1728C49.1683 47.1728 50.7703 45.5707 50.7703 43.5945Z" fill="black"/>
<path d="M57.9168 43.5989H54.3385V47.1772H57.9168V43.5989Z" fill="black"/>
<path d="M72.2351 45.388C72.2351 45.805 72.2351 47.1772 72.2351 47.1772C72.2351 47.1772 71.017 47.1772 70.4459 47.1771C69.9999 47.1772 68.6567 47.1771 68.6567 47.1771C68.6567 47.1771 68.6567 45.9301 68.6567 45.388C68.6568 44.3999 69.4578 43.5989 70.4459 43.5989C71.434 43.5989 72.2351 44.3999 72.2351 45.388Z" fill="black"/>
<path d="M82.9625 43.5989H79.3842V47.1772H82.9625V43.5989Z" fill="black"/>
<path d="M82.9716 43.5945V47.1728H86.5499C86.5499 45.1965 84.9478 43.5945 82.9716 43.5945Z" fill="black"/>
<path d="M104.436 45.388C104.436 45.805 104.436 47.1772 104.436 47.1772C104.436 47.1772 103.218 47.1772 102.646 47.1771C102.2 47.1772 100.857 47.1771 100.857 47.1771C100.857 47.1771 100.857 45.9301 100.857 45.388C100.857 44.3999 101.658 43.5989 102.646 43.5989C103.635 43.5989 104.436 44.3999 104.436 45.388Z" fill="black"/>
<path d="M2.44858 47.1873C3.43675 47.1873 4.23774 47.9883 4.23774 48.9764C4.23774 49.9646 3.43675 50.7656 2.44858 50.7656C1.46047 50.7656 0.659424 49.9646 0.659424 48.9764C0.659424 47.9883 1.46047 47.1873 2.44858 47.1873Z" fill="black"/>
<path d="M7.81665 48.9764C7.81665 48.5594 7.81665 47.1873 7.81665 47.1873C7.81665 47.1873 9.03472 47.1873 9.60581 47.1873C10.0518 47.1873 11.395 47.1873 11.395 47.1873C11.395 47.1873 11.395 48.4344 11.395 48.9764C11.395 49.9645 10.5939 50.7656 9.60581 50.7656C8.61769 50.7656 7.81665 49.9645 7.81665 48.9764Z" fill="black"/>
<path d="M18.5522 47.1873H14.9739V50.7656H18.5522V47.1873Z" fill="black"/>
<path d="M29.2922 48.9764C29.2922 49.3934 29.2922 50.7656 29.2922 50.7656C29.2922 50.7656 28.0742 50.7656 27.503 50.7655C27.057 50.7656 25.7139 50.7655 25.7139 50.7655C25.7139 50.7655 25.7139 49.5185 25.7139 48.9764C25.7139 47.9883 26.5149 47.1873 27.503 47.1873C28.4911 47.1873 29.2922 47.9883 29.2922 48.9764Z" fill="black"/>
<path d="M36.4537 50.7658H40.0321V47.1875C38.0558 47.1875 36.4537 48.7895 36.4537 50.7658Z" fill="black"/>
<path d="M43.6013 47.1873H40.0229V50.7656H43.6013V47.1873Z" fill="black"/>
<path d="M47.1708 47.1875H43.5925V50.7658C45.5688 50.7658 47.1708 49.1637 47.1708 47.1875Z" fill="black"/>
<path d="M57.9168 47.1873H54.3385V50.7656H57.9168V47.1873Z" fill="black"/>
<path d="M61.4891 47.1873H57.9108V50.7656H61.4891V47.1873Z" fill="black"/>
<path d="M65.0771 47.1873H61.4988V50.7656H65.0771V47.1873Z" fill="black"/>
<path d="M68.6658 47.1873H65.0875V50.7656H68.6658V47.1873Z" fill="black"/>
<path d="M72.2351 47.1873H68.6567V50.7656H72.2351V47.1873Z" fill="black"/>
<path d="M72.2296 47.1875V50.7658H75.8079C75.8079 48.7895 74.2059 47.1875 72.2296 47.1875Z" fill="black"/>
<path d="M82.9625 47.1873H79.3842V50.7656H82.9625V47.1873Z" fill="black"/>
<path d="M86.5502 47.1873H82.9719V50.7656H86.5502V47.1873Z" fill="black"/>
<path d="M88.3307 50.7656C87.9136 50.7656 86.5415 50.7656 86.5415 50.7656C86.5415 50.7656 86.5415 49.5475 86.5415 48.9764C86.5415 48.5304 86.5415 47.1873 86.5415 47.1873C86.5415 47.1873 87.7886 47.1873 88.3307 47.1873C89.3187 47.1873 90.1198 47.9883 90.1198 48.9764C90.1198 49.9645 89.3187 50.7656 88.3307 50.7656Z" fill="black"/>
<path d="M99.0738 47.1873C99.4908 47.1873 100.863 47.1873 100.863 47.1873C100.863 47.1873 100.863 48.4052 100.863 48.9764C100.863 49.4223 100.863 50.7656 100.863 50.7656C100.863 50.7656 99.6162 50.7656 99.0738 50.7656C98.0854 50.7656 97.2847 49.9642 97.2847 48.9764C97.2847 47.9885 98.0854 47.1873 99.0738 47.1873Z" fill="black"/>
<path d="M104.436 47.1875H100.858V50.7658C102.834 50.7658 104.436 49.1637 104.436 47.1875Z" fill="black"/>
<path d="M7.82209 52.5584C7.82209 52.9754 7.82209 54.3476 7.82209 54.3476C7.82209 54.3476 6.60408 54.3476 6.03293 54.3475C5.5869 54.3476 4.24377 54.3475 4.24377 54.3475C4.24377 54.3475 4.24377 53.1005 4.24377 52.5584C4.24382 51.5703 5.04481 50.7693 6.03289 50.7693C7.02101 50.7693 7.82209 51.5703 7.82209 52.5584Z" fill="black"/>
<path d="M11.4114 54.3515H14.9897V50.7732C13.0135 50.7732 11.4114 52.3752 11.4114 54.3515Z" fill="black"/>
<path d="M18.5522 50.7693H14.9739V54.3476H18.5522V50.7693Z" fill="black"/>
<path d="M22.1342 50.7693H18.5559V54.3476H22.1342V50.7693Z" fill="black"/>
<path d="M25.7102 50.7693H22.1318V54.3476H25.7102V50.7693Z" fill="black"/>
<path d="M29.2922 50.7693H25.7139V54.3476H29.2922V50.7693Z" fill="black"/>
<path d="M31.0755 54.3476C30.6585 54.3476 29.2864 54.3476 29.2864 54.3476C29.2864 54.3476 29.2864 53.1295 29.2864 52.5584C29.2864 52.1124 29.2864 50.7693 29.2864 50.7693C29.2864 50.7693 30.5335 50.7693 31.0755 50.7693C32.0636 50.7693 32.8647 51.5703 32.8647 52.5584C32.8647 53.5465 32.0636 54.3476 31.0755 54.3476Z" fill="black"/>
<path d="M36.4537 52.5584C36.4537 52.1414 36.4537 50.7693 36.4537 50.7693C36.4537 50.7693 37.6718 50.7693 38.2429 50.7693C38.6889 50.7693 40.0321 50.7693 40.0321 50.7693C40.0321 50.7693 40.0321 52.0164 40.0321 52.5584C40.0321 53.5465 39.231 54.3476 38.2429 54.3476C37.2548 54.3476 36.4537 53.5465 36.4537 52.5584Z" fill="black"/>
<path d="M57.9168 50.7693H54.3385V54.3476H57.9168V50.7693Z" fill="black"/>
<path d="M61.4891 50.7693H57.9108V54.3476H61.4891V50.7693Z" fill="black"/>
<path d="M65.0771 50.7693H61.4988V54.3476H65.0771V50.7693Z" fill="black"/>
<path d="M68.6442 50.7732H65.0659V54.3515C67.0422 54.3515 68.6442 52.7494 68.6442 50.7732Z" fill="black"/>
<path d="M75.8076 50.7693H72.2292V54.3476H75.8076V50.7693Z" fill="black"/>
<path d="M82.9625 50.7693H79.3842V54.3476H82.9625V50.7693Z" fill="black"/>
<path d="M91.9126 50.7659C92.3296 50.7659 93.7017 50.7659 93.7017 50.7659C93.7017 50.7659 93.7017 51.9838 93.7017 52.555C93.7017 53.0009 93.7017 54.3442 93.7017 54.3442C93.7017 54.3442 92.4549 54.3442 91.9126 54.3442C90.9241 54.3442 90.1234 53.5428 90.1234 52.555C90.1234 51.5671 90.9241 50.7659 91.9126 50.7659Z" fill="black"/>
<path d="M93.7034 50.7732V54.3515H97.2817C97.2817 52.3752 95.6796 50.7732 93.7034 50.7732Z" fill="black"/>
<path d="M7.82209 54.3411H4.24377V57.9194H7.82209V54.3411Z" fill="black"/>
<path d="M11.395 54.3411H7.81665V57.9194H11.395V54.3411Z" fill="black"/>
<path d="M14.9803 54.3411H11.402V57.9194H14.9803V54.3411Z" fill="black"/>
<path d="M25.7139 56.1302C25.7139 55.7132 25.7139 54.3411 25.7139 54.3411C25.7139 54.3411 26.9319 54.3411 27.503 54.3411C27.9491 54.3411 29.2922 54.3411 29.2922 54.3411C29.2922 54.3411 29.2922 55.5882 29.2922 56.1302C29.2922 57.1183 28.4911 57.9194 27.503 57.9194C26.5149 57.9194 25.7139 57.1183 25.7139 56.1302Z" fill="black"/>
<path d="M34.6609 54.3411C35.649 54.3411 36.45 55.1421 36.45 56.1302C36.45 57.1184 35.649 57.9194 34.6609 57.9194C33.6727 57.9194 32.8717 57.1184 32.8717 56.1302C32.8717 55.1421 33.6727 54.3411 34.6609 54.3411Z" fill="black"/>
<path d="M43.6013 56.1302C43.6013 56.5472 43.6013 57.9194 43.6013 57.9194C43.6013 57.9194 42.3833 57.9194 41.8121 57.9193C41.3661 57.9194 40.0229 57.9193 40.0229 57.9193C40.0229 57.9193 40.0229 56.6723 40.0229 56.1302C40.023 55.1421 40.824 54.3411 41.8121 54.3411C42.8002 54.3411 43.6013 55.1421 43.6013 56.1302Z" fill="black"/>
<path d="M57.9168 54.3411H54.3385V57.9194H57.9168V54.3411Z" fill="black"/>
<path d="M75.8079 57.9208V54.3425H72.2296C72.2296 56.3188 73.8316 57.9208 75.8079 57.9208Z" fill="black"/>
<path d="M79.3923 54.3411H75.814V57.9194H79.3923V54.3411Z" fill="black"/>
<path d="M82.9625 54.3411H79.3842V57.9194H82.9625V54.3411Z" fill="black"/>
<path d="M84.7611 57.9194C84.3441 57.9194 82.9719 57.9194 82.9719 57.9194C82.9719 57.9194 82.9719 56.7013 82.9719 56.1302C82.9719 55.6842 82.9719 54.3411 82.9719 54.3411C82.9719 54.3411 84.219 54.3411 84.7611 54.3411C85.7492 54.3411 86.5502 55.1421 86.5502 56.1302C86.5502 57.1183 85.7492 57.9194 84.7611 57.9194Z" fill="black"/>
<path d="M97.2834 54.3411H93.7051V57.9194H97.2834V54.3411Z" fill="black"/>
<path d="M102.646 54.3411C103.635 54.3411 104.436 55.1421 104.436 56.1302C104.436 57.1184 103.635 57.9194 102.646 57.9194C101.658 57.9194 100.857 57.1184 100.857 56.1302C100.857 55.1421 101.658 54.3411 102.646 54.3411Z" fill="black"/>
<path d="M4.24377 59.6939C4.24377 59.2769 4.24377 57.9048 4.24377 57.9048C4.24377 57.9048 5.46184 57.9048 6.03293 57.9048C6.47896 57.9048 7.82209 57.9048 7.82209 57.9048C7.82209 57.9048 7.82209 59.1519 7.82209 59.6939C7.82209 60.682 7.02101 61.4831 6.03293 61.4831C5.04481 61.4831 4.24377 60.682 4.24377 59.6939Z" fill="black"/>
<path d="M14.9803 57.9048H11.402V61.4831H14.9803V57.9048Z" fill="black"/>
<path d="M23.921 57.9048C24.9092 57.9048 25.7102 58.7058 25.7102 59.6939C25.7102 60.6821 24.9092 61.4831 23.921 61.4831C22.9329 61.4831 22.1318 60.6821 22.1318 59.6939C22.1318 58.7058 22.9329 57.9048 23.921 57.9048Z" fill="black"/>
<path d="M43.6013 61.4899V57.9116H40.0229C40.023 59.8879 41.625 61.4899 43.6013 61.4899Z" fill="black"/>
<path d="M43.5925 57.9116V61.4899H47.1708C47.1708 59.5137 45.5688 57.9116 43.5925 57.9116Z" fill="black"/>
<path d="M57.9168 57.9048H54.3385V61.4831H57.9168V57.9048Z" fill="black"/>
<path d="M61.4967 61.4899H65.075V57.9116C63.0988 57.9116 61.4967 59.5137 61.4967 61.4899Z" fill="black"/>
<path d="M68.6658 57.9048H65.0875V61.4831H68.6658V57.9048Z" fill="black"/>
<path d="M68.6516 57.9116V61.4899H72.2299C72.2299 59.5137 70.6279 57.9116 68.6516 57.9116Z" fill="black"/>
<path d="M75.814 59.6939C75.814 59.2769 75.814 57.9048 75.814 57.9048C75.814 57.9048 77.032 57.9048 77.6031 57.9048C78.0492 57.9048 79.3923 57.9048 79.3923 57.9048C79.3923 57.9048 79.3923 59.1519 79.3923 59.6939C79.3923 60.682 78.5912 61.4831 77.6031 61.4831C76.615 61.4831 75.814 60.682 75.814 59.6939Z" fill="black"/>
<path d="M91.9126 57.9048C92.3296 57.9048 93.7017 57.9048 93.7017 57.9048C93.7017 57.9048 93.7017 59.1227 93.7017 59.6939C93.7017 60.1398 93.7017 61.4831 93.7017 61.4831C93.7017 61.4831 92.4549 61.4831 91.9126 61.4831C90.9241 61.4831 90.1234 60.6817 90.1234 59.6939C90.1234 58.7061 90.9241 57.9048 91.9126 57.9048Z" fill="black"/>
<path d="M97.2834 57.9048H93.7051V61.4831H97.2834V57.9048Z" fill="black"/>
<path d="M4.23774 63.2916C4.23774 63.7086 4.23774 65.0808 4.23774 65.0808C4.23774 65.0808 3.01973 65.0808 2.44858 65.0807C2.00255 65.0808 0.659424 65.0807 0.659424 65.0807C0.659424 65.0807 0.659424 63.8337 0.659424 63.2916C0.659467 62.3035 1.46046 61.5024 2.44854 61.5024C3.43666 61.5024 4.23774 62.3035 4.23774 63.2916Z" fill="black"/>
<path d="M11.402 63.2916C11.402 62.8746 11.402 61.5024 11.402 61.5024C11.402 61.5024 12.62 61.5024 13.1911 61.5024C13.6372 61.5024 14.9803 61.5024 14.9803 61.5024C14.9803 61.5024 14.9803 62.7496 14.9803 63.2916C14.9803 64.2797 14.1792 65.0808 13.1911 65.0808C12.203 65.0808 11.402 64.2797 11.402 63.2916Z" fill="black"/>
<path d="M20.3451 61.5024C21.3332 61.5024 22.1342 62.3035 22.1342 63.2916C22.1342 64.2798 21.3332 65.0808 20.3451 65.0808C19.357 65.0808 18.5559 64.2798 18.5559 63.2916C18.5559 62.3035 19.357 61.5024 20.3451 61.5024Z" fill="black"/>
<path d="M29.2791 65.0756H32.8574V61.4973C30.8811 61.4973 29.2791 63.0994 29.2791 65.0756Z" fill="black"/>
<path d="M34.6609 65.0808C34.2438 65.0808 32.8717 65.0808 32.8717 65.0808C32.8717 65.0808 32.8717 63.8627 32.8717 63.2916C32.8717 62.8456 32.8717 61.5024 32.8717 61.5024C32.8717 61.5024 34.1188 61.5024 34.6609 61.5024C35.6489 61.5024 36.45 62.3035 36.45 63.2916C36.45 64.2797 35.6489 65.0808 34.6609 65.0808Z" fill="black"/>
<path d="M47.1766 61.5024H43.5983V65.0808H47.1766V61.5024Z" fill="black"/>
<path d="M50.7683 61.5024H47.1899V65.0808H50.7683V61.5024Z" fill="black"/>
<path d="M54.3439 61.5024H50.7656V65.0808H54.3439V61.5024Z" fill="black"/>
<path d="M57.9168 61.5024H54.3385V65.0808H57.9168V61.5024Z" fill="black"/>
<path d="M61.4891 61.5024H57.9108V65.0808H61.4891V61.5024Z" fill="black"/>
<path d="M65.075 61.4973H61.4967V65.0756C63.473 65.0756 65.075 63.4736 65.075 61.4973Z" fill="black"/>
<path d="M72.2351 61.5024H68.6567V65.0808H72.2351V61.5024Z" fill="black"/>
<path d="M74.0184 65.0808C73.6014 65.0808 72.2292 65.0808 72.2292 65.0808C72.2292 65.0808 72.2292 63.8627 72.2292 63.2916C72.2292 62.8456 72.2292 61.5024 72.2292 61.5024C72.2292 61.5024 73.4764 61.5024 74.0184 61.5024C75.0065 61.5024 75.8076 62.3035 75.8076 63.2916C75.8076 64.2797 75.0065 65.0808 74.0184 65.0808Z" fill="black"/>
<path d="M81.1733 61.5024C82.1615 61.5024 82.9625 62.3035 82.9625 63.2916C82.9625 64.2798 82.1615 65.0808 81.1733 65.0808C80.1852 65.0808 79.3842 64.2798 79.3842 63.2916C79.3842 62.3035 80.1852 61.5024 81.1733 61.5024Z" fill="black"/>
<path d="M88.3307 61.5024C89.3188 61.5024 90.1198 62.3035 90.1198 63.2916C90.1198 64.2798 89.3188 65.0808 88.3307 65.0808C87.3425 65.0808 86.5415 64.2798 86.5415 63.2916C86.5415 62.3035 87.3425 61.5024 88.3307 61.5024Z" fill="black"/>
<path d="M97.2817 65.0756V61.4973H93.7034C93.7034 63.4736 95.3054 65.0756 97.2817 65.0756Z" fill="black"/>
<path d="M100.863 61.5024H97.2847V65.0808H100.863V61.5024Z" fill="black"/>
<path d="M100.858 61.4973V65.0756H104.436C104.436 63.0993 102.834 61.4973 100.858 61.4973Z" fill="black"/>
<path d="M4.23774 65.0776H0.659424V68.656H4.23774V65.0776Z" fill="black"/>
<path d="M7.82209 65.0776H4.24377V68.656H7.82209V65.0776Z" fill="black"/>
<path d="M9.60581 68.656C9.18879 68.656 7.81665 68.656 7.81665 68.656C7.81665 68.656 7.81665 67.4378 7.81665 66.8668C7.81665 66.4208 7.81665 65.0776 7.81665 65.0776C7.81665 65.0776 9.06377 65.0776 9.60581 65.0776C10.5939 65.0776 11.395 65.8787 11.395 66.8668C11.395 67.8549 10.5939 68.656 9.60581 68.656Z" fill="black"/>
<path d="M18.5522 66.8668C18.5522 67.2838 18.5522 68.656 18.5522 68.656C18.5522 68.656 17.3342 68.656 16.763 68.6559C16.317 68.656 14.9739 68.6559 14.9739 68.6559C14.9739 68.6559 14.9739 67.4089 14.9739 66.8668C14.9739 65.8787 15.7749 65.0776 16.763 65.0776C17.7511 65.0776 18.5522 65.8787 18.5522 66.8668Z" fill="black"/>
<path d="M23.921 65.0776C24.338 65.0776 25.7102 65.0776 25.7102 65.0776C25.7102 65.0776 25.7102 66.2956 25.7102 66.8668C25.7102 67.3127 25.7102 68.656 25.7102 68.656C25.7102 68.656 24.4633 68.656 23.921 68.656C22.9325 68.656 22.1318 67.8546 22.1318 66.8668C22.1318 65.8789 22.9325 65.0776 23.921 65.0776Z" fill="black"/>
<path d="M29.2922 65.0776H25.7139V68.656H29.2922V65.0776Z" fill="black"/>
<path d="M32.8647 65.0776H29.2864V68.656H32.8647V65.0776Z" fill="black"/>
<path d="M40.0229 68.6577H43.6013V65.0793C41.625 65.0794 40.0229 66.6814 40.0229 68.6577Z" fill="black"/>
<path d="M47.1708 65.0793H43.5925V68.6577C45.5688 68.6577 47.1708 67.0556 47.1708 65.0793Z" fill="black"/>
<path d="M54.3385 66.8668C54.3385 66.4498 54.3385 65.0776 54.3385 65.0776C54.3385 65.0776 55.5566 65.0776 56.1277 65.0776C56.5737 65.0776 57.9168 65.0776 57.9168 65.0776C57.9168 65.0776 57.9168 66.3248 57.9168 66.8668C57.9168 67.8549 57.1157 68.656 56.1277 68.656C55.1395 68.656 54.3385 67.8549 54.3385 66.8668Z" fill="black"/>
<path d="M72.2351 65.0776H68.6567V68.656H72.2351V65.0776Z" fill="black"/>
<path d="M91.9126 65.0776C92.9007 65.0776 93.7017 65.8787 93.7017 66.8668C93.7017 67.855 92.9007 68.656 91.9126 68.656C90.9245 68.656 90.1234 67.855 90.1234 66.8668C90.1234 65.8787 90.9245 65.0776 91.9126 65.0776Z" fill="black"/>
<path d="M100.857 66.8668C100.857 66.4498 100.857 65.0776 100.857 65.0776C100.857 65.0776 102.075 65.0776 102.646 65.0776C103.092 65.0776 104.436 65.0776 104.436 65.0776C104.436 65.0776 104.436 66.3248 104.436 66.8668C104.436 67.8549 103.635 68.656 102.646 68.656C101.658 68.656 100.857 67.8549 100.857 66.8668Z" fill="black"/>
<path d="M4.23774 68.647H0.659424V72.2253H4.23774V68.647Z" fill="black"/>
<path d="M18.5522 68.647H14.9739V72.2253H18.5522V68.647Z" fill="black"/>
<path d="M32.8574 72.2319V68.6536H29.2791C29.2791 70.6298 30.8811 72.2319 32.8574 72.2319Z" fill="black"/>
<path d="M34.6609 72.2253C34.2438 72.2253 32.8717 72.2253 32.8717 72.2253C32.8717 72.2253 32.8717 71.0072 32.8717 70.4361C32.8717 69.9901 32.8717 68.647 32.8717 68.647C32.8717 68.647 34.1188 68.647 34.6609 68.647C35.6489 68.647 36.45 69.448 36.45 70.4361C36.45 71.4242 35.6489 72.2253 34.6609 72.2253Z" fill="black"/>
<path d="M43.6013 68.647H40.0229V72.2253H43.6013V68.647Z" fill="black"/>
<path d="M48.9791 68.647C49.9673 68.647 50.7683 69.448 50.7683 70.4361C50.7683 71.4243 49.9673 72.2253 48.9791 72.2253C47.991 72.2253 47.1899 71.4243 47.1899 70.4361C47.1899 69.448 47.991 68.647 48.9791 68.647Z" fill="black"/>
<path d="M61.4891 70.4361C61.4891 70.8531 61.4891 72.2253 61.4891 72.2253C61.4891 72.2253 60.2711 72.2253 59.6999 72.2252C59.2539 72.2253 57.9108 72.2252 57.9108 72.2252C57.9108 72.2252 57.9108 70.9782 57.9108 70.4361C57.9108 69.448 58.7118 68.647 59.6999 68.647C60.688 68.647 61.4891 69.448 61.4891 70.4361Z" fill="black"/>
<path d="M72.2299 72.2319V68.6536H68.6516C68.6516 70.6298 70.2536 72.2319 72.2299 72.2319Z" fill="black"/>
<path d="M75.8076 68.647H72.2292V72.2253H75.8076V68.647Z" fill="black"/>
<path d="M79.3923 68.647H75.814V72.2253H79.3923V68.647Z" fill="black"/>
<path d="M79.3845 68.6536V72.2319H82.9628C82.9628 70.2556 81.3608 68.6536 79.3845 68.6536Z" fill="black"/>
<path d="M0.659424 74.0187C0.659424 73.6016 0.659424 72.2295 0.659424 72.2295C0.659424 72.2295 1.87749 72.2295 2.44858 72.2295C2.89461 72.2295 4.23774 72.2295 4.23774 72.2295C4.23774 72.2295 4.23774 73.4766 4.23774 74.0187C4.23774 75.0067 3.43666 75.8078 2.44858 75.8078C1.46046 75.8078 0.659424 75.0067 0.659424 74.0187Z" fill="black"/>
<path d="M9.60581 72.2295C10.594 72.2295 11.395 73.0305 11.395 74.0187C11.395 75.0068 10.594 75.8078 9.60581 75.8078C8.61769 75.8078 7.81665 75.0068 7.81665 74.0187C7.81665 73.0305 8.61769 72.2295 9.60581 72.2295Z" fill="black"/>
<path d="M18.5458 75.8085V72.2302H14.9675C14.9675 74.2065 16.5696 75.8085 18.5458 75.8085Z" fill="black"/>
<path d="M22.1342 72.2295H18.5559V75.8078H22.1342V72.2295Z" fill="black"/>
<path d="M25.7102 72.2295H22.1318V75.8078H25.7102V72.2295Z" fill="black"/>
<path d="M27.503 75.8078C27.086 75.8078 25.7139 75.8078 25.7139 75.8078C25.7139 75.8078 25.7139 74.5897 25.7139 74.0187C25.7139 73.5726 25.7139 72.2295 25.7139 72.2295C25.7139 72.2295 26.961 72.2295 27.503 72.2295C28.4911 72.2295 29.2922 73.0305 29.2922 74.0187C29.2922 75.0067 28.4911 75.8078 27.503 75.8078Z" fill="black"/>
<path d="M43.6013 72.2295H40.0229V75.8078H43.6013V72.2295Z" fill="black"/>
<path d="M54.3439 74.0187C54.3439 74.4356 54.3439 75.8078 54.3439 75.8078C54.3439 75.8078 53.1259 75.8078 52.5548 75.8077C52.1088 75.8078 50.7656 75.8077 50.7656 75.8077C50.7656 75.8077 50.7656 74.5607 50.7656 74.0186C50.7657 73.0305 51.5667 72.2295 52.5547 72.2295C53.5429 72.2295 54.3439 73.0305 54.3439 74.0187Z" fill="black"/>
<path d="M61.4891 72.2295H57.9108V75.8078H61.4891V72.2295Z" fill="black"/>
<path d="M63.2879 75.8078C62.8709 75.8078 61.4988 75.8078 61.4988 75.8078C61.4988 75.8078 61.4988 74.5897 61.4988 74.0187C61.4988 73.5726 61.4988 72.2295 61.4988 72.2295C61.4988 72.2295 62.7459 72.2295 63.2879 72.2295C64.276 72.2295 65.0771 73.0305 65.0771 74.0187C65.0771 75.0067 64.276 75.8078 63.2879 75.8078Z" fill="black"/>
<path d="M75.8076 72.2295H72.2292V75.8078H75.8076V72.2295Z" fill="black"/>
<path d="M79.3923 72.2295H75.814V75.8078H79.3923V72.2295Z" fill="black"/>
<path d="M82.9625 72.2295H79.3842V75.8078H82.9625V72.2295Z" fill="black"/>
<path d="M86.5502 72.2295H82.9719V75.8078H86.5502V72.2295Z" fill="black"/>
<path d="M86.5444 72.2302V75.8085H90.1228C90.1228 73.8323 88.5207 72.2302 86.5444 72.2302Z" fill="black"/>
<path d="M95.4942 72.2295C95.9113 72.2295 97.2834 72.2295 97.2834 72.2295C97.2834 72.2295 97.2834 73.4474 97.2834 74.0187C97.2834 74.4645 97.2834 75.8078 97.2834 75.8078C97.2834 75.8078 96.0366 75.8078 95.4942 75.8078C94.5058 75.8078 93.7051 75.0064 93.7051 74.0187C93.7051 73.0308 94.5058 72.2295 95.4942 72.2295Z" fill="black"/>
<path d="M100.863 72.2295H97.2847V75.8078H100.863V72.2295Z" fill="black"/>
<path d="M102.646 75.8078C102.229 75.8078 100.857 75.8078 100.857 75.8078C100.857 75.8078 100.857 74.5897 100.857 74.0187C100.857 73.5726 100.857 72.2295 100.857 72.2295C100.857 72.2295 102.104 72.2295 102.646 72.2295C103.635 72.2295 104.436 73.0305 104.436 74.0187C104.436 75.0067 103.635 75.8078 102.646 75.8078Z" fill="black"/>
<path d="M31.0755 75.811C32.0637 75.811 32.8647 76.6121 32.8647 77.6002C32.8647 78.5884 32.0637 79.3894 31.0755 79.3894C30.0874 79.3894 29.2864 78.5884 29.2864 77.6002C29.2864 76.6121 30.0874 75.811 31.0755 75.811Z" fill="black"/>
<path d="M43.6013 79.3959V75.8176H40.0229C40.023 77.7939 41.625 79.3959 43.6013 79.3959Z" fill="black"/>
<path d="M43.5925 75.8176V79.3959H47.1708C47.1708 77.4197 45.5688 75.8176 43.5925 75.8176Z" fill="black"/>
<path d="M54.3395 79.3959V75.8176H50.7612C50.7612 77.7939 52.3633 79.3959 54.3395 79.3959Z" fill="black"/>
<path d="M57.9168 75.811H54.3385V79.3894H57.9168V75.811Z" fill="black"/>
<path d="M61.4891 75.811H57.9108V79.3894H61.4891V75.811Z" fill="black"/>
<path d="M66.8767 75.811C67.8649 75.811 68.6658 76.6121 68.6658 77.6002C68.6658 78.5884 67.8649 79.3894 66.8767 79.3894C65.8886 79.3894 65.0875 78.5884 65.0875 77.6002C65.0875 76.6121 65.8886 75.811 66.8767 75.811Z" fill="black"/>
<path d="M75.8076 75.811H72.2292V79.3894H75.8076V75.811Z" fill="black"/>
<path d="M90.1198 75.811H86.5415V79.3894H90.1198V75.811Z" fill="black"/>
<path d="M90.1355 75.8176V79.3959H93.7138C93.7138 77.4197 92.1117 75.8176 90.1355 75.8176Z" fill="black"/>
<path d="M34.6609 79.387C35.0779 79.387 36.45 79.387 36.45 79.387C36.45 79.387 36.45 80.6049 36.45 81.1761C36.45 81.622 36.45 82.9653 36.45 82.9653C36.45 82.9653 35.2032 82.9653 34.6609 82.9653C33.6724 82.9653 32.8717 82.1639 32.8717 81.1761C32.8717 80.1882 33.6724 79.387 34.6609 79.387Z" fill="black"/>
<path d="M36.4537 79.387V82.9653H40.0321C40.0321 80.989 38.43 79.387 36.4537 79.387Z" fill="black"/>
<path d="M47.1766 79.387H43.5983V82.9653H47.1766V79.387Z" fill="black"/>
<path d="M57.9128 82.9653V79.387H54.3345C54.3345 81.3632 55.9365 82.9653 57.9128 82.9653Z" fill="black"/>
<path d="M61.4891 79.387H57.9108V82.9653H61.4891V79.387Z" fill="black"/>
<path d="M63.2879 82.9653C62.8709 82.9653 61.4988 82.9653 61.4988 82.9653C61.4988 82.9653 61.4988 81.7472 61.4988 81.1761C61.4988 80.7301 61.4988 79.387 61.4988 79.387C61.4988 79.387 62.7459 79.387 63.2879 79.387C64.276 79.387 65.0771 80.188 65.0771 81.1761C65.0771 82.1642 64.276 82.9653 63.2879 82.9653Z" fill="black"/>
<path d="M68.6516 82.9653H72.2299V79.387C70.2537 79.387 68.6516 80.989 68.6516 82.9653Z" fill="black"/>
<path d="M75.8076 79.387H72.2292V82.9653H75.8076V79.387Z" fill="black"/>
<path d="M81.1733 79.387C82.1615 79.387 82.9625 80.188 82.9625 81.1761C82.9625 82.1643 82.1615 82.9653 81.1733 82.9653C80.1852 82.9653 79.3842 82.1643 79.3842 81.1761C79.3842 80.188 80.1852 79.387 81.1733 79.387Z" fill="black"/>
<path d="M90.1198 79.387H86.5415V82.9653H90.1198V79.387Z" fill="black"/>
<path d="M93.7017 79.387H90.1234V82.9653H93.7017V79.387Z" fill="black"/>
<path d="M95.4942 82.9653C95.0772 82.9653 93.7051 82.9653 93.7051 82.9653C93.7051 82.9653 93.7051 81.7472 93.7051 81.1761C93.7051 80.7301 93.7051 79.387 93.7051 79.387C93.7051 79.387 94.9522 79.387 95.4942 79.387C96.4823 79.387 97.2834 80.188 97.2834 81.1761C97.2834 82.1642 96.4823 82.9653 95.4942 82.9653Z" fill="black"/>
<path d="M36.4537 84.764C36.4537 84.347 36.4537 82.9749 36.4537 82.9749C36.4537 82.9749 37.6718 82.9749 38.2429 82.9749C38.6889 82.9749 40.0321 82.9749 40.0321 82.9749C40.0321 82.9749 40.0321 84.222 40.0321 84.764C40.0321 85.7521 39.231 86.5532 38.2429 86.5532C37.2548 86.5532 36.4537 85.7521 36.4537 84.764Z" fill="black"/>
<path d="M47.1766 82.9749H43.5983V86.5532H47.1766V82.9749Z" fill="black"/>
<path d="M54.3439 84.764C54.3439 85.181 54.3439 86.5532 54.3439 86.5532C54.3439 86.5532 53.1259 86.5532 52.5548 86.5531C52.1088 86.5532 50.7656 86.5531 50.7656 86.5531C50.7656 86.5531 50.7656 85.3061 50.7656 84.764C50.7657 83.7759 51.5667 82.9749 52.5547 82.9749C53.5429 82.9749 54.3439 83.7759 54.3439 84.764Z" fill="black"/>
<path d="M61.4891 82.9749H57.9108V86.5532H61.4891V82.9749Z" fill="black"/>
<path d="M66.8767 82.9749C67.2937 82.9749 68.6658 82.9749 68.6658 82.9749C68.6658 82.9749 68.6658 84.1928 68.6658 84.764C68.6658 85.2099 68.6658 86.5532 68.6658 86.5532C68.6658 86.5532 67.419 86.5532 66.8767 86.5532C65.8882 86.5532 65.0875 85.7518 65.0875 84.764C65.0875 83.7761 65.8882 82.9749 66.8767 82.9749Z" fill="black"/>
<path d="M72.2351 82.9749H68.6567V86.5532H72.2351V82.9749Z" fill="black"/>
<path d="M75.8076 82.9749H72.2292V86.5532H75.8076V82.9749Z" fill="black"/>
<path d="M90.1198 82.9749H86.5415V86.5532H90.1198V82.9749Z" fill="black"/>
<path d="M104.436 84.764C104.436 85.181 104.436 86.5532 104.436 86.5532C104.436 86.5532 103.218 86.5532 102.646 86.5531C102.2 86.5532 100.857 86.5531 100.857 86.5531C100.857 86.5531 100.857 85.3061 100.857 84.764C100.857 83.7759 101.658 82.9749 102.646 82.9749C103.635 82.9749 104.436 83.7759 104.436 84.764Z" fill="black"/>
<path d="M34.6609 86.5356C35.649 86.5356 36.45 87.3367 36.45 88.3248C36.45 89.313 35.649 90.114 34.6609 90.114C33.6727 90.114 32.8717 89.313 32.8717 88.3248C32.8717 87.3367 33.6727 86.5356 34.6609 86.5356Z" fill="black"/>
<path d="M40.0229 90.1147H43.6013V86.5364C41.625 86.5364 40.0229 88.1384 40.0229 90.1147Z" fill="black"/>
<path d="M47.1766 86.5356H43.5983V90.114H47.1766V86.5356Z" fill="black"/>
<path d="M50.7683 86.5356H47.1899V90.114H50.7683V86.5356Z" fill="black"/>
<path d="M54.3439 86.5356H50.7656V90.114H54.3439V86.5356Z" fill="black"/>
<path d="M61.4891 86.5356H57.9108V90.114H61.4891V86.5356Z" fill="black"/>
<path d="M72.2351 86.5356H68.6567V90.114H72.2351V86.5356Z" fill="black"/>
<path d="M75.8076 86.5356H72.2292V90.114H75.8076V86.5356Z" fill="black"/>
<path d="M79.3923 86.5356H75.814V90.114H79.3923V86.5356Z" fill="black"/>
<path d="M82.9625 86.5356H79.3842V90.114H82.9625V86.5356Z" fill="black"/>
<path d="M86.5502 86.5356H82.9719V90.114H86.5502V86.5356Z" fill="black"/>
<path d="M90.1198 86.5356H86.5415V90.114H90.1198V86.5356Z" fill="black"/>
<path d="M90.1355 86.5364V90.1147H93.7138C93.7138 88.1384 92.1117 86.5364 90.1355 86.5364Z" fill="black"/>
<path d="M104.436 86.5356H100.857V90.114H104.436V86.5356Z" fill="black"/>
<path d="M43.6013 90.1204H40.0229V93.6987H43.6013V90.1204Z" fill="black"/>
<path d="M54.3439 90.1204H50.7656V93.6987H54.3439V90.1204Z" fill="black"/>
<path d="M57.9168 90.1204H54.3385V93.6987H57.9168V90.1204Z" fill="black"/>
<path d="M61.4891 90.1204H57.9108V93.6987H61.4891V90.1204Z" fill="black"/>
<path d="M72.2351 90.1204H68.6567V93.6987H72.2351V90.1204Z" fill="black"/>
<path d="M79.3923 90.1204H75.814V93.6987H79.3923V90.1204Z" fill="black"/>
<path d="M93.7017 90.1204H90.1234V93.6987H93.7017V90.1204Z" fill="black"/>
<path d="M93.7034 90.1235V93.7019H97.2817C97.2817 91.7256 95.6796 90.1235 93.7034 90.1235Z" fill="black"/>
<path d="M100.857 91.9095C100.857 91.4925 100.857 90.1204 100.857 90.1204C100.857 90.1204 102.075 90.1204 102.646 90.1204C103.092 90.1204 104.436 90.1204 104.436 90.1204C104.436 90.1204 104.436 91.3675 104.436 91.9095C104.436 92.8976 103.635 93.6987 102.646 93.6987C101.658 93.6987 100.857 92.8976 100.857 91.9095Z" fill="black"/>
<path d="M38.2429 93.7087C38.6599 93.7087 40.0321 93.7087 40.0321 93.7087C40.0321 93.7087 40.0321 94.9267 40.0321 95.4979C40.0321 95.9438 40.0321 97.2871 40.0321 97.2871C40.0321 97.2871 38.7852 97.2871 38.2429 97.2871C37.2544 97.2871 36.4537 96.4857 36.4537 95.4979C36.4537 94.51 37.2544 93.7087 38.2429 93.7087Z" fill="black"/>
<path d="M43.6013 93.7087H40.0229V97.2871H43.6013V93.7087Z" fill="black"/>
<path d="M47.1766 93.7087H43.5983V97.2871H47.1766V93.7087Z" fill="black"/>
<path d="M50.7683 93.7087H47.1899V97.2871H50.7683V93.7087Z" fill="black"/>
<path d="M54.3439 93.7087H50.7656V97.2871H54.3439V93.7087Z" fill="black"/>
<path d="M57.9168 93.7087H54.3385V97.2871H57.9168V93.7087Z" fill="black"/>
<path d="M61.4891 93.7087H57.9108V97.2871H61.4891V93.7087Z" fill="black"/>
<path d="M65.0771 93.7087H61.4988V97.2871H65.0771V93.7087Z" fill="black"/>
<path d="M68.6658 93.7087H65.0875V97.2871H68.6658V93.7087Z" fill="black"/>
<path d="M72.2299 93.698H68.6516V97.2763C70.6279 97.2763 72.2299 95.6742 72.2299 93.698Z" fill="black"/>
<path d="M79.3923 93.7087H75.814V97.2871H79.3923V93.7087Z" fill="black"/>
<path d="M82.9625 93.7087H79.3842V97.2871H82.9625V93.7087Z" fill="black"/>
<path d="M86.5502 93.7087H82.9719V97.2871H86.5502V93.7087Z" fill="black"/>
<path d="M90.1198 93.7087H86.5415V97.2871H90.1198V93.7087Z" fill="black"/>
<path d="M93.7017 93.7087H90.1234V97.2871H93.7017V93.7087Z" fill="black"/>
<path d="M97.2834 93.7087H93.7051V97.2871H97.2834V93.7087Z" fill="black"/>
<path d="M99.0738 97.2871C98.6568 97.2871 97.2847 97.2871 97.2847 97.2871C97.2847 97.2871 97.2847 96.0689 97.2847 95.4979C97.2847 95.0519 97.2847 93.7087 97.2847 93.7087C97.2847 93.7087 98.5318 93.7087 99.0738 93.7087C100.062 93.7087 100.863 94.5098 100.863 95.4979C100.863 96.486 100.062 97.2871 99.0738 97.2871Z" fill="black"/>
<path d="M54.3439 97.2874H50.7656V100.866H54.3439V97.2874Z" fill="black"/>
<path d="M57.9128 97.2874H54.3345V100.866C56.3107 100.866 57.9128 99.2636 57.9128 97.2874Z" fill="black"/>
<path d="M65.0875 99.0765C65.0875 98.6595 65.0875 97.2874 65.0875 97.2874C65.0875 97.2874 66.3056 97.2874 66.8767 97.2874C67.3227 97.2874 68.6658 97.2874 68.6658 97.2874C68.6658 97.2874 68.6658 98.5345 68.6658 99.0765C68.6658 100.065 67.8648 100.866 66.8767 100.866C65.8886 100.866 65.0875 100.065 65.0875 99.0765Z" fill="black"/>
<path d="M79.3923 97.2874H75.814V100.866H79.3923V97.2874Z" fill="black"/>
<path d="M93.7017 97.2874H90.1234V100.866H93.7017V97.2874Z" fill="black"/>
<path d="M97.2834 97.2874H93.7051V100.866H97.2834V97.2874Z" fill="black"/>
<path d="M102.646 97.2874C103.635 97.2874 104.436 98.0884 104.436 99.0765C104.436 100.065 103.635 100.866 102.646 100.866C101.658 100.866 100.857 100.065 100.857 99.0765C100.857 98.0884 101.658 97.2874 102.646 97.2874Z" fill="black"/>
<path d="M31.0755 100.857C31.4926 100.857 32.8647 100.857 32.8647 100.857C32.8647 100.857 32.8647 102.075 32.8647 102.646C32.8647 103.092 32.8647 104.435 32.8647 104.435C32.8647 104.435 31.6179 104.435 31.0755 104.435C30.0871 104.435 29.2864 103.634 29.2864 102.646C29.2864 101.658 30.0871 100.857 31.0755 100.857Z" fill="black"/>
<path d="M34.6609 104.435C34.2438 104.435 32.8717 104.435 32.8717 104.435C32.8717 104.435 32.8717 103.217 32.8717 102.646C32.8717 102.2 32.8717 100.857 32.8717 100.857C32.8717 100.857 34.1188 100.857 34.6609 100.857C35.6489 100.857 36.45 101.658 36.45 102.646C36.45 103.634 35.6489 104.435 34.6609 104.435Z" fill="black"/>
<path d="M41.8121 100.857C42.8003 100.857 43.6013 101.658 43.6013 102.646C43.6013 103.634 42.8003 104.435 41.8121 104.435C40.824 104.435 40.0229 103.634 40.0229 102.646C40.0229 101.658 40.824 100.857 41.8121 100.857Z" fill="black"/>
<path d="M48.9791 100.857C49.3961 100.857 50.7683 100.857 50.7683 100.857C50.7683 100.857 50.7683 102.075 50.7683 102.646C50.7683 103.092 50.7683 104.435 50.7683 104.435C50.7683 104.435 49.5214 104.435 48.9791 104.435C47.9906 104.435 47.1899 103.634 47.1899 102.646C47.1899 101.658 47.9906 100.857 48.9791 100.857Z" fill="black"/>
<path d="M54.3395 100.86H50.7612V104.439C52.7375 104.439 54.3395 102.837 54.3395 100.86Z" fill="black"/>
<path d="M63.2879 100.857C64.2761 100.857 65.0771 101.658 65.0771 102.646C65.0771 103.634 64.2761 104.435 63.2879 104.435C62.2998 104.435 61.4988 103.634 61.4988 102.646C61.4988 101.658 62.2998 100.857 63.2879 100.857Z" fill="black"/>
<path d="M70.4459 100.857C71.4341 100.857 72.2351 101.658 72.2351 102.646C72.2351 103.634 71.4341 104.435 70.4459 104.435C69.4578 104.435 68.6567 103.634 68.6567 102.646C68.6567 101.658 69.4578 100.857 70.4459 100.857Z" fill="black"/>
<path d="M75.814 102.646C75.814 102.229 75.814 100.857 75.814 100.857C75.814 100.857 77.032 100.857 77.6031 100.857C78.0492 100.857 79.3923 100.857 79.3923 100.857C79.3923 100.857 79.3923 102.104 79.3923 102.646C79.3923 103.634 78.5912 104.435 77.6031 104.435C76.615 104.435 75.814 103.634 75.814 102.646Z" fill="black"/>
<path d="M84.7611 100.857C85.1781 100.857 86.5502 100.857 86.5502 100.857C86.5502 100.857 86.5502 102.075 86.5502 102.646C86.5502 103.092 86.5502 104.435 86.5502 104.435C86.5502 104.435 85.3034 104.435 84.7611 104.435C83.7726 104.435 82.9719 103.634 82.9719 102.646C82.9719 101.658 83.7726 100.857 84.7611 100.857Z" fill="black"/>
<path d="M90.1198 100.857H86.5415V104.435H90.1198V100.857Z" fill="black"/>
<path d="M93.7017 100.857H90.1234V104.435H93.7017V100.857Z" fill="black"/>
<path d="M97.2817 100.86H93.7034V104.439C95.6796 104.439 97.2817 102.837 97.2817 100.86Z" fill="black"/>
<path d="M17.1569 0.662354H9.21212C5.34016 0.662354 2.05984 3.22053 1.01108 6.71701C0.902617 7.07871 0.817954 7.45042 0.75909 7.83041C0.694215 8.24971 0.6604 8.67904 0.6604 9.11613V17.2495C0.6604 21.9133 4.49779 25.7058 9.21212 25.7058L13.1845 25.7066L17.1569 25.7056C21.871 25.7056 25.7086 21.913 25.7086 17.2493V9.11613C25.7086 4.45466 21.8712 0.662354 17.1569 0.662354ZM21.9514 17.2495C21.9514 19.8405 19.8008 21.9486 17.1559 21.9486L13.1845 21.9493L9.21312 21.9483C6.56828 21.9483 4.41763 19.8403 4.41763 17.2495V9.11613C4.41763 8.30682 4.62754 7.54486 4.997 6.87907C5.35268 6.23859 5.8559 5.68778 6.46182 5.27073C7.24082 4.73444 8.1894 4.41959 9.21187 4.41959H17.1569C19.8008 4.41959 21.9514 6.5264 21.9514 9.11613V17.2495Z" fill="black"/>
<path d="M95.881 0.662354H87.9362C84.0643 0.662354 80.784 3.22053 79.7352 6.71701C79.6267 7.07871 79.5421 7.45042 79.4832 7.83041C79.4183 8.24971 79.3845 8.67904 79.3845 9.11613V17.2495C79.3845 21.9133 83.2219 25.7058 87.9362 25.7058L91.9086 25.7066L95.881 25.7056C100.595 25.7056 104.433 21.913 104.433 17.2493V9.11613C104.433 4.45466 100.595 0.662354 95.881 0.662354ZM100.676 17.2495C100.676 19.8405 98.5249 21.9486 95.88 21.9486L91.9086 21.9493L87.9372 21.9483C85.2924 21.9483 83.1418 19.8403 83.1418 17.2495V9.11613C83.1418 8.30682 83.3517 7.54486 83.7211 6.87907C84.0768 6.23859 84.58 5.68778 85.1859 5.27073C85.9649 4.73444 86.9135 4.41959 87.936 4.41959H95.881C98.5249 4.41959 100.676 6.5264 100.676 9.11613V17.2495Z" fill="black"/>
<path d="M17.1569 79.3918H9.21212C5.34016 79.3918 2.05984 81.95 1.01108 85.4465C0.902617 85.8082 0.817954 86.1799 0.75909 86.5599C0.694215 86.9792 0.6604 87.4085 0.6604 87.8456V95.979C0.6604 100.643 4.49779 104.435 9.21212 104.435L13.1845 104.436L17.1569 104.435C21.871 104.435 25.7086 100.643 25.7086 95.9788V87.8456C25.7086 83.1841 21.8712 79.3918 17.1569 79.3918ZM21.9514 95.979C21.9514 98.57 19.8008 100.678 17.1559 100.678L13.1845 100.679L9.21312 100.678C6.56828 100.678 4.41763 98.5698 4.41763 95.979V87.8456C4.41763 87.0363 4.62754 86.2743 4.997 85.6086C5.35268 84.9681 5.8559 84.4173 6.46182 84.0002C7.24082 83.4639 8.1894 83.1491 9.21187 83.1491H17.1569C19.8008 83.1491 21.9514 85.2559 21.9514 87.8456V95.979Z" fill="black"/>
<path d="M10.7633 18.5577C9.1434 18.5577 7.82568 17.2661 7.82568 15.6799V10.6991C7.82568 10.2036 7.9545 9.73723 8.18004 9.32919C8.39786 8.93651 8.70616 8.599 9.07749 8.34437C9.55444 8.01609 10.1358 7.82275 10.7617 7.82275H15.6275C17.2459 7.82275 18.5636 9.11288 18.5636 10.699V15.6798C18.5636 17.2659 17.246 18.5576 15.6275 18.5576H13.1947L10.7633 18.5577Z" fill="black"/>
<path d="M89.4646 18.5577C87.8447 18.5577 86.527 17.2661 86.527 15.6799V10.6991C86.527 10.2036 86.6558 9.73723 86.8813 9.32919C87.0992 8.93651 87.4075 8.599 87.7788 8.34437C88.2557 8.01609 88.8371 7.82275 89.463 7.82275H94.3288C95.9472 7.82275 97.2649 9.11288 97.2649 10.699V15.6798C97.2649 17.2659 95.9473 18.5576 94.3288 18.5576H91.896L89.4646 18.5577Z" fill="black"/>
<path d="M10.7633 97.2765C9.1434 97.2765 7.82568 95.9848 7.82568 94.3986V89.4178C7.82568 88.9223 7.9545 88.456 8.18004 88.0479C8.39786 87.6553 8.70616 87.3177 9.07749 87.0631C9.55444 86.7348 10.1358 86.5415 10.7617 86.5415H15.6275C17.2459 86.5415 18.5636 87.8316 18.5636 89.4177V94.3985C18.5636 95.9846 17.246 97.2764 15.6275 97.2764H13.1947L10.7633 97.2765Z" fill="black"/>
</svg>
