<svg width="83" height="23" viewBox="0 0 83 23" fill="none" xmlns="http://www.w3.org/2000/svg">
<path d="M1.0651 0.284822C0.908761 0.511105 0.875847 0.609846 0.945789 0.638645C0.96636 0.642759 1.12681 0.963669 1.29961 1.3504C1.47652 1.73303 1.68223 2.18971 1.7604 2.35839C2.00726 2.88089 2.08954 3.07426 2.12246 3.173C2.13891 3.22649 2.33639 3.65848 2.55856 4.13573C2.78073 4.60887 2.96587 5.00383 2.96587 5.01206C2.96587 5.02029 3.12632 5.36177 3.31969 5.77319C3.51306 6.18461 3.72289 6.65363 3.78871 6.81409C3.85043 6.97866 4.13019 7.59167 4.40585 8.18001C5.03944 9.52947 5.33977 10.1877 5.4344 10.4223C5.51257 10.6197 6.15027 12.0062 6.4465 12.6316L6.62752 13.0142V17.6304L6.63164 22.2506L6.79621 22.4234L6.96078 22.6003H8.47892H9.99707L10.1616 22.4234L10.3262 22.2506L10.3303 17.6839V13.1212L10.4702 12.8085C10.5484 12.6398 10.75 12.1831 10.9228 11.8005C11.0914 11.4138 11.4329 10.6609 11.6839 10.126C11.9307 9.58707 12.2393 8.91234 12.3586 8.62434C12.4821 8.33635 12.7125 7.81796 12.8729 7.48059C13.5929 5.93365 13.992 5.06966 13.992 5.04909C13.992 5.02029 14.2059 4.53481 14.3952 4.1275C15.1851 2.43656 16.0079 0.605732 16.0079 0.535789C16.0079 0.515219 15.9545 0.420591 15.8845 0.321852C15.8187 0.22311 15.7611 0.124369 15.7611 0.0996838C15.7611 0.0667686 15.2427 0.0544262 14.0701 0.0544262C12.6343 0.0544262 12.371 0.0626545 12.3216 0.11614C12.2887 0.149054 12.2352 0.190197 12.2064 0.206654C12.1529 0.239567 11.9925 0.556362 11.5852 1.45326C11.4658 1.71246 11.256 2.15679 11.1202 2.44067C10.8652 2.97964 10.6183 3.53094 10.6183 3.56797C10.6183 3.58031 10.536 3.76134 10.4373 3.97116C10.3385 4.18099 10.1287 4.62944 9.96827 4.97092C9.81193 5.30828 9.50748 5.96656 9.29354 6.43147C9.0796 6.89637 8.80394 7.50116 8.68463 7.77681L8.46658 8.27463L8.28555 7.87967C7.61082 6.40678 7.26111 5.63331 7.16237 5.38234C7.10066 5.22189 6.92375 4.82692 6.77152 4.49778C6.6193 4.16864 6.35599 3.59677 6.1873 3.22237C6.01862 2.84798 5.82525 2.42422 5.75531 2.2761C5.68948 2.12799 5.56606 1.85234 5.48789 1.65897C5.40972 1.4656 5.2328 1.06652 5.09703 0.766186C4.89132 0.321852 4.8255 0.214882 4.72675 0.173738C4.66504 0.149054 4.61156 0.112026 4.61156 0.0914555C4.61156 0.0708828 3.86277 0.0544262 2.9165 0.0544262L1.21733 0.0585403L1.0651 0.284822Z" fill="url(#paint0_linear_1_130)"/>
<path d="M18.9624 0.239567L18.806 0.412363V11.3315L18.8101 22.2506L18.9747 22.4234L19.1393 22.6003H25.1995H31.2598L31.449 22.4275L31.6424 22.2547V20.7695V19.2843L31.4614 19.1321L31.2762 18.9798H26.8946H22.5088V16.0587V13.1376H26.5531H30.5974L30.7907 12.9402L30.9841 12.7427V11.3027V9.86272L30.7866 9.66935L30.5892 9.47599H26.549H22.5088V6.57546V3.67494H26.9028L31.2927 3.67082L31.4696 3.50626L31.6424 3.34169V1.8688V0.400021L31.449 0.227224L31.2598 0.0544262L25.1872 0.0585403L19.1146 0.0626545L18.9624 0.239567Z" fill="url(#paint1_linear_1_130)"/>
<path d="M35.1725 0.239567L35.0162 0.412363V11.3315L35.0203 22.2506L35.1849 22.4234L35.3494 22.6003H41.4302H47.5152L47.6839 22.4317L47.8525 22.263V20.7695V19.2761L47.6797 19.1279L47.5069 18.9798H43.113H38.719V16.0587V13.1376H42.7632H46.8075L46.9803 12.9607L47.1531 12.7838V11.3027V9.82158L46.9762 9.64878L46.7993 9.47599H42.7591H38.719V6.57546V3.67494H43.1047H47.4946L47.6715 3.52683L47.8525 3.38283V1.88525V0.387678L47.6797 0.22311L47.5028 0.0585403H41.4138L35.3247 0.0626545L35.1725 0.239567Z" fill="url(#paint2_linear_1_130)"/>
<path d="M51.7271 0.231339L51.5543 0.404135V1.8976V3.38694L51.723 3.54328L51.8958 3.69551L55.6932 3.71608L59.4906 3.73665L59.3261 4.02465C59.2314 4.18099 59.034 4.55127 58.8858 4.84749C58.5402 5.53456 57.9684 6.6166 57.5405 7.39831C57.162 8.08949 56.9316 8.52972 56.9192 8.59143C56.9151 8.61611 56.8082 8.82183 56.6765 9.05634L56.442 9.47599H54.64H52.8379L52.6693 9.66524L52.5006 9.85861V11.3233V12.7838L52.6734 12.9607L52.8462 13.1376H53.706H54.5618L54.3684 13.4956C54.2615 13.6972 54.1051 13.9769 54.0228 14.1251C53.9364 14.2732 53.7102 14.6969 53.5209 15.0713C53.3275 15.4457 52.9243 16.2027 52.624 16.7582C52.3237 17.3136 51.904 18.0994 51.6983 18.5067C51.4926 18.914 51.2828 19.3131 51.2334 19.3913C51.147 19.5311 51.1429 19.5723 51.1429 20.8929L51.147 22.2506L51.3116 22.4275L51.4761 22.6003H57.7297H63.9834L64.1685 22.4275L64.3495 22.2589V20.7613V19.2678L64.1808 19.1115L64.008 18.9593L59.7786 18.9387L55.5451 18.9181L55.9359 18.1981C56.1499 17.8032 56.4831 17.1737 56.6724 16.7993C57.1126 15.9271 57.8408 14.5406 58.2152 13.8576C58.3757 13.5614 58.5197 13.2816 58.532 13.2282L58.5567 13.1376H60.3958H62.2348L62.4076 12.9607L62.5804 12.7838V11.3274V9.86684L62.4117 9.67347L62.2472 9.47599L61.3461 9.46776L60.4492 9.45541L60.7784 8.83828C60.9594 8.4968 61.2474 7.96195 61.4202 7.64516C61.593 7.32836 61.8728 6.7894 62.0456 6.45204C62.2184 6.11056 62.5804 5.4276 62.8478 4.92978C63.1153 4.43196 63.4608 3.78191 63.6172 3.4898L63.8928 2.95495V1.67954V0.404135L63.7283 0.227224L63.5637 0.0544262H57.7339L51.904 0.0585403L51.7271 0.231339Z" fill="url(#paint3_linear_1_130)"/>
<path d="M67.0728 0.27248C66.9988 0.391792 66.9412 0.511105 66.9412 0.535789C66.9412 0.560476 66.9864 0.679789 67.0399 0.799101C67.0934 0.922527 67.2127 1.19818 67.3032 1.41212C67.3937 1.62606 67.5748 2.02514 67.7023 2.29668C67.8298 2.56821 68.0273 2.99198 68.1425 3.24295C68.2577 3.4898 68.4264 3.86008 68.5251 4.06579C68.6198 4.26739 68.7432 4.54715 68.8049 4.68292C69.1135 5.3988 69.4303 6.0941 70.2737 7.89201C70.3683 8.09361 70.5123 8.41863 70.5905 8.612C70.6728 8.80537 70.932 9.37724 71.1665 9.88741C71.8206 11.2862 72.2732 12.2819 72.3102 12.393C72.3267 12.4506 72.4048 12.6234 72.4789 12.7838L72.6188 13.0718V17.6633L72.6229 22.2506L72.7875 22.4234L72.952 22.6003H74.4702H75.9924L76.1364 22.444L76.2763 22.2918L76.2804 17.7168V13.1459L76.482 12.718C76.8811 11.8705 77.4448 10.6444 77.4941 10.5045C77.5517 10.3441 77.8685 9.64056 78.029 9.30319C78.2018 8.95348 79.1439 6.8758 79.2015 6.71946C79.2344 6.64129 79.4196 6.22575 79.6212 5.80199C79.8187 5.37411 79.9832 5.02029 79.9832 5.01206C79.9832 5.00383 80.1519 4.64178 80.3576 4.20156C80.5633 3.76545 80.7773 3.29232 80.8308 3.15243C80.8842 3.01255 81.0653 2.60113 81.2381 2.23496C81.4068 1.8688 81.5466 1.56434 81.5466 1.55612C81.5466 1.54789 81.6577 1.30515 81.7935 1.02127L82.0445 0.50699L81.9375 0.391792C81.8799 0.33008 81.8099 0.231339 81.7811 0.16551L81.7318 0.0544262H80.0367C79.1028 0.0544262 78.3375 0.0708828 78.3375 0.0873413C78.3375 0.107912 78.2923 0.144939 78.2347 0.169624C78.1277 0.218996 77.7986 0.852585 77.5353 1.51497C77.4736 1.67131 77.3296 1.99634 77.2144 2.23496C77.1033 2.47359 76.914 2.88089 76.7947 3.14009C76.6754 3.39929 76.4779 3.82717 76.3504 4.08636C76.0336 4.75698 75.8238 5.20954 75.8114 5.25891C75.7991 5.30828 75.7538 5.41114 75.3424 6.30804C75.1614 6.703 74.8939 7.27899 74.7499 7.58345C74.6018 7.8879 74.4743 8.16766 74.462 8.20058C74.4414 8.25818 74.1575 7.70687 74.0793 7.4559C74.0629 7.40242 73.8818 6.99511 73.6761 6.55489C72.9644 5.00795 72.446 3.85596 72.3308 3.57208C72.2691 3.41163 72.1004 3.03312 71.9605 2.72867C71.8206 2.42422 71.5614 1.85645 71.3845 1.47383C71.2076 1.0871 71.006 0.646873 70.9361 0.494648C70.8497 0.313623 70.7715 0.198425 70.7057 0.169624C70.6481 0.144939 70.6028 0.107912 70.6028 0.0873413C70.6028 0.0708828 69.8376 0.0544262 68.9036 0.0544262H67.2045L67.0728 0.27248Z" fill="url(#paint4_linear_1_130)"/>
<defs>
<linearGradient id="paint0_linear_1_130" x1="8.45941" y1="22.6003" x2="8.45941" y2="0.0544281" gradientUnits="userSpaceOnUse">
<stop stop-color="#E8F2F9"/>
<stop offset="1" stop-color="#A7B1B7"/>
</linearGradient>
<linearGradient id="paint1_linear_1_130" x1="25.2242" y1="22.6003" x2="25.2242" y2="0.0544281" gradientUnits="userSpaceOnUse">
<stop stop-color="#E8F2F9"/>
<stop offset="1" stop-color="#A7B1B7"/>
</linearGradient>
<linearGradient id="paint2_linear_1_130" x1="41.4344" y1="22.6003" x2="41.4344" y2="0.0585423" gradientUnits="userSpaceOnUse">
<stop stop-color="#E8F2F9"/>
<stop offset="1" stop-color="#A7B1B7"/>
</linearGradient>
<linearGradient id="paint3_linear_1_130" x1="57.7462" y1="22.6003" x2="57.7462" y2="0.0544281" gradientUnits="userSpaceOnUse">
<stop stop-color="#E8F2F9"/>
<stop offset="1" stop-color="#A7B1B7"/>
</linearGradient>
<linearGradient id="paint4_linear_1_130" x1="74.4928" y1="22.6003" x2="74.4928" y2="0.0544281" gradientUnits="userSpaceOnUse">
<stop stop-color="#E8F2F9"/>
<stop offset="1" stop-color="#A7B1B7"/>
</linearGradient>
</defs>
</svg>
