<svg width="100" height="100" viewBox="0 0 100 100" fill="none" xmlns="http://www.w3.org/2000/svg">
<path d="M34.5775 1.80997V3.83766H31.1625V1.80997L32.87 0.422607L34.5775 1.80997Z" fill="black"/>
<path d="M41.4015 0.422363H37.9865V3.83742H41.4015V0.422363Z" fill="black"/>
<path d="M46.198 0.422607H48.2257V3.83766H46.198L44.8107 2.13013L46.198 0.422607Z" fill="black"/>
<path d="M51.6579 0.422363H48.2428V3.83742H51.6579V0.422363Z" fill="black"/>
<path d="M55.0715 0.422363H51.6565V3.83742H55.0715V0.422363Z" fill="black"/>
<path d="M65.3128 0.422363H61.8977V3.83742H65.3128V0.422363Z" fill="black"/>
<path d="M31.1605 3.82593H27.7455V7.24098H31.1605V3.82593Z" fill="black"/>
<path d="M34.5775 3.82593H31.1625V7.24098H34.5775V3.82593Z" fill="black"/>
<path d="M44.8215 3.82593H41.4065V7.24098H44.8215V3.82593Z" fill="black"/>
<path d="M55.0742 5.85484V3.82715H51.6592V5.85484L53.3667 7.2422L55.0742 5.85484Z" fill="black"/>
<path d="M61.9019 3.82593H58.4868V7.24098H61.9019V3.82593Z" fill="black"/>
<path d="M31.1605 7.25854H27.7455V10.6736H31.1605V7.25854Z" fill="black"/>
<path d="M34.5775 7.25854H31.1625V10.6736H34.5775V7.25854Z" fill="black"/>
<path d="M41.4015 7.25854H37.9865V10.6736H41.4015V7.25854Z" fill="black"/>
<path d="M51.6555 8.63322V10.6609H48.2405V8.63322L49.948 7.24585L51.6555 8.63322Z" fill="black"/>
<path d="M58.4757 7.25854H55.0607V10.6736H58.4757V7.25854Z" fill="black"/>
<path d="M68.7322 7.25854H65.3171V10.6736H68.7322V7.25854Z" fill="black"/>
<path d="M31.1565 12.7032V10.6755H27.7415V12.7032L29.449 14.0906L31.1565 12.7032Z" fill="black"/>
<path d="M37.9945 10.6719H34.5795V14.0869H37.9945V10.6719Z" fill="black"/>
<path d="M44.8252 12.0629V14.0906H41.4102V12.0629L43.1177 10.6755L44.8252 12.0629Z" fill="black"/>
<path d="M51.6579 10.6719H48.2428V14.0869H51.6579V10.6719Z" fill="black"/>
<path d="M55.0715 10.6719H51.6565V14.0869H55.0715V10.6719Z" fill="black"/>
<path d="M61.9019 10.6719H58.4868V14.0869H61.9019V10.6719Z" fill="black"/>
<path d="M34.5775 15.4726V17.5003H31.1625V15.4726L32.87 14.0852L34.5775 15.4726Z" fill="black"/>
<path d="M44.8215 14.083H41.4065V17.4981H44.8215V14.083Z" fill="black"/>
<path d="M48.251 14.083H44.8359V17.4981H48.251V14.083Z" fill="black"/>
<path d="M51.6579 14.083H48.2428V17.4981H51.6579V14.083Z" fill="black"/>
<path d="M55.0715 14.083H51.6565V17.4981H55.0715V14.083Z" fill="black"/>
<path d="M66.7038 14.0852H68.7315V17.5003H66.7038L65.3164 15.7927L66.7038 14.0852Z" fill="black"/>
<path d="M72.1465 14.083H68.7314V17.4981H72.1465V14.083Z" fill="black"/>
<path d="M34.5775 19.5265V17.4988H31.1625V19.5265L32.87 20.9138L34.5775 19.5265Z" fill="black"/>
<path d="M48.251 17.5056H44.8359V20.9207H48.251V17.5056Z" fill="black"/>
<path d="M51.6579 17.5056H48.2428V20.9207H51.6579V17.5056Z" fill="black"/>
<path d="M58.4757 17.5056H55.0607V20.9207H58.4757V17.5056Z" fill="black"/>
<path d="M60.5262 17.4988H58.4985V20.9138H60.5262L61.9136 19.2063L60.5262 17.4988Z" fill="black"/>
<path d="M72.1465 17.5056H68.7314V20.9207H72.1465V17.5056Z" fill="black"/>
<path d="M31.1565 22.2941V24.3218H27.7415V22.2941L29.449 20.9067L31.1565 22.2941Z" fill="black"/>
<path d="M37.9872 22.2941V24.3218H34.5721V22.2941L36.2797 20.9067L37.9872 22.2941Z" fill="black"/>
<path d="M44.8215 20.9136H41.4065V24.3286H44.8215V20.9136Z" fill="black"/>
<path d="M51.6555 22.9344V20.9067H48.2405V22.9344L49.948 24.3218L51.6555 22.9344Z" fill="black"/>
<path d="M58.4734 22.9344V20.9067H55.0583V22.9344L56.7659 24.3218L58.4734 22.9344Z" fill="black"/>
<path d="M65.3041 22.2941V24.3218H61.889V22.2941L63.5966 20.9067L65.3041 22.2941Z" fill="black"/>
<path d="M72.1465 20.9136H68.7314V24.3286H72.1465V20.9136Z" fill="black"/>
<path d="M31.1605 24.3396H27.7455V27.7547H31.1605V24.3396Z" fill="black"/>
<path d="M37.9872 26.3644V24.3367H34.5721V26.3644L36.2797 27.7517L37.9872 26.3644Z" fill="black"/>
<path d="M48.251 24.3396H44.8359V27.7547H48.251V24.3396Z" fill="black"/>
<path d="M65.3041 26.3644V24.3367H61.889V26.3644L63.5966 27.7517L65.3041 26.3644Z" fill="black"/>
<path d="M72.1471 26.3644V24.3367H68.7321V26.3644L70.4396 27.7517L72.1471 26.3644Z" fill="black"/>
<path d="M3.84035 29.1335V31.1611H0.425293V29.1335L2.13282 27.7461L3.84035 29.1335Z" fill="black"/>
<path d="M24.3369 27.7397H20.9219V31.1548H24.3369V27.7397Z" fill="black"/>
<path d="M31.1605 27.7397H27.7455V31.1548H31.1605V27.7397Z" fill="black"/>
<path d="M34.5775 27.7397H31.1625V31.1548H34.5775V27.7397Z" fill="black"/>
<path d="M41.4015 27.7397H37.9865V31.1548H41.4015V27.7397Z" fill="black"/>
<path d="M43.4378 27.7461H41.4102V31.1611H43.4378L44.8252 29.4536L43.4378 27.7461Z" fill="black"/>
<path d="M51.6579 27.7397H48.2428V31.1548H51.6579V27.7397Z" fill="black"/>
<path d="M53.6869 27.7461H51.6592V31.1611H53.6869L55.0742 29.4536L53.6869 27.7461Z" fill="black"/>
<path d="M73.5341 27.7461H75.5618V31.1611H73.5341L72.1467 29.4536L73.5341 27.7461Z" fill="black"/>
<path d="M77.588 27.7461H75.5603V31.1611H77.588L78.9754 29.4536L77.588 27.7461Z" fill="black"/>
<path d="M87.1919 27.7461H89.2196V31.1611H87.1919L85.8046 29.4536L87.1919 27.7461Z" fill="black"/>
<path d="M92.637 27.7397H89.2219V31.1548H92.637V27.7397Z" fill="black"/>
<path d="M96.0537 27.7397H92.6387V31.1548H96.0537V27.7397Z" fill="black"/>
<path d="M3.83998 31.1633H0.424927V34.5784H3.83998V31.1633Z" fill="black"/>
<path d="M7.26271 31.1633H3.84766V34.5784H7.26271V31.1633Z" fill="black"/>
<path d="M10.6797 31.1633H7.26465V34.5784H10.6797V31.1633Z" fill="black"/>
<path d="M14.093 31.1633H10.678V34.5784H14.093V31.1633Z" fill="black"/>
<path d="M17.5033 31.1633H14.0883V34.5784H17.5033V31.1633Z" fill="black"/>
<path d="M19.5366 31.1599H17.5089V34.575H19.5366L20.924 32.8674L19.5366 31.1599Z" fill="black"/>
<path d="M34.5775 31.1633H31.1625V34.5784H34.5775V31.1633Z" fill="black"/>
<path d="M41.4015 31.1633H37.9865V34.5784H41.4015V31.1633Z" fill="black"/>
<path d="M51.6555 33.1949V31.1672H48.2405V33.1949L49.948 34.5823L51.6555 33.1949Z" fill="black"/>
<path d="M61.9136 32.5473V34.575H58.4985V32.5473L60.2061 31.1599L61.9136 32.5473Z" fill="black"/>
<path d="M68.7322 31.1633H65.3171V34.5784H68.7322V31.1633Z" fill="black"/>
<path d="M85.8135 32.5473V34.575H82.3984V32.5473L84.106 31.1599L85.8135 32.5473Z" fill="black"/>
<path d="M92.637 31.1633H89.2219V34.5784H92.637V31.1633Z" fill="black"/>
<path d="M96.0537 31.1633H92.6387V34.5784H96.0537V31.1633Z" fill="black"/>
<path d="M3.83998 34.5701H0.424927V37.9851H3.83998V34.5701Z" fill="black"/>
<path d="M7.26271 34.5701H3.84766V37.9851H7.26271V34.5701Z" fill="black"/>
<path d="M10.6797 34.5701H7.26465V37.9851H10.6797V34.5701Z" fill="black"/>
<path d="M24.3369 34.5701H20.9219V37.9851H24.3369V34.5701Z" fill="black"/>
<path d="M29.1288 34.564H31.1565V37.979H29.1288L27.7415 36.2715L29.1288 34.564Z" fill="black"/>
<path d="M34.5775 34.5701H31.1625V37.9851H34.5775V34.5701Z" fill="black"/>
<path d="M41.4015 34.5701H37.9865V37.9851H41.4015V34.5701Z" fill="black"/>
<path d="M43.4378 34.564H41.4102V37.979H43.4378L44.8252 36.2715L43.4378 34.564Z" fill="black"/>
<path d="M61.9136 36.5917V34.564H58.4985V36.5917L60.2061 37.979L61.9136 36.5917Z" fill="black"/>
<path d="M78.9761 34.5701H75.561V37.9851H78.9761V34.5701Z" fill="black"/>
<path d="M82.3837 34.5701H78.9686V37.9851H82.3837V34.5701Z" fill="black"/>
<path d="M85.8131 34.5701H82.3981V37.9851H85.8131V34.5701Z" fill="black"/>
<path d="M10.6797 37.9902H7.26465V41.4053H10.6797V37.9902Z" fill="black"/>
<path d="M12.7097 37.9866H10.682V41.4016H12.7097L14.0971 39.6941L12.7097 37.9866Z" fill="black"/>
<path d="M27.747 39.3739V41.4016H24.3319V39.3739L26.0394 37.9866L27.747 39.3739Z" fill="black"/>
<path d="M41.4028 40.0233V37.9956H37.9878V40.0233L39.6953 41.4107L41.4028 40.0233Z" fill="black"/>
<path d="M51.6579 37.9902H48.2428V41.4053H51.6579V37.9902Z" fill="black"/>
<path d="M55.0715 37.9902H51.6565V41.4053H55.0715V37.9902Z" fill="black"/>
<path d="M57.086 37.9866H55.0583V41.4016H57.086L58.4734 39.6941L57.086 37.9866Z" fill="black"/>
<path d="M68.7322 37.9902H65.3171V41.4053H68.7322V37.9902Z" fill="black"/>
<path d="M73.5341 37.9866H75.5618V41.4016H73.5341L72.1467 39.6941L73.5341 37.9866Z" fill="black"/>
<path d="M78.9761 37.9902H75.561V41.4053H78.9761V37.9902Z" fill="black"/>
<path d="M82.3837 37.9907H78.9686V41.4058H82.3837V37.9907Z" fill="black"/>
<path d="M85.8131 37.9902H82.3981V41.4053H85.8131V37.9902Z" fill="black"/>
<path d="M87.8323 37.9956H85.8046V41.4107H87.8323L89.2196 39.7031L87.8323 37.9956Z" fill="black"/>
<path d="M10.6887 43.4273V41.3997H7.27368V43.4273L8.98121 44.8147L10.6887 43.4273Z" fill="black"/>
<path d="M17.5033 41.4004H14.0883V44.8154H17.5033V41.4004Z" fill="black"/>
<path d="M20.917 41.4004H17.502V44.8154H20.917V41.4004Z" fill="black"/>
<path d="M24.3369 41.4004H20.9219V44.8154H24.3369V41.4004Z" fill="black"/>
<path d="M27.7539 41.4004H24.3389V44.8154H27.7539V41.4004Z" fill="black"/>
<path d="M31.1605 41.4004H27.7455V44.8154H31.1605V41.4004Z" fill="black"/>
<path d="M33.1902 41.3997H31.1625V44.8147H33.1902L34.5775 43.1072L33.1902 41.3997Z" fill="black"/>
<path d="M42.7975 41.3997H44.8252V44.8147H42.7975L41.4102 43.1072L42.7975 41.3997Z" fill="black"/>
<path d="M48.251 41.4004H44.8359V44.8154H48.251V41.4004Z" fill="black"/>
<path d="M51.6579 41.4004H48.2428V44.8154H51.6579V41.4004Z" fill="black"/>
<path d="M78.9761 41.4004H75.561V44.8154H78.9761V41.4004Z" fill="black"/>
<path d="M82.3837 41.3999H78.9686V44.815H82.3837V41.3999Z" fill="black"/>
<path d="M99.4633 42.787V44.8147H96.0482V42.787L97.7557 41.3997L99.4633 42.787Z" fill="black"/>
<path d="M12.0694 44.8171H14.0971V48.2322H12.0694L10.682 46.5247L12.0694 44.8171Z" fill="black"/>
<path d="M17.5033 44.8174H14.0883V48.2324H17.5033V44.8174Z" fill="black"/>
<path d="M27.7539 44.8174H24.3389V48.2324H27.7539V44.8174Z" fill="black"/>
<path d="M31.1605 44.8174H27.7455V48.2324H31.1605V44.8174Z" fill="black"/>
<path d="M41.4028 46.2045V48.2322H37.9878V46.2045L39.6953 44.8171L41.4028 46.2045Z" fill="black"/>
<path d="M48.251 44.8174H44.8359V48.2324H48.251V44.8174Z" fill="black"/>
<path d="M51.6579 44.8174H48.2428V48.2324H51.6579V44.8174Z" fill="black"/>
<path d="M66.7038 44.8171H68.7315V48.2322H66.7038L65.3164 46.5247L66.7038 44.8171Z" fill="black"/>
<path d="M72.1465 44.8174H68.7314V48.2324H72.1465V44.8174Z" fill="black"/>
<path d="M78.9761 44.8174H75.561V48.2324H78.9761V44.8174Z" fill="black"/>
<path d="M82.3837 44.8169H78.9686V48.2319H82.3837V44.8169Z" fill="black"/>
<path d="M85.8131 44.8174H82.3981V48.2324H85.8131V44.8174Z" fill="black"/>
<path d="M94.0334 44.8171H96.0611V48.2322H94.0334L92.646 46.5247L94.0334 44.8171Z" fill="black"/>
<path d="M99.4579 44.8174H96.0428V48.2324H99.4579V44.8174Z" fill="black"/>
<path d="M3.83998 48.2375H0.424927V51.6526H3.83998V48.2375Z" fill="black"/>
<path d="M10.6887 49.6252V51.6528H7.27368V49.6252L8.98121 48.2378L10.6887 49.6252Z" fill="black"/>
<path d="M17.5066 50.2655V48.2378H14.0916V50.2655L15.7991 51.6528L17.5066 50.2655Z" fill="black"/>
<path d="M22.3096 48.2378H24.3373V51.6528H22.3096L20.9222 49.9453L22.3096 48.2378Z" fill="black"/>
<path d="M27.7539 48.2375H24.3389V51.6526H27.7539V48.2375Z" fill="black"/>
<path d="M34.5775 48.2375H31.1625V51.6526H34.5775V48.2375Z" fill="black"/>
<path d="M41.4028 50.2655V48.2378H37.9878V50.2655L39.6953 51.6528L41.4028 50.2655Z" fill="black"/>
<path d="M48.251 48.2375H44.8359V51.6526H48.251V48.2375Z" fill="black"/>
<path d="M51.6579 48.2375H48.2428V51.6526H51.6579V48.2375Z" fill="black"/>
<path d="M55.0715 48.2375H51.6565V51.6526H55.0715V48.2375Z" fill="black"/>
<path d="M58.4757 48.2375H55.0607V51.6526H58.4757V48.2375Z" fill="black"/>
<path d="M61.9019 48.2375H58.4868V51.6526H61.9019V48.2375Z" fill="black"/>
<path d="M63.9167 48.2378H61.889V51.6528H63.9167L65.3041 49.9453L63.9167 48.2378Z" fill="black"/>
<path d="M72.1465 48.2375H68.7314V51.6526H72.1465V48.2375Z" fill="black"/>
<path d="M74.1744 48.2378H72.1467V51.6528H74.1744L75.5618 49.9453L74.1744 48.2378Z" fill="black"/>
<path d="M82.3837 48.2375H78.9686V51.6526H82.3837V48.2375Z" fill="black"/>
<path d="M85.8131 48.2375H82.3981V51.6526H85.8131V48.2375Z" fill="black"/>
<path d="M89.2298 48.2375H85.8147V51.6526H89.2298V48.2375Z" fill="black"/>
<path d="M92.637 48.2375H89.2219V51.6526H92.637V48.2375Z" fill="black"/>
<path d="M10.6887 53.6751V51.6475H7.27368V53.6751L8.98121 55.0625L10.6887 53.6751Z" fill="black"/>
<path d="M20.917 51.6443H17.502V55.0593H20.917V51.6443Z" fill="black"/>
<path d="M42.7975 51.6511H44.8252V55.0662H42.7975L41.4102 53.3587L42.7975 51.6511Z" fill="black"/>
<path d="M48.251 51.6443H44.8359V55.0593H48.251V51.6443Z" fill="black"/>
<path d="M51.6579 51.6443H48.2428V55.0593H51.6579V51.6443Z" fill="black"/>
<path d="M58.4734 53.6788V51.6511H55.0583V53.6788L56.7659 55.0662L58.4734 53.6788Z" fill="black"/>
<path d="M68.7315 53.0385V55.0662H65.3164V53.0385L67.0239 51.6511L68.7315 53.0385Z" fill="black"/>
<path d="M82.3783 53.6788V51.6511H78.9633V53.6788L80.6708 55.0662L82.3783 53.6788Z" fill="black"/>
<path d="M92.637 51.6443H89.2219V55.0593H92.637V51.6443Z" fill="black"/>
<path d="M99.4579 51.6443H96.0428V55.0593H99.4579V51.6443Z" fill="black"/>
<path d="M3.83998 55.0681H0.424927V58.4832H3.83998V55.0681Z" fill="black"/>
<path d="M5.8502 55.0684H3.82251V58.4834H5.8502L7.23756 56.7759L5.8502 55.0684Z" fill="black"/>
<path d="M14.093 55.0681H10.678V58.4832H14.093V55.0681Z" fill="black"/>
<path d="M24.3369 55.0681H20.9219V58.4832H24.3369V55.0681Z" fill="black"/>
<path d="M51.6579 55.0681H48.2428V58.4832H51.6579V55.0681Z" fill="black"/>
<path d="M53.6869 55.0684H51.6592V58.4834H53.6869L55.0742 56.7759L53.6869 55.0684Z" fill="black"/>
<path d="M61.9019 55.0681H58.4868V58.4832H61.9019V55.0681Z" fill="black"/>
<path d="M68.7322 55.0681H65.3171V58.4832H68.7322V55.0681Z" fill="black"/>
<path d="M87.1919 55.0684H89.2196V58.4834H87.1919L85.8046 56.7759L87.1919 55.0684Z" fill="black"/>
<path d="M92.637 55.0681H89.2219V58.4832H92.637V55.0681Z" fill="black"/>
<path d="M3.83998 58.4785H0.424927V61.8936H3.83998V58.4785Z" fill="black"/>
<path d="M10.6887 59.8654V61.8931H7.27368V59.8654L8.98121 58.478L10.6887 59.8654Z" fill="black"/>
<path d="M17.5066 59.8654V61.8931H14.0916V59.8654L15.7991 58.478L17.5066 59.8654Z" fill="black"/>
<path d="M31.1565 59.8654V61.8931H27.7415V59.8654L29.449 58.478L31.1565 59.8654Z" fill="black"/>
<path d="M37.9945 58.4785H34.5795V61.8936H37.9945V58.4785Z" fill="black"/>
<path d="M44.8252 59.8654V61.8931H41.4102V59.8654L43.1177 58.478L44.8252 59.8654Z" fill="black"/>
<path d="M58.4734 59.8654V61.8931H55.0583V59.8654L56.7659 58.478L58.4734 59.8654Z" fill="black"/>
<path d="M68.7322 58.4785H65.3171V61.8936H68.7322V58.4785Z" fill="black"/>
<path d="M72.1465 58.4785H68.7314V61.8936H72.1465V58.4785Z" fill="black"/>
<path d="M75.5691 58.4785H72.1541V61.8936H75.5691V58.4785Z" fill="black"/>
<path d="M78.9761 58.4785H75.561V61.8936H78.9761V58.4785Z" fill="black"/>
<path d="M82.3837 58.4788H78.9686V61.8938H82.3837V58.4788Z" fill="black"/>
<path d="M84.4261 58.478H82.3984V61.8931H84.4261L85.8135 60.1856L84.4261 58.478Z" fill="black"/>
<path d="M92.637 58.4814H89.2219V61.8965H92.637V58.4814Z" fill="black"/>
<path d="M96.0537 58.4785H92.6387V61.8936H96.0537V58.4785Z" fill="black"/>
<path d="M99.4579 58.4785H96.0428V61.8936H99.4579V58.4785Z" fill="black"/>
<path d="M3.83998 61.8884H0.424927V65.3035H3.83998V61.8884Z" fill="black"/>
<path d="M7.26271 61.8884H3.84766V65.3035H7.26271V61.8884Z" fill="black"/>
<path d="M10.6797 61.8884H7.26465V65.3035H10.6797V61.8884Z" fill="black"/>
<path d="M14.093 61.8884H10.678V65.3035H14.093V61.8884Z" fill="black"/>
<path d="M17.5033 61.8884H14.0883V65.3035H17.5033V61.8884Z" fill="black"/>
<path d="M20.917 61.8884H17.502V65.3035H20.917V61.8884Z" fill="black"/>
<path d="M22.9499 61.8914H20.9222V65.3064H22.9499L24.3373 63.5989L22.9499 61.8914Z" fill="black"/>
<path d="M31.1565 63.919V61.8914H27.7415V63.919L29.449 65.3064L31.1565 63.919Z" fill="black"/>
<path d="M44.8215 61.8884H41.4065V65.3035H44.8215V61.8884Z" fill="black"/>
<path d="M48.251 61.8884H44.8359V65.3035H48.251V61.8884Z" fill="black"/>
<path d="M51.6579 61.8884H48.2428V65.3035H51.6579V61.8884Z" fill="black"/>
<path d="M58.4757 61.8884H55.0607V65.3035H58.4757V61.8884Z" fill="black"/>
<path d="M60.5262 61.8914H58.4985V65.3064H60.5262L61.9136 63.5989L60.5262 61.8914Z" fill="black"/>
<path d="M68.7322 61.8884H65.3171V65.3035H68.7322V61.8884Z" fill="black"/>
<path d="M72.1465 61.8884H68.7314V65.3035H72.1465V61.8884Z" fill="black"/>
<path d="M78.9761 61.8884H75.561V65.3035H78.9761V61.8884Z" fill="black"/>
<path d="M82.3837 61.8884H78.9686V65.3035H82.3837V61.8884Z" fill="black"/>
<path d="M89.2298 61.8884H85.8147V65.3035H89.2298V61.8884Z" fill="black"/>
<path d="M99.4633 63.919V61.8914H96.0482V63.919L97.7557 65.3064L99.4633 63.919Z" fill="black"/>
<path d="M3.83998 65.3152H0.424927V68.7302H3.83998V65.3152Z" fill="black"/>
<path d="M10.6797 65.3152H7.26465V68.7302H10.6797V65.3152Z" fill="black"/>
<path d="M17.5033 65.3152H14.0883V68.7302H17.5033V65.3152Z" fill="black"/>
<path d="M20.917 65.3152H17.502V68.7302H20.917V65.3152Z" fill="black"/>
<path d="M27.7539 65.3152H24.3389V68.7302H27.7539V65.3152Z" fill="black"/>
<path d="M35.9595 65.3083H37.9872V68.7234H35.9595L34.5721 67.0159L35.9595 65.3083Z" fill="black"/>
<path d="M40.0155 65.3083H37.9878V68.7234H40.0155L41.4028 67.0159L40.0155 65.3083Z" fill="black"/>
<path d="M51.6579 65.3152H48.2428V68.7302H51.6579V65.3152Z" fill="black"/>
<path d="M55.0715 65.3152H51.6565V68.7302H55.0715V65.3152Z" fill="black"/>
<path d="M58.4757 65.3152H55.0607V68.7302H58.4757V65.3152Z" fill="black"/>
<path d="M65.3128 65.3152H61.8977V68.7302H65.3128V65.3152Z" fill="black"/>
<path d="M72.1465 65.3152H68.7314V68.7302H72.1465V65.3152Z" fill="black"/>
<path d="M75.5691 65.3152H72.1541V68.7302H75.5691V65.3152Z" fill="black"/>
<path d="M82.3837 65.3152H78.9686V68.7302H82.3837V65.3152Z" fill="black"/>
<path d="M3.84035 70.7572V68.7295H0.425293V70.7572L2.13282 72.1445L3.84035 70.7572Z" fill="black"/>
<path d="M10.6797 68.7219H7.26465V72.137H10.6797V68.7219Z" fill="black"/>
<path d="M12.7097 68.7295H10.682V72.1445H12.7097L14.0971 70.437L12.7097 68.7295Z" fill="black"/>
<path d="M24.3369 68.7219H20.9219V72.137H24.3369V68.7219Z" fill="black"/>
<path d="M61.9019 68.7219H58.4868V72.137H61.9019V68.7219Z" fill="black"/>
<path d="M72.1465 68.7219H68.7314V72.137H72.1465V68.7219Z" fill="black"/>
<path d="M75.5691 68.7219H72.1541V72.137H75.5691V68.7219Z" fill="black"/>
<path d="M78.9761 68.7219H75.561V72.137H78.9761V68.7219Z" fill="black"/>
<path d="M82.3837 68.7219H78.9686V72.137H82.3837V68.7219Z" fill="black"/>
<path d="M85.8131 68.7219H82.3981V72.137H85.8131V68.7219Z" fill="black"/>
<path d="M90.605 68.7295H92.6327V72.1445H90.605L89.2177 70.437L90.605 68.7295Z" fill="black"/>
<path d="M96.0537 68.7219H92.6387V72.137H96.0537V68.7219Z" fill="black"/>
<path d="M98.0759 68.7295H96.0482V72.1445H98.0759L99.4633 70.437L98.0759 68.7295Z" fill="black"/>
<path d="M29.1288 72.1428H31.1565V75.5579H29.1288L27.7415 73.8503L29.1288 72.1428Z" fill="black"/>
<path d="M34.5775 72.1423H31.1625V75.5574H34.5775V72.1423Z" fill="black"/>
<path d="M37.9945 72.1423H34.5795V75.5574H37.9945V72.1423Z" fill="black"/>
<path d="M42.7975 72.1428H44.8252V75.5579H42.7975L41.4102 73.8503L42.7975 72.1428Z" fill="black"/>
<path d="M48.251 72.1423H44.8359V75.5574H48.251V72.1423Z" fill="black"/>
<path d="M58.4734 73.5302V75.5579H55.0583V73.5302L56.7659 72.1428L58.4734 73.5302Z" fill="black"/>
<path d="M72.1465 72.1423H68.7314V75.5574H72.1465V72.1423Z" fill="black"/>
<path d="M85.8131 72.1423H82.3981V75.5574H85.8131V72.1423Z" fill="black"/>
<path d="M89.2298 72.1423H85.8147V75.5574H89.2298V72.1423Z" fill="black"/>
<path d="M34.5775 75.5493H31.1625V78.9644H34.5775V75.5493Z" fill="black"/>
<path d="M37.9945 75.5466H34.5795V78.9617H37.9945V75.5466Z" fill="black"/>
<path d="M48.251 75.5466H44.8359V78.9617H48.251V75.5466Z" fill="black"/>
<path d="M51.6579 75.5493H48.2428V78.9644H51.6579V75.5493Z" fill="black"/>
<path d="M55.0715 75.5466H51.6565V78.9617H55.0715V75.5466Z" fill="black"/>
<path d="M58.4757 75.5493H55.0607V78.9644H58.4757V75.5493Z" fill="black"/>
<path d="M68.7322 75.5493H65.3171V78.9644H68.7322V75.5493Z" fill="black"/>
<path d="M72.1465 75.5466H68.7314V78.9617H72.1465V75.5466Z" fill="black"/>
<path d="M78.9761 75.5493H75.561V78.9644H78.9761V75.5493Z" fill="black"/>
<path d="M85.8131 75.5493H82.3981V78.9644H85.8131V75.5493Z" fill="black"/>
<path d="M89.2298 75.5466H85.8147V78.9617H89.2298V75.5466Z" fill="black"/>
<path d="M91.2453 75.5601H89.2177V78.9751H91.2453L92.6327 77.2676L91.2453 75.5601Z" fill="black"/>
<path d="M34.5775 78.9727H31.1625V82.3877H34.5775V78.9727Z" fill="black"/>
<path d="M37.9945 78.9727H34.5795V82.3877H37.9945V78.9727Z" fill="black"/>
<path d="M40.0155 78.9692H37.9878V82.3843H40.0155L41.4028 80.6768L40.0155 78.9692Z" fill="black"/>
<path d="M48.251 78.9727H44.8359V82.3877H48.251V78.9727Z" fill="black"/>
<path d="M55.0715 78.9727H51.6565V82.3877H55.0715V78.9727Z" fill="black"/>
<path d="M58.4757 78.9727H55.0607V82.3877H58.4757V78.9727Z" fill="black"/>
<path d="M68.7322 78.9727H65.3171V82.3877H68.7322V78.9727Z" fill="black"/>
<path d="M72.1465 78.9727H68.7314V82.3877H72.1465V78.9727Z" fill="black"/>
<path d="M85.8131 78.9727H82.3981V82.3877H85.8131V78.9727Z" fill="black"/>
<path d="M94.0334 78.9692H96.0611V82.3843H94.0334L92.646 80.6768L94.0334 78.9692Z" fill="black"/>
<path d="M98.0759 78.9692H96.0482V82.3843H98.0759L99.4633 80.6768L98.0759 78.9692Z" fill="black"/>
<path d="M34.5775 82.3796H31.1625V85.7947H34.5775V82.3796Z" fill="black"/>
<path d="M48.2257 84.4071V82.3794H44.8107V84.4071L46.5182 85.7944L48.2257 84.4071Z" fill="black"/>
<path d="M58.4757 82.3796H55.0607V85.7947H58.4757V82.3796Z" fill="black"/>
<path d="M68.7322 82.3796H65.3171V85.7947H68.7322V82.3796Z" fill="black"/>
<path d="M72.1465 82.3796H68.7314V85.7947H72.1465V82.3796Z" fill="black"/>
<path d="M75.5691 82.3796H72.1541V85.7947H75.5691V82.3796Z" fill="black"/>
<path d="M78.9761 82.3796H75.561V85.7947H78.9761V82.3796Z" fill="black"/>
<path d="M82.3837 82.3796H78.9686V85.7947H82.3837V82.3796Z" fill="black"/>
<path d="M85.8131 82.3796H82.3981V85.7947H85.8131V82.3796Z" fill="black"/>
<path d="M89.2298 82.3796H85.8147V85.7947H89.2298V82.3796Z" fill="black"/>
<path d="M34.5775 87.8202V85.7925H31.1625V87.8202L32.87 89.2075L34.5775 87.8202Z" fill="black"/>
<path d="M41.4028 87.1798V89.2075H37.9878V87.1798L39.6953 85.7925L41.4028 87.1798Z" fill="black"/>
<path d="M55.0715 85.8022H51.6565V89.2173H55.0715V85.8022Z" fill="black"/>
<path d="M58.4757 85.8022H55.0607V89.2173H58.4757V85.8022Z" fill="black"/>
<path d="M65.3128 85.8022H61.8977V89.2173H65.3128V85.8022Z" fill="black"/>
<path d="M75.5691 85.8022H72.1541V89.2173H75.5691V85.8022Z" fill="black"/>
<path d="M89.2298 85.8022H85.8147V89.2173H89.2298V85.8022Z" fill="black"/>
<path d="M92.637 85.8022H89.2219V89.2173H92.637V85.8022Z" fill="black"/>
<path d="M96.0537 85.8022H92.6387V89.2173H96.0537V85.8022Z" fill="black"/>
<path d="M37.9945 89.21H34.5795V92.625H37.9945V89.21Z" fill="black"/>
<path d="M41.4015 89.21H37.9865V92.625H41.4015V89.21Z" fill="black"/>
<path d="M55.0715 89.21H51.6565V92.625H55.0715V89.21Z" fill="black"/>
<path d="M58.4757 89.21H55.0607V92.625H58.4757V89.21Z" fill="black"/>
<path d="M66.7038 89.2224H68.7315V92.6375H66.7038L65.3164 90.9299L66.7038 89.2224Z" fill="black"/>
<path d="M72.1465 89.21H68.7314V92.625H72.1465V89.21Z" fill="black"/>
<path d="M75.5691 89.21H72.1541V92.625H75.5691V89.21Z" fill="black"/>
<path d="M77.588 89.2224H75.5603V92.6375H77.588L78.9754 90.9299L77.588 89.2224Z" fill="black"/>
<path d="M85.8131 89.21H82.3981V92.625H85.8131V89.21Z" fill="black"/>
<path d="M89.2298 89.21H85.8147V92.625H89.2298V89.21Z" fill="black"/>
<path d="M92.637 89.21H89.2219V92.625H92.637V89.21Z" fill="black"/>
<path d="M96.0537 89.21H92.6387V92.625H96.0537V89.21Z" fill="black"/>
<path d="M32.5498 92.6321H34.5775V96.0471H32.5498L31.1625 94.3396L32.5498 92.6321Z" fill="black"/>
<path d="M37.9945 92.6299H34.5795V96.0449H37.9945V92.6299Z" fill="black"/>
<path d="M41.4015 92.6299H37.9865V96.0449H41.4015V92.6299Z" fill="black"/>
<path d="M51.6579 92.6299H48.2428V96.0449H51.6579V92.6299Z" fill="black"/>
<path d="M58.4734 94.6598V92.6321H55.0583V94.6598L56.7659 96.0471L58.4734 94.6598Z" fill="black"/>
<path d="M65.3128 92.6299H61.8977V96.0449H65.3128V92.6299Z" fill="black"/>
<path d="M75.5691 92.6299H72.1541V96.0449H75.5691V92.6299Z" fill="black"/>
<path d="M85.8131 92.6299H82.3981V96.0449H85.8131V92.6299Z" fill="black"/>
<path d="M89.2298 92.6299H85.8147V96.0449H89.2298V92.6299Z" fill="black"/>
<path d="M92.637 92.6299H89.2219V96.0449H92.637V92.6299Z" fill="black"/>
<path d="M99.4579 92.6299H96.0428V96.0449H99.4579V92.6299Z" fill="black"/>
<path d="M31.1605 96.0496H27.7455V99.4646H31.1605V96.0496Z" fill="black"/>
<path d="M37.9872 98.0716V96.0439H34.5721V98.0716L36.2797 99.459L37.9872 98.0716Z" fill="black"/>
<path d="M48.251 96.0496H44.8359V99.4646H48.251V96.0496Z" fill="black"/>
<path d="M61.9019 96.0496H58.4868V99.4646H61.9019V96.0496Z" fill="black"/>
<path d="M68.7322 96.0496H65.3171V99.4646H68.7322V96.0496Z" fill="black"/>
<path d="M75.5618 98.0716V96.0439H72.1467V98.0716L73.8543 99.459L75.5618 98.0716Z" fill="black"/>
<path d="M80.3506 96.0439H82.3783V99.459H80.3506L78.9633 97.7515L80.3506 96.0439Z" fill="black"/>
<path d="M85.8131 96.0496H82.3981V99.4646H85.8131V96.0496Z" fill="black"/>
<path d="M89.2298 96.0496H85.8147V99.4646H89.2298V96.0496Z" fill="black"/>
<path d="M92.637 96.0496H89.2219V99.4646H92.637V96.0496Z" fill="black"/>
<path d="M16.1689 0.422607H8.58659C4.89129 0.422607 1.76064 2.86406 0.759724 6.20102C0.656214 6.54621 0.575414 6.90097 0.519236 7.26361C0.457321 7.66379 0.425049 8.07353 0.425049 8.49068V16.253C0.425049 20.7039 4.08735 24.3235 8.58659 24.3235L12.3777 24.3242L16.1689 24.3232C20.6679 24.3232 24.3304 20.7037 24.3304 16.2528V8.49068C24.3304 4.04188 20.6681 0.422607 16.1689 0.422607ZM20.7446 16.253C20.7446 18.7258 18.6921 20.7376 16.1679 20.7376L12.3777 20.7384L8.58754 20.7374C6.06337 20.7374 4.01086 18.7255 4.01086 16.253V8.49068C4.01086 7.71829 4.21118 6.99109 4.56379 6.35569C4.90324 5.74442 5.3835 5.21875 5.96177 4.82072C6.70523 4.30891 7.61053 4.00842 8.58635 4.00842H16.1689C18.6921 4.00842 20.7446 6.0191 20.7446 8.49068V16.253Z" fill="black"/>
<path d="M91.3042 0.422607H83.7218C80.0265 0.422607 76.8959 2.86406 75.895 6.20102C75.7915 6.54621 75.7107 6.90097 75.6545 7.26361C75.5926 7.66379 75.5603 8.07353 75.5603 8.49068V16.253C75.5603 20.7039 79.2226 24.3235 83.7218 24.3235L87.513 24.3242L91.3042 24.3232C95.8031 24.3232 99.4657 20.7037 99.4657 16.2528V8.49068C99.4657 4.04188 95.8034 0.422607 91.3042 0.422607ZM95.8799 16.253C95.8799 18.7258 93.8274 20.7376 91.3032 20.7376L87.513 20.7384L83.7228 20.7374C81.1986 20.7374 79.1461 18.7255 79.1461 16.253V8.49068C79.1461 7.71829 79.3464 6.99109 79.699 6.35569C80.0385 5.74442 80.5188 5.21875 81.097 4.82072C81.8405 4.30891 82.7458 4.00842 83.7216 4.00842H91.3042C93.8274 4.00842 95.8799 6.0191 95.8799 8.49068V16.253Z" fill="black"/>
<path d="M16.1691 75.5601H8.58683C4.89154 75.5601 1.76089 78.0015 0.759968 81.3385C0.656458 81.6837 0.575658 82.0384 0.51948 82.4011C0.457565 82.8012 0.425293 83.211 0.425293 83.6281V91.3904C0.425293 95.8414 4.0876 99.4609 8.58683 99.4609L12.378 99.4616L16.1691 99.4607C20.6681 99.4607 24.3307 95.8411 24.3307 91.3902V83.6281C24.3307 79.1793 20.6684 75.5601 16.1691 75.5601ZM20.7449 91.3904C20.7449 93.8632 18.6924 95.8751 16.1682 95.8751L12.378 95.8758L8.58779 95.8749C6.06362 95.8749 4.0111 93.863 4.0111 91.3904V83.6281C4.0111 82.8557 4.21143 82.1285 4.56403 81.4931C4.90349 80.8819 5.38375 80.3562 5.96202 79.9582C6.70548 79.4464 7.61077 79.1459 8.58659 79.1459H16.1691C18.6924 79.1459 20.7449 81.1565 20.7449 83.6281V91.3904Z" fill="black"/>
<path d="M12.2868 17.3028C15.0604 17.3028 17.3089 15.0543 17.3089 12.2807C17.3089 9.50703 15.0604 7.25854 12.2868 7.25854C9.51314 7.25854 7.26465 9.50703 7.26465 12.2807C7.26465 15.0543 9.51314 17.3028 12.2868 17.3028Z" fill="black"/>
<path d="M87.4202 17.3028C90.1939 17.3028 92.4424 15.0543 92.4424 12.2807C92.4424 9.50703 90.1939 7.25854 87.4202 7.25854C84.6466 7.25854 82.3981 9.50703 82.3981 12.2807C82.3981 15.0543 84.6466 17.3028 87.4202 17.3028Z" fill="black"/>
<path d="M12.2868 92.4239C15.0604 92.4239 17.3089 90.1754 17.3089 87.4018C17.3089 84.6281 15.0604 82.3796 12.2868 82.3796C9.51314 82.3796 7.26465 84.6281 7.26465 87.4018C7.26465 90.1754 9.51314 92.4239 12.2868 92.4239Z" fill="black"/>
</svg>
