<svg width="82" height="23" viewBox="0 0 82 23" fill="none" xmlns="http://www.w3.org/2000/svg">
<path d="M0.766273 0.284822C0.609933 0.511105 0.577019 0.609846 0.646961 0.638645C0.667532 0.642759 0.827987 0.963669 1.00078 1.3504C1.17769 1.73303 1.38341 2.18971 1.46158 2.35839C1.70843 2.88089 1.79071 3.07426 1.82363 3.173C1.84008 3.22649 2.03757 3.65848 2.25973 4.13573C2.4819 4.60887 2.66704 5.00383 2.66704 5.01206C2.66704 5.02029 2.8275 5.36177 3.02086 5.77319C3.21423 6.18461 3.42406 6.65363 3.48989 6.81409C3.5516 6.97866 3.83137 7.59167 4.10702 8.18001C4.74061 9.52947 5.04095 10.1877 5.13557 10.4223C5.21374 10.6197 5.85145 12.0062 6.14767 12.6316L6.3287 13.0142V17.6304L6.33281 22.2506L6.49738 22.4234L6.66195 22.6003H8.18009H9.69824L9.86281 22.4234L10.0274 22.2506L10.0315 17.6839V13.1212L10.1714 12.8085C10.2495 12.6398 10.4511 12.1831 10.6239 11.8005C10.7926 11.4138 11.1341 10.6609 11.3851 10.126C11.6319 9.58707 11.9405 8.91234 12.0598 8.62434C12.1832 8.33635 12.4136 7.81796 12.5741 7.48059C13.2941 5.93365 13.6931 5.06966 13.6931 5.04909C13.6931 5.02029 13.9071 4.53481 14.0963 4.1275C14.8863 2.43656 15.7091 0.605732 15.7091 0.535789C15.7091 0.515219 15.6556 0.420591 15.5857 0.321852C15.5199 0.22311 15.4623 0.124369 15.4623 0.0996838C15.4623 0.0667686 14.9439 0.0544262 13.7713 0.0544262C12.3355 0.0544262 12.0721 0.0626545 12.0228 0.11614C11.9899 0.149054 11.9364 0.190197 11.9076 0.206654C11.8541 0.239567 11.6936 0.556362 11.2863 1.45326C11.167 1.71246 10.9572 2.15679 10.8214 2.44067C10.5663 2.97964 10.3195 3.53094 10.3195 3.56797C10.3195 3.58031 10.2372 3.76134 10.1385 3.97116C10.0397 4.18099 9.8299 4.62944 9.66944 4.97092C9.5131 5.30828 9.20865 5.96656 8.99471 6.43147C8.78077 6.89637 8.50512 7.50116 8.3858 7.77681L8.16775 8.27463L7.98673 7.87967C7.31199 6.40678 6.96229 5.63331 6.86354 5.38234C6.80183 5.22189 6.62492 4.82692 6.47269 4.49778C6.32047 4.16864 6.05716 3.59677 5.88847 3.22237C5.71979 2.84798 5.52642 2.42422 5.45648 2.2761C5.39065 2.12799 5.26723 1.85234 5.18906 1.65897C5.11089 1.4656 4.93398 1.06652 4.79821 0.766186C4.5925 0.321852 4.52667 0.214882 4.42793 0.173738C4.36621 0.149054 4.31273 0.112026 4.31273 0.0914555C4.31273 0.0708828 3.56394 0.0544262 2.61767 0.0544262L0.918499 0.0585403L0.766273 0.284822Z" fill="url(#paint0_linear_1_157)"/>
<path d="M18.6633 0.239567L18.507 0.412363V11.3315L18.5111 22.2506L18.6756 22.4234L18.8402 22.6003H24.9005H30.9607L31.15 22.4275L31.3433 22.2547V20.7695V19.2843L31.1623 19.1321L30.9772 18.9798H26.5955H22.2098V16.0587V13.1376H26.254H30.2983L30.4917 12.9402L30.685 12.7427V11.3027V9.86272L30.4876 9.66935L30.2901 9.47599H26.2499H22.2098V6.57546V3.67494H26.6037L30.9936 3.67082L31.1705 3.50626L31.3433 3.34169V1.8688V0.400021L31.15 0.227224L30.9607 0.0544262L24.8881 0.0585403L18.8155 0.0626545L18.6633 0.239567Z" fill="url(#paint1_linear_1_157)"/>
<path d="M34.8734 0.239567L34.717 0.412363V11.3315L34.7212 22.2506L34.8857 22.4234L35.0503 22.6003H41.1311H47.216L47.3847 22.4317L47.5534 22.263V20.7695V19.2761L47.3806 19.1279L47.2078 18.9798H42.8138H38.4198V16.0587V13.1376H42.4641H46.5084L46.6812 12.9607L46.854 12.7838V11.3027V9.82158L46.6771 9.64878L46.5002 9.47599H42.46H38.4198V6.57546V3.67494H42.8056H47.1955L47.3724 3.52683L47.5534 3.38283V1.88525V0.387678L47.3806 0.22311L47.2037 0.0585403H41.1147L35.0256 0.0626545L34.8734 0.239567Z" fill="url(#paint2_linear_1_157)"/>
<path d="M51.428 0.231339L51.2552 0.404135V1.8976V3.38694L51.4239 3.54328L51.5967 3.69551L55.3941 3.71608L59.1915 3.73665L59.0269 4.02465C58.9323 4.18099 58.7348 4.55127 58.5867 4.84749C58.2411 5.53456 57.6692 6.6166 57.2414 7.39831C56.8628 8.08949 56.6325 8.52972 56.6201 8.59143C56.616 8.61611 56.509 8.82183 56.3774 9.05634L56.1429 9.47599H54.3408H52.5388L52.3701 9.66524L52.2014 9.85861V11.3233V12.7838L52.3742 12.9607L52.547 13.1376H53.4069H54.2627L54.0693 13.4956C53.9623 13.6972 53.806 13.9769 53.7237 14.1251C53.6373 14.2732 53.411 14.6969 53.2218 15.0713C53.0284 15.4457 52.6252 16.2027 52.3249 16.7582C52.0245 17.3136 51.6049 18.0994 51.3992 18.5067C51.1935 18.914 50.9836 19.3131 50.9343 19.3913C50.8479 19.5311 50.8438 19.5723 50.8438 20.8929L50.8479 22.2506L51.0124 22.4275L51.177 22.6003H57.4306H63.6842L63.8694 22.4275L64.0504 22.2589V20.7613V19.2678L63.8817 19.1115L63.7089 18.9593L59.4795 18.9387L55.246 18.9181L55.6368 18.1981C55.8508 17.8032 56.184 17.1737 56.3733 16.7993C56.8135 15.9271 57.5417 14.5406 57.9161 13.8576C58.0765 13.5614 58.2205 13.2816 58.2329 13.2282L58.2576 13.1376H60.0966H61.9357L62.1085 12.9607L62.2813 12.7838V11.3274V9.86684L62.1126 9.67347L61.948 9.47599L61.047 9.46776L60.1501 9.45541L60.4792 8.83828C60.6603 8.4968 60.9483 7.96195 61.1211 7.64516C61.2939 7.32836 61.5736 6.7894 61.7464 6.45204C61.9192 6.11056 62.2813 5.4276 62.5487 4.92978C62.8161 4.43196 63.1617 3.78191 63.3181 3.4898L63.5937 2.95495V1.67954V0.404135L63.4291 0.227224L63.2646 0.0544262H57.4347L51.6049 0.0585403L51.428 0.231339Z" fill="url(#paint3_linear_1_157)"/>
<path d="M66.7737 0.27248C66.6997 0.391792 66.6421 0.511105 66.6421 0.535789C66.6421 0.560476 66.6873 0.679789 66.7408 0.799101C66.7943 0.922527 66.9136 1.19818 67.0041 1.41212C67.0947 1.62606 67.2757 2.02514 67.4032 2.29668C67.5308 2.56821 67.7282 2.99198 67.8434 3.24295C67.9586 3.4898 68.1273 3.86008 68.2261 4.06579C68.3207 4.26739 68.4441 4.54715 68.5058 4.68292C68.8144 5.3988 69.1312 6.0941 69.9746 7.89201C70.0692 8.09361 70.2132 8.41863 70.2914 8.612C70.3737 8.80537 70.6329 9.37724 70.8674 9.88741C71.5216 11.2862 71.9741 12.2819 72.0111 12.393C72.0276 12.4506 72.1058 12.6234 72.1798 12.7838L72.3197 13.0718V17.6633L72.3238 22.2506L72.4884 22.4234L72.653 22.6003H74.1711H75.6934L75.8374 22.444L75.9772 22.2918L75.9814 17.7168V13.1459L76.183 12.718C76.582 11.8705 77.1457 10.6444 77.1951 10.5045C77.2527 10.3441 77.5695 9.64056 77.7299 9.30319C77.9027 8.95348 78.8449 6.8758 78.9025 6.71946C78.9354 6.64129 79.1205 6.22575 79.3221 5.80199C79.5196 5.37411 79.6842 5.02029 79.6842 5.01206C79.6842 5.00383 79.8528 4.64178 80.0586 4.20156C80.2643 3.76545 80.4782 3.29232 80.5317 3.15243C80.5852 3.01255 80.7662 2.60113 80.939 2.23496C81.1077 1.8688 81.2476 1.56434 81.2476 1.55612C81.2476 1.54789 81.3586 1.30515 81.4944 1.02127L81.7454 0.50699L81.6384 0.391792C81.5808 0.33008 81.5109 0.231339 81.4821 0.16551L81.4327 0.0544262H79.7376C78.8037 0.0544262 78.0385 0.0708828 78.0385 0.0873413C78.0385 0.107912 77.9932 0.144939 77.9356 0.169624C77.8286 0.218996 77.4995 0.852585 77.2362 1.51497C77.1745 1.67131 77.0305 1.99634 76.9153 2.23496C76.8042 2.47359 76.615 2.88089 76.4956 3.14009C76.3763 3.39929 76.1788 3.82717 76.0513 4.08636C75.7345 4.75698 75.5247 5.20954 75.5123 5.25891C75.5 5.30828 75.4547 5.41114 75.0433 6.30804C74.8623 6.703 74.5949 7.27899 74.4509 7.58345C74.3028 7.8879 74.1752 8.16766 74.1629 8.20058C74.1423 8.25818 73.8584 7.70687 73.7803 7.4559C73.7638 7.40242 73.5828 6.99511 73.3771 6.55489C72.6653 5.00795 72.1469 3.85596 72.0317 3.57208C71.97 3.41163 71.8013 3.03312 71.6614 2.72867C71.5216 2.42422 71.2624 1.85645 71.0854 1.47383C70.9085 1.0871 70.7069 0.646873 70.637 0.494648C70.5506 0.313623 70.4724 0.198425 70.4066 0.169624C70.349 0.144939 70.3037 0.107912 70.3037 0.0873413C70.3037 0.0708828 69.5385 0.0544262 68.6046 0.0544262H66.9054L66.7737 0.27248Z" fill="url(#paint4_linear_1_157)"/>
<defs>
<linearGradient id="paint0_linear_1_157" x1="8.16059" y1="22.6003" x2="8.16059" y2="0.0544281" gradientUnits="userSpaceOnUse">
<stop stop-color="#E8F2F9"/>
<stop offset="1" stop-color="#A7B1B7"/>
</linearGradient>
<linearGradient id="paint1_linear_1_157" x1="24.9251" y1="22.6003" x2="24.9251" y2="0.0544281" gradientUnits="userSpaceOnUse">
<stop stop-color="#E8F2F9"/>
<stop offset="1" stop-color="#A7B1B7"/>
</linearGradient>
<linearGradient id="paint2_linear_1_157" x1="41.1352" y1="22.6003" x2="41.1352" y2="0.0585423" gradientUnits="userSpaceOnUse">
<stop stop-color="#E8F2F9"/>
<stop offset="1" stop-color="#A7B1B7"/>
</linearGradient>
<linearGradient id="paint3_linear_1_157" x1="57.4471" y1="22.6003" x2="57.4471" y2="0.0544281" gradientUnits="userSpaceOnUse">
<stop stop-color="#E8F2F9"/>
<stop offset="1" stop-color="#A7B1B7"/>
</linearGradient>
<linearGradient id="paint4_linear_1_157" x1="74.1937" y1="22.6003" x2="74.1937" y2="0.0544281" gradientUnits="userSpaceOnUse">
<stop stop-color="#E8F2F9"/>
<stop offset="1" stop-color="#A7B1B7"/>
</linearGradient>
</defs>
</svg>
