<svg width="21" height="19" viewBox="0 0 21 19" fill="none" xmlns="http://www.w3.org/2000/svg">
<g clip-path="url(#clip0_1_2559)">
<path d="M17.3993 0H3.49782C2.05206 0 0.884338 1.08647 0.884338 2.43162V16.1935C0.884338 17.5387 2.05206 18.6252 3.49782 18.6252H17.3993C18.8451 18.6252 20.0128 17.5387 20.0128 16.1935V2.43162C20.0684 1.08647 18.8451 0 17.3993 0ZM16.2872 6.88096L9.61447 13.0893C9.33644 13.348 9.05841 13.4515 8.72477 13.4515C8.44674 13.4515 8.0575 13.348 7.83508 13.0893L4.60993 10.0886C4.33191 9.82994 4.33191 9.46779 4.60993 9.26084L5.49963 8.43306C5.77766 8.17437 6.1669 8.17437 6.38932 8.43306L8.72477 10.606L14.4522 5.27713C14.7302 5.01845 15.1195 5.01845 15.3419 5.27713L16.2316 6.10491C16.5096 6.26012 16.5096 6.67401 16.2872 6.88096Z" fill="#464F5D"/>
</g>
<defs>
<clipPath id="clip0_1_2559">
<rect x="0.884338" width="19.1303" height="18.6252" rx="9.31258" fill="white"/>
</clipPath>
</defs>
</svg>
