<svg width="82" height="23" viewBox="0 0 82 23" fill="none" xmlns="http://www.w3.org/2000/svg">
<path d="M0.363929 0.284822C0.207589 0.511105 0.174675 0.609846 0.244617 0.638645C0.265188 0.642759 0.425643 0.963669 0.59844 1.3504C0.775351 1.73303 0.981062 2.18971 1.05923 2.35839C1.30609 2.88089 1.38837 3.07426 1.42128 3.173C1.43774 3.22649 1.63522 3.65848 1.85739 4.13573C2.07956 4.60887 2.2647 5.00383 2.2647 5.01206C2.2647 5.02029 2.42515 5.36177 2.61852 5.77319C2.81189 6.18461 3.02171 6.65363 3.08754 6.81409C3.14925 6.97866 3.42902 7.59167 3.70467 8.18001C4.33826 9.52947 4.6386 10.1877 4.73323 10.4223C4.8114 10.6197 5.4491 12.0062 5.74533 12.6316L5.92635 13.0142V17.6304L5.93047 22.2506L6.09503 22.4234L6.2596 22.6003H7.77775H9.2959L9.46046 22.4234L9.62503 22.2506L9.62915 17.6839V13.1212L9.76903 12.8085C9.8472 12.6398 10.0488 12.1831 10.2216 11.8005C10.3903 11.4138 10.7318 10.6609 10.9827 10.126C11.2296 9.58707 11.5381 8.91234 11.6575 8.62434C11.7809 8.33635 12.0113 7.81796 12.1717 7.48059C12.8917 5.93365 13.2908 5.06966 13.2908 5.04909C13.2908 5.02029 13.5047 4.53481 13.694 4.1275C14.4839 2.43656 15.3068 0.605732 15.3068 0.535789C15.3068 0.515219 15.2533 0.420591 15.1833 0.321852C15.1175 0.22311 15.0599 0.124369 15.0599 0.0996838C15.0599 0.0667686 14.5415 0.0544262 13.369 0.0544262C11.9331 0.0544262 11.6698 0.0626545 11.6204 0.11614C11.5875 0.149054 11.534 0.190197 11.5052 0.206654C11.4517 0.239567 11.2913 0.556362 10.884 1.45326C10.7647 1.71246 10.5548 2.15679 10.4191 2.44067C10.164 2.97964 9.91714 3.53094 9.91714 3.56797C9.91714 3.58031 9.83486 3.76134 9.73612 3.97116C9.63738 4.18099 9.42755 4.62944 9.2671 4.97092C9.11076 5.30828 8.8063 5.96656 8.59237 6.43147C8.37843 6.89637 8.10277 7.50116 7.98346 7.77681L7.76541 8.27463L7.58438 7.87967C6.90965 6.40678 6.55994 5.63331 6.4612 5.38234C6.39949 5.22189 6.22258 4.82692 6.07035 4.49778C5.91812 4.16864 5.65481 3.59677 5.48613 3.22237C5.31745 2.84798 5.12408 2.42422 5.05414 2.2761C4.98831 2.12799 4.86488 1.85234 4.78671 1.65897C4.70854 1.4656 4.53163 1.06652 4.39586 0.766186C4.19015 0.321852 4.12432 0.214882 4.02558 0.173738C3.96387 0.149054 3.91038 0.112026 3.91038 0.0914555C3.91038 0.0708828 3.1616 0.0544262 2.21533 0.0544262L0.516156 0.0585403L0.363929 0.284822Z" fill="url(#paint0_linear_1_103)"/>
<path d="M18.2609 0.239567L18.1046 0.412363V11.3315L18.1087 22.2506L18.2732 22.4234L18.4378 22.6003H24.498H30.5583L30.7475 22.4275L30.9409 22.2547V20.7695V19.2843L30.7599 19.1321L30.5747 18.9798H26.1931H21.8073V16.0587V13.1376H25.8516H29.8959L30.0893 12.9402L30.2826 12.7427V11.3027V9.86272L30.0852 9.66935L29.8877 9.47599H25.8475H21.8073V6.57546V3.67494H26.2013L30.5912 3.67082L30.7681 3.50626L30.9409 3.34169V1.8688V0.400021L30.7475 0.227224L30.5583 0.0544262L24.4857 0.0585403L18.4131 0.0626545L18.2609 0.239567Z" fill="url(#paint1_linear_1_103)"/>
<path d="M34.4713 0.239567L34.3149 0.412363V11.3315L34.3191 22.2506L34.4836 22.4234L34.6482 22.6003H40.729H46.8139L46.9826 22.4317L47.1513 22.263V20.7695V19.2761L46.9785 19.1279L46.8057 18.9798H42.4117H38.0177V16.0587V13.1376H42.062H46.1063L46.2791 12.9607L46.4519 12.7838V11.3027V9.82158L46.275 9.64878L46.0981 9.47599H42.0579H38.0177V6.57546V3.67494H42.4035H46.7934L46.9703 3.52683L47.1513 3.38283V1.88525V0.387678L46.9785 0.22311L46.8016 0.0585403H40.7126L34.6235 0.0626545L34.4713 0.239567Z" fill="url(#paint2_linear_1_103)"/>
<path d="M51.0257 0.231339L50.8529 0.404135V1.8976V3.38694L51.0215 3.54328L51.1943 3.69551L54.9918 3.71608L58.7892 3.73665L58.6246 4.02465C58.53 4.18099 58.3325 4.55127 58.1844 4.84749C57.8388 5.53456 57.2669 6.6166 56.839 7.39831C56.4605 8.08949 56.2301 8.52972 56.2178 8.59143C56.2137 8.61611 56.1067 8.82183 55.9751 9.05634L55.7405 9.47599H53.9385H52.1365L51.9678 9.66524L51.7991 9.85861V11.3233V12.7838L51.9719 12.9607L52.1447 13.1376H53.0046H53.8604L53.667 13.4956C53.56 13.6972 53.4037 13.9769 53.3214 14.1251C53.235 14.2732 53.0087 14.6969 52.8195 15.0713C52.6261 15.4457 52.2229 16.2027 51.9226 16.7582C51.6222 17.3136 51.2026 18.0994 50.9969 18.5067C50.7911 18.914 50.5813 19.3131 50.5319 19.3913C50.4456 19.5311 50.4414 19.5723 50.4414 20.8929L50.4456 22.2506L50.6101 22.4275L50.7747 22.6003H57.0283H63.2819L63.467 22.4275L63.6481 22.2589V20.7613V19.2678L63.4794 19.1115L63.3066 18.9593L59.0772 18.9387L54.8436 18.9181L55.2345 18.1981C55.4484 17.8032 55.7817 17.1737 55.9709 16.7993C56.4112 15.9271 57.1394 14.5406 57.5138 13.8576C57.6742 13.5614 57.8182 13.2816 57.8306 13.2282L57.8553 13.1376H59.6943H61.5334L61.7062 12.9607L61.879 12.7838V11.3274V9.86684L61.7103 9.67347L61.5457 9.47599L60.6447 9.46776L59.7478 9.45541L60.0769 8.83828C60.258 8.4968 60.546 7.96195 60.7188 7.64516C60.8915 7.32836 61.1713 6.7894 61.3441 6.45204C61.5169 6.11056 61.879 5.4276 62.1464 4.92978C62.4138 4.43196 62.7594 3.78191 62.9157 3.4898L63.1914 2.95495V1.67954V0.404135L63.0268 0.227224L62.8623 0.0544262H57.0324L51.2026 0.0585403L51.0257 0.231339Z" fill="url(#paint3_linear_1_103)"/>
<path d="M66.3716 0.27248C66.2975 0.391792 66.2399 0.511105 66.2399 0.535789C66.2399 0.560476 66.2852 0.679789 66.3387 0.799101C66.3922 0.922527 66.5115 1.19818 66.602 1.41212C66.6925 1.62606 66.8735 2.02514 67.0011 2.29668C67.1286 2.56821 67.3261 2.99198 67.4413 3.24295C67.5565 3.4898 67.7252 3.86008 67.8239 4.06579C67.9185 4.26739 68.042 4.54715 68.1037 4.68292C68.4122 5.3988 68.729 6.0941 69.5724 7.89201C69.6671 8.09361 69.8111 8.41863 69.8892 8.612C69.9715 8.80537 70.2307 9.37724 70.4652 9.88741C71.1194 11.2862 71.572 12.2819 71.609 12.393C71.6254 12.4506 71.7036 12.6234 71.7777 12.7838L71.9175 13.0718V17.6633L71.9217 22.2506L72.0862 22.4234L72.2508 22.6003H73.7689H75.2912L75.4352 22.444L75.5751 22.2918L75.5792 17.7168V13.1459L75.7808 12.718C76.1799 11.8705 76.7435 10.6444 76.7929 10.5045C76.8505 10.3441 77.1673 9.64056 77.3277 9.30319C77.5005 8.95348 78.4427 6.8758 78.5003 6.71946C78.5332 6.64129 78.7184 6.22575 78.9199 5.80199C79.1174 5.37411 79.282 5.02029 79.282 5.01206C79.282 5.00383 79.4507 4.64178 79.6564 4.20156C79.8621 3.76545 80.076 3.29232 80.1295 3.15243C80.183 3.01255 80.364 2.60113 80.5368 2.23496C80.7055 1.8688 80.8454 1.56434 80.8454 1.55612C80.8454 1.54789 80.9565 1.30515 81.0923 1.02127L81.3432 0.50699L81.2363 0.391792C81.1787 0.33008 81.1087 0.231339 81.0799 0.16551L81.0305 0.0544262H79.3355C78.4016 0.0544262 77.6363 0.0708828 77.6363 0.0873413C77.6363 0.107912 77.5911 0.144939 77.5335 0.169624C77.4265 0.218996 77.0973 0.852585 76.834 1.51497C76.7723 1.67131 76.6283 1.99634 76.5131 2.23496C76.402 2.47359 76.2128 2.88089 76.0935 3.14009C75.9742 3.39929 75.7767 3.82717 75.6491 4.08636C75.3323 4.75698 75.1225 5.20954 75.1102 5.25891C75.0978 5.30828 75.0526 5.41114 74.6412 6.30804C74.4601 6.703 74.1927 7.27899 74.0487 7.58345C73.9006 7.8879 73.7731 8.16766 73.7607 8.20058C73.7401 8.25818 73.4563 7.70687 73.3781 7.4559C73.3616 7.40242 73.1806 6.99511 72.9749 6.55489C72.2631 5.00795 71.7448 3.85596 71.6296 3.57208C71.5678 3.41163 71.3992 3.03312 71.2593 2.72867C71.1194 2.42422 70.8602 1.85645 70.6833 1.47383C70.5064 1.0871 70.3048 0.646873 70.2348 0.494648C70.1484 0.313623 70.0703 0.198425 70.0044 0.169624C69.9468 0.144939 69.9016 0.107912 69.9016 0.0873413C69.9016 0.0708828 69.1363 0.0544262 68.2024 0.0544262H66.5032L66.3716 0.27248Z" fill="url(#paint4_linear_1_103)"/>
<defs>
<linearGradient id="paint0_linear_1_103" x1="7.75824" y1="22.6003" x2="7.75824" y2="0.0544281" gradientUnits="userSpaceOnUse">
<stop stop-color="#E8F2F9"/>
<stop offset="1" stop-color="#A7B1B7"/>
</linearGradient>
<linearGradient id="paint1_linear_1_103" x1="24.5227" y1="22.6003" x2="24.5227" y2="0.0544281" gradientUnits="userSpaceOnUse">
<stop stop-color="#E8F2F9"/>
<stop offset="1" stop-color="#A7B1B7"/>
</linearGradient>
<linearGradient id="paint2_linear_1_103" x1="40.7331" y1="22.6003" x2="40.7331" y2="0.0585423" gradientUnits="userSpaceOnUse">
<stop stop-color="#E8F2F9"/>
<stop offset="1" stop-color="#A7B1B7"/>
</linearGradient>
<linearGradient id="paint3_linear_1_103" x1="57.0448" y1="22.6003" x2="57.0448" y2="0.0544281" gradientUnits="userSpaceOnUse">
<stop stop-color="#E8F2F9"/>
<stop offset="1" stop-color="#A7B1B7"/>
</linearGradient>
<linearGradient id="paint4_linear_1_103" x1="73.7916" y1="22.6003" x2="73.7916" y2="0.0544281" gradientUnits="userSpaceOnUse">
<stop stop-color="#E8F2F9"/>
<stop offset="1" stop-color="#A7B1B7"/>
</linearGradient>
</defs>
</svg>
