<svg width="381" height="493" viewBox="0 0 381 493" fill="none" xmlns="http://www.w3.org/2000/svg">
<mask id="mask0_1_320" style="mask-type:luminance" maskUnits="userSpaceOnUse" x="0" y="0" width="381" height="493">
<path d="M0.286743 492.216H380.401V0.303955H0.286743V492.216Z" fill="white"/>
</mask>
<g mask="url(#mask0_1_320)">
<mask id="mask1_1_320" style="mask-type:luminance" maskUnits="userSpaceOnUse" x="30" y="48" width="71" height="29">
<path d="M30.7695 76.9758H100.483V48.9631H30.7695V76.9758Z" fill="white"/>
</mask>
<g mask="url(#mask1_1_320)">
<path d="M89.4026 65.854C89.3807 65.723 89.3807 65.609 90.0334 65.4052C90.6836 65.2038 92.2655 64.6676 93.2262 64.1363C94.187 63.6001 94.3471 63.5249 94.5727 63.6753C94.7984 63.8233 94.7329 64.1873 94.7329 64.4444V67.0501C95.0847 66.4727 96.2395 64.5512 97.1566 63.9859C97.8772 63.5395 98.1319 63.5031 98.5784 63.4934C99.1145 63.4837 100.381 63.8136 100.437 65.1504C100.48 66.1961 99.709 66.6159 99.2189 66.5504C98.8258 66.4946 98.5444 66.1331 98.3115 65.7691C98.0761 65.4003 97.7025 65.182 97.3289 65.3082C96.9553 65.4367 94.8615 66.7954 94.7426 68.7266C94.6577 70.1484 94.7426 74.581 94.7426 74.581C94.7426 75.2531 94.9997 75.5127 95.3006 75.6922C95.599 75.8742 96.6981 75.8839 97.0062 75.9275C97.3192 75.9712 97.307 76.044 97.307 76.141C97.307 76.2357 97.307 76.2818 97.0305 76.2818H89.6694C89.4341 76.2818 89.3395 76.2357 89.3395 76.0974C89.3395 75.9057 89.6476 75.9397 89.8829 75.9057C90.1183 75.8742 91.3629 75.9761 91.7196 75.3501C91.9816 74.9401 91.95 74.2802 91.95 74.2802L91.9137 66.4946C91.9137 65.8662 91.7268 65.774 91.5546 65.6745C91.3799 65.575 91.0912 65.5217 90.4822 65.7279C89.9072 65.9171 89.5117 66.0942 89.4026 65.854Z" fill="url(#paint0_linear_1_320)"/>
<path d="M63.6587 65.8568C63.5592 65.6651 63.7436 65.5413 64.2895 65.3982C64.8985 65.2357 66.2328 64.8305 67.2907 64.2312C68.3485 63.6344 68.5304 63.5713 68.7536 63.6441C68.9793 63.7193 68.9574 64.1148 68.9574 64.435V74.5085C68.9574 75.0738 69.0327 75.3091 69.2874 75.5445C69.5446 75.7798 70.1851 75.9181 71.0173 75.9181C71.3933 75.9181 71.5098 75.9618 71.5098 76.1219C71.5098 76.282 71.3933 76.282 71.2429 76.282H63.9377C63.7121 76.282 63.6587 76.185 63.6587 76.0904C63.6587 75.9715 63.7581 75.8963 64.0978 75.8963C64.3841 75.8963 65.7064 75.9957 66.0072 75.3091C66.1237 75.0471 66.1795 74.6808 66.1795 74.3387V66.3468C66.1795 65.7403 65.7088 65.471 65.1653 65.602C64.5297 65.7476 63.7897 66.1066 63.6587 65.8568Z" fill="url(#paint1_linear_1_320)"/>
<path d="M67.3821 58.8886C68.3744 58.8886 69.1799 58.0831 69.1799 57.0932C69.1799 56.1009 68.3744 55.2979 67.3821 55.2979C66.3922 55.2979 65.5891 56.1009 65.5891 57.0932C65.5891 58.0831 66.3922 58.8886 67.3821 58.8886Z" fill="url(#paint2_linear_1_320)"/>
<path d="M76.1628 70.3137C76.5243 73.5818 78.4701 76.1244 80.8817 75.6974C83.2982 75.2704 84.5088 72.9631 84.2177 69.268C83.9193 65.5099 82.0608 63.6345 79.5594 63.8601C76.9731 64.0954 75.7988 67.0432 76.1628 70.3137ZM78.555 63.2851C81.6678 62.7028 86.0955 63.3894 87.1024 68.2612C88.1068 73.1329 84.7539 75.7265 81.8449 76.3598C79.0014 76.976 74.1733 76.5369 73.2999 71.2963C72.5138 66.592 75.9274 63.7752 78.555 63.2851Z" fill="url(#paint3_linear_1_320)"/>
<path d="M41.7004 75.4934H43.5055C50.2211 75.4934 52.0238 74.8699 54.3869 71.7304C56.75 68.5909 57.0314 64.0831 57.0314 62.5594C57.0314 61.0358 56.6262 57.2121 54.2632 53.978C51.8976 50.7439 47.9502 49.9045 44.4978 49.9045H41.6858C41.0187 49.9045 40.9847 50.2005 40.9847 50.6663V74.9014C40.9847 75.4303 41.1715 75.4934 41.7004 75.4934ZM30.7656 76.0611C30.7656 75.8161 31.0835 75.7748 31.3794 75.7651C34.7979 75.6681 35.436 75.5492 35.8266 75.144C36.0401 74.9208 36.3531 74.7388 36.3531 73.1546V51.3578C36.3531 49.3998 33.9755 49.7104 32.2965 49.5381C31.707 49.4799 31.6585 49.3998 31.6585 49.2276C31.6585 49.0578 31.7701 48.9753 32.0782 48.9631H45.8516C60.9958 48.9631 61.7697 60.0338 61.7697 62.9864C61.7697 69.3309 57.5749 76.3086 48.8067 76.3086H31.2072C30.9913 76.3086 30.7656 76.2795 30.7656 76.0611Z" fill="url(#paint4_linear_1_320)"/>
</g>
</g>
<defs>
<linearGradient id="paint0_linear_1_320" x1="94.889" y1="63.4932" x2="94.889" y2="76.2818" gradientUnits="userSpaceOnUse">
<stop stop-color="#E8F2F9"/>
<stop offset="1" stop-color="#A7B1B7"/>
</linearGradient>
<linearGradient id="paint1_linear_1_320" x1="67.5714" y1="63.6199" x2="67.5714" y2="76.282" gradientUnits="userSpaceOnUse">
<stop stop-color="#E8F2F9"/>
<stop offset="1" stop-color="#A7B1B7"/>
</linearGradient>
<linearGradient id="paint2_linear_1_320" x1="67.3845" y1="55.2979" x2="67.3845" y2="58.8886" gradientUnits="userSpaceOnUse">
<stop stop-color="#E8F2F9"/>
<stop offset="1" stop-color="#A7B1B7"/>
</linearGradient>
<linearGradient id="paint3_linear_1_320" x1="80.2346" y1="63.1106" x2="80.2346" y2="76.5737" gradientUnits="userSpaceOnUse">
<stop stop-color="#E8F2F9"/>
<stop offset="1" stop-color="#A7B1B7"/>
</linearGradient>
<linearGradient id="paint4_linear_1_320" x1="46.2677" y1="48.9631" x2="46.2677" y2="76.3086" gradientUnits="userSpaceOnUse">
<stop stop-color="#E8F2F9"/>
<stop offset="1" stop-color="#A7B1B7"/>
</linearGradient>
</defs>
</svg>
