<svg width="103" height="11" viewBox="0 0 103 11" fill="none" xmlns="http://www.w3.org/2000/svg">
<path d="M15.9009 3.08823L17.6297 6.78154H14.16L15.8888 3.08823H15.9009ZM13.4509 8.38603H18.351L19.2714 10.3633H21.2858L16.8214 1.17306H15.0055L10.541 10.3633H12.5305L13.4509 8.38603ZM74.6732 3.08823L76.402 6.78154H72.9317L74.6604 3.08823H74.6732ZM72.2232 8.38603H77.1227L78.0431 10.3633H80.0581L75.5931 1.17306H73.7772L69.3133 10.3633H71.3028L72.2232 8.38603ZM53.9809 5.74962C53.9809 8.56025 56.0575 10.5625 59.0917 10.5625C61.069 10.5625 62.1386 9.82851 63.0718 9.05791L62.0393 7.71415C61.4052 8.19963 60.5092 8.87092 59.1294 8.87092C57.2142 8.87092 55.9204 7.59046 55.9204 5.74962C55.9204 3.90936 57.2015 2.66548 59.0545 2.66548C60.2984 2.66548 61.1189 3.06326 61.803 3.63526L62.8227 2.27989C61.8651 1.48374 60.7461 0.973877 59.0545 0.973877C56.1446 0.973877 53.9809 2.96396 53.9809 5.74962ZM90.0817 2.20556C88.9749 1.40941 87.9552 0.973877 86.2514 0.973877C83.2915 0.973877 81.1156 2.93899 81.1156 5.74962C81.1156 8.57244 83.2416 10.5625 86.2514 10.5625C88.1671 10.5625 89.4848 9.91562 90.5794 8.90867V5.37622H86.1271V6.94355H88.8379V8.16188C88.4528 8.47314 87.6567 8.90867 86.3013 8.90867C84.374 8.90867 83.0302 7.59046 83.0302 5.74962C83.0302 3.90936 84.3861 2.6527 86.2514 2.6527C87.5452 2.6527 88.3907 3.07604 89.062 3.56093L90.0817 2.20556ZM5.641 6.37098C6.08872 6.37098 6.39998 6.43369 6.66072 6.63229C6.90984 6.81928 7.08348 7.11777 7.08348 7.52775C7.08348 7.93831 6.90984 8.24899 6.66072 8.43597C6.39998 8.63457 6.08872 8.68452 5.641 8.68452H1.99764V6.37098H5.641ZM5.28038 2.85189C5.80302 2.85189 6.07653 2.95119 6.26294 3.1254C6.43715 3.31239 6.53645 3.54874 6.53645 3.80947C6.53645 4.07079 6.43715 4.30714 6.26294 4.49355C6.07653 4.66718 5.80302 4.76706 5.28038 4.76706H1.99764V2.85189H5.28038ZM32.1178 10.3633H39.8778V8.68452H33.9337V6.37098H38.3854V4.76706H33.9337V2.85189H39.6292V1.17306H32.1178V10.3633ZM97.5688 3.08823L99.297 6.78154H95.8273L97.556 3.08823H97.5688ZM95.1188 8.38603H100.018L100.939 10.3633H102.953L98.4886 1.17306H96.6733L92.2083 10.3633H94.1984L95.1188 8.38603ZM67.2111 1.17306H65.3953V10.3633H67.2111V1.17306ZM29.6056 8.68452H25.2033V1.17306H23.3874V10.3633H29.6056V8.68452ZM44.5043 7.57769C44.5043 5.62535 44.4172 3.90936 44.4172 3.90936H44.4422C44.4422 3.90936 45.2877 5.11549 46.83 7.01789L49.5413 10.3633H51.3195V1.17306H49.5036V4.00866C49.5036 5.961 49.5779 7.68976 49.5779 7.68976H49.5535C49.5535 7.68976 48.7075 6.48364 47.1779 4.56788L44.4671 1.17306H42.6884V10.3633H44.5043V7.57769ZM5.76527 10.3633C6.80997 10.3633 7.4441 10.1398 7.94176 9.75418C8.60087 9.24432 9.01143 8.44817 9.01143 7.49058C9.01143 6.13521 8.11598 5.41397 7.36977 5.22698V5.20259C8.07881 4.87914 8.4644 4.14512 8.4644 3.42388C8.4644 2.60334 8.14095 2.03135 7.63108 1.67073C7.13342 1.3223 6.46212 1.17306 5.29315 1.17306H0.181763V10.3633H5.76527Z" fill="url(#paint0_linear_1_316)"/>
<defs>
<linearGradient id="paint0_linear_1_316" x1="51.5674" y1="0.973877" x2="51.5674" y2="10.5625" gradientUnits="userSpaceOnUse">
<stop stop-color="#E8F2F9"/>
<stop offset="1" stop-color="#A7B1B7"/>
</linearGradient>
</defs>
</svg>
