<svg width="104" height="11" viewBox="0 0 104 11" fill="none" xmlns="http://www.w3.org/2000/svg">
<path d="M16.6021 3.08823L18.3309 6.78154H14.8612L16.5899 3.08823H16.6021ZM14.1521 8.38603H19.0521L19.9725 10.3633H21.987L17.5225 1.17306H15.7067L11.2422 10.3633H13.2317L14.1521 8.38603ZM75.3744 3.08823L77.1032 6.78154H73.6329L75.3616 3.08823H75.3744ZM72.9244 8.38603H77.8238L78.7442 10.3633H80.7593L76.2942 1.17306H74.4784L70.0145 10.3633H72.004L72.9244 8.38603ZM54.682 5.74962C54.682 8.56025 56.7586 10.5625 59.7928 10.5625C61.7702 10.5625 62.8398 9.82851 63.773 9.05791L62.7405 7.71415C62.1064 8.19963 61.2104 8.87092 59.8306 8.87092C57.9154 8.87092 56.6216 7.59046 56.6216 5.74962C56.6216 3.90936 57.9026 2.66548 59.7557 2.66548C60.9995 2.66548 61.8201 3.06326 62.5042 3.63526L63.5239 2.27989C62.5663 1.48374 61.4473 0.973877 59.7557 0.973877C56.8457 0.973877 54.682 2.96396 54.682 5.74962ZM90.7829 2.20556C89.6761 1.40941 88.6563 0.973877 86.9525 0.973877C83.9927 0.973877 81.8168 2.93899 81.8168 5.74962C81.8168 8.57244 83.9427 10.5625 86.9525 10.5625C88.8683 10.5625 90.1859 9.91562 91.2806 8.90867V5.37622H86.8283V6.94355H89.539V8.16188C89.154 8.47314 88.3579 8.90867 87.0025 8.90867C85.0751 8.90867 83.7314 7.59046 83.7314 5.74962C83.7314 3.90936 85.0873 2.6527 86.9525 2.6527C88.2464 2.6527 89.0919 3.07604 89.7632 3.56093L90.7829 2.20556ZM6.34217 6.37098C6.7899 6.37098 7.10116 6.43369 7.36189 6.63229C7.61102 6.81928 7.78465 7.11777 7.78465 7.52775C7.78465 7.93831 7.61102 8.24899 7.36189 8.43597C7.10116 8.63457 6.7899 8.68452 6.34217 8.68452H2.69881V6.37098H6.34217ZM5.98155 2.85189C6.50419 2.85189 6.7777 2.95119 6.96411 3.1254C7.13832 3.31239 7.23762 3.54874 7.23762 3.80947C7.23762 4.07079 7.13832 4.30714 6.96411 4.49355C6.7777 4.66718 6.50419 4.76706 5.98155 4.76706H2.69881V2.85189H5.98155ZM32.819 10.3633H40.579V8.68452H34.6348V6.37098H39.0865V4.76706H34.6348V2.85189H40.3304V1.17306H32.819V10.3633ZM98.27 3.08823L99.9982 6.78154H96.5284L98.2572 3.08823H98.27ZM95.82 8.38603H100.719L101.64 10.3633H103.654L99.1898 1.17306H97.3745L92.9094 10.3633H94.8995L95.82 8.38603ZM67.9123 1.17306H66.0964V10.3633H67.9123V1.17306ZM30.3068 8.68452H25.9045V1.17306H24.0886V10.3633H30.3068V8.68452ZM45.2055 7.57769C45.2055 5.62535 45.1184 3.90936 45.1184 3.90936H45.1433C45.1433 3.90936 45.9888 5.11549 47.5312 7.01789L50.2425 10.3633H52.0206V1.17306H50.2048V4.00866C50.2048 5.961 50.2791 7.68976 50.2791 7.68976H50.2547C50.2547 7.68976 49.4086 6.48364 47.879 4.56788L45.1683 1.17306H43.3896V10.3633H45.2055V7.57769ZM6.46644 10.3633C7.51114 10.3633 8.14527 10.1398 8.64294 9.75418C9.30204 9.24432 9.7126 8.44817 9.7126 7.49058C9.7126 6.13521 8.81715 5.41397 8.07094 5.22698V5.20259C8.77998 4.87914 9.16557 4.14512 9.16557 3.42388C9.16557 2.60334 8.84212 2.03135 8.33226 1.67073C7.83459 1.3223 7.16329 1.17306 5.99433 1.17306H0.882935V10.3633H6.46644Z" fill="url(#paint0_linear_1_355)"/>
<defs>
<linearGradient id="paint0_linear_1_355" x1="52.2686" y1="0.973877" x2="52.2686" y2="10.5625" gradientUnits="userSpaceOnUse">
<stop stop-color="#E8F2F9"/>
<stop offset="1" stop-color="#A7B1B7"/>
</linearGradient>
</defs>
</svg>
