<svg width="104" height="11" viewBox="0 0 104 11" fill="none" xmlns="http://www.w3.org/2000/svg">
<path d="M16.2 3.08823L17.9287 6.78154H14.459L16.1878 3.08823H16.2ZM13.75 8.38603H18.65L19.5704 10.3633H21.5849L17.1204 1.17306H15.3045L10.84 10.3633H12.8295L13.75 8.38603ZM74.9722 3.08823L76.701 6.78154H73.2307L74.9595 3.08823H74.9722ZM72.5222 8.38603H77.4217L78.3421 10.3633H80.3571L75.8921 1.17306H74.0762L69.6123 10.3633H71.6018L72.5222 8.38603ZM54.2799 5.74962C54.2799 8.56025 56.3565 10.5625 59.3907 10.5625C61.368 10.5625 62.4377 9.82851 63.3708 9.05791L62.3384 7.71415C61.7042 8.19963 60.8082 8.87092 59.4284 8.87092C57.5133 8.87092 56.2194 7.59046 56.2194 5.74962C56.2194 3.90936 57.5005 2.66548 59.3535 2.66548C60.5974 2.66548 61.4179 3.06326 62.102 3.63526L63.1217 2.27989C62.1641 1.48374 61.0451 0.973877 59.3535 0.973877C56.4436 0.973877 54.2799 2.96396 54.2799 5.74962ZM90.3807 2.20556C89.2739 1.40941 88.2542 0.973877 86.5504 0.973877C83.5905 0.973877 81.4146 2.93899 81.4146 5.74962C81.4146 8.57244 83.5406 10.5625 86.5504 10.5625C88.4661 10.5625 89.7838 9.91562 90.8784 8.90867V5.37622H86.4261V6.94355H89.1369V8.16188C88.7519 8.47314 87.9557 8.90867 86.6003 8.90867C84.673 8.90867 83.3292 7.59046 83.3292 5.74962C83.3292 3.90936 84.6852 2.6527 86.5504 2.6527C87.8442 2.6527 88.6897 3.07604 89.361 3.56093L90.3807 2.20556ZM5.94001 6.37098C6.38774 6.37098 6.69899 6.43369 6.95973 6.63229C7.20886 6.81928 7.38249 7.11777 7.38249 7.52775C7.38249 7.93831 7.20886 8.24899 6.95973 8.43597C6.69899 8.63457 6.38774 8.68452 5.94001 8.68452H2.29665V6.37098H5.94001ZM5.57939 2.85189C6.10203 2.85189 6.37554 2.95119 6.56195 3.1254C6.73616 3.31239 6.83546 3.54874 6.83546 3.80947C6.83546 4.07079 6.73616 4.30714 6.56195 4.49355C6.37554 4.66718 6.10203 4.76706 5.57939 4.76706H2.29665V2.85189H5.57939ZM32.4168 10.3633H40.1768V8.68452H34.2327V6.37098H38.6844V4.76706H34.2327V2.85189H39.9283V1.17306H32.4168V10.3633ZM97.8678 3.08823L99.596 6.78154H96.1263L97.855 3.08823H97.8678ZM95.4178 8.38603H100.317L101.238 10.3633H103.252L98.7877 1.17306H96.9724L92.5073 10.3633H94.4974L95.4178 8.38603ZM67.5101 1.17306H65.6943V10.3633H67.5101V1.17306ZM29.9047 8.68452H25.5023V1.17306H23.6864V10.3633H29.9047V8.68452ZM44.8033 7.57769C44.8033 5.62535 44.7162 3.90936 44.7162 3.90936H44.7412C44.7412 3.90936 45.5867 5.11549 47.129 7.01789L49.8404 10.3633H51.6185V1.17306H49.8026V4.00866C49.8026 5.961 49.8769 7.68976 49.8769 7.68976H49.8526C49.8526 7.68976 49.0065 6.48364 47.4769 4.56788L44.7661 1.17306H42.9874V10.3633H44.8033V7.57769ZM6.06428 10.3633C7.10898 10.3633 7.74311 10.1398 8.24077 9.75418C8.89988 9.24432 9.31044 8.44817 9.31044 7.49058C9.31044 6.13521 8.41499 5.41397 7.66878 5.22698V5.20259C8.37782 4.87914 8.76341 4.14512 8.76341 3.42388C8.76341 2.60334 8.43996 2.03135 7.9301 1.67073C7.43243 1.3223 6.76113 1.17306 5.59216 1.17306H0.480774V10.3633H6.06428Z" fill="url(#paint0_linear_1_277)"/>
<defs>
<linearGradient id="paint0_linear_1_277" x1="51.8665" y1="0.973877" x2="51.8665" y2="10.5625" gradientUnits="userSpaceOnUse">
<stop stop-color="#E8F2F9"/>
<stop offset="1" stop-color="#A7B1B7"/>
</linearGradient>
</defs>
</svg>
