<svg width="381" height="493" viewBox="0 0 381 493" fill="none" xmlns="http://www.w3.org/2000/svg">
<mask id="mask0_1_281" style="mask-type:luminance" maskUnits="userSpaceOnUse" x="0" y="0" width="381" height="493">
<path d="M0.585815 492.216H380.7V0.303955H0.585815V492.216Z" fill="white"/>
</mask>
<g mask="url(#mask0_1_281)">
<mask id="mask1_1_281" style="mask-type:luminance" maskUnits="userSpaceOnUse" x="31" y="48" width="70" height="29">
<path d="M31.0684 76.9758H100.782V48.9631H31.0684V76.9758Z" fill="white"/>
</mask>
<g mask="url(#mask1_1_281)">
<path d="M89.7024 65.854C89.6805 65.723 89.6805 65.609 90.3332 65.4052C90.9834 65.2038 92.5653 64.6676 93.526 64.1363C94.4868 63.6001 94.6469 63.5249 94.8725 63.6753C95.0982 63.8233 95.0327 64.1873 95.0327 64.4444V67.0501C95.3845 66.4727 96.5393 64.5512 97.4564 63.9859C98.177 63.5395 98.4318 63.5031 98.8782 63.4934C99.4144 63.4837 100.681 63.8136 100.737 65.1504C100.78 66.1961 100.009 66.6159 99.5187 66.5504C99.1256 66.4946 98.8442 66.1331 98.6113 65.7691C98.376 65.4003 98.0023 65.182 97.6287 65.3082C97.2551 65.4367 95.1613 66.7954 95.0424 68.7266C94.9575 70.1484 95.0424 74.581 95.0424 74.581C95.0424 75.2531 95.2996 75.5127 95.6004 75.6922C95.8988 75.8742 96.9979 75.8839 97.306 75.9275C97.619 75.9712 97.6068 76.044 97.6068 76.141C97.6068 76.2357 97.6069 76.2818 97.3303 76.2818H89.9692C89.7339 76.2818 89.6393 76.2357 89.6393 76.0974C89.6393 75.9057 89.9474 75.9397 90.1827 75.9057C90.4181 75.8742 91.6627 75.9761 92.0194 75.3501C92.2814 74.9401 92.2498 74.2802 92.2498 74.2802L92.2135 66.4946C92.2135 65.8662 92.0266 65.774 91.8544 65.6745C91.6797 65.575 91.391 65.5217 90.782 65.7279C90.207 65.9171 89.8115 66.0942 89.7024 65.854Z" fill="url(#paint0_linear_1_281)"/>
<path d="M63.9583 65.8568C63.8588 65.6651 64.0432 65.5413 64.5891 65.3982C65.1981 65.2357 66.5325 64.8305 67.5903 64.2312C68.6481 63.6344 68.8301 63.5713 69.0533 63.6441C69.2789 63.7193 69.2571 64.1148 69.2571 64.435V74.5085C69.2571 75.0738 69.3323 75.3091 69.587 75.5445C69.8442 75.7798 70.4847 75.9181 71.3169 75.9181C71.693 75.9181 71.8094 75.9618 71.8094 76.1219C71.8094 76.282 71.693 76.282 71.5425 76.282H64.2373C64.0117 76.282 63.9583 76.185 63.9583 76.0904C63.9583 75.9715 64.0578 75.8963 64.3974 75.8963C64.6837 75.8963 66.006 75.9957 66.3068 75.3091C66.4233 75.0471 66.4791 74.6808 66.4791 74.3387V66.3468C66.4791 65.7403 66.0084 65.471 65.465 65.602C64.8293 65.7476 64.0893 66.1066 63.9583 65.8568Z" fill="url(#paint1_linear_1_281)"/>
<path d="M67.6817 58.8886C68.674 58.8886 69.4795 58.0831 69.4795 57.0932C69.4795 56.1009 68.674 55.2979 67.6817 55.2979C66.6918 55.2979 65.8887 56.1009 65.8887 57.0932C65.8887 58.0831 66.6918 58.8886 67.6817 58.8886Z" fill="url(#paint2_linear_1_281)"/>
<path d="M76.4624 70.3137C76.8239 73.5818 78.7697 76.1244 81.1813 75.6974C83.5978 75.2704 84.8084 72.9631 84.5173 69.268C84.2189 65.5099 82.3604 63.6345 79.859 63.8601C77.2727 64.0954 76.0985 67.0432 76.4624 70.3137ZM78.8546 63.2851C81.9674 62.7028 86.3952 63.3894 87.402 68.2612C88.4065 73.1329 85.0535 75.7265 82.1445 76.3598C79.301 76.976 74.4729 76.5369 73.5995 71.2963C72.8134 66.592 76.2271 63.7752 78.8546 63.2851Z" fill="url(#paint3_linear_1_281)"/>
<path d="M41.9998 75.4934H43.8049C50.5206 75.4934 52.3232 74.8699 54.6863 71.7304C57.0494 68.5909 57.3309 64.0831 57.3309 62.5594C57.3309 61.0358 56.9257 57.2121 54.5626 53.978C52.1971 50.7439 48.2497 49.9045 44.7972 49.9045H41.9853C41.3181 49.9045 41.2841 50.2005 41.2841 50.6663V74.9014C41.2841 75.4303 41.4709 75.4934 41.9998 75.4934ZM31.0651 76.0611C31.0651 75.8161 31.3829 75.7748 31.6789 75.7651C35.0974 75.6681 35.7355 75.5492 36.1261 75.144C36.3396 74.9208 36.6525 74.7388 36.6525 73.1546V51.3578C36.6525 49.3998 34.2749 49.7104 32.596 49.5381C32.0064 49.4799 31.9579 49.3998 31.9579 49.2276C31.9579 49.0578 32.0695 48.9753 32.3776 48.9631H46.151C61.2952 48.9631 62.0692 60.0338 62.0692 62.9864C62.0692 69.3309 57.8743 76.3086 49.1061 76.3086H31.5066C31.2907 76.3086 31.0651 76.2795 31.0651 76.0611Z" fill="url(#paint4_linear_1_281)"/>
</g>
</g>
<defs>
<linearGradient id="paint0_linear_1_281" x1="95.1888" y1="63.4932" x2="95.1888" y2="76.2818" gradientUnits="userSpaceOnUse">
<stop stop-color="#E8F2F9"/>
<stop offset="1" stop-color="#A7B1B7"/>
</linearGradient>
<linearGradient id="paint1_linear_1_281" x1="67.871" y1="63.6199" x2="67.871" y2="76.282" gradientUnits="userSpaceOnUse">
<stop stop-color="#E8F2F9"/>
<stop offset="1" stop-color="#A7B1B7"/>
</linearGradient>
<linearGradient id="paint2_linear_1_281" x1="67.6841" y1="55.2979" x2="67.6841" y2="58.8886" gradientUnits="userSpaceOnUse">
<stop stop-color="#E8F2F9"/>
<stop offset="1" stop-color="#A7B1B7"/>
</linearGradient>
<linearGradient id="paint3_linear_1_281" x1="80.5343" y1="63.1106" x2="80.5343" y2="76.5737" gradientUnits="userSpaceOnUse">
<stop stop-color="#E8F2F9"/>
<stop offset="1" stop-color="#A7B1B7"/>
</linearGradient>
<linearGradient id="paint4_linear_1_281" x1="46.5671" y1="48.9631" x2="46.5671" y2="76.3086" gradientUnits="userSpaceOnUse">
<stop stop-color="#E8F2F9"/>
<stop offset="1" stop-color="#A7B1B7"/>
</linearGradient>
</defs>
</svg>
