<svg width="382" height="493" viewBox="0 0 382 493" fill="none" xmlns="http://www.w3.org/2000/svg">
<mask id="mask0_1_359" style="mask-type:luminance" maskUnits="userSpaceOnUse" x="0" y="0" width="382" height="493">
<path d="M0.988281 492.216H381.102V0.303955H0.988281V492.216Z" fill="white"/>
</mask>
<g mask="url(#mask0_1_359)">
<mask id="mask1_1_359" style="mask-type:luminance" maskUnits="userSpaceOnUse" x="31" y="48" width="71" height="29">
<path d="M31.4708 76.9758H101.185V48.9631H31.4708V76.9758Z" fill="white"/>
</mask>
<g mask="url(#mask1_1_359)">
<path d="M90.1043 65.8543C90.0825 65.7233 90.0825 65.6092 90.7351 65.4054C91.3854 65.2041 92.9672 64.6679 93.928 64.1366C94.8888 63.6004 95.0489 63.5252 95.2745 63.6756C95.5002 63.8236 95.4347 64.1875 95.4347 64.4447V67.0504C95.7864 66.473 96.9413 64.5514 97.8584 63.9861C98.579 63.5397 98.8337 63.5033 99.2801 63.4936C99.8163 63.4839 101.083 63.8139 101.139 65.1507C101.182 66.1964 100.411 66.6161 99.9207 66.5506C99.5276 66.4948 99.2462 66.1333 99.0133 65.7694C98.7779 65.4006 98.4043 65.1822 98.0307 65.3084C97.657 65.437 95.5632 66.7956 95.4444 68.7269C95.3594 70.1486 95.4444 74.5812 95.4444 74.5812C95.4444 75.2533 95.7015 75.5129 96.0024 75.6924C96.3008 75.8744 97.3999 75.8841 97.708 75.9278C98.021 75.9714 98.0088 76.0442 98.0088 76.1413C98.0088 76.2359 98.0088 76.282 97.7322 76.282H90.3712C90.1359 76.282 90.0413 76.2359 90.0413 76.0976C90.0413 75.9059 90.3494 75.9399 90.5847 75.9059C90.8201 75.8744 92.0647 75.9763 92.4213 75.3503C92.6834 74.9403 92.6518 74.2804 92.6518 74.2804L92.6154 66.4948C92.6154 65.8664 92.4286 65.7742 92.2564 65.6747C92.0817 65.5753 91.793 65.5219 91.184 65.7281C90.609 65.9174 90.2135 66.0945 90.1043 65.8543Z" fill="url(#paint0_linear_1_359)"/>
<path d="M64.3605 65.8568C64.261 65.6651 64.4454 65.5413 64.9913 65.3982C65.6002 65.2357 66.9346 64.8305 67.9924 64.2312C69.0503 63.6344 69.2322 63.5713 69.4554 63.6441C69.6811 63.7193 69.6592 64.1148 69.6592 64.435V74.5085C69.6592 75.0738 69.7344 75.3091 69.9892 75.5445C70.2464 75.7798 70.8869 75.9181 71.7191 75.9181C72.0951 75.9181 72.2116 75.9618 72.2116 76.1219C72.2116 76.282 72.0951 76.282 71.9447 76.282H64.6395C64.4138 76.282 64.3605 76.185 64.3605 76.0904C64.3605 75.9715 64.4599 75.8963 64.7996 75.8963C65.0859 75.8963 66.4082 75.9957 66.709 75.3091C66.8255 75.0471 66.8813 74.6808 66.8813 74.3387V66.3468C66.8813 65.7403 66.4106 65.471 65.8671 65.602C65.2315 65.7476 64.4915 66.1066 64.3605 65.8568Z" fill="url(#paint1_linear_1_359)"/>
<path d="M68.0838 58.8886C69.0761 58.8886 69.8816 58.0831 69.8816 57.0932C69.8816 56.1009 69.0761 55.2979 68.0838 55.2979C67.094 55.2979 66.2909 56.1009 66.2909 57.0932C66.2909 58.0831 67.094 58.8886 68.0838 58.8886Z" fill="url(#paint2_linear_1_359)"/>
<path d="M76.8646 70.3137C77.2261 73.5818 79.1718 76.1244 81.5835 75.6974C83.9999 75.2704 85.2106 72.9631 84.9195 69.268C84.621 65.5099 82.7626 63.6345 80.2612 63.8601C77.6749 64.0954 76.5006 67.0432 76.8646 70.3137ZM79.2568 63.2851C82.3695 62.7028 86.7973 63.3894 87.8042 68.2612C88.8086 73.1329 85.4556 75.7265 82.5467 76.3598C79.7032 76.976 74.8751 76.5369 74.0017 71.2963C73.2156 66.592 76.6292 63.7752 79.2568 63.2851Z" fill="url(#paint3_linear_1_359)"/>
<path d="M42.4022 75.4934H44.2073C50.9229 75.4934 52.7256 74.8699 55.0887 71.7304C57.4518 68.5909 57.7332 64.0831 57.7332 62.5594C57.7332 61.0358 57.328 57.2121 54.9649 53.978C52.5994 50.7439 48.652 49.9045 45.1996 49.9045H42.3876C41.7204 49.9045 41.6865 50.2005 41.6865 50.6663V74.9014C41.6865 75.4303 41.8733 75.4934 42.4022 75.4934ZM31.4674 76.0611C31.4674 75.8161 31.7852 75.7748 32.0812 75.7651C35.4997 75.6681 36.1378 75.5492 36.5284 75.144C36.7419 74.9208 37.0549 74.7388 37.0549 73.1546V51.3578C37.0549 49.3998 34.6772 49.7104 32.9983 49.5381C32.4088 49.4799 32.3602 49.3998 32.3602 49.2276C32.3602 49.0578 32.4718 48.9753 32.78 48.9631H46.5534C61.6976 48.9631 62.4715 60.0338 62.4715 62.9864C62.4715 69.3309 58.2767 76.3086 49.5085 76.3086H31.909C31.693 76.3086 31.4674 76.2795 31.4674 76.0611Z" fill="url(#paint4_linear_1_359)"/>
</g>
</g>
<defs>
<linearGradient id="paint0_linear_1_359" x1="95.5908" y1="63.4934" x2="95.5908" y2="76.282" gradientUnits="userSpaceOnUse">
<stop stop-color="#E8F2F9"/>
<stop offset="1" stop-color="#A7B1B7"/>
</linearGradient>
<linearGradient id="paint1_linear_1_359" x1="68.2731" y1="63.6199" x2="68.2731" y2="76.282" gradientUnits="userSpaceOnUse">
<stop stop-color="#E8F2F9"/>
<stop offset="1" stop-color="#A7B1B7"/>
</linearGradient>
<linearGradient id="paint2_linear_1_359" x1="68.0863" y1="55.2979" x2="68.0863" y2="58.8886" gradientUnits="userSpaceOnUse">
<stop stop-color="#E8F2F9"/>
<stop offset="1" stop-color="#A7B1B7"/>
</linearGradient>
<linearGradient id="paint3_linear_1_359" x1="80.9364" y1="63.1106" x2="80.9364" y2="76.5737" gradientUnits="userSpaceOnUse">
<stop stop-color="#E8F2F9"/>
<stop offset="1" stop-color="#A7B1B7"/>
</linearGradient>
<linearGradient id="paint4_linear_1_359" x1="46.9695" y1="48.9631" x2="46.9695" y2="76.3086" gradientUnits="userSpaceOnUse">
<stop stop-color="#E8F2F9"/>
<stop offset="1" stop-color="#A7B1B7"/>
</linearGradient>
</defs>
</svg>
