<svg width="99" height="20" viewBox="0 0 99 20" fill="none" xmlns="http://www.w3.org/2000/svg">
<g clip-path="url(#clip0_1_209)">
<path d="M26.9477 12.194L26.0653 12.9222L25.311 12.1545V0.410827L22.204 2.81525L22.82 3.46753V12.0759L22.1496 12.6853L24.0709 14.8541L27.0907 12.3726L26.9484 12.194H26.9477ZM12.0467 4.21308L11.0073 5.05191V11.5505L8.8914 13.21L6.83996 14.8541L5.76625 14.0448V16.2104C6.32407 16.031 6.84751 15.7585 7.3144 15.4044L7.42982 15.4554C7.0453 16.1688 6.50979 16.8137 5.76625 17.2116V18.2652L3.30546 19.1027V17.4183C2.67734 17.1807 2.18076 16.7492 1.82643 16.358C-0.124351 14.2025 1.04531 11.1338 3.30546 10.4848V6.45645L1.35132 7.97641L1.21375 7.79388L3.30546 6.16722V4.09766H2.19552C1.58217 4.09766 1.44258 3.48833 1.33119 2.93537C1.21979 2.38309 1.33589 1.00807 1.33589 1.00807L1.48419 0.989285C1.45668 1.47111 1.72108 1.6174 1.87475 1.64559C2.02775 1.67444 4.39795 1.51808 4.91333 1.47581C5.42938 1.43353 5.76357 1.84422 5.76357 2.15627C5.76357 2.46831 5.76625 3.21655 5.76625 3.21655V4.25334L7.98882 2.52535L9.34101 1.43152L12.0467 4.21308ZM3.30546 12.2826C2.29886 12.1504 1.12047 12.2692 1.07954 13.5315C1.03525 14.9085 1.98883 15.9299 3.30546 16.2896V12.2826ZM6.68226 3.82923L5.76625 4.54257V10.7311L6.68226 11.4579V3.82923ZM6.9084 3.65542V11.6364L8.54647 12.9356V4.45667L7.38419 3.28433L6.90639 3.65609L6.9084 3.65542ZM20.7974 12.8081L21.5181 12.1961L21.6631 12.3726L18.7527 14.8541L17.1784 13.3845V12.4444L14.2814 14.8541L12.7245 13.3845V5.91624L15.1846 4.80697L17.0978 3.94063L19.5472 5.81961L20.421 5.1217L20.5599 5.30289L19.6392 6.0377V11.9343L20.7974 12.8081ZM15.1846 11.9518L16.3442 12.8537L17.1784 12.1491V7.32413L15.1853 5.80417V11.9511L15.1846 11.9518ZM75.4583 12.445L75.4556 6.03636L76.3756 5.30222L76.2367 5.12103L75.3623 5.81961L72.9143 3.93995L71.0004 4.80563L70.1878 5.17471L70.1797 5.17807L68.5403 5.94778V13.3845L69.9603 14.7246L67.4632 16.8452L67.6075 17.021C68.5994 17.021 69.7764 17.8934 70.5837 19.0423L70.7749 19.1631C70.7843 19.1496 71.6997 17.6699 73.9706 17.1955C75.1771 16.9875 76.6421 16.3607 76.6421 14.679C76.6421 14.2535 76.4012 14.0428 76.1374 13.8113C75.8153 13.5295 75.4583 13.2161 75.4583 12.445ZM71.0004 11.9518V5.82699L72.9948 7.33688V8.99307L72.9915 12.1518L72.1627 12.8557L71.0004 11.9518ZM73.9075 16.9747C73.2632 17.1066 72.6449 17.3435 72.0775 17.676L72.0553 17.6397C71.8352 17.272 71.0407 15.946 68.8188 15.9936L72.9908 12.4511V13.7865C72.9908 14.169 73.0324 14.6233 73.7713 15.0904C74.4497 15.5198 74.7302 16.4895 73.9075 16.9747ZM84.7512 10.9714L84.8908 11.1512L80.3047 14.8541L77.8466 12.5423L77.0803 13.1543L76.9407 12.9732L77.7507 12.3269V6.67991L80.2108 5.21229V10.4902L82.4172 8.728L80.2108 5.21229L82.3079 3.93995L84.3627 7.38923L84.3593 7.39258L84.3955 7.43956L80.2108 10.7828V11.2056L82.1186 13.0819L84.7512 10.9714ZM89.4359 12.9222L90.319 12.194L90.4613 12.3726L87.4415 14.8541L85.5202 12.6853L86.1906 12.0759V3.46753L85.5739 2.81525L88.6816 0.410156V12.1545L89.4359 12.9222ZM98.5832 9.15077L96.8176 7.53082C98.761 5.48944 98.4134 3.90573 98.3966 3.8346C98.3717 3.69348 98.3269 3.55658 98.2638 3.42793C98.2638 3.42793 98.0336 4.81704 96.9049 4.81704C96.3351 4.81704 95.6124 4.10973 95.4909 3.98693L95.4648 3.95606L93.0295 5.49615L91.2599 6.56248V8.92328L91.2626 8.92194L91.2619 8.92328L93.0925 10.713C92.5416 11.2324 92.1021 11.6498 91.835 11.9048C91.3464 12.239 90.9492 12.7812 90.9492 13.6503C90.9492 15.6279 92.9671 15.7084 92.9671 15.7084C91.3142 15.081 92.1175 13.8992 92.9671 13.8992C93.8166 13.8992 94.4407 14.8582 94.4407 14.8582L96.2123 13.6811L98.5832 12.2531V9.15077ZM93.7509 7.9348V5.3096L93.7535 5.30758C93.9938 5.67466 94.8548 6.84298 96.0922 6.84298C96.6794 6.84298 97.2458 6.50141 97.6739 6.01086C97.3753 6.54973 96.9143 7.16308 96.2043 7.81468C95.7486 8.23275 95.2997 8.64881 94.8702 9.04743L93.7509 7.9348ZM93.5113 11.3888C93.3274 11.3888 92.9389 11.427 92.5181 11.57C93.1147 11.0043 93.9891 10.1788 94.9742 9.2615L96.0922 10.2372V13.3872C95.2816 11.5646 93.9911 11.3888 93.5113 11.3888ZM56.5584 12.8094L57.2778 12.1961L57.4221 12.3726L54.5117 14.8541L53.4789 13.8717L52.4656 10.1171H49.0768L48.7607 11.2646L48.7983 11.264C50.1552 11.264 51.2705 12.492 51.2705 12.492L49.7471 14.9347C49.4351 14.3227 48.8345 13.6959 47.9413 13.4892C47.4682 13.3798 46.2972 13.3335 46.2972 14.4817C46.2972 15.8024 47.1817 16.5318 49.0499 16.5318C51.1262 16.5318 51.6697 15.1548 51.8234 14.2307H51.9952C51.9952 14.2307 52.0885 17.633 49.0774 17.633C47.2005 17.633 46.0664 16.0265 46.0664 14.4388C46.0664 13.1738 46.577 11.4263 48.5225 11.276L50.6517 3.55409C50.3652 2.86491 49.7304 1.74557 48.6298 1.74557C47.2588 1.74557 46.9582 2.82398 46.9582 3.37156C46.9582 4.07014 47.4387 4.60565 48.3768 4.60565C49.4177 4.60565 49.7243 3.59503 49.7243 3.59503H49.8686C49.8686 3.59503 50.0679 5.38006 48.511 5.49414C46.9072 5.61023 46.7227 4.13725 46.7227 3.55141C46.7227 2.69446 47.1991 1.18524 49.4552 1.18524C51.3765 1.18524 52.4945 2.05829 52.9924 2.86894L53.4924 1.51607L53.7037 1.5966L53.136 3.13334C53.1669 3.19977 53.1951 3.26554 53.2165 3.32862L55.5935 12.0793L56.5598 12.8087L56.5584 12.8094ZM50.7859 3.9158L49.5304 8.473H52.0221L50.8376 4.08289C50.8376 4.08289 50.8208 4.01981 50.7859 3.9158ZM41.9802 12.194L41.0971 12.9222L40.3415 12.1531V6.14776L41.3394 5.35053L41.1998 5.17069L40.2402 5.93704L38.439 4.10504L38.278 3.93995L35.7313 5.97261L33.8953 4.10571L33.7342 3.93995L31.2533 5.9196L29.4689 4.10571L29.3079 3.93995L26.3458 6.30412L26.4854 6.4853L27.4014 5.75384L28.8744 7.2483V12.0766L28.2046 12.6853L30.3386 14.8541L32.18 12.9819L31.3653 12.1531V6.1236L31.8284 5.75451L33.3074 7.25501V12.0766L32.637 12.6853L34.771 14.8541L36.6131 12.9819L35.7977 12.1531V6.21151L36.3715 5.75451L37.8519 7.25568V12.0759L37.1808 12.6853L39.1027 14.8541L42.1225 12.3726L41.9802 12.194ZM66.6325 12.9222L67.5156 12.194L67.6579 12.3726L64.6381 14.8541L62.7168 12.6853L63.3879 12.0759V7.22884L61.9323 5.75518L61.3331 6.23298V12.1538L62.1477 12.9819L60.3063 14.8548L58.1724 12.6859L58.8421 12.0773V7.22884L57.3906 5.75451L56.4746 6.48463L56.335 6.30344L59.2971 3.93995L59.4581 4.10571L61.2942 5.97261L63.8408 3.93928L64.0019 4.10571L65.7822 5.91624L66.7358 5.15391L66.8761 5.33443L65.8775 6.13165V12.1538L66.6325 12.9222Z" fill="url(#paint0_linear_1_209)"/>
</g>
<defs>
<linearGradient id="paint0_linear_1_209" x1="49.7105" y1="0.410156" x2="49.7105" y2="19.1631" gradientUnits="userSpaceOnUse">
<stop stop-color="#E8F2F9"/>
<stop offset="1" stop-color="#A7B1B7"/>
</linearGradient>
<clipPath id="clip0_1_209">
<rect width="97.7741" height="18.7495" fill="white" transform="translate(0.685364 0.393555)"/>
</clipPath>
</defs>
</svg>
