<svg width="99" height="20" viewBox="0 0 99 20" fill="none" xmlns="http://www.w3.org/2000/svg">
<g clip-path="url(#clip0_1_236)">
<path d="M26.6491 12.194L25.7667 12.9222L25.0124 12.1545V0.410827L21.9054 2.81525L22.5214 3.46753V12.0759L21.851 12.6853L23.7723 14.8541L26.7921 12.3726L26.6498 12.194H26.6491ZM11.7482 4.21308L10.7087 5.05191V11.5505L8.59282 13.21L6.54137 14.8541L5.46767 14.0448V16.2104C6.02549 16.031 6.54893 15.7585 7.01581 15.4044L7.13124 15.4554C6.74672 16.1688 6.21121 16.8137 5.46767 17.2116V18.2652L3.00688 19.1027V17.4183C2.37876 17.1807 1.88217 16.7492 1.52785 16.358C-0.422935 14.2025 0.74673 11.1338 3.00688 10.4848V6.45645L1.05274 7.97641L0.915167 7.79388L3.00688 6.16722V4.09766H1.89693C1.28358 4.09766 1.144 3.48833 1.0326 2.93537C0.921207 2.38309 1.0373 1.00807 1.0373 1.00807L1.18561 0.989285C1.15809 1.47111 1.42249 1.6174 1.57617 1.64559C1.72917 1.67444 4.09937 1.51808 4.61475 1.47581C5.13079 1.43353 5.46498 1.84422 5.46498 2.15627C5.46498 2.46831 5.46767 3.21655 5.46767 3.21655V4.25334L7.69023 2.52535L9.04243 1.43152L11.7482 4.21308ZM3.00688 12.2826C2.00028 12.1504 0.821889 12.2692 0.780955 13.5315C0.736664 14.9085 1.69025 15.9299 3.00688 16.2896V12.2826ZM6.38367 3.82923L5.46767 4.54257V10.7311L6.38367 11.4579V3.82923ZM6.60982 3.65542V11.6364L8.24789 12.9356V4.45667L7.08561 3.28433L6.60781 3.65609L6.60982 3.65542ZM20.4988 12.8081L21.2196 12.1961L21.3645 12.3726L18.4541 14.8541L16.8798 13.3845V12.4444L13.9828 14.8541L12.4259 13.3845V5.91624L14.8861 4.80697L16.7993 3.94063L19.2486 5.81961L20.1224 5.1217L20.2613 5.30289L19.3406 6.0377V11.9343L20.4988 12.8081ZM14.8861 11.9518L16.0457 12.8537L16.8798 12.1491V7.32413L14.8867 5.80417V11.9511L14.8861 11.9518ZM75.1597 12.445L75.157 6.03636L76.0771 5.30222L75.9382 5.12103L75.0638 5.81961L72.6157 3.93995L70.7018 4.80563L69.8892 5.17471L69.8811 5.17807L68.2417 5.94778V13.3845L69.6617 14.7246L67.1647 16.8452L67.3089 17.021C68.3008 17.021 69.4778 17.8934 70.2851 19.0423L70.4764 19.1631C70.4858 19.1496 71.4011 17.6699 73.672 17.1955C74.8785 16.9875 76.3435 16.3607 76.3435 14.679C76.3435 14.2535 76.1026 14.0428 75.8388 13.8113C75.5167 13.5295 75.1597 13.2161 75.1597 12.445ZM70.7018 11.9518V5.82699L72.6962 7.33688V8.99307L72.6929 12.1518L71.8641 12.8557L70.7018 11.9518ZM73.6089 16.9747C72.9646 17.1066 72.3464 17.3435 71.7789 17.676L71.7568 17.6397C71.5366 17.272 70.7421 15.946 68.5202 15.9936L72.6922 12.4511V13.7865C72.6922 14.169 72.7338 14.6233 73.4727 15.0904C74.1511 15.5198 74.4316 16.4895 73.6089 16.9747ZM84.4526 10.9714L84.5922 11.1512L80.0061 14.8541L77.548 12.5423L76.7817 13.1543L76.6421 12.9732L77.4521 12.3269V6.67991L79.9122 5.21229V10.4902L82.1187 8.728L79.9122 5.21229L82.0093 3.93995L84.0641 7.38923L84.0607 7.39258L84.097 7.43956L79.9122 10.7828V11.2056L81.82 13.0819L84.4526 10.9714ZM89.1373 12.9222L90.0204 12.194L90.1627 12.3726L87.1429 14.8541L85.2217 12.6853L85.8921 12.0759V3.46753L85.2754 2.81525L88.383 0.410156V12.1545L89.1373 12.9222ZM98.2846 9.15077L96.519 7.53082C98.4624 5.48944 98.1148 3.90573 98.0981 3.8346C98.0731 3.69348 98.0283 3.55658 97.9652 3.42793C97.9652 3.42793 97.735 4.81704 96.6063 4.81704C96.0365 4.81704 95.3138 4.10973 95.1923 3.98693L95.1662 3.95606L92.7309 5.49615L90.9613 6.56248V8.92328L90.964 8.92194L90.9633 8.92328L92.794 10.713C92.243 11.2324 91.8035 11.6498 91.5364 11.9048C91.0479 12.239 90.6506 12.7812 90.6506 13.6503C90.6506 15.6279 92.6685 15.7084 92.6685 15.7084C91.0156 15.081 91.8189 13.8992 92.6685 13.8992C93.518 13.8992 94.1421 14.8582 94.1421 14.8582L95.9137 13.6811L98.2846 12.2531V9.15077ZM93.4523 7.9348V5.3096L93.455 5.30758C93.6952 5.67466 94.5562 6.84298 95.7936 6.84298C96.3808 6.84298 96.9472 6.50141 97.3753 6.01086C97.0767 6.54973 96.6157 7.16308 95.9057 7.81468C95.45 8.23275 95.0011 8.64881 94.5716 9.04743L93.4523 7.9348ZM93.2127 11.3888C93.0288 11.3888 92.6403 11.427 92.2195 11.57C92.8161 11.0043 93.6905 10.1788 94.6756 9.2615L95.7936 10.2372V13.3872C94.983 11.5646 93.6925 11.3888 93.2127 11.3888ZM56.2599 12.8094L56.9792 12.1961L57.1235 12.3726L54.2131 14.8541L53.1803 13.8717L52.167 10.1171H48.7782L48.4621 11.2646L48.4997 11.264C49.8566 11.264 50.9719 12.492 50.9719 12.492L49.4486 14.9347C49.1365 14.3227 48.5359 13.6959 47.6427 13.4892C47.1696 13.3798 45.9986 13.3335 45.9986 14.4817C45.9986 15.8024 46.8831 16.5318 48.7513 16.5318C50.8276 16.5318 51.3712 15.1548 51.5248 14.2307H51.6966C51.6966 14.2307 51.7899 17.633 48.7788 17.633C46.9019 17.633 45.7678 16.0265 45.7678 14.4388C45.7678 13.1738 46.2785 11.4263 48.2239 11.276L50.3532 3.55409C50.0666 2.86491 49.4318 1.74557 48.3312 1.74557C46.9603 1.74557 46.6596 2.82398 46.6596 3.37156C46.6596 4.07014 47.1401 4.60565 48.0782 4.60565C49.1191 4.60565 49.4257 3.59503 49.4257 3.59503H49.57C49.57 3.59503 49.7693 5.38006 48.2125 5.49414C46.6086 5.61023 46.4241 4.13725 46.4241 3.55141C46.4241 2.69446 46.9005 1.18524 49.1567 1.18524C51.0779 1.18524 52.1959 2.05829 52.6938 2.86894L53.1938 1.51607L53.4052 1.5966L52.8374 3.13334C52.8683 3.19977 52.8965 3.26554 52.918 3.32862L55.2949 12.0793L56.2612 12.8087L56.2599 12.8094ZM50.4874 3.9158L49.2318 8.473H51.7235L50.539 4.08289C50.539 4.08289 50.5223 4.01981 50.4874 3.9158ZM41.6817 12.194L40.7985 12.9222L40.0429 12.1531V6.14776L41.0408 5.35053L40.9012 5.17069L39.9416 5.93704L38.1405 4.10504L37.9794 3.93995L35.4327 5.97261L33.5967 4.10571L33.4356 3.93995L30.9547 5.9196L29.1703 4.10571L29.0093 3.93995L26.0472 6.30412L26.1868 6.4853L27.1028 5.75384L28.5758 7.2483V12.0766L27.906 12.6853L30.04 14.8541L31.8814 12.9819L31.0668 12.1531V6.1236L31.5298 5.75451L33.0088 7.25501V12.0766L32.3384 12.6853L34.4724 14.8541L36.3145 12.9819L35.4991 12.1531V6.21151L36.0729 5.75451L37.5533 7.25568V12.0759L36.8822 12.6853L38.8041 14.8541L41.8239 12.3726L41.6817 12.194ZM66.3339 12.9222L67.217 12.194L67.3593 12.3726L64.3395 14.8541L62.4182 12.6853L63.0893 12.0759V7.22884L61.6337 5.75518L61.0345 6.23298V12.1538L61.8492 12.9819L60.0078 14.8548L57.8738 12.6859L58.5435 12.0773V7.22884L57.092 5.75451L56.176 6.48463L56.0364 6.30344L58.9985 3.93995L59.1595 4.10571L60.9956 5.97261L63.5423 3.93928L63.7033 4.10571L65.4836 5.91624L66.4372 5.15391L66.5775 5.33443L65.5789 6.13165V12.1538L66.3339 12.9222Z" fill="url(#paint0_linear_1_236)"/>
</g>
<defs>
<linearGradient id="paint0_linear_1_236" x1="49.4119" y1="0.410156" x2="49.4119" y2="19.1631" gradientUnits="userSpaceOnUse">
<stop stop-color="#E8F2F9"/>
<stop offset="1" stop-color="#A7B1B7"/>
</linearGradient>
<clipPath id="clip0_1_236">
<rect width="97.7741" height="18.7495" fill="white" transform="translate(0.386719 0.393555)"/>
</clipPath>
</defs>
</svg>
