<svg width="98" height="20" viewBox="0 0 98 20" fill="none" xmlns="http://www.w3.org/2000/svg">
<g clip-path="url(#clip0_1_263)">
<path d="M26.3503 12.194L25.4679 12.9222L24.7136 12.1545V0.410827L21.6066 2.81525L22.2226 3.46753V12.0759L21.5522 12.6853L23.4735 14.8541L26.4933 12.3726L26.351 12.194H26.3503ZM11.4493 4.21308L10.4099 5.05191V11.5505L8.29399 13.21L6.24254 14.8541L5.16884 14.0448V16.2104C5.72666 16.031 6.2501 15.7585 6.71699 15.4044L6.83241 15.4554C6.44789 16.1688 5.91238 16.8137 5.16884 17.2116V18.2652L2.70805 19.1027V17.4183C2.07993 17.1807 1.58334 16.7492 1.22902 16.358C-0.721763 14.2025 0.447902 11.1338 2.70805 10.4848V6.45645L0.753908 7.97641L0.616339 7.79388L2.70805 6.16722V4.09766H1.59811C0.984754 4.09766 0.845172 3.48833 0.733776 2.93537C0.622379 2.38309 0.738473 1.00807 0.738473 1.00807L0.886778 0.989285C0.859265 1.47111 1.12366 1.6174 1.27734 1.64559C1.43034 1.67444 3.80054 1.51808 4.31592 1.47581C4.83197 1.43353 5.16616 1.84422 5.16616 2.15627C5.16616 2.46831 5.16884 3.21655 5.16884 3.21655V4.25334L7.39141 2.52535L8.7436 1.43152L11.4493 4.21308ZM2.70805 12.2826C1.70145 12.1504 0.523061 12.2692 0.482126 13.5315C0.437836 14.9085 1.39142 15.9299 2.70805 16.2896V12.2826ZM6.08484 3.82923L5.16884 4.54257V10.7311L6.08484 11.4579V3.82923ZM6.31099 3.65542V11.6364L7.94906 12.9356V4.45667L6.78678 3.28433L6.30898 3.65609L6.31099 3.65542ZM20.2 12.8081L20.9207 12.1961L21.0657 12.3726L18.1553 14.8541L16.581 13.3845V12.4444L13.684 14.8541L12.1271 13.3845V5.91624L14.5872 4.80697L16.5004 3.94063L18.9498 5.81961L19.8235 5.1217L19.9625 5.30289L19.0418 6.0377V11.9343L20.2 12.8081ZM14.5872 11.9518L15.7468 12.8537L16.581 12.1491V7.32413L14.5879 5.80417V11.9511L14.5872 11.9518ZM74.8609 12.445L74.8582 6.03636L75.7782 5.30222L75.6393 5.12103L74.7649 5.81961L72.3169 3.93995L70.403 4.80563L69.5904 5.17471L69.5823 5.17807L67.9429 5.94778V13.3845L69.3629 14.7246L66.8658 16.8452L67.0101 17.021C68.0019 17.021 69.179 17.8934 69.9863 19.0423L70.1775 19.1631C70.1869 19.1496 71.1023 17.6699 73.3731 17.1955C74.5797 16.9875 76.0447 16.3607 76.0447 14.679C76.0447 14.2535 75.8037 14.0428 75.54 13.8113C75.2179 13.5295 74.8609 13.2161 74.8609 12.445ZM70.403 11.9518V5.82699L72.3974 7.33688V8.99307L72.3941 12.1518L71.5653 12.8557L70.403 11.9518ZM73.3101 16.9747C72.6658 17.1066 72.0475 17.3435 71.4801 17.676L71.4579 17.6397C71.2378 17.272 70.4433 15.946 68.2214 15.9936L72.3934 12.4511V13.7865C72.3934 14.169 72.435 14.6233 73.1738 15.0904C73.8523 15.5198 74.1328 16.4895 73.3101 16.9747ZM84.1538 10.9714L84.2934 11.1512L79.7073 14.8541L77.2492 12.5423L76.4829 13.1543L76.3433 12.9732L77.1533 12.3269V6.67991L79.6134 5.21229V10.4902L81.8198 8.728L79.6134 5.21229L81.7104 3.93995L83.7653 7.38923L83.7619 7.39258L83.7981 7.43956L79.6134 10.7828V11.2056L81.5212 13.0819L84.1538 10.9714ZM88.8385 12.9222L89.7216 12.194L89.8639 12.3726L86.8441 14.8541L84.9228 12.6853L85.5932 12.0759V3.46753L84.9765 2.81525L88.0842 0.410156V12.1545L88.8385 12.9222ZM97.9858 9.15077L96.2202 7.53082C98.1636 5.48944 97.816 3.90573 97.7992 3.8346C97.7742 3.69348 97.7295 3.55658 97.6664 3.42793C97.6664 3.42793 97.4362 4.81704 96.3074 4.81704C95.7377 4.81704 95.015 4.10973 94.8935 3.98693L94.8673 3.95606L92.4321 5.49615L90.6625 6.56248V8.92328L90.6651 8.92194L90.6645 8.92328L92.4951 10.713C91.9442 11.2324 91.5046 11.6498 91.2376 11.9048C90.749 12.239 90.3517 12.7812 90.3517 13.6503C90.3517 15.6279 92.3696 15.7084 92.3696 15.7084C90.7168 15.081 91.5201 13.8992 92.3696 13.8992C93.2192 13.8992 93.8433 14.8582 93.8433 14.8582L95.6149 13.6811L97.9858 12.2531V9.15077ZM93.1534 7.9348V5.3096L93.1561 5.30758C93.3964 5.67466 94.2573 6.84298 95.4948 6.84298C96.082 6.84298 96.6484 6.50141 97.0765 6.01086C96.7779 6.54973 96.3168 7.16308 95.6069 7.81468C95.1512 8.23275 94.7023 8.64881 94.2728 9.04743L93.1534 7.9348ZM92.9139 11.3888C92.73 11.3888 92.3415 11.427 91.9207 11.57C92.5173 11.0043 93.3917 10.1788 94.3768 9.2615L95.4948 10.2372V13.3872C94.6841 11.5646 93.3937 11.3888 92.9139 11.3888ZM55.961 12.8094L56.6804 12.1961L56.8247 12.3726L53.9143 14.8541L52.8815 13.8717L51.8682 10.1171H48.4793L48.1633 11.2646L48.2008 11.264C49.5577 11.264 50.673 12.492 50.673 12.492L49.1497 14.9347C48.8377 14.3227 48.2371 13.6959 47.3439 13.4892C46.8708 13.3798 45.6998 13.3335 45.6998 14.4817C45.6998 15.8024 46.5843 16.5318 48.4525 16.5318C50.5288 16.5318 51.0723 15.1548 51.226 14.2307H51.3978C51.3978 14.2307 51.4911 17.633 48.48 17.633C46.603 17.633 45.4689 16.0265 45.4689 14.4388C45.4689 13.1738 45.9796 11.4263 47.925 11.276L50.0543 3.55409C49.7678 2.86491 49.133 1.74557 48.0324 1.74557C46.6614 1.74557 46.3608 2.82398 46.3608 3.37156C46.3608 4.07014 46.8413 4.60565 47.7794 4.60565C48.8202 4.60565 49.1269 3.59503 49.1269 3.59503H49.2712C49.2712 3.59503 49.4705 5.38006 47.9136 5.49414C46.3098 5.61023 46.1252 4.13725 46.1252 3.55141C46.1252 2.69446 46.6017 1.18524 48.8578 1.18524C50.7791 1.18524 51.8971 2.05829 52.395 2.86894L52.8949 1.51607L53.1063 1.5966L52.5386 3.13334C52.5695 3.19977 52.5977 3.26554 52.6191 3.32862L54.996 12.0793L55.9624 12.8087L55.961 12.8094ZM50.1885 3.9158L48.933 8.473H51.4246L50.2402 4.08289C50.2402 4.08289 50.2234 4.01981 50.1885 3.9158ZM41.3828 12.194L40.4997 12.9222L39.7441 12.1531V6.14776L40.742 5.35053L40.6024 5.17069L39.6428 5.93704L37.8416 4.10504L37.6806 3.93995L35.1339 5.97261L33.2978 4.10571L33.1368 3.93995L30.6559 5.9196L28.8715 4.10571L28.7105 3.93995L25.7484 6.30412L25.888 6.4853L26.804 5.75384L28.2769 7.2483V12.0766L27.6072 12.6853L29.7412 14.8541L31.5826 12.9819L30.7679 12.1531V6.1236L31.231 5.75451L32.71 7.25501V12.0766L32.0396 12.6853L34.1736 14.8541L36.0157 12.9819L35.2003 12.1531V6.21151L35.7741 5.75451L37.2544 7.25568V12.0759L36.5834 12.6853L38.5053 14.8541L41.5251 12.3726L41.3828 12.194ZM66.0351 12.9222L66.9182 12.194L67.0604 12.3726L64.0407 14.8541L62.1194 12.6853L62.7905 12.0759V7.22884L61.3349 5.75518L60.7357 6.23298V12.1538L61.5503 12.9819L59.7089 14.8548L57.5749 12.6859L58.2447 12.0773V7.22884L56.7932 5.75451L55.8772 6.48463L55.7376 6.30344L58.6997 3.93995L58.8607 4.10571L60.6967 5.97261L63.2434 3.93928L63.4045 4.10571L65.1848 5.91624L66.1384 5.15391L66.2787 5.33443L65.2801 6.13165V12.1538L66.0351 12.9222Z" fill="url(#paint0_linear_1_263)"/>
</g>
<defs>
<linearGradient id="paint0_linear_1_263" x1="49.1131" y1="0.410156" x2="49.1131" y2="19.1631" gradientUnits="userSpaceOnUse">
<stop stop-color="#E8F2F9"/>
<stop offset="1" stop-color="#A7B1B7"/>
</linearGradient>
<clipPath id="clip0_1_263">
<rect width="97.7741" height="18.7495" fill="white" transform="translate(0.0881348 0.393555)"/>
</clipPath>
</defs>
</svg>
