<svg width="49" height="60" viewBox="0 0 49 60" fill="none" xmlns="http://www.w3.org/2000/svg">
<path d="M36.1335 0.769684C40.3267 0.769684 44.5206 0.769073 48.7139 0.770296C48.7163 1.71464 48.709 2.65959 48.7181 3.60454C47.6527 3.65102 46.5634 3.77029 45.5824 4.21616C44.5873 4.66325 43.753 5.4767 43.3237 6.48404C38.2246 18.4706 33.1292 30.4583 28.0356 42.4472C27.9476 42.6442 27.8766 42.8478 27.7739 43.0381C25.95 43.0167 24.1256 43.035 22.3017 43.0283C21.4968 41.4289 20.7048 39.8228 19.8931 38.2271C18.9629 40.72 18.0271 43.2105 17.0968 45.7029C23.1133 45.7035 29.1298 45.7029 35.1463 45.7035C36.2478 45.7182 37.3824 45.6723 38.413 45.2417C40.1255 44.5537 41.4888 43.224 42.5983 41.7824C43.9377 40.0356 44.9542 38.0693 45.86 36.0711C46.8759 36.0625 47.8912 36.0742 48.9065 36.0723C46.9811 40.1849 45.046 44.2937 43.1035 48.3983C29.2393 48.3989 15.3757 48.3983 1.51155 48.3983C1.84916 47.5169 2.17026 46.6283 2.53234 45.7561C2.55436 45.6662 2.66629 45.6888 2.73418 45.6803C4.46506 45.6674 6.20756 45.6001 7.90603 45.2399C8.78982 45.0326 9.70419 44.7561 10.3843 44.1249C10.7439 43.7818 10.8559 43.2809 10.9751 42.8185C12.6124 38.4369 14.2522 34.0558 15.8907 29.6748C12.4277 22.2962 8.95312 14.9219 5.4883 7.54398C5.2094 6.89872 4.8412 6.25958 4.262 5.83939C3.06323 4.94154 1.50543 4.82778 0.062013 4.77028C0.0607898 3.71279 0.062013 2.65592 0.0614014 1.59843C4.92928 1.59659 9.79654 1.5972 14.6644 1.59782C14.665 2.65531 14.6656 3.71279 14.6638 4.77028C14.0296 4.81065 13.3562 4.80025 12.7819 5.11401C12.4968 5.24857 12.3293 5.58741 12.4027 5.89566C12.4926 6.40025 12.8913 6.76049 13.0932 7.21615C15.1488 11.6437 17.2045 16.0718 19.2662 20.4975C20.2993 17.6088 21.3323 14.7207 22.3696 11.8339C22.5219 11.4327 22.5757 10.969 22.402 10.5654C22.2656 10.2467 21.9561 10.0498 21.6509 9.91706C21.0577 9.67241 20.4057 9.67486 19.7769 9.6296C20.098 8.73725 20.421 7.84489 20.7537 6.95743C20.8308 6.90789 20.9378 6.94581 21.0265 6.93358C25.9653 6.93664 30.9047 6.93358 35.8442 6.93542C35.5029 7.83205 35.1634 8.72868 34.8258 9.62654C33.6362 9.68159 32.4099 9.71155 31.2943 10.1764C30.783 10.3905 30.2992 10.7177 29.9971 11.1911C29.7873 11.5378 29.657 11.925 29.5164 12.303C27.4528 17.9311 25.3702 23.5519 23.3298 29.1886C24.4601 31.7433 25.6381 34.276 26.791 36.8203C30.9775 26.9341 35.1628 17.0467 39.3543 7.16233C39.6368 6.56783 40.0968 6.02533 40.1329 5.34154C40.1677 4.80637 39.7708 4.3446 39.3108 4.12503C38.3194 3.66754 37.205 3.64491 36.1335 3.60637C36.1322 2.66081 36.1322 1.71525 36.1335 0.769684Z" fill="url(#paint0_linear_1_336)"/>
<path d="M43.7461 54.0015C45.0678 55.3703 46.3791 56.7482 47.688 58.1287C47.6861 56.8455 47.6935 55.5617 47.6922 54.2785C47.9185 54.2791 48.1448 54.2767 48.3717 54.2736C48.3724 56.1054 48.3724 57.9378 48.3717 59.7696C47.0488 58.4076 45.7455 57.0271 44.4292 55.6583C44.4311 56.9495 44.4262 58.2412 44.4256 59.5329C44.1987 59.5348 43.9724 59.5342 43.7461 59.5342C43.7455 57.6895 43.7448 55.8455 43.7461 54.0015Z" fill="url(#paint1_linear_1_336)"/>
<path d="M5.26982 54.19C6.72609 53.9662 8.26676 55.1062 8.39642 56.5912C8.51874 57.4408 8.18908 58.3264 7.56706 58.9117C6.54443 59.9123 4.7053 59.894 3.71264 58.8579C3.17625 58.338 2.87044 57.5888 2.90285 56.8408C2.91753 55.5392 3.99337 54.3766 5.26982 54.19ZM5.27043 54.8628C4.42273 55.001 3.73282 55.7454 3.61417 56.5888C3.4527 57.5472 4.04414 58.5784 4.96952 58.8915C5.7793 59.1973 6.76462 58.9093 7.28449 58.2181C7.95666 57.3747 7.8429 56.0139 7.01599 55.3136C6.55116 54.8909 5.87899 54.7515 5.27043 54.8628Z" fill="url(#paint2_linear_1_336)"/>
<path d="M15.7856 54.473C16.5318 53.9128 17.7507 54.1446 18.1813 54.9911C18.0015 55.0926 17.8217 55.1948 17.6419 55.2963C17.3183 54.7905 16.5299 54.6669 16.0951 55.0963C15.911 55.2308 15.9312 55.4773 15.9507 55.6798C16.0033 55.944 16.2847 56.0559 16.492 56.1801C17.0266 56.4614 17.6688 56.6235 18.0443 57.1336C18.4633 57.703 18.3941 58.5507 17.9373 59.0779C17.4596 59.6559 16.5862 59.7966 15.9183 59.4938C15.4058 59.2406 15.089 58.7054 14.9862 58.1568C15.2156 58.1024 15.4461 58.0522 15.6761 58.0009C15.6994 58.5012 16.0877 59.007 16.6162 59.0162C17.3293 59.0938 17.8963 58.1666 17.481 57.5752C17.0376 56.9715 16.1825 56.9629 15.6724 56.4412C15.0718 55.9501 15.1324 54.8914 15.7856 54.473Z" fill="url(#paint3_linear_1_336)"/>
<path d="M40.1325 54.1861C41.0866 54.0669 42.0725 54.5072 42.6584 55.262C43.5031 56.3188 43.3679 58.0051 42.3655 58.9139C41.793 59.4797 40.9514 59.7127 40.1612 59.6289C39.3802 59.5775 38.6493 59.1396 38.1985 58.506C37.7129 57.8301 37.5869 56.9268 37.8169 56.1323C38.1172 55.1029 39.075 54.3207 40.1325 54.1861ZM40.0156 54.8717C38.9637 55.0509 38.2114 56.1714 38.3961 57.2136C38.5129 58.2161 39.464 59.032 40.4701 59.013C41.1563 59.0246 41.8107 58.6356 42.1808 58.0668C42.7429 57.2522 42.5948 56.0485 41.8707 55.3782C41.3967 54.898 40.6646 54.736 40.0156 54.8717Z" fill="url(#paint4_linear_1_336)"/>
<path d="M0.607544 54.2748C0.824669 54.2736 1.04179 54.2736 1.25892 54.2748C1.25953 55.8277 1.25831 57.3813 1.25953 58.9342C1.79898 58.9354 2.33781 58.9342 2.87726 58.9348C2.87849 59.1342 2.87849 59.3335 2.87787 59.5335C2.12069 59.5342 1.36412 59.5348 0.607544 59.5335C0.608156 57.7806 0.608156 56.0277 0.607544 54.2748Z" fill="url(#paint5_linear_1_336)"/>
<path d="M8.92308 54.2794C9.15305 54.2776 9.38302 54.2782 9.6136 54.2788C9.61544 55.3136 9.61054 56.3491 9.61605 57.384C9.62644 57.839 9.68271 58.3393 10.0044 58.6898C10.5164 59.1919 11.5219 59.1204 11.879 58.4696C12.0595 58.1638 12.1121 57.8017 12.1072 57.4519C12.1029 56.3944 12.1029 55.3369 12.1035 54.2788C12.3335 54.2776 12.5634 54.2782 12.7934 54.2788C12.7934 55.3583 12.7959 56.4378 12.7928 57.5173C12.794 58.0072 12.709 58.5253 12.3959 58.9191C11.7225 59.8519 10.1616 59.9051 9.424 59.0237C9.07354 58.6568 8.9292 58.1393 8.92431 57.6415C8.92125 56.521 8.92369 55.3999 8.92308 54.2794Z" fill="url(#paint6_linear_1_336)"/>
<path d="M13.6427 54.2754C13.869 54.2729 14.0959 54.2735 14.3228 54.2748C14.3228 56.0277 14.3234 57.7806 14.3222 59.5341C14.0959 59.5341 13.869 59.5347 13.6421 59.5328C13.6433 57.7806 13.6433 56.0277 13.6427 54.2754Z" fill="url(#paint7_linear_1_336)"/>
<path d="M20.453 54.2798C20.7019 54.273 20.9521 54.273 21.2016 54.2742C21.7239 55.5525 22.2383 56.8339 22.7515 58.1158C23.2634 56.8382 23.79 55.5666 24.2903 54.2846C24.5466 54.2632 24.8034 54.2779 25.0603 54.2742C24.2964 56.1342 23.5294 57.9929 22.7588 59.8498C21.9747 57.9996 21.2188 56.1372 20.453 54.2798Z" fill="url(#paint8_linear_1_336)"/>
<path d="M25.3716 54.2737C25.5979 54.2767 25.8242 54.2792 26.0511 54.2786C26.059 55.2975 26.0498 56.3171 26.0584 57.3361C26.0743 57.8198 26.1116 58.3685 26.481 58.7269C26.9073 59.092 27.5862 59.1146 28.0413 58.7899C28.3061 58.6015 28.4517 58.2884 28.5092 57.9764C28.5997 57.4394 28.5673 56.8932 28.5734 56.3514C28.5771 55.6608 28.5777 54.9703 28.5764 54.2798C28.7942 54.2774 29.0125 54.278 29.2309 54.2786C29.2407 55.2364 29.2327 56.1936 29.2352 57.1513C29.2504 57.7452 29.2315 58.3899 28.87 58.8914C28.237 59.8046 26.7801 59.903 25.9789 59.1611C25.5783 58.7905 25.3771 58.2437 25.374 57.7043C25.3679 56.5605 25.3728 55.4174 25.3716 54.2737Z" fill="url(#paint9_linear_1_336)"/>
<path d="M30.0843 54.2787C30.3204 54.2793 30.5565 54.2769 30.7932 54.2744C30.7932 56.0273 30.7926 57.7802 30.7932 59.5337C30.5553 59.5343 30.318 59.5343 30.0807 59.5337C30.0782 57.782 30.0862 56.0304 30.0843 54.2787Z" fill="url(#paint10_linear_1_336)"/>
<path d="M31.2184 54.2783C33.3388 54.2801 35.4587 54.2746 37.5792 54.2752C37.5786 54.485 37.5786 54.6948 37.5792 54.9052C37.1725 54.907 36.7664 54.9052 36.3602 54.9058C36.3584 56.4483 36.3596 57.9908 36.3596 59.5333C36.1229 59.5339 35.8868 59.5339 35.6501 59.5333C35.6489 57.9908 35.6544 56.4483 35.6477 54.9058C34.8153 54.907 33.9829 54.9052 33.1505 54.9064C33.1492 56.4489 33.1505 57.9908 33.1498 59.5333C32.9327 59.5339 32.7156 59.5339 32.4991 59.5333C32.4985 57.9908 32.4997 56.4489 32.4985 54.9064C32.0716 54.9052 31.6453 54.907 31.2184 54.9052C31.2177 54.696 31.2177 54.4868 31.2184 54.2783Z" fill="url(#paint11_linear_1_336)"/>
<defs>
<linearGradient id="paint0_linear_1_336" x1="24.484" y1="0.769531" x2="24.484" y2="48.3986" gradientUnits="userSpaceOnUse">
<stop stop-color="#E8F2F9"/>
<stop offset="1" stop-color="#A7B1B7"/>
</linearGradient>
<linearGradient id="paint1_linear_1_336" x1="46.0588" y1="54.0015" x2="46.0588" y2="59.7696" gradientUnits="userSpaceOnUse">
<stop stop-color="#E8F2F9"/>
<stop offset="1" stop-color="#A7B1B7"/>
</linearGradient>
<linearGradient id="paint2_linear_1_336" x1="5.66109" y1="54.1619" x2="5.66109" y2="59.6488" gradientUnits="userSpaceOnUse">
<stop stop-color="#E8F2F9"/>
<stop offset="1" stop-color="#A7B1B7"/>
</linearGradient>
<linearGradient id="paint3_linear_1_336" x1="16.6544" y1="54.1675" x2="16.6544" y2="59.6491" gradientUnits="userSpaceOnUse">
<stop stop-color="#E8F2F9"/>
<stop offset="1" stop-color="#A7B1B7"/>
</linearGradient>
<linearGradient id="paint4_linear_1_336" x1="40.4597" y1="54.1667" x2="40.4597" y2="59.6455" gradientUnits="userSpaceOnUse">
<stop stop-color="#E8F2F9"/>
<stop offset="1" stop-color="#A7B1B7"/>
</linearGradient>
<linearGradient id="paint5_linear_1_336" x1="1.74291" y1="54.2739" x2="1.74291" y2="59.5342" gradientUnits="userSpaceOnUse">
<stop stop-color="#E8F2F9"/>
<stop offset="1" stop-color="#A7B1B7"/>
</linearGradient>
<linearGradient id="paint6_linear_1_336" x1="10.8585" y1="54.2781" x2="10.8585" y2="59.653" gradientUnits="userSpaceOnUse">
<stop stop-color="#E8F2F9"/>
<stop offset="1" stop-color="#A7B1B7"/>
</linearGradient>
<linearGradient id="paint7_linear_1_336" x1="13.9825" y1="54.2737" x2="13.9825" y2="59.5342" gradientUnits="userSpaceOnUse">
<stop stop-color="#E8F2F9"/>
<stop offset="1" stop-color="#A7B1B7"/>
</linearGradient>
<linearGradient id="paint8_linear_1_336" x1="22.7567" y1="54.2727" x2="22.7567" y2="59.8498" gradientUnits="userSpaceOnUse">
<stop stop-color="#E8F2F9"/>
<stop offset="1" stop-color="#A7B1B7"/>
</linearGradient>
<linearGradient id="paint9_linear_1_336" x1="27.3048" y1="54.2737" x2="27.3048" y2="59.6546" gradientUnits="userSpaceOnUse">
<stop stop-color="#E8F2F9"/>
<stop offset="1" stop-color="#A7B1B7"/>
</linearGradient>
<linearGradient id="paint10_linear_1_336" x1="30.4367" y1="54.2744" x2="30.4367" y2="59.5342" gradientUnits="userSpaceOnUse">
<stop stop-color="#E8F2F9"/>
<stop offset="1" stop-color="#A7B1B7"/>
</linearGradient>
<linearGradient id="paint11_linear_1_336" x1="34.3985" y1="54.2751" x2="34.3985" y2="59.5337" gradientUnits="userSpaceOnUse">
<stop stop-color="#E8F2F9"/>
<stop offset="1" stop-color="#A7B1B7"/>
</linearGradient>
</defs>
</svg>
