<svg width="50" height="60" viewBox="0 0 50 60" fill="none" xmlns="http://www.w3.org/2000/svg">
<path d="M36.8346 0.769684C41.0279 0.769684 45.2218 0.769073 49.415 0.770296C49.4175 1.71464 49.4101 2.65959 49.4193 3.60454C48.3539 3.65102 47.2646 3.77029 46.2835 4.21616C45.2884 4.66325 44.4542 5.4767 44.0248 6.48404C38.9258 18.4706 33.8304 30.4583 28.7368 42.4472C28.6487 42.6442 28.5778 42.8478 28.475 43.0381C26.6512 43.0167 24.8267 43.035 23.0029 43.0283C22.198 41.4289 21.4059 39.8228 20.5943 38.2271C19.664 40.72 18.7283 43.2105 17.798 45.7029C23.8145 45.7035 29.831 45.7029 35.8475 45.7035C36.949 45.7182 38.0836 45.6723 39.1141 45.2417C40.8267 44.5537 42.19 43.224 43.2995 41.7824C44.6389 40.0356 45.6554 38.0693 46.5612 36.0711C47.5771 36.0625 48.5924 36.0742 49.6077 36.0723C47.6823 40.1849 45.7472 44.2937 43.8047 48.3983C29.9405 48.3989 16.0769 48.3983 2.21272 48.3983C2.55034 47.5169 2.87144 46.6283 3.23351 45.7561C3.25553 45.6662 3.36746 45.6888 3.43535 45.6803C5.16623 45.6674 6.90873 45.6001 8.6072 45.2399C9.49099 45.0326 10.4054 44.7561 11.0855 44.1249C11.4451 43.7818 11.557 43.2809 11.6763 42.8185C13.3136 38.4369 14.9534 34.0558 16.5919 29.6748C13.1289 22.2962 9.65429 14.9219 6.18947 7.54398C5.91057 6.89872 5.54238 6.25958 4.96317 5.83939C3.7644 4.94154 2.20661 4.82778 0.763185 4.77028C0.761962 3.71279 0.763185 2.65592 0.762573 1.59843C5.63045 1.59659 10.4977 1.5972 15.3656 1.59782C15.3662 2.65531 15.3668 3.71279 15.365 4.77028C14.7307 4.81065 14.0573 4.80025 13.483 5.11401C13.198 5.24857 13.0304 5.58741 13.1038 5.89566C13.1937 6.40025 13.5925 6.76049 13.7943 7.21615C15.85 11.6437 17.9056 16.0718 19.9674 20.4975C21.0004 17.6088 22.0335 14.7207 23.0708 11.8339C23.2231 11.4327 23.2769 10.969 23.1032 10.5654C22.9668 10.2467 22.6573 10.0498 22.3521 9.91706C21.7588 9.67241 21.1069 9.67486 20.4781 9.6296C20.7992 8.73725 21.1221 7.84489 21.4549 6.95743C21.5319 6.90789 21.639 6.94581 21.7277 6.93358C26.6665 6.93664 31.6059 6.93358 36.5453 6.93542C36.2041 7.83205 35.8646 8.72868 35.527 9.62654C34.3374 9.68159 33.1111 9.71155 31.9955 10.1764C31.4842 10.3905 31.0004 10.7177 30.6983 11.1911C30.4885 11.5378 30.3582 11.925 30.2175 12.303C28.1539 17.9311 26.0714 23.5519 24.031 29.1886C25.1613 31.7433 26.3393 34.276 27.4922 36.8203C31.6787 26.9341 35.864 17.0467 40.0554 7.16233C40.338 6.56783 40.7979 6.02533 40.834 5.34154C40.8689 4.80637 40.4719 4.3446 40.012 4.12503C39.0206 3.66754 37.9062 3.64491 36.8346 3.60637C36.8334 2.66081 36.8334 1.71525 36.8346 0.769684Z" fill="url(#paint0_linear_1_375)"/>
<path d="M44.4474 54.0015C45.7691 55.3703 47.0804 56.7482 48.3892 58.1287C48.3874 56.8455 48.3948 55.5617 48.3935 54.2785C48.6198 54.2791 48.8461 54.2767 49.073 54.2736C49.0736 56.1054 49.0736 57.9378 49.073 59.7696C47.7501 58.4076 46.4467 57.0271 45.1305 55.6583C45.1324 56.9495 45.1275 58.2412 45.1269 59.5329C44.9 59.5348 44.6737 59.5342 44.4474 59.5342C44.4467 57.6895 44.4461 55.8455 44.4474 54.0015Z" fill="url(#paint1_linear_1_375)"/>
<path d="M5.97124 54.19C7.4275 53.9662 8.96817 55.1062 9.09783 56.5912C9.22016 57.4408 8.89049 58.3264 8.26848 58.9117C7.24585 59.9123 5.40671 59.894 4.41405 58.8579C3.87766 58.338 3.57185 57.5888 3.60427 56.8408C3.61895 55.5392 4.69479 54.3766 5.97124 54.19ZM5.97185 54.8628C5.12414 55.001 4.43424 55.7454 4.31558 56.5888C4.15412 57.5472 4.74555 58.5784 5.67093 58.8915C6.48072 59.1973 7.46603 58.9093 7.98591 58.2181C8.65808 57.3747 8.54432 56.0139 7.71741 55.3136C7.25258 54.8909 6.58041 54.7515 5.97185 54.8628Z" fill="url(#paint2_linear_1_375)"/>
<path d="M16.487 54.473C17.2332 53.9128 18.4521 54.1446 18.8827 54.9911C18.7029 55.0926 18.5231 55.1948 18.3433 55.2963C18.0197 54.7905 17.2313 54.6669 16.7965 55.0963C16.6124 55.2308 16.6326 55.4773 16.6521 55.6798C16.7047 55.944 16.9861 56.0559 17.1934 56.1801C17.728 56.4614 18.3702 56.6235 18.7457 57.1336C19.1647 57.703 19.0956 58.5507 18.6387 59.0779C18.161 59.6559 17.2876 59.7966 16.6197 59.4938C16.1072 59.2406 15.7904 58.7054 15.6876 58.1568C15.917 58.1024 16.1476 58.0522 16.3775 58.0009C16.4008 58.5012 16.7891 59.007 17.3176 59.0162C18.0307 59.0938 18.5977 58.1666 18.1824 57.5752C17.739 56.9715 16.8839 56.9629 16.3739 56.4412C15.7732 55.9501 15.8338 54.8914 16.487 54.473Z" fill="url(#paint3_linear_1_375)"/>
<path d="M40.8339 54.1861C41.788 54.0669 42.7739 54.5072 43.3599 55.262C44.2045 56.3188 44.0693 58.0051 43.0669 58.9139C42.4944 59.4797 41.6528 59.7127 40.8626 59.6289C40.0816 59.5775 39.3507 59.1396 38.8999 58.506C38.4143 57.8301 38.2883 56.9268 38.5183 56.1323C38.8186 55.1029 39.7764 54.3207 40.8339 54.1861ZM40.7171 54.8717C39.6651 55.0509 38.9128 56.1714 39.0975 57.2136C39.2143 58.2161 40.1654 59.032 41.1715 59.013C41.8577 59.0246 42.5122 58.6356 42.8822 58.0668C43.4443 57.2522 43.2963 56.0485 42.5721 55.3782C42.0981 54.898 41.366 54.736 40.7171 54.8717Z" fill="url(#paint4_linear_1_375)"/>
<path d="M1.30896 54.2748C1.52608 54.2736 1.74321 54.2736 1.96033 54.2748C1.96095 55.8277 1.95972 57.3813 1.96095 58.9342C2.50039 58.9354 3.03923 58.9342 3.57868 58.9348C3.5799 59.1342 3.5799 59.3335 3.57929 59.5335C2.82211 59.5342 2.06553 59.5348 1.30896 59.5335C1.30957 57.7806 1.30957 56.0277 1.30896 54.2748Z" fill="url(#paint5_linear_1_375)"/>
<path d="M9.6245 54.2794C9.85447 54.2776 10.0844 54.2782 10.315 54.2788C10.3169 55.3136 10.312 56.3491 10.3175 57.384C10.3279 57.839 10.3841 58.3393 10.7058 58.6898C11.2178 59.1919 12.2233 59.1204 12.5805 58.4696C12.7609 58.1638 12.8135 57.8017 12.8086 57.4519C12.8043 56.3944 12.8043 55.3369 12.8049 54.2788C13.0349 54.2776 13.2649 54.2782 13.4948 54.2788C13.4948 55.3583 13.4973 56.4378 13.4942 57.5173C13.4954 58.0072 13.4104 58.5253 13.0973 58.9191C12.4239 59.8519 10.863 59.9051 10.1254 59.0237C9.77496 58.6568 9.63061 58.1393 9.62572 57.6415C9.62266 56.521 9.62511 55.3999 9.6245 54.2794Z" fill="url(#paint6_linear_1_375)"/>
<path d="M14.3441 54.2754C14.5704 54.2729 14.7973 54.2735 15.0242 54.2748C15.0242 56.0277 15.0249 57.7806 15.0236 59.5341C14.7973 59.5341 14.5704 59.5347 14.3435 59.5328C14.3447 57.7806 14.3447 56.0277 14.3441 54.2754Z" fill="url(#paint7_linear_1_375)"/>
<path d="M21.1544 54.2798C21.4033 54.273 21.6535 54.273 21.903 54.2742C22.4254 55.5525 22.9397 56.8339 23.4529 58.1158C23.9648 56.8382 24.4914 55.5666 24.9917 54.2846C25.248 54.2632 25.5049 54.2779 25.7617 54.2742C24.9978 56.1342 24.2309 57.9929 23.4602 59.8498C22.6761 57.9996 21.9202 56.1372 21.1544 54.2798Z" fill="url(#paint8_linear_1_375)"/>
<path d="M26.073 54.2737C26.2993 54.2767 26.5256 54.2792 26.7525 54.2786C26.7604 55.2975 26.7513 56.3171 26.7598 57.3361C26.7757 57.8198 26.813 58.3685 27.1824 58.7269C27.6087 59.092 28.2876 59.1146 28.7427 58.7899C29.0075 58.6015 29.1531 58.2884 29.2106 57.9764C29.3011 57.4394 29.2687 56.8932 29.2748 56.3514C29.2785 55.6608 29.2791 54.9703 29.2779 54.2798C29.4956 54.2774 29.7139 54.278 29.9323 54.2786C29.9421 55.2364 29.9341 56.1936 29.9366 57.1513C29.9519 57.7452 29.9329 58.3899 29.5714 58.8914C28.9384 59.8046 27.4815 59.903 26.6803 59.1611C26.2797 58.7905 26.0785 58.2437 26.0754 57.7043C26.0693 56.5605 26.0742 55.4174 26.073 54.2737Z" fill="url(#paint9_linear_1_375)"/>
<path d="M30.7858 54.2787C31.0218 54.2793 31.2579 54.2769 31.4946 54.2744C31.4946 56.0273 31.494 57.7802 31.4946 59.5337C31.2567 59.5343 31.0194 59.5343 30.7821 59.5337C30.7796 57.782 30.7876 56.0304 30.7858 54.2787Z" fill="url(#paint10_linear_1_375)"/>
<path d="M31.9198 54.2783C34.0403 54.2801 36.1601 54.2746 38.2806 54.2752C38.28 54.485 38.28 54.6948 38.2806 54.9052C37.8739 54.907 37.4678 54.9052 37.0617 54.9058C37.0598 56.4483 37.061 57.9908 37.061 59.5333C36.8243 59.5339 36.5883 59.5339 36.3516 59.5333C36.3503 57.9908 36.3558 56.4483 36.3491 54.9058C35.5167 54.907 34.6843 54.9052 33.8519 54.9064C33.8506 56.4489 33.8519 57.9908 33.8513 59.5333C33.6341 59.5339 33.417 59.5339 33.2005 59.5333C33.1999 57.9908 33.2011 56.4489 33.1999 54.9064C32.773 54.9052 32.3467 54.907 31.9198 54.9052C31.9192 54.696 31.9192 54.4868 31.9198 54.2783Z" fill="url(#paint11_linear_1_375)"/>
<defs>
<linearGradient id="paint0_linear_1_375" x1="25.1851" y1="0.769531" x2="25.1851" y2="48.3986" gradientUnits="userSpaceOnUse">
<stop stop-color="#E8F2F9"/>
<stop offset="1" stop-color="#A7B1B7"/>
</linearGradient>
<linearGradient id="paint1_linear_1_375" x1="46.7601" y1="54.0015" x2="46.7601" y2="59.7696" gradientUnits="userSpaceOnUse">
<stop stop-color="#E8F2F9"/>
<stop offset="1" stop-color="#A7B1B7"/>
</linearGradient>
<linearGradient id="paint2_linear_1_375" x1="6.3625" y1="54.1619" x2="6.3625" y2="59.6488" gradientUnits="userSpaceOnUse">
<stop stop-color="#E8F2F9"/>
<stop offset="1" stop-color="#A7B1B7"/>
</linearGradient>
<linearGradient id="paint3_linear_1_375" x1="17.3558" y1="54.1675" x2="17.3558" y2="59.6491" gradientUnits="userSpaceOnUse">
<stop stop-color="#E8F2F9"/>
<stop offset="1" stop-color="#A7B1B7"/>
</linearGradient>
<linearGradient id="paint4_linear_1_375" x1="41.1612" y1="54.1667" x2="41.1612" y2="59.6455" gradientUnits="userSpaceOnUse">
<stop stop-color="#E8F2F9"/>
<stop offset="1" stop-color="#A7B1B7"/>
</linearGradient>
<linearGradient id="paint5_linear_1_375" x1="2.44433" y1="54.2739" x2="2.44433" y2="59.5342" gradientUnits="userSpaceOnUse">
<stop stop-color="#E8F2F9"/>
<stop offset="1" stop-color="#A7B1B7"/>
</linearGradient>
<linearGradient id="paint6_linear_1_375" x1="11.5599" y1="54.2781" x2="11.5599" y2="59.653" gradientUnits="userSpaceOnUse">
<stop stop-color="#E8F2F9"/>
<stop offset="1" stop-color="#A7B1B7"/>
</linearGradient>
<linearGradient id="paint7_linear_1_375" x1="14.6839" y1="54.2737" x2="14.6839" y2="59.5342" gradientUnits="userSpaceOnUse">
<stop stop-color="#E8F2F9"/>
<stop offset="1" stop-color="#A7B1B7"/>
</linearGradient>
<linearGradient id="paint8_linear_1_375" x1="23.4581" y1="54.2727" x2="23.4581" y2="59.8498" gradientUnits="userSpaceOnUse">
<stop stop-color="#E8F2F9"/>
<stop offset="1" stop-color="#A7B1B7"/>
</linearGradient>
<linearGradient id="paint9_linear_1_375" x1="28.0062" y1="54.2737" x2="28.0062" y2="59.6546" gradientUnits="userSpaceOnUse">
<stop stop-color="#E8F2F9"/>
<stop offset="1" stop-color="#A7B1B7"/>
</linearGradient>
<linearGradient id="paint10_linear_1_375" x1="31.1381" y1="54.2744" x2="31.1381" y2="59.5342" gradientUnits="userSpaceOnUse">
<stop stop-color="#E8F2F9"/>
<stop offset="1" stop-color="#A7B1B7"/>
</linearGradient>
<linearGradient id="paint11_linear_1_375" x1="35.1" y1="54.2751" x2="35.1" y2="59.5337" gradientUnits="userSpaceOnUse">
<stop stop-color="#E8F2F9"/>
<stop offset="1" stop-color="#A7B1B7"/>
</linearGradient>
</defs>
</svg>
