<svg width="50" height="60" viewBox="0 0 50 60" fill="none" xmlns="http://www.w3.org/2000/svg">
<path d="M36.4325 0.769684C40.6257 0.769684 44.8196 0.769073 49.0129 0.770296C49.0153 1.71464 49.008 2.65959 49.0172 3.60454C47.9517 3.65102 46.8624 3.77029 45.8814 4.21616C44.8863 4.66325 44.052 5.4767 43.6227 6.48404C38.5236 18.4706 33.4282 30.4583 28.3346 42.4472C28.2466 42.6442 28.1756 42.8478 28.0729 43.0381C26.249 43.0167 24.4246 43.035 22.6007 43.0283C21.7958 41.4289 21.0038 39.8228 20.1922 38.2271C19.2619 40.72 18.3261 43.2105 17.3958 45.7029C23.4123 45.7035 29.4288 45.7029 35.4453 45.7035C36.5469 45.7182 37.6814 45.6723 38.712 45.2417C40.4245 44.5537 41.7878 43.224 42.8973 41.7824C44.2367 40.0356 45.2533 38.0693 46.1591 36.0711C47.175 36.0625 48.1902 36.0742 49.2055 36.0723C47.2802 40.1849 45.345 44.2937 43.4025 48.3983C29.5383 48.3989 15.6747 48.3983 1.81056 48.3983C2.14818 47.5169 2.46927 46.6283 2.83135 45.7561C2.85337 45.6662 2.9653 45.6888 3.03319 45.6803C4.76407 45.6674 6.50657 45.6001 8.20504 45.2399C9.08883 45.0326 10.0032 44.7561 10.6833 44.1249C11.043 43.7818 11.1549 43.2809 11.2741 42.8185C12.9114 38.4369 14.5512 34.0558 16.1897 29.6748C12.7267 22.2962 9.25213 14.9219 5.78731 7.54398C5.50841 6.89872 5.14022 6.25958 4.56101 5.83939C3.36224 4.94154 1.80445 4.82778 0.361024 4.77028C0.359801 3.71279 0.361024 2.65592 0.360413 1.59843C5.22829 1.59659 10.0956 1.5972 14.9634 1.59782C14.964 2.65531 14.9647 3.71279 14.9628 4.77028C14.3286 4.81065 13.6552 4.80025 13.0809 5.11401C12.7959 5.24857 12.6283 5.58741 12.7017 5.89566C12.7916 6.40025 13.1903 6.76049 13.3922 7.21615C15.4478 11.6437 17.5035 16.0718 19.5653 20.4975C20.5983 17.6088 21.6313 14.7207 22.6686 11.8339C22.8209 11.4327 22.8747 10.969 22.701 10.5654C22.5646 10.2467 22.2552 10.0498 21.95 9.91706C21.3567 9.67241 20.7047 9.67486 20.076 9.6296C20.3971 8.73725 20.72 7.84489 21.0527 6.95743C21.1298 6.90789 21.2368 6.94581 21.3255 6.93358C26.2643 6.93664 31.2038 6.93358 36.1432 6.93542C35.8019 7.83205 35.4625 8.72868 35.1248 9.62654C33.9352 9.68159 32.7089 9.71155 31.5934 10.1764C31.082 10.3905 30.5982 10.7177 30.2961 11.1911C30.0863 11.5378 29.956 11.925 29.8154 12.303C27.7518 17.9311 25.6692 23.5519 23.6288 29.1886C24.7591 31.7433 25.9371 34.276 27.09 36.8203C31.2765 26.9341 35.4618 17.0467 39.6533 7.16233C39.9358 6.56783 40.3958 6.02533 40.4319 5.34154C40.4667 4.80637 40.0698 4.3446 39.6098 4.12503C38.6184 3.66754 37.504 3.64491 36.4325 3.60637C36.4313 2.66081 36.4313 1.71525 36.4325 0.769684Z" fill="url(#paint0_linear_1_297)"/>
<path d="M44.0452 54.0015C45.3669 55.3703 46.6782 56.7482 47.9871 58.1287C47.9853 56.8455 47.9926 55.5617 47.9914 54.2785C48.2177 54.2791 48.444 54.2767 48.6709 54.2736C48.6715 56.1054 48.6715 57.9378 48.6709 59.7696C47.3479 58.4076 46.0446 57.0271 44.7284 55.6583C44.7302 56.9495 44.7253 58.2412 44.7247 59.5329C44.4978 59.5348 44.2715 59.5342 44.0452 59.5342C44.0446 57.6895 44.044 55.8455 44.0452 54.0015Z" fill="url(#paint1_linear_1_297)"/>
<path d="M5.56901 54.19C7.02528 53.9662 8.56595 55.1062 8.69561 56.5912C8.81794 57.4408 8.48827 58.3264 7.86626 58.9117C6.84363 59.9123 5.00449 59.894 4.01183 58.8579C3.47544 58.338 3.16963 57.5888 3.20205 56.8408C3.21673 55.5392 4.29257 54.3766 5.56901 54.19ZM5.56963 54.8628C4.72192 55.001 4.03202 55.7454 3.91336 56.5888C3.75189 57.5472 4.34333 58.5784 5.26871 58.8915C6.07849 59.1973 7.06381 58.9093 7.58369 58.2181C8.25586 57.3747 8.1421 56.0139 7.31519 55.3136C6.85036 54.8909 6.17819 54.7515 5.56963 54.8628Z" fill="url(#paint2_linear_1_297)"/>
<path d="M16.0848 54.473C16.831 53.9128 18.0499 54.1446 18.4805 54.9911C18.3007 55.0926 18.1209 55.1948 17.941 55.2963C17.6175 54.7905 16.8291 54.6669 16.3943 55.0963C16.2102 55.2308 16.2304 55.4773 16.2499 55.6798C16.3025 55.944 16.5839 56.0559 16.7912 56.1801C17.3258 56.4614 17.968 56.6235 18.3435 57.1336C18.7625 57.703 18.6933 58.5507 18.2365 59.0779C17.7588 59.6559 16.8854 59.7966 16.2175 59.4938C15.705 59.2406 15.3882 58.7054 15.2854 58.1568C15.5148 58.1024 15.7453 58.0522 15.9753 58.0009C15.9985 58.5012 16.3869 59.007 16.9154 59.0162C17.6285 59.0938 18.1955 58.1666 17.7802 57.5752C17.3368 56.9715 16.4817 56.9629 15.9716 56.4412C15.371 55.9501 15.4316 54.8914 16.0848 54.473Z" fill="url(#paint3_linear_1_297)"/>
<path d="M40.4316 54.1861C41.3857 54.0669 42.3717 54.5072 42.9576 55.262C43.8022 56.3188 43.6671 58.0051 42.6646 58.9139C42.0921 59.4797 41.2506 59.7127 40.4603 59.6289C39.6793 59.5775 38.9484 59.1396 38.4977 58.506C38.012 57.8301 37.886 56.9268 38.116 56.1323C38.4163 55.1029 39.3741 54.3207 40.4316 54.1861ZM40.3148 54.8717C39.2628 55.0509 38.5105 56.1714 38.6952 57.2136C38.812 58.2161 39.7631 59.032 40.7692 59.013C41.4554 59.0246 42.1099 58.6356 42.4799 58.0668C43.042 57.2522 42.894 56.0485 42.1698 55.3782C41.6958 54.898 40.9637 54.736 40.3148 54.8717Z" fill="url(#paint4_linear_1_297)"/>
<path d="M0.906738 54.2748C1.12386 54.2736 1.34099 54.2736 1.55811 54.2748C1.55872 55.8277 1.5575 57.3813 1.55872 58.9342C2.09817 58.9354 2.63701 58.9342 3.17646 58.9348C3.17768 59.1342 3.17768 59.3335 3.17707 59.5335C2.41988 59.5342 1.66331 59.5348 0.906738 59.5335C0.90735 57.7806 0.90735 56.0277 0.906738 54.2748Z" fill="url(#paint5_linear_1_297)"/>
<path d="M9.22228 54.2794C9.45224 54.2776 9.68221 54.2782 9.91279 54.2788C9.91463 55.3136 9.90974 56.3491 9.91524 57.384C9.92564 57.839 9.98191 58.3393 10.3036 58.6898C10.8155 59.1919 11.821 59.1204 12.1782 58.4696C12.3587 58.1638 12.4113 57.8017 12.4064 57.4519C12.4021 56.3944 12.4021 55.3369 12.4027 54.2788C12.6327 54.2776 12.8626 54.2782 13.0926 54.2788C13.0926 55.3583 13.095 56.4378 13.092 57.5173C13.0932 58.0072 13.0082 58.5253 12.6951 58.9191C12.0217 59.8519 10.4608 59.9051 9.72319 59.0237C9.37273 58.6568 9.22839 58.1393 9.2235 57.6415C9.22044 56.521 9.22289 55.3999 9.22228 54.2794Z" fill="url(#paint6_linear_1_297)"/>
<path d="M13.942 54.2754C14.1683 54.2729 14.3952 54.2735 14.6221 54.2748C14.6221 56.0277 14.6227 57.7806 14.6215 59.5341C14.3952 59.5341 14.1683 59.5347 13.9413 59.5328C13.9426 57.7806 13.9426 56.0277 13.942 54.2754Z" fill="url(#paint7_linear_1_297)"/>
<path d="M20.7521 54.2798C21.0011 54.273 21.2512 54.273 21.5008 54.2742C22.0231 55.5525 22.5375 56.8339 23.0506 58.1158C23.5625 56.8382 24.0891 55.5666 24.5894 54.2846C24.8457 54.2632 25.1026 54.2779 25.3595 54.2742C24.5956 56.1342 23.8286 57.9929 23.0579 59.8498C22.2738 57.9996 21.5179 56.1372 20.7521 54.2798Z" fill="url(#paint8_linear_1_297)"/>
<path d="M25.6707 54.2737C25.897 54.2767 26.1233 54.2792 26.3503 54.2786C26.3582 55.2975 26.349 56.3171 26.3576 57.3361C26.3735 57.8198 26.4108 58.3685 26.7802 58.7269C27.2065 59.092 27.8854 59.1146 28.3405 58.7899C28.6053 58.6015 28.7509 58.2884 28.8084 57.9764C28.8989 57.4394 28.8665 56.8932 28.8726 56.3514C28.8762 55.6608 28.8769 54.9703 28.8756 54.2798C29.0934 54.2774 29.3117 54.278 29.5301 54.2786C29.5399 55.2364 29.5319 56.1936 29.5343 57.1513C29.5496 57.7452 29.5307 58.3899 29.1692 58.8914C28.5362 59.8046 27.0793 59.903 26.2781 59.1611C25.8775 58.7905 25.6763 58.2437 25.6732 57.7043C25.6671 56.5605 25.672 55.4174 25.6707 54.2737Z" fill="url(#paint9_linear_1_297)"/>
<path d="M30.3835 54.2787C30.6196 54.2793 30.8557 54.2769 31.0924 54.2744C31.0924 56.0273 31.0918 57.7802 31.0924 59.5337C30.8545 59.5343 30.6172 59.5343 30.3799 59.5337C30.3774 57.782 30.3854 56.0304 30.3835 54.2787Z" fill="url(#paint10_linear_1_297)"/>
<path d="M31.5175 54.2783C33.638 54.2801 35.7579 54.2746 37.8784 54.2752C37.8778 54.485 37.8778 54.6948 37.8784 54.9052C37.4717 54.907 37.0655 54.9052 36.6594 54.9058C36.6576 56.4483 36.6588 57.9908 36.6588 59.5333C36.4221 59.5339 36.186 59.5339 35.9493 59.5333C35.9481 57.9908 35.9536 56.4483 35.9469 54.9058C35.1145 54.907 34.2821 54.9052 33.4497 54.9064C33.4484 56.4489 33.4497 57.9908 33.449 59.5333C33.2319 59.5339 33.0148 59.5339 32.7983 59.5333C32.7977 57.9908 32.7989 56.4489 32.7977 54.9064C32.3708 54.9052 31.9445 54.907 31.5175 54.9052C31.5169 54.696 31.5169 54.4868 31.5175 54.2783Z" fill="url(#paint11_linear_1_297)"/>
<defs>
<linearGradient id="paint0_linear_1_297" x1="24.783" y1="0.769531" x2="24.783" y2="48.3986" gradientUnits="userSpaceOnUse">
<stop stop-color="#E8F2F9"/>
<stop offset="1" stop-color="#A7B1B7"/>
</linearGradient>
<linearGradient id="paint1_linear_1_297" x1="46.3579" y1="54.0015" x2="46.3579" y2="59.7696" gradientUnits="userSpaceOnUse">
<stop stop-color="#E8F2F9"/>
<stop offset="1" stop-color="#A7B1B7"/>
</linearGradient>
<linearGradient id="paint2_linear_1_297" x1="5.96028" y1="54.1619" x2="5.96028" y2="59.6488" gradientUnits="userSpaceOnUse">
<stop stop-color="#E8F2F9"/>
<stop offset="1" stop-color="#A7B1B7"/>
</linearGradient>
<linearGradient id="paint3_linear_1_297" x1="16.9536" y1="54.1675" x2="16.9536" y2="59.6491" gradientUnits="userSpaceOnUse">
<stop stop-color="#E8F2F9"/>
<stop offset="1" stop-color="#A7B1B7"/>
</linearGradient>
<linearGradient id="paint4_linear_1_297" x1="40.7589" y1="54.1667" x2="40.7589" y2="59.6455" gradientUnits="userSpaceOnUse">
<stop stop-color="#E8F2F9"/>
<stop offset="1" stop-color="#A7B1B7"/>
</linearGradient>
<linearGradient id="paint5_linear_1_297" x1="2.0421" y1="54.2739" x2="2.0421" y2="59.5342" gradientUnits="userSpaceOnUse">
<stop stop-color="#E8F2F9"/>
<stop offset="1" stop-color="#A7B1B7"/>
</linearGradient>
<linearGradient id="paint6_linear_1_297" x1="11.1577" y1="54.2781" x2="11.1577" y2="59.653" gradientUnits="userSpaceOnUse">
<stop stop-color="#E8F2F9"/>
<stop offset="1" stop-color="#A7B1B7"/>
</linearGradient>
<linearGradient id="paint7_linear_1_297" x1="14.2818" y1="54.2737" x2="14.2818" y2="59.5342" gradientUnits="userSpaceOnUse">
<stop stop-color="#E8F2F9"/>
<stop offset="1" stop-color="#A7B1B7"/>
</linearGradient>
<linearGradient id="paint8_linear_1_297" x1="23.0558" y1="54.2727" x2="23.0558" y2="59.8498" gradientUnits="userSpaceOnUse">
<stop stop-color="#E8F2F9"/>
<stop offset="1" stop-color="#A7B1B7"/>
</linearGradient>
<linearGradient id="paint9_linear_1_297" x1="27.604" y1="54.2737" x2="27.604" y2="59.6546" gradientUnits="userSpaceOnUse">
<stop stop-color="#E8F2F9"/>
<stop offset="1" stop-color="#A7B1B7"/>
</linearGradient>
<linearGradient id="paint10_linear_1_297" x1="30.7359" y1="54.2744" x2="30.7359" y2="59.5342" gradientUnits="userSpaceOnUse">
<stop stop-color="#E8F2F9"/>
<stop offset="1" stop-color="#A7B1B7"/>
</linearGradient>
<linearGradient id="paint11_linear_1_297" x1="34.6977" y1="54.2751" x2="34.6977" y2="59.5337" gradientUnits="userSpaceOnUse">
<stop stop-color="#E8F2F9"/>
<stop offset="1" stop-color="#A7B1B7"/>
</linearGradient>
</defs>
</svg>
