<svg width="93" height="34" viewBox="0 0 93 34" fill="none" xmlns="http://www.w3.org/2000/svg">
<path d="M49.3593 22.2837C49.9815 22.2837 50.1592 22.6837 50.1592 23.306V30.3133C50.1592 30.9948 49.9815 31.3356 49.3593 31.3356V32.1356H53.1666V31.3356C52.4852 31.2763 52.3074 31.0541 52.3074 30.1948V23.1874C52.3074 22.506 52.5296 22.1652 53.1666 22.1652V21.3652H49.3593V22.2837Z" fill="url(#paint0_linear_1_239)"/>
<path d="M58.7514 26.9506C58.1885 26.2691 57.6107 25.8099 57.4477 25.5876L56.307 24.4469C55.907 24.1062 55.744 23.7654 55.6848 23.484C55.5662 23.2025 55.5662 22.6247 55.8625 22.3432C56.1588 22.0617 56.4848 21.9432 56.8848 22.0025C57.2848 22.0617 57.744 22.4025 57.9662 22.684C58.1885 23.0247 58.4255 23.4247 58.5292 23.7062C58.5885 23.9877 58.6477 24.1654 58.6477 24.2247C58.6477 24.284 58.707 24.5062 58.707 24.5654H59.6107V21.3803H58.9292C58.9292 21.3803 58.8699 21.558 58.7514 21.6025C58.6329 21.6617 58.5736 21.6025 58.5292 21.6025C58.4699 21.5432 57.907 21.321 57.2255 21.2025C56.544 21.084 55.6848 21.1432 55.1218 21.4247C54.7811 21.6025 54.5588 21.7654 54.2626 21.9877C54.0403 22.2099 53.8033 22.5506 53.6996 22.8469C53.4774 23.4099 53.4181 24.1062 53.6403 24.7284C53.8626 25.3506 54.3218 25.9284 54.6626 26.3284L55.4625 27.1284C55.8033 27.4691 56.2033 27.8691 56.3218 28.0321C56.6033 28.3136 56.8848 28.595 57.2848 29.0543C57.6848 29.5728 57.8033 29.958 57.744 30.4173C57.6848 30.8765 57.4625 31.0987 57.2255 31.2765C56.944 31.4543 56.544 31.4987 56.144 31.3358C55.744 31.1728 55.4625 30.8765 55.344 30.6543C55.1662 30.4321 55.0033 29.9728 54.8848 29.6321C54.7663 29.2913 54.6626 28.8321 54.6626 28.8321H53.8626V32.0765H54.4255C54.4848 32.0172 54.6033 31.8543 54.707 31.795C54.8848 31.6765 55.0477 31.7358 55.2255 31.795C55.4033 31.8543 55.5663 31.9728 55.8477 32.0172C56.2477 32.1358 56.6477 32.195 57.1514 32.195C57.7144 32.1358 57.8922 32.0765 58.2329 31.9135C58.6329 31.7358 59.0922 31.395 59.4329 30.7728C59.7736 30.0913 59.8329 29.2913 59.7144 28.6691C59.5959 28.0321 59.2551 27.5728 58.7514 26.9506Z" fill="url(#paint1_linear_1_239)"/>
<path d="M39.7298 31.3804C38.9298 31.3804 38.4705 30.8174 38.4705 29.8989V26.936C39.6112 26.936 40.6335 27.336 40.752 28.3582H41.4927V24.8915H40.752C40.5742 25.7952 39.6112 26.1508 38.4705 26.1508V22.2841H39.0335C40.0557 22.2841 41.0186 22.5063 41.6557 23.7656H42.3372V21.4841H35.2261V22.2841C35.8483 22.2841 36.1298 22.6249 36.1298 23.3063V30.1952C36.1298 30.9359 35.952 31.2767 35.2705 31.3359V32.1359H42.2186L42.5001 29.41H41.8186C41.389 30.6989 40.5298 31.3804 39.7298 31.3804Z" fill="url(#paint2_linear_1_239)"/>
<path d="M31.6556 22.2838C32.4556 22.4023 32.6186 22.8468 32.6186 23.9875V28.0319H32.5593L28.5149 21.4838H25.4482V22.2838C25.8482 22.4023 26.589 22.6838 26.8705 23.306V28.9949C26.8705 30.6393 26.6927 31.0393 25.9075 31.3801V32.1801H28.8112V31.3801C27.9519 31.2023 27.789 30.6393 27.789 29.6764V24.0468L27.8482 24.106L32.7964 32.2393H33.5371V23.7505C33.5371 23.1283 33.6556 22.669 33.8778 22.4468C34.1001 22.2246 34.7371 22.2246 34.7371 22.2246V21.4246H31.7149V22.2838H31.6556Z" fill="url(#paint3_linear_1_239)"/>
<path d="M16.8553 21.4841H8.48499V23.8249H9.16646C9.44794 22.4026 10.7665 22.2841 11.5072 22.2841V30.373C11.5072 31.0545 11.3887 31.3952 10.6479 31.3952V32.1952H14.7516V31.3952C13.8924 31.3359 13.8924 30.9359 13.8924 30.2545V22.2841C14.6924 22.2841 15.8331 22.5063 16.1146 23.8249H16.8553V21.4841Z" fill="url(#paint4_linear_1_239)"/>
<path d="M7.0627 26.9506C6.49974 26.2691 5.92196 25.7506 5.759 25.5876L4.61826 24.4469C4.21827 24.1062 4.0553 23.7654 3.99605 23.484C3.87753 23.2025 3.87753 22.6247 4.17382 22.3432C4.47012 22.0617 4.79604 21.9432 5.19604 22.0025C5.59604 22.0617 6.05529 22.4025 6.27752 22.684C6.49974 22.9654 6.73677 23.4247 6.84048 23.7062C6.89974 23.9877 6.95899 24.1654 6.95899 24.2247C6.95899 24.284 7.01825 24.5062 7.01825 24.5654H7.92195V21.3803H7.24047C7.24047 21.3803 7.18122 21.558 7.0627 21.6025C6.94418 21.6617 6.88492 21.6025 6.84048 21.6025C6.78122 21.5432 6.21826 21.321 5.53678 21.2025C4.8553 21.084 3.99605 21.1432 3.43309 21.4247C3.09235 21.6025 2.87012 21.7654 2.57383 21.9877C2.35161 22.2099 2.11457 22.5506 2.01087 22.8469C1.78865 23.4099 1.72939 24.1062 1.95161 24.7284C2.17383 25.3506 2.57383 25.9284 2.97383 26.3284L3.77382 27.1284C4.11456 27.4691 4.51456 27.8691 4.63308 28.0321C4.91456 28.3136 5.19604 28.595 5.59604 29.0543C5.99604 29.5728 6.11455 29.958 6.05529 30.4173C5.99604 30.8765 5.77381 31.0987 5.53678 31.2765C5.2553 31.4543 4.8553 31.4987 4.4553 31.3358C4.0553 31.158 3.77382 30.8765 3.65531 30.6543C3.47753 30.4321 3.31457 29.9728 3.19605 29.6321C3.07753 29.2765 2.95901 28.8321 2.95901 28.8321H2.15902V32.0765H2.72198C2.78124 32.0172 2.89975 31.8543 3.00346 31.795C3.18123 31.6765 3.3442 31.7358 3.52197 31.795C3.69975 31.8543 3.86271 31.9728 4.14419 32.0172C4.54419 32.1358 4.94419 32.195 5.44789 32.195C6.01085 32.1358 6.18863 32.0765 6.52937 31.9135C6.92937 31.7358 7.38862 31.395 7.72936 30.7728C8.0701 30.0913 8.12936 29.2913 8.01084 28.6691C7.90714 28.0321 7.5664 27.5728 7.0627 26.9506Z" fill="url(#paint5_linear_1_239)"/>
<path d="M21.2406 21.3062C20.0406 21.3062 16.8555 22.0469 16.8555 26.7728C16.8555 31.4394 19.8777 32.358 21.2406 32.358C22.6036 32.358 25.6258 31.4543 25.6258 26.7728C25.611 22.0469 22.3666 21.3062 21.2406 21.3062ZM22.5443 30.358C22.2628 30.9802 21.9814 31.558 21.2406 31.558C20.4999 31.558 19.9814 30.758 19.8184 30.195C19.6999 29.632 19.4777 28.3728 19.5369 26.7283C19.5369 25.1284 19.7147 23.9432 19.8184 23.4839C19.9369 23.0247 20.3369 22.0617 21.2406 22.0617C21.8629 22.0617 22.3814 22.5802 22.6036 23.321C22.8258 24.0617 22.9443 25.7061 22.9443 26.7432C22.9443 27.7506 22.8258 29.7357 22.5443 30.358Z" fill="url(#paint6_linear_1_239)"/>
<path d="M48.3811 12.5949L46.1589 1.83936L43.996 12.5949L33.2405 14.7578L43.996 16.9208L46.1589 27.6763L48.3219 16.9208L59.0774 14.7578L48.3811 12.5949ZM34.6182 14.7578L44.1293 12.8171L46.0108 14.7578H34.6182ZM46.1737 26.3133L44.233 16.8022L46.1737 14.9208V26.3133ZM46.1737 3.20231L48.1145 12.7134L46.1737 14.5948V3.20231ZM48.2774 16.6985L46.396 14.7578H57.7737L48.2774 16.6985Z" fill="url(#paint7_linear_1_239)"/>
<path d="M80.2626 22.284C81.0626 22.4026 81.2255 22.9063 81.2255 24.047V28.0914H81.1811L77.1959 21.5433H74.47V22.3433C74.87 22.4618 75.4922 23.247 75.4922 23.247V29.4544C75.433 30.1951 75.433 30.9359 75.0922 31.2766C74.9737 31.3951 74.87 31.3951 74.6922 31.3951C74.2922 31.3951 74.07 31.0544 73.67 29.5136L71.6256 21.5433H69.4034L69.6256 22.4026L67.6849 29.1136C67.2256 30.7581 67.0034 31.2766 66.4849 31.5581V32.1803H69.1071V31.5581C68.5886 31.3803 68.3663 30.9359 68.3663 30.4766C68.3663 30.2544 68.4849 29.8544 68.5441 29.5729L68.8256 28.6099H71.1663L71.4478 29.8099C71.5663 30.3285 71.6256 30.5507 71.6256 30.7136C71.6256 31.1136 71.4034 31.5136 71.0034 31.6173V32.2396H77.433V31.5581C76.5737 31.3803 76.3515 30.6988 76.3515 29.7359V24.047L76.4107 24.1063L81.3589 32.2396H82.0996V23.7507C82.0996 22.847 82.1589 22.3878 82.7811 22.2692V21.4692H80.2181V22.2692H80.2626V22.284ZM69.1663 27.5729L70.07 23.8692H70.1293L70.9885 27.5729H69.1663Z" fill="url(#paint8_linear_1_239)"/>
<path d="M86.2926 21.4841H83.226V22.2841C83.626 22.4026 83.7445 22.8026 83.7445 23.2471V30.1952C83.7445 30.9359 83.7445 31.2767 83.226 31.3359V32.1359H86.5889C89.9518 32.1359 90.6926 29.3508 90.6926 26.7878C90.6778 22.9656 89.1963 21.4841 86.2926 21.4841ZM86.7519 31.3804C86.2333 31.3804 85.9519 31.1582 85.9519 30.1804V22.2693H86.2333C87.3148 22.2693 88.2185 23.1286 88.2185 26.7137C88.2333 29.4545 87.9519 31.3804 86.7519 31.3804Z" fill="url(#paint9_linear_1_239)"/>
<path d="M63.6399 31.3804C63.077 31.3804 63.1214 30.8174 63.1214 29.7359V23.3656C63.1214 22.6841 63.2992 22.3434 63.9807 22.2841V21.4841H60.277V22.2841C60.8399 22.3434 61.0177 22.6249 61.0177 23.3656V30.3137C61.0177 30.9952 60.8992 31.3359 60.277 31.3952V32.1952H66.0844L66.4251 29.5137H65.8029C65.2992 30.6989 64.4399 31.3804 63.6399 31.3804Z" fill="url(#paint10_linear_1_239)"/>
<defs>
<linearGradient id="paint0_linear_1_239" x1="51.2629" y1="21.3652" x2="51.2629" y2="32.1356" gradientUnits="userSpaceOnUse">
<stop stop-color="#E8F2F9"/>
<stop offset="1" stop-color="#A7B1B7"/>
</linearGradient>
<linearGradient id="paint1_linear_1_239" x1="56.6353" y1="21.1448" x2="56.6353" y2="32.195" gradientUnits="userSpaceOnUse">
<stop stop-color="#E8F2F9"/>
<stop offset="1" stop-color="#A7B1B7"/>
</linearGradient>
<linearGradient id="paint2_linear_1_239" x1="38.8631" y1="21.4841" x2="38.8631" y2="32.1359" gradientUnits="userSpaceOnUse">
<stop stop-color="#E8F2F9"/>
<stop offset="1" stop-color="#A7B1B7"/>
</linearGradient>
<linearGradient id="paint3_linear_1_239" x1="30.0927" y1="21.4246" x2="30.0927" y2="32.2393" gradientUnits="userSpaceOnUse">
<stop stop-color="#E8F2F9"/>
<stop offset="1" stop-color="#A7B1B7"/>
</linearGradient>
<linearGradient id="paint4_linear_1_239" x1="12.6702" y1="21.4841" x2="12.6702" y2="32.1952" gradientUnits="userSpaceOnUse">
<stop stop-color="#E8F2F9"/>
<stop offset="1" stop-color="#A7B1B7"/>
</linearGradient>
<linearGradient id="paint5_linear_1_239" x1="4.93919" y1="21.1448" x2="4.93919" y2="32.195" gradientUnits="userSpaceOnUse">
<stop stop-color="#E8F2F9"/>
<stop offset="1" stop-color="#A7B1B7"/>
</linearGradient>
<linearGradient id="paint6_linear_1_239" x1="21.2406" y1="21.3062" x2="21.2406" y2="32.358" gradientUnits="userSpaceOnUse">
<stop stop-color="#E8F2F9"/>
<stop offset="1" stop-color="#A7B1B7"/>
</linearGradient>
<linearGradient id="paint7_linear_1_239" x1="46.1589" y1="1.83936" x2="46.1589" y2="27.6763" gradientUnits="userSpaceOnUse">
<stop stop-color="#E8F2F9"/>
<stop offset="1" stop-color="#A7B1B7"/>
</linearGradient>
<linearGradient id="paint8_linear_1_239" x1="74.633" y1="21.4692" x2="74.633" y2="32.2396" gradientUnits="userSpaceOnUse">
<stop stop-color="#E8F2F9"/>
<stop offset="1" stop-color="#A7B1B7"/>
</linearGradient>
<linearGradient id="paint9_linear_1_239" x1="86.9593" y1="21.4841" x2="86.9593" y2="32.1359" gradientUnits="userSpaceOnUse">
<stop stop-color="#E8F2F9"/>
<stop offset="1" stop-color="#A7B1B7"/>
</linearGradient>
<linearGradient id="paint10_linear_1_239" x1="63.351" y1="21.4841" x2="63.351" y2="32.1952" gradientUnits="userSpaceOnUse">
<stop stop-color="#E8F2F9"/>
<stop offset="1" stop-color="#A7B1B7"/>
</linearGradient>
</defs>
</svg>
