<svg width="93" height="34" viewBox="0 0 93 34" fill="none" xmlns="http://www.w3.org/2000/svg">
<path d="M49.658 22.2837C50.2802 22.2837 50.458 22.6837 50.458 23.306V30.3133C50.458 30.9948 50.2802 31.3356 49.658 31.3356V32.1356H53.4654V31.3356C52.7839 31.2763 52.6062 31.0541 52.6062 30.1948V23.1874C52.6062 22.506 52.8284 22.1652 53.4654 22.1652V21.3652H49.658V22.2837Z" fill="url(#paint0_linear_1_212)"/>
<path d="M59.0502 26.9506C58.4872 26.2691 57.9095 25.8099 57.7465 25.5876L56.6058 24.4469C56.2058 24.1062 56.0428 23.7654 55.9835 23.484C55.865 23.2025 55.865 22.6247 56.1613 22.3432C56.4576 22.0617 56.7835 21.9432 57.1835 22.0025C57.5835 22.0617 58.0428 22.4025 58.265 22.684C58.4872 23.0247 58.7243 23.4247 58.828 23.7062C58.8872 23.9877 58.9465 24.1654 58.9465 24.2247C58.9465 24.284 59.0057 24.5062 59.0057 24.5654H59.9094V21.3803H59.228C59.228 21.3803 59.1687 21.558 59.0502 21.6025C58.9317 21.6617 58.8724 21.6025 58.828 21.6025C58.7687 21.5432 58.2057 21.321 57.5243 21.2025C56.8428 21.084 55.9835 21.1432 55.4206 21.4247C55.0798 21.6025 54.8576 21.7654 54.5613 21.9877C54.3391 22.2099 54.1021 22.5506 53.9984 22.8469C53.7761 23.4099 53.7169 24.1062 53.9391 24.7284C54.1613 25.3506 54.6206 25.9284 54.9613 26.3284L55.7613 27.1284C56.1021 27.4691 56.502 27.8691 56.6206 28.0321C56.902 28.3136 57.1835 28.595 57.5835 29.0543C57.9835 29.5728 58.102 29.958 58.0428 30.4173C57.9835 30.8765 57.7613 31.0987 57.5243 31.2765C57.2428 31.4543 56.8428 31.4987 56.4428 31.3358C56.0428 31.1728 55.7613 30.8765 55.6428 30.6543C55.465 30.4321 55.3021 29.9728 55.1835 29.6321C55.065 29.2913 54.9613 28.8321 54.9613 28.8321H54.1613V32.0765H54.7243C54.7835 32.0172 54.9021 31.8543 55.0058 31.795C55.1835 31.6765 55.3465 31.7358 55.5243 31.795C55.7021 31.8543 55.865 31.9728 56.1465 32.0172C56.5465 32.1358 56.9465 32.195 57.4502 32.195C58.0132 32.1358 58.1909 32.0765 58.5317 31.9135C58.9317 31.7358 59.3909 31.395 59.7317 30.7728C60.0724 30.0913 60.1317 29.2913 60.0131 28.6691C59.8946 28.0321 59.5539 27.5728 59.0502 26.9506Z" fill="url(#paint1_linear_1_212)"/>
<path d="M40.0285 31.3804C39.2285 31.3804 38.7692 30.8174 38.7692 29.8989V26.936C39.9099 26.936 40.9322 27.336 41.0507 28.3582H41.7914V24.8915H41.0507C40.8729 25.7952 39.9099 26.1508 38.7692 26.1508V22.2841H39.3322C40.3544 22.2841 41.3173 22.5063 41.9544 23.7656H42.6359V21.4841H35.5248V22.2841C36.147 22.2841 36.4285 22.6249 36.4285 23.3063V30.1952C36.4285 30.9359 36.2507 31.2767 35.5692 31.3359V32.1359H42.5173L42.7988 29.41H42.1173C41.6877 30.6989 40.8285 31.3804 40.0285 31.3804Z" fill="url(#paint2_linear_1_212)"/>
<path d="M31.9543 22.2838C32.7543 22.4023 32.9173 22.8468 32.9173 23.9875V28.0319H32.858L28.8136 21.4838H25.7469V22.2838C26.1469 22.4023 26.8877 22.6838 27.1692 23.306V28.9949C27.1692 30.6393 26.9914 31.0393 26.2062 31.3801V32.1801H29.1099V31.3801C28.2506 31.2023 28.0877 30.6393 28.0877 29.6764V24.0468L28.1469 24.106L33.0951 32.2393H33.8358V23.7505C33.8358 23.1283 33.9543 22.669 34.1765 22.4468C34.3988 22.2246 35.0358 22.2246 35.0358 22.2246V21.4246H32.0136V22.2838H31.9543Z" fill="url(#paint3_linear_1_212)"/>
<path d="M17.1541 21.4841H8.78375V23.8249H9.46523C9.74671 22.4026 11.0652 22.2841 11.806 22.2841V30.373C11.806 31.0545 11.6874 31.3952 10.9467 31.3952V32.1952H15.0504V31.3952C14.1911 31.3359 14.1911 30.9359 14.1911 30.2545V22.2841C14.9911 22.2841 16.1319 22.5063 16.4133 23.8249H17.1541V21.4841Z" fill="url(#paint4_linear_1_212)"/>
<path d="M7.3614 26.9506C6.79844 26.2691 6.22067 25.7506 6.05771 25.5876L4.91697 24.4469C4.51697 24.1062 4.35401 23.7654 4.29475 23.484C4.17623 23.2025 4.17623 22.6247 4.47253 22.3432C4.76882 22.0617 5.09475 21.9432 5.49475 22.0025C5.89474 22.0617 6.354 22.4025 6.57622 22.684C6.79844 22.9654 7.03548 23.4247 7.13918 23.7062C7.19844 23.9877 7.2577 24.1654 7.2577 24.2247C7.2577 24.284 7.31696 24.5062 7.31696 24.5654H8.22066V21.3803H7.53918C7.53918 21.3803 7.47992 21.558 7.3614 21.6025C7.24289 21.6617 7.18363 21.6025 7.13918 21.6025C7.07992 21.5432 6.51696 21.321 5.83549 21.2025C5.15401 21.084 4.29475 21.1432 3.73179 21.4247C3.39105 21.6025 3.16883 21.7654 2.87254 21.9877C2.65031 22.2099 2.41328 22.5506 2.30958 22.8469C2.08735 23.4099 2.0281 24.1062 2.25032 24.7284C2.47254 25.3506 2.87254 25.9284 3.27253 26.3284L4.07253 27.1284C4.41327 27.4691 4.81327 27.8691 4.93179 28.0321C5.21327 28.3136 5.49475 28.595 5.89474 29.0543C6.29474 29.5728 6.41326 29.958 6.354 30.4173C6.29474 30.8765 6.07252 31.0987 5.83549 31.2765C5.554 31.4543 5.15401 31.4987 4.75401 31.3358C4.35401 31.158 4.07253 30.8765 3.95401 30.6543C3.77624 30.4321 3.61327 29.9728 3.49476 29.6321C3.37624 29.2765 3.25772 28.8321 3.25772 28.8321H2.45772V32.0765H3.02068C3.07994 32.0172 3.19846 31.8543 3.30216 31.795C3.47994 31.6765 3.6429 31.7358 3.82068 31.795C3.99846 31.8543 4.16142 31.9728 4.4429 32.0172C4.8429 32.1358 5.2429 32.195 5.7466 32.195C6.30956 32.1358 6.48733 32.0765 6.82807 31.9135C7.22807 31.7358 7.68733 31.395 8.02807 30.7728C8.36881 30.0913 8.42807 29.2913 8.30955 28.6691C8.20584 28.0321 7.86511 27.5728 7.3614 26.9506Z" fill="url(#paint5_linear_1_212)"/>
<path d="M21.5395 21.3062C20.3395 21.3062 17.1543 22.0469 17.1543 26.7728C17.1543 31.4394 20.1765 32.358 21.5395 32.358C22.9024 32.358 25.9246 31.4543 25.9246 26.7728C25.9098 22.0469 22.6654 21.3062 21.5395 21.3062ZM22.8432 30.358C22.5617 30.9802 22.2802 31.558 21.5395 31.558C20.7987 31.558 20.2802 30.758 20.1172 30.195C19.9987 29.632 19.7765 28.3728 19.8358 26.7283C19.8358 25.1284 20.0135 23.9432 20.1172 23.4839C20.2358 23.0247 20.6358 22.0617 21.5395 22.0617C22.1617 22.0617 22.6802 22.5802 22.9024 23.321C23.1246 24.0617 23.2432 25.7061 23.2432 26.7432C23.2432 27.7506 23.1246 29.7357 22.8432 30.358Z" fill="url(#paint6_linear_1_212)"/>
<path d="M48.6798 12.5949L46.4576 1.83936L44.2947 12.5949L33.5392 14.7578L44.2947 16.9208L46.4576 27.6763L48.6206 16.9208L59.3761 14.7578L48.6798 12.5949ZM34.917 14.7578L44.428 12.8171L46.3095 14.7578H34.917ZM46.4725 26.3133L44.5317 16.8022L46.4725 14.9208V26.3133ZM46.4725 3.20231L48.4132 12.7134L46.4725 14.5948V3.20231ZM48.5761 16.6985L46.6947 14.7578H58.0724L48.5761 16.6985Z" fill="url(#paint7_linear_1_212)"/>
<path d="M80.5614 22.284C81.3614 22.4026 81.5244 22.9063 81.5244 24.047V28.0914H81.4799L77.4948 21.5433H74.7688V22.3433C75.1688 22.4618 75.7911 23.247 75.7911 23.247V29.4544C75.7318 30.1951 75.7318 30.9359 75.3911 31.2766C75.2725 31.3951 75.1688 31.3951 74.9911 31.3951C74.5911 31.3951 74.3688 31.0544 73.9688 29.5136L71.9244 21.5433H69.7022L69.9244 22.4026L67.9837 29.1136C67.5244 30.7581 67.3022 31.2766 66.7837 31.5581V32.1803H69.4059V31.5581C68.8874 31.3803 68.6652 30.9359 68.6652 30.4766C68.6652 30.2544 68.7837 29.8544 68.8429 29.5729L69.1244 28.6099H71.4652L71.7466 29.8099C71.8651 30.3285 71.9244 30.5507 71.9244 30.7136C71.9244 31.1136 71.7022 31.5136 71.3022 31.6173V32.2396H77.7318V31.5581C76.8725 31.3803 76.6503 30.6988 76.6503 29.7359V24.047L76.7096 24.1063L81.6577 32.2396H82.3984V23.7507C82.3984 22.847 82.4577 22.3878 83.0799 22.2692V21.4692H80.517V22.2692H80.5614V22.284ZM69.4652 27.5729L70.3689 23.8692H70.4281L71.2874 27.5729H69.4652Z" fill="url(#paint8_linear_1_212)"/>
<path d="M86.5914 21.4841H83.5247V22.2841C83.9247 22.4026 84.0432 22.8026 84.0432 23.2471V30.1952C84.0432 30.9359 84.0432 31.2767 83.5247 31.3359V32.1359H86.8877C90.2506 32.1359 90.9913 29.3508 90.9913 26.7878C90.9765 22.9656 89.4951 21.4841 86.5914 21.4841ZM87.0506 31.3804C86.5321 31.3804 86.2506 31.1582 86.2506 30.1804V22.2693H86.5321C87.6136 22.2693 88.5173 23.1286 88.5173 26.7137C88.5321 29.4545 88.2506 31.3804 87.0506 31.3804Z" fill="url(#paint9_linear_1_212)"/>
<path d="M63.9387 31.3804C63.3757 31.3804 63.4202 30.8174 63.4202 29.7359V23.3656C63.4202 22.6841 63.598 22.3434 64.2794 22.2841V21.4841H60.5757V22.2841C61.1387 22.3434 61.3165 22.6249 61.3165 23.3656V30.3137C61.3165 30.9952 61.198 31.3359 60.5757 31.3952V32.1952H66.3831L66.7239 29.5137H66.1016C65.5979 30.6989 64.7387 31.3804 63.9387 31.3804Z" fill="url(#paint10_linear_1_212)"/>
<defs>
<linearGradient id="paint0_linear_1_212" x1="51.5617" y1="21.3652" x2="51.5617" y2="32.1356" gradientUnits="userSpaceOnUse">
<stop stop-color="#E8F2F9"/>
<stop offset="1" stop-color="#A7B1B7"/>
</linearGradient>
<linearGradient id="paint1_linear_1_212" x1="56.9341" y1="21.1448" x2="56.9341" y2="32.195" gradientUnits="userSpaceOnUse">
<stop stop-color="#E8F2F9"/>
<stop offset="1" stop-color="#A7B1B7"/>
</linearGradient>
<linearGradient id="paint2_linear_1_212" x1="39.1618" y1="21.4841" x2="39.1618" y2="32.1359" gradientUnits="userSpaceOnUse">
<stop stop-color="#E8F2F9"/>
<stop offset="1" stop-color="#A7B1B7"/>
</linearGradient>
<linearGradient id="paint3_linear_1_212" x1="30.3914" y1="21.4246" x2="30.3914" y2="32.2393" gradientUnits="userSpaceOnUse">
<stop stop-color="#E8F2F9"/>
<stop offset="1" stop-color="#A7B1B7"/>
</linearGradient>
<linearGradient id="paint4_linear_1_212" x1="12.9689" y1="21.4841" x2="12.9689" y2="32.1952" gradientUnits="userSpaceOnUse">
<stop stop-color="#E8F2F9"/>
<stop offset="1" stop-color="#A7B1B7"/>
</linearGradient>
<linearGradient id="paint5_linear_1_212" x1="5.23789" y1="21.1448" x2="5.23789" y2="32.195" gradientUnits="userSpaceOnUse">
<stop stop-color="#E8F2F9"/>
<stop offset="1" stop-color="#A7B1B7"/>
</linearGradient>
<linearGradient id="paint6_linear_1_212" x1="21.5395" y1="21.3062" x2="21.5395" y2="32.358" gradientUnits="userSpaceOnUse">
<stop stop-color="#E8F2F9"/>
<stop offset="1" stop-color="#A7B1B7"/>
</linearGradient>
<linearGradient id="paint7_linear_1_212" x1="46.4576" y1="1.83936" x2="46.4576" y2="27.6763" gradientUnits="userSpaceOnUse">
<stop stop-color="#E8F2F9"/>
<stop offset="1" stop-color="#A7B1B7"/>
</linearGradient>
<linearGradient id="paint8_linear_1_212" x1="74.9318" y1="21.4692" x2="74.9318" y2="32.2396" gradientUnits="userSpaceOnUse">
<stop stop-color="#E8F2F9"/>
<stop offset="1" stop-color="#A7B1B7"/>
</linearGradient>
<linearGradient id="paint9_linear_1_212" x1="87.258" y1="21.4841" x2="87.258" y2="32.1359" gradientUnits="userSpaceOnUse">
<stop stop-color="#E8F2F9"/>
<stop offset="1" stop-color="#A7B1B7"/>
</linearGradient>
<linearGradient id="paint10_linear_1_212" x1="63.6498" y1="21.4841" x2="63.6498" y2="32.1952" gradientUnits="userSpaceOnUse">
<stop stop-color="#E8F2F9"/>
<stop offset="1" stop-color="#A7B1B7"/>
</linearGradient>
</defs>
</svg>
