<svg width="93" height="34" viewBox="0 0 93 34" fill="none" xmlns="http://www.w3.org/2000/svg">
<path d="M49.7875 22.2837C50.4097 22.2837 50.5875 22.6837 50.5875 23.306V30.3133C50.5875 30.9948 50.4097 31.3356 49.7875 31.3356V32.1356H53.5949V31.3356C52.9134 31.2763 52.7356 31.0541 52.7356 30.1948V23.1874C52.7356 22.506 52.9578 22.1652 53.5949 22.1652V21.3652H49.7875V22.2837Z" fill="url(#paint0_linear_1_168)"/>
<path d="M59.1796 26.9506C58.6167 26.2691 58.0389 25.8099 57.8759 25.5876L56.7352 24.4469C56.3352 24.1062 56.1722 23.7654 56.113 23.484C55.9945 23.2025 55.9945 22.6247 56.2908 22.3432C56.5871 22.0617 56.913 21.9432 57.313 22.0025C57.713 22.0617 58.1722 22.4025 58.3945 22.684C58.6167 23.0247 58.8537 23.4247 58.9574 23.7062C59.0167 23.9877 59.0759 24.1654 59.0759 24.2247C59.0759 24.284 59.1352 24.5062 59.1352 24.5654H60.0389V21.3803H59.3574C59.3574 21.3803 59.2982 21.558 59.1796 21.6025C59.0611 21.6617 59.0019 21.6025 58.9574 21.6025C58.8982 21.5432 58.3352 21.321 57.6537 21.2025C56.9722 21.084 56.113 21.1432 55.55 21.4247C55.2093 21.6025 54.9871 21.7654 54.6908 21.9877C54.4686 22.2099 54.2315 22.5506 54.1278 22.8469C53.9056 23.4099 53.8463 24.1062 54.0686 24.7284C54.2908 25.3506 54.75 25.9284 55.0908 26.3284L55.8908 27.1284C56.2315 27.4691 56.6315 27.8691 56.75 28.0321C57.0315 28.3136 57.313 28.595 57.713 29.0543C58.113 29.5728 58.2315 29.958 58.1722 30.4173C58.113 30.8765 57.8908 31.0987 57.6537 31.2765C57.3722 31.4543 56.9722 31.4987 56.5722 31.3358C56.1722 31.1728 55.8908 30.8765 55.7722 30.6543C55.5945 30.4321 55.4315 29.9728 55.313 29.6321C55.1945 29.2913 55.0908 28.8321 55.0908 28.8321H54.2908V32.0765H54.8537C54.913 32.0172 55.0315 31.8543 55.1352 31.795C55.313 31.6765 55.476 31.7358 55.6537 31.795C55.8315 31.8543 55.9945 31.9728 56.276 32.0172C56.676 32.1358 57.0759 32.195 57.5796 32.195C58.1426 32.1358 58.3204 32.0765 58.6611 31.9135C59.0611 31.7358 59.5204 31.395 59.8611 30.7728C60.2019 30.0913 60.2611 29.2913 60.1426 28.6691C60.0241 28.0321 59.6833 27.5728 59.1796 26.9506Z" fill="url(#paint1_linear_1_168)"/>
<path d="M40.158 31.3804C39.358 31.3804 38.8987 30.8174 38.8987 29.8989V26.936C40.0395 26.936 41.0617 27.336 41.1802 28.3582H41.9209V24.8915H41.1802C41.0024 25.7952 40.0395 26.1508 38.8987 26.1508V22.2841H39.4617C40.4839 22.2841 41.4469 22.5063 42.0839 23.7656H42.7654V21.4841H35.6543V22.2841C36.2765 22.2841 36.558 22.6249 36.558 23.3063V30.1952C36.558 30.9359 36.3802 31.2767 35.6987 31.3359V32.1359H42.6469L42.9283 29.41H42.2469C41.8172 30.6989 40.958 31.3804 40.158 31.3804Z" fill="url(#paint2_linear_1_168)"/>
<path d="M32.0838 22.2838C32.8838 22.4023 33.0468 22.8468 33.0468 23.9875V28.0319H32.9875L28.9431 21.4838H25.8765V22.2838C26.2765 22.4023 27.0172 22.6838 27.2987 23.306V28.9949C27.2987 30.6393 27.1209 31.0393 26.3357 31.3801V32.1801H29.2394V31.3801C28.3802 31.2023 28.2172 30.6393 28.2172 29.6764V24.0468L28.2765 24.106L33.2246 32.2393H33.9653V23.7505C33.9653 23.1283 34.0838 22.669 34.3061 22.4468C34.5283 22.2246 35.1653 22.2246 35.1653 22.2246V21.4246H32.1431V22.2838H32.0838Z" fill="url(#paint3_linear_1_168)"/>
<path d="M17.2835 21.4841H8.91321V23.8249H9.59469C9.87617 22.4026 11.1947 22.2841 11.9354 22.2841V30.373C11.9354 31.0545 11.8169 31.3952 11.0762 31.3952V32.1952H15.1798V31.3952C14.3206 31.3359 14.3206 30.9359 14.3206 30.2545V22.2841C15.1206 22.2841 16.2613 22.5063 16.5428 23.8249H17.2835V21.4841Z" fill="url(#paint4_linear_1_168)"/>
<path d="M7.49092 26.9506C6.92796 26.2691 6.35018 25.7506 6.18722 25.5876L5.04649 24.4469C4.64649 24.1062 4.48353 23.7654 4.42427 23.484C4.30575 23.2025 4.30575 22.6247 4.60205 22.3432C4.89834 22.0617 5.22426 21.9432 5.62426 22.0025C6.02426 22.0617 6.48352 22.4025 6.70574 22.684C6.92796 22.9654 7.165 23.4247 7.2687 23.7062C7.32796 23.9877 7.38722 24.1654 7.38722 24.2247C7.38722 24.284 7.44648 24.5062 7.44648 24.5654H8.35018V21.3803H7.6687C7.6687 21.3803 7.60944 21.558 7.49092 21.6025C7.3724 21.6617 7.31314 21.6025 7.2687 21.6025C7.20944 21.5432 6.64648 21.321 5.965 21.2025C5.28352 21.084 4.42427 21.1432 3.86131 21.4247C3.52057 21.6025 3.29835 21.7654 3.00205 21.9877C2.77983 22.2099 2.5428 22.5506 2.43909 22.8469C2.21687 23.4099 2.15761 24.1062 2.37983 24.7284C2.60205 25.3506 3.00205 25.9284 3.40205 26.3284L4.20205 27.1284C4.54279 27.4691 4.94278 27.8691 5.0613 28.0321C5.34278 28.3136 5.62426 28.595 6.02426 29.0543C6.42426 29.5728 6.54278 29.958 6.48352 30.4173C6.42426 30.8765 6.20204 31.0987 5.965 31.2765C5.68352 31.4543 5.28352 31.4987 4.88353 31.3358C4.48353 31.158 4.20205 30.8765 4.08353 30.6543C3.90575 30.4321 3.74279 29.9728 3.62427 29.6321C3.50575 29.2765 3.38724 28.8321 3.38724 28.8321H2.58724V32.0765H3.1502C3.20946 32.0172 3.32798 31.8543 3.43168 31.795C3.60946 31.6765 3.77242 31.7358 3.9502 31.795C4.12797 31.8543 4.29094 31.9728 4.57242 32.0172C4.97241 32.1358 5.37241 32.195 5.87611 32.195C6.43907 32.1358 6.61685 32.0765 6.95759 31.9135C7.35759 31.7358 7.81685 31.395 8.15758 30.7728C8.49832 30.0913 8.55758 29.2913 8.43906 28.6691C8.33536 28.0321 7.99462 27.5728 7.49092 26.9506Z" fill="url(#paint5_linear_1_168)"/>
<path d="M21.669 21.3062C20.469 21.3062 17.2838 22.0469 17.2838 26.7728C17.2838 31.4394 20.306 32.358 21.669 32.358C23.0319 32.358 26.0541 31.4543 26.0541 26.7728C26.0393 22.0469 22.7949 21.3062 21.669 21.3062ZM22.9727 30.358C22.6912 30.9802 22.4097 31.558 21.669 31.558C20.9282 31.558 20.4097 30.758 20.2468 30.195C20.1282 29.632 19.906 28.3728 19.9653 26.7283C19.9653 25.1284 20.1431 23.9432 20.2468 23.4839C20.3653 23.0247 20.7653 22.0617 21.669 22.0617C22.2912 22.0617 22.8097 22.5802 23.0319 23.321C23.2542 24.0617 23.3727 25.7061 23.3727 26.7432C23.3727 27.7506 23.2542 29.7357 22.9727 30.358Z" fill="url(#paint6_linear_1_168)"/>
<path d="M48.8094 12.5949L46.5872 1.83936L44.4242 12.5949L33.6687 14.7578L44.4242 16.9208L46.5872 27.6763L48.7501 16.9208L59.5056 14.7578L48.8094 12.5949ZM35.0465 14.7578L44.5575 12.8171L46.439 14.7578H35.0465ZM46.602 26.3133L44.6612 16.8022L46.602 14.9208V26.3133ZM46.602 3.20231L48.5427 12.7134L46.602 14.5948V3.20231ZM48.7057 16.6985L46.8242 14.7578H58.2019L48.7057 16.6985Z" fill="url(#paint7_linear_1_168)"/>
<path d="M80.6909 22.284C81.4909 22.4026 81.6539 22.9063 81.6539 24.047V28.0914H81.6094L77.6243 21.5433H74.8984V22.3433C75.2984 22.4618 75.9206 23.247 75.9206 23.247V29.4544C75.8613 30.1951 75.8613 30.9359 75.5206 31.2766C75.4021 31.3951 75.2984 31.3951 75.1206 31.3951C74.7206 31.3951 74.4984 31.0544 74.0984 29.5136L72.0539 21.5433H69.8317L70.0539 22.4026L68.1132 29.1136C67.6539 30.7581 67.4317 31.2766 66.9132 31.5581V32.1803H69.5354V31.5581C69.0169 31.3803 68.7947 30.9359 68.7947 30.4766C68.7947 30.2544 68.9132 29.8544 68.9725 29.5729L69.2539 28.6099H71.5947L71.8761 29.8099C71.9947 30.3285 72.0539 30.5507 72.0539 30.7136C72.0539 31.1136 71.8317 31.5136 71.4317 31.6173V32.2396H77.8613V31.5581C77.002 31.3803 76.7798 30.6988 76.7798 29.7359V24.047L76.8391 24.1063L81.7872 32.2396H82.5279V23.7507C82.5279 22.847 82.5872 22.3878 83.2094 22.2692V21.4692H80.6465V22.2692H80.6909V22.284ZM69.5947 27.5729L70.4984 23.8692H70.5576L71.4169 27.5729H69.5947Z" fill="url(#paint8_linear_1_168)"/>
<path d="M86.7208 21.4841H83.6542V22.2841C84.0542 22.4026 84.1727 22.8026 84.1727 23.2471V30.1952C84.1727 30.9359 84.1727 31.2767 83.6542 31.3359V32.1359H87.0171C90.3801 32.1359 91.1208 29.3508 91.1208 26.7878C91.106 22.9656 89.6245 21.4841 86.7208 21.4841ZM87.1801 31.3804C86.6616 31.3804 86.3801 31.1582 86.3801 30.1804V22.2693H86.6616C87.743 22.2693 88.6467 23.1286 88.6467 26.7137C88.6616 29.4545 88.3801 31.3804 87.1801 31.3804Z" fill="url(#paint9_linear_1_168)"/>
<path d="M64.0681 31.3804C63.5052 31.3804 63.5496 30.8174 63.5496 29.7359V23.3656C63.5496 22.6841 63.7274 22.3434 64.4089 22.2841V21.4841H60.7052V22.2841C61.2682 22.3434 61.4459 22.6249 61.4459 23.3656V30.3137C61.4459 30.9952 61.3274 31.3359 60.7052 31.3952V32.1952H66.5126L66.8533 29.5137H66.2311C65.7274 30.6989 64.8681 31.3804 64.0681 31.3804Z" fill="url(#paint10_linear_1_168)"/>
<defs>
<linearGradient id="paint0_linear_1_168" x1="51.6912" y1="21.3652" x2="51.6912" y2="32.1356" gradientUnits="userSpaceOnUse">
<stop stop-color="#E8F2F9"/>
<stop offset="1" stop-color="#A7B1B7"/>
</linearGradient>
<linearGradient id="paint1_linear_1_168" x1="57.0635" y1="21.1448" x2="57.0635" y2="32.195" gradientUnits="userSpaceOnUse">
<stop stop-color="#E8F2F9"/>
<stop offset="1" stop-color="#A7B1B7"/>
</linearGradient>
<linearGradient id="paint2_linear_1_168" x1="39.2913" y1="21.4841" x2="39.2913" y2="32.1359" gradientUnits="userSpaceOnUse">
<stop stop-color="#E8F2F9"/>
<stop offset="1" stop-color="#A7B1B7"/>
</linearGradient>
<linearGradient id="paint3_linear_1_168" x1="30.5209" y1="21.4246" x2="30.5209" y2="32.2393" gradientUnits="userSpaceOnUse">
<stop stop-color="#E8F2F9"/>
<stop offset="1" stop-color="#A7B1B7"/>
</linearGradient>
<linearGradient id="paint4_linear_1_168" x1="13.0984" y1="21.4841" x2="13.0984" y2="32.1952" gradientUnits="userSpaceOnUse">
<stop stop-color="#E8F2F9"/>
<stop offset="1" stop-color="#A7B1B7"/>
</linearGradient>
<linearGradient id="paint5_linear_1_168" x1="5.36741" y1="21.1448" x2="5.36741" y2="32.195" gradientUnits="userSpaceOnUse">
<stop stop-color="#E8F2F9"/>
<stop offset="1" stop-color="#A7B1B7"/>
</linearGradient>
<linearGradient id="paint6_linear_1_168" x1="21.669" y1="21.3062" x2="21.669" y2="32.358" gradientUnits="userSpaceOnUse">
<stop stop-color="#E8F2F9"/>
<stop offset="1" stop-color="#A7B1B7"/>
</linearGradient>
<linearGradient id="paint7_linear_1_168" x1="46.5872" y1="1.83936" x2="46.5872" y2="27.6763" gradientUnits="userSpaceOnUse">
<stop stop-color="#E8F2F9"/>
<stop offset="1" stop-color="#A7B1B7"/>
</linearGradient>
<linearGradient id="paint8_linear_1_168" x1="75.0613" y1="21.4692" x2="75.0613" y2="32.2396" gradientUnits="userSpaceOnUse">
<stop stop-color="#E8F2F9"/>
<stop offset="1" stop-color="#A7B1B7"/>
</linearGradient>
<linearGradient id="paint9_linear_1_168" x1="87.3875" y1="21.4841" x2="87.3875" y2="32.1359" gradientUnits="userSpaceOnUse">
<stop stop-color="#E8F2F9"/>
<stop offset="1" stop-color="#A7B1B7"/>
</linearGradient>
<linearGradient id="paint10_linear_1_168" x1="63.7793" y1="21.4841" x2="63.7793" y2="32.1952" gradientUnits="userSpaceOnUse">
<stop stop-color="#E8F2F9"/>
<stop offset="1" stop-color="#A7B1B7"/>
</linearGradient>
</defs>
</svg>
