<svg width="93" height="34" viewBox="0 0 93 34" fill="none" xmlns="http://www.w3.org/2000/svg">
<path d="M49.3849 22.2837C50.0072 22.2837 50.1849 22.6837 50.1849 23.306V30.3133C50.1849 30.9948 50.0072 31.3356 49.3849 31.3356V32.1356H53.1923V31.3356C52.5109 31.2763 52.3331 31.0541 52.3331 30.1948V23.1874C52.3331 22.506 52.5553 22.1652 53.1923 22.1652V21.3652H49.3849V22.2837Z" fill="url(#paint0_linear_1_114)"/>
<path d="M58.7771 26.9506C58.2142 26.2691 57.6364 25.8099 57.4734 25.5876L56.3327 24.4469C55.9327 24.1062 55.7697 23.7654 55.7105 23.484C55.5919 23.2025 55.5919 22.6247 55.8882 22.3432C56.1845 22.0617 56.5105 21.9432 56.9105 22.0025C57.3105 22.0617 57.7697 22.4025 57.9919 22.684C58.2142 23.0247 58.4512 23.4247 58.5549 23.7062C58.6142 23.9877 58.6734 24.1654 58.6734 24.2247C58.6734 24.284 58.7327 24.5062 58.7327 24.5654H59.6364V21.3803H58.9549C58.9549 21.3803 58.8956 21.558 58.7771 21.6025C58.6586 21.6617 58.5993 21.6025 58.5549 21.6025C58.4956 21.5432 57.9327 21.321 57.2512 21.2025C56.5697 21.084 55.7105 21.1432 55.1475 21.4247C54.8068 21.6025 54.5845 21.7654 54.2882 21.9877C54.066 22.2099 53.829 22.5506 53.7253 22.8469C53.5031 23.4099 53.4438 24.1062 53.666 24.7284C53.8882 25.3506 54.3475 25.9284 54.6882 26.3284L55.4882 27.1284C55.829 27.4691 56.229 27.8691 56.3475 28.0321C56.629 28.3136 56.9105 28.595 57.3105 29.0543C57.7105 29.5728 57.829 29.958 57.7697 30.4173C57.7105 30.8765 57.4882 31.0987 57.2512 31.2765C56.9697 31.4543 56.5697 31.4987 56.1697 31.3358C55.7697 31.1728 55.4882 30.8765 55.3697 30.6543C55.1919 30.4321 55.029 29.9728 54.9105 29.6321C54.7919 29.2913 54.6882 28.8321 54.6882 28.8321H53.8882V32.0765H54.4512C54.5105 32.0172 54.629 31.8543 54.7327 31.795C54.9105 31.6765 55.0734 31.7358 55.2512 31.795C55.429 31.8543 55.5919 31.9728 55.8734 32.0172C56.2734 32.1358 56.6734 32.195 57.1771 32.195C57.7401 32.1358 57.9179 32.0765 58.2586 31.9135C58.6586 31.7358 59.1179 31.395 59.4586 30.7728C59.7993 30.0913 59.8586 29.2913 59.7401 28.6691C59.6216 28.0321 59.2808 27.5728 58.7771 26.9506Z" fill="url(#paint1_linear_1_114)"/>
<path d="M39.7554 31.3804C38.9554 31.3804 38.4961 30.8174 38.4961 29.8989V26.936C39.6369 26.936 40.6591 27.336 40.7776 28.3582H41.5183V24.8915H40.7776C40.5998 25.7952 39.6369 26.1508 38.4961 26.1508V22.2841H39.0591C40.0813 22.2841 41.0443 22.5063 41.6813 23.7656H42.3628V21.4841H35.2517V22.2841C35.8739 22.2841 36.1554 22.6249 36.1554 23.3063V30.1952C36.1554 30.9359 35.9776 31.2767 35.2962 31.3359V32.1359H42.2443L42.5257 29.41H41.8443C41.4146 30.6989 40.5554 31.3804 39.7554 31.3804Z" fill="url(#paint2_linear_1_114)"/>
<path d="M31.6813 22.2838C32.4812 22.4023 32.6442 22.8468 32.6442 23.9875V28.0319H32.585L28.5405 21.4838H25.4739V22.2838C25.8739 22.4023 26.6146 22.6838 26.8961 23.306V28.9949C26.8961 30.6393 26.7183 31.0393 25.9331 31.3801V32.1801H28.8368V31.3801C27.9776 31.2023 27.8146 30.6393 27.8146 29.6764V24.0468L27.8739 24.106L32.822 32.2393H33.5627V23.7505C33.5627 23.1283 33.6812 22.669 33.9035 22.4468C34.1257 22.2246 34.7627 22.2246 34.7627 22.2246V21.4246H31.7405V22.2838H31.6813Z" fill="url(#paint3_linear_1_114)"/>
<path d="M16.881 21.4841H8.51068V23.8249H9.19216C9.47364 22.4026 10.7922 22.2841 11.5329 22.2841V30.373C11.5329 31.0545 11.4144 31.3952 10.6736 31.3952V32.1952H14.7773V31.3952C13.9181 31.3359 13.9181 30.9359 13.9181 30.2545V22.2841C14.7181 22.2841 15.8588 22.5063 16.1403 23.8249H16.881V21.4841Z" fill="url(#paint4_linear_1_114)"/>
<path d="M7.08833 26.9506C6.52537 26.2691 5.9476 25.7506 5.78464 25.5876L4.6439 24.4469C4.2439 24.1062 4.08094 23.7654 4.02168 23.484C3.90316 23.2025 3.90316 22.6247 4.19946 22.3432C4.49575 22.0617 4.82168 21.9432 5.22167 22.0025C5.62167 22.0617 6.08093 22.4025 6.30315 22.684C6.52537 22.9654 6.76241 23.4247 6.86611 23.7062C6.92537 23.9877 6.98463 24.1654 6.98463 24.2247C6.98463 24.284 7.04389 24.5062 7.04389 24.5654H7.94759V21.3803H7.26611C7.26611 21.3803 7.20685 21.558 7.08833 21.6025C6.96982 21.6617 6.91056 21.6025 6.86611 21.6025C6.80685 21.5432 6.24389 21.321 5.56241 21.2025C4.88094 21.084 4.02168 21.1432 3.45872 21.4247C3.11798 21.6025 2.89576 21.7654 2.59946 21.9877C2.37724 22.2099 2.14021 22.5506 2.0365 22.8469C1.81428 23.4099 1.75502 24.1062 1.97725 24.7284C2.19947 25.3506 2.59946 25.9284 2.99946 26.3284L3.79946 27.1284C4.1402 27.4691 4.5402 27.8691 4.65871 28.0321C4.94019 28.3136 5.22167 28.595 5.62167 29.0543C6.02167 29.5728 6.14019 29.958 6.08093 30.4173C6.02167 30.8765 5.79945 31.0987 5.56241 31.2765C5.28093 31.4543 4.88094 31.4987 4.48094 31.3358C4.08094 31.158 3.79946 30.8765 3.68094 30.6543C3.50316 30.4321 3.3402 29.9728 3.22168 29.6321C3.10317 29.2765 2.98465 28.8321 2.98465 28.8321H2.18465V32.0765H2.74761C2.80687 32.0172 2.92539 31.8543 3.02909 31.795C3.20687 31.6765 3.36983 31.7358 3.54761 31.795C3.72539 31.8543 3.88835 31.9728 4.16983 32.0172C4.56983 32.1358 4.96982 32.195 5.47353 32.195C6.03649 32.1358 6.21426 32.0765 6.555 31.9135C6.955 31.7358 7.41426 31.395 7.755 30.7728C8.09574 30.0913 8.15499 29.2913 8.03648 28.6691C7.93277 28.0321 7.59203 27.5728 7.08833 26.9506Z" fill="url(#paint5_linear_1_114)"/>
<path d="M21.2664 21.3062C20.0664 21.3062 16.8812 22.0469 16.8812 26.7728C16.8812 31.4394 19.9034 32.358 21.2664 32.358C22.6293 32.358 25.6516 31.4543 25.6516 26.7728C25.6367 22.0469 22.3923 21.3062 21.2664 21.3062ZM22.5701 30.358C22.2886 30.9802 22.0071 31.558 21.2664 31.558C20.5257 31.558 20.0071 30.758 19.8442 30.195C19.7257 29.632 19.5034 28.3728 19.5627 26.7283C19.5627 25.1284 19.7405 23.9432 19.8442 23.4839C19.9627 23.0247 20.3627 22.0617 21.2664 22.0617C21.8886 22.0617 22.4071 22.5802 22.6293 23.321C22.8516 24.0617 22.9701 25.7061 22.9701 26.7432C22.9701 27.7506 22.8516 29.7357 22.5701 30.358Z" fill="url(#paint6_linear_1_114)"/>
<path d="M48.4068 12.5949L46.1846 1.83936L44.0216 12.5949L33.2661 14.7578L44.0216 16.9208L46.1846 27.6763L48.3475 16.9208L59.103 14.7578L48.4068 12.5949ZM34.6439 14.7578L44.1549 12.8171L46.0364 14.7578H34.6439ZM46.1994 26.3133L44.2586 16.8022L46.1994 14.9208V26.3133ZM46.1994 3.20231L48.1401 12.7134L46.1994 14.5948V3.20231ZM48.3031 16.6985L46.4216 14.7578H57.7993L48.3031 16.6985Z" fill="url(#paint7_linear_1_114)"/>
<path d="M80.2883 22.284C81.0883 22.4026 81.2513 22.9063 81.2513 24.047V28.0914H81.2068L77.2217 21.5433H74.4958V22.3433C74.8958 22.4618 75.518 23.247 75.518 23.247V29.4544C75.4587 30.1951 75.4587 30.9359 75.118 31.2766C74.9995 31.3951 74.8958 31.3951 74.718 31.3951C74.318 31.3951 74.0958 31.0544 73.6958 29.5136L71.6513 21.5433H69.4291L69.6513 22.4026L67.7106 29.1136C67.2514 30.7581 67.0291 31.2766 66.5106 31.5581V32.1803H69.1328V31.5581C68.6143 31.3803 68.3921 30.9359 68.3921 30.4766C68.3921 30.2544 68.5106 29.8544 68.5699 29.5729L68.8513 28.6099H71.1921L71.4736 29.8099C71.5921 30.3285 71.6513 30.5507 71.6513 30.7136C71.6513 31.1136 71.4291 31.5136 71.0291 31.6173V32.2396H77.4587V31.5581C76.5995 31.3803 76.3772 30.6988 76.3772 29.7359V24.047L76.4365 24.1063L81.3846 32.2396H82.1254V23.7507C82.1254 22.847 82.1846 22.3878 82.8068 22.2692V21.4692H80.2439V22.2692H80.2883V22.284ZM69.1921 27.5729L70.0958 23.8692H70.155L71.0143 27.5729H69.1921Z" fill="url(#paint8_linear_1_114)"/>
<path d="M86.3182 21.4841H83.2516V22.2841C83.6516 22.4026 83.7701 22.8026 83.7701 23.2471V30.1952C83.7701 30.9359 83.7701 31.2767 83.2516 31.3359V32.1359H86.6145C89.9775 32.1359 90.7182 29.3508 90.7182 26.7878C90.7034 22.9656 89.2219 21.4841 86.3182 21.4841ZM86.7775 31.3804C86.259 31.3804 85.9775 31.1582 85.9775 30.1804V22.2693H86.259C87.3405 22.2693 88.2441 23.1286 88.2441 26.7137C88.259 29.4545 87.9775 31.3804 86.7775 31.3804Z" fill="url(#paint9_linear_1_114)"/>
<path d="M63.6656 31.3804C63.1026 31.3804 63.147 30.8174 63.147 29.7359V23.3656C63.147 22.6841 63.3248 22.3434 64.0063 22.2841V21.4841H60.3026V22.2841C60.8656 22.3434 61.0433 22.6249 61.0433 23.3656V30.3137C61.0433 30.9952 60.9248 31.3359 60.3026 31.3952V32.1952H66.11L66.4507 29.5137H65.8285C65.3248 30.6989 64.4656 31.3804 63.6656 31.3804Z" fill="url(#paint10_linear_1_114)"/>
<defs>
<linearGradient id="paint0_linear_1_114" x1="51.2886" y1="21.3652" x2="51.2886" y2="32.1356" gradientUnits="userSpaceOnUse">
<stop stop-color="#E8F2F9"/>
<stop offset="1" stop-color="#A7B1B7"/>
</linearGradient>
<linearGradient id="paint1_linear_1_114" x1="56.661" y1="21.1448" x2="56.661" y2="32.195" gradientUnits="userSpaceOnUse">
<stop stop-color="#E8F2F9"/>
<stop offset="1" stop-color="#A7B1B7"/>
</linearGradient>
<linearGradient id="paint2_linear_1_114" x1="38.8887" y1="21.4841" x2="38.8887" y2="32.1359" gradientUnits="userSpaceOnUse">
<stop stop-color="#E8F2F9"/>
<stop offset="1" stop-color="#A7B1B7"/>
</linearGradient>
<linearGradient id="paint3_linear_1_114" x1="30.1183" y1="21.4246" x2="30.1183" y2="32.2393" gradientUnits="userSpaceOnUse">
<stop stop-color="#E8F2F9"/>
<stop offset="1" stop-color="#A7B1B7"/>
</linearGradient>
<linearGradient id="paint4_linear_1_114" x1="12.6958" y1="21.4841" x2="12.6958" y2="32.1952" gradientUnits="userSpaceOnUse">
<stop stop-color="#E8F2F9"/>
<stop offset="1" stop-color="#A7B1B7"/>
</linearGradient>
<linearGradient id="paint5_linear_1_114" x1="4.96482" y1="21.1448" x2="4.96482" y2="32.195" gradientUnits="userSpaceOnUse">
<stop stop-color="#E8F2F9"/>
<stop offset="1" stop-color="#A7B1B7"/>
</linearGradient>
<linearGradient id="paint6_linear_1_114" x1="21.2664" y1="21.3062" x2="21.2664" y2="32.358" gradientUnits="userSpaceOnUse">
<stop stop-color="#E8F2F9"/>
<stop offset="1" stop-color="#A7B1B7"/>
</linearGradient>
<linearGradient id="paint7_linear_1_114" x1="46.1846" y1="1.83936" x2="46.1846" y2="27.6763" gradientUnits="userSpaceOnUse">
<stop stop-color="#E8F2F9"/>
<stop offset="1" stop-color="#A7B1B7"/>
</linearGradient>
<linearGradient id="paint8_linear_1_114" x1="74.6587" y1="21.4692" x2="74.6587" y2="32.2396" gradientUnits="userSpaceOnUse">
<stop stop-color="#E8F2F9"/>
<stop offset="1" stop-color="#A7B1B7"/>
</linearGradient>
<linearGradient id="paint9_linear_1_114" x1="86.9849" y1="21.4841" x2="86.9849" y2="32.1359" gradientUnits="userSpaceOnUse">
<stop stop-color="#E8F2F9"/>
<stop offset="1" stop-color="#A7B1B7"/>
</linearGradient>
<linearGradient id="paint10_linear_1_114" x1="63.3767" y1="21.4841" x2="63.3767" y2="32.1952" gradientUnits="userSpaceOnUse">
<stop stop-color="#E8F2F9"/>
<stop offset="1" stop-color="#A7B1B7"/>
</linearGradient>
</defs>
</svg>
