<svg width="93" height="34" viewBox="0 0 93 34" fill="none" xmlns="http://www.w3.org/2000/svg">
<path d="M49.9568 22.2837C50.5791 22.2837 50.7568 22.6837 50.7568 23.306V30.3133C50.7568 30.9948 50.5791 31.3356 49.9568 31.3356V32.1356H53.7642V31.3356C53.0828 31.2763 52.905 31.0541 52.905 30.1948V23.1874C52.905 22.506 53.1272 22.1652 53.7642 22.1652V21.3652H49.9568V22.2837Z" fill="url(#paint0_linear_1_185)"/>
<path d="M59.3488 26.9506C58.7858 26.2691 58.2081 25.8099 58.0451 25.5876L56.9044 24.4469C56.5044 24.1062 56.3414 23.7654 56.2821 23.484C56.1636 23.2025 56.1636 22.6247 56.4599 22.3432C56.7562 22.0617 57.0821 21.9432 57.4821 22.0025C57.8821 22.0617 58.3414 22.4025 58.5636 22.684C58.7858 23.0247 59.0229 23.4247 59.1266 23.7062C59.1858 23.9877 59.2451 24.1654 59.2451 24.2247C59.2451 24.284 59.3044 24.5062 59.3044 24.5654H60.2081V21.3803H59.5266C59.5266 21.3803 59.4673 21.558 59.3488 21.6025C59.2303 21.6617 59.171 21.6025 59.1266 21.6025C59.0673 21.5432 58.5044 21.321 57.8229 21.2025C57.1414 21.084 56.2821 21.1432 55.7192 21.4247C55.3784 21.6025 55.1562 21.7654 54.8599 21.9877C54.6377 22.2099 54.4007 22.5506 54.297 22.8469C54.0748 23.4099 54.0155 24.1062 54.2377 24.7284C54.4599 25.3506 54.9192 25.9284 55.2599 26.3284L56.0599 27.1284C56.4007 27.4691 56.8007 27.8691 56.9192 28.0321C57.2007 28.3136 57.4821 28.595 57.8821 29.0543C58.2821 29.5728 58.4007 29.958 58.3414 30.4173C58.2821 30.8765 58.0599 31.0987 57.8229 31.2765C57.5414 31.4543 57.1414 31.4987 56.7414 31.3358C56.3414 31.1728 56.0599 30.8765 55.9414 30.6543C55.7636 30.4321 55.6007 29.9728 55.4822 29.6321C55.3636 29.2913 55.2599 28.8321 55.2599 28.8321H54.4599V32.0765H55.0229C55.0822 32.0172 55.2007 31.8543 55.3044 31.795C55.4822 31.6765 55.6451 31.7358 55.8229 31.795C56.0007 31.8543 56.1636 31.9728 56.4451 32.0172C56.8451 32.1358 57.2451 32.195 57.7488 32.195C58.3118 32.1358 58.4895 32.0765 58.8303 31.9135C59.2303 31.7358 59.6895 31.395 60.0303 30.7728C60.371 30.0913 60.4303 29.2913 60.3118 28.6691C60.1932 28.0321 59.8525 27.5728 59.3488 26.9506Z" fill="url(#paint1_linear_1_185)"/>
<path d="M40.3271 31.3804C39.5271 31.3804 39.0678 30.8174 39.0678 29.8989V26.936C40.2086 26.936 41.2308 27.336 41.3493 28.3582H42.09V24.8915H41.3493C41.1715 25.7952 40.2086 26.1508 39.0678 26.1508V22.2841H39.6308C40.653 22.2841 41.616 22.5063 42.253 23.7656H42.9345V21.4841H35.8234V22.2841C36.4456 22.2841 36.7271 22.6249 36.7271 23.3063V30.1952C36.7271 30.9359 36.5493 31.2767 35.8678 31.3359V32.1359H42.816L43.0974 29.41H42.416C41.9863 30.6989 41.1271 31.3804 40.3271 31.3804Z" fill="url(#paint2_linear_1_185)"/>
<path d="M32.2532 22.2838C33.0532 22.4023 33.2161 22.8468 33.2161 23.9875V28.0319H33.1569L29.1125 21.4838H26.0458V22.2838C26.4458 22.4023 27.1865 22.6838 27.468 23.306V28.9949C27.468 30.6393 27.2902 31.0393 26.5051 31.3801V32.1801H29.4088V31.3801C28.5495 31.2023 28.3865 30.6393 28.3865 29.6764V24.0468L28.4458 24.106L33.3939 32.2393H34.1347V23.7505C34.1347 23.1283 34.2532 22.669 34.4754 22.4468C34.6976 22.2246 35.3347 22.2246 35.3347 22.2246V21.4246H32.3124V22.2838H32.2532Z" fill="url(#paint3_linear_1_185)"/>
<path d="M17.4529 21.4841H9.08261V23.8249H9.76409C10.0456 22.4026 11.3641 22.2841 12.1048 22.2841V30.373C12.1048 31.0545 11.9863 31.3952 11.2456 31.3952V32.1952H15.3492V31.3952C14.49 31.3359 14.49 30.9359 14.49 30.2545V22.2841C15.29 22.2841 16.4307 22.5063 16.7122 23.8249H17.4529V21.4841Z" fill="url(#paint4_linear_1_185)"/>
<path d="M7.66003 26.9506C7.09707 26.2691 6.5193 25.7506 6.35634 25.5876L5.2156 24.4469C4.8156 24.1062 4.65264 23.7654 4.59338 23.484C4.47486 23.2025 4.47486 22.6247 4.77116 22.3432C5.06745 22.0617 5.39338 21.9432 5.79338 22.0025C6.19337 22.0617 6.65263 22.4025 6.87485 22.684C7.09707 22.9654 7.33411 23.4247 7.43781 23.7062C7.49707 23.9877 7.55633 24.1654 7.55633 24.2247C7.55633 24.284 7.61559 24.5062 7.61559 24.5654H8.51929V21.3803H7.83781C7.83781 21.3803 7.77855 21.558 7.66003 21.6025C7.54152 21.6617 7.48226 21.6025 7.43781 21.6025C7.37855 21.5432 6.81559 21.321 6.13411 21.2025C5.45264 21.084 4.59338 21.1432 4.03042 21.4247C3.68968 21.6025 3.46746 21.7654 3.17117 21.9877C2.94894 22.2099 2.71191 22.5506 2.60821 22.8469C2.38598 23.4099 2.32673 24.1062 2.54895 24.7284C2.77117 25.3506 3.17117 25.9284 3.57116 26.3284L4.37116 27.1284C4.7119 27.4691 5.1119 27.8691 5.23042 28.0321C5.5119 28.3136 5.79338 28.595 6.19337 29.0543C6.59337 29.5728 6.71189 29.958 6.65263 30.4173C6.59337 30.8765 6.37115 31.0987 6.13411 31.2765C5.85263 31.4543 5.45264 31.4987 5.05264 31.3358C4.65264 31.158 4.37116 30.8765 4.25264 30.6543C4.07487 30.4321 3.9119 29.9728 3.79339 29.6321C3.67487 29.2765 3.55635 28.8321 3.55635 28.8321H2.75635V32.0765H3.31931C3.37857 32.0172 3.49709 31.8543 3.60079 31.795C3.77857 31.6765 3.94153 31.7358 4.11931 31.795C4.29709 31.8543 4.46005 31.9728 4.74153 32.0172C5.14153 32.1358 5.54153 32.195 6.04523 32.195C6.60819 32.1358 6.78596 32.0765 7.1267 31.9135C7.5267 31.7358 7.98596 31.395 8.3267 30.7728C8.66744 30.0913 8.7267 29.2913 8.60818 28.6691C8.50447 28.0321 8.16374 27.5728 7.66003 26.9506Z" fill="url(#paint5_linear_1_185)"/>
<path d="M21.8378 21.3062C20.6379 21.3062 17.4527 22.0469 17.4527 26.7728C17.4527 31.4394 20.4749 32.358 21.8378 32.358C23.2008 32.358 26.223 31.4543 26.223 26.7728C26.2082 22.0469 22.9638 21.3062 21.8378 21.3062ZM23.1415 30.358C22.8601 30.9802 22.5786 31.558 21.8378 31.558C21.0971 31.558 20.5786 30.758 20.4156 30.195C20.2971 29.632 20.0749 28.3728 20.1342 26.7283C20.1342 25.1284 20.3119 23.9432 20.4156 23.4839C20.5341 23.0247 20.9341 22.0617 21.8378 22.0617C22.4601 22.0617 22.9786 22.5802 23.2008 23.321C23.423 24.0617 23.5415 25.7061 23.5415 26.7432C23.5415 27.7506 23.423 29.7357 23.1415 30.358Z" fill="url(#paint6_linear_1_185)"/>
<path d="M48.9785 12.5949L46.7563 1.83936L44.5933 12.5949L33.8378 14.7578L44.5933 16.9208L46.7563 27.6763L48.9192 16.9208L59.6747 14.7578L48.9785 12.5949ZM35.2156 14.7578L44.7266 12.8171L46.6081 14.7578H35.2156ZM46.7711 26.3133L44.8303 16.8022L46.7711 14.9208V26.3133ZM46.7711 3.20231L48.7118 12.7134L46.7711 14.5948V3.20231ZM48.8748 16.6985L46.9933 14.7578H58.371L48.8748 16.6985Z" fill="url(#paint7_linear_1_185)"/>
<path d="M80.8598 22.284C81.6598 22.4026 81.8228 22.9063 81.8228 24.047V28.0914H81.7783L77.7932 21.5433H75.0672V22.3433C75.4672 22.4618 76.0895 23.247 76.0895 23.247V29.4544C76.0302 30.1951 76.0302 30.9359 75.6895 31.2766C75.5709 31.3951 75.4672 31.3951 75.2895 31.3951C74.8895 31.3951 74.6672 31.0544 74.2672 29.5136L72.2228 21.5433H70.0006L70.2228 22.4026L68.2821 29.1136C67.8228 30.7581 67.6006 31.2766 67.0821 31.5581V32.1803H69.7043V31.5581C69.1858 31.3803 68.9636 30.9359 68.9636 30.4766C68.9636 30.2544 69.0821 29.8544 69.1413 29.5729L69.4228 28.6099H71.7636L72.045 29.8099C72.1635 30.3285 72.2228 30.5507 72.2228 30.7136C72.2228 31.1136 72.0006 31.5136 71.6006 31.6173V32.2396H78.0302V31.5581C77.1709 31.3803 76.9487 30.6988 76.9487 29.7359V24.047L77.008 24.1063L81.9561 32.2396H82.6968V23.7507C82.6968 22.847 82.7561 22.3878 83.3783 22.2692V21.4692H80.8154V22.2692H80.8598V22.284ZM69.7636 27.5729L70.6673 23.8692H70.7265L71.5858 27.5729H69.7636Z" fill="url(#paint8_linear_1_185)"/>
<path d="M86.8899 21.4841H83.8233V22.2841C84.2233 22.4026 84.3418 22.8026 84.3418 23.2471V30.1952C84.3418 30.9359 84.3418 31.2767 83.8233 31.3359V32.1359H87.1862C90.5492 32.1359 91.2899 29.3508 91.2899 26.7878C91.2751 22.9656 89.7936 21.4841 86.8899 21.4841ZM87.3492 31.3804C86.8307 31.3804 86.5492 31.1582 86.5492 30.1804V22.2693H86.8307C87.9122 22.2693 88.8159 23.1286 88.8159 26.7137C88.8307 29.4545 88.5492 31.3804 87.3492 31.3804Z" fill="url(#paint9_linear_1_185)"/>
<path d="M64.2375 31.3804C63.6746 31.3804 63.719 30.8174 63.719 29.7359V23.3656C63.719 22.6841 63.8968 22.3434 64.5783 22.2841V21.4841H60.8746V22.2841C61.4375 22.3434 61.6153 22.6249 61.6153 23.3656V30.3137C61.6153 30.9952 61.4968 31.3359 60.8746 31.3952V32.1952H66.682L67.0227 29.5137H66.4005C65.8968 30.6989 65.0375 31.3804 64.2375 31.3804Z" fill="url(#paint10_linear_1_185)"/>
<defs>
<linearGradient id="paint0_linear_1_185" x1="51.8605" y1="21.3652" x2="51.8605" y2="32.1356" gradientUnits="userSpaceOnUse">
<stop stop-color="#E8F2F9"/>
<stop offset="1" stop-color="#A7B1B7"/>
</linearGradient>
<linearGradient id="paint1_linear_1_185" x1="57.2327" y1="21.1448" x2="57.2327" y2="32.195" gradientUnits="userSpaceOnUse">
<stop stop-color="#E8F2F9"/>
<stop offset="1" stop-color="#A7B1B7"/>
</linearGradient>
<linearGradient id="paint2_linear_1_185" x1="39.4604" y1="21.4841" x2="39.4604" y2="32.1359" gradientUnits="userSpaceOnUse">
<stop stop-color="#E8F2F9"/>
<stop offset="1" stop-color="#A7B1B7"/>
</linearGradient>
<linearGradient id="paint3_linear_1_185" x1="30.6902" y1="21.4246" x2="30.6902" y2="32.2393" gradientUnits="userSpaceOnUse">
<stop stop-color="#E8F2F9"/>
<stop offset="1" stop-color="#A7B1B7"/>
</linearGradient>
<linearGradient id="paint4_linear_1_185" x1="13.2678" y1="21.4841" x2="13.2678" y2="32.1952" gradientUnits="userSpaceOnUse">
<stop stop-color="#E8F2F9"/>
<stop offset="1" stop-color="#A7B1B7"/>
</linearGradient>
<linearGradient id="paint5_linear_1_185" x1="5.53652" y1="21.1448" x2="5.53652" y2="32.195" gradientUnits="userSpaceOnUse">
<stop stop-color="#E8F2F9"/>
<stop offset="1" stop-color="#A7B1B7"/>
</linearGradient>
<linearGradient id="paint6_linear_1_185" x1="21.8378" y1="21.3062" x2="21.8378" y2="32.358" gradientUnits="userSpaceOnUse">
<stop stop-color="#E8F2F9"/>
<stop offset="1" stop-color="#A7B1B7"/>
</linearGradient>
<linearGradient id="paint7_linear_1_185" x1="46.7563" y1="1.83936" x2="46.7563" y2="27.6763" gradientUnits="userSpaceOnUse">
<stop stop-color="#E8F2F9"/>
<stop offset="1" stop-color="#A7B1B7"/>
</linearGradient>
<linearGradient id="paint8_linear_1_185" x1="75.2302" y1="21.4692" x2="75.2302" y2="32.2396" gradientUnits="userSpaceOnUse">
<stop stop-color="#E8F2F9"/>
<stop offset="1" stop-color="#A7B1B7"/>
</linearGradient>
<linearGradient id="paint9_linear_1_185" x1="87.5566" y1="21.4841" x2="87.5566" y2="32.1359" gradientUnits="userSpaceOnUse">
<stop stop-color="#E8F2F9"/>
<stop offset="1" stop-color="#A7B1B7"/>
</linearGradient>
<linearGradient id="paint10_linear_1_185" x1="63.9486" y1="21.4841" x2="63.9486" y2="32.1952" gradientUnits="userSpaceOnUse">
<stop stop-color="#E8F2F9"/>
<stop offset="1" stop-color="#A7B1B7"/>
</linearGradient>
</defs>
</svg>
