<svg width="92" height="34" viewBox="0 0 92 34" fill="none" xmlns="http://www.w3.org/2000/svg">
<path d="M49.0863 22.2837C49.7085 22.2837 49.8863 22.6837 49.8863 23.306V30.3133C49.8863 30.9948 49.7085 31.3356 49.0863 31.3356V32.1356H52.8937V31.3356C52.2122 31.2763 52.0344 31.0541 52.0344 30.1948V23.1874C52.0344 22.506 52.2567 22.1652 52.8937 22.1652V21.3652H49.0863V22.2837Z" fill="url(#paint0_linear_1_141)"/>
<path d="M58.4785 26.9506C57.9155 26.2691 57.3377 25.8099 57.1748 25.5876L56.034 24.4469C55.634 24.1062 55.4711 23.7654 55.4118 23.484C55.2933 23.2025 55.2933 22.6247 55.5896 22.3432C55.8859 22.0617 56.2118 21.9432 56.6118 22.0025C57.0118 22.0617 57.4711 22.4025 57.6933 22.684C57.9155 23.0247 58.1525 23.4247 58.2562 23.7062C58.3155 23.9877 58.3748 24.1654 58.3748 24.2247C58.3748 24.284 58.434 24.5062 58.434 24.5654H59.3377V21.3803H58.6562C58.6562 21.3803 58.597 21.558 58.4785 21.6025C58.3599 21.6617 58.3007 21.6025 58.2562 21.6025C58.197 21.5432 57.634 21.321 56.9526 21.2025C56.2711 21.084 55.4118 21.1432 54.8489 21.4247C54.5081 21.6025 54.2859 21.7654 53.9896 21.9877C53.7674 22.2099 53.5303 22.5506 53.4266 22.8469C53.2044 23.4099 53.1452 24.1062 53.3674 24.7284C53.5896 25.3506 54.0489 25.9284 54.3896 26.3284L55.1896 27.1284C55.5303 27.4691 55.9303 27.8691 56.0489 28.0321C56.3303 28.3136 56.6118 28.595 57.0118 29.0543C57.4118 29.5728 57.5303 29.958 57.4711 30.4173C57.4118 30.8765 57.1896 31.0987 56.9526 31.2765C56.6711 31.4543 56.2711 31.4987 55.8711 31.3358C55.4711 31.1728 55.1896 30.8765 55.0711 30.6543C54.8933 30.4321 54.7303 29.9728 54.6118 29.6321C54.4933 29.2913 54.3896 28.8321 54.3896 28.8321H53.5896V32.0765H54.1526C54.2118 32.0172 54.3303 31.8543 54.434 31.795C54.6118 31.6765 54.7748 31.7358 54.9526 31.795C55.1303 31.8543 55.2933 31.9728 55.5748 32.0172C55.9748 32.1358 56.3748 32.195 56.8785 32.195C57.4414 32.1358 57.6192 32.0765 57.96 31.9135C58.3599 31.7358 58.8192 31.395 59.1599 30.7728C59.5007 30.0913 59.5599 29.2913 59.4414 28.6691C59.3229 28.0321 58.9822 27.5728 58.4785 26.9506Z" fill="url(#paint1_linear_1_141)"/>
<path d="M39.4568 31.3804C38.6568 31.3804 38.1976 30.8174 38.1976 29.8989V26.936C39.3383 26.936 40.3605 27.336 40.479 28.3582H41.2198V24.8915H40.479C40.3012 25.7952 39.3383 26.1508 38.1976 26.1508V22.2841H38.7605C39.7827 22.2841 40.7457 22.5063 41.3827 23.7656H42.0642V21.4841H34.9531V22.2841C35.5753 22.2841 35.8568 22.6249 35.8568 23.3063V30.1952C35.8568 30.9359 35.679 31.2767 34.9976 31.3359V32.1359H41.9457L42.2272 29.41H41.5457C41.1161 30.6989 40.2568 31.3804 39.4568 31.3804Z" fill="url(#paint2_linear_1_141)"/>
<path d="M31.3827 22.2838C32.1827 22.4023 32.3456 22.8468 32.3456 23.9875V28.0319H32.2864L28.2419 21.4838H25.1753V22.2838C25.5753 22.4023 26.316 22.6838 26.5975 23.306V28.9949C26.5975 30.6393 26.4197 31.0393 25.6346 31.3801V32.1801H28.5382V31.3801C27.679 31.2023 27.516 30.6393 27.516 29.6764V24.0468L27.5753 24.106L32.5234 32.2393H33.2641V23.7505C33.2641 23.1283 33.3827 22.669 33.6049 22.4468C33.8271 22.2246 34.4641 22.2246 34.4641 22.2246V21.4246H31.4419V22.2838H31.3827Z" fill="url(#paint3_linear_1_141)"/>
<path d="M16.5825 21.4841H8.21216V23.8249H8.89364C9.17512 22.4026 10.4936 22.2841 11.2344 22.2841V30.373C11.2344 31.0545 11.1158 31.3952 10.3751 31.3952V32.1952H14.4788V31.3952C13.6195 31.3359 13.6195 30.9359 13.6195 30.2545V22.2841C14.4195 22.2841 15.5603 22.5063 15.8418 23.8249H16.5825V21.4841Z" fill="url(#paint4_linear_1_141)"/>
<path d="M6.78975 26.9506C6.22679 26.2691 5.64901 25.7506 5.48605 25.5876L4.34532 24.4469C3.94532 24.1062 3.78236 23.7654 3.7231 23.484C3.60458 23.2025 3.60458 22.6247 3.90087 22.3432C4.19717 22.0617 4.52309 21.9432 4.92309 22.0025C5.32309 22.0617 5.78235 22.4025 6.00457 22.684C6.22679 22.9654 6.46382 23.4247 6.56753 23.7062C6.62679 23.9877 6.68605 24.1654 6.68605 24.2247C6.68605 24.284 6.7453 24.5062 6.7453 24.5654H7.649V21.3803H6.96753C6.96753 21.3803 6.90827 21.558 6.78975 21.6025C6.67123 21.6617 6.61197 21.6025 6.56753 21.6025C6.50827 21.5432 5.94531 21.321 5.26383 21.2025C4.58235 21.084 3.7231 21.1432 3.16014 21.4247C2.8194 21.6025 2.59718 21.7654 2.30088 21.9877C2.07866 22.2099 1.84162 22.5506 1.73792 22.8469C1.5157 23.4099 1.45644 24.1062 1.67866 24.7284C1.90088 25.3506 2.30088 25.9284 2.70088 26.3284L3.50088 27.1284C3.84161 27.4691 4.24161 27.8691 4.36013 28.0321C4.64161 28.3136 4.92309 28.595 5.32309 29.0543C5.72309 29.5728 5.84161 29.958 5.78235 30.4173C5.72309 30.8765 5.50087 31.0987 5.26383 31.2765C4.98235 31.4543 4.58235 31.4987 4.18235 31.3358C3.78236 31.158 3.50088 30.8765 3.38236 30.6543C3.20458 30.4321 3.04162 29.9728 2.9231 29.6321C2.80458 29.2765 2.68606 28.8321 2.68606 28.8321H1.88607V32.0765H2.44903C2.50829 32.0172 2.62681 31.8543 2.73051 31.795C2.90829 31.6765 3.07125 31.7358 3.24902 31.795C3.4268 31.8543 3.58976 31.9728 3.87124 32.0172C4.27124 32.1358 4.67124 32.195 5.17494 32.195C5.7379 32.1358 5.91568 32.0765 6.25642 31.9135C6.65642 31.7358 7.11567 31.395 7.45641 30.7728C7.79715 30.0913 7.85641 29.2913 7.73789 28.6691C7.63419 28.0321 7.29345 27.5728 6.78975 26.9506Z" fill="url(#paint5_linear_1_141)"/>
<path d="M20.9678 21.3062C19.7678 21.3062 16.5826 22.0469 16.5826 26.7728C16.5826 31.4394 19.6049 32.358 20.9678 32.358C22.3308 32.358 25.353 31.4543 25.353 26.7728C25.3382 22.0469 22.0937 21.3062 20.9678 21.3062ZM22.2715 30.358C21.99 30.9802 21.7085 31.558 20.9678 31.558C20.2271 31.558 19.7086 30.758 19.5456 30.195C19.4271 29.632 19.2049 28.3728 19.2641 26.7283C19.2641 25.1284 19.4419 23.9432 19.5456 23.4839C19.6641 23.0247 20.0641 22.0617 20.9678 22.0617C21.59 22.0617 22.1085 22.5802 22.3308 23.321C22.553 24.0617 22.6715 25.7061 22.6715 26.7432C22.6715 27.7506 22.553 29.7357 22.2715 30.358Z" fill="url(#paint6_linear_1_141)"/>
<path d="M48.1082 12.5949L45.886 1.83936L43.723 12.5949L32.9675 14.7578L43.723 16.9208L45.886 27.6763L48.0489 16.9208L58.8044 14.7578L48.1082 12.5949ZM34.3453 14.7578L43.8564 12.8171L45.7378 14.7578H34.3453ZM45.9008 26.3133L43.9601 16.8022L45.9008 14.9208V26.3133ZM45.9008 3.20231L47.8415 12.7134L45.9008 14.5948V3.20231ZM48.0045 16.6985L46.123 14.7578H57.5007L48.0045 16.6985Z" fill="url(#paint7_linear_1_141)"/>
<path d="M79.9898 22.284C80.7898 22.4026 80.9527 22.9063 80.9527 24.047V28.0914H80.9083L76.9231 21.5433H74.1972V22.3433C74.5972 22.4618 75.2194 23.247 75.2194 23.247V29.4544C75.1601 30.1951 75.1601 30.9359 74.8194 31.2766C74.7009 31.3951 74.5972 31.3951 74.4194 31.3951C74.0194 31.3951 73.7972 31.0544 73.3972 29.5136L71.3528 21.5433H69.1305L69.3528 22.4026L67.412 29.1136C66.9528 30.7581 66.7306 31.2766 66.212 31.5581V32.1803H68.8342V31.5581C68.3157 31.3803 68.0935 30.9359 68.0935 30.4766C68.0935 30.2544 68.212 29.8544 68.2713 29.5729L68.5528 28.6099H70.8935L71.175 29.8099C71.2935 30.3285 71.3528 30.5507 71.3528 30.7136C71.3528 31.1136 71.1305 31.5136 70.7305 31.6173V32.2396H77.1601V31.5581C76.3009 31.3803 76.0787 30.6988 76.0787 29.7359V24.047L76.1379 24.1063L81.086 32.2396H81.8268V23.7507C81.8268 22.847 81.886 22.3878 82.5083 22.2692V21.4692H79.9453V22.2692H79.9898V22.284ZM68.8935 27.5729L69.7972 23.8692H69.8565L70.7157 27.5729H68.8935Z" fill="url(#paint8_linear_1_141)"/>
<path d="M86.0196 21.4841H82.953V22.2841C83.353 22.4026 83.4715 22.8026 83.4715 23.2471V30.1952C83.4715 30.9359 83.4715 31.2767 82.953 31.3359V32.1359H86.3159C89.6789 32.1359 90.4196 29.3508 90.4196 26.7878C90.4048 22.9656 88.9233 21.4841 86.0196 21.4841ZM86.4789 31.3804C85.9604 31.3804 85.6789 31.1582 85.6789 30.1804V22.2693H85.9604C87.0419 22.2693 87.9456 23.1286 87.9456 26.7137C87.9604 29.4545 87.6789 31.3804 86.4789 31.3804Z" fill="url(#paint9_linear_1_141)"/>
<path d="M63.367 31.3804C62.804 31.3804 62.8485 30.8174 62.8485 29.7359V23.3656C62.8485 22.6841 63.0262 22.3434 63.7077 22.2841V21.4841H60.004V22.2841C60.567 22.3434 60.7448 22.6249 60.7448 23.3656V30.3137C60.7448 30.9952 60.6262 31.3359 60.004 31.3952V32.1952H65.8114L66.1521 29.5137H65.5299C65.0262 30.6989 64.167 31.3804 63.367 31.3804Z" fill="url(#paint10_linear_1_141)"/>
<defs>
<linearGradient id="paint0_linear_1_141" x1="50.99" y1="21.3652" x2="50.99" y2="32.1356" gradientUnits="userSpaceOnUse">
<stop stop-color="#E8F2F9"/>
<stop offset="1" stop-color="#A7B1B7"/>
</linearGradient>
<linearGradient id="paint1_linear_1_141" x1="56.3624" y1="21.1448" x2="56.3624" y2="32.195" gradientUnits="userSpaceOnUse">
<stop stop-color="#E8F2F9"/>
<stop offset="1" stop-color="#A7B1B7"/>
</linearGradient>
<linearGradient id="paint2_linear_1_141" x1="38.5901" y1="21.4841" x2="38.5901" y2="32.1359" gradientUnits="userSpaceOnUse">
<stop stop-color="#E8F2F9"/>
<stop offset="1" stop-color="#A7B1B7"/>
</linearGradient>
<linearGradient id="paint3_linear_1_141" x1="29.8197" y1="21.4246" x2="29.8197" y2="32.2393" gradientUnits="userSpaceOnUse">
<stop stop-color="#E8F2F9"/>
<stop offset="1" stop-color="#A7B1B7"/>
</linearGradient>
<linearGradient id="paint4_linear_1_141" x1="12.3973" y1="21.4841" x2="12.3973" y2="32.1952" gradientUnits="userSpaceOnUse">
<stop stop-color="#E8F2F9"/>
<stop offset="1" stop-color="#A7B1B7"/>
</linearGradient>
<linearGradient id="paint5_linear_1_141" x1="4.66624" y1="21.1448" x2="4.66624" y2="32.195" gradientUnits="userSpaceOnUse">
<stop stop-color="#E8F2F9"/>
<stop offset="1" stop-color="#A7B1B7"/>
</linearGradient>
<linearGradient id="paint6_linear_1_141" x1="20.9678" y1="21.3062" x2="20.9678" y2="32.358" gradientUnits="userSpaceOnUse">
<stop stop-color="#E8F2F9"/>
<stop offset="1" stop-color="#A7B1B7"/>
</linearGradient>
<linearGradient id="paint7_linear_1_141" x1="45.886" y1="1.83936" x2="45.886" y2="27.6763" gradientUnits="userSpaceOnUse">
<stop stop-color="#E8F2F9"/>
<stop offset="1" stop-color="#A7B1B7"/>
</linearGradient>
<linearGradient id="paint8_linear_1_141" x1="74.3601" y1="21.4692" x2="74.3601" y2="32.2396" gradientUnits="userSpaceOnUse">
<stop stop-color="#E8F2F9"/>
<stop offset="1" stop-color="#A7B1B7"/>
</linearGradient>
<linearGradient id="paint9_linear_1_141" x1="86.6863" y1="21.4841" x2="86.6863" y2="32.1359" gradientUnits="userSpaceOnUse">
<stop stop-color="#E8F2F9"/>
<stop offset="1" stop-color="#A7B1B7"/>
</linearGradient>
<linearGradient id="paint10_linear_1_141" x1="63.0781" y1="21.4841" x2="63.0781" y2="32.1952" gradientUnits="userSpaceOnUse">
<stop stop-color="#E8F2F9"/>
<stop offset="1" stop-color="#A7B1B7"/>
</linearGradient>
</defs>
</svg>
