<svg width="94" height="33" viewBox="0 0 94 33" fill="none" xmlns="http://www.w3.org/2000/svg">
<g clip-path="url(#clip0_1_205)">
<path d="M93.6024 32.8393H0.439392V0.697266H93.6024V32.8393Z" fill="url(#paint0_linear_1_205)"/>
<path d="M14.3911 8.53558C13.8475 7.59722 13.058 7.00671 11.8462 7.00671C10.6862 7.00671 9.42586 7.89653 9.22848 9.10507C8.73503 12.2405 16.339 10.9333 15.3521 17.1782C14.76 20.9074 12.0193 23.5493 8.21732 23.5493C5.64815 23.5493 3.9947 22.0674 3.05634 19.9189L5.77273 17.6231C6.04453 19.0549 7.13011 20.3395 8.68488 20.3395C10.1668 20.3395 11.3026 19.0808 11.5258 17.649C11.8219 15.7237 10.1426 15.1785 8.7593 14.6107C6.53798 13.6238 4.95732 12.4136 5.4265 9.52572C5.91995 6.43884 8.61207 3.94409 11.7475 3.94409C13.4009 3.94409 15.5495 4.75949 16.4878 6.01981L14.3911 8.53558ZM20.6069 10.9316L19.5699 17.4985C19.3482 18.8818 19.2981 20.5353 21.0518 20.5353C22.804 20.5353 23.2974 18.8818 23.5207 17.4985L24.5561 10.93H28.0135L26.8777 18.0648C26.3115 21.5966 24.1872 23.449 20.5826 23.449C16.978 23.449 15.4459 21.5966 16.0138 18.0664L17.1495 10.9316H20.6069ZM37.1495 16.9792C37.3955 15.35 36.6043 13.5979 34.8279 13.5979C33.0483 13.5979 31.6666 15.35 31.4207 16.9792C31.1732 18.61 31.9627 20.3864 33.7407 20.3864C35.5187 20.3864 36.9004 18.61 37.1479 16.9792H37.1495ZM32.5548 12.0415C33.4932 11.1031 34.8522 10.5369 36.1351 10.5369C39.5683 10.5369 41.1732 13.7451 40.6538 16.9307C40.1361 20.2392 37.5928 23.449 34.0125 23.449C32.7781 23.449 31.5695 22.9054 31.0243 21.9185H30.9758L29.7899 29.5225H26.3341L29.2706 10.9316H32.7263L32.5548 12.0415ZM45.6854 12.1903H45.7339C46.5979 11.129 47.7093 10.5353 48.9939 10.5353C49.4874 10.5353 49.9808 10.6598 50.3756 10.8329L49.4631 14.0412C49.0744 13.7418 48.5945 13.5853 48.1041 13.5979C45.7097 13.5979 45.1175 15.7205 44.8198 17.5972L43.9559 23.0543H40.5001L42.4254 10.9316H45.8828L45.6854 12.1903ZM57.5848 15.4002C57.609 14.1657 57.0169 12.9556 55.6838 12.9556C54.3005 12.9556 53.3379 14.1399 52.9674 15.3986L57.5848 15.4002ZM52.5241 17.5471C52.3008 19.0792 52.5969 20.8071 54.4008 20.8071C55.5349 20.8071 56.3746 20.1162 56.9926 19.152L60.1038 19.6697C58.8693 22.09 56.5234 23.449 53.9802 23.449C50.2267 23.449 48.3759 20.7828 48.9438 17.1038C49.5359 13.4248 51.9303 10.5353 55.8569 10.5353C59.832 10.5353 61.1408 13.4733 60.573 17.1281L60.4985 17.5487H52.5225M65.4848 12.0172H65.5333C65.9304 11.5598 66.4195 11.1914 66.9687 10.936C67.5179 10.6806 68.1149 10.5441 68.7205 10.5353C70.2251 10.5353 71.3123 11.1533 71.9045 12.4363C72.8428 11.252 74.3232 10.5353 75.7307 10.5353C78.8176 10.5353 79.2123 12.8569 78.7933 15.4989L77.6074 23.0543H74.1517L75.1628 16.6831C75.3359 15.4989 75.7809 13.3018 74.0772 13.3018C72.2005 13.3018 71.8058 15.8435 71.6084 17.1038L70.67 23.0543H67.2127L68.1753 16.9064C68.3743 15.7205 68.9163 13.3018 67.114 13.3018C65.1887 13.3018 64.8684 15.8192 64.671 17.1038L63.7326 23.0543H60.2753L62.2005 10.9316H65.6579L65.4848 12.0172ZM88.0248 15.4002C88.0507 14.1657 87.4586 12.9556 86.1239 12.9556C84.7422 12.9556 83.778 14.1399 83.4091 15.3986L88.0248 15.4002ZM82.9642 17.5471C82.7425 19.0792 83.0386 20.8071 84.8409 20.8071C85.9766 20.8071 86.8147 20.1162 87.4327 19.152L90.5439 19.6697C89.3094 22.09 86.9635 23.449 84.4202 23.449C80.6668 23.449 78.816 20.7828 79.3838 17.1038C79.976 13.4248 82.372 10.5353 86.297 10.5353C90.2721 10.5353 91.5809 13.4733 91.013 17.1281L90.9386 17.5487H82.9642" fill="#151920"/>
</g>
<defs>
<linearGradient id="paint0_linear_1_205" x1="47.0209" y1="0.697266" x2="47.0209" y2="32.8393" gradientUnits="userSpaceOnUse">
<stop stop-color="#E8F2F9"/>
<stop offset="1" stop-color="#A7B1B7"/>
</linearGradient>
<clipPath id="clip0_1_205">
<rect width="93.163" height="32.1421" fill="white" transform="translate(0.439392 0.697266)"/>
</clipPath>
</defs>
</svg>
