<svg width="94" height="33" viewBox="0 0 94 33" fill="none" xmlns="http://www.w3.org/2000/svg">
<g clip-path="url(#clip0_1_232)">
<path d="M93.3034 32.8393H0.140381V0.697266H93.3034V32.8393Z" fill="url(#paint0_linear_1_232)"/>
<path d="M14.0923 8.53558C13.5487 7.59722 12.7592 7.00671 11.5474 7.00671C10.3874 7.00671 9.12709 7.89653 8.92971 9.10507C8.43627 12.2405 16.0402 10.9333 15.0533 17.1782C14.4612 20.9074 11.7205 23.5493 7.91855 23.5493C5.34938 23.5493 3.69593 22.0674 2.75757 19.9189L5.47396 17.6231C5.74576 19.0549 6.83135 20.3395 8.38611 20.3395C9.86807 20.3395 11.0038 19.0808 11.2271 17.649C11.5231 15.7237 9.84381 15.1785 8.46053 14.6107C6.23921 13.6238 4.65856 12.4136 5.12774 9.52572C5.62118 6.43884 8.31331 3.94409 11.4487 3.94409C13.1022 3.94409 15.2507 4.75949 16.1891 6.01981L14.0923 8.53558ZM20.3081 10.9316L19.2711 17.4985C19.0494 18.8818 18.9993 20.5353 20.7531 20.5353C22.5052 20.5353 22.9986 18.8818 23.2219 17.4985L24.2573 10.93H27.7147L26.579 18.0648C26.0127 21.5966 23.8885 23.449 20.2839 23.449C16.6793 23.449 15.1472 21.5966 15.715 18.0664L16.8508 10.9316H20.3081ZM36.8508 16.9792C37.0967 15.35 36.3056 13.5979 34.5291 13.5979C32.7495 13.5979 31.3678 15.35 31.1219 16.9792C30.8744 18.61 31.6639 20.3864 33.4419 20.3864C35.22 20.3864 36.6016 18.61 36.8492 16.9792H36.8508ZM32.2561 12.0415C33.1944 11.1031 34.5534 10.5369 35.8364 10.5369C39.2695 10.5369 40.8744 13.7451 40.3551 16.9307C39.8374 20.2392 37.2941 23.449 33.7137 23.449C32.4793 23.449 31.2708 22.9054 30.7256 21.9185H30.677L29.4911 29.5225H26.0354L28.9718 10.9316H32.4275L32.2561 12.0415ZM45.3866 12.1903H45.4352C46.2991 11.129 47.4106 10.5353 48.6951 10.5353C49.1886 10.5353 49.682 10.6598 50.0768 10.8329L49.1643 14.0412C48.7756 13.7418 48.2958 13.5853 47.8053 13.5979C45.4109 13.5979 44.8187 15.7205 44.5211 17.5972L43.6571 23.0543H40.2014L42.1266 10.9316H45.584L45.3866 12.1903ZM57.286 15.4002C57.3103 14.1657 56.7181 12.9556 55.385 12.9556C54.0017 12.9556 53.0391 14.1399 52.6686 15.3986L57.286 15.4002ZM52.2253 17.5471C52.0021 19.0792 52.2981 20.8071 54.102 20.8071C55.2362 20.8071 56.0758 20.1162 56.6939 19.152L59.805 19.6697C58.5706 22.09 56.2247 23.449 53.6814 23.449C49.928 23.449 48.0771 20.7828 48.645 17.1038C49.2371 13.4248 51.6316 10.5353 55.5581 10.5353C59.5332 10.5353 60.8421 13.4733 60.2742 17.1281L60.1998 17.5487H52.2237M65.186 12.0172H65.2346C65.6316 11.5598 66.1207 11.1914 66.67 10.936C67.2192 10.6806 67.8161 10.5441 68.4217 10.5353C69.9264 10.5353 71.0136 11.1533 71.6057 12.4363C72.5441 11.252 74.0244 10.5353 75.4319 10.5353C78.5188 10.5353 78.9136 12.8569 78.4946 15.4989L77.3087 23.0543H73.8529L74.8641 16.6831C75.0372 15.4989 75.4821 13.3018 73.7785 13.3018C71.9018 13.3018 71.507 15.8435 71.3096 17.1038L70.3713 23.0543H66.9139L67.8765 16.9064C68.0755 15.7205 68.6175 13.3018 66.8152 13.3018C64.8899 13.3018 64.5696 15.8192 64.3722 17.1038L63.4339 23.0543H59.9765L61.9018 10.9316H65.3591L65.186 12.0172ZM87.7261 15.4002C87.752 14.1657 87.1598 12.9556 85.8251 12.9556C84.4434 12.9556 83.4792 14.1399 83.1103 15.3986L87.7261 15.4002ZM82.6654 17.5471C82.4438 19.0792 82.7398 20.8071 84.5421 20.8071C85.6779 20.8071 86.5159 20.1162 87.1339 19.152L90.2451 19.6697C89.0107 22.09 86.6648 23.449 84.1215 23.449C80.368 23.449 78.5172 20.7828 79.0851 17.1038C79.6772 13.4248 82.0733 10.5353 85.9982 10.5353C89.9733 10.5353 91.2821 13.4733 90.7143 17.1281L90.6398 17.5487H82.6654" fill="#151920"/>
</g>
<defs>
<linearGradient id="paint0_linear_1_232" x1="46.7219" y1="0.697266" x2="46.7219" y2="32.8393" gradientUnits="userSpaceOnUse">
<stop stop-color="#E8F2F9"/>
<stop offset="1" stop-color="#A7B1B7"/>
</linearGradient>
<clipPath id="clip0_1_232">
<rect width="93.163" height="32.1421" fill="white" transform="translate(0.140381 0.697266)"/>
</clipPath>
</defs>
</svg>
