<svg width="94" height="33" viewBox="0 0 94 33" fill="none" xmlns="http://www.w3.org/2000/svg">
<g clip-path="url(#clip0_1_259)">
<path d="M94.0048 32.8393H0.841797V0.697266H94.0048V32.8393Z" fill="url(#paint0_linear_1_259)"/>
<path d="M14.7935 8.53558C14.2499 7.59722 13.4604 7.00671 12.2486 7.00671C11.0886 7.00671 9.82826 7.89653 9.63089 9.10507C9.13744 12.2405 16.7414 10.9333 15.7545 17.1782C15.1624 20.9074 12.4217 23.5493 8.61972 23.5493C6.05056 23.5493 4.3971 22.0674 3.45874 19.9189L6.17513 17.6231C6.44693 19.0549 7.53252 20.3395 9.08728 20.3395C10.5692 20.3395 11.705 19.0808 11.9282 17.649C12.2243 15.7237 10.545 15.1785 9.16171 14.6107C6.94038 13.6238 5.35973 12.4136 5.82891 9.52572C6.32236 6.43884 9.01448 3.94409 12.1499 3.94409C13.8034 3.94409 15.9519 4.75949 16.8902 6.01981L14.7935 8.53558ZM21.0093 10.9316L19.9723 17.4985C19.7506 18.8818 19.7005 20.5353 21.4542 20.5353C23.2064 20.5353 23.6998 18.8818 23.9231 17.4985L24.9585 10.93H28.4159L27.2801 18.0648C26.7139 21.5966 24.5896 23.449 20.985 23.449C17.3804 23.449 15.8483 21.5966 16.4162 18.0664L17.5519 10.9316H21.0093ZM37.552 16.9792C37.7979 15.35 37.0067 13.5979 35.2303 13.5979C33.4507 13.5979 32.069 15.35 31.8231 16.9792C31.5756 18.61 32.3651 20.3864 34.1431 20.3864C35.9211 20.3864 37.3028 18.61 37.5503 16.9792H37.552ZM32.9572 12.0415C33.8956 11.1031 35.2546 10.5369 36.5376 10.5369C39.9707 10.5369 41.5756 13.7451 41.0562 16.9307C40.5385 20.2392 37.9952 23.449 34.4149 23.449C33.1805 23.449 31.9719 22.9054 31.4267 21.9185H31.3782L30.1923 29.5225H26.7365L29.673 10.9316H33.1287L32.9572 12.0415ZM46.0878 12.1903H46.1363C47.0003 11.129 48.1117 10.5353 49.3963 10.5353C49.8898 10.5353 50.3832 10.6598 50.778 10.8329L49.8655 14.0412C49.4768 13.7418 48.9969 13.5853 48.5065 13.5979C46.1121 13.5979 45.5199 15.7205 45.2222 17.5972L44.3583 23.0543H40.9025L42.8278 10.9316H46.2852L46.0878 12.1903ZM57.9872 15.4002C58.0114 14.1657 57.4193 12.9556 56.0862 12.9556C54.7029 12.9556 53.7403 14.1399 53.3698 15.3986L57.9872 15.4002ZM52.9265 17.5471C52.7032 19.0792 52.9993 20.8071 54.8032 20.8071C55.9373 20.8071 56.777 20.1162 57.395 19.152L60.5062 19.6697C59.2718 22.09 56.9258 23.449 54.3826 23.449C50.6291 23.449 48.7783 20.7828 49.3462 17.1038C49.9383 13.4248 52.3327 10.5353 56.2593 10.5353C60.2344 10.5353 61.5432 13.4733 60.9754 17.1281L60.9009 17.5487H52.9249M65.8872 12.0172H65.9357C66.3328 11.5598 66.8219 11.1914 67.3711 10.936C67.9203 10.6806 68.5173 10.5441 69.1229 10.5353C70.6275 10.5353 71.7147 11.1533 72.3069 12.4363C73.2452 11.252 74.7256 10.5353 76.1331 10.5353C79.22 10.5353 79.6147 12.8569 79.1957 15.4989L78.0098 23.0543H74.5541L75.5652 16.6831C75.7383 15.4989 76.1833 13.3018 74.4797 13.3018C72.6029 13.3018 72.2082 15.8435 72.0108 17.1038L71.0724 23.0543H67.6151L68.5777 16.9064C68.7767 15.7205 69.3187 13.3018 67.5164 13.3018C65.5911 13.3018 65.2708 15.8192 65.0734 17.1038L64.135 23.0543H60.6777L62.6029 10.9316H66.0603L65.8872 12.0172ZM88.4273 15.4002C88.4531 14.1657 87.861 12.9556 86.5263 12.9556C85.1446 12.9556 84.1804 14.1399 83.8115 15.3986L88.4273 15.4002ZM83.3666 17.5471C83.1449 19.0792 83.441 20.8071 85.2433 20.8071C86.379 20.8071 87.2171 20.1162 87.8351 19.152L90.9463 19.6697C89.7118 22.09 87.3659 23.449 84.8227 23.449C81.0692 23.449 79.2184 20.7828 79.7862 17.1038C80.3784 13.4248 82.7744 10.5353 86.6994 10.5353C90.6745 10.5353 91.9833 13.4733 91.4154 17.1281L91.341 17.5487H83.3666" fill="#151920"/>
</g>
<defs>
<linearGradient id="paint0_linear_1_259" x1="47.4233" y1="0.697266" x2="47.4233" y2="32.8393" gradientUnits="userSpaceOnUse">
<stop stop-color="#E8F2F9"/>
<stop offset="1" stop-color="#A7B1B7"/>
</linearGradient>
<clipPath id="clip0_1_259">
<rect width="93.163" height="32.1421" fill="white" transform="translate(0.841797 0.697266)"/>
</clipPath>
</defs>
</svg>
