<svg width="46" height="45" viewBox="0 0 46 45" fill="none" xmlns="http://www.w3.org/2000/svg">
<path d="M23.0415 44.9481C35.4396 44.9481 45.4896 34.8981 45.4896 22.5C45.4896 10.1019 35.4396 0.0518799 23.0415 0.0518799C10.6434 0.0518799 0.593384 10.1019 0.593384 22.5C0.593384 34.8981 10.6434 44.9481 23.0415 44.9481Z" fill="url(#paint0_linear_1_43)"/>
<path d="M12.1276 22.8487C14.2227 21.703 16.5623 20.7465 18.7483 19.7864C22.5056 18.1992 26.2906 16.6785 30.1016 15.2251C30.8422 14.9806 32.1753 14.7397 32.3073 15.8318C32.236 17.3754 31.9415 18.9119 31.7381 20.4467C31.2259 23.823 30.6334 27.1887 30.0552 30.5526C29.8572 31.675 28.4402 32.255 27.5355 31.5376C25.3583 30.0779 23.1651 28.6342 21.0165 27.1423C20.3134 26.432 20.9665 25.4131 21.5947 24.9062C23.3864 23.1538 25.2887 21.6655 26.9876 19.8203C27.4462 18.7228 26.0918 19.649 25.6456 19.9327C23.1901 21.6102 20.797 23.3912 18.2094 24.8652C16.8888 25.5862 15.347 24.9705 14.0264 24.5672C12.8415 24.08 11.1051 23.591 12.1276 22.8487Z" fill="white"/>
<defs>
<linearGradient id="paint0_linear_1_43" x1="23.0415" y1="0.0518799" x2="23.0415" y2="44.9481" gradientUnits="userSpaceOnUse">
<stop stop-color="#161B24"/>
<stop offset="1" stop-color="#0E1117"/>
</linearGradient>
</defs>
</svg>
