<svg width="42" height="43" viewBox="0 0 42 43" fill="none" xmlns="http://www.w3.org/2000/svg">
<path d="M20.243 40.623C31.2524 40.623 40.1767 31.6987 40.1767 20.6893C40.1767 9.67984 31.2524 0.755493 20.243 0.755493C9.23355 0.755493 0.309204 9.67984 0.309204 20.6893C0.309204 31.6987 9.23355 40.623 20.243 40.623Z" fill="#10B681"/>
<path d="M23.0828 20.5522L17.3001 26.3349C16.8424 26.7926 16.9166 27.4729 17.4659 27.8544C18.0152 28.2359 18.8316 28.174 19.2893 27.7163L25.7627 21.2429C26.1628 20.8428 26.1628 20.2616 25.7627 19.8615L19.2893 13.3881C18.8315 12.9304 18.0152 12.8686 17.4659 13.25C16.9166 13.6315 16.8424 14.3118 17.3001 14.7695L23.0828 20.5522Z" fill="white"/>
</svg>
