<svg width="38" height="38" viewBox="0 0 38 38" fill="none" xmlns="http://www.w3.org/2000/svg">
<path d="M19.0834 37.8539C29.4964 37.8539 37.9373 29.413 37.9373 19C37.9373 8.58702 29.4964 0.146118 19.0834 0.146118C8.67039 0.146118 0.229492 8.58702 0.229492 19C0.229492 29.413 8.67039 37.8539 19.0834 37.8539Z" fill="url(#paint0_linear_1_54)"/>
<path d="M9.9168 19.2929C11.6764 18.3307 13.6414 17.5273 15.4774 16.7209C18.6331 15.3879 21.8121 14.1107 25.013 12.8899C25.635 12.6846 26.7546 12.4822 26.8655 13.3995C26.8055 14.696 26.5582 15.9865 26.3874 17.2755C25.9572 20.1113 25.4596 22.938 24.974 25.7633C24.8076 26.7061 23.6176 27.1932 22.8576 26.5907C21.0291 25.3646 19.187 24.1521 17.3824 22.8991C16.7919 22.3025 17.3405 21.4467 17.8681 21.021C19.3729 19.5492 20.9706 18.2992 22.3975 16.7494C22.7827 15.8276 21.6451 16.6055 21.2704 16.8438C19.208 18.2527 17.1981 19.7485 15.0248 20.9866C13.9157 21.5921 12.6207 21.075 11.5115 20.7363C10.5163 20.3271 9.05797 19.9164 9.9168 19.2929Z" fill="#13CD90"/>
<defs>
<linearGradient id="paint0_linear_1_54" x1="19.0834" y1="0.146118" x2="19.0834" y2="37.8539" gradientUnits="userSpaceOnUse">
<stop stop-color="#161B24"/>
<stop offset="1" stop-color="#0E1117"/>
</linearGradient>
</defs>
</svg>
