<svg width="14" height="14" viewBox="0 0 14 14" fill="none" xmlns="http://www.w3.org/2000/svg">
<path d="M0.123047 4.79238C0.123047 3.51655 0.123047 2.87863 0.519398 2.48229C0.915743 2.08594 1.55366 2.08594 2.82949 2.08594H10.9488C12.2246 2.08594 12.8625 2.08594 13.2589 2.48229C13.6553 2.87863 13.6553 3.51655 13.6553 4.79238C13.6553 5.11133 13.6553 5.27082 13.5562 5.3699C13.4571 5.46899 13.2976 5.46899 12.9786 5.46899H0.799657C0.480703 5.46899 0.321219 5.46899 0.222136 5.3699C0.123047 5.27082 0.123047 5.11133 0.123047 4.79238Z" fill="#B1BBC1"/>
<path fill-rule="evenodd" clip-rule="evenodd" d="M0.123047 10.8819C0.123047 12.1577 0.123047 12.7957 0.519398 13.192C0.915743 13.5884 1.55366 13.5884 2.82949 13.5884H10.9488C12.2246 13.5884 12.8625 13.5884 13.2589 13.192C13.6553 12.7957 13.6553 12.1577 13.6553 10.8819V7.49888C13.6553 7.17992 13.6553 7.02045 13.5562 6.92132C13.4571 6.82227 13.2976 6.82227 12.9786 6.82227H0.799657C0.480703 6.82227 0.321219 6.82227 0.222136 6.92132C0.123047 7.02045 0.123047 7.17992 0.123047 7.49888V10.8819ZM3.5061 8.8521C3.5061 8.53314 3.5061 8.37367 3.60519 8.27454C3.70427 8.17549 3.86375 8.17549 4.18271 8.17549H5.53593C5.85488 8.17549 6.01436 8.17549 6.11348 8.27454C6.21254 8.37367 6.21254 8.53314 6.21254 8.8521C6.21254 9.17105 6.21254 9.33053 6.11348 9.42965C6.01436 9.52871 5.85488 9.52871 5.53593 9.52871H4.18271C3.86375 9.52871 3.70427 9.52871 3.60519 9.42965C3.5061 9.33053 3.5061 9.17105 3.5061 8.8521ZM3.60519 10.981C3.5061 11.0801 3.5061 11.2396 3.5061 11.5585C3.5061 11.8775 3.5061 12.037 3.60519 12.1361C3.70427 12.2351 3.86375 12.2351 4.18271 12.2351H5.53593C5.85488 12.2351 6.01436 12.2351 6.11348 12.1361C6.21254 12.037 6.21254 11.8775 6.21254 11.5585C6.21254 11.2396 6.21254 11.0801 6.11348 10.981C6.01436 10.8819 5.85488 10.8819 5.53593 10.8819H4.18271C3.86375 10.8819 3.70427 10.8819 3.60519 10.981ZM7.56576 8.8521C7.56576 8.53314 7.56576 8.37367 7.66482 8.27454C7.76394 8.17549 7.92342 8.17549 8.24237 8.17549H9.59559C9.91454 8.17549 10.074 8.17549 10.1731 8.27454C10.2722 8.37367 10.2722 8.53314 10.2722 8.8521C10.2722 9.17105 10.2722 9.33053 10.1731 9.42965C10.074 9.52871 9.91454 9.52871 9.59559 9.52871H8.24237C7.92342 9.52871 7.76394 9.52871 7.66482 9.42965C7.56576 9.33053 7.56576 9.17105 7.56576 8.8521ZM7.66482 10.981C7.56576 11.0801 7.56576 11.2396 7.56576 11.5585C7.56576 11.8775 7.56576 12.037 7.66482 12.1361C7.76394 12.2351 7.92342 12.2351 8.24237 12.2351H9.59559C9.91454 12.2351 10.074 12.2351 10.1731 12.1361C10.2722 12.037 10.2722 11.8775 10.2722 11.5585C10.2722 11.2396 10.2722 11.0801 10.1731 10.981C10.074 10.8819 9.91454 10.8819 9.59559 10.8819H8.24237C7.92342 10.8819 7.76394 10.8819 7.66482 10.981Z" fill="#B1BBC1"/>
<path d="M3.50586 0.732422V2.76225" stroke="#B1BBC1" stroke-width="1.35322" stroke-linecap="round"/>
<path d="M10.2725 0.732422V2.76225" stroke="#B1BBC1" stroke-width="1.35322" stroke-linecap="round"/>
</svg>
