<svg width="14" height="14" viewBox="0 0 14 14" fill="none" xmlns="http://www.w3.org/2000/svg">
<path d="M0.366211 4.79238C0.366211 3.51655 0.366211 2.87863 0.762562 2.48229C1.15891 2.08594 1.79682 2.08594 3.07265 2.08594H11.192C12.4678 2.08594 13.1057 2.08594 13.5021 2.48229C13.8984 2.87863 13.8984 3.51655 13.8984 4.79238C13.8984 5.11133 13.8984 5.27082 13.7994 5.3699C13.7002 5.46899 13.5408 5.46899 13.2218 5.46899H1.04282C0.723867 5.46899 0.564383 5.46899 0.465301 5.3699C0.366211 5.27082 0.366211 5.11133 0.366211 4.79238Z" fill="#B1BBC1"/>
<path fill-rule="evenodd" clip-rule="evenodd" d="M0.366211 10.8819C0.366211 12.1577 0.366211 12.7957 0.762562 13.192C1.15891 13.5884 1.79682 13.5884 3.07265 13.5884H11.192C12.4678 13.5884 13.1057 13.5884 13.5021 13.192C13.8984 12.7957 13.8984 12.1577 13.8984 10.8819V7.49888C13.8984 7.17992 13.8984 7.02045 13.7994 6.92132C13.7002 6.82227 13.5408 6.82227 13.2218 6.82227H1.04282C0.723867 6.82227 0.564383 6.82227 0.465301 6.92132C0.366211 7.02045 0.366211 7.17992 0.366211 7.49888V10.8819ZM3.74926 8.8521C3.74926 8.53314 3.74926 8.37367 3.84835 8.27454C3.94743 8.17549 4.10692 8.17549 4.42587 8.17549H5.77909C6.09805 8.17549 6.25752 8.17549 6.35665 8.27454C6.4557 8.37367 6.4557 8.53314 6.4557 8.8521C6.4557 9.17105 6.4557 9.33053 6.35665 9.42965C6.25752 9.52871 6.09805 9.52871 5.77909 9.52871H4.42587C4.10692 9.52871 3.94743 9.52871 3.84835 9.42965C3.74926 9.33053 3.74926 9.17105 3.74926 8.8521ZM3.84835 10.981C3.74926 11.0801 3.74926 11.2396 3.74926 11.5585C3.74926 11.8775 3.74926 12.037 3.84835 12.1361C3.94743 12.2351 4.10692 12.2351 4.42587 12.2351H5.77909C6.09805 12.2351 6.25752 12.2351 6.35665 12.1361C6.4557 12.037 6.4557 11.8775 6.4557 11.5585C6.4557 11.2396 6.4557 11.0801 6.35665 10.981C6.25752 10.8819 6.09805 10.8819 5.77909 10.8819H4.42587C4.10692 10.8819 3.94743 10.8819 3.84835 10.981ZM7.80892 8.8521C7.80892 8.53314 7.80892 8.37367 7.90798 8.27454C8.0071 8.17549 8.16658 8.17549 8.48553 8.17549H9.83875C10.1577 8.17549 10.3172 8.17549 10.4163 8.27454C10.5154 8.37367 10.5154 8.53314 10.5154 8.8521C10.5154 9.17105 10.5154 9.33053 10.4163 9.42965C10.3172 9.52871 10.1577 9.52871 9.83875 9.52871H8.48553C8.16658 9.52871 8.0071 9.52871 7.90798 9.42965C7.80892 9.33053 7.80892 9.17105 7.80892 8.8521ZM7.90798 10.981C7.80892 11.0801 7.80892 11.2396 7.80892 11.5585C7.80892 11.8775 7.80892 12.037 7.90798 12.1361C8.0071 12.2351 8.16658 12.2351 8.48553 12.2351H9.83875C10.1577 12.2351 10.3172 12.2351 10.4163 12.1361C10.5154 12.037 10.5154 11.8775 10.5154 11.5585C10.5154 11.2396 10.5154 11.0801 10.4163 10.981C10.3172 10.8819 10.1577 10.8819 9.83875 10.8819H8.48553C8.16658 10.8819 8.0071 10.8819 7.90798 10.981Z" fill="#B1BBC1"/>
<path d="M3.75 0.732422V2.76225" stroke="#B1BBC1" stroke-width="1.35322" stroke-linecap="round"/>
<path d="M10.5146 0.732422V2.76225" stroke="#B1BBC1" stroke-width="1.35322" stroke-linecap="round"/>
</svg>
