<svg width="15" height="14" viewBox="0 0 15 14" fill="none" xmlns="http://www.w3.org/2000/svg">
<path d="M0.745117 4.79238C0.745117 3.51655 0.745117 2.87863 1.14147 2.48229C1.53781 2.08594 2.17573 2.08594 3.45156 2.08594H11.5709C12.8467 2.08594 13.4846 2.08594 13.881 2.48229C14.2773 2.87863 14.2773 3.51655 14.2773 4.79238C14.2773 5.11133 14.2773 5.27082 14.1783 5.3699C14.0791 5.46899 13.9197 5.46899 13.6007 5.46899H1.42173C1.10277 5.46899 0.94329 5.46899 0.844207 5.3699C0.745117 5.27082 0.745117 5.11133 0.745117 4.79238Z" fill="#B1BBC1"/>
<path fill-rule="evenodd" clip-rule="evenodd" d="M0.745117 10.8819C0.745117 12.1577 0.745117 12.7957 1.14147 13.192C1.53781 13.5884 2.17573 13.5884 3.45156 13.5884H11.5709C12.8467 13.5884 13.4846 13.5884 13.881 13.192C14.2773 12.7957 14.2773 12.1577 14.2773 10.8819V7.49888C14.2773 7.17992 14.2773 7.02045 14.1783 6.92132C14.0791 6.82227 13.9197 6.82227 13.6007 6.82227H1.42173C1.10277 6.82227 0.94329 6.82227 0.844207 6.92132C0.745117 7.02045 0.745117 7.17992 0.745117 7.49888V10.8819ZM4.12817 8.8521C4.12817 8.53314 4.12817 8.37367 4.22726 8.27454C4.32634 8.17549 4.48582 8.17549 4.80478 8.17549H6.158C6.47695 8.17549 6.63643 8.17549 6.73555 8.27454C6.83461 8.37367 6.83461 8.53314 6.83461 8.8521C6.83461 9.17105 6.83461 9.33053 6.73555 9.42965C6.63643 9.52871 6.47695 9.52871 6.158 9.52871H4.80478C4.48582 9.52871 4.32634 9.52871 4.22726 9.42965C4.12817 9.33053 4.12817 9.17105 4.12817 8.8521ZM4.22726 10.981C4.12817 11.0801 4.12817 11.2396 4.12817 11.5585C4.12817 11.8775 4.12817 12.037 4.22726 12.1361C4.32634 12.2351 4.48582 12.2351 4.80478 12.2351H6.158C6.47695 12.2351 6.63643 12.2351 6.73555 12.1361C6.83461 12.037 6.83461 11.8775 6.83461 11.5585C6.83461 11.2396 6.83461 11.0801 6.73555 10.981C6.63643 10.8819 6.47695 10.8819 6.158 10.8819H4.80478C4.48582 10.8819 4.32634 10.8819 4.22726 10.981ZM8.18783 8.8521C8.18783 8.53314 8.18783 8.37367 8.28689 8.27454C8.38601 8.17549 8.54549 8.17549 8.86444 8.17549H10.2177C10.5366 8.17549 10.6961 8.17549 10.7952 8.27454C10.8943 8.37367 10.8943 8.53314 10.8943 8.8521C10.8943 9.17105 10.8943 9.33053 10.7952 9.42965C10.6961 9.52871 10.5366 9.52871 10.2177 9.52871H8.86444C8.54549 9.52871 8.38601 9.52871 8.28689 9.42965C8.18783 9.33053 8.18783 9.17105 8.18783 8.8521ZM8.28689 10.981C8.18783 11.0801 8.18783 11.2396 8.18783 11.5585C8.18783 11.8775 8.18783 12.037 8.28689 12.1361C8.38601 12.2351 8.54549 12.2351 8.86444 12.2351H10.2177C10.5366 12.2351 10.6961 12.2351 10.7952 12.1361C10.8943 12.037 10.8943 11.8775 10.8943 11.5585C10.8943 11.2396 10.8943 11.0801 10.7952 10.981C10.6961 10.8819 10.5366 10.8819 10.2177 10.8819H8.86444C8.54549 10.8819 8.38601 10.8819 8.28689 10.981Z" fill="#B1BBC1"/>
<path d="M4.12793 0.732422V2.76225" stroke="#B1BBC1" stroke-width="1.35322" stroke-linecap="round"/>
<path d="M10.8945 0.732422V2.76225" stroke="#B1BBC1" stroke-width="1.35322" stroke-linecap="round"/>
</svg>
