<svg width="14" height="14" viewBox="0 0 14 14" fill="none" xmlns="http://www.w3.org/2000/svg">
<path d="M0.402344 4.76015C0.402344 3.48432 0.402344 2.84641 0.798695 2.45006C1.19504 2.05371 1.83295 2.05371 3.10878 2.05371H11.2281C12.5039 2.05371 13.1418 2.05371 13.5382 2.45006C13.9345 2.84641 13.9345 3.48432 13.9345 4.76015C13.9345 5.07911 13.9345 5.23859 13.8355 5.33767C13.7364 5.43676 13.5769 5.43676 13.2579 5.43676H1.07895C0.76 5.43676 0.600516 5.43676 0.501433 5.33767C0.402344 5.23859 0.402344 5.07911 0.402344 4.76015Z" fill="#B1BBC1"/>
<path fill-rule="evenodd" clip-rule="evenodd" d="M0.402344 10.8497C0.402344 12.1255 0.402344 12.7634 0.798695 13.1598C1.19504 13.5561 1.83295 13.5561 3.10878 13.5561H11.2281C12.5039 13.5561 13.1418 13.5561 13.5382 13.1598C13.9345 12.7634 13.9345 12.1255 13.9345 10.8497V7.46665C13.9345 7.1477 13.9345 6.98822 13.8355 6.8891C13.7364 6.79004 13.5769 6.79004 13.2579 6.79004H1.07895C0.76 6.79004 0.600516 6.79004 0.501433 6.8891C0.402344 6.98822 0.402344 7.1477 0.402344 7.46665V10.8497ZM3.78539 8.81987C3.78539 8.50092 3.78539 8.34144 3.88448 8.24232C3.98357 8.14326 4.14305 8.14326 4.46201 8.14326H5.81523C6.13418 8.14326 6.29366 8.14326 6.39278 8.24232C6.49184 8.34144 6.49184 8.50092 6.49184 8.81987C6.49184 9.13882 6.49184 9.2983 6.39278 9.39742C6.29366 9.49648 6.13418 9.49648 5.81523 9.49648H4.46201C4.14305 9.49648 3.98357 9.49648 3.88448 9.39742C3.78539 9.2983 3.78539 9.13882 3.78539 8.81987ZM3.88448 10.9488C3.78539 11.0479 3.78539 11.2074 3.78539 11.5263C3.78539 11.8453 3.78539 12.0047 3.88448 12.1039C3.98357 12.2029 4.14305 12.2029 4.46201 12.2029H5.81523C6.13418 12.2029 6.29366 12.2029 6.39278 12.1039C6.49184 12.0047 6.49184 11.8453 6.49184 11.5263C6.49184 11.2074 6.49184 11.0479 6.39278 10.9488C6.29366 10.8497 6.13418 10.8497 5.81523 10.8497H4.46201C4.14305 10.8497 3.98357 10.8497 3.88448 10.9488ZM7.84506 8.81987C7.84506 8.50092 7.84506 8.34144 7.94411 8.24232C8.04324 8.14326 8.20271 8.14326 8.52167 8.14326H9.87489C10.1938 8.14326 10.3533 8.14326 10.4524 8.24232C10.5515 8.34144 10.5515 8.50092 10.5515 8.81987C10.5515 9.13882 10.5515 9.2983 10.4524 9.39742C10.3533 9.49648 10.1938 9.49648 9.87489 9.49648H8.52167C8.20271 9.49648 8.04324 9.49648 7.94411 9.39742C7.84506 9.2983 7.84506 9.13882 7.84506 8.81987ZM7.94411 10.9488C7.84506 11.0479 7.84506 11.2074 7.84506 11.5263C7.84506 11.8453 7.84506 12.0047 7.94411 12.1039C8.04324 12.2029 8.20271 12.2029 8.52167 12.2029H9.87489C10.1938 12.2029 10.3533 12.2029 10.4524 12.1039C10.5515 12.0047 10.5515 11.8453 10.5515 11.5263C10.5515 11.2074 10.5515 11.0479 10.4524 10.9488C10.3533 10.8497 10.1938 10.8497 9.87489 10.8497H8.52167C8.20271 10.8497 8.04324 10.8497 7.94411 10.9488Z" fill="#B1BBC1"/>
<path d="M3.78516 0.700195V2.73003" stroke="#B1BBC1" stroke-width="1.35322" stroke-linecap="round"/>
<path d="M10.5518 0.700195V2.73003" stroke="#B1BBC1" stroke-width="1.35322" stroke-linecap="round"/>
</svg>
