<svg width="14" height="14" viewBox="0 0 14 14" fill="none" xmlns="http://www.w3.org/2000/svg">
<path d="M0.445312 4.76015C0.445312 3.48432 0.445312 2.84641 0.841664 2.45006C1.23801 2.05371 1.87592 2.05371 3.15175 2.05371H11.2711C12.5469 2.05371 13.1848 2.05371 13.5812 2.45006C13.9775 2.84641 13.9775 3.48432 13.9775 4.76015C13.9775 5.07911 13.9775 5.23859 13.8785 5.33767C13.7793 5.43676 13.6199 5.43676 13.3009 5.43676H1.12192C0.802969 5.43676 0.643485 5.43676 0.544402 5.33767C0.445313 5.23859 0.445312 5.07911 0.445312 4.76015Z" fill="#B1BBC1"/>
<path fill-rule="evenodd" clip-rule="evenodd" d="M0.445312 10.8497C0.445312 12.1255 0.445312 12.7634 0.841664 13.1598C1.23801 13.5561 1.87592 13.5561 3.15175 13.5561H11.2711C12.5469 13.5561 13.1848 13.5561 13.5812 13.1598C13.9775 12.7634 13.9775 12.1255 13.9775 10.8497V7.46665C13.9775 7.1477 13.9775 6.98822 13.8785 6.8891C13.7793 6.79004 13.6199 6.79004 13.3009 6.79004H1.12192C0.802969 6.79004 0.643485 6.79004 0.544402 6.8891C0.445313 6.98822 0.445312 7.1477 0.445312 7.46665V10.8497ZM3.82836 8.81987C3.82836 8.50092 3.82836 8.34144 3.92745 8.24232C4.02654 8.14326 4.18602 8.14326 4.50497 8.14326H5.85819C6.17715 8.14326 6.33663 8.14326 6.43575 8.24232C6.5348 8.34144 6.5348 8.50092 6.5348 8.81987C6.5348 9.13882 6.5348 9.2983 6.43575 9.39742C6.33663 9.49648 6.17715 9.49648 5.85819 9.49648H4.50497C4.18602 9.49648 4.02654 9.49648 3.92745 9.39742C3.82836 9.2983 3.82836 9.13882 3.82836 8.81987ZM3.92745 10.9488C3.82836 11.0479 3.82836 11.2074 3.82836 11.5263C3.82836 11.8453 3.82836 12.0047 3.92745 12.1039C4.02654 12.2029 4.18602 12.2029 4.50497 12.2029H5.85819C6.17715 12.2029 6.33663 12.2029 6.43575 12.1039C6.5348 12.0047 6.5348 11.8453 6.5348 11.5263C6.5348 11.2074 6.5348 11.0479 6.43575 10.9488C6.33663 10.8497 6.17715 10.8497 5.85819 10.8497H4.50497C4.18602 10.8497 4.02654 10.8497 3.92745 10.9488ZM7.88803 8.81987C7.88803 8.50092 7.88803 8.34144 7.98708 8.24232C8.0862 8.14326 8.24568 8.14326 8.56464 8.14326H9.91786C10.2368 8.14326 10.3963 8.14326 10.4954 8.24232C10.5945 8.34144 10.5945 8.50092 10.5945 8.81987C10.5945 9.13882 10.5945 9.2983 10.4954 9.39742C10.3963 9.49648 10.2368 9.49648 9.91786 9.49648H8.56464C8.24568 9.49648 8.0862 9.49648 7.98708 9.39742C7.88803 9.2983 7.88803 9.13882 7.88803 8.81987ZM7.98708 10.9488C7.88803 11.0479 7.88803 11.2074 7.88803 11.5263C7.88803 11.8453 7.88803 12.0047 7.98708 12.1039C8.0862 12.2029 8.24568 12.2029 8.56464 12.2029H9.91786C10.2368 12.2029 10.3963 12.2029 10.4954 12.1039C10.5945 12.0047 10.5945 11.8453 10.5945 11.5263C10.5945 11.2074 10.5945 11.0479 10.4954 10.9488C10.3963 10.8497 10.2368 10.8497 9.91786 10.8497H8.56464C8.24568 10.8497 8.0862 10.8497 7.98708 10.9488Z" fill="#B1BBC1"/>
<path d="M3.82812 0.700195V2.73003" stroke="#B1BBC1" stroke-width="1.35322" stroke-linecap="round"/>
<path d="M10.5947 0.700195V2.73003" stroke="#B1BBC1" stroke-width="1.35322" stroke-linecap="round"/>
</svg>
