<svg width="14" height="14" viewBox="0 0 14 14" fill="none" xmlns="http://www.w3.org/2000/svg">
<path d="M0.402344 4.79238C0.402344 3.51655 0.402344 2.87863 0.798695 2.48229C1.19504 2.08594 1.83295 2.08594 3.10878 2.08594H11.2281C12.5039 2.08594 13.1418 2.08594 13.5382 2.48229C13.9345 2.87863 13.9345 3.51655 13.9345 4.79238C13.9345 5.11133 13.9345 5.27082 13.8355 5.3699C13.7364 5.46899 13.5769 5.46899 13.2579 5.46899H1.07895C0.76 5.46899 0.600516 5.46899 0.501433 5.3699C0.402344 5.27082 0.402344 5.11133 0.402344 4.79238Z" fill="#B1BBC1"/>
<path fill-rule="evenodd" clip-rule="evenodd" d="M0.402344 10.8819C0.402344 12.1577 0.402344 12.7957 0.798695 13.192C1.19504 13.5884 1.83295 13.5884 3.10878 13.5884H11.2281C12.5039 13.5884 13.1418 13.5884 13.5382 13.192C13.9345 12.7957 13.9345 12.1577 13.9345 10.8819V7.49888C13.9345 7.17992 13.9345 7.02045 13.8355 6.92132C13.7364 6.82227 13.5769 6.82227 13.2579 6.82227H1.07895C0.76 6.82227 0.600516 6.82227 0.501433 6.92132C0.402344 7.02045 0.402344 7.17992 0.402344 7.49888V10.8819ZM3.78539 8.8521C3.78539 8.53314 3.78539 8.37367 3.88448 8.27454C3.98357 8.17549 4.14305 8.17549 4.46201 8.17549H5.81523C6.13418 8.17549 6.29366 8.17549 6.39278 8.27454C6.49184 8.37367 6.49184 8.53314 6.49184 8.8521C6.49184 9.17105 6.49184 9.33053 6.39278 9.42965C6.29366 9.52871 6.13418 9.52871 5.81523 9.52871H4.46201C4.14305 9.52871 3.98357 9.52871 3.88448 9.42965C3.78539 9.33053 3.78539 9.17105 3.78539 8.8521ZM3.88448 10.981C3.78539 11.0801 3.78539 11.2396 3.78539 11.5585C3.78539 11.8775 3.78539 12.037 3.88448 12.1361C3.98357 12.2351 4.14305 12.2351 4.46201 12.2351H5.81523C6.13418 12.2351 6.29366 12.2351 6.39278 12.1361C6.49184 12.037 6.49184 11.8775 6.49184 11.5585C6.49184 11.2396 6.49184 11.0801 6.39278 10.981C6.29366 10.8819 6.13418 10.8819 5.81523 10.8819H4.46201C4.14305 10.8819 3.98357 10.8819 3.88448 10.981ZM7.84506 8.8521C7.84506 8.53314 7.84506 8.37367 7.94411 8.27454C8.04324 8.17549 8.20271 8.17549 8.52167 8.17549H9.87489C10.1938 8.17549 10.3533 8.17549 10.4524 8.27454C10.5515 8.37367 10.5515 8.53314 10.5515 8.8521C10.5515 9.17105 10.5515 9.33053 10.4524 9.42965C10.3533 9.52871 10.1938 9.52871 9.87489 9.52871H8.52167C8.20271 9.52871 8.04324 9.52871 7.94411 9.42965C7.84506 9.33053 7.84506 9.17105 7.84506 8.8521ZM7.94411 10.981C7.84506 11.0801 7.84506 11.2396 7.84506 11.5585C7.84506 11.8775 7.84506 12.037 7.94411 12.1361C8.04324 12.2351 8.20271 12.2351 8.52167 12.2351H9.87489C10.1938 12.2351 10.3533 12.2351 10.4524 12.1361C10.5515 12.037 10.5515 11.8775 10.5515 11.5585C10.5515 11.2396 10.5515 11.0801 10.4524 10.981C10.3533 10.8819 10.1938 10.8819 9.87489 10.8819H8.52167C8.20271 10.8819 8.04324 10.8819 7.94411 10.981Z" fill="#B1BBC1"/>
<path d="M3.78516 0.732422V2.76225" stroke="#B1BBC1" stroke-width="1.35322" stroke-linecap="round"/>
<path d="M10.5518 0.732422V2.76225" stroke="#B1BBC1" stroke-width="1.35322" stroke-linecap="round"/>
</svg>
