<svg width="15" height="14" viewBox="0 0 15 14" fill="none" xmlns="http://www.w3.org/2000/svg">
<path d="M0.989258 4.79238C0.989258 3.51655 0.989258 2.87863 1.38561 2.48229C1.78195 2.08594 2.41987 2.08594 3.6957 2.08594H11.815C13.0908 2.08594 13.7287 2.08594 14.1251 2.48229C14.5215 2.87863 14.5215 3.51655 14.5215 4.79238C14.5215 5.11133 14.5215 5.27082 14.4224 5.3699C14.3233 5.46899 14.1638 5.46899 13.8449 5.46899H1.66587C1.34691 5.46899 1.18743 5.46899 1.08835 5.3699C0.989258 5.27082 0.989258 5.11133 0.989258 4.79238Z" fill="#B1BBC1"/>
<path fill-rule="evenodd" clip-rule="evenodd" d="M0.989258 10.8819C0.989258 12.1577 0.989258 12.7957 1.38561 13.192C1.78195 13.5884 2.41987 13.5884 3.6957 13.5884H11.815C13.0908 13.5884 13.7287 13.5884 14.1251 13.192C14.5215 12.7957 14.5215 12.1577 14.5215 10.8819V7.49888C14.5215 7.17992 14.5215 7.02045 14.4224 6.92132C14.3233 6.82227 14.1638 6.82227 13.8449 6.82227H1.66587C1.34691 6.82227 1.18743 6.82227 1.08835 6.92132C0.989258 7.02045 0.989258 7.17992 0.989258 7.49888V10.8819ZM4.37231 8.8521C4.37231 8.53314 4.37231 8.37367 4.4714 8.27454C4.57048 8.17549 4.72997 8.17549 5.04892 8.17549H6.40214C6.72109 8.17549 6.88057 8.17549 6.97969 8.27454C7.07875 8.37367 7.07875 8.53314 7.07875 8.8521C7.07875 9.17105 7.07875 9.33053 6.97969 9.42965C6.88057 9.52871 6.72109 9.52871 6.40214 9.52871H5.04892C4.72997 9.52871 4.57048 9.52871 4.4714 9.42965C4.37231 9.33053 4.37231 9.17105 4.37231 8.8521ZM4.4714 10.981C4.37231 11.0801 4.37231 11.2396 4.37231 11.5585C4.37231 11.8775 4.37231 12.037 4.4714 12.1361C4.57048 12.2351 4.72997 12.2351 5.04892 12.2351H6.40214C6.72109 12.2351 6.88057 12.2351 6.97969 12.1361C7.07875 12.037 7.07875 11.8775 7.07875 11.5585C7.07875 11.2396 7.07875 11.0801 6.97969 10.981C6.88057 10.8819 6.72109 10.8819 6.40214 10.8819H5.04892C4.72997 10.8819 4.57048 10.8819 4.4714 10.981ZM8.43197 8.8521C8.43197 8.53314 8.43197 8.37367 8.53103 8.27454C8.63015 8.17549 8.78963 8.17549 9.10858 8.17549H10.4618C10.7808 8.17549 10.9402 8.17549 11.0394 8.27454C11.1384 8.37367 11.1384 8.53314 11.1384 8.8521C11.1384 9.17105 11.1384 9.33053 11.0394 9.42965C10.9402 9.52871 10.7808 9.52871 10.4618 9.52871H9.10858C8.78963 9.52871 8.63015 9.52871 8.53103 9.42965C8.43197 9.33053 8.43197 9.17105 8.43197 8.8521ZM8.53103 10.981C8.43197 11.0801 8.43197 11.2396 8.43197 11.5585C8.43197 11.8775 8.43197 12.037 8.53103 12.1361C8.63015 12.2351 8.78963 12.2351 9.10858 12.2351H10.4618C10.7808 12.2351 10.9402 12.2351 11.0394 12.1361C11.1384 12.037 11.1384 11.8775 11.1384 11.5585C11.1384 11.2396 11.1384 11.0801 11.0394 10.981C10.9402 10.8819 10.7808 10.8819 10.4618 10.8819H9.10858C8.78963 10.8819 8.63015 10.8819 8.53103 10.981Z" fill="#B1BBC1"/>
<path d="M4.37305 0.732422V2.76225" stroke="#B1BBC1" stroke-width="1.35322" stroke-linecap="round"/>
<path d="M11.1387 0.732422V2.76225" stroke="#B1BBC1" stroke-width="1.35322" stroke-linecap="round"/>
</svg>
