<svg width="15" height="14" viewBox="0 0 15 14" fill="none" xmlns="http://www.w3.org/2000/svg">
<path d="M0.989258 4.76015C0.989258 3.48432 0.989258 2.84641 1.38561 2.45006C1.78195 2.05371 2.41987 2.05371 3.6957 2.05371H11.815C13.0908 2.05371 13.7287 2.05371 14.1251 2.45006C14.5215 2.84641 14.5215 3.48432 14.5215 4.76015C14.5215 5.07911 14.5215 5.23859 14.4224 5.33767C14.3233 5.43676 14.1638 5.43676 13.8449 5.43676H1.66587C1.34691 5.43676 1.18743 5.43676 1.08835 5.33767C0.989258 5.23859 0.989258 5.07911 0.989258 4.76015Z" fill="#B1BBC1"/>
<path fill-rule="evenodd" clip-rule="evenodd" d="M0.989258 10.8497C0.989258 12.1255 0.989258 12.7634 1.38561 13.1598C1.78195 13.5561 2.41987 13.5561 3.6957 13.5561H11.815C13.0908 13.5561 13.7287 13.5561 14.1251 13.1598C14.5215 12.7634 14.5215 12.1255 14.5215 10.8497V7.46665C14.5215 7.1477 14.5215 6.98822 14.4224 6.8891C14.3233 6.79004 14.1638 6.79004 13.8449 6.79004H1.66587C1.34691 6.79004 1.18743 6.79004 1.08835 6.8891C0.989258 6.98822 0.989258 7.1477 0.989258 7.46665V10.8497ZM4.37231 8.81987C4.37231 8.50092 4.37231 8.34144 4.4714 8.24232C4.57048 8.14326 4.72997 8.14326 5.04892 8.14326H6.40214C6.72109 8.14326 6.88057 8.14326 6.97969 8.24232C7.07875 8.34144 7.07875 8.50092 7.07875 8.81987C7.07875 9.13882 7.07875 9.2983 6.97969 9.39742C6.88057 9.49648 6.72109 9.49648 6.40214 9.49648H5.04892C4.72997 9.49648 4.57048 9.49648 4.4714 9.39742C4.37231 9.2983 4.37231 9.13882 4.37231 8.81987ZM4.4714 10.9488C4.37231 11.0479 4.37231 11.2074 4.37231 11.5263C4.37231 11.8453 4.37231 12.0047 4.4714 12.1039C4.57048 12.2029 4.72997 12.2029 5.04892 12.2029H6.40214C6.72109 12.2029 6.88057 12.2029 6.97969 12.1039C7.07875 12.0047 7.07875 11.8453 7.07875 11.5263C7.07875 11.2074 7.07875 11.0479 6.97969 10.9488C6.88057 10.8497 6.72109 10.8497 6.40214 10.8497H5.04892C4.72997 10.8497 4.57048 10.8497 4.4714 10.9488ZM8.43197 8.81987C8.43197 8.50092 8.43197 8.34144 8.53103 8.24232C8.63015 8.14326 8.78963 8.14326 9.10858 8.14326H10.4618C10.7808 8.14326 10.9402 8.14326 11.0394 8.24232C11.1384 8.34144 11.1384 8.50092 11.1384 8.81987C11.1384 9.13882 11.1384 9.2983 11.0394 9.39742C10.9402 9.49648 10.7808 9.49648 10.4618 9.49648H9.10858C8.78963 9.49648 8.63015 9.49648 8.53103 9.39742C8.43197 9.2983 8.43197 9.13882 8.43197 8.81987ZM8.53103 10.9488C8.43197 11.0479 8.43197 11.2074 8.43197 11.5263C8.43197 11.8453 8.43197 12.0047 8.53103 12.1039C8.63015 12.2029 8.78963 12.2029 9.10858 12.2029H10.4618C10.7808 12.2029 10.9402 12.2029 11.0394 12.1039C11.1384 12.0047 11.1384 11.8453 11.1384 11.5263C11.1384 11.2074 11.1384 11.0479 11.0394 10.9488C10.9402 10.8497 10.7808 10.8497 10.4618 10.8497H9.10858C8.78963 10.8497 8.63015 10.8497 8.53103 10.9488Z" fill="#B1BBC1"/>
<path d="M4.37305 0.700195V2.73003" stroke="#B1BBC1" stroke-width="1.35322" stroke-linecap="round"/>
<path d="M11.1387 0.700195V2.73003" stroke="#B1BBC1" stroke-width="1.35322" stroke-linecap="round"/>
</svg>
