<svg width="14" height="14" viewBox="0 0 14 14" fill="none" xmlns="http://www.w3.org/2000/svg">
<path d="M0.3125 4.76015C0.3125 3.48432 0.3125 2.84641 0.708851 2.45006C1.1052 2.05371 1.74311 2.05371 3.01894 2.05371H11.1383C12.4141 2.05371 13.052 2.05371 13.4483 2.45006C13.8447 2.84641 13.8447 3.48432 13.8447 4.76015C13.8447 5.07911 13.8447 5.23859 13.7456 5.33767C13.6465 5.43676 13.487 5.43676 13.1681 5.43676H0.98911C0.670156 5.43676 0.510672 5.43676 0.41159 5.33767C0.3125 5.23859 0.3125 5.07911 0.3125 4.76015Z" fill="#B1BBC1"/>
<path fill-rule="evenodd" clip-rule="evenodd" d="M0.3125 10.8497C0.3125 12.1255 0.3125 12.7634 0.708851 13.1598C1.1052 13.5561 1.74311 13.5561 3.01894 13.5561H11.1383C12.4141 13.5561 13.052 13.5561 13.4483 13.1598C13.8447 12.7634 13.8447 12.1255 13.8447 10.8497V7.46665C13.8447 7.1477 13.8447 6.98822 13.7456 6.8891C13.6465 6.79004 13.487 6.79004 13.1681 6.79004H0.98911C0.670156 6.79004 0.510672 6.79004 0.41159 6.8891C0.3125 6.98822 0.3125 7.1477 0.3125 7.46665V10.8497ZM3.69555 8.81987C3.69555 8.50092 3.69555 8.34144 3.79464 8.24232C3.89372 8.14326 4.05321 8.14326 4.37216 8.14326H5.72538C6.04434 8.14326 6.20381 8.14326 6.30294 8.24232C6.40199 8.34144 6.40199 8.50092 6.40199 8.81987C6.40199 9.13882 6.40199 9.2983 6.30294 9.39742C6.20381 9.49648 6.04434 9.49648 5.72538 9.49648H4.37216C4.05321 9.49648 3.89372 9.49648 3.79464 9.39742C3.69555 9.2983 3.69555 9.13882 3.69555 8.81987ZM3.79464 10.9488C3.69555 11.0479 3.69555 11.2074 3.69555 11.5263C3.69555 11.8453 3.69555 12.0047 3.79464 12.1039C3.89372 12.2029 4.05321 12.2029 4.37216 12.2029H5.72538C6.04434 12.2029 6.20381 12.2029 6.30294 12.1039C6.40199 12.0047 6.40199 11.8453 6.40199 11.5263C6.40199 11.2074 6.40199 11.0479 6.30294 10.9488C6.20381 10.8497 6.04434 10.8497 5.72538 10.8497H4.37216C4.05321 10.8497 3.89372 10.8497 3.79464 10.9488ZM7.75521 8.81987C7.75521 8.50092 7.75521 8.34144 7.85427 8.24232C7.95339 8.14326 8.11287 8.14326 8.43182 8.14326H9.78504C10.104 8.14326 10.2635 8.14326 10.3626 8.24232C10.4617 8.34144 10.4617 8.50092 10.4617 8.81987C10.4617 9.13882 10.4617 9.2983 10.3626 9.39742C10.2635 9.49648 10.104 9.49648 9.78504 9.49648H8.43182C8.11287 9.49648 7.95339 9.49648 7.85427 9.39742C7.75521 9.2983 7.75521 9.13882 7.75521 8.81987ZM7.85427 10.9488C7.75521 11.0479 7.75521 11.2074 7.75521 11.5263C7.75521 11.8453 7.75521 12.0047 7.85427 12.1039C7.95339 12.2029 8.11287 12.2029 8.43182 12.2029H9.78504C10.104 12.2029 10.2635 12.2029 10.3626 12.1039C10.4617 12.0047 10.4617 11.8453 10.4617 11.5263C10.4617 11.2074 10.4617 11.0479 10.3626 10.9488C10.2635 10.8497 10.104 10.8497 9.78504 10.8497H8.43182C8.11287 10.8497 7.95339 10.8497 7.85427 10.9488Z" fill="#B1BBC1"/>
<path d="M3.69629 0.700195V2.73003" stroke="#B1BBC1" stroke-width="1.35322" stroke-linecap="round"/>
<path d="M10.4619 0.700195V2.73003" stroke="#B1BBC1" stroke-width="1.35322" stroke-linecap="round"/>
</svg>
