<svg width="14" height="14" viewBox="0 0 14 14" fill="none" xmlns="http://www.w3.org/2000/svg">
<path d="M0.366211 4.76015C0.366211 3.48432 0.366211 2.84641 0.762562 2.45006C1.15891 2.05371 1.79682 2.05371 3.07265 2.05371H11.192C12.4678 2.05371 13.1057 2.05371 13.5021 2.45006C13.8984 2.84641 13.8984 3.48432 13.8984 4.76015C13.8984 5.07911 13.8984 5.23859 13.7994 5.33767C13.7002 5.43676 13.5408 5.43676 13.2218 5.43676H1.04282C0.723867 5.43676 0.564383 5.43676 0.465301 5.33767C0.366211 5.23859 0.366211 5.07911 0.366211 4.76015Z" fill="#B1BBC1"/>
<path fill-rule="evenodd" clip-rule="evenodd" d="M0.366211 10.8497C0.366211 12.1255 0.366211 12.7634 0.762562 13.1598C1.15891 13.5561 1.79682 13.5561 3.07265 13.5561H11.192C12.4678 13.5561 13.1057 13.5561 13.5021 13.1598C13.8984 12.7634 13.8984 12.1255 13.8984 10.8497V7.46665C13.8984 7.1477 13.8984 6.98822 13.7994 6.8891C13.7002 6.79004 13.5408 6.79004 13.2218 6.79004H1.04282C0.723867 6.79004 0.564383 6.79004 0.465301 6.8891C0.366211 6.98822 0.366211 7.1477 0.366211 7.46665V10.8497ZM3.74926 8.81987C3.74926 8.50092 3.74926 8.34144 3.84835 8.24232C3.94743 8.14326 4.10692 8.14326 4.42587 8.14326H5.77909C6.09805 8.14326 6.25752 8.14326 6.35665 8.24232C6.4557 8.34144 6.4557 8.50092 6.4557 8.81987C6.4557 9.13882 6.4557 9.2983 6.35665 9.39742C6.25752 9.49648 6.09805 9.49648 5.77909 9.49648H4.42587C4.10692 9.49648 3.94743 9.49648 3.84835 9.39742C3.74926 9.2983 3.74926 9.13882 3.74926 8.81987ZM3.84835 10.9488C3.74926 11.0479 3.74926 11.2074 3.74926 11.5263C3.74926 11.8453 3.74926 12.0047 3.84835 12.1039C3.94743 12.2029 4.10692 12.2029 4.42587 12.2029H5.77909C6.09805 12.2029 6.25752 12.2029 6.35665 12.1039C6.4557 12.0047 6.4557 11.8453 6.4557 11.5263C6.4557 11.2074 6.4557 11.0479 6.35665 10.9488C6.25752 10.8497 6.09805 10.8497 5.77909 10.8497H4.42587C4.10692 10.8497 3.94743 10.8497 3.84835 10.9488ZM7.80892 8.81987C7.80892 8.50092 7.80892 8.34144 7.90798 8.24232C8.0071 8.14326 8.16658 8.14326 8.48553 8.14326H9.83875C10.1577 8.14326 10.3172 8.14326 10.4163 8.24232C10.5154 8.34144 10.5154 8.50092 10.5154 8.81987C10.5154 9.13882 10.5154 9.2983 10.4163 9.39742C10.3172 9.49648 10.1577 9.49648 9.83875 9.49648H8.48553C8.16658 9.49648 8.0071 9.49648 7.90798 9.39742C7.80892 9.2983 7.80892 9.13882 7.80892 8.81987ZM7.90798 10.9488C7.80892 11.0479 7.80892 11.2074 7.80892 11.5263C7.80892 11.8453 7.80892 12.0047 7.90798 12.1039C8.0071 12.2029 8.16658 12.2029 8.48553 12.2029H9.83875C10.1577 12.2029 10.3172 12.2029 10.4163 12.1039C10.5154 12.0047 10.5154 11.8453 10.5154 11.5263C10.5154 11.2074 10.5154 11.0479 10.4163 10.9488C10.3172 10.8497 10.1577 10.8497 9.83875 10.8497H8.48553C8.16658 10.8497 8.0071 10.8497 7.90798 10.9488Z" fill="#B1BBC1"/>
<path d="M3.75 0.700195V2.73003" stroke="#B1BBC1" stroke-width="1.35322" stroke-linecap="round"/>
<path d="M10.5146 0.700195V2.73003" stroke="#B1BBC1" stroke-width="1.35322" stroke-linecap="round"/>
</svg>
