<svg width="15" height="14" viewBox="0 0 15 14" fill="none" xmlns="http://www.w3.org/2000/svg">
<path d="M0.780273 4.76015C0.780273 3.48432 0.780273 2.84641 1.17662 2.45006C1.57297 2.05371 2.21088 2.05371 3.48671 2.05371H11.606C12.8819 2.05371 13.5198 2.05371 13.9161 2.45006C14.3125 2.84641 14.3125 3.48432 14.3125 4.76015C14.3125 5.07911 14.3125 5.23859 14.2134 5.33767C14.1143 5.43676 13.9548 5.43676 13.6359 5.43676H1.45688C1.13793 5.43676 0.978446 5.43676 0.879363 5.33767C0.780273 5.23859 0.780273 5.07911 0.780273 4.76015Z" fill="#B1BBC1"/>
<path fill-rule="evenodd" clip-rule="evenodd" d="M0.780273 10.8497C0.780273 12.1255 0.780273 12.7634 1.17662 13.1598C1.57297 13.5561 2.21088 13.5561 3.48671 13.5561H11.606C12.8819 13.5561 13.5198 13.5561 13.9161 13.1598C14.3125 12.7634 14.3125 12.1255 14.3125 10.8497V7.46665C14.3125 7.1477 14.3125 6.98822 14.2134 6.8891C14.1143 6.79004 13.9548 6.79004 13.6359 6.79004H1.45688C1.13793 6.79004 0.978446 6.79004 0.879363 6.8891C0.780273 6.98822 0.780273 7.1477 0.780273 7.46665V10.8497ZM4.16332 8.81987C4.16332 8.50092 4.16332 8.34144 4.26241 8.24232C4.3615 8.14326 4.52098 8.14326 4.83993 8.14326H6.19316C6.51211 8.14326 6.67159 8.14326 6.77071 8.24232C6.86977 8.34144 6.86977 8.50092 6.86977 8.81987C6.86977 9.13882 6.86977 9.2983 6.77071 9.39742C6.67159 9.49648 6.51211 9.49648 6.19316 9.49648H4.83993C4.52098 9.49648 4.3615 9.49648 4.26241 9.39742C4.16332 9.2983 4.16332 9.13882 4.16332 8.81987ZM4.26241 10.9488C4.16332 11.0479 4.16332 11.2074 4.16332 11.5263C4.16332 11.8453 4.16332 12.0047 4.26241 12.1039C4.3615 12.2029 4.52098 12.2029 4.83993 12.2029H6.19316C6.51211 12.2029 6.67159 12.2029 6.77071 12.1039C6.86977 12.0047 6.86977 11.8453 6.86977 11.5263C6.86977 11.2074 6.86977 11.0479 6.77071 10.9488C6.67159 10.8497 6.51211 10.8497 6.19316 10.8497H4.83993C4.52098 10.8497 4.3615 10.8497 4.26241 10.9488ZM8.22299 8.81987C8.22299 8.50092 8.22299 8.34144 8.32204 8.24232C8.42117 8.14326 8.58064 8.14326 8.8996 8.14326H10.2528C10.5718 8.14326 10.7312 8.14326 10.8304 8.24232C10.9294 8.34144 10.9294 8.50092 10.9294 8.81987C10.9294 9.13882 10.9294 9.2983 10.8304 9.39742C10.7312 9.49648 10.5718 9.49648 10.2528 9.49648H8.8996C8.58064 9.49648 8.42117 9.49648 8.32204 9.39742C8.22299 9.2983 8.22299 9.13882 8.22299 8.81987ZM8.32204 10.9488C8.22299 11.0479 8.22299 11.2074 8.22299 11.5263C8.22299 11.8453 8.22299 12.0047 8.32204 12.1039C8.42117 12.2029 8.58064 12.2029 8.8996 12.2029H10.2528C10.5718 12.2029 10.7312 12.2029 10.8304 12.1039C10.9294 12.0047 10.9294 11.8453 10.9294 11.5263C10.9294 11.2074 10.9294 11.0479 10.8304 10.9488C10.7312 10.8497 10.5718 10.8497 10.2528 10.8497H8.8996C8.58064 10.8497 8.42117 10.8497 8.32204 10.9488Z" fill="#B1BBC1"/>
<path d="M4.16309 0.700195V2.73003" stroke="#B1BBC1" stroke-width="1.35322" stroke-linecap="round"/>
<path d="M10.9297 0.700195V2.73003" stroke="#B1BBC1" stroke-width="1.35322" stroke-linecap="round"/>
</svg>
