<svg width="15" height="14" viewBox="0 0 15 14" fill="none" xmlns="http://www.w3.org/2000/svg">
<path d="M0.689453 4.76015C0.689453 3.48432 0.689453 2.84641 1.0858 2.45006C1.48215 2.05371 2.12006 2.05371 3.39589 2.05371H11.5152C12.791 2.05371 13.4289 2.05371 13.8253 2.45006C14.2217 2.84641 14.2217 3.48432 14.2217 4.76015C14.2217 5.07911 14.2217 5.23859 14.1226 5.33767C14.0235 5.43676 13.864 5.43676 13.545 5.43676H1.36606C1.04711 5.43676 0.887626 5.43676 0.788543 5.33767C0.689453 5.23859 0.689453 5.07911 0.689453 4.76015Z" fill="#B1BBC1"/>
<path fill-rule="evenodd" clip-rule="evenodd" d="M0.689453 10.8497C0.689453 12.1255 0.689453 12.7634 1.0858 13.1598C1.48215 13.5561 2.12006 13.5561 3.39589 13.5561H11.5152C12.791 13.5561 13.4289 13.5561 13.8253 13.1598C14.2217 12.7634 14.2217 12.1255 14.2217 10.8497V7.46665C14.2217 7.1477 14.2217 6.98822 14.1226 6.8891C14.0235 6.79004 13.864 6.79004 13.545 6.79004H1.36606C1.04711 6.79004 0.887626 6.79004 0.788543 6.8891C0.689453 6.98822 0.689453 7.1477 0.689453 7.46665V10.8497ZM4.0725 8.81987C4.0725 8.50092 4.0725 8.34144 4.17159 8.24232C4.27068 8.14326 4.43016 8.14326 4.74911 8.14326H6.10233C6.42129 8.14326 6.58077 8.14326 6.67989 8.24232C6.77894 8.34144 6.77894 8.50092 6.77894 8.81987C6.77894 9.13882 6.77894 9.2983 6.67989 9.39742C6.58077 9.49648 6.42129 9.49648 6.10233 9.49648H4.74911C4.43016 9.49648 4.27068 9.49648 4.17159 9.39742C4.0725 9.2983 4.0725 9.13882 4.0725 8.81987ZM4.17159 10.9488C4.0725 11.0479 4.0725 11.2074 4.0725 11.5263C4.0725 11.8453 4.0725 12.0047 4.17159 12.1039C4.27068 12.2029 4.43016 12.2029 4.74911 12.2029H6.10233C6.42129 12.2029 6.58077 12.2029 6.67989 12.1039C6.77894 12.0047 6.77894 11.8453 6.77894 11.5263C6.77894 11.2074 6.77894 11.0479 6.67989 10.9488C6.58077 10.8497 6.42129 10.8497 6.10233 10.8497H4.74911C4.43016 10.8497 4.27068 10.8497 4.17159 10.9488ZM8.13217 8.81987C8.13217 8.50092 8.13217 8.34144 8.23122 8.24232C8.33035 8.14326 8.48982 8.14326 8.80878 8.14326H10.162C10.481 8.14326 10.6404 8.14326 10.7396 8.24232C10.8386 8.34144 10.8386 8.50092 10.8386 8.81987C10.8386 9.13882 10.8386 9.2983 10.7396 9.39742C10.6404 9.49648 10.481 9.49648 10.162 9.49648H8.80878C8.48982 9.49648 8.33035 9.49648 8.23122 9.39742C8.13217 9.2983 8.13217 9.13882 8.13217 8.81987ZM8.23122 10.9488C8.13217 11.0479 8.13217 11.2074 8.13217 11.5263C8.13217 11.8453 8.13217 12.0047 8.23122 12.1039C8.33035 12.2029 8.48982 12.2029 8.80878 12.2029H10.162C10.481 12.2029 10.6404 12.2029 10.7396 12.1039C10.8386 12.0047 10.8386 11.8453 10.8386 11.5263C10.8386 11.2074 10.8386 11.0479 10.7396 10.9488C10.6404 10.8497 10.481 10.8497 10.162 10.8497H8.80878C8.48982 10.8497 8.33035 10.8497 8.23122 10.9488Z" fill="#B1BBC1"/>
<path d="M4.07227 0.700195V2.73003" stroke="#B1BBC1" stroke-width="1.35322" stroke-linecap="round"/>
<path d="M10.8389 0.700195V2.73003" stroke="#B1BBC1" stroke-width="1.35322" stroke-linecap="round"/>
</svg>
