<svg width="14" height="14" viewBox="0 0 14 14" fill="none" xmlns="http://www.w3.org/2000/svg">
<path d="M0.3125 4.79238C0.3125 3.51655 0.3125 2.87863 0.708851 2.48229C1.1052 2.08594 1.74311 2.08594 3.01894 2.08594H11.1383C12.4141 2.08594 13.052 2.08594 13.4483 2.48229C13.8447 2.87863 13.8447 3.51655 13.8447 4.79238C13.8447 5.11133 13.8447 5.27082 13.7456 5.3699C13.6465 5.46899 13.487 5.46899 13.1681 5.46899H0.98911C0.670156 5.46899 0.510672 5.46899 0.41159 5.3699C0.3125 5.27082 0.3125 5.11133 0.3125 4.79238Z" fill="#B1BBC1"/>
<path fill-rule="evenodd" clip-rule="evenodd" d="M0.3125 10.8819C0.3125 12.1577 0.3125 12.7957 0.708851 13.192C1.1052 13.5884 1.74311 13.5884 3.01894 13.5884H11.1383C12.4141 13.5884 13.052 13.5884 13.4483 13.192C13.8447 12.7957 13.8447 12.1577 13.8447 10.8819V7.49888C13.8447 7.17992 13.8447 7.02045 13.7456 6.92132C13.6465 6.82227 13.487 6.82227 13.1681 6.82227H0.98911C0.670156 6.82227 0.510672 6.82227 0.41159 6.92132C0.3125 7.02045 0.3125 7.17992 0.3125 7.49888V10.8819ZM3.69555 8.8521C3.69555 8.53314 3.69555 8.37367 3.79464 8.27454C3.89372 8.17549 4.05321 8.17549 4.37216 8.17549H5.72538C6.04434 8.17549 6.20381 8.17549 6.30294 8.27454C6.40199 8.37367 6.40199 8.53314 6.40199 8.8521C6.40199 9.17105 6.40199 9.33053 6.30294 9.42965C6.20381 9.52871 6.04434 9.52871 5.72538 9.52871H4.37216C4.05321 9.52871 3.89372 9.52871 3.79464 9.42965C3.69555 9.33053 3.69555 9.17105 3.69555 8.8521ZM3.79464 10.981C3.69555 11.0801 3.69555 11.2396 3.69555 11.5585C3.69555 11.8775 3.69555 12.037 3.79464 12.1361C3.89372 12.2351 4.05321 12.2351 4.37216 12.2351H5.72538C6.04434 12.2351 6.20381 12.2351 6.30294 12.1361C6.40199 12.037 6.40199 11.8775 6.40199 11.5585C6.40199 11.2396 6.40199 11.0801 6.30294 10.981C6.20381 10.8819 6.04434 10.8819 5.72538 10.8819H4.37216C4.05321 10.8819 3.89372 10.8819 3.79464 10.981ZM7.75521 8.8521C7.75521 8.53314 7.75521 8.37367 7.85427 8.27454C7.95339 8.17549 8.11287 8.17549 8.43182 8.17549H9.78504C10.104 8.17549 10.2635 8.17549 10.3626 8.27454C10.4617 8.37367 10.4617 8.53314 10.4617 8.8521C10.4617 9.17105 10.4617 9.33053 10.3626 9.42965C10.2635 9.52871 10.104 9.52871 9.78504 9.52871H8.43182C8.11287 9.52871 7.95339 9.52871 7.85427 9.42965C7.75521 9.33053 7.75521 9.17105 7.75521 8.8521ZM7.85427 10.981C7.75521 11.0801 7.75521 11.2396 7.75521 11.5585C7.75521 11.8775 7.75521 12.037 7.85427 12.1361C7.95339 12.2351 8.11287 12.2351 8.43182 12.2351H9.78504C10.104 12.2351 10.2635 12.2351 10.3626 12.1361C10.4617 12.037 10.4617 11.8775 10.4617 11.5585C10.4617 11.2396 10.4617 11.0801 10.3626 10.981C10.2635 10.8819 10.104 10.8819 9.78504 10.8819H8.43182C8.11287 10.8819 7.95339 10.8819 7.85427 10.981Z" fill="#B1BBC1"/>
<path d="M3.69629 0.732422V2.76225" stroke="#B1BBC1" stroke-width="1.35322" stroke-linecap="round"/>
<path d="M10.4619 0.732422V2.76225" stroke="#B1BBC1" stroke-width="1.35322" stroke-linecap="round"/>
</svg>
