<svg width="14" height="14" viewBox="0 0 14 14" fill="none" xmlns="http://www.w3.org/2000/svg">
<path d="M0.445312 4.79238C0.445312 3.51655 0.445312 2.87863 0.841664 2.48229C1.23801 2.08594 1.87592 2.08594 3.15175 2.08594H11.2711C12.5469 2.08594 13.1848 2.08594 13.5812 2.48229C13.9775 2.87863 13.9775 3.51655 13.9775 4.79238C13.9775 5.11133 13.9775 5.27082 13.8785 5.3699C13.7793 5.46899 13.6199 5.46899 13.3009 5.46899H1.12192C0.802969 5.46899 0.643485 5.46899 0.544402 5.3699C0.445313 5.27082 0.445312 5.11133 0.445312 4.79238Z" fill="#B1BBC1"/>
<path fill-rule="evenodd" clip-rule="evenodd" d="M0.445312 10.8819C0.445312 12.1577 0.445312 12.7957 0.841664 13.192C1.23801 13.5884 1.87592 13.5884 3.15175 13.5884H11.2711C12.5469 13.5884 13.1848 13.5884 13.5812 13.192C13.9775 12.7957 13.9775 12.1577 13.9775 10.8819V7.49888C13.9775 7.17992 13.9775 7.02045 13.8785 6.92132C13.7793 6.82227 13.6199 6.82227 13.3009 6.82227H1.12192C0.802969 6.82227 0.643485 6.82227 0.544402 6.92132C0.445313 7.02045 0.445312 7.17992 0.445312 7.49888V10.8819ZM3.82836 8.8521C3.82836 8.53314 3.82836 8.37367 3.92745 8.27454C4.02654 8.17549 4.18602 8.17549 4.50497 8.17549H5.85819C6.17715 8.17549 6.33663 8.17549 6.43575 8.27454C6.5348 8.37367 6.5348 8.53314 6.5348 8.8521C6.5348 9.17105 6.5348 9.33053 6.43575 9.42965C6.33663 9.52871 6.17715 9.52871 5.85819 9.52871H4.50497C4.18602 9.52871 4.02654 9.52871 3.92745 9.42965C3.82836 9.33053 3.82836 9.17105 3.82836 8.8521ZM3.92745 10.981C3.82836 11.0801 3.82836 11.2396 3.82836 11.5585C3.82836 11.8775 3.82836 12.037 3.92745 12.1361C4.02654 12.2351 4.18602 12.2351 4.50497 12.2351H5.85819C6.17715 12.2351 6.33663 12.2351 6.43575 12.1361C6.5348 12.037 6.5348 11.8775 6.5348 11.5585C6.5348 11.2396 6.5348 11.0801 6.43575 10.981C6.33663 10.8819 6.17715 10.8819 5.85819 10.8819H4.50497C4.18602 10.8819 4.02654 10.8819 3.92745 10.981ZM7.88803 8.8521C7.88803 8.53314 7.88803 8.37367 7.98708 8.27454C8.0862 8.17549 8.24568 8.17549 8.56464 8.17549H9.91786C10.2368 8.17549 10.3963 8.17549 10.4954 8.27454C10.5945 8.37367 10.5945 8.53314 10.5945 8.8521C10.5945 9.17105 10.5945 9.33053 10.4954 9.42965C10.3963 9.52871 10.2368 9.52871 9.91786 9.52871H8.56464C8.24568 9.52871 8.0862 9.52871 7.98708 9.42965C7.88803 9.33053 7.88803 9.17105 7.88803 8.8521ZM7.98708 10.981C7.88803 11.0801 7.88803 11.2396 7.88803 11.5585C7.88803 11.8775 7.88803 12.037 7.98708 12.1361C8.0862 12.2351 8.24568 12.2351 8.56464 12.2351H9.91786C10.2368 12.2351 10.3963 12.2351 10.4954 12.1361C10.5945 12.037 10.5945 11.8775 10.5945 11.5585C10.5945 11.2396 10.5945 11.0801 10.4954 10.981C10.3963 10.8819 10.2368 10.8819 9.91786 10.8819H8.56464C8.24568 10.8819 8.0862 10.8819 7.98708 10.981Z" fill="#B1BBC1"/>
<path d="M3.82812 0.732422V2.76225" stroke="#B1BBC1" stroke-width="1.35322" stroke-linecap="round"/>
<path d="M10.5947 0.732422V2.76225" stroke="#B1BBC1" stroke-width="1.35322" stroke-linecap="round"/>
</svg>
