<svg width="15" height="14" viewBox="0 0 15 14" fill="none" xmlns="http://www.w3.org/2000/svg">
<path d="M0.689453 4.79238C0.689453 3.51655 0.689453 2.87863 1.0858 2.48229C1.48215 2.08594 2.12006 2.08594 3.39589 2.08594H11.5152C12.791 2.08594 13.4289 2.08594 13.8253 2.48229C14.2217 2.87863 14.2217 3.51655 14.2217 4.79238C14.2217 5.11133 14.2217 5.27082 14.1226 5.3699C14.0235 5.46899 13.864 5.46899 13.545 5.46899H1.36606C1.04711 5.46899 0.887626 5.46899 0.788543 5.3699C0.689453 5.27082 0.689453 5.11133 0.689453 4.79238Z" fill="#B1BBC1"/>
<path fill-rule="evenodd" clip-rule="evenodd" d="M0.689453 10.8819C0.689453 12.1577 0.689453 12.7957 1.0858 13.192C1.48215 13.5884 2.12006 13.5884 3.39589 13.5884H11.5152C12.791 13.5884 13.4289 13.5884 13.8253 13.192C14.2217 12.7957 14.2217 12.1577 14.2217 10.8819V7.49888C14.2217 7.17992 14.2217 7.02045 14.1226 6.92132C14.0235 6.82227 13.864 6.82227 13.545 6.82227H1.36606C1.04711 6.82227 0.887626 6.82227 0.788543 6.92132C0.689453 7.02045 0.689453 7.17992 0.689453 7.49888V10.8819ZM4.0725 8.8521C4.0725 8.53314 4.0725 8.37367 4.17159 8.27454C4.27068 8.17549 4.43016 8.17549 4.74911 8.17549H6.10233C6.42129 8.17549 6.58077 8.17549 6.67989 8.27454C6.77894 8.37367 6.77894 8.53314 6.77894 8.8521C6.77894 9.17105 6.77894 9.33053 6.67989 9.42965C6.58077 9.52871 6.42129 9.52871 6.10233 9.52871H4.74911C4.43016 9.52871 4.27068 9.52871 4.17159 9.42965C4.0725 9.33053 4.0725 9.17105 4.0725 8.8521ZM4.17159 10.981C4.0725 11.0801 4.0725 11.2396 4.0725 11.5585C4.0725 11.8775 4.0725 12.037 4.17159 12.1361C4.27068 12.2351 4.43016 12.2351 4.74911 12.2351H6.10233C6.42129 12.2351 6.58077 12.2351 6.67989 12.1361C6.77894 12.037 6.77894 11.8775 6.77894 11.5585C6.77894 11.2396 6.77894 11.0801 6.67989 10.981C6.58077 10.8819 6.42129 10.8819 6.10233 10.8819H4.74911C4.43016 10.8819 4.27068 10.8819 4.17159 10.981ZM8.13217 8.8521C8.13217 8.53314 8.13217 8.37367 8.23122 8.27454C8.33035 8.17549 8.48982 8.17549 8.80878 8.17549H10.162C10.481 8.17549 10.6404 8.17549 10.7396 8.27454C10.8386 8.37367 10.8386 8.53314 10.8386 8.8521C10.8386 9.17105 10.8386 9.33053 10.7396 9.42965C10.6404 9.52871 10.481 9.52871 10.162 9.52871H8.80878C8.48982 9.52871 8.33035 9.52871 8.23122 9.42965C8.13217 9.33053 8.13217 9.17105 8.13217 8.8521ZM8.23122 10.981C8.13217 11.0801 8.13217 11.2396 8.13217 11.5585C8.13217 11.8775 8.13217 12.037 8.23122 12.1361C8.33035 12.2351 8.48982 12.2351 8.80878 12.2351H10.162C10.481 12.2351 10.6404 12.2351 10.7396 12.1361C10.8386 12.037 10.8386 11.8775 10.8386 11.5585C10.8386 11.2396 10.8386 11.0801 10.7396 10.981C10.6404 10.8819 10.481 10.8819 10.162 10.8819H8.80878C8.48982 10.8819 8.33035 10.8819 8.23122 10.981Z" fill="#B1BBC1"/>
<path d="M4.07227 0.732422V2.76225" stroke="#B1BBC1" stroke-width="1.35322" stroke-linecap="round"/>
<path d="M10.8389 0.732422V2.76225" stroke="#B1BBC1" stroke-width="1.35322" stroke-linecap="round"/>
</svg>
