<svg width="14" height="14" viewBox="0 0 14 14" fill="none" xmlns="http://www.w3.org/2000/svg">
<path d="M0.0673828 4.79287C0.0673828 3.51704 0.0673828 2.87912 0.463734 2.48278C0.860079 2.08643 1.49799 2.08643 2.77382 2.08643H10.8931C12.169 2.08643 12.8069 2.08643 13.2032 2.48278C13.5996 2.87912 13.5996 3.51704 13.5996 4.79287C13.5996 5.11182 13.5996 5.2713 13.5005 5.37039C13.4014 5.46948 13.2419 5.46948 12.923 5.46948H0.743993C0.425039 5.46948 0.265555 5.46948 0.166472 5.37039C0.0673828 5.2713 0.0673828 5.11182 0.0673828 4.79287Z" fill="#B1BBC1"/>
<path fill-rule="evenodd" clip-rule="evenodd" d="M0.0673828 10.8824C0.0673828 12.1582 0.0673828 12.7961 0.463734 13.1925C0.860079 13.5889 1.49799 13.5889 2.77382 13.5889H10.8931C12.169 13.5889 12.8069 13.5889 13.2032 13.1925C13.5996 12.7961 13.5996 12.1582 13.5996 10.8824V7.49936C13.5996 7.18041 13.5996 7.02093 13.5005 6.92181C13.4014 6.82275 13.2419 6.82275 12.923 6.82275H0.743993C0.425039 6.82275 0.265555 6.82275 0.166472 6.92181C0.0673828 7.02093 0.0673828 7.18041 0.0673828 7.49936V10.8824ZM3.45043 8.85258C3.45043 8.53363 3.45043 8.37415 3.54952 8.27503C3.64861 8.17597 3.80809 8.17597 4.12704 8.17597H5.48026C5.79922 8.17597 5.9587 8.17597 6.05782 8.27503C6.15687 8.37415 6.15687 8.53363 6.15687 8.85258C6.15687 9.17154 6.15687 9.33102 6.05782 9.43014C5.9587 9.52919 5.79922 9.52919 5.48026 9.52919H4.12704C3.80809 9.52919 3.64861 9.52919 3.54952 9.43014C3.45043 9.33102 3.45043 9.17154 3.45043 8.85258ZM3.54952 10.9815C3.45043 11.0806 3.45043 11.2401 3.45043 11.559C3.45043 11.878 3.45043 12.0375 3.54952 12.1366C3.64861 12.2356 3.80809 12.2356 4.12704 12.2356H5.48026C5.79922 12.2356 5.9587 12.2356 6.05782 12.1366C6.15687 12.0375 6.15687 11.878 6.15687 11.559C6.15687 11.2401 6.15687 11.0806 6.05782 10.9815C5.9587 10.8824 5.79922 10.8824 5.48026 10.8824H4.12704C3.80809 10.8824 3.64861 10.8824 3.54952 10.9815ZM7.5101 8.85258C7.5101 8.53363 7.5101 8.37415 7.60915 8.27503C7.70827 8.17597 7.86775 8.17597 8.18671 8.17597H9.53993C9.85888 8.17597 10.0184 8.17597 10.1175 8.27503C10.2165 8.37415 10.2165 8.53363 10.2165 8.85258C10.2165 9.17154 10.2165 9.33102 10.1175 9.43014C10.0184 9.52919 9.85888 9.52919 9.53993 9.52919H8.18671C7.86775 9.52919 7.70827 9.52919 7.60915 9.43014C7.5101 9.33102 7.5101 9.17154 7.5101 8.85258ZM7.60915 10.9815C7.5101 11.0806 7.5101 11.2401 7.5101 11.559C7.5101 11.878 7.5101 12.0375 7.60915 12.1366C7.70827 12.2356 7.86775 12.2356 8.18671 12.2356H9.53993C9.85888 12.2356 10.0184 12.2356 10.1175 12.1366C10.2165 12.0375 10.2165 11.878 10.2165 11.559C10.2165 11.2401 10.2165 11.0806 10.1175 10.9815C10.0184 10.8824 9.85888 10.8824 9.53993 10.8824H8.18671C7.86775 10.8824 7.70827 10.8824 7.60915 10.9815Z" fill="#B1BBC1"/>
<path d="M3.4502 0.73291V2.76274" stroke="#B1BBC1" stroke-width="1.35322" stroke-linecap="round"/>
<path d="M10.2168 0.73291V2.76274" stroke="#B1BBC1" stroke-width="1.35322" stroke-linecap="round"/>
</svg>
