<svg width="17" height="16" viewBox="0 0 17 16" fill="none" xmlns="http://www.w3.org/2000/svg">
<path d="M16.6717 7.2001V8.91676C16.6717 9.3751 16.3051 9.7501 15.8384 9.76676H14.2051C13.3051 9.76676 12.4801 9.10843 12.4051 8.20843C12.3551 7.68343 12.5551 7.19176 12.9051 6.8501C13.2134 6.53343 13.6384 6.3501 14.1051 6.3501H15.8384C16.3051 6.36676 16.6717 6.74176 16.6717 7.2001Z" fill="#13CD90"/>
<path d="M15.3965 11.0168H14.2049C12.6216 11.0168 11.2882 9.8251 11.1549 8.30843C11.0799 7.44176 11.3966 6.5751 12.0299 5.95843C12.5632 5.40843 13.3049 5.1001 14.1049 5.1001H15.3965C15.6382 5.1001 15.8382 4.9001 15.8132 4.65843C15.6299 2.63343 14.2882 1.2501 12.2965 1.01676C12.0965 0.983431 11.8882 0.975098 11.6715 0.975098H4.17155C3.93822 0.975098 3.71322 0.991764 3.49655 1.0251C1.37155 1.29176 0.00488281 2.8751 0.00488281 5.14176V10.9751C0.00488281 13.2751 1.87155 15.1418 4.17155 15.1418H11.6715C14.0049 15.1418 15.6132 13.6834 15.8132 11.4584C15.8382 11.2168 15.6382 11.0168 15.3965 11.0168ZM9.17155 6.18343H4.17155C3.82988 6.18343 3.54655 5.9001 3.54655 5.55843C3.54655 5.21676 3.82988 4.93343 4.17155 4.93343H9.17155C9.51322 4.93343 9.79655 5.21676 9.79655 5.55843C9.79655 5.9001 9.51322 6.18343 9.17155 6.18343Z" fill="#13CD90"/>
</svg>
