<svg width="20" height="17" viewBox="0 0 20 17" fill="none" xmlns="http://www.w3.org/2000/svg">
<path d="M19.235 7.12639V9.06104C19.235 9.57757 18.8218 10.0002 18.2958 10.019H16.4551C15.4408 10.019 14.5111 9.27704 14.4265 8.26276C14.3702 7.6711 14.5956 7.117 14.99 6.73195C15.3375 6.37507 15.8165 6.16846 16.3424 6.16846H18.2958C18.8218 6.18724 19.235 6.60986 19.235 7.12639Z" fill="#13CD90"/>
<path d="M17.7982 11.4276H16.4553C14.6709 11.4276 13.1682 10.0846 13.018 8.37536C12.9335 7.39864 13.2903 6.42193 14.0041 5.72696C14.6051 5.10712 15.441 4.75963 16.3426 4.75963H17.7982C18.0706 4.75963 18.296 4.53424 18.2678 4.26188C18.0612 1.97975 16.5492 0.420759 14.3046 0.157797C14.0792 0.120231 13.8444 0.11084 13.6002 0.11084H5.1479C4.88494 0.11084 4.63137 0.129623 4.38719 0.167189C1.99235 0.467717 0.452148 2.2521 0.452148 4.80659V11.3806C0.452148 13.9727 2.55584 16.0764 5.1479 16.0764H13.6002C16.2299 16.0764 18.0424 14.4329 18.2678 11.9253C18.296 11.653 18.0706 11.4276 17.7982 11.4276ZM10.7828 5.98053H5.1479C4.76285 5.98053 4.44354 5.66122 4.44354 5.27617C4.44354 4.89111 4.76285 4.5718 5.1479 4.5718H10.7828C11.1679 4.5718 11.4872 4.89111 11.4872 5.27617C11.4872 5.66122 11.1679 5.98053 10.7828 5.98053Z" fill="#13CD90"/>
</svg>
