<svg width="14" height="14" viewBox="0 0 14 14" fill="none" xmlns="http://www.w3.org/2000/svg">
<path d="M0.158203 4.79238C0.158203 3.51655 0.158203 2.87863 0.554555 2.48229C0.950899 2.08594 1.58881 2.08594 2.86464 2.08594H10.984C12.2598 2.08594 12.8977 2.08594 13.294 2.48229C13.6904 2.87863 13.6904 3.51655 13.6904 4.79238C13.6904 5.11133 13.6904 5.27082 13.5914 5.3699C13.4922 5.46899 13.3328 5.46899 13.0138 5.46899H0.834813C0.515859 5.46899 0.356376 5.46899 0.257293 5.3699C0.158203 5.27082 0.158203 5.11133 0.158203 4.79238Z" fill="#B1BBC1"/>
<path fill-rule="evenodd" clip-rule="evenodd" d="M0.158203 10.8819C0.158203 12.1577 0.158203 12.7957 0.554555 13.192C0.950899 13.5884 1.58881 13.5884 2.86464 13.5884H10.984C12.2598 13.5884 12.8977 13.5884 13.294 13.192C13.6904 12.7957 13.6904 12.1577 13.6904 10.8819V7.49888C13.6904 7.17992 13.6904 7.02045 13.5914 6.92132C13.4922 6.82227 13.3328 6.82227 13.0138 6.82227H0.834813C0.515859 6.82227 0.356376 6.82227 0.257293 6.92132C0.158203 7.02045 0.158203 7.17992 0.158203 7.49888V10.8819ZM3.54125 8.8521C3.54125 8.53314 3.54125 8.37367 3.64034 8.27454C3.73943 8.17549 3.89891 8.17549 4.21786 8.17549H5.57108C5.89004 8.17549 6.04952 8.17549 6.14864 8.27454C6.24769 8.37367 6.24769 8.53314 6.24769 8.8521C6.24769 9.17105 6.24769 9.33053 6.14864 9.42965C6.04952 9.52871 5.89004 9.52871 5.57108 9.52871H4.21786C3.89891 9.52871 3.73943 9.52871 3.64034 9.42965C3.54125 9.33053 3.54125 9.17105 3.54125 8.8521ZM3.64034 10.981C3.54125 11.0801 3.54125 11.2396 3.54125 11.5585C3.54125 11.8775 3.54125 12.037 3.64034 12.1361C3.73943 12.2351 3.89891 12.2351 4.21786 12.2351H5.57108C5.89004 12.2351 6.04952 12.2351 6.14864 12.1361C6.24769 12.037 6.24769 11.8775 6.24769 11.5585C6.24769 11.2396 6.24769 11.0801 6.14864 10.981C6.04952 10.8819 5.89004 10.8819 5.57108 10.8819H4.21786C3.89891 10.8819 3.73943 10.8819 3.64034 10.981ZM7.60092 8.8521C7.60092 8.53314 7.60092 8.37367 7.69997 8.27454C7.7991 8.17549 7.95857 8.17549 8.27753 8.17549H9.63075C9.9497 8.17549 10.1092 8.17549 10.2083 8.27454C10.3074 8.37367 10.3074 8.53314 10.3074 8.8521C10.3074 9.17105 10.3074 9.33053 10.2083 9.42965C10.1092 9.52871 9.9497 9.52871 9.63075 9.52871H8.27753C7.95857 9.52871 7.7991 9.52871 7.69997 9.42965C7.60092 9.33053 7.60092 9.17105 7.60092 8.8521ZM7.69997 10.981C7.60092 11.0801 7.60092 11.2396 7.60092 11.5585C7.60092 11.8775 7.60092 12.037 7.69997 12.1361C7.7991 12.2351 7.95857 12.2351 8.27753 12.2351H9.63075C9.9497 12.2351 10.1092 12.2351 10.2083 12.1361C10.3074 12.037 10.3074 11.8775 10.3074 11.5585C10.3074 11.2396 10.3074 11.0801 10.2083 10.981C10.1092 10.8819 9.9497 10.8819 9.63075 10.8819H8.27753C7.95857 10.8819 7.7991 10.8819 7.69997 10.981Z" fill="#B1BBC1"/>
<path d="M3.54102 0.732422V2.76225" stroke="#B1BBC1" stroke-width="1.35322" stroke-linecap="round"/>
<path d="M10.3076 0.732422V2.76225" stroke="#B1BBC1" stroke-width="1.35322" stroke-linecap="round"/>
</svg>
