<svg width="14" height="14" viewBox="0 0 14 14" fill="none" xmlns="http://www.w3.org/2000/svg">
<path d="M0.0673828 4.76064C0.0673828 3.48481 0.0673828 2.8469 0.463734 2.45055C0.860079 2.0542 1.49799 2.0542 2.77382 2.0542H10.8931C12.169 2.0542 12.8069 2.0542 13.2032 2.45055C13.5996 2.8469 13.5996 3.48481 13.5996 4.76064C13.5996 5.07959 13.5996 5.23908 13.5005 5.33816C13.4014 5.43725 13.2419 5.43725 12.923 5.43725H0.743993C0.425039 5.43725 0.265555 5.43725 0.166472 5.33816C0.0673828 5.23908 0.0673828 5.07959 0.0673828 4.76064Z" fill="#B1BBC1"/>
<path fill-rule="evenodd" clip-rule="evenodd" d="M0.0673828 10.8502C0.0673828 12.126 0.0673828 12.7639 0.463734 13.1603C0.860079 13.5566 1.49799 13.5566 2.77382 13.5566H10.8931C12.169 13.5566 12.8069 13.5566 13.2032 13.1603C13.5996 12.7639 13.5996 12.126 13.5996 10.8502V7.46714C13.5996 7.14818 13.5996 6.98871 13.5005 6.88958C13.4014 6.79053 13.2419 6.79053 12.923 6.79053H0.743993C0.425039 6.79053 0.265555 6.79053 0.166472 6.88958C0.0673828 6.98871 0.0673828 7.14818 0.0673828 7.46714V10.8502ZM3.45043 8.82036C3.45043 8.5014 3.45043 8.34193 3.54952 8.2428C3.64861 8.14375 3.80809 8.14375 4.12704 8.14375H5.48026C5.79922 8.14375 5.9587 8.14375 6.05782 8.2428C6.15687 8.34193 6.15687 8.5014 6.15687 8.82036C6.15687 9.13931 6.15687 9.29879 6.05782 9.39791C5.9587 9.49697 5.79922 9.49697 5.48026 9.49697H4.12704C3.80809 9.49697 3.64861 9.49697 3.54952 9.39791C3.45043 9.29879 3.45043 9.13931 3.45043 8.82036ZM3.54952 10.9492C3.45043 11.0484 3.45043 11.2078 3.45043 11.5268C3.45043 11.8458 3.45043 12.0052 3.54952 12.1044C3.64861 12.2034 3.80809 12.2034 4.12704 12.2034H5.48026C5.79922 12.2034 5.9587 12.2034 6.05782 12.1044C6.15687 12.0052 6.15687 11.8458 6.15687 11.5268C6.15687 11.2078 6.15687 11.0484 6.05782 10.9492C5.9587 10.8502 5.79922 10.8502 5.48026 10.8502H4.12704C3.80809 10.8502 3.64861 10.8502 3.54952 10.9492ZM7.5101 8.82036C7.5101 8.5014 7.5101 8.34193 7.60915 8.2428C7.70827 8.14375 7.86775 8.14375 8.18671 8.14375H9.53993C9.85888 8.14375 10.0184 8.14375 10.1175 8.2428C10.2165 8.34193 10.2165 8.5014 10.2165 8.82036C10.2165 9.13931 10.2165 9.29879 10.1175 9.39791C10.0184 9.49697 9.85888 9.49697 9.53993 9.49697H8.18671C7.86775 9.49697 7.70827 9.49697 7.60915 9.39791C7.5101 9.29879 7.5101 9.13931 7.5101 8.82036ZM7.60915 10.9492C7.5101 11.0484 7.5101 11.2078 7.5101 11.5268C7.5101 11.8458 7.5101 12.0052 7.60915 12.1044C7.70827 12.2034 7.86775 12.2034 8.18671 12.2034H9.53993C9.85888 12.2034 10.0184 12.2034 10.1175 12.1044C10.2165 12.0052 10.2165 11.8458 10.2165 11.5268C10.2165 11.2078 10.2165 11.0484 10.1175 10.9492C10.0184 10.8502 9.85888 10.8502 9.53993 10.8502H8.18671C7.86775 10.8502 7.70827 10.8502 7.60915 10.9492Z" fill="#B1BBC1"/>
<path d="M3.4502 0.700684V2.73051" stroke="#B1BBC1" stroke-width="1.35322" stroke-linecap="round"/>
<path d="M10.2168 0.700684V2.73051" stroke="#B1BBC1" stroke-width="1.35322" stroke-linecap="round"/>
</svg>
