<svg width="15" height="14" viewBox="0 0 15 14" fill="none" xmlns="http://www.w3.org/2000/svg">
<path d="M0.780273 4.79238C0.780273 3.51655 0.780273 2.87863 1.17662 2.48229C1.57297 2.08594 2.21088 2.08594 3.48671 2.08594H11.606C12.8819 2.08594 13.5198 2.08594 13.9161 2.48229C14.3125 2.87863 14.3125 3.51655 14.3125 4.79238C14.3125 5.11133 14.3125 5.27082 14.2134 5.3699C14.1143 5.46899 13.9548 5.46899 13.6359 5.46899H1.45688C1.13793 5.46899 0.978446 5.46899 0.879363 5.3699C0.780273 5.27082 0.780273 5.11133 0.780273 4.79238Z" fill="#B1BBC1"/>
<path fill-rule="evenodd" clip-rule="evenodd" d="M0.780273 10.8819C0.780273 12.1577 0.780273 12.7957 1.17662 13.192C1.57297 13.5884 2.21088 13.5884 3.48671 13.5884H11.606C12.8819 13.5884 13.5198 13.5884 13.9161 13.192C14.3125 12.7957 14.3125 12.1577 14.3125 10.8819V7.49888C14.3125 7.17992 14.3125 7.02045 14.2134 6.92132C14.1143 6.82227 13.9548 6.82227 13.6359 6.82227H1.45688C1.13793 6.82227 0.978446 6.82227 0.879363 6.92132C0.780273 7.02045 0.780273 7.17992 0.780273 7.49888V10.8819ZM4.16332 8.8521C4.16332 8.53314 4.16332 8.37367 4.26241 8.27454C4.3615 8.17549 4.52098 8.17549 4.83993 8.17549H6.19316C6.51211 8.17549 6.67159 8.17549 6.77071 8.27454C6.86977 8.37367 6.86977 8.53314 6.86977 8.8521C6.86977 9.17105 6.86977 9.33053 6.77071 9.42965C6.67159 9.52871 6.51211 9.52871 6.19316 9.52871H4.83993C4.52098 9.52871 4.3615 9.52871 4.26241 9.42965C4.16332 9.33053 4.16332 9.17105 4.16332 8.8521ZM4.26241 10.981C4.16332 11.0801 4.16332 11.2396 4.16332 11.5585C4.16332 11.8775 4.16332 12.037 4.26241 12.1361C4.3615 12.2351 4.52098 12.2351 4.83993 12.2351H6.19316C6.51211 12.2351 6.67159 12.2351 6.77071 12.1361C6.86977 12.037 6.86977 11.8775 6.86977 11.5585C6.86977 11.2396 6.86977 11.0801 6.77071 10.981C6.67159 10.8819 6.51211 10.8819 6.19316 10.8819H4.83993C4.52098 10.8819 4.3615 10.8819 4.26241 10.981ZM8.22299 8.8521C8.22299 8.53314 8.22299 8.37367 8.32204 8.27454C8.42117 8.17549 8.58064 8.17549 8.8996 8.17549H10.2528C10.5718 8.17549 10.7312 8.17549 10.8304 8.27454C10.9294 8.37367 10.9294 8.53314 10.9294 8.8521C10.9294 9.17105 10.9294 9.33053 10.8304 9.42965C10.7312 9.52871 10.5718 9.52871 10.2528 9.52871H8.8996C8.58064 9.52871 8.42117 9.52871 8.32204 9.42965C8.22299 9.33053 8.22299 9.17105 8.22299 8.8521ZM8.32204 10.981C8.22299 11.0801 8.22299 11.2396 8.22299 11.5585C8.22299 11.8775 8.22299 12.037 8.32204 12.1361C8.42117 12.2351 8.58064 12.2351 8.8996 12.2351H10.2528C10.5718 12.2351 10.7312 12.2351 10.8304 12.1361C10.9294 12.037 10.9294 11.8775 10.9294 11.5585C10.9294 11.2396 10.9294 11.0801 10.8304 10.981C10.7312 10.8819 10.5718 10.8819 10.2528 10.8819H8.8996C8.58064 10.8819 8.42117 10.8819 8.32204 10.981Z" fill="#B1BBC1"/>
<path d="M4.16309 0.732422V2.76225" stroke="#B1BBC1" stroke-width="1.35322" stroke-linecap="round"/>
<path d="M10.9297 0.732422V2.76225" stroke="#B1BBC1" stroke-width="1.35322" stroke-linecap="round"/>
</svg>
