<svg width="15" height="14" viewBox="0 0 15 14" fill="none" xmlns="http://www.w3.org/2000/svg">
<path d="M0.745117 4.76015C0.745117 3.48432 0.745117 2.84641 1.14147 2.45006C1.53781 2.05371 2.17573 2.05371 3.45156 2.05371H11.5709C12.8467 2.05371 13.4846 2.05371 13.881 2.45006C14.2773 2.84641 14.2773 3.48432 14.2773 4.76015C14.2773 5.07911 14.2773 5.23859 14.1783 5.33767C14.0791 5.43676 13.9197 5.43676 13.6007 5.43676H1.42173C1.10277 5.43676 0.94329 5.43676 0.844207 5.33767C0.745117 5.23859 0.745117 5.07911 0.745117 4.76015Z" fill="#B1BBC1"/>
<path fill-rule="evenodd" clip-rule="evenodd" d="M0.745117 10.8497C0.745117 12.1255 0.745117 12.7634 1.14147 13.1598C1.53781 13.5561 2.17573 13.5561 3.45156 13.5561H11.5709C12.8467 13.5561 13.4846 13.5561 13.881 13.1598C14.2773 12.7634 14.2773 12.1255 14.2773 10.8497V7.46665C14.2773 7.1477 14.2773 6.98822 14.1783 6.8891C14.0791 6.79004 13.9197 6.79004 13.6007 6.79004H1.42173C1.10277 6.79004 0.94329 6.79004 0.844207 6.8891C0.745117 6.98822 0.745117 7.1477 0.745117 7.46665V10.8497ZM4.12817 8.81987C4.12817 8.50092 4.12817 8.34144 4.22726 8.24232C4.32634 8.14326 4.48582 8.14326 4.80478 8.14326H6.158C6.47695 8.14326 6.63643 8.14326 6.73555 8.24232C6.83461 8.34144 6.83461 8.50092 6.83461 8.81987C6.83461 9.13882 6.83461 9.2983 6.73555 9.39742C6.63643 9.49648 6.47695 9.49648 6.158 9.49648H4.80478C4.48582 9.49648 4.32634 9.49648 4.22726 9.39742C4.12817 9.2983 4.12817 9.13882 4.12817 8.81987ZM4.22726 10.9488C4.12817 11.0479 4.12817 11.2074 4.12817 11.5263C4.12817 11.8453 4.12817 12.0047 4.22726 12.1039C4.32634 12.2029 4.48582 12.2029 4.80478 12.2029H6.158C6.47695 12.2029 6.63643 12.2029 6.73555 12.1039C6.83461 12.0047 6.83461 11.8453 6.83461 11.5263C6.83461 11.2074 6.83461 11.0479 6.73555 10.9488C6.63643 10.8497 6.47695 10.8497 6.158 10.8497H4.80478C4.48582 10.8497 4.32634 10.8497 4.22726 10.9488ZM8.18783 8.81987C8.18783 8.50092 8.18783 8.34144 8.28689 8.24232C8.38601 8.14326 8.54549 8.14326 8.86444 8.14326H10.2177C10.5366 8.14326 10.6961 8.14326 10.7952 8.24232C10.8943 8.34144 10.8943 8.50092 10.8943 8.81987C10.8943 9.13882 10.8943 9.2983 10.7952 9.39742C10.6961 9.49648 10.5366 9.49648 10.2177 9.49648H8.86444C8.54549 9.49648 8.38601 9.49648 8.28689 9.39742C8.18783 9.2983 8.18783 9.13882 8.18783 8.81987ZM8.28689 10.9488C8.18783 11.0479 8.18783 11.2074 8.18783 11.5263C8.18783 11.8453 8.18783 12.0047 8.28689 12.1039C8.38601 12.2029 8.54549 12.2029 8.86444 12.2029H10.2177C10.5366 12.2029 10.6961 12.2029 10.7952 12.1039C10.8943 12.0047 10.8943 11.8453 10.8943 11.5263C10.8943 11.2074 10.8943 11.0479 10.7952 10.9488C10.6961 10.8497 10.5366 10.8497 10.2177 10.8497H8.86444C8.54549 10.8497 8.38601 10.8497 8.28689 10.9488Z" fill="#B1BBC1"/>
<path d="M4.12793 0.700195V2.73003" stroke="#B1BBC1" stroke-width="1.35322" stroke-linecap="round"/>
<path d="M10.8945 0.700195V2.73003" stroke="#B1BBC1" stroke-width="1.35322" stroke-linecap="round"/>
</svg>
