<svg width="14" height="14" viewBox="0 0 14 14" fill="none" xmlns="http://www.w3.org/2000/svg">
<path d="M0.123047 4.76015C0.123047 3.48432 0.123047 2.84641 0.519398 2.45006C0.915743 2.05371 1.55366 2.05371 2.82949 2.05371H10.9488C12.2246 2.05371 12.8625 2.05371 13.2589 2.45006C13.6553 2.84641 13.6553 3.48432 13.6553 4.76015C13.6553 5.07911 13.6553 5.23859 13.5562 5.33767C13.4571 5.43676 13.2976 5.43676 12.9786 5.43676H0.799657C0.480703 5.43676 0.321219 5.43676 0.222136 5.33767C0.123047 5.23859 0.123047 5.07911 0.123047 4.76015Z" fill="#B1BBC1"/>
<path fill-rule="evenodd" clip-rule="evenodd" d="M0.123047 10.8497C0.123047 12.1255 0.123047 12.7634 0.519398 13.1598C0.915743 13.5561 1.55366 13.5561 2.82949 13.5561H10.9488C12.2246 13.5561 12.8625 13.5561 13.2589 13.1598C13.6553 12.7634 13.6553 12.1255 13.6553 10.8497V7.46665C13.6553 7.1477 13.6553 6.98822 13.5562 6.8891C13.4571 6.79004 13.2976 6.79004 12.9786 6.79004H0.799657C0.480703 6.79004 0.321219 6.79004 0.222136 6.8891C0.123047 6.98822 0.123047 7.1477 0.123047 7.46665V10.8497ZM3.5061 8.81987C3.5061 8.50092 3.5061 8.34144 3.60519 8.24232C3.70427 8.14326 3.86375 8.14326 4.18271 8.14326H5.53593C5.85488 8.14326 6.01436 8.14326 6.11348 8.24232C6.21254 8.34144 6.21254 8.50092 6.21254 8.81987C6.21254 9.13882 6.21254 9.2983 6.11348 9.39742C6.01436 9.49648 5.85488 9.49648 5.53593 9.49648H4.18271C3.86375 9.49648 3.70427 9.49648 3.60519 9.39742C3.5061 9.2983 3.5061 9.13882 3.5061 8.81987ZM3.60519 10.9488C3.5061 11.0479 3.5061 11.2074 3.5061 11.5263C3.5061 11.8453 3.5061 12.0047 3.60519 12.1039C3.70427 12.2029 3.86375 12.2029 4.18271 12.2029H5.53593C5.85488 12.2029 6.01436 12.2029 6.11348 12.1039C6.21254 12.0047 6.21254 11.8453 6.21254 11.5263C6.21254 11.2074 6.21254 11.0479 6.11348 10.9488C6.01436 10.8497 5.85488 10.8497 5.53593 10.8497H4.18271C3.86375 10.8497 3.70427 10.8497 3.60519 10.9488ZM7.56576 8.81987C7.56576 8.50092 7.56576 8.34144 7.66482 8.24232C7.76394 8.14326 7.92342 8.14326 8.24237 8.14326H9.59559C9.91454 8.14326 10.074 8.14326 10.1731 8.24232C10.2722 8.34144 10.2722 8.50092 10.2722 8.81987C10.2722 9.13882 10.2722 9.2983 10.1731 9.39742C10.074 9.49648 9.91454 9.49648 9.59559 9.49648H8.24237C7.92342 9.49648 7.76394 9.49648 7.66482 9.39742C7.56576 9.2983 7.56576 9.13882 7.56576 8.81987ZM7.66482 10.9488C7.56576 11.0479 7.56576 11.2074 7.56576 11.5263C7.56576 11.8453 7.56576 12.0047 7.66482 12.1039C7.76394 12.2029 7.92342 12.2029 8.24237 12.2029H9.59559C9.91454 12.2029 10.074 12.2029 10.1731 12.1039C10.2722 12.0047 10.2722 11.8453 10.2722 11.5263C10.2722 11.2074 10.2722 11.0479 10.1731 10.9488C10.074 10.8497 9.91454 10.8497 9.59559 10.8497H8.24237C7.92342 10.8497 7.76394 10.8497 7.66482 10.9488Z" fill="#B1BBC1"/>
<path d="M3.50586 0.700195V2.73003" stroke="#B1BBC1" stroke-width="1.35322" stroke-linecap="round"/>
<path d="M10.2725 0.700195V2.73003" stroke="#B1BBC1" stroke-width="1.35322" stroke-linecap="round"/>
</svg>
