<svg width="14" height="14" viewBox="0 0 14 14" fill="none" xmlns="http://www.w3.org/2000/svg">
<path d="M0.158203 4.76015C0.158203 3.48432 0.158203 2.84641 0.554555 2.45006C0.950899 2.05371 1.58881 2.05371 2.86464 2.05371H10.984C12.2598 2.05371 12.8977 2.05371 13.294 2.45006C13.6904 2.84641 13.6904 3.48432 13.6904 4.76015C13.6904 5.07911 13.6904 5.23859 13.5914 5.33767C13.4922 5.43676 13.3328 5.43676 13.0138 5.43676H0.834813C0.515859 5.43676 0.356376 5.43676 0.257293 5.33767C0.158203 5.23859 0.158203 5.07911 0.158203 4.76015Z" fill="#B1BBC1"/>
<path fill-rule="evenodd" clip-rule="evenodd" d="M0.158203 10.8497C0.158203 12.1255 0.158203 12.7634 0.554555 13.1598C0.950899 13.5561 1.58881 13.5561 2.86464 13.5561H10.984C12.2598 13.5561 12.8977 13.5561 13.294 13.1598C13.6904 12.7634 13.6904 12.1255 13.6904 10.8497V7.46665C13.6904 7.1477 13.6904 6.98822 13.5914 6.8891C13.4922 6.79004 13.3328 6.79004 13.0138 6.79004H0.834813C0.515859 6.79004 0.356376 6.79004 0.257293 6.8891C0.158203 6.98822 0.158203 7.1477 0.158203 7.46665V10.8497ZM3.54125 8.81987C3.54125 8.50092 3.54125 8.34144 3.64034 8.24232C3.73943 8.14326 3.89891 8.14326 4.21786 8.14326H5.57108C5.89004 8.14326 6.04952 8.14326 6.14864 8.24232C6.24769 8.34144 6.24769 8.50092 6.24769 8.81987C6.24769 9.13882 6.24769 9.2983 6.14864 9.39742C6.04952 9.49648 5.89004 9.49648 5.57108 9.49648H4.21786C3.89891 9.49648 3.73943 9.49648 3.64034 9.39742C3.54125 9.2983 3.54125 9.13882 3.54125 8.81987ZM3.64034 10.9488C3.54125 11.0479 3.54125 11.2074 3.54125 11.5263C3.54125 11.8453 3.54125 12.0047 3.64034 12.1039C3.73943 12.2029 3.89891 12.2029 4.21786 12.2029H5.57108C5.89004 12.2029 6.04952 12.2029 6.14864 12.1039C6.24769 12.0047 6.24769 11.8453 6.24769 11.5263C6.24769 11.2074 6.24769 11.0479 6.14864 10.9488C6.04952 10.8497 5.89004 10.8497 5.57108 10.8497H4.21786C3.89891 10.8497 3.73943 10.8497 3.64034 10.9488ZM7.60092 8.81987C7.60092 8.50092 7.60092 8.34144 7.69997 8.24232C7.7991 8.14326 7.95857 8.14326 8.27753 8.14326H9.63075C9.9497 8.14326 10.1092 8.14326 10.2083 8.24232C10.3074 8.34144 10.3074 8.50092 10.3074 8.81987C10.3074 9.13882 10.3074 9.2983 10.2083 9.39742C10.1092 9.49648 9.9497 9.49648 9.63075 9.49648H8.27753C7.95857 9.49648 7.7991 9.49648 7.69997 9.39742C7.60092 9.2983 7.60092 9.13882 7.60092 8.81987ZM7.69997 10.9488C7.60092 11.0479 7.60092 11.2074 7.60092 11.5263C7.60092 11.8453 7.60092 12.0047 7.69997 12.1039C7.7991 12.2029 7.95857 12.2029 8.27753 12.2029H9.63075C9.9497 12.2029 10.1092 12.2029 10.2083 12.1039C10.3074 12.0047 10.3074 11.8453 10.3074 11.5263C10.3074 11.2074 10.3074 11.0479 10.2083 10.9488C10.1092 10.8497 9.9497 10.8497 9.63075 10.8497H8.27753C7.95857 10.8497 7.7991 10.8497 7.69997 10.9488Z" fill="#B1BBC1"/>
<path d="M3.54102 0.700195V2.73003" stroke="#B1BBC1" stroke-width="1.35322" stroke-linecap="round"/>
<path d="M10.3076 0.700195V2.73003" stroke="#B1BBC1" stroke-width="1.35322" stroke-linecap="round"/>
</svg>
