<svg width="21" height="19" viewBox="0 0 21 19" fill="none" xmlns="http://www.w3.org/2000/svg">
<g clip-path="url(#clip0_1_27703)">
<path d="M17.3997 0H3.49824C2.05249 0 0.884766 1.08647 0.884766 2.43162V16.1935C0.884766 17.5387 2.05249 18.6252 3.49824 18.6252H17.3997C18.8455 18.6252 20.0132 17.5387 20.0132 16.1935V2.43162C20.0688 1.08647 18.8455 0 17.3997 0ZM16.2876 6.88096L9.61489 13.0893C9.33687 13.348 9.05884 13.4515 8.7252 13.4515C8.44717 13.4515 8.05793 13.348 7.83551 13.0893L4.61036 10.0886C4.33233 9.82994 4.33233 9.46779 4.61036 9.26084L5.50006 8.43306C5.77809 8.17437 6.16733 8.17437 6.38975 8.43306L8.7252 10.606L14.4526 5.27713C14.7306 5.01845 15.1199 5.01845 15.3423 5.27713L16.232 6.10491C16.51 6.26012 16.51 6.67401 16.2876 6.88096Z" fill="#464F5D"/>
</g>
<defs>
<clipPath id="clip0_1_27703">
<rect x="0.884766" width="19.1303" height="18.6252" rx="9.31258" fill="white"/>
</clipPath>
</defs>
</svg>
