<svg width="100" height="100" viewBox="0 0 100 100" fill="none" xmlns="http://www.w3.org/2000/svg">
<path d="M34.5772 1.81022V3.83791H31.1621V1.81022L32.8696 0.422852L34.5772 1.81022Z" fill="black"/>
<path d="M41.4014 0.422363H37.9863V3.83742H41.4014V0.422363Z" fill="black"/>
<path d="M46.1979 0.422852H48.2256V3.83791H46.1979L44.8105 2.13038L46.1979 0.422852Z" fill="black"/>
<path d="M51.6582 0.422363H48.2432V3.83742H51.6582V0.422363Z" fill="black"/>
<path d="M55.0713 0.422363H51.6562V3.83742H55.0713V0.422363Z" fill="black"/>
<path d="M65.3125 0.422363H61.8975V3.83742H65.3125V0.422363Z" fill="black"/>
<path d="M31.1602 3.82568H27.7451V7.24074H31.1602V3.82568Z" fill="black"/>
<path d="M34.5772 3.82568H31.1621V7.24074H34.5772V3.82568Z" fill="black"/>
<path d="M44.8213 3.82568H41.4062V7.24074H44.8213V3.82568Z" fill="black"/>
<path d="M55.0742 5.85484V3.82715H51.6592V5.85484L53.3667 7.2422L55.0742 5.85484Z" fill="black"/>
<path d="M61.9014 3.82568H58.4863V7.24074H61.9014V3.82568Z" fill="black"/>
<path d="M31.1602 7.25879H27.7451V10.6738H31.1602V7.25879Z" fill="black"/>
<path d="M34.5772 7.25879H31.1621V10.6738H34.5772V7.25879Z" fill="black"/>
<path d="M41.4014 7.25879H37.9863V10.6738H41.4014V7.25879Z" fill="black"/>
<path d="M51.6553 8.63346V10.6611H48.2402V8.63346L49.9478 7.24609L51.6553 8.63346Z" fill="black"/>
<path d="M58.4756 7.25879H55.0605V10.6738H58.4756V7.25879Z" fill="black"/>
<path d="M68.7324 7.25879H65.3174V10.6738H68.7324V7.25879Z" fill="black"/>
<path d="M31.1563 12.7035V10.6758H27.7412V12.7035L29.4487 14.0908L31.1563 12.7035Z" fill="black"/>
<path d="M37.9942 10.6719H34.5791V14.0869H37.9942V10.6719Z" fill="black"/>
<path d="M44.8252 12.0631V14.0908H41.4102V12.0631L43.1177 10.6758L44.8252 12.0631Z" fill="black"/>
<path d="M51.6582 10.6719H48.2432V14.0869H51.6582V10.6719Z" fill="black"/>
<path d="M55.0713 10.6719H51.6562V14.0869H55.0713V10.6719Z" fill="black"/>
<path d="M61.9014 10.6719H58.4863V14.0869H61.9014V10.6719Z" fill="black"/>
<path d="M34.5772 15.4728V17.5005H31.1621V15.4728L32.8696 14.0854L34.5772 15.4728Z" fill="black"/>
<path d="M44.8213 14.083H41.4062V17.4981H44.8213V14.083Z" fill="black"/>
<path d="M48.251 14.083H44.8359V17.4981H48.251V14.083Z" fill="black"/>
<path d="M51.6582 14.083H48.2432V17.4981H51.6582V14.083Z" fill="black"/>
<path d="M55.0713 14.083H51.6562V17.4981H55.0713V14.083Z" fill="black"/>
<path d="M66.7038 14.0854H68.7315V17.5005H66.7038L65.3164 15.793L66.7038 14.0854Z" fill="black"/>
<path d="M72.1465 14.083H68.7314V17.4981H72.1465V14.083Z" fill="black"/>
<path d="M34.5772 19.5267V17.499H31.1621V19.5267L32.8696 20.9141L34.5772 19.5267Z" fill="black"/>
<path d="M48.251 17.5059H44.8359V20.9209H48.251V17.5059Z" fill="black"/>
<path d="M51.6582 17.5059H48.2432V20.9209H51.6582V17.5059Z" fill="black"/>
<path d="M58.4756 17.5059H55.0605V20.9209H58.4756V17.5059Z" fill="black"/>
<path d="M60.5257 17.499H58.498V20.9141H60.5257L61.9131 19.2066L60.5257 17.499Z" fill="black"/>
<path d="M72.1465 17.5059H68.7314V20.9209H72.1465V17.5059Z" fill="black"/>
<path d="M31.1563 22.2941V24.3218H27.7412V22.2941L29.4487 20.9067L31.1563 22.2941Z" fill="black"/>
<path d="M37.9873 22.2941V24.3218H34.5723V22.2941L36.2798 20.9067L37.9873 22.2941Z" fill="black"/>
<path d="M44.8213 20.9136H41.4062V24.3286H44.8213V20.9136Z" fill="black"/>
<path d="M51.6553 22.9344V20.9067H48.2402V22.9344L49.9478 24.3218L51.6553 22.9344Z" fill="black"/>
<path d="M58.4736 22.9344V20.9067H55.0586V22.9344L56.7661 24.3218L58.4736 22.9344Z" fill="black"/>
<path d="M65.3037 22.2941V24.3218H61.8887V22.2941L63.5962 20.9067L65.3037 22.2941Z" fill="black"/>
<path d="M72.1465 20.9136H68.7314V24.3286H72.1465V20.9136Z" fill="black"/>
<path d="M31.1602 24.3398H27.7451V27.7549H31.1602V24.3398Z" fill="black"/>
<path d="M37.9873 26.3641V24.3364H34.5723V26.3641L36.2798 27.7515L37.9873 26.3641Z" fill="black"/>
<path d="M48.251 24.3398H44.8359V27.7549H48.251V24.3398Z" fill="black"/>
<path d="M65.3037 26.3641V24.3364H61.8887V26.3641L63.5962 27.7515L65.3037 26.3641Z" fill="black"/>
<path d="M72.1475 26.3641V24.3364H68.7324V26.3641L70.4399 27.7515L72.1475 26.3641Z" fill="black"/>
<path d="M3.83986 29.1335V31.1611H0.424805V29.1335L2.13233 27.7461L3.83986 29.1335Z" fill="black"/>
<path d="M24.3369 27.7397H20.9219V31.1548H24.3369V27.7397Z" fill="black"/>
<path d="M31.1602 27.7397H27.7451V31.1548H31.1602V27.7397Z" fill="black"/>
<path d="M34.5772 27.7397H31.1621V31.1548H34.5772V27.7397Z" fill="black"/>
<path d="M41.4014 27.7397H37.9863V31.1548H41.4014V27.7397Z" fill="black"/>
<path d="M43.4378 27.7461H41.4102V31.1611H43.4378L44.8252 29.4536L43.4378 27.7461Z" fill="black"/>
<path d="M51.6582 27.7397H48.2432V31.1548H51.6582V27.7397Z" fill="black"/>
<path d="M53.6869 27.7461H51.6592V31.1611H53.6869L55.0742 29.4536L53.6869 27.7461Z" fill="black"/>
<path d="M73.5339 27.7461H75.5615V31.1611H73.5339L72.1465 29.4536L73.5339 27.7461Z" fill="black"/>
<path d="M77.5882 27.7461H75.5605V31.1611H77.5882L78.9756 29.4536L77.5882 27.7461Z" fill="black"/>
<path d="M87.1921 27.7461H89.2197V31.1611H87.1921L85.8047 29.4536L87.1921 27.7461Z" fill="black"/>
<path d="M92.6367 27.7397H89.2217V31.1548H92.6367V27.7397Z" fill="black"/>
<path d="M96.0537 27.7397H92.6387V31.1548H96.0537V27.7397Z" fill="black"/>
<path d="M3.83986 31.1631H0.424805V34.5781H3.83986V31.1631Z" fill="black"/>
<path d="M7.26271 31.1631H3.84766V34.5781H7.26271V31.1631Z" fill="black"/>
<path d="M10.6797 31.1631H7.26465V34.5781H10.6797V31.1631Z" fill="black"/>
<path d="M14.0928 31.1631H10.6777V34.5781H14.0928V31.1631Z" fill="black"/>
<path d="M17.5029 31.1631H14.0879V34.5781H17.5029V31.1631Z" fill="black"/>
<path d="M19.5365 31.1597H17.5088V34.5747H19.5365L20.9238 32.8672L19.5365 31.1597Z" fill="black"/>
<path d="M34.5772 31.1631H31.1621V34.5781H34.5772V31.1631Z" fill="black"/>
<path d="M41.4014 31.1631H37.9863V34.5781H41.4014V31.1631Z" fill="black"/>
<path d="M51.6553 33.1952V31.1675H48.2402V33.1952L49.9478 34.5825L51.6553 33.1952Z" fill="black"/>
<path d="M61.9131 32.547V34.5747H58.498V32.547L60.2056 31.1597L61.9131 32.547Z" fill="black"/>
<path d="M68.7324 31.1631H65.3174V34.5781H68.7324V31.1631Z" fill="black"/>
<path d="M85.8135 32.547V34.5747H82.3984V32.547L84.106 31.1597L85.8135 32.547Z" fill="black"/>
<path d="M92.6367 31.1631H89.2217V34.5781H92.6367V31.1631Z" fill="black"/>
<path d="M96.0537 31.1631H92.6387V34.5781H96.0537V31.1631Z" fill="black"/>
<path d="M3.83986 34.5703H0.424805V37.9854H3.83986V34.5703Z" fill="black"/>
<path d="M7.26271 34.5703H3.84766V37.9854H7.26271V34.5703Z" fill="black"/>
<path d="M10.6797 34.5703H7.26465V37.9854H10.6797V34.5703Z" fill="black"/>
<path d="M24.3369 34.5703H20.9219V37.9854H24.3369V34.5703Z" fill="black"/>
<path d="M29.1286 34.564H31.1563V37.979H29.1286L27.7412 36.2715L29.1286 34.564Z" fill="black"/>
<path d="M34.5772 34.5703H31.1621V37.9854H34.5772V34.5703Z" fill="black"/>
<path d="M41.4014 34.5703H37.9863V37.9854H41.4014V34.5703Z" fill="black"/>
<path d="M43.4378 34.564H41.4102V37.979H43.4378L44.8252 36.2715L43.4378 34.564Z" fill="black"/>
<path d="M61.9131 36.5917V34.564H58.498V36.5917L60.2056 37.979L61.9131 36.5917Z" fill="black"/>
<path d="M78.9756 34.5703H75.5605V37.9854H78.9756V34.5703Z" fill="black"/>
<path d="M82.3838 34.5703H78.9688V37.9854H82.3838V34.5703Z" fill="black"/>
<path d="M85.8125 34.5703H82.3975V37.9854H85.8125V34.5703Z" fill="black"/>
<path d="M10.6797 37.9902H7.26465V41.4053H10.6797V37.9902Z" fill="black"/>
<path d="M12.7093 37.9863H10.6816V41.4014H12.7093L14.0967 39.6939L12.7093 37.9863Z" fill="black"/>
<path d="M27.7471 39.3737V41.4014H24.332V39.3737L26.0396 37.9863L27.7471 39.3737Z" fill="black"/>
<path d="M41.4024 40.0233V37.9956H37.9873V40.0233L39.6948 41.4107L41.4024 40.0233Z" fill="black"/>
<path d="M51.6582 37.9902H48.2432V41.4053H51.6582V37.9902Z" fill="black"/>
<path d="M55.0713 37.9902H51.6562V41.4053H55.0713V37.9902Z" fill="black"/>
<path d="M57.0863 37.9863H55.0586V41.4014H57.0863L58.4736 39.6939L57.0863 37.9863Z" fill="black"/>
<path d="M68.7324 37.9902H65.3174V41.4053H68.7324V37.9902Z" fill="black"/>
<path d="M73.5339 37.9863H75.5615V41.4014H73.5339L72.1465 39.6939L73.5339 37.9863Z" fill="black"/>
<path d="M78.9756 37.9902H75.5605V41.4053H78.9756V37.9902Z" fill="black"/>
<path d="M82.3838 37.9907H78.9688V41.4058H82.3838V37.9907Z" fill="black"/>
<path d="M85.8125 37.9902H82.3975V41.4053H85.8125V37.9902Z" fill="black"/>
<path d="M87.8324 37.9956H85.8047V41.4107H87.8324L89.2197 39.7031L87.8324 37.9956Z" fill="black"/>
<path d="M10.6885 43.4276V41.3999H7.27344V43.4276L8.98096 44.815L10.6885 43.4276Z" fill="black"/>
<path d="M17.5029 41.4004H14.0879V44.8154H17.5029V41.4004Z" fill="black"/>
<path d="M20.917 41.4004H17.502V44.8154H20.917V41.4004Z" fill="black"/>
<path d="M24.3369 41.4004H20.9219V44.8154H24.3369V41.4004Z" fill="black"/>
<path d="M27.7539 41.4004H24.3389V44.8154H27.7539V41.4004Z" fill="black"/>
<path d="M31.1602 41.4004H27.7451V44.8154H31.1602V41.4004Z" fill="black"/>
<path d="M33.1898 41.3999H31.1621V44.815H33.1898L34.5772 43.1074L33.1898 41.3999Z" fill="black"/>
<path d="M42.7975 41.3999H44.8252V44.815H42.7975L41.4102 43.1074L42.7975 41.3999Z" fill="black"/>
<path d="M48.251 41.4004H44.8359V44.8154H48.251V41.4004Z" fill="black"/>
<path d="M51.6582 41.4004H48.2432V44.8154H51.6582V41.4004Z" fill="black"/>
<path d="M78.9756 41.4004H75.5605V44.8154H78.9756V41.4004Z" fill="black"/>
<path d="M82.3838 41.3999H78.9688V44.815H82.3838V41.3999Z" fill="black"/>
<path d="M99.4629 42.7873V44.815H96.0479V42.7873L97.7554 41.3999L99.4629 42.7873Z" fill="black"/>
<path d="M12.069 44.8169H14.0967V48.2319H12.069L10.6816 46.5244L12.069 44.8169Z" fill="black"/>
<path d="M17.5029 44.8174H14.0879V48.2324H17.5029V44.8174Z" fill="black"/>
<path d="M27.7539 44.8174H24.3389V48.2324H27.7539V44.8174Z" fill="black"/>
<path d="M31.1602 44.8174H27.7451V48.2324H31.1602V44.8174Z" fill="black"/>
<path d="M41.4024 46.2043V48.2319H37.9873V46.2043L39.6948 44.8169L41.4024 46.2043Z" fill="black"/>
<path d="M48.251 44.8174H44.8359V48.2324H48.251V44.8174Z" fill="black"/>
<path d="M51.6582 44.8174H48.2432V48.2324H51.6582V44.8174Z" fill="black"/>
<path d="M66.7038 44.8169H68.7315V48.2319H66.7038L65.3164 46.5244L66.7038 44.8169Z" fill="black"/>
<path d="M72.1465 44.8174H68.7314V48.2324H72.1465V44.8174Z" fill="black"/>
<path d="M78.9756 44.8174H75.5605V48.2324H78.9756V44.8174Z" fill="black"/>
<path d="M82.3838 44.8169H78.9688V48.2319H82.3838V44.8169Z" fill="black"/>
<path d="M85.8125 44.8174H82.3975V48.2324H85.8125V44.8174Z" fill="black"/>
<path d="M94.0329 44.8169H96.0606V48.2319H94.0329L92.6455 46.5244L94.0329 44.8169Z" fill="black"/>
<path d="M99.458 44.8174H96.043V48.2324H99.458V44.8174Z" fill="black"/>
<path d="M3.83986 48.2373H0.424805V51.6524H3.83986V48.2373Z" fill="black"/>
<path d="M10.6885 49.6252V51.6528H7.27344V49.6252L8.98096 48.2378L10.6885 49.6252Z" fill="black"/>
<path d="M17.5069 50.2655V48.2378H14.0918V50.2655L15.7993 51.6528L17.5069 50.2655Z" fill="black"/>
<path d="M22.3092 48.2378H24.3369V51.6528H22.3092L20.9219 49.9453L22.3092 48.2378Z" fill="black"/>
<path d="M27.7539 48.2373H24.3389V51.6524H27.7539V48.2373Z" fill="black"/>
<path d="M34.5772 48.2373H31.1621V51.6524H34.5772V48.2373Z" fill="black"/>
<path d="M41.4024 50.2655V48.2378H37.9873V50.2655L39.6948 51.6528L41.4024 50.2655Z" fill="black"/>
<path d="M48.251 48.2373H44.8359V51.6524H48.251V48.2373Z" fill="black"/>
<path d="M51.6582 48.2373H48.2432V51.6524H51.6582V48.2373Z" fill="black"/>
<path d="M55.0713 48.2373H51.6562V51.6524H55.0713V48.2373Z" fill="black"/>
<path d="M58.4756 48.2373H55.0605V51.6524H58.4756V48.2373Z" fill="black"/>
<path d="M61.9014 48.2373H58.4863V51.6524H61.9014V48.2373Z" fill="black"/>
<path d="M63.9164 48.2378H61.8887V51.6528H63.9164L65.3037 49.9453L63.9164 48.2378Z" fill="black"/>
<path d="M72.1465 48.2373H68.7314V51.6524H72.1465V48.2373Z" fill="black"/>
<path d="M74.1742 48.2378H72.1465V51.6528H74.1742L75.5615 49.9453L74.1742 48.2378Z" fill="black"/>
<path d="M82.3838 48.2373H78.9688V51.6524H82.3838V48.2373Z" fill="black"/>
<path d="M85.8125 48.2373H82.3975V51.6524H85.8125V48.2373Z" fill="black"/>
<path d="M89.2295 48.2373H85.8145V51.6524H89.2295V48.2373Z" fill="black"/>
<path d="M92.6367 48.2373H89.2217V51.6524H92.6367V48.2373Z" fill="black"/>
<path d="M10.6885 53.6751V51.6475H7.27344V53.6751L8.98096 55.0625L10.6885 53.6751Z" fill="black"/>
<path d="M20.917 51.6445H17.502V55.0596H20.917V51.6445Z" fill="black"/>
<path d="M42.7975 51.6509H44.8252V55.0659H42.7975L41.4102 53.3584L42.7975 51.6509Z" fill="black"/>
<path d="M48.251 51.6445H44.8359V55.0596H48.251V51.6445Z" fill="black"/>
<path d="M51.6582 51.6445H48.2432V55.0596H51.6582V51.6445Z" fill="black"/>
<path d="M58.4736 53.6786V51.6509H55.0586V53.6786L56.7661 55.0659L58.4736 53.6786Z" fill="black"/>
<path d="M68.7315 53.0382V55.0659H65.3164V53.0382L67.0239 51.6509L68.7315 53.0382Z" fill="black"/>
<path d="M82.3779 53.6786V51.6509H78.9629V53.6786L80.6704 55.0659L82.3779 53.6786Z" fill="black"/>
<path d="M92.6367 51.6445H89.2217V55.0596H92.6367V51.6445Z" fill="black"/>
<path d="M99.458 51.6445H96.043V55.0596H99.458V51.6445Z" fill="black"/>
<path d="M3.83986 55.0684H0.424805V58.4834H3.83986V55.0684Z" fill="black"/>
<path d="M5.84995 55.0684H3.82227V58.4834H5.84995L7.23732 56.7759L5.84995 55.0684Z" fill="black"/>
<path d="M14.0928 55.0684H10.6777V58.4834H14.0928V55.0684Z" fill="black"/>
<path d="M24.3369 55.0684H20.9219V58.4834H24.3369V55.0684Z" fill="black"/>
<path d="M51.6582 55.0684H48.2432V58.4834H51.6582V55.0684Z" fill="black"/>
<path d="M53.6869 55.0684H51.6592V58.4834H53.6869L55.0742 56.7759L53.6869 55.0684Z" fill="black"/>
<path d="M61.9014 55.0684H58.4863V58.4834H61.9014V55.0684Z" fill="black"/>
<path d="M68.7324 55.0684H65.3174V58.4834H68.7324V55.0684Z" fill="black"/>
<path d="M87.1921 55.0684H89.2197V58.4834H87.1921L85.8047 56.7759L87.1921 55.0684Z" fill="black"/>
<path d="M92.6367 55.0684H89.2217V58.4834H92.6367V55.0684Z" fill="black"/>
<path d="M3.83986 58.4785H0.424805V61.8936H3.83986V58.4785Z" fill="black"/>
<path d="M10.6885 59.8654V61.8931H7.27344V59.8654L8.98096 58.478L10.6885 59.8654Z" fill="black"/>
<path d="M17.5069 59.8654V61.8931H14.0918V59.8654L15.7993 58.478L17.5069 59.8654Z" fill="black"/>
<path d="M31.1563 59.8654V61.8931H27.7412V59.8654L29.4487 58.478L31.1563 59.8654Z" fill="black"/>
<path d="M37.9942 58.4785H34.5791V61.8936H37.9942V58.4785Z" fill="black"/>
<path d="M44.8252 59.8654V61.8931H41.4102V59.8654L43.1177 58.478L44.8252 59.8654Z" fill="black"/>
<path d="M58.4736 59.8654V61.8931H55.0586V59.8654L56.7661 58.478L58.4736 59.8654Z" fill="black"/>
<path d="M68.7324 58.4785H65.3174V61.8936H68.7324V58.4785Z" fill="black"/>
<path d="M72.1465 58.4785H68.7314V61.8936H72.1465V58.4785Z" fill="black"/>
<path d="M75.5694 58.4785H72.1543V61.8936H75.5694V58.4785Z" fill="black"/>
<path d="M78.9756 58.4785H75.5605V61.8936H78.9756V58.4785Z" fill="black"/>
<path d="M82.3838 58.4785H78.9688V61.8936H82.3838V58.4785Z" fill="black"/>
<path d="M84.4261 58.478H82.3984V61.8931H84.4261L85.8135 60.1856L84.4261 58.478Z" fill="black"/>
<path d="M92.6367 58.4814H89.2217V61.8965H92.6367V58.4814Z" fill="black"/>
<path d="M96.0537 58.4785H92.6387V61.8936H96.0537V58.4785Z" fill="black"/>
<path d="M99.458 58.4785H96.043V61.8936H99.458V58.4785Z" fill="black"/>
<path d="M3.83986 61.8882H0.424805V65.3032H3.83986V61.8882Z" fill="black"/>
<path d="M7.26271 61.8882H3.84766V65.3032H7.26271V61.8882Z" fill="black"/>
<path d="M10.6797 61.8882H7.26465V65.3032H10.6797V61.8882Z" fill="black"/>
<path d="M14.0928 61.8882H10.6777V65.3032H14.0928V61.8882Z" fill="black"/>
<path d="M17.5029 61.8882H14.0879V65.3032H17.5029V61.8882Z" fill="black"/>
<path d="M20.917 61.8882H17.502V65.3032H20.917V61.8882Z" fill="black"/>
<path d="M22.9496 61.8916H20.9219V65.3067H22.9496L24.3369 63.5991L22.9496 61.8916Z" fill="black"/>
<path d="M31.1563 63.9193V61.8916H27.7412V63.9193L29.4487 65.3067L31.1563 63.9193Z" fill="black"/>
<path d="M44.8213 61.8882H41.4062V65.3032H44.8213V61.8882Z" fill="black"/>
<path d="M48.251 61.8882H44.8359V65.3032H48.251V61.8882Z" fill="black"/>
<path d="M51.6582 61.8882H48.2432V65.3032H51.6582V61.8882Z" fill="black"/>
<path d="M58.4756 61.8882H55.0605V65.3032H58.4756V61.8882Z" fill="black"/>
<path d="M60.5257 61.8916H58.498V65.3067H60.5257L61.9131 63.5991L60.5257 61.8916Z" fill="black"/>
<path d="M68.7324 61.8882H65.3174V65.3032H68.7324V61.8882Z" fill="black"/>
<path d="M72.1465 61.8882H68.7314V65.3032H72.1465V61.8882Z" fill="black"/>
<path d="M78.9756 61.8882H75.5605V65.3032H78.9756V61.8882Z" fill="black"/>
<path d="M82.3838 61.8882H78.9688V65.3032H82.3838V61.8882Z" fill="black"/>
<path d="M89.2295 61.8882H85.8145V65.3032H89.2295V61.8882Z" fill="black"/>
<path d="M99.4629 63.9193V61.8916H96.0479V63.9193L97.7554 65.3067L99.4629 63.9193Z" fill="black"/>
<path d="M3.83986 65.3149H0.424805V68.73H3.83986V65.3149Z" fill="black"/>
<path d="M10.6797 65.3149H7.26465V68.73H10.6797V65.3149Z" fill="black"/>
<path d="M17.5029 65.3149H14.0879V68.73H17.5029V65.3149Z" fill="black"/>
<path d="M20.917 65.3149H17.502V68.73H20.917V65.3149Z" fill="black"/>
<path d="M27.7539 65.3149H24.3389V68.73H27.7539V65.3149Z" fill="black"/>
<path d="M35.9596 65.3086H37.9873V68.7236H35.9596L34.5723 67.0161L35.9596 65.3086Z" fill="black"/>
<path d="M40.015 65.3086H37.9873V68.7236H40.015L41.4024 67.0161L40.015 65.3086Z" fill="black"/>
<path d="M51.6582 65.3149H48.2432V68.73H51.6582V65.3149Z" fill="black"/>
<path d="M55.0713 65.3149H51.6562V68.73H55.0713V65.3149Z" fill="black"/>
<path d="M58.4756 65.3149H55.0605V68.73H58.4756V65.3149Z" fill="black"/>
<path d="M65.3125 65.3149H61.8975V68.73H65.3125V65.3149Z" fill="black"/>
<path d="M72.1465 65.3149H68.7314V68.73H72.1465V65.3149Z" fill="black"/>
<path d="M75.5694 65.3149H72.1543V68.73H75.5694V65.3149Z" fill="black"/>
<path d="M82.3838 65.3149H78.9688V68.73H82.3838V65.3149Z" fill="black"/>
<path d="M3.83986 70.7572V68.7295H0.424805V70.7572L2.13233 72.1445L3.83986 70.7572Z" fill="black"/>
<path d="M10.6797 68.7222H7.26465V72.1372H10.6797V68.7222Z" fill="black"/>
<path d="M12.7093 68.7295H10.6816V72.1445H12.7093L14.0967 70.437L12.7093 68.7295Z" fill="black"/>
<path d="M24.3369 68.7222H20.9219V72.1372H24.3369V68.7222Z" fill="black"/>
<path d="M61.9014 68.7222H58.4863V72.1372H61.9014V68.7222Z" fill="black"/>
<path d="M72.1465 68.7222H68.7314V72.1372H72.1465V68.7222Z" fill="black"/>
<path d="M75.5694 68.7222H72.1543V72.1372H75.5694V68.7222Z" fill="black"/>
<path d="M78.9756 68.7222H75.5605V72.1372H78.9756V68.7222Z" fill="black"/>
<path d="M82.3838 68.7222H78.9688V72.1372H82.3838V68.7222Z" fill="black"/>
<path d="M85.8125 68.7222H82.3975V72.1372H85.8125V68.7222Z" fill="black"/>
<path d="M90.6051 68.7295H92.6328V72.1445H90.6051L89.2178 70.437L90.6051 68.7295Z" fill="black"/>
<path d="M96.0537 68.7222H92.6387V72.1372H96.0537V68.7222Z" fill="black"/>
<path d="M98.0755 68.7295H96.0479V72.1445H98.0755L99.4629 70.437L98.0755 68.7295Z" fill="black"/>
<path d="M29.1286 72.1426H31.1563V75.5576H29.1286L27.7412 73.8501L29.1286 72.1426Z" fill="black"/>
<path d="M34.5772 72.1426H31.1621V75.5576H34.5772V72.1426Z" fill="black"/>
<path d="M37.9942 72.1426H34.5791V75.5576H37.9942V72.1426Z" fill="black"/>
<path d="M42.7975 72.1426H44.8252V75.5576H42.7975L41.4102 73.8501L42.7975 72.1426Z" fill="black"/>
<path d="M48.251 72.1426H44.8359V75.5576H48.251V72.1426Z" fill="black"/>
<path d="M58.4736 73.5299V75.5576H55.0586V73.5299L56.7661 72.1426L58.4736 73.5299Z" fill="black"/>
<path d="M72.1465 72.1426H68.7314V75.5576H72.1465V72.1426Z" fill="black"/>
<path d="M85.8125 72.1426H82.3975V75.5576H85.8125V72.1426Z" fill="black"/>
<path d="M89.2295 72.1426H85.8145V75.5576H89.2295V72.1426Z" fill="black"/>
<path d="M34.5772 75.5493H31.1621V78.9644H34.5772V75.5493Z" fill="black"/>
<path d="M37.9942 75.5464H34.5791V78.9614H37.9942V75.5464Z" fill="black"/>
<path d="M48.251 75.5464H44.8359V78.9614H48.251V75.5464Z" fill="black"/>
<path d="M51.6582 75.5493H48.2432V78.9644H51.6582V75.5493Z" fill="black"/>
<path d="M55.0713 75.5464H51.6562V78.9614H55.0713V75.5464Z" fill="black"/>
<path d="M58.4756 75.5493H55.0605V78.9644H58.4756V75.5493Z" fill="black"/>
<path d="M68.7324 75.5493H65.3174V78.9644H68.7324V75.5493Z" fill="black"/>
<path d="M72.1465 75.5464H68.7314V78.9614H72.1465V75.5464Z" fill="black"/>
<path d="M78.9756 75.5493H75.5605V78.9644H78.9756V75.5493Z" fill="black"/>
<path d="M85.8125 75.5493H82.3975V78.9644H85.8125V75.5493Z" fill="black"/>
<path d="M89.2295 75.5464H85.8145V78.9614H89.2295V75.5464Z" fill="black"/>
<path d="M91.2455 75.5601H89.2178V78.9751H91.2455L92.6328 77.2676L91.2455 75.5601Z" fill="black"/>
<path d="M34.5772 78.9727H31.1621V82.3877H34.5772V78.9727Z" fill="black"/>
<path d="M37.9942 78.9727H34.5791V82.3877H37.9942V78.9727Z" fill="black"/>
<path d="M40.015 78.9692H37.9873V82.3843H40.015L41.4024 80.6768L40.015 78.9692Z" fill="black"/>
<path d="M48.251 78.9727H44.8359V82.3877H48.251V78.9727Z" fill="black"/>
<path d="M55.0713 78.9727H51.6562V82.3877H55.0713V78.9727Z" fill="black"/>
<path d="M58.4756 78.9727H55.0605V82.3877H58.4756V78.9727Z" fill="black"/>
<path d="M68.7324 78.9727H65.3174V82.3877H68.7324V78.9727Z" fill="black"/>
<path d="M72.1465 78.9727H68.7314V82.3877H72.1465V78.9727Z" fill="black"/>
<path d="M85.8125 78.9727H82.3975V82.3877H85.8125V78.9727Z" fill="black"/>
<path d="M94.0329 78.9692H96.0606V82.3843H94.0329L92.6455 80.6768L94.0329 78.9692Z" fill="black"/>
<path d="M98.0755 78.9692H96.0479V82.3843H98.0755L99.4629 80.6768L98.0755 78.9692Z" fill="black"/>
<path d="M34.5772 82.3794H31.1621V85.7944H34.5772V82.3794Z" fill="black"/>
<path d="M48.2256 84.4071V82.3794H44.8105V84.4071L46.5181 85.7944L48.2256 84.4071Z" fill="black"/>
<path d="M58.4756 82.3794H55.0605V85.7944H58.4756V82.3794Z" fill="black"/>
<path d="M68.7324 82.3794H65.3174V85.7944H68.7324V82.3794Z" fill="black"/>
<path d="M72.1465 82.3794H68.7314V85.7944H72.1465V82.3794Z" fill="black"/>
<path d="M75.5694 82.3794H72.1543V85.7944H75.5694V82.3794Z" fill="black"/>
<path d="M78.9756 82.3794H75.5605V85.7944H78.9756V82.3794Z" fill="black"/>
<path d="M82.3838 82.3794H78.9688V85.7944H82.3838V82.3794Z" fill="black"/>
<path d="M85.8125 82.3794H82.3975V85.7944H85.8125V82.3794Z" fill="black"/>
<path d="M89.2295 82.3794H85.8145V85.7944H89.2295V82.3794Z" fill="black"/>
<path d="M34.5772 87.8202V85.7925H31.1621V87.8202L32.8696 89.2075L34.5772 87.8202Z" fill="black"/>
<path d="M41.4024 87.1798V89.2075H37.9873V87.1798L39.6948 85.7925L41.4024 87.1798Z" fill="black"/>
<path d="M55.0713 85.8022H51.6562V89.2173H55.0713V85.8022Z" fill="black"/>
<path d="M58.4756 85.8022H55.0605V89.2173H58.4756V85.8022Z" fill="black"/>
<path d="M65.3125 85.8022H61.8975V89.2173H65.3125V85.8022Z" fill="black"/>
<path d="M75.5694 85.8022H72.1543V89.2173H75.5694V85.8022Z" fill="black"/>
<path d="M89.2295 85.8022H85.8145V89.2173H89.2295V85.8022Z" fill="black"/>
<path d="M92.6367 85.8022H89.2217V89.2173H92.6367V85.8022Z" fill="black"/>
<path d="M96.0537 85.8022H92.6387V89.2173H96.0537V85.8022Z" fill="black"/>
<path d="M37.9942 89.21H34.5791V92.625H37.9942V89.21Z" fill="black"/>
<path d="M41.4014 89.21H37.9863V92.625H41.4014V89.21Z" fill="black"/>
<path d="M55.0713 89.21H51.6562V92.625H55.0713V89.21Z" fill="black"/>
<path d="M58.4756 89.21H55.0605V92.625H58.4756V89.21Z" fill="black"/>
<path d="M66.7038 89.2222H68.7315V92.6372H66.7038L65.3164 90.9297L66.7038 89.2222Z" fill="black"/>
<path d="M72.1465 89.21H68.7314V92.625H72.1465V89.21Z" fill="black"/>
<path d="M75.5694 89.21H72.1543V92.625H75.5694V89.21Z" fill="black"/>
<path d="M77.5882 89.2222H75.5605V92.6372H77.5882L78.9756 90.9297L77.5882 89.2222Z" fill="black"/>
<path d="M85.8125 89.21H82.3975V92.625H85.8125V89.21Z" fill="black"/>
<path d="M89.2295 89.21H85.8145V92.625H89.2295V89.21Z" fill="black"/>
<path d="M92.6367 89.21H89.2217V92.625H92.6367V89.21Z" fill="black"/>
<path d="M96.0537 89.21H92.6387V92.625H96.0537V89.21Z" fill="black"/>
<path d="M32.5495 92.6318H34.5772V96.0469H32.5495L31.1621 94.3394L32.5495 92.6318Z" fill="black"/>
<path d="M37.9942 92.6299H34.5791V96.0449H37.9942V92.6299Z" fill="black"/>
<path d="M41.4014 92.6299H37.9863V96.0449H41.4014V92.6299Z" fill="black"/>
<path d="M51.6582 92.6299H48.2432V96.0449H51.6582V92.6299Z" fill="black"/>
<path d="M58.4736 94.6595V92.6318H55.0586V94.6595L56.7661 96.0469L58.4736 94.6595Z" fill="black"/>
<path d="M65.3125 92.6299H61.8975V96.0449H65.3125V92.6299Z" fill="black"/>
<path d="M75.5694 92.6299H72.1543V96.0449H75.5694V92.6299Z" fill="black"/>
<path d="M85.8125 92.6299H82.3975V96.0449H85.8125V92.6299Z" fill="black"/>
<path d="M89.2295 92.6299H85.8145V96.0449H89.2295V92.6299Z" fill="black"/>
<path d="M92.6367 92.6299H89.2217V96.0449H92.6367V92.6299Z" fill="black"/>
<path d="M99.458 92.6299H96.043V96.0449H99.458V92.6299Z" fill="black"/>
<path d="M31.1602 96.0498H27.7451V99.4649H31.1602V96.0498Z" fill="black"/>
<path d="M37.9873 98.0716V96.0439H34.5723V98.0716L36.2798 99.459L37.9873 98.0716Z" fill="black"/>
<path d="M48.251 96.0498H44.8359V99.4649H48.251V96.0498Z" fill="black"/>
<path d="M61.9014 96.0498H58.4863V99.4649H61.9014V96.0498Z" fill="black"/>
<path d="M68.7324 96.0498H65.3174V99.4649H68.7324V96.0498Z" fill="black"/>
<path d="M75.5615 98.0716V96.0439H72.1465V98.0716L73.854 99.459L75.5615 98.0716Z" fill="black"/>
<path d="M80.3503 96.0439H82.3779V99.459H80.3503L78.9629 97.7515L80.3503 96.0439Z" fill="black"/>
<path d="M85.8125 96.0498H82.3975V99.4649H85.8125V96.0498Z" fill="black"/>
<path d="M89.2295 96.0498H85.8145V99.4649H89.2295V96.0498Z" fill="black"/>
<path d="M92.6367 96.0498H89.2217V99.4649H92.6367V96.0498Z" fill="black"/>
<path d="M16.1687 0.422363H8.58634C4.89105 0.422363 1.7604 2.86382 0.75948 6.20077C0.65597 6.54597 0.57517 6.90072 0.518992 7.26337C0.457077 7.66354 0.424805 8.07328 0.424805 8.49043V16.2527C0.424805 20.7037 4.08711 24.3232 8.58634 24.3232L12.3775 24.3239L16.1687 24.323C20.6676 24.323 24.3302 20.7035 24.3302 16.2525V8.49043C24.3302 4.04164 20.6679 0.422363 16.1687 0.422363ZM20.7444 16.2527C20.7444 18.7255 18.6919 20.7374 16.1677 20.7374L12.3775 20.7381L8.5873 20.7372C6.06313 20.7372 4.01061 18.7253 4.01061 16.2527V8.49043C4.01061 7.71805 4.21094 6.99085 4.56354 6.35544C4.903 5.74418 5.38326 5.2185 5.96153 4.82048C6.70499 4.30866 7.61029 4.00817 8.5861 4.00817H16.1687C18.6919 4.00817 20.7444 6.01885 20.7444 8.49043V16.2527Z" fill="black"/>
<path d="M91.3044 0.422852H83.7221C80.0268 0.422852 76.8961 2.86431 75.8952 6.20126C75.7917 6.54646 75.7109 6.90121 75.6547 7.26386C75.5928 7.66403 75.5605 8.07377 75.5605 8.49092V16.2532C75.5605 20.7042 79.2229 24.3237 83.7221 24.3237L87.5132 24.3244L91.3044 24.3235C95.8034 24.3235 99.4659 20.7039 99.4659 16.253V8.49092C99.4659 4.04213 95.8036 0.422852 91.3044 0.422852ZM95.8801 16.2532C95.8801 18.726 93.8276 20.7379 91.3034 20.7379L87.5132 20.7386L83.723 20.7376C81.1989 20.7376 79.1464 18.7258 79.1464 16.2532V8.49092C79.1464 7.71854 79.3467 6.99133 79.6993 6.35593C80.0387 5.74467 80.519 5.21899 81.0973 4.82096C81.8407 4.30915 82.746 4.00866 83.7218 4.00866H91.3044C93.8276 4.00866 95.8801 6.01934 95.8801 8.49092V16.2532Z" fill="black"/>
<path d="M16.1687 75.5601H8.58634C4.89105 75.5601 1.7604 78.0015 0.75948 81.3385C0.65597 81.6837 0.57517 82.0384 0.518992 82.4011C0.457077 82.8012 0.424805 83.211 0.424805 83.6281V91.3904C0.424805 95.8414 4.08711 99.4609 8.58634 99.4609L12.3775 99.4616L16.1687 99.4607C20.6676 99.4607 24.3302 95.8411 24.3302 91.3902V83.6281C24.3302 79.1793 20.6679 75.5601 16.1687 75.5601ZM20.7444 91.3904C20.7444 93.8632 18.6919 95.8751 16.1677 95.8751L12.3775 95.8758L8.5873 95.8749C6.06313 95.8749 4.01061 93.863 4.01061 91.3904V83.6281C4.01061 82.8557 4.21094 82.1285 4.56354 81.4931C4.903 80.8819 5.38326 80.3562 5.96153 79.9582C6.70499 79.4464 7.61029 79.1459 8.5861 79.1459H16.1687C18.6919 79.1459 20.7444 81.1565 20.7444 83.6281V91.3904Z" fill="black"/>
<path d="M12.2868 17.3031C15.0604 17.3031 17.3089 15.0546 17.3089 12.2809C17.3089 9.50728 15.0604 7.25879 12.2868 7.25879C9.51314 7.25879 7.26465 9.50728 7.26465 12.2809C7.26465 15.0546 9.51314 17.3031 12.2868 17.3031Z" fill="black"/>
<path d="M87.4196 17.3031C90.1933 17.3031 92.4417 15.0546 92.4417 12.2809C92.4417 9.50728 90.1933 7.25879 87.4196 7.25879C84.6459 7.25879 82.3975 9.50728 82.3975 12.2809C82.3975 15.0546 84.6459 17.3031 87.4196 17.3031Z" fill="black"/>
<path d="M12.2868 92.4237C15.0604 92.4237 17.3089 90.1752 17.3089 87.4015C17.3089 84.6279 15.0604 82.3794 12.2868 82.3794C9.51314 82.3794 7.26465 84.6279 7.26465 87.4015C7.26465 90.1752 9.51314 92.4237 12.2868 92.4237Z" fill="black"/>
</svg>
