<svg width="54" height="51" viewBox="0 0 54 51" fill="none" xmlns="http://www.w3.org/2000/svg">
<path d="M9.90954 34.596L1.31606 43.4556C-0.237376 45.0568 -0.198084 47.6143 1.40305 49.1675C3.00448 50.7208 5.56173 50.6816 7.11516 49.0803L15.7086 40.2208C13.4859 38.672 11.5253 36.7704 9.90954 34.596Z" fill="#09090D"/>
<path d="M28.8075 36.7341C37.5968 36.7341 44.716 29.6027 44.716 20.8189C44.716 18.1492 44.0535 15.6289 42.8872 13.4167C42.2807 12.2686 41.4783 11.1111 40.5826 10.1217C38.2033 7.49871 34.9563 5.66917 31.2987 5.09977C29.0687 4.74506 26.6708 4.88507 24.5061 5.49181C17.8068 7.36803 12.8896 13.5194 12.8896 20.8189C12.899 29.612 20.0182 36.7341 28.8075 36.7341Z" fill="url(#paint0_linear_1_25554)" fill-opacity="0.6"/>
<path d="M24.3756 11.5723C19.9293 11.5723 16.334 15.1849 16.334 19.6139C16.334 20.6733 17.2024 21.5418 18.2619 21.5418C19.3214 21.5418 20.1898 20.6733 20.1898 19.6139C20.1898 17.3039 22.0829 15.4107 24.3929 15.4107C25.4524 15.4107 26.3208 14.5423 26.3208 13.4828C26.3035 12.4233 25.435 11.5723 24.3756 11.5723Z" fill="white" fill-opacity="0.1"/>
<path d="M28.7534 0C17.2269 0 7.88281 9.34416 7.88281 20.8707C7.88281 32.3971 17.2271 41.7412 28.7534 41.7412C40.2797 41.7412 49.6239 32.397 49.6239 20.8707C49.6239 9.34426 40.2798 0 28.7534 0ZM28.7534 36.3552C20.2151 36.3552 13.2687 29.4088 13.2687 20.8706C13.2687 12.3323 20.2151 5.38599 28.7534 5.38599C37.2916 5.38599 44.238 12.3324 44.238 20.8707C44.238 29.4089 37.2916 36.3552 28.7534 36.3552Z" fill="#01BC6D"/>
<path d="M51.4247 5.28027C50.991 5.28027 50.5833 5.44926 50.2766 5.75611L44.2687 11.7737L42.6675 10.1726C42.3609 9.86598 41.9533 9.69706 41.5197 9.69706C41.0861 9.69706 40.6785 9.86598 40.3718 10.1725C40.0653 10.4791 39.8965 10.8867 39.8965 11.3203C39.8965 11.7539 40.0653 12.1615 40.3718 12.468L43.1212 15.2173C43.4278 15.524 43.8354 15.6929 44.269 15.6929C44.7024 15.6929 45.1102 15.5239 45.4171 15.2171L52.5725 8.05141C53.2053 7.41842 53.2052 6.3886 52.5725 5.75562C52.2659 5.44912 51.8582 5.28027 51.4247 5.28027Z" fill="white"/>
<path d="M44.6387 4.08643C46.6611 4.08643 48.4961 4.88537 49.8486 6.18311L44.2686 11.7739L42.668 10.1724C42.3614 9.86573 41.9531 9.69678 41.5195 9.69678C41.086 9.69685 40.6786 9.86592 40.3721 10.1724C40.0656 10.4789 39.8966 10.8864 39.8965 11.3198C39.8965 11.7534 40.0655 12.1618 40.3721 12.4683L43.1211 15.2173C43.4277 15.5239 43.8359 15.6929 44.2695 15.6929C44.7027 15.6928 45.1102 15.5238 45.417 15.2173L51.6777 8.9458C51.9923 9.77526 52.167 10.674 52.167 11.6138C52.167 15.7711 48.7961 19.1421 44.6387 19.1421C40.4814 19.142 37.1113 15.7711 37.1113 11.6138C37.1115 7.45659 40.4815 4.08656 44.6387 4.08643Z" fill="#09090D"/>
<defs>
<linearGradient id="paint0_linear_1_25554" x1="16.7824" y1="10.2253" x2="33.5857" y2="41.1434" gradientUnits="userSpaceOnUse">
<stop stop-color="#6C8699"/>
<stop offset="0.370687" stop-color="#374752"/>
<stop offset="1" stop-color="#171D21"/>
</linearGradient>
</defs>
</svg>
