<svg width="18" height="18" viewBox="0 0 18 18" fill="none" xmlns="http://www.w3.org/2000/svg">
<path d="M15.7269 4.12677L10.793 0.674762C9.44815 -0.267475 7.3838 -0.21608 6.09036 0.786117L1.7989 4.13534C0.942322 4.80347 0.265625 6.174 0.265625 7.25329V13.1637C0.265625 15.348 2.03874 17.1296 4.22302 17.1296H13.4569C15.6412 17.1296 17.4143 15.3565 17.4143 13.1722V7.36464C17.4143 6.20826 16.6691 4.78634 15.7269 4.12677ZM9.48241 13.7033C9.48241 14.0545 9.19118 14.3458 8.83998 14.3458C8.48878 14.3458 8.19755 14.0545 8.19755 13.7033V11.1336C8.19755 10.7824 8.48878 10.4912 8.83998 10.4912C9.19118 10.4912 9.48241 10.7824 9.48241 11.1336V13.7033Z" fill="#464F5D"/>
</svg>
