<svg width="38" height="38" viewBox="0 0 38 38" fill="none" xmlns="http://www.w3.org/2000/svg">
<path d="M19.0834 37.8538C29.4964 37.8538 37.9373 29.4129 37.9373 18.9999C37.9373 8.58689 29.4964 0.145996 19.0834 0.145996C8.67039 0.145996 0.229492 8.58689 0.229492 18.9999C0.229492 29.4129 8.67039 37.8538 19.0834 37.8538Z" fill="url(#paint0_linear_1_25082)"/>
<path d="M9.91653 19.2928C11.6761 18.3305 13.6411 17.5272 15.4772 16.7208C18.6329 15.3877 21.8119 14.1105 25.0127 12.8898C25.6347 12.6845 26.7543 12.4821 26.8652 13.3994C26.8053 14.6959 26.558 15.9864 26.3871 17.2754C25.9569 20.1111 25.4593 22.9379 24.9737 25.7632C24.8073 26.706 23.6173 27.1931 22.8574 26.5906C21.0288 25.3645 19.1868 24.152 17.3822 22.8989C16.7916 22.3024 17.3402 21.4466 17.8678 21.0209C19.3726 19.5491 20.9704 18.2991 22.3972 16.7493C22.7824 15.8275 21.6448 16.6054 21.2701 16.8437C19.2077 18.2526 17.1978 19.7484 15.0245 20.9864C13.9154 21.592 12.6204 21.0749 11.5113 20.7361C10.5161 20.327 9.0577 19.9163 9.91653 19.2928Z" fill="#13CD90"/>
<defs>
<linearGradient id="paint0_linear_1_25082" x1="19.0834" y1="0.145996" x2="19.0834" y2="37.8538" gradientUnits="userSpaceOnUse">
<stop stop-color="#161B24"/>
<stop offset="1" stop-color="#0E1117"/>
</linearGradient>
</defs>
</svg>
