<svg width="74" height="57" viewBox="0 0 74 57" fill="none" xmlns="http://www.w3.org/2000/svg">
<path d="M74.0057 13.5185V50.9234C74.0017 52.4395 73.3976 53.8923 72.3256 54.9643C71.2536 56.0363 69.8007 56.6404 68.2847 56.6444H5.78929C4.27322 56.6404 2.82041 56.0363 1.74838 54.9643C0.676356 53.8923 0.0723 52.4395 0.0682373 50.9234V13.5185C0.0723 12.0025 0.676356 10.5496 1.74838 9.47762C2.82041 8.40559 4.27322 7.80153 5.78929 7.79747H20.6794V5.92466C20.6835 4.4086 21.2875 2.95578 22.3595 1.88376C23.4316 0.811733 24.8844 0.207676 26.4004 0.203613H47.6735C49.1896 0.207676 50.6424 0.811733 51.7144 1.88376C52.7864 2.95578 53.3905 4.4086 53.3946 5.92466V7.79747H68.2847C69.8007 7.80153 71.2536 8.40559 72.3256 9.47762C73.3976 10.5496 74.0017 12.0025 74.0057 13.5185ZM54.5644 32.221C54.5644 28.7544 53.5365 25.3656 51.6105 22.4832C49.6846 19.6009 46.9472 17.3543 43.7444 16.0277C40.5417 14.7011 37.0175 14.354 33.6175 15.0303C30.2176 15.7066 27.0945 17.3759 24.6432 19.8272C22.1919 22.2784 20.5226 25.4015 19.8463 28.8015C19.17 32.2015 19.5171 35.7257 20.8437 38.9284C22.1703 42.1311 24.4169 44.8685 27.2993 46.7945C30.1816 48.7204 33.5704 49.7484 37.037 49.7484C41.6855 49.7484 46.1437 47.9018 49.4308 44.6147C52.7178 41.3277 54.5644 36.8695 54.5644 32.221ZM45.3851 23.8677C47.3177 25.7981 48.5212 28.3389 48.7905 31.0572C49.0597 33.7754 48.3781 36.503 46.8617 38.775C45.3454 41.047 43.0881 42.723 40.4746 43.5172C37.861 44.3115 35.0529 44.1749 32.5288 43.1308C30.0046 42.0867 27.9206 40.1997 26.6318 37.7913C25.3431 35.3828 24.9293 32.602 25.461 29.9227C25.9928 27.2434 27.4371 24.8313 29.5479 23.0976C31.6587 21.3638 34.3054 20.4156 37.037 20.4146C38.588 20.4104 40.1245 20.7139 41.5574 21.3075C42.9904 21.9012 44.2914 22.7731 45.3851 23.8728V23.8677ZM42.0859 7.13044C42.0849 7.69693 42.2519 8.25098 42.5659 8.72249C42.8799 9.19399 43.3267 9.56176 43.8497 9.77925C44.3728 9.99674 44.9486 10.0542 45.5044 9.94427C46.0601 9.83438 46.5707 9.5621 46.9716 9.1619C47.3726 8.76169 47.6458 8.25155 47.7566 7.69603C47.8675 7.1405 47.8111 6.56457 47.5946 6.04111C47.378 5.51765 47.0111 5.07019 46.5401 4.75536C46.0692 4.44053 45.5154 4.27249 44.949 4.27249C44.1905 4.27248 43.463 4.57343 42.9263 5.10925C42.3895 5.64507 42.0872 6.37199 42.0859 7.13044Z" fill="#26E0A4"/>
</svg>
