<svg width="24" height="24" viewBox="0 0 24 24" fill="none" xmlns="http://www.w3.org/2000/svg">
<path d="M12 24C18.6276 24 24 18.6276 24 12C24 5.3724 18.6276 0 12 0C5.3724 0 0 5.3724 0 12C0 18.6276 5.3724 24 12 24Z" fill="url(#paint0_linear_82_1278)"/>
<path d="M6.16566 12.1864C7.28561 11.5739 8.53625 11.0626 9.70485 10.5494C11.7134 9.70091 13.7367 8.88801 15.7739 8.11104C16.1698 7.98035 16.8825 7.85157 16.953 8.43539C16.9149 9.26057 16.7575 10.0819 16.6487 10.9023C16.3749 12.7072 16.0582 14.5064 15.7491 16.3046C15.6433 16.9047 14.8858 17.2147 14.4022 16.8312C13.2383 16.0509 12.0659 15.2791 10.9173 14.4816C10.5415 14.1019 10.8906 13.5572 11.2264 13.2863C12.1842 12.3495 13.2011 11.5539 14.1093 10.5675C14.3545 9.98081 13.6304 10.4759 13.3919 10.6276C12.0793 11.5243 10.8 12.4764 9.41676 13.2643C8.71082 13.6497 7.8866 13.3206 7.18067 13.105C6.54724 12.8446 5.61904 12.5832 6.16566 12.1864Z" fill="#13CD90"/>
<defs>
<linearGradient id="paint0_linear_82_1278" x1="12" y1="0" x2="12" y2="24" gradientUnits="userSpaceOnUse">
<stop stop-color="#161B24"/>
<stop offset="1" stop-color="#0E1117"/>
</linearGradient>
</defs>
</svg>
