<svg width="20" height="17" viewBox="0 0 20 17" fill="none" xmlns="http://www.w3.org/2000/svg">
<path d="M19.235 7.12663V9.06128C19.235 9.57782 18.8218 10.0004 18.2958 10.0192H16.4551C15.4408 10.0192 14.5111 9.27729 14.4265 8.26301C14.3702 7.67134 14.5956 7.11724 14.99 6.73219C15.3375 6.37531 15.8165 6.1687 16.3424 6.1687H18.2958C18.8218 6.18748 19.235 6.6101 19.235 7.12663Z" fill="#13CD90"/>
<path d="M17.7978 11.428H16.4548C14.6704 11.428 13.1678 10.085 13.0175 8.37573C12.933 7.39901 13.2898 6.42229 14.0036 5.72732C14.6047 5.10748 15.4405 4.76 16.3421 4.76H17.7978C18.0701 4.76 18.2955 4.5346 18.2673 4.26225C18.0607 1.98011 16.5487 0.421126 14.3041 0.158164C14.0787 0.120598 13.8439 0.111206 13.5998 0.111206H5.14741C4.88445 0.111206 4.63088 0.129989 4.3867 0.167555C1.99187 0.468083 0.45166 2.25247 0.45166 4.80696V11.381C0.45166 13.9731 2.55536 16.0768 5.14741 16.0768H13.5998C16.2294 16.0768 18.0419 14.4332 18.2673 11.9257C18.2955 11.6534 18.0701 11.428 17.7978 11.428ZM10.7823 5.98089H5.14741C4.76236 5.98089 4.44305 5.66158 4.44305 5.27653C4.44305 4.89148 4.76236 4.57217 5.14741 4.57217H10.7823C11.1674 4.57217 11.4867 4.89148 11.4867 5.27653C11.4867 5.66158 11.1674 5.98089 10.7823 5.98089Z" fill="#13CD90"/>
</svg>
