<svg width="54" height="51" viewBox="0 0 54 51" fill="none" xmlns="http://www.w3.org/2000/svg">
<path d="M9.90954 34.5957L1.31606 43.4553C-0.237376 45.0565 -0.198084 47.6141 1.40305 49.1672C3.00448 50.7206 5.56173 50.6814 7.11516 49.08L15.7086 40.2206C13.4859 38.6717 11.5253 36.7701 9.90954 34.5957Z" fill="#09090D"/>
<path d="M28.8075 36.7343C37.5968 36.7343 44.716 29.603 44.716 20.8191C44.716 18.1495 44.0535 15.6292 42.8872 13.417C42.2807 12.2689 41.4783 11.1114 40.5826 10.1219C38.2033 7.49896 34.9563 5.66941 31.2987 5.10001C29.0687 4.7453 26.6708 4.88532 24.5061 5.49205C17.8068 7.36828 12.8896 13.5197 12.8896 20.8191C12.899 29.6122 20.0182 36.7343 28.8075 36.7343Z" fill="url(#paint0_linear_1_5116)" fill-opacity="0.6"/>
<path d="M24.3751 11.5723C19.9288 11.5723 16.3335 15.1849 16.3335 19.6139C16.3335 20.6733 17.2019 21.5418 18.2614 21.5418C19.3209 21.5418 20.1893 20.6733 20.1893 19.6139C20.1893 17.3039 22.0825 15.4107 24.3925 15.4107C25.4519 15.4107 26.3203 14.5423 26.3203 13.4828C26.303 12.4233 25.4346 11.5723 24.3751 11.5723Z" fill="white" fill-opacity="0.1"/>
<path d="M28.7539 0C17.2274 0 7.8833 9.34416 7.8833 20.8707C7.8833 32.3971 17.2276 41.7412 28.7539 41.7412C40.2801 41.7412 49.6244 32.397 49.6244 20.8707C49.6244 9.34426 40.2802 0 28.7539 0ZM28.7539 36.3552C20.2156 36.3552 13.2692 29.4088 13.2692 20.8706C13.2692 12.3323 20.2156 5.38599 28.7539 5.38599C37.2921 5.38599 44.2385 12.3324 44.2385 20.8707C44.2385 29.4089 37.2921 36.3552 28.7539 36.3552Z" fill="#01BC6D"/>
<path d="M51.4242 5.28027C50.9905 5.28027 50.5828 5.44926 50.2761 5.75611L44.2682 11.7737L42.667 10.1726C42.3604 9.86598 41.9528 9.69706 41.5192 9.69706C41.0856 9.69706 40.678 9.86598 40.3713 10.1725C40.0648 10.4791 39.896 10.8867 39.896 11.3203C39.896 11.7539 40.0648 12.1615 40.3713 12.468L43.1207 15.2173C43.4273 15.524 43.8349 15.6929 44.2685 15.6929C44.702 15.6929 45.1097 15.5239 45.4166 15.2171L52.572 8.05141C53.2048 7.41842 53.2047 6.3886 52.572 5.75562C52.2654 5.44912 51.8578 5.28027 51.4242 5.28027Z" fill="white"/>
<path d="M44.6382 4.08643C46.6606 4.08643 48.4957 4.88537 49.8481 6.18311L44.2681 11.7739L42.6675 10.1724C42.3609 9.86573 41.9526 9.69678 41.519 9.69678C41.0855 9.69685 40.6781 9.86592 40.3716 10.1724C40.0651 10.4789 39.8961 10.8864 39.896 11.3198C39.896 11.7534 40.065 12.1618 40.3716 12.4683L43.1206 15.2173C43.4272 15.5239 43.8354 15.6929 44.269 15.6929C44.7022 15.6928 45.1097 15.5238 45.4165 15.2173L51.6772 8.9458C51.9918 9.77526 52.1665 10.674 52.1665 11.6138C52.1665 15.7711 48.7956 19.1421 44.6382 19.1421C40.4809 19.142 37.1108 15.7711 37.1108 11.6138C37.111 7.45659 40.481 4.08656 44.6382 4.08643Z" fill="#09090D"/>
<defs>
<linearGradient id="paint0_linear_1_5116" x1="16.7824" y1="10.2255" x2="33.5857" y2="41.1436" gradientUnits="userSpaceOnUse">
<stop stop-color="#6C8699"/>
<stop offset="0.370687" stop-color="#374752"/>
<stop offset="1" stop-color="#171D21"/>
</linearGradient>
</defs>
</svg>
