<svg width="18" height="18" viewBox="0 0 18 18" fill="none" xmlns="http://www.w3.org/2000/svg">
<path d="M15.7264 4.12677L10.7925 0.674762C9.44766 -0.267475 7.38331 -0.21608 6.08987 0.786117L1.79841 4.13534C0.941834 4.80347 0.265137 6.174 0.265137 7.25329V13.1637C0.265137 15.348 2.03826 17.1296 4.22253 17.1296H13.4565C15.6407 17.1296 17.4138 15.3565 17.4138 13.1722V7.36464C17.4138 6.20826 16.6686 4.78634 15.7264 4.12677ZM9.48193 13.7033C9.48193 14.0545 9.19069 14.3458 8.83949 14.3458C8.48829 14.3458 8.19706 14.0545 8.19706 13.7033V11.1336C8.19706 10.7824 8.48829 10.4912 8.83949 10.4912C9.19069 10.4912 9.48193 10.7824 9.48193 11.1336V13.7033Z" fill="#464F5D"/>
</svg>
