<svg width="105" height="105" viewBox="0 0 105 105" fill="none" xmlns="http://www.w3.org/2000/svg">
<path d="M48.9791 0.662354C49.9673 0.662354 50.7683 1.4634 50.7683 2.45151C50.7683 3.43968 49.9673 4.24067 48.9791 4.24067C47.991 4.24067 47.1899 3.43968 47.1899 2.45151C47.1899 1.4634 47.991 0.662354 48.9791 0.662354Z" fill="black"/>
<path d="M68.6657 2.45151C68.6657 2.8685 68.6657 4.24067 68.6657 4.24067C68.6657 4.24067 67.4477 4.24067 66.8766 4.24059C66.4305 4.24067 65.0874 4.24059 65.0874 4.24059C65.0874 4.24059 65.0874 2.99361 65.0874 2.45147C65.0874 1.4634 65.8884 0.662354 66.8765 0.662354C67.8646 0.662354 68.6657 1.4634 68.6657 2.45151Z" fill="black"/>
<path d="M29.2788 7.82783H32.8571V4.24951C30.8809 4.24952 29.2788 5.85155 29.2788 7.82783Z" fill="black"/>
<path d="M32.8721 4.24951V7.82783H36.4504C36.4504 5.85155 34.8483 4.24951 32.8721 4.24951Z" fill="black"/>
<path d="M41.8121 4.24731C42.2291 4.24731 43.6013 4.24731 43.6013 4.24731C43.6013 4.24731 43.6013 5.46525 43.6013 6.03647C43.6013 6.48237 43.6013 7.82563 43.6013 7.82563C43.6013 7.82563 42.3544 7.82563 41.8121 7.82563C40.8236 7.82563 40.0229 7.02424 40.0229 6.03647C40.0229 5.04859 40.8236 4.24731 41.8121 4.24731Z" fill="black"/>
<path d="M45.3873 7.82563C44.9703 7.82563 43.5981 7.82563 43.5981 7.82563C43.5981 7.82563 43.5981 6.60752 43.5981 6.03647C43.5981 5.59044 43.5981 4.24731 43.5981 4.24731C43.5981 4.24731 44.8453 4.24731 45.3873 4.24731C46.3754 4.24731 47.1765 5.04835 47.1765 6.03647C47.1765 7.02455 46.3754 7.82563 45.3873 7.82563Z" fill="black"/>
<path d="M61.489 6.03647C61.489 6.45346 61.489 7.82563 61.489 7.82563C61.489 7.82563 60.2709 7.82563 59.6998 7.82555C59.2538 7.82563 57.9106 7.82555 57.9106 7.82555C57.9106 7.82555 57.9106 6.57857 57.9106 6.03643C57.9107 5.04836 58.7117 4.24731 59.6998 4.24731C60.6879 4.24731 61.489 5.04836 61.489 6.03647Z" fill="black"/>
<path d="M68.6657 4.24731H65.0874V7.82563H68.6657V4.24731Z" fill="black"/>
<path d="M74.0182 4.24731C75.0063 4.24731 75.8073 5.04836 75.8073 6.03647C75.8073 7.02464 75.0063 7.82563 74.0182 7.82563C73.03 7.82563 72.229 7.02464 72.229 6.03647C72.229 5.04836 73.03 4.24731 74.0182 4.24731Z" fill="black"/>
<path d="M32.8645 7.81689H29.2861V11.3952H32.8645V7.81689Z" fill="black"/>
<path d="M36.4504 7.81738H32.8721V11.3957C34.8483 11.3957 36.4504 9.79363 36.4504 7.81738Z" fill="black"/>
<path d="M56.1275 7.81689C56.5446 7.81689 57.9167 7.81689 57.9167 7.81689C57.9167 7.81689 57.9167 9.03483 57.9167 9.60605C57.9167 10.0519 57.9167 11.3952 57.9167 11.3952C57.9167 11.3952 56.6699 11.3952 56.1275 11.3952C55.1391 11.3952 54.3384 10.5938 54.3384 9.60605C54.3384 8.61817 55.1391 7.81689 56.1275 7.81689Z" fill="black"/>
<path d="M61.4816 7.81738H57.9033V11.3957C59.8796 11.3957 61.4816 9.79363 61.4816 7.81738Z" fill="black"/>
<path d="M68.6442 11.3957V7.81738H65.0659C65.0659 9.79363 66.668 11.3957 68.6442 11.3957Z" fill="black"/>
<path d="M70.4459 11.3952C70.0289 11.3952 68.6567 11.3952 68.6567 11.3952C68.6567 11.3952 68.6567 10.1771 68.6567 9.60605C68.6567 9.16002 68.6567 7.81689 68.6567 7.81689C68.6567 7.81689 69.9039 7.81689 70.4459 7.81689C71.434 7.81689 72.2351 8.61793 72.2351 9.60605C72.2351 10.5941 71.434 11.3952 70.4459 11.3952Z" fill="black"/>
<path d="M29.2861 13.1878C29.2861 12.7708 29.2861 11.3987 29.2861 11.3987C29.2861 11.3987 30.5042 11.3987 31.0753 11.3987C31.5213 11.3987 32.8645 11.3987 32.8645 11.3987C32.8645 11.3987 32.8645 12.6458 32.8645 13.1878C32.8645 14.1759 32.0634 14.977 31.0753 14.977C30.0872 14.977 29.2861 14.1759 29.2861 13.1878Z" fill="black"/>
<path d="M40.0319 13.1878C40.0319 13.6048 40.0319 14.977 40.0319 14.977C40.0319 14.977 38.8139 14.977 38.2428 14.9769C37.7967 14.977 36.4536 14.9769 36.4536 14.9769C36.4536 14.9769 36.4536 13.7299 36.4536 13.1878C36.4537 12.1997 37.2546 11.3987 38.2427 11.3987C39.2308 11.3987 40.0319 12.1997 40.0319 13.1878Z" fill="black"/>
<path d="M48.9791 11.3987C49.9673 11.3987 50.7683 12.1997 50.7683 13.1878C50.7683 14.176 49.9673 14.977 48.9791 14.977C47.991 14.977 47.1899 14.176 47.1899 13.1878C47.1899 12.1997 47.991 11.3987 48.9791 11.3987Z" fill="black"/>
<path d="M63.2877 11.3987C64.2759 11.3987 65.0769 12.1997 65.0769 13.1878C65.0769 14.176 64.2759 14.977 63.2877 14.977C62.2996 14.977 61.4985 14.176 61.4985 13.1878C61.4985 12.1997 62.2996 11.3987 63.2877 11.3987Z" fill="black"/>
<path d="M75.8073 13.1878C75.8073 13.6048 75.8073 14.977 75.8073 14.977C75.8073 14.977 74.5893 14.977 74.0182 14.9769C73.5721 14.977 72.229 14.9769 72.229 14.9769C72.229 14.9769 72.229 13.7299 72.229 13.1878C72.229 12.1997 73.03 11.3987 74.0181 11.3987C75.0062 11.3987 75.8073 12.1997 75.8073 13.1878Z" fill="black"/>
<path d="M34.6607 14.9709C35.0778 14.9709 36.4499 14.9709 36.4499 14.9709C36.4499 14.9709 36.4499 16.1889 36.4499 16.7601C36.4499 17.206 36.4499 18.5493 36.4499 18.5493C36.4499 18.5493 35.2031 18.5493 34.6607 18.5493C33.6723 18.5493 32.8716 17.7479 32.8716 16.7601C32.8716 15.7722 33.6723 14.9709 34.6607 14.9709Z" fill="black"/>
<path d="M40.0319 14.9683H36.4536V18.5466C38.4299 18.5466 40.0319 16.9445 40.0319 14.9683Z" fill="black"/>
<path d="M45.3873 14.9714C46.3755 14.9714 47.1765 15.7725 47.1765 16.7606C47.1765 17.7488 46.3755 18.5498 45.3873 18.5498C44.3992 18.5498 43.5981 17.7488 43.5981 16.7606C43.5981 15.7725 44.3992 14.9714 45.3873 14.9714Z" fill="black"/>
<path d="M52.5548 14.9709C53.543 14.9709 54.3439 15.772 54.3439 16.7601C54.3439 17.7483 53.543 18.5493 52.5548 18.5493C51.5667 18.5493 50.7656 17.7483 50.7656 16.7601C50.7656 15.772 51.5667 14.9709 52.5548 14.9709Z" fill="black"/>
<path d="M61.489 16.7601C61.489 17.1771 61.489 18.5493 61.489 18.5493C61.489 18.5493 60.2709 18.5493 59.6998 18.5492C59.2538 18.5493 57.9106 18.5492 57.9106 18.5492C57.9106 18.5492 57.9106 17.3022 57.9106 16.7601C57.9107 15.772 58.7117 14.9709 59.6998 14.9709C60.6879 14.9709 61.489 15.772 61.489 16.7601Z" fill="black"/>
<path d="M66.8766 14.9709C67.2936 14.9709 68.6657 14.9709 68.6657 14.9709C68.6657 14.9709 68.6657 16.1889 68.6657 16.7601C68.6657 17.206 68.6657 18.5493 68.6657 18.5493C68.6657 18.5493 67.4189 18.5493 66.8766 18.5493C65.8881 18.5493 65.0874 17.7479 65.0874 16.7601C65.0874 15.7722 65.8881 14.9709 66.8766 14.9709Z" fill="black"/>
<path d="M72.2351 14.9709H68.6567V18.5493H72.2351V14.9709Z" fill="black"/>
<path d="M75.8078 14.9683H72.2295V18.5466C74.2057 18.5466 75.8078 16.9445 75.8078 14.9683Z" fill="black"/>
<path d="M41.8121 18.5652C42.8003 18.5652 43.6013 19.3662 43.6013 20.3543C43.6013 21.3425 42.8003 22.1435 41.8121 22.1435C40.824 22.1435 40.0229 21.3425 40.0229 20.3543C40.0229 19.3662 40.824 18.5652 41.8121 18.5652Z" fill="black"/>
<path d="M48.9791 18.5652C49.9673 18.5652 50.7683 19.3662 50.7683 20.3543C50.7683 21.3425 49.9673 22.1435 48.9791 22.1435C47.991 22.1435 47.1899 21.3425 47.1899 20.3543C47.1899 19.3662 47.991 18.5652 48.9791 18.5652Z" fill="black"/>
<path d="M61.489 18.5652H57.9106V22.1435H61.489V18.5652Z" fill="black"/>
<path d="M32.8645 23.9247C32.8645 24.3416 32.8645 25.7138 32.8645 25.7138C32.8645 25.7138 31.6464 25.7138 31.0753 25.7137C30.6293 25.7138 29.2861 25.7137 29.2861 25.7137C29.2861 25.7137 29.2861 24.4668 29.2861 23.9246C29.2862 22.9365 30.0872 22.1355 31.0752 22.1355C32.0634 22.1355 32.8645 22.9365 32.8645 23.9247Z" fill="black"/>
<path d="M40.0319 23.9247C40.0319 24.3416 40.0319 25.7138 40.0319 25.7138C40.0319 25.7138 38.8139 25.7138 38.2428 25.7137C37.7967 25.7138 36.4536 25.7137 36.4536 25.7137C36.4536 25.7137 36.4536 24.4668 36.4536 23.9246C36.4537 22.9365 37.2546 22.1355 38.2427 22.1355C39.2308 22.1355 40.0319 22.9365 40.0319 23.9247Z" fill="black"/>
<path d="M45.3873 22.1355C46.3755 22.1355 47.1765 22.9365 47.1765 23.9247C47.1765 24.9128 46.3755 25.7138 45.3873 25.7138C44.3992 25.7138 43.5981 24.9128 43.5981 23.9247C43.5981 22.9365 44.3992 22.1355 45.3873 22.1355Z" fill="black"/>
<path d="M54.3439 23.9247C54.3439 24.3416 54.3439 25.7138 54.3439 25.7138C54.3439 25.7138 53.1259 25.7138 52.5548 25.7137C52.1088 25.7138 50.7656 25.7137 50.7656 25.7137C50.7656 25.7137 50.7656 24.4668 50.7656 23.9246C50.7657 22.9365 51.5667 22.1355 52.5547 22.1355C53.5429 22.1355 54.3439 22.9365 54.3439 23.9247Z" fill="black"/>
<path d="M61.489 22.1355H57.9106V25.7138H61.489V22.1355Z" fill="black"/>
<path d="M66.8766 22.1355C67.8647 22.1355 68.6657 22.9365 68.6657 23.9247C68.6657 24.9128 67.8647 25.7138 66.8766 25.7138C65.8884 25.7138 65.0874 24.9128 65.0874 23.9247C65.0874 22.9365 65.8884 22.1355 66.8766 22.1355Z" fill="black"/>
<path d="M74.0182 22.1355C75.0063 22.1355 75.8073 22.9365 75.8073 23.9247C75.8073 24.9128 75.0063 25.7138 74.0182 25.7138C73.03 25.7138 72.229 24.9128 72.229 23.9247C72.229 22.9365 73.03 22.1355 74.0182 22.1355Z" fill="black"/>
<path d="M32.8645 25.72H29.2861V29.2983H32.8645V25.72Z" fill="black"/>
<path d="M40.0319 25.72H36.4536V29.2983H40.0319V25.72Z" fill="black"/>
<path d="M41.8121 29.2983C41.3951 29.2983 40.0229 29.2983 40.0229 29.2983C40.0229 29.2983 40.0229 28.0802 40.0229 27.5091C40.0229 27.0631 40.0229 25.72 40.0229 25.72C40.0229 25.72 41.2701 25.72 41.8121 25.72C42.8002 25.72 43.6013 26.521 43.6013 27.5091C43.6013 28.4972 42.8002 29.2983 41.8121 29.2983Z" fill="black"/>
<path d="M54.3395 29.2961V25.7178H50.7612C50.7612 27.694 52.3633 29.2961 54.3395 29.2961Z" fill="black"/>
<path d="M57.9167 25.72H54.3384V29.2983H57.9167V25.72Z" fill="black"/>
<path d="M61.4816 25.7178H57.9033V29.2961C59.8796 29.2961 61.4816 27.694 61.4816 25.7178Z" fill="black"/>
<path d="M2.44834 29.2893C3.43651 29.2893 4.2375 30.0903 4.2375 31.0785C4.2375 32.0666 3.43651 32.8676 2.44834 32.8676C1.46022 32.8676 0.65918 32.0666 0.65918 31.0785C0.65918 30.0903 1.46022 29.2893 2.44834 29.2893Z" fill="black"/>
<path d="M23.921 29.2893C24.9092 29.2893 25.7102 30.0903 25.7102 31.0785C25.7102 32.0666 24.9092 32.8676 23.921 32.8676C22.9329 32.8676 22.1318 32.0666 22.1318 31.0785C22.1318 30.0903 22.9329 29.2893 23.921 29.2893Z" fill="black"/>
<path d="M32.8571 32.8666V29.2883H29.2788C29.2788 31.2646 30.8808 32.8666 32.8571 32.8666Z" fill="black"/>
<path d="M36.4499 29.2893H32.8716V32.8676H36.4499V29.2893Z" fill="black"/>
<path d="M40.0319 29.2883H36.4536V32.8666C38.4299 32.8666 40.0319 31.2646 40.0319 29.2883Z" fill="black"/>
<path d="M63.2877 29.2893C64.2759 29.2893 65.0769 30.0903 65.0769 31.0785C65.0769 32.0666 64.2759 32.8676 63.2877 32.8676C62.2996 32.8676 61.4985 32.0666 61.4985 31.0785C61.4985 30.0903 62.2996 29.2893 63.2877 29.2893Z" fill="black"/>
<path d="M68.6514 32.8666H72.2297V29.2883C70.2535 29.2883 68.6514 30.8904 68.6514 32.8666Z" fill="black"/>
<path d="M75.8073 29.2893H72.229V32.8676H75.8073V29.2893Z" fill="black"/>
<path d="M79.3923 29.2893H75.814V32.8676H79.3923V29.2893Z" fill="black"/>
<path d="M81.1734 32.8676C80.7564 32.8676 79.3843 32.8676 79.3843 32.8676C79.3843 32.8676 79.3843 31.6495 79.3843 31.0785C79.3843 30.6324 79.3843 29.2893 79.3843 29.2893C79.3843 29.2893 80.6314 29.2893 81.1734 29.2893C82.1615 29.2893 82.9626 30.0903 82.9626 31.0785C82.9626 32.0665 82.1615 32.8676 81.1734 32.8676Z" fill="black"/>
<path d="M91.9127 29.29C92.3297 29.29 93.7019 29.29 93.7019 29.29C93.7019 29.29 93.7019 30.508 93.7019 31.0792C93.7019 31.5251 93.7019 32.8684 93.7019 32.8684C93.7019 32.8684 92.455 32.8684 91.9127 32.8684C90.9242 32.8684 90.1235 32.067 90.1235 31.0792C90.1235 30.0913 90.9242 29.29 91.9127 29.29Z" fill="black"/>
<path d="M97.2834 29.2893H93.7051V32.8676H97.2834V29.2893Z" fill="black"/>
<path d="M97.2773 29.2883V32.8666H100.856C100.856 30.8904 99.2536 29.2883 97.2773 29.2883Z" fill="black"/>
<path d="M6.03281 32.8745C7.02098 32.8745 7.82197 33.6756 7.82197 34.6637C7.82197 35.6518 7.02098 36.4528 6.03281 36.4528C5.04469 36.4528 4.24365 35.6518 4.24365 34.6637C4.24365 33.6756 5.04469 32.8745 6.03281 32.8745Z" fill="black"/>
<path d="M20.3448 32.8745C21.333 32.8745 22.134 33.6756 22.134 34.6637C22.134 35.6518 21.333 36.4528 20.3448 36.4528C19.3567 36.4528 18.5557 35.6518 18.5557 34.6637C18.5557 33.6756 19.3567 32.8745 20.3448 32.8745Z" fill="black"/>
<path d="M41.8121 32.8745C42.2291 32.8745 43.6013 32.8745 43.6013 32.8745C43.6013 32.8745 43.6013 34.0924 43.6013 34.6637C43.6013 35.1096 43.6013 36.4528 43.6013 36.4528C43.6013 36.4528 42.3544 36.4528 41.8121 36.4528C40.8236 36.4528 40.0229 35.6514 40.0229 34.6637C40.0229 33.6758 40.8236 32.8745 41.8121 32.8745Z" fill="black"/>
<path d="M47.1765 32.8745H43.5981V36.4528H47.1765V32.8745Z" fill="black"/>
<path d="M50.7683 32.8745H47.1899V36.4528H50.7683V32.8745Z" fill="black"/>
<path d="M54.3439 32.8745H50.7656V36.4528H54.3439V32.8745Z" fill="black"/>
<path d="M54.3345 32.8745V36.4528H57.9128C57.9128 34.4765 56.3107 32.8745 54.3345 32.8745Z" fill="black"/>
<path d="M65.0659 36.4528H68.6442V32.8745C66.668 32.8745 65.0659 34.4766 65.0659 36.4528Z" fill="black"/>
<path d="M72.2297 32.8745H68.6514V36.4528C70.6276 36.4528 72.2297 34.8508 72.2297 32.8745Z" fill="black"/>
<path d="M82.9717 36.4528H86.55V32.8745C84.5738 32.8745 82.9717 34.4766 82.9717 36.4528Z" fill="black"/>
<path d="M88.3307 36.4528C87.9136 36.4528 86.5415 36.4528 86.5415 36.4528C86.5415 36.4528 86.5415 35.2347 86.5415 34.6637C86.5415 34.2176 86.5415 32.8745 86.5415 32.8745C86.5415 32.8745 87.7886 32.8745 88.3307 32.8745C89.3187 32.8745 90.1198 33.6755 90.1198 34.6637C90.1198 35.6517 89.3187 36.4528 88.3307 36.4528Z" fill="black"/>
<path d="M97.2814 36.4528V32.8745H93.7031C93.7031 34.8508 95.3052 36.4528 97.2814 36.4528Z" fill="black"/>
<path d="M100.856 32.8745H97.2773V36.4528C99.2536 36.4528 100.856 34.8508 100.856 32.8745Z" fill="black"/>
<path d="M4.2375 38.2489C4.2375 38.6659 4.2375 40.038 4.2375 40.038C4.2375 40.038 3.01948 40.038 2.44834 40.0379C2.00231 40.038 0.65918 40.0379 0.65918 40.0379C0.65918 40.0379 0.65918 38.791 0.65918 38.2488C0.659223 37.2608 1.46021 36.4597 2.4483 36.4597C3.43641 36.4597 4.2375 37.2608 4.2375 38.2489Z" fill="black"/>
<path d="M11.3947 38.2489C11.3947 38.6659 11.3947 40.038 11.3947 40.038C11.3947 40.038 10.1767 40.038 9.60557 40.0379C9.15954 40.038 7.81641 40.0379 7.81641 40.0379C7.81641 40.0379 7.81641 38.791 7.81641 38.2488C7.81645 37.2608 8.61744 36.4597 9.60552 36.4597C10.5936 36.4597 11.3947 37.2608 11.3947 38.2489Z" fill="black"/>
<path d="M16.7628 36.4597C17.751 36.4597 18.552 37.2608 18.552 38.2489C18.552 39.237 17.751 40.038 16.7628 40.038C15.7747 40.038 14.9736 39.237 14.9736 38.2489C14.9736 37.2608 15.7747 36.4597 16.7628 36.4597Z" fill="black"/>
<path d="M23.921 36.4597C24.338 36.4597 25.7102 36.4597 25.7102 36.4597C25.7102 36.4597 25.7102 37.6776 25.7102 38.2489C25.7102 38.6948 25.7102 40.038 25.7102 40.038C25.7102 40.038 24.4633 40.038 23.921 40.038C22.9325 40.038 22.1318 39.2366 22.1318 38.2489C22.1318 37.261 22.9325 36.4597 23.921 36.4597Z" fill="black"/>
<path d="M27.503 40.038C27.086 40.038 25.7139 40.038 25.7139 40.038C25.7139 40.038 25.7139 38.8199 25.7139 38.2489C25.7139 37.8028 25.7139 36.4597 25.7139 36.4597C25.7139 36.4597 26.961 36.4597 27.503 36.4597C28.4911 36.4597 29.2922 37.2608 29.2922 38.2489C29.2922 39.2369 28.4911 40.038 27.503 40.038Z" fill="black"/>
<path d="M47.1765 36.4597H43.5981V40.038H47.1765V36.4597Z" fill="black"/>
<path d="M50.7683 36.4597H47.1899V40.038H50.7683V36.4597Z" fill="black"/>
<path d="M54.3439 36.4597H50.7656V40.038H54.3439V36.4597Z" fill="black"/>
<path d="M57.9167 36.4597H54.3384V40.038H57.9167V36.4597Z" fill="black"/>
<path d="M63.2877 36.4597C63.7047 36.4597 65.0769 36.4597 65.0769 36.4597C65.0769 36.4597 65.0769 37.6776 65.0769 38.2489C65.0769 38.6948 65.0769 40.038 65.0769 40.038C65.0769 40.038 63.83 40.038 63.2877 40.038C62.2992 40.038 61.4985 39.2366 61.4985 38.2489C61.4985 37.261 62.2992 36.4597 63.2877 36.4597Z" fill="black"/>
<path d="M68.6442 36.4561H65.0659V40.0344C67.0422 40.0344 68.6442 38.4323 68.6442 36.4561Z" fill="black"/>
<path d="M79.3843 40.0344H82.9626V36.4561C80.9864 36.4561 79.3843 38.0581 79.3843 40.0344Z" fill="black"/>
<path d="M86.55 36.4561H82.9717V40.0344C84.9479 40.0344 86.55 38.4323 86.55 36.4561Z" fill="black"/>
<path d="M4.23847 43.6037V40.0254H0.660156C0.660163 42.0016 2.26219 43.6037 4.23847 43.6037Z" fill="black"/>
<path d="M7.82197 40.0259H4.24365V43.6042H7.82197V40.0259Z" fill="black"/>
<path d="M11.3947 40.0259H7.81641V43.6042H11.3947V40.0259Z" fill="black"/>
<path d="M20.3448 40.0259C21.333 40.0259 22.134 40.8269 22.134 41.815C22.134 42.8032 21.333 43.6042 20.3448 43.6042C19.3567 43.6042 18.5557 42.8032 18.5557 41.815C18.5557 40.8269 19.3567 40.0259 20.3448 40.0259Z" fill="black"/>
<path d="M34.6607 40.0259C35.0778 40.0259 36.4499 40.0259 36.4499 40.0259C36.4499 40.0259 36.4499 41.2438 36.4499 41.815C36.4499 42.2609 36.4499 43.6042 36.4499 43.6042C36.4499 43.6042 35.2031 43.6042 34.6607 43.6042C33.6723 43.6042 32.8716 42.8028 32.8716 41.815C32.8716 40.8272 33.6723 40.0259 34.6607 40.0259Z" fill="black"/>
<path d="M40.0319 40.0259H36.4536V43.6042H40.0319V40.0259Z" fill="black"/>
<path d="M43.6013 40.0259H40.0229V43.6042H43.6013V40.0259Z" fill="black"/>
<path d="M47.1765 40.0259H43.5981V43.6042H47.1765V40.0259Z" fill="black"/>
<path d="M50.7683 40.0259H47.1899V43.6042H50.7683V40.0259Z" fill="black"/>
<path d="M57.9167 40.0259H54.3384V43.6042H57.9167V40.0259Z" fill="black"/>
<path d="M74.0182 40.0259C74.4352 40.0259 75.8073 40.0259 75.8073 40.0259C75.8073 40.0259 75.8073 41.2438 75.8073 41.815C75.8073 42.2609 75.8073 43.6042 75.8073 43.6042C75.8073 43.6042 74.5605 43.6042 74.0182 43.6042C73.0297 43.6042 72.229 42.8028 72.229 41.815C72.229 40.8272 73.0297 40.0259 74.0182 40.0259Z" fill="black"/>
<path d="M79.3923 40.0259H75.814V43.6042H79.3923V40.0259Z" fill="black"/>
<path d="M82.9626 40.0259H79.3843V43.6042H82.9626V40.0259Z" fill="black"/>
<path d="M88.3307 40.0259C88.7477 40.0259 90.1198 40.0259 90.1198 40.0259C90.1198 40.0259 90.1198 41.2438 90.1198 41.815C90.1198 42.2609 90.1198 43.6042 90.1198 43.6042C90.1198 43.6042 88.873 43.6042 88.3307 43.6042C87.3422 43.6042 86.5415 42.8028 86.5415 41.815C86.5415 40.8272 87.3422 40.0259 88.3307 40.0259Z" fill="black"/>
<path d="M91.9127 43.6042C91.4957 43.6042 90.1235 43.6042 90.1235 43.6042C90.1235 43.6042 90.1235 42.3861 90.1235 41.815C90.1235 41.369 90.1235 40.0259 90.1235 40.0259C90.1235 40.0259 91.3707 40.0259 91.9127 40.0259C92.9008 40.0259 93.7019 40.8269 93.7019 41.815C93.7019 42.8031 92.9008 43.6042 91.9127 43.6042Z" fill="black"/>
<path d="M11.3947 43.5989H7.81641V47.1772H11.3947V43.5989Z" fill="black"/>
<path d="M14.9802 43.5989H11.4019V47.1772H14.9802V43.5989Z" fill="black"/>
<path d="M14.9673 43.5945V47.1728H18.5456C18.5456 45.1965 16.9435 43.5945 14.9673 43.5945Z" fill="black"/>
<path d="M23.921 43.5989C24.9092 43.5989 25.7102 44.3999 25.7102 45.388C25.7102 46.3762 24.9092 47.1772 23.921 47.1772C22.9329 47.1772 22.1318 46.3762 22.1318 45.388C22.1318 44.3999 22.9329 43.5989 23.921 43.5989Z" fill="black"/>
<path d="M31.0753 43.5989C32.0635 43.5989 32.8645 44.3999 32.8645 45.388C32.8645 46.3762 32.0635 47.1772 31.0753 47.1772C30.0872 47.1772 29.2861 46.3762 29.2861 45.388C29.2861 44.3999 30.0872 43.5989 31.0753 43.5989Z" fill="black"/>
<path d="M43.6013 43.5989H40.0229V47.1772H43.6013V43.5989Z" fill="black"/>
<path d="M47.1765 43.5989H43.5981V47.1772H47.1765V43.5989Z" fill="black"/>
<path d="M50.7702 43.5945H47.1919V47.1728C49.1681 47.1728 50.7702 45.5707 50.7702 43.5945Z" fill="black"/>
<path d="M57.9167 43.5989H54.3384V47.1772H57.9167V43.5989Z" fill="black"/>
<path d="M72.2351 45.388C72.2351 45.805 72.2351 47.1772 72.2351 47.1772C72.2351 47.1772 71.017 47.1772 70.4459 47.1771C69.9999 47.1772 68.6567 47.1771 68.6567 47.1771C68.6567 47.1771 68.6567 45.9301 68.6567 45.388C68.6568 44.3999 69.4578 43.5989 70.4459 43.5989C71.434 43.5989 72.2351 44.3999 72.2351 45.388Z" fill="black"/>
<path d="M82.9626 43.5989H79.3843V47.1772H82.9626V43.5989Z" fill="black"/>
<path d="M82.9717 43.5945V47.1728H86.55C86.55 45.1965 84.9479 43.5945 82.9717 43.5945Z" fill="black"/>
<path d="M104.436 45.388C104.436 45.805 104.436 47.1772 104.436 47.1772C104.436 47.1772 103.218 47.1772 102.647 47.1771C102.201 47.1772 100.857 47.1771 100.857 47.1771C100.857 47.1771 100.857 45.9301 100.857 45.388C100.857 44.3999 101.658 43.5989 102.647 43.5989C103.635 43.5989 104.436 44.3999 104.436 45.388Z" fill="black"/>
<path d="M2.44834 47.1873C3.43651 47.1873 4.2375 47.9883 4.2375 48.9764C4.2375 49.9646 3.43651 50.7656 2.44834 50.7656C1.46022 50.7656 0.65918 49.9646 0.65918 48.9764C0.65918 47.9883 1.46022 47.1873 2.44834 47.1873Z" fill="black"/>
<path d="M7.81641 48.9764C7.81641 48.5594 7.81641 47.1873 7.81641 47.1873C7.81641 47.1873 9.03447 47.1873 9.60557 47.1873C10.0516 47.1873 11.3947 47.1873 11.3947 47.1873C11.3947 47.1873 11.3947 48.4344 11.3947 48.9764C11.3947 49.9645 10.5936 50.7656 9.60557 50.7656C8.61744 50.7656 7.81641 49.9645 7.81641 48.9764Z" fill="black"/>
<path d="M18.552 47.1873H14.9736V50.7656H18.552V47.1873Z" fill="black"/>
<path d="M29.2922 48.9764C29.2922 49.3934 29.2922 50.7656 29.2922 50.7656C29.2922 50.7656 28.0742 50.7656 27.503 50.7655C27.057 50.7656 25.7139 50.7655 25.7139 50.7655C25.7139 50.7655 25.7139 49.5185 25.7139 48.9764C25.7139 47.9883 26.5149 47.1873 27.503 47.1873C28.4911 47.1873 29.2922 47.9883 29.2922 48.9764Z" fill="black"/>
<path d="M36.4536 50.7658H40.0319V47.1875C38.0557 47.1875 36.4536 48.7895 36.4536 50.7658Z" fill="black"/>
<path d="M43.6013 47.1873H40.0229V50.7656H43.6013V47.1873Z" fill="black"/>
<path d="M47.1706 47.1875H43.5923V50.7658C45.5685 50.7658 47.1706 49.1637 47.1706 47.1875Z" fill="black"/>
<path d="M57.9167 47.1873H54.3384V50.7656H57.9167V47.1873Z" fill="black"/>
<path d="M61.489 47.1873H57.9106V50.7656H61.489V47.1873Z" fill="black"/>
<path d="M65.0769 47.1873H61.4985V50.7656H65.0769V47.1873Z" fill="black"/>
<path d="M68.6657 47.1873H65.0874V50.7656H68.6657V47.1873Z" fill="black"/>
<path d="M72.2351 47.1873H68.6567V50.7656H72.2351V47.1873Z" fill="black"/>
<path d="M72.2295 47.1875V50.7658H75.8078C75.8078 48.7895 74.2057 47.1875 72.2295 47.1875Z" fill="black"/>
<path d="M82.9626 47.1873H79.3843V50.7656H82.9626V47.1873Z" fill="black"/>
<path d="M86.55 47.1873H82.9717V50.7656H86.55V47.1873Z" fill="black"/>
<path d="M88.3307 50.7656C87.9136 50.7656 86.5415 50.7656 86.5415 50.7656C86.5415 50.7656 86.5415 49.5475 86.5415 48.9764C86.5415 48.5304 86.5415 47.1873 86.5415 47.1873C86.5415 47.1873 87.7886 47.1873 88.3307 47.1873C89.3187 47.1873 90.1198 47.9883 90.1198 48.9764C90.1198 49.9645 89.3187 50.7656 88.3307 50.7656Z" fill="black"/>
<path d="M99.0738 47.1873C99.4908 47.1873 100.863 47.1873 100.863 47.1873C100.863 47.1873 100.863 48.4052 100.863 48.9764C100.863 49.4223 100.863 50.7656 100.863 50.7656C100.863 50.7656 99.6162 50.7656 99.0738 50.7656C98.0854 50.7656 97.2847 49.9642 97.2847 48.9764C97.2847 47.9885 98.0854 47.1873 99.0738 47.1873Z" fill="black"/>
<path d="M104.436 47.1875H100.858V50.7658C102.834 50.7658 104.436 49.1637 104.436 47.1875Z" fill="black"/>
<path d="M7.82197 52.5584C7.82197 52.9754 7.82197 54.3476 7.82197 54.3476C7.82197 54.3476 6.60395 54.3476 6.03281 54.3475C5.58678 54.3476 4.24365 54.3475 4.24365 54.3475C4.24365 54.3475 4.24365 53.1005 4.24365 52.5584C4.2437 51.5703 5.04469 50.7693 6.03277 50.7693C7.02089 50.7693 7.82197 51.5703 7.82197 52.5584Z" fill="black"/>
<path d="M11.4111 54.3515H14.9895V50.7732C13.0132 50.7732 11.4111 52.3752 11.4111 54.3515Z" fill="black"/>
<path d="M18.552 50.7693H14.9736V54.3476H18.552V50.7693Z" fill="black"/>
<path d="M22.134 50.7693H18.5557V54.3476H22.134V50.7693Z" fill="black"/>
<path d="M25.7102 50.7693H22.1318V54.3476H25.7102V50.7693Z" fill="black"/>
<path d="M29.2922 50.7693H25.7139V54.3476H29.2922V50.7693Z" fill="black"/>
<path d="M31.0753 54.3476C30.6583 54.3476 29.2861 54.3476 29.2861 54.3476C29.2861 54.3476 29.2861 53.1295 29.2861 52.5584C29.2861 52.1124 29.2861 50.7693 29.2861 50.7693C29.2861 50.7693 30.5333 50.7693 31.0753 50.7693C32.0634 50.7693 32.8645 51.5703 32.8645 52.5584C32.8645 53.5465 32.0634 54.3476 31.0753 54.3476Z" fill="black"/>
<path d="M36.4536 52.5584C36.4536 52.1414 36.4536 50.7693 36.4536 50.7693C36.4536 50.7693 37.6717 50.7693 38.2428 50.7693C38.6888 50.7693 40.0319 50.7693 40.0319 50.7693C40.0319 50.7693 40.0319 52.0164 40.0319 52.5584C40.0319 53.5465 39.2308 54.3476 38.2428 54.3476C37.2546 54.3476 36.4536 53.5465 36.4536 52.5584Z" fill="black"/>
<path d="M57.9167 50.7693H54.3384V54.3476H57.9167V50.7693Z" fill="black"/>
<path d="M61.489 50.7693H57.9106V54.3476H61.489V50.7693Z" fill="black"/>
<path d="M65.0769 50.7693H61.4985V54.3476H65.0769V50.7693Z" fill="black"/>
<path d="M68.6442 50.7732H65.0659V54.3515C67.0422 54.3515 68.6442 52.7494 68.6442 50.7732Z" fill="black"/>
<path d="M75.8073 50.7693H72.229V54.3476H75.8073V50.7693Z" fill="black"/>
<path d="M82.9626 50.7693H79.3843V54.3476H82.9626V50.7693Z" fill="black"/>
<path d="M91.9127 50.7659C92.3297 50.7659 93.7019 50.7659 93.7019 50.7659C93.7019 50.7659 93.7019 51.9838 93.7019 52.555C93.7019 53.0009 93.7019 54.3442 93.7019 54.3442C93.7019 54.3442 92.455 54.3442 91.9127 54.3442C90.9242 54.3442 90.1235 53.5428 90.1235 52.555C90.1235 51.5671 90.9242 50.7659 91.9127 50.7659Z" fill="black"/>
<path d="M93.7031 50.7732V54.3515H97.2814C97.2814 52.3752 95.6794 50.7732 93.7031 50.7732Z" fill="black"/>
<path d="M7.82197 54.3411H4.24365V57.9194H7.82197V54.3411Z" fill="black"/>
<path d="M11.3947 54.3411H7.81641V57.9194H11.3947V54.3411Z" fill="black"/>
<path d="M14.9802 54.3411H11.4019V57.9194H14.9802V54.3411Z" fill="black"/>
<path d="M25.7139 56.1302C25.7139 55.7132 25.7139 54.3411 25.7139 54.3411C25.7139 54.3411 26.9319 54.3411 27.503 54.3411C27.9491 54.3411 29.2922 54.3411 29.2922 54.3411C29.2922 54.3411 29.2922 55.5882 29.2922 56.1302C29.2922 57.1183 28.4911 57.9194 27.503 57.9194C26.5149 57.9194 25.7139 57.1183 25.7139 56.1302Z" fill="black"/>
<path d="M34.6607 54.3411C35.6489 54.3411 36.4499 55.1421 36.4499 56.1302C36.4499 57.1184 35.6489 57.9194 34.6607 57.9194C33.6726 57.9194 32.8716 57.1184 32.8716 56.1302C32.8716 55.1421 33.6726 54.3411 34.6607 54.3411Z" fill="black"/>
<path d="M43.6013 56.1302C43.6013 56.5472 43.6013 57.9194 43.6013 57.9194C43.6013 57.9194 42.3833 57.9194 41.8121 57.9193C41.3661 57.9194 40.0229 57.9193 40.0229 57.9193C40.0229 57.9193 40.0229 56.6723 40.0229 56.1302C40.023 55.1421 40.824 54.3411 41.8121 54.3411C42.8002 54.3411 43.6013 55.1421 43.6013 56.1302Z" fill="black"/>
<path d="M57.9167 54.3411H54.3384V57.9194H57.9167V54.3411Z" fill="black"/>
<path d="M75.8078 57.9208V54.3425H72.2295C72.2295 56.3188 73.8315 57.9208 75.8078 57.9208Z" fill="black"/>
<path d="M79.3923 54.3411H75.814V57.9194H79.3923V54.3411Z" fill="black"/>
<path d="M82.9626 54.3411H79.3843V57.9194H82.9626V54.3411Z" fill="black"/>
<path d="M84.7608 57.9194C84.3438 57.9194 82.9717 57.9194 82.9717 57.9194C82.9717 57.9194 82.9717 56.7013 82.9717 56.1302C82.9717 55.6842 82.9717 54.3411 82.9717 54.3411C82.9717 54.3411 84.2188 54.3411 84.7608 54.3411C85.7489 54.3411 86.55 55.1421 86.55 56.1302C86.55 57.1183 85.7489 57.9194 84.7608 57.9194Z" fill="black"/>
<path d="M97.2834 54.3411H93.7051V57.9194H97.2834V54.3411Z" fill="black"/>
<path d="M102.647 54.3411C103.635 54.3411 104.436 55.1421 104.436 56.1302C104.436 57.1184 103.635 57.9194 102.647 57.9194C101.658 57.9194 100.857 57.1184 100.857 56.1302C100.857 55.1421 101.658 54.3411 102.647 54.3411Z" fill="black"/>
<path d="M4.24365 59.6939C4.24365 59.2769 4.24365 57.9048 4.24365 57.9048C4.24365 57.9048 5.46172 57.9048 6.03281 57.9048C6.47884 57.9048 7.82197 57.9048 7.82197 57.9048C7.82197 57.9048 7.82197 59.1519 7.82197 59.6939C7.82197 60.682 7.02089 61.4831 6.03281 61.4831C5.04469 61.4831 4.24365 60.682 4.24365 59.6939Z" fill="black"/>
<path d="M14.9802 57.9048H11.4019V61.4831H14.9802V57.9048Z" fill="black"/>
<path d="M23.921 57.9048C24.9092 57.9048 25.7102 58.7058 25.7102 59.6939C25.7102 60.6821 24.9092 61.4831 23.921 61.4831C22.9329 61.4831 22.1318 60.6821 22.1318 59.6939C22.1318 58.7058 22.9329 57.9048 23.921 57.9048Z" fill="black"/>
<path d="M43.6013 61.4899V57.9116H40.0229C40.023 59.8879 41.625 61.4899 43.6013 61.4899Z" fill="black"/>
<path d="M43.5923 57.9116V61.4899H47.1706C47.1706 59.5137 45.5685 57.9116 43.5923 57.9116Z" fill="black"/>
<path d="M57.9167 57.9048H54.3384V61.4831H57.9167V57.9048Z" fill="black"/>
<path d="M61.4966 61.4899H65.0749V57.9116C63.0987 57.9116 61.4966 59.5137 61.4966 61.4899Z" fill="black"/>
<path d="M68.6657 57.9048H65.0874V61.4831H68.6657V57.9048Z" fill="black"/>
<path d="M68.6514 57.9116V61.4899H72.2297C72.2297 59.5137 70.6276 57.9116 68.6514 57.9116Z" fill="black"/>
<path d="M75.814 59.6939C75.814 59.2769 75.814 57.9048 75.814 57.9048C75.814 57.9048 77.032 57.9048 77.6031 57.9048C78.0492 57.9048 79.3923 57.9048 79.3923 57.9048C79.3923 57.9048 79.3923 59.1519 79.3923 59.6939C79.3923 60.682 78.5912 61.4831 77.6031 61.4831C76.615 61.4831 75.814 60.682 75.814 59.6939Z" fill="black"/>
<path d="M91.9127 57.9048C92.3297 57.9048 93.7019 57.9048 93.7019 57.9048C93.7019 57.9048 93.7019 59.1227 93.7019 59.6939C93.7019 60.1398 93.7019 61.4831 93.7019 61.4831C93.7019 61.4831 92.455 61.4831 91.9127 61.4831C90.9242 61.4831 90.1235 60.6817 90.1235 59.6939C90.1235 58.7061 90.9242 57.9048 91.9127 57.9048Z" fill="black"/>
<path d="M97.2834 57.9048H93.7051V61.4831H97.2834V57.9048Z" fill="black"/>
<path d="M4.2375 63.2916C4.2375 63.7086 4.2375 65.0808 4.2375 65.0808C4.2375 65.0808 3.01948 65.0808 2.44834 65.0807C2.00231 65.0808 0.65918 65.0807 0.65918 65.0807C0.65918 65.0807 0.65918 63.8337 0.65918 63.2916C0.659223 62.3035 1.46021 61.5024 2.4483 61.5024C3.43641 61.5024 4.2375 62.3035 4.2375 63.2916Z" fill="black"/>
<path d="M11.4019 63.2916C11.4019 62.8746 11.4019 61.5024 11.4019 61.5024C11.4019 61.5024 12.6199 61.5024 13.191 61.5024C13.637 61.5024 14.9802 61.5024 14.9802 61.5024C14.9802 61.5024 14.9802 62.7496 14.9802 63.2916C14.9802 64.2797 14.1791 65.0808 13.191 65.0808C12.2029 65.0808 11.4019 64.2797 11.4019 63.2916Z" fill="black"/>
<path d="M20.3448 61.5024C21.333 61.5024 22.134 62.3035 22.134 63.2916C22.134 64.2798 21.333 65.0808 20.3448 65.0808C19.3567 65.0808 18.5557 64.2798 18.5557 63.2916C18.5557 62.3035 19.3567 61.5024 20.3448 61.5024Z" fill="black"/>
<path d="M29.2788 65.0756H32.8571V61.4973C30.8809 61.4973 29.2788 63.0994 29.2788 65.0756Z" fill="black"/>
<path d="M34.6607 65.0808C34.2437 65.0808 32.8716 65.0808 32.8716 65.0808C32.8716 65.0808 32.8716 63.8627 32.8716 63.2916C32.8716 62.8456 32.8716 61.5024 32.8716 61.5024C32.8716 61.5024 34.1187 61.5024 34.6607 61.5024C35.6488 61.5024 36.4499 62.3035 36.4499 63.2916C36.4499 64.2797 35.6488 65.0808 34.6607 65.0808Z" fill="black"/>
<path d="M47.1765 61.5024H43.5981V65.0808H47.1765V61.5024Z" fill="black"/>
<path d="M50.7683 61.5024H47.1899V65.0808H50.7683V61.5024Z" fill="black"/>
<path d="M54.3439 61.5024H50.7656V65.0808H54.3439V61.5024Z" fill="black"/>
<path d="M57.9167 61.5024H54.3384V65.0808H57.9167V61.5024Z" fill="black"/>
<path d="M61.489 61.5024H57.9106V65.0808H61.489V61.5024Z" fill="black"/>
<path d="M65.0749 61.4973H61.4966V65.0756C63.4728 65.0756 65.0749 63.4736 65.0749 61.4973Z" fill="black"/>
<path d="M72.2351 61.5024H68.6567V65.0808H72.2351V61.5024Z" fill="black"/>
<path d="M74.0182 65.0808C73.6011 65.0808 72.229 65.0808 72.229 65.0808C72.229 65.0808 72.229 63.8627 72.229 63.2916C72.229 62.8456 72.229 61.5024 72.229 61.5024C72.229 61.5024 73.4761 61.5024 74.0182 61.5024C75.0062 61.5024 75.8073 62.3035 75.8073 63.2916C75.8073 64.2797 75.0062 65.0808 74.0182 65.0808Z" fill="black"/>
<path d="M81.1734 61.5024C82.1616 61.5024 82.9626 62.3035 82.9626 63.2916C82.9626 64.2798 82.1616 65.0808 81.1734 65.0808C80.1853 65.0808 79.3843 64.2798 79.3843 63.2916C79.3843 62.3035 80.1853 61.5024 81.1734 61.5024Z" fill="black"/>
<path d="M88.3307 61.5024C89.3188 61.5024 90.1198 62.3035 90.1198 63.2916C90.1198 64.2798 89.3188 65.0808 88.3307 65.0808C87.3425 65.0808 86.5415 64.2798 86.5415 63.2916C86.5415 62.3035 87.3425 61.5024 88.3307 61.5024Z" fill="black"/>
<path d="M97.2814 65.0756V61.4973H93.7031C93.7031 63.4736 95.3052 65.0756 97.2814 65.0756Z" fill="black"/>
<path d="M100.863 61.5024H97.2847V65.0808H100.863V61.5024Z" fill="black"/>
<path d="M100.858 61.4973V65.0756H104.436C104.436 63.0993 102.834 61.4973 100.858 61.4973Z" fill="black"/>
<path d="M4.2375 65.0776H0.65918V68.656H4.2375V65.0776Z" fill="black"/>
<path d="M7.82197 65.0776H4.24365V68.656H7.82197V65.0776Z" fill="black"/>
<path d="M9.60557 68.656C9.18854 68.656 7.81641 68.656 7.81641 68.656C7.81641 68.656 7.81641 67.4378 7.81641 66.8668C7.81641 66.4208 7.81641 65.0776 7.81641 65.0776C7.81641 65.0776 9.06353 65.0776 9.60557 65.0776C10.5936 65.0776 11.3947 65.8787 11.3947 66.8668C11.3947 67.8549 10.5936 68.656 9.60557 68.656Z" fill="black"/>
<path d="M18.552 66.8668C18.552 67.2838 18.552 68.656 18.552 68.656C18.552 68.656 17.3339 68.656 16.7628 68.6559C16.3168 68.656 14.9736 68.6559 14.9736 68.6559C14.9736 68.6559 14.9736 67.4089 14.9736 66.8668C14.9737 65.8787 15.7747 65.0776 16.7627 65.0776C17.7509 65.0776 18.552 65.8787 18.552 66.8668Z" fill="black"/>
<path d="M23.921 65.0776C24.338 65.0776 25.7102 65.0776 25.7102 65.0776C25.7102 65.0776 25.7102 66.2956 25.7102 66.8668C25.7102 67.3127 25.7102 68.656 25.7102 68.656C25.7102 68.656 24.4633 68.656 23.921 68.656C22.9325 68.656 22.1318 67.8546 22.1318 66.8668C22.1318 65.8789 22.9325 65.0776 23.921 65.0776Z" fill="black"/>
<path d="M29.2922 65.0776H25.7139V68.656H29.2922V65.0776Z" fill="black"/>
<path d="M32.8645 65.0776H29.2861V68.656H32.8645V65.0776Z" fill="black"/>
<path d="M40.0229 68.6577H43.6013V65.0793C41.625 65.0794 40.0229 66.6814 40.0229 68.6577Z" fill="black"/>
<path d="M47.1706 65.0793H43.5923V68.6577C45.5685 68.6577 47.1706 67.0556 47.1706 65.0793Z" fill="black"/>
<path d="M54.3384 66.8668C54.3384 66.4498 54.3384 65.0776 54.3384 65.0776C54.3384 65.0776 55.5564 65.0776 56.1275 65.0776C56.5736 65.0776 57.9167 65.0776 57.9167 65.0776C57.9167 65.0776 57.9167 66.3248 57.9167 66.8668C57.9167 67.8549 57.1156 68.656 56.1275 68.656C55.1394 68.656 54.3384 67.8549 54.3384 66.8668Z" fill="black"/>
<path d="M72.2351 65.0776H68.6567V68.656H72.2351V65.0776Z" fill="black"/>
<path d="M91.9127 65.0776C92.9009 65.0776 93.7019 65.8787 93.7019 66.8668C93.7019 67.855 92.9009 68.656 91.9127 68.656C90.9246 68.656 90.1235 67.855 90.1235 66.8668C90.1235 65.8787 90.9246 65.0776 91.9127 65.0776Z" fill="black"/>
<path d="M100.857 66.8668C100.857 66.4498 100.857 65.0776 100.857 65.0776C100.857 65.0776 102.075 65.0776 102.647 65.0776C103.093 65.0776 104.436 65.0776 104.436 65.0776C104.436 65.0776 104.436 66.3248 104.436 66.8668C104.436 67.8549 103.635 68.656 102.647 68.656C101.658 68.656 100.857 67.8549 100.857 66.8668Z" fill="black"/>
<path d="M4.2375 68.647H0.65918V72.2253H4.2375V68.647Z" fill="black"/>
<path d="M18.552 68.647H14.9736V72.2253H18.552V68.647Z" fill="black"/>
<path d="M32.8571 72.2319V68.6536H29.2788C29.2788 70.6298 30.8808 72.2319 32.8571 72.2319Z" fill="black"/>
<path d="M34.6607 72.2253C34.2437 72.2253 32.8716 72.2253 32.8716 72.2253C32.8716 72.2253 32.8716 71.0072 32.8716 70.4361C32.8716 69.9901 32.8716 68.647 32.8716 68.647C32.8716 68.647 34.1187 68.647 34.6607 68.647C35.6488 68.647 36.4499 69.448 36.4499 70.4361C36.4499 71.4242 35.6488 72.2253 34.6607 72.2253Z" fill="black"/>
<path d="M43.6013 68.647H40.0229V72.2253H43.6013V68.647Z" fill="black"/>
<path d="M48.9791 68.647C49.9673 68.647 50.7683 69.448 50.7683 70.4361C50.7683 71.4243 49.9673 72.2253 48.9791 72.2253C47.991 72.2253 47.1899 71.4243 47.1899 70.4361C47.1899 69.448 47.991 68.647 48.9791 68.647Z" fill="black"/>
<path d="M61.489 70.4361C61.489 70.8531 61.489 72.2253 61.489 72.2253C61.489 72.2253 60.2709 72.2253 59.6998 72.2252C59.2538 72.2253 57.9106 72.2252 57.9106 72.2252C57.9106 72.2252 57.9106 70.9782 57.9106 70.4361C57.9107 69.448 58.7117 68.647 59.6998 68.647C60.6879 68.647 61.489 69.448 61.489 70.4361Z" fill="black"/>
<path d="M72.2297 72.2319V68.6536H68.6514C68.6514 70.6298 70.2534 72.2319 72.2297 72.2319Z" fill="black"/>
<path d="M75.8073 68.647H72.229V72.2253H75.8073V68.647Z" fill="black"/>
<path d="M79.3923 68.647H75.814V72.2253H79.3923V68.647Z" fill="black"/>
<path d="M79.3843 68.6536V72.2319H82.9626C82.9626 70.2556 81.3605 68.6536 79.3843 68.6536Z" fill="black"/>
<path d="M0.65918 74.0187C0.65918 73.6016 0.65918 72.2295 0.65918 72.2295C0.65918 72.2295 1.87725 72.2295 2.44834 72.2295C2.89437 72.2295 4.2375 72.2295 4.2375 72.2295C4.2375 72.2295 4.2375 73.4766 4.2375 74.0187C4.2375 75.0067 3.43641 75.8078 2.44834 75.8078C1.46021 75.8078 0.65918 75.0067 0.65918 74.0187Z" fill="black"/>
<path d="M9.60557 72.2295C10.5937 72.2295 11.3947 73.0305 11.3947 74.0187C11.3947 75.0068 10.5937 75.8078 9.60557 75.8078C8.61745 75.8078 7.81641 75.0068 7.81641 74.0187C7.81641 73.0305 8.61745 72.2295 9.60557 72.2295Z" fill="black"/>
<path d="M18.5456 75.8085V72.2302H14.9673C14.9673 74.2065 16.5693 75.8085 18.5456 75.8085Z" fill="black"/>
<path d="M22.134 72.2295H18.5557V75.8078H22.134V72.2295Z" fill="black"/>
<path d="M25.7102 72.2295H22.1318V75.8078H25.7102V72.2295Z" fill="black"/>
<path d="M27.503 75.8078C27.086 75.8078 25.7139 75.8078 25.7139 75.8078C25.7139 75.8078 25.7139 74.5897 25.7139 74.0187C25.7139 73.5726 25.7139 72.2295 25.7139 72.2295C25.7139 72.2295 26.961 72.2295 27.503 72.2295C28.4911 72.2295 29.2922 73.0305 29.2922 74.0187C29.2922 75.0067 28.4911 75.8078 27.503 75.8078Z" fill="black"/>
<path d="M43.6013 72.2295H40.0229V75.8078H43.6013V72.2295Z" fill="black"/>
<path d="M54.3439 74.0187C54.3439 74.4356 54.3439 75.8078 54.3439 75.8078C54.3439 75.8078 53.1259 75.8078 52.5548 75.8077C52.1088 75.8078 50.7656 75.8077 50.7656 75.8077C50.7656 75.8077 50.7656 74.5607 50.7656 74.0186C50.7657 73.0305 51.5667 72.2295 52.5547 72.2295C53.5429 72.2295 54.3439 73.0305 54.3439 74.0187Z" fill="black"/>
<path d="M61.489 72.2295H57.9106V75.8078H61.489V72.2295Z" fill="black"/>
<path d="M63.2877 75.8078C62.8707 75.8078 61.4985 75.8078 61.4985 75.8078C61.4985 75.8078 61.4985 74.5897 61.4985 74.0187C61.4985 73.5726 61.4985 72.2295 61.4985 72.2295C61.4985 72.2295 62.7457 72.2295 63.2877 72.2295C64.2758 72.2295 65.0769 73.0305 65.0769 74.0187C65.0769 75.0067 64.2758 75.8078 63.2877 75.8078Z" fill="black"/>
<path d="M75.8073 72.2295H72.229V75.8078H75.8073V72.2295Z" fill="black"/>
<path d="M79.3923 72.2295H75.814V75.8078H79.3923V72.2295Z" fill="black"/>
<path d="M82.9626 72.2295H79.3843V75.8078H82.9626V72.2295Z" fill="black"/>
<path d="M86.55 72.2295H82.9717V75.8078H86.55V72.2295Z" fill="black"/>
<path d="M86.5444 72.2302V75.8085H90.1228C90.1228 73.8323 88.5207 72.2302 86.5444 72.2302Z" fill="black"/>
<path d="M95.4942 72.2295C95.9113 72.2295 97.2834 72.2295 97.2834 72.2295C97.2834 72.2295 97.2834 73.4474 97.2834 74.0187C97.2834 74.4645 97.2834 75.8078 97.2834 75.8078C97.2834 75.8078 96.0366 75.8078 95.4942 75.8078C94.5058 75.8078 93.7051 75.0064 93.7051 74.0187C93.7051 73.0308 94.5058 72.2295 95.4942 72.2295Z" fill="black"/>
<path d="M100.863 72.2295H97.2847V75.8078H100.863V72.2295Z" fill="black"/>
<path d="M102.647 75.8078C102.23 75.8078 100.857 75.8078 100.857 75.8078C100.857 75.8078 100.857 74.5897 100.857 74.0187C100.857 73.5726 100.857 72.2295 100.857 72.2295C100.857 72.2295 102.105 72.2295 102.647 72.2295C103.635 72.2295 104.436 73.0305 104.436 74.0187C104.436 75.0067 103.635 75.8078 102.647 75.8078Z" fill="black"/>
<path d="M31.0753 75.811C32.0635 75.811 32.8645 76.6121 32.8645 77.6002C32.8645 78.5884 32.0635 79.3894 31.0753 79.3894C30.0872 79.3894 29.2861 78.5884 29.2861 77.6002C29.2861 76.6121 30.0872 75.811 31.0753 75.811Z" fill="black"/>
<path d="M43.6013 79.3959V75.8176H40.0229C40.023 77.7939 41.625 79.3959 43.6013 79.3959Z" fill="black"/>
<path d="M43.5923 75.8176V79.3959H47.1706C47.1706 77.4197 45.5685 75.8176 43.5923 75.8176Z" fill="black"/>
<path d="M54.3395 79.3959V75.8176H50.7612C50.7612 77.7939 52.3633 79.3959 54.3395 79.3959Z" fill="black"/>
<path d="M57.9167 75.811H54.3384V79.3894H57.9167V75.811Z" fill="black"/>
<path d="M61.489 75.811H57.9106V79.3894H61.489V75.811Z" fill="black"/>
<path d="M66.8766 75.811C67.8647 75.811 68.6657 76.6121 68.6657 77.6002C68.6657 78.5884 67.8647 79.3894 66.8766 79.3894C65.8884 79.3894 65.0874 78.5884 65.0874 77.6002C65.0874 76.6121 65.8884 75.811 66.8766 75.811Z" fill="black"/>
<path d="M75.8073 75.811H72.229V79.3894H75.8073V75.811Z" fill="black"/>
<path d="M90.1198 75.811H86.5415V79.3894H90.1198V75.811Z" fill="black"/>
<path d="M90.1353 75.8176V79.3959H93.7136C93.7136 77.4197 92.1115 75.8176 90.1353 75.8176Z" fill="black"/>
<path d="M34.6607 79.387C35.0778 79.387 36.4499 79.387 36.4499 79.387C36.4499 79.387 36.4499 80.6049 36.4499 81.1761C36.4499 81.622 36.4499 82.9653 36.4499 82.9653C36.4499 82.9653 35.2031 82.9653 34.6607 82.9653C33.6723 82.9653 32.8716 82.1639 32.8716 81.1761C32.8716 80.1882 33.6723 79.387 34.6607 79.387Z" fill="black"/>
<path d="M36.4536 79.387V82.9653H40.0319C40.0319 80.989 38.4299 79.387 36.4536 79.387Z" fill="black"/>
<path d="M47.1765 79.387H43.5981V82.9653H47.1765V79.387Z" fill="black"/>
<path d="M57.9128 82.9653V79.387H54.3345C54.3345 81.3632 55.9365 82.9653 57.9128 82.9653Z" fill="black"/>
<path d="M61.489 79.387H57.9106V82.9653H61.489V79.387Z" fill="black"/>
<path d="M63.2877 82.9653C62.8707 82.9653 61.4985 82.9653 61.4985 82.9653C61.4985 82.9653 61.4985 81.7472 61.4985 81.1761C61.4985 80.7301 61.4985 79.387 61.4985 79.387C61.4985 79.387 62.7457 79.387 63.2877 79.387C64.2758 79.387 65.0769 80.188 65.0769 81.1761C65.0769 82.1642 64.2758 82.9653 63.2877 82.9653Z" fill="black"/>
<path d="M68.6514 82.9653H72.2297V79.387C70.2535 79.387 68.6514 80.989 68.6514 82.9653Z" fill="black"/>
<path d="M75.8073 79.387H72.229V82.9653H75.8073V79.387Z" fill="black"/>
<path d="M81.1734 79.387C82.1616 79.387 82.9626 80.188 82.9626 81.1761C82.9626 82.1643 82.1616 82.9653 81.1734 82.9653C80.1853 82.9653 79.3843 82.1643 79.3843 81.1761C79.3843 80.188 80.1853 79.387 81.1734 79.387Z" fill="black"/>
<path d="M90.1198 79.387H86.5415V82.9653H90.1198V79.387Z" fill="black"/>
<path d="M93.7019 79.387H90.1235V82.9653H93.7019V79.387Z" fill="black"/>
<path d="M95.4942 82.9653C95.0772 82.9653 93.7051 82.9653 93.7051 82.9653C93.7051 82.9653 93.7051 81.7472 93.7051 81.1761C93.7051 80.7301 93.7051 79.387 93.7051 79.387C93.7051 79.387 94.9522 79.387 95.4942 79.387C96.4823 79.387 97.2834 80.188 97.2834 81.1761C97.2834 82.1642 96.4823 82.9653 95.4942 82.9653Z" fill="black"/>
<path d="M36.4536 84.764C36.4536 84.347 36.4536 82.9749 36.4536 82.9749C36.4536 82.9749 37.6717 82.9749 38.2428 82.9749C38.6888 82.9749 40.0319 82.9749 40.0319 82.9749C40.0319 82.9749 40.0319 84.222 40.0319 84.764C40.0319 85.7521 39.2308 86.5532 38.2428 86.5532C37.2546 86.5532 36.4536 85.7521 36.4536 84.764Z" fill="black"/>
<path d="M47.1765 82.9749H43.5981V86.5532H47.1765V82.9749Z" fill="black"/>
<path d="M54.3439 84.764C54.3439 85.181 54.3439 86.5532 54.3439 86.5532C54.3439 86.5532 53.1259 86.5532 52.5548 86.5531C52.1088 86.5532 50.7656 86.5531 50.7656 86.5531C50.7656 86.5531 50.7656 85.3061 50.7656 84.764C50.7657 83.7759 51.5667 82.9749 52.5547 82.9749C53.5429 82.9749 54.3439 83.7759 54.3439 84.764Z" fill="black"/>
<path d="M61.489 82.9749H57.9106V86.5532H61.489V82.9749Z" fill="black"/>
<path d="M66.8766 82.9749C67.2936 82.9749 68.6657 82.9749 68.6657 82.9749C68.6657 82.9749 68.6657 84.1928 68.6657 84.764C68.6657 85.2099 68.6657 86.5532 68.6657 86.5532C68.6657 86.5532 67.4189 86.5532 66.8766 86.5532C65.8881 86.5532 65.0874 85.7518 65.0874 84.764C65.0874 83.7761 65.8881 82.9749 66.8766 82.9749Z" fill="black"/>
<path d="M72.2351 82.9749H68.6567V86.5532H72.2351V82.9749Z" fill="black"/>
<path d="M75.8073 82.9749H72.229V86.5532H75.8073V82.9749Z" fill="black"/>
<path d="M90.1198 82.9749H86.5415V86.5532H90.1198V82.9749Z" fill="black"/>
<path d="M104.436 84.764C104.436 85.181 104.436 86.5532 104.436 86.5532C104.436 86.5532 103.218 86.5532 102.647 86.5531C102.201 86.5532 100.857 86.5531 100.857 86.5531C100.857 86.5531 100.857 85.3061 100.857 84.764C100.857 83.7759 101.658 82.9749 102.647 82.9749C103.635 82.9749 104.436 83.7759 104.436 84.764Z" fill="black"/>
<path d="M34.6607 86.5356C35.6489 86.5356 36.4499 87.3367 36.4499 88.3248C36.4499 89.313 35.6489 90.114 34.6607 90.114C33.6726 90.114 32.8716 89.313 32.8716 88.3248C32.8716 87.3367 33.6726 86.5356 34.6607 86.5356Z" fill="black"/>
<path d="M40.0229 90.1147H43.6013V86.5364C41.625 86.5364 40.0229 88.1384 40.0229 90.1147Z" fill="black"/>
<path d="M47.1765 86.5356H43.5981V90.114H47.1765V86.5356Z" fill="black"/>
<path d="M50.7683 86.5356H47.1899V90.114H50.7683V86.5356Z" fill="black"/>
<path d="M54.3439 86.5356H50.7656V90.114H54.3439V86.5356Z" fill="black"/>
<path d="M61.489 86.5356H57.9106V90.114H61.489V86.5356Z" fill="black"/>
<path d="M72.2351 86.5356H68.6567V90.114H72.2351V86.5356Z" fill="black"/>
<path d="M75.8073 86.5356H72.229V90.114H75.8073V86.5356Z" fill="black"/>
<path d="M79.3923 86.5356H75.814V90.114H79.3923V86.5356Z" fill="black"/>
<path d="M82.9626 86.5356H79.3843V90.114H82.9626V86.5356Z" fill="black"/>
<path d="M86.55 86.5356H82.9717V90.114H86.55V86.5356Z" fill="black"/>
<path d="M90.1198 86.5356H86.5415V90.114H90.1198V86.5356Z" fill="black"/>
<path d="M90.1353 86.5364V90.1147H93.7136C93.7136 88.1384 92.1115 86.5364 90.1353 86.5364Z" fill="black"/>
<path d="M104.436 86.5356H100.857V90.114H104.436V86.5356Z" fill="black"/>
<path d="M43.6013 90.1204H40.0229V93.6987H43.6013V90.1204Z" fill="black"/>
<path d="M54.3439 90.1204H50.7656V93.6987H54.3439V90.1204Z" fill="black"/>
<path d="M57.9167 90.1204H54.3384V93.6987H57.9167V90.1204Z" fill="black"/>
<path d="M61.489 90.1204H57.9106V93.6987H61.489V90.1204Z" fill="black"/>
<path d="M72.2351 90.1204H68.6567V93.6987H72.2351V90.1204Z" fill="black"/>
<path d="M79.3923 90.1204H75.814V93.6987H79.3923V90.1204Z" fill="black"/>
<path d="M93.7019 90.1204H90.1235V93.6987H93.7019V90.1204Z" fill="black"/>
<path d="M93.7031 90.1235V93.7019H97.2814C97.2814 91.7256 95.6794 90.1235 93.7031 90.1235Z" fill="black"/>
<path d="M100.857 91.9095C100.857 91.4925 100.857 90.1204 100.857 90.1204C100.857 90.1204 102.075 90.1204 102.647 90.1204C103.093 90.1204 104.436 90.1204 104.436 90.1204C104.436 90.1204 104.436 91.3675 104.436 91.9095C104.436 92.8976 103.635 93.6987 102.647 93.6987C101.658 93.6987 100.857 92.8976 100.857 91.9095Z" fill="black"/>
<path d="M38.2428 93.7087C38.6598 93.7087 40.0319 93.7087 40.0319 93.7087C40.0319 93.7087 40.0319 94.9267 40.0319 95.4979C40.0319 95.9438 40.0319 97.2871 40.0319 97.2871C40.0319 97.2871 38.7851 97.2871 38.2428 97.2871C37.2543 97.2871 36.4536 96.4857 36.4536 95.4979C36.4536 94.51 37.2543 93.7087 38.2428 93.7087Z" fill="black"/>
<path d="M43.6013 93.7087H40.0229V97.2871H43.6013V93.7087Z" fill="black"/>
<path d="M47.1765 93.7087H43.5981V97.2871H47.1765V93.7087Z" fill="black"/>
<path d="M50.7683 93.7087H47.1899V97.2871H50.7683V93.7087Z" fill="black"/>
<path d="M54.3439 93.7087H50.7656V97.2871H54.3439V93.7087Z" fill="black"/>
<path d="M57.9167 93.7087H54.3384V97.2871H57.9167V93.7087Z" fill="black"/>
<path d="M61.489 93.7087H57.9106V97.2871H61.489V93.7087Z" fill="black"/>
<path d="M65.0769 93.7087H61.4985V97.2871H65.0769V93.7087Z" fill="black"/>
<path d="M68.6657 93.7087H65.0874V97.2871H68.6657V93.7087Z" fill="black"/>
<path d="M72.2297 93.698H68.6514V97.2763C70.6276 97.2763 72.2297 95.6742 72.2297 93.698Z" fill="black"/>
<path d="M79.3923 93.7087H75.814V97.2871H79.3923V93.7087Z" fill="black"/>
<path d="M82.9626 93.7087H79.3843V97.2871H82.9626V93.7087Z" fill="black"/>
<path d="M86.55 93.7087H82.9717V97.2871H86.55V93.7087Z" fill="black"/>
<path d="M90.1198 93.7087H86.5415V97.2871H90.1198V93.7087Z" fill="black"/>
<path d="M93.7019 93.7087H90.1235V97.2871H93.7019V93.7087Z" fill="black"/>
<path d="M97.2834 93.7087H93.7051V97.2871H97.2834V93.7087Z" fill="black"/>
<path d="M99.0738 97.2871C98.6568 97.2871 97.2847 97.2871 97.2847 97.2871C97.2847 97.2871 97.2847 96.0689 97.2847 95.4979C97.2847 95.0519 97.2847 93.7087 97.2847 93.7087C97.2847 93.7087 98.5318 93.7087 99.0738 93.7087C100.062 93.7087 100.863 94.5098 100.863 95.4979C100.863 96.486 100.062 97.2871 99.0738 97.2871Z" fill="black"/>
<path d="M54.3439 97.2874H50.7656V100.866H54.3439V97.2874Z" fill="black"/>
<path d="M57.9128 97.2874H54.3345V100.866C56.3107 100.866 57.9128 99.2636 57.9128 97.2874Z" fill="black"/>
<path d="M65.0874 99.0765C65.0874 98.6595 65.0874 97.2874 65.0874 97.2874C65.0874 97.2874 66.3055 97.2874 66.8766 97.2874C67.3226 97.2874 68.6657 97.2874 68.6657 97.2874C68.6657 97.2874 68.6657 98.5345 68.6657 99.0765C68.6657 100.065 67.8646 100.866 66.8766 100.866C65.8884 100.866 65.0874 100.065 65.0874 99.0765Z" fill="black"/>
<path d="M79.3923 97.2874H75.814V100.866H79.3923V97.2874Z" fill="black"/>
<path d="M93.7019 97.2874H90.1235V100.866H93.7019V97.2874Z" fill="black"/>
<path d="M97.2834 97.2874H93.7051V100.866H97.2834V97.2874Z" fill="black"/>
<path d="M102.647 97.2874C103.635 97.2874 104.436 98.0884 104.436 99.0765C104.436 100.065 103.635 100.866 102.647 100.866C101.658 100.866 100.857 100.065 100.857 99.0765C100.857 98.0884 101.658 97.2874 102.647 97.2874Z" fill="black"/>
<path d="M31.0753 100.857C31.4923 100.857 32.8645 100.857 32.8645 100.857C32.8645 100.857 32.8645 102.075 32.8645 102.646C32.8645 103.092 32.8645 104.435 32.8645 104.435C32.8645 104.435 31.6176 104.435 31.0753 104.435C30.0868 104.435 29.2861 103.634 29.2861 102.646C29.2861 101.658 30.0868 100.857 31.0753 100.857Z" fill="black"/>
<path d="M34.6607 104.435C34.2437 104.435 32.8716 104.435 32.8716 104.435C32.8716 104.435 32.8716 103.217 32.8716 102.646C32.8716 102.2 32.8716 100.857 32.8716 100.857C32.8716 100.857 34.1187 100.857 34.6607 100.857C35.6488 100.857 36.4499 101.658 36.4499 102.646C36.4499 103.634 35.6488 104.435 34.6607 104.435Z" fill="black"/>
<path d="M41.8121 100.857C42.8003 100.857 43.6013 101.658 43.6013 102.646C43.6013 103.634 42.8003 104.435 41.8121 104.435C40.824 104.435 40.0229 103.634 40.0229 102.646C40.0229 101.658 40.824 100.857 41.8121 100.857Z" fill="black"/>
<path d="M48.9791 100.857C49.3961 100.857 50.7683 100.857 50.7683 100.857C50.7683 100.857 50.7683 102.075 50.7683 102.646C50.7683 103.092 50.7683 104.435 50.7683 104.435C50.7683 104.435 49.5214 104.435 48.9791 104.435C47.9906 104.435 47.1899 103.634 47.1899 102.646C47.1899 101.658 47.9906 100.857 48.9791 100.857Z" fill="black"/>
<path d="M54.3395 100.86H50.7612V104.439C52.7375 104.439 54.3395 102.837 54.3395 100.86Z" fill="black"/>
<path d="M63.2877 100.857C64.2759 100.857 65.0769 101.658 65.0769 102.646C65.0769 103.634 64.2759 104.435 63.2877 104.435C62.2996 104.435 61.4985 103.634 61.4985 102.646C61.4985 101.658 62.2996 100.857 63.2877 100.857Z" fill="black"/>
<path d="M70.4459 100.857C71.4341 100.857 72.2351 101.658 72.2351 102.646C72.2351 103.634 71.4341 104.435 70.4459 104.435C69.4578 104.435 68.6567 103.634 68.6567 102.646C68.6567 101.658 69.4578 100.857 70.4459 100.857Z" fill="black"/>
<path d="M75.814 102.646C75.814 102.229 75.814 100.857 75.814 100.857C75.814 100.857 77.032 100.857 77.6031 100.857C78.0492 100.857 79.3923 100.857 79.3923 100.857C79.3923 100.857 79.3923 102.104 79.3923 102.646C79.3923 103.634 78.5912 104.435 77.6031 104.435C76.615 104.435 75.814 103.634 75.814 102.646Z" fill="black"/>
<path d="M84.7608 100.857C85.1779 100.857 86.55 100.857 86.55 100.857C86.55 100.857 86.55 102.075 86.55 102.646C86.55 103.092 86.55 104.435 86.55 104.435C86.55 104.435 85.3032 104.435 84.7608 104.435C83.7724 104.435 82.9717 103.634 82.9717 102.646C82.9717 101.658 83.7724 100.857 84.7608 100.857Z" fill="black"/>
<path d="M90.1198 100.857H86.5415V104.435H90.1198V100.857Z" fill="black"/>
<path d="M93.7019 100.857H90.1235V104.435H93.7019V100.857Z" fill="black"/>
<path d="M97.2814 100.86H93.7031V104.439C95.6794 104.439 97.2814 102.837 97.2814 100.86Z" fill="black"/>
<path d="M17.1567 0.662354H9.21187C5.33992 0.662354 2.0596 3.22053 1.01083 6.71701C0.902373 7.07871 0.81771 7.45042 0.758846 7.83041C0.693971 8.24971 0.660156 8.67904 0.660156 9.11613V17.2495C0.660156 21.9133 4.49754 25.7058 9.21187 25.7058L13.1843 25.7066L17.1567 25.7056C21.8707 25.7056 25.7084 21.913 25.7084 17.2493V9.11613C25.7084 4.45466 21.871 0.662354 17.1567 0.662354ZM21.9512 17.2495C21.9512 19.8405 19.8005 21.9486 17.1557 21.9486L13.1843 21.9493L9.21287 21.9483C6.56803 21.9483 4.41739 19.8403 4.41739 17.2495V9.11613C4.41739 8.30682 4.62729 7.54486 4.99676 6.87907C5.35244 6.23859 5.85566 5.68778 6.46158 5.27073C7.24058 4.73444 8.18915 4.41959 9.21162 4.41959H17.1567C19.8005 4.41959 21.9512 6.5264 21.9512 9.11613V17.2495Z" fill="black"/>
<path d="M95.8808 0.662354H87.936C84.064 0.662354 80.7837 3.22053 79.735 6.71701C79.6265 7.07871 79.5418 7.45042 79.483 7.83041C79.4181 8.24971 79.3843 8.67904 79.3843 9.11613V17.2495C79.3843 21.9133 83.2217 25.7058 87.936 25.7058L91.9084 25.7066L95.8808 25.7056C100.595 25.7056 104.433 21.913 104.433 17.2493V9.11613C104.433 4.45466 100.595 0.662354 95.8808 0.662354ZM100.675 17.2495C100.675 19.8405 98.5246 21.9486 95.8798 21.9486L91.9084 21.9493L87.937 21.9483C85.2922 21.9483 83.1415 19.8403 83.1415 17.2495V9.11613C83.1415 8.30682 83.3514 7.54486 83.7209 6.87907C84.0766 6.23859 84.5798 5.68778 85.1857 5.27073C85.9647 4.73444 86.9133 4.41959 87.9357 4.41959H95.8808C98.5246 4.41959 100.675 6.5264 100.675 9.11613V17.2495Z" fill="black"/>
<path d="M17.1567 79.3918H9.21187C5.33992 79.3918 2.0596 81.95 1.01083 85.4465C0.902373 85.8082 0.81771 86.1799 0.758846 86.5599C0.693971 86.9792 0.660156 87.4085 0.660156 87.8456V95.979C0.660156 100.643 4.49754 104.435 9.21187 104.435L13.1843 104.436L17.1567 104.435C21.8707 104.435 25.7084 100.643 25.7084 95.9788V87.8456C25.7084 83.1841 21.871 79.3918 17.1567 79.3918ZM21.9512 95.979C21.9512 98.57 19.8005 100.678 17.1557 100.678L13.1843 100.679L9.21287 100.678C6.56803 100.678 4.41739 98.5698 4.41739 95.979V87.8456C4.41739 87.0363 4.62729 86.2743 4.99676 85.6086C5.35244 84.9681 5.85566 84.4173 6.46158 84.0002C7.24058 83.4639 8.18915 83.1491 9.21162 83.1491H17.1567C19.8005 83.1491 21.9512 85.2559 21.9512 87.8456V95.979Z" fill="black"/>
<path d="M10.7633 18.5577C9.1434 18.5577 7.82568 17.2661 7.82568 15.6799V10.6991C7.82568 10.2036 7.9545 9.73723 8.18004 9.32919C8.39786 8.93651 8.70616 8.599 9.07749 8.34437C9.55444 8.01609 10.1358 7.82275 10.7617 7.82275H15.6275C17.2459 7.82275 18.5636 9.11288 18.5636 10.699V15.6798C18.5636 17.2659 17.246 18.5576 15.6275 18.5576H13.1947L10.7633 18.5577Z" fill="black"/>
<path d="M89.4645 18.5577C87.8446 18.5577 86.5269 17.2661 86.5269 15.6799V10.6991C86.5269 10.2036 86.6557 9.73723 86.8812 9.32919C87.099 8.93651 87.4073 8.599 87.7787 8.34437C88.2556 8.01609 88.837 7.82275 89.4629 7.82275H94.3287C95.9471 7.82275 97.2648 9.11288 97.2648 10.699V15.6798C97.2648 17.2659 95.9472 18.5576 94.3287 18.5576H91.8958L89.4645 18.5577Z" fill="black"/>
<path d="M10.7633 97.2765C9.1434 97.2765 7.82568 95.9848 7.82568 94.3986V89.4178C7.82568 88.9223 7.9545 88.456 8.18004 88.0479C8.39786 87.6553 8.70616 87.3177 9.07749 87.0631C9.55444 86.7348 10.1358 86.5415 10.7617 86.5415H15.6275C17.2459 86.5415 18.5636 87.8316 18.5636 89.4177V94.3985C18.5636 95.9846 17.246 97.2764 15.6275 97.2764H13.1947L10.7633 97.2765Z" fill="black"/>
</svg>
