<svg width="38" height="38" viewBox="0 0 38 38" fill="none" xmlns="http://www.w3.org/2000/svg">
<path d="M19.0834 37.8539C29.4964 37.8539 37.9373 29.413 37.9373 19C37.9373 8.58702 29.4964 0.146118 19.0834 0.146118C8.67039 0.146118 0.229492 8.58702 0.229492 19C0.229492 29.413 8.67039 37.8539 19.0834 37.8539Z" fill="url(#paint0_linear_1_5091)"/>
<path d="M9.91701 19.2929C11.6766 18.3307 13.6416 17.5273 15.4777 16.7209C18.6333 15.3879 21.8123 14.1107 25.0132 12.8899C25.6352 12.6846 26.7548 12.4822 26.8657 13.3995C26.8058 14.696 26.5585 15.9865 26.3876 17.2755C25.9574 20.1113 25.4598 22.938 24.9742 25.7633C24.8078 26.7061 23.6178 27.1932 22.8579 26.5907C21.0293 25.3646 19.1872 24.1521 17.3827 22.8991C16.7921 22.3025 17.3407 21.4467 17.8683 21.021C19.3731 19.5492 20.9708 18.2992 22.3977 16.7494C22.7829 15.8276 21.6453 16.6055 21.2706 16.8438C19.2082 18.2527 17.1983 19.7485 15.025 20.9866C13.9159 21.5921 12.6209 21.075 11.5118 20.7363C10.5165 20.3271 9.05819 19.9164 9.91701 19.2929Z" fill="#13CD90"/>
<defs>
<linearGradient id="paint0_linear_1_5091" x1="19.0834" y1="0.146118" x2="19.0834" y2="37.8539" gradientUnits="userSpaceOnUse">
<stop stop-color="#161B24"/>
<stop offset="1" stop-color="#0E1117"/>
</linearGradient>
</defs>
</svg>
