<svg width="18" height="17" viewBox="0 0 18 17" fill="none" xmlns="http://www.w3.org/2000/svg">
<path d="M0.51416 5.61592C0.51416 3.98168 0.51416 3.16456 1.02186 2.65687C1.52955 2.14917 2.34667 2.14917 3.98091 2.14917H14.3812C16.0154 2.14917 16.8325 2.14917 17.3402 2.65687C17.8479 3.16456 17.8479 3.98168 17.8479 5.61592C17.8479 6.02448 17.8479 6.22877 17.721 6.35569C17.5941 6.48261 17.3898 6.48261 16.9812 6.48261H1.38085C0.972292 6.48261 0.768005 6.48261 0.641087 6.35569C0.51416 6.22877 0.51416 6.02448 0.51416 5.61592Z" fill="white"/>
<path fill-rule="evenodd" clip-rule="evenodd" d="M0.51416 13.416C0.51416 15.0502 0.51416 15.8673 1.02186 16.375C1.52955 16.8827 2.34667 16.8827 3.98091 16.8827H14.3812C16.0154 16.8827 16.8325 16.8827 17.3402 16.375C17.8479 15.8673 17.8479 15.0502 17.8479 13.416V9.08251C17.8479 8.67395 17.8479 8.46967 17.721 8.3427C17.5941 8.21582 17.3898 8.21582 16.9812 8.21582H1.38085C0.972292 8.21582 0.768005 8.21582 0.641087 8.3427C0.51416 8.46967 0.51416 8.67395 0.51416 9.08251V13.416ZM4.8476 10.8159C4.8476 10.4073 4.8476 10.2031 4.97453 10.0761C5.10145 9.9492 5.30573 9.9492 5.71429 9.9492H7.44767C7.85622 9.9492 8.0605 9.9492 8.18747 10.0761C8.31436 10.2031 8.31436 10.4073 8.31436 10.8159C8.31436 11.2244 8.31436 11.4287 8.18747 11.5557C8.0605 11.6826 7.85622 11.6826 7.44767 11.6826H5.71429C5.30573 11.6826 5.10145 11.6826 4.97453 11.5557C4.8476 11.4287 4.8476 11.2244 4.8476 10.8159ZM4.97453 13.5428C4.8476 13.6698 4.8476 13.8741 4.8476 14.2826C4.8476 14.6912 4.8476 14.8955 4.97453 15.0224C5.10145 15.1493 5.30573 15.1493 5.71429 15.1493H7.44767C7.85622 15.1493 8.0605 15.1493 8.18747 15.0224C8.31436 14.8955 8.31436 14.6912 8.31436 14.2826C8.31436 13.8741 8.31436 13.6698 8.18747 13.5428C8.0605 13.416 7.85622 13.416 7.44767 13.416H5.71429C5.30573 13.416 5.10145 13.416 4.97453 13.5428ZM10.0477 10.8159C10.0477 10.4073 10.0477 10.2031 10.1746 10.0761C10.3016 9.9492 10.5059 9.9492 10.9144 9.9492H12.6478C13.0564 9.9492 13.2606 9.9492 13.3876 10.0761C13.5145 10.2031 13.5145 10.4073 13.5145 10.8159C13.5145 11.2244 13.5145 11.4287 13.3876 11.5557C13.2606 11.6826 13.0564 11.6826 12.6478 11.6826H10.9144C10.5059 11.6826 10.3016 11.6826 10.1746 11.5557C10.0477 11.4287 10.0477 11.2244 10.0477 10.8159ZM10.1746 13.5428C10.0477 13.6698 10.0477 13.8741 10.0477 14.2826C10.0477 14.6912 10.0477 14.8955 10.1746 15.0224C10.3016 15.1493 10.5059 15.1493 10.9144 15.1493H12.6478C13.0564 15.1493 13.2606 15.1493 13.3876 15.0224C13.5145 14.8955 13.5145 14.6912 13.5145 14.2826C13.5145 13.8741 13.5145 13.6698 13.3876 13.5428C13.2606 13.416 13.0564 13.416 12.6478 13.416H10.9144C10.5059 13.416 10.3016 13.416 10.1746 13.5428Z" fill="white"/>
<path d="M4.84717 0.415527V3.01559" stroke="white" stroke-width="1.73338" stroke-linecap="round"/>
<path d="M13.5146 0.415527V3.01559" stroke="white" stroke-width="1.73338" stroke-linecap="round"/>
</svg>
