<svg width="20" height="17" viewBox="0 0 20 17" fill="none" xmlns="http://www.w3.org/2000/svg">
<path d="M19.235 7.12688V9.06153C19.235 9.57806 18.8218 10.0007 18.2958 10.0195H16.4551C15.4408 10.0195 14.5111 9.27753 14.4265 8.26325C14.3702 7.67159 14.5956 7.11749 14.99 6.73244C15.3375 6.37556 15.8165 6.16895 16.3424 6.16895H18.2958C18.8218 6.18773 19.235 6.61035 19.235 7.12688Z" fill="#13CD90"/>
<path d="M17.7978 11.4281H16.4548C14.6704 11.4281 13.1678 10.0851 13.0175 8.37585C12.933 7.39913 13.2898 6.42242 14.0036 5.72745C14.6047 5.10761 15.4405 4.76012 16.3421 4.76012H17.7978C18.0701 4.76012 18.2955 4.53472 18.2673 4.26237C18.0607 1.98024 16.5487 0.421248 14.3041 0.158286C14.0787 0.12072 13.8439 0.111328 13.5998 0.111328H5.14741C4.88445 0.111328 4.63088 0.130111 4.3867 0.167677C1.99187 0.468205 0.45166 2.25259 0.45166 4.80708V11.3811C0.45166 13.9732 2.55536 16.0769 5.14741 16.0769H13.5998C16.2294 16.0769 18.0419 14.4334 18.2673 11.9258C18.2955 11.6535 18.0701 11.4281 17.7978 11.4281ZM10.7823 5.98102H5.14741C4.76236 5.98102 4.44305 5.66171 4.44305 5.27665C4.44305 4.8916 4.76236 4.57229 5.14741 4.57229H10.7823C11.1674 4.57229 11.4867 4.8916 11.4867 5.27665C11.4867 5.66171 11.1674 5.98102 10.7823 5.98102Z" fill="#13CD90"/>
</svg>
