<svg width="105" height="105" viewBox="0 0 105 105" fill="none" xmlns="http://www.w3.org/2000/svg">
<path d="M48.9791 0.662598C49.9673 0.662598 50.7683 1.46364 50.7683 2.45176C50.7683 3.43992 49.9673 4.24092 48.9791 4.24092C47.991 4.24092 47.1899 3.43992 47.1899 2.45176C47.1899 1.46364 47.991 0.662598 48.9791 0.662598Z" fill="black"/>
<path d="M68.6657 2.45176C68.6657 2.86875 68.6657 4.24092 68.6657 4.24092C68.6657 4.24092 67.4477 4.24092 66.8766 4.24083C66.4305 4.24092 65.0874 4.24083 65.0874 4.24083C65.0874 4.24083 65.0874 2.99385 65.0874 2.45171C65.0874 1.46365 65.8884 0.662598 66.8765 0.662598C67.8646 0.662598 68.6657 1.46364 68.6657 2.45176Z" fill="black"/>
<path d="M29.2788 7.82783H32.8571V4.24951C30.8809 4.24952 29.2788 5.85155 29.2788 7.82783Z" fill="black"/>
<path d="M32.8721 4.24951V7.82783H36.4504C36.4504 5.85155 34.8483 4.24951 32.8721 4.24951Z" fill="black"/>
<path d="M41.8121 4.24756C42.2291 4.24756 43.6013 4.24756 43.6013 4.24756C43.6013 4.24756 43.6013 5.46549 43.6013 6.03672C43.6013 6.48261 43.6013 7.82588 43.6013 7.82588C43.6013 7.82588 42.3544 7.82588 41.8121 7.82588C40.8236 7.82588 40.0229 7.02448 40.0229 6.03672C40.0229 5.04884 40.8236 4.24756 41.8121 4.24756Z" fill="black"/>
<path d="M45.3873 7.82588C44.9703 7.82588 43.5981 7.82588 43.5981 7.82588C43.5981 7.82588 43.5981 6.60777 43.5981 6.03672C43.5981 5.59069 43.5981 4.24756 43.5981 4.24756C43.5981 4.24756 44.8453 4.24756 45.3873 4.24756C46.3754 4.24756 47.1765 5.04859 47.1765 6.03672C47.1765 7.02479 46.3754 7.82588 45.3873 7.82588Z" fill="black"/>
<path d="M61.489 6.03672C61.489 6.45371 61.489 7.82588 61.489 7.82588C61.489 7.82588 60.2709 7.82588 59.6998 7.82579C59.2538 7.82588 57.9106 7.82579 57.9106 7.82579C57.9106 7.82579 57.9106 6.57881 57.9106 6.03667C57.9107 5.04861 58.7117 4.24756 59.6998 4.24756C60.6879 4.24756 61.489 5.0486 61.489 6.03672Z" fill="black"/>
<path d="M68.6657 4.24756H65.0874V7.82588H68.6657V4.24756Z" fill="black"/>
<path d="M74.0182 4.24756C75.0063 4.24756 75.8073 5.0486 75.8073 6.03672C75.8073 7.02488 75.0063 7.82588 74.0182 7.82588C73.03 7.82588 72.229 7.02488 72.229 6.03672C72.229 5.0486 73.03 4.24756 74.0182 4.24756Z" fill="black"/>
<path d="M32.8645 7.81738H29.2861V11.3957H32.8645V7.81738Z" fill="black"/>
<path d="M36.4504 7.81738H32.8721V11.3957C34.8483 11.3957 36.4504 9.79363 36.4504 7.81738Z" fill="black"/>
<path d="M56.1275 7.81738C56.5446 7.81738 57.9167 7.81738 57.9167 7.81738C57.9167 7.81738 57.9167 9.03531 57.9167 9.60654C57.9167 10.0524 57.9167 11.3957 57.9167 11.3957C57.9167 11.3957 56.6699 11.3957 56.1275 11.3957C55.1391 11.3957 54.3384 10.5943 54.3384 9.60654C54.3384 8.61866 55.1391 7.81738 56.1275 7.81738Z" fill="black"/>
<path d="M61.4816 7.81738H57.9033V11.3957C59.8796 11.3957 61.4816 9.79363 61.4816 7.81738Z" fill="black"/>
<path d="M68.6442 11.3957V7.81738H65.0659C65.0659 9.79363 66.668 11.3957 68.6442 11.3957Z" fill="black"/>
<path d="M70.4459 11.3957C70.0289 11.3957 68.6567 11.3957 68.6567 11.3957C68.6567 11.3957 68.6567 10.1776 68.6567 9.60654C68.6567 9.16051 68.6567 7.81738 68.6567 7.81738C68.6567 7.81738 69.9039 7.81738 70.4459 7.81738C71.434 7.81738 72.2351 8.61842 72.2351 9.60654C72.2351 10.5946 71.434 11.3957 70.4459 11.3957Z" fill="black"/>
<path d="M29.2861 13.1881C29.2861 12.7711 29.2861 11.3989 29.2861 11.3989C29.2861 11.3989 30.5042 11.3989 31.0753 11.3989C31.5213 11.3989 32.8645 11.3989 32.8645 11.3989C32.8645 11.3989 32.8645 12.646 32.8645 13.1881C32.8645 14.1762 32.0634 14.9772 31.0753 14.9772C30.0872 14.9772 29.2861 14.1762 29.2861 13.1881Z" fill="black"/>
<path d="M40.0319 13.1881C40.0319 13.6051 40.0319 14.9772 40.0319 14.9772C40.0319 14.9772 38.8139 14.9772 38.2428 14.9772C37.7967 14.9772 36.4536 14.9772 36.4536 14.9772C36.4536 14.9772 36.4536 13.7302 36.4536 13.188C36.4537 12.2 37.2546 11.3989 38.2427 11.3989C39.2308 11.3989 40.0319 12.2 40.0319 13.1881Z" fill="black"/>
<path d="M48.9791 11.3989C49.9673 11.3989 50.7683 12.2 50.7683 13.1881C50.7683 14.1763 49.9673 14.9772 48.9791 14.9772C47.991 14.9772 47.1899 14.1763 47.1899 13.1881C47.1899 12.2 47.991 11.3989 48.9791 11.3989Z" fill="black"/>
<path d="M63.2877 11.3989C64.2759 11.3989 65.0769 12.2 65.0769 13.1881C65.0769 14.1763 64.2759 14.9772 63.2877 14.9772C62.2996 14.9772 61.4985 14.1763 61.4985 13.1881C61.4985 12.2 62.2996 11.3989 63.2877 11.3989Z" fill="black"/>
<path d="M75.8073 13.1881C75.8073 13.6051 75.8073 14.9772 75.8073 14.9772C75.8073 14.9772 74.5893 14.9772 74.0182 14.9772C73.5721 14.9772 72.229 14.9772 72.229 14.9772C72.229 14.9772 72.229 13.7302 72.229 13.188C72.229 12.2 73.03 11.3989 74.0181 11.3989C75.0062 11.3989 75.8073 12.2 75.8073 13.1881Z" fill="black"/>
<path d="M34.6607 14.9712C35.0778 14.9712 36.4499 14.9712 36.4499 14.9712C36.4499 14.9712 36.4499 16.1891 36.4499 16.7604C36.4499 17.2062 36.4499 18.5495 36.4499 18.5495C36.4499 18.5495 35.2031 18.5495 34.6607 18.5495C33.6723 18.5495 32.8716 17.7481 32.8716 16.7604C32.8716 15.7725 33.6723 14.9712 34.6607 14.9712Z" fill="black"/>
<path d="M40.0319 14.9683H36.4536V18.5466C38.4299 18.5466 40.0319 16.9445 40.0319 14.9683Z" fill="black"/>
<path d="M45.3873 14.9717C46.3755 14.9717 47.1765 15.7727 47.1765 16.7608C47.1765 17.749 46.3755 18.55 45.3873 18.55C44.3992 18.55 43.5981 17.749 43.5981 16.7608C43.5981 15.7727 44.3992 14.9717 45.3873 14.9717Z" fill="black"/>
<path d="M52.5548 14.9712C53.543 14.9712 54.3439 15.7722 54.3439 16.7604C54.3439 17.7485 53.543 18.5495 52.5548 18.5495C51.5667 18.5495 50.7656 17.7485 50.7656 16.7604C50.7656 15.7722 51.5667 14.9712 52.5548 14.9712Z" fill="black"/>
<path d="M61.489 16.7604C61.489 17.1773 61.489 18.5495 61.489 18.5495C61.489 18.5495 60.2709 18.5495 59.6998 18.5494C59.2538 18.5495 57.9106 18.5494 57.9106 18.5494C57.9106 18.5494 57.9106 17.3024 57.9106 16.7603C57.9107 15.7722 58.7117 14.9712 59.6998 14.9712C60.6879 14.9712 61.489 15.7722 61.489 16.7604Z" fill="black"/>
<path d="M66.8766 14.9712C67.2936 14.9712 68.6657 14.9712 68.6657 14.9712C68.6657 14.9712 68.6657 16.1891 68.6657 16.7604C68.6657 17.2062 68.6657 18.5495 68.6657 18.5495C68.6657 18.5495 67.4189 18.5495 66.8766 18.5495C65.8881 18.5495 65.0874 17.7481 65.0874 16.7604C65.0874 15.7725 65.8881 14.9712 66.8766 14.9712Z" fill="black"/>
<path d="M72.2351 14.9712H68.6567V18.5495H72.2351V14.9712Z" fill="black"/>
<path d="M75.8078 14.9683H72.2295V18.5466C74.2057 18.5466 75.8078 16.9445 75.8078 14.9683Z" fill="black"/>
<path d="M41.8121 18.5654C42.8003 18.5654 43.6013 19.3665 43.6013 20.3546C43.6013 21.3428 42.8003 22.1437 41.8121 22.1437C40.824 22.1437 40.0229 21.3428 40.0229 20.3546C40.0229 19.3665 40.824 18.5654 41.8121 18.5654Z" fill="black"/>
<path d="M48.9791 18.5654C49.9673 18.5654 50.7683 19.3665 50.7683 20.3546C50.7683 21.3428 49.9673 22.1437 48.9791 22.1437C47.991 22.1437 47.1899 21.3428 47.1899 20.3546C47.1899 19.3665 47.991 18.5654 48.9791 18.5654Z" fill="black"/>
<path d="M61.489 18.5654H57.9106V22.1437H61.489V18.5654Z" fill="black"/>
<path d="M32.8645 23.9249C32.8645 24.3419 32.8645 25.7141 32.8645 25.7141C32.8645 25.7141 31.6464 25.7141 31.0753 25.714C30.6293 25.7141 29.2861 25.714 29.2861 25.714C29.2861 25.714 29.2861 24.467 29.2861 23.9249C29.2862 22.9368 30.0872 22.1357 31.0752 22.1357C32.0634 22.1357 32.8645 22.9368 32.8645 23.9249Z" fill="black"/>
<path d="M40.0319 23.9249C40.0319 24.3419 40.0319 25.7141 40.0319 25.7141C40.0319 25.7141 38.8139 25.7141 38.2428 25.714C37.7967 25.7141 36.4536 25.714 36.4536 25.714C36.4536 25.714 36.4536 24.467 36.4536 23.9249C36.4537 22.9368 37.2546 22.1357 38.2427 22.1357C39.2308 22.1357 40.0319 22.9368 40.0319 23.9249Z" fill="black"/>
<path d="M45.3873 22.1357C46.3755 22.1357 47.1765 22.9368 47.1765 23.9249C47.1765 24.9131 46.3755 25.7141 45.3873 25.7141C44.3992 25.7141 43.5981 24.9131 43.5981 23.9249C43.5981 22.9368 44.3992 22.1357 45.3873 22.1357Z" fill="black"/>
<path d="M54.3439 23.9249C54.3439 24.3419 54.3439 25.7141 54.3439 25.7141C54.3439 25.7141 53.1259 25.7141 52.5548 25.714C52.1088 25.7141 50.7656 25.714 50.7656 25.714C50.7656 25.714 50.7656 24.467 50.7656 23.9249C50.7657 22.9368 51.5667 22.1357 52.5547 22.1357C53.5429 22.1357 54.3439 22.9368 54.3439 23.9249Z" fill="black"/>
<path d="M61.489 22.1357H57.9106V25.7141H61.489V22.1357Z" fill="black"/>
<path d="M66.8766 22.1357C67.8647 22.1357 68.6657 22.9368 68.6657 23.9249C68.6657 24.9131 67.8647 25.7141 66.8766 25.7141C65.8884 25.7141 65.0874 24.9131 65.0874 23.9249C65.0874 22.9368 65.8884 22.1357 66.8766 22.1357Z" fill="black"/>
<path d="M74.0182 22.1357C75.0063 22.1357 75.8073 22.9368 75.8073 23.9249C75.8073 24.9131 75.0063 25.7141 74.0182 25.7141C73.03 25.7141 72.229 24.9131 72.229 23.9249C72.229 22.9368 73.03 22.1357 74.0182 22.1357Z" fill="black"/>
<path d="M32.8645 25.7202H29.2861V29.2985H32.8645V25.7202Z" fill="black"/>
<path d="M40.0319 25.7202H36.4536V29.2985H40.0319V25.7202Z" fill="black"/>
<path d="M41.8121 29.2985C41.3951 29.2985 40.0229 29.2985 40.0229 29.2985C40.0229 29.2985 40.0229 28.0804 40.0229 27.5094C40.0229 27.0633 40.0229 25.7202 40.0229 25.7202C40.0229 25.7202 41.2701 25.7202 41.8121 25.7202C42.8002 25.7202 43.6013 26.5213 43.6013 27.5094C43.6013 28.4974 42.8002 29.2985 41.8121 29.2985Z" fill="black"/>
<path d="M54.3395 29.2966V25.7183H50.7612C50.7612 27.6945 52.3633 29.2966 54.3395 29.2966Z" fill="black"/>
<path d="M57.9167 25.7202H54.3384V29.2985H57.9167V25.7202Z" fill="black"/>
<path d="M61.4816 25.7183H57.9033V29.2966C59.8796 29.2966 61.4816 27.6945 61.4816 25.7183Z" fill="black"/>
<path d="M2.44834 29.2896C3.43651 29.2896 4.2375 30.0906 4.2375 31.0787C4.2375 32.0669 3.43651 32.8679 2.44834 32.8679C1.46022 32.8679 0.65918 32.0669 0.65918 31.0787C0.65918 30.0906 1.46022 29.2896 2.44834 29.2896Z" fill="black"/>
<path d="M23.921 29.2896C24.9092 29.2896 25.7102 30.0906 25.7102 31.0787C25.7102 32.0669 24.9092 32.8679 23.921 32.8679C22.9329 32.8679 22.1318 32.0669 22.1318 31.0787C22.1318 30.0906 22.9329 29.2896 23.921 29.2896Z" fill="black"/>
<path d="M32.8571 32.8669V29.2886H29.2788C29.2788 31.2648 30.8808 32.8669 32.8571 32.8669Z" fill="black"/>
<path d="M36.4499 29.2896H32.8716V32.8679H36.4499V29.2896Z" fill="black"/>
<path d="M40.0319 29.2886H36.4536V32.8669C38.4299 32.8669 40.0319 31.2648 40.0319 29.2886Z" fill="black"/>
<path d="M63.2877 29.2896C64.2759 29.2896 65.0769 30.0906 65.0769 31.0787C65.0769 32.0669 64.2759 32.8679 63.2877 32.8679C62.2996 32.8679 61.4985 32.0669 61.4985 31.0787C61.4985 30.0906 62.2996 29.2896 63.2877 29.2896Z" fill="black"/>
<path d="M68.6514 32.8669H72.2297V29.2886C70.2535 29.2886 68.6514 30.8906 68.6514 32.8669Z" fill="black"/>
<path d="M75.8073 29.2896H72.229V32.8679H75.8073V29.2896Z" fill="black"/>
<path d="M79.3923 29.2896H75.814V32.8679H79.3923V29.2896Z" fill="black"/>
<path d="M81.1734 32.8679C80.7564 32.8679 79.3843 32.8679 79.3843 32.8679C79.3843 32.8679 79.3843 31.6498 79.3843 31.0787C79.3843 30.6327 79.3843 29.2896 79.3843 29.2896C79.3843 29.2896 80.6314 29.2896 81.1734 29.2896C82.1615 29.2896 82.9626 30.0906 82.9626 31.0787C82.9626 32.0668 82.1615 32.8679 81.1734 32.8679Z" fill="black"/>
<path d="M91.9127 29.2905C92.3297 29.2905 93.7019 29.2905 93.7019 29.2905C93.7019 29.2905 93.7019 30.5085 93.7019 31.0797C93.7019 31.5256 93.7019 32.8688 93.7019 32.8688C93.7019 32.8688 92.455 32.8688 91.9127 32.8688C90.9242 32.8688 90.1235 32.0675 90.1235 31.0797C90.1235 30.0918 90.9242 29.2905 91.9127 29.2905Z" fill="black"/>
<path d="M97.2834 29.2896H93.7051V32.8679H97.2834V29.2896Z" fill="black"/>
<path d="M97.2773 29.2886V32.8669H100.856C100.856 30.8906 99.2536 29.2886 97.2773 29.2886Z" fill="black"/>
<path d="M6.03281 32.8745C7.02098 32.8745 7.82197 33.6756 7.82197 34.6637C7.82197 35.6518 7.02098 36.4528 6.03281 36.4528C5.04469 36.4528 4.24365 35.6518 4.24365 34.6637C4.24365 33.6756 5.04469 32.8745 6.03281 32.8745Z" fill="black"/>
<path d="M20.3448 32.8745C21.333 32.8745 22.134 33.6756 22.134 34.6637C22.134 35.6518 21.333 36.4528 20.3448 36.4528C19.3567 36.4528 18.5557 35.6518 18.5557 34.6637C18.5557 33.6756 19.3567 32.8745 20.3448 32.8745Z" fill="black"/>
<path d="M41.8121 32.8745C42.2291 32.8745 43.6013 32.8745 43.6013 32.8745C43.6013 32.8745 43.6013 34.0924 43.6013 34.6637C43.6013 35.1096 43.6013 36.4528 43.6013 36.4528C43.6013 36.4528 42.3544 36.4528 41.8121 36.4528C40.8236 36.4528 40.0229 35.6514 40.0229 34.6637C40.0229 33.6758 40.8236 32.8745 41.8121 32.8745Z" fill="black"/>
<path d="M47.1765 32.8745H43.5981V36.4528H47.1765V32.8745Z" fill="black"/>
<path d="M50.7683 32.8745H47.1899V36.4528H50.7683V32.8745Z" fill="black"/>
<path d="M54.3439 32.8745H50.7656V36.4528H54.3439V32.8745Z" fill="black"/>
<path d="M54.3345 32.8745V36.4528H57.9128C57.9128 34.4765 56.3107 32.8745 54.3345 32.8745Z" fill="black"/>
<path d="M65.0659 36.4528H68.6442V32.8745C66.668 32.8745 65.0659 34.4766 65.0659 36.4528Z" fill="black"/>
<path d="M72.2297 32.8745H68.6514V36.4528C70.6276 36.4528 72.2297 34.8508 72.2297 32.8745Z" fill="black"/>
<path d="M82.9717 36.4528H86.55V32.8745C84.5738 32.8745 82.9717 34.4766 82.9717 36.4528Z" fill="black"/>
<path d="M88.3307 36.4528C87.9136 36.4528 86.5415 36.4528 86.5415 36.4528C86.5415 36.4528 86.5415 35.2347 86.5415 34.6637C86.5415 34.2176 86.5415 32.8745 86.5415 32.8745C86.5415 32.8745 87.7886 32.8745 88.3307 32.8745C89.3187 32.8745 90.1198 33.6755 90.1198 34.6637C90.1198 35.6517 89.3187 36.4528 88.3307 36.4528Z" fill="black"/>
<path d="M97.2814 36.4528V32.8745H93.7031C93.7031 34.8508 95.3052 36.4528 97.2814 36.4528Z" fill="black"/>
<path d="M100.856 32.8745H97.2773V36.4528C99.2536 36.4528 100.856 34.8508 100.856 32.8745Z" fill="black"/>
<path d="M4.2375 38.2491C4.2375 38.6661 4.2375 40.0383 4.2375 40.0383C4.2375 40.0383 3.01948 40.0383 2.44834 40.0382C2.00231 40.0383 0.65918 40.0382 0.65918 40.0382C0.65918 40.0382 0.65918 38.7912 0.65918 38.2491C0.659223 37.261 1.46021 36.46 2.4483 36.46C3.43641 36.46 4.2375 37.261 4.2375 38.2491Z" fill="black"/>
<path d="M11.3947 38.2491C11.3947 38.6661 11.3947 40.0383 11.3947 40.0383C11.3947 40.0383 10.1767 40.0383 9.60557 40.0382C9.15954 40.0383 7.81641 40.0382 7.81641 40.0382C7.81641 40.0382 7.81641 38.7912 7.81641 38.2491C7.81645 37.261 8.61744 36.46 9.60552 36.46C10.5936 36.46 11.3947 37.261 11.3947 38.2491Z" fill="black"/>
<path d="M16.7628 36.46C17.751 36.46 18.552 37.261 18.552 38.2491C18.552 39.2373 17.751 40.0383 16.7628 40.0383C15.7747 40.0383 14.9736 39.2373 14.9736 38.2491C14.9736 37.261 15.7747 36.46 16.7628 36.46Z" fill="black"/>
<path d="M23.921 36.46C24.338 36.46 25.7102 36.46 25.7102 36.46C25.7102 36.46 25.7102 37.6779 25.7102 38.2491C25.7102 38.695 25.7102 40.0383 25.7102 40.0383C25.7102 40.0383 24.4633 40.0383 23.921 40.0383C22.9325 40.0383 22.1318 39.2369 22.1318 38.2491C22.1318 37.2612 22.9325 36.46 23.921 36.46Z" fill="black"/>
<path d="M27.503 40.0383C27.086 40.0383 25.7139 40.0383 25.7139 40.0383C25.7139 40.0383 25.7139 38.8202 25.7139 38.2491C25.7139 37.8031 25.7139 36.46 25.7139 36.46C25.7139 36.46 26.961 36.46 27.503 36.46C28.4911 36.46 29.2922 37.261 29.2922 38.2491C29.2922 39.2372 28.4911 40.0383 27.503 40.0383Z" fill="black"/>
<path d="M47.1765 36.46H43.5981V40.0383H47.1765V36.46Z" fill="black"/>
<path d="M50.7683 36.46H47.1899V40.0383H50.7683V36.46Z" fill="black"/>
<path d="M54.3439 36.46H50.7656V40.0383H54.3439V36.46Z" fill="black"/>
<path d="M57.9167 36.46H54.3384V40.0383H57.9167V36.46Z" fill="black"/>
<path d="M63.2877 36.46C63.7047 36.46 65.0769 36.46 65.0769 36.46C65.0769 36.46 65.0769 37.6779 65.0769 38.2491C65.0769 38.695 65.0769 40.0383 65.0769 40.0383C65.0769 40.0383 63.83 40.0383 63.2877 40.0383C62.2992 40.0383 61.4985 39.2369 61.4985 38.2491C61.4985 37.2612 62.2992 36.46 63.2877 36.46Z" fill="black"/>
<path d="M68.6442 36.4565H65.0659V40.0349C67.0422 40.0349 68.6442 38.4328 68.6442 36.4565Z" fill="black"/>
<path d="M79.3843 40.0349H82.9626V36.4565C80.9864 36.4566 79.3843 38.0586 79.3843 40.0349Z" fill="black"/>
<path d="M86.55 36.4565H82.9717V40.0349C84.9479 40.0349 86.55 38.4328 86.55 36.4565Z" fill="black"/>
<path d="M4.23847 43.6037V40.0254H0.660156C0.660163 42.0016 2.26219 43.6037 4.23847 43.6037Z" fill="black"/>
<path d="M7.82197 40.0264H4.24365V43.6047H7.82197V40.0264Z" fill="black"/>
<path d="M11.3947 40.0264H7.81641V43.6047H11.3947V40.0264Z" fill="black"/>
<path d="M20.3448 40.0264C21.333 40.0264 22.134 40.8274 22.134 41.8155C22.134 42.8037 21.333 43.6047 20.3448 43.6047C19.3567 43.6047 18.5557 42.8037 18.5557 41.8155C18.5557 40.8274 19.3567 40.0264 20.3448 40.0264Z" fill="black"/>
<path d="M34.6607 40.0264C35.0778 40.0264 36.4499 40.0264 36.4499 40.0264C36.4499 40.0264 36.4499 41.2443 36.4499 41.8155C36.4499 42.2614 36.4499 43.6047 36.4499 43.6047C36.4499 43.6047 35.2031 43.6047 34.6607 43.6047C33.6723 43.6047 32.8716 42.8033 32.8716 41.8155C32.8716 40.8276 33.6723 40.0264 34.6607 40.0264Z" fill="black"/>
<path d="M40.0319 40.0264H36.4536V43.6047H40.0319V40.0264Z" fill="black"/>
<path d="M43.6013 40.0264H40.0229V43.6047H43.6013V40.0264Z" fill="black"/>
<path d="M47.1765 40.0264H43.5981V43.6047H47.1765V40.0264Z" fill="black"/>
<path d="M50.7683 40.0264H47.1899V43.6047H50.7683V40.0264Z" fill="black"/>
<path d="M57.9167 40.0264H54.3384V43.6047H57.9167V40.0264Z" fill="black"/>
<path d="M74.0182 40.0264C74.4352 40.0264 75.8073 40.0264 75.8073 40.0264C75.8073 40.0264 75.8073 41.2443 75.8073 41.8155C75.8073 42.2614 75.8073 43.6047 75.8073 43.6047C75.8073 43.6047 74.5605 43.6047 74.0182 43.6047C73.0297 43.6047 72.229 42.8033 72.229 41.8155C72.229 40.8276 73.0297 40.0264 74.0182 40.0264Z" fill="black"/>
<path d="M79.3923 40.0264H75.814V43.6047H79.3923V40.0264Z" fill="black"/>
<path d="M82.9626 40.0264H79.3843V43.6047H82.9626V40.0264Z" fill="black"/>
<path d="M88.3307 40.0264C88.7477 40.0264 90.1198 40.0264 90.1198 40.0264C90.1198 40.0264 90.1198 41.2443 90.1198 41.8155C90.1198 42.2614 90.1198 43.6047 90.1198 43.6047C90.1198 43.6047 88.873 43.6047 88.3307 43.6047C87.3422 43.6047 86.5415 42.8033 86.5415 41.8155C86.5415 40.8276 87.3422 40.0264 88.3307 40.0264Z" fill="black"/>
<path d="M91.9127 43.6047C91.4957 43.6047 90.1235 43.6047 90.1235 43.6047C90.1235 43.6047 90.1235 42.3866 90.1235 41.8155C90.1235 41.3695 90.1235 40.0264 90.1235 40.0264C90.1235 40.0264 91.3707 40.0264 91.9127 40.0264C92.9008 40.0264 93.7019 40.8274 93.7019 41.8155C93.7019 42.8036 92.9008 43.6047 91.9127 43.6047Z" fill="black"/>
<path d="M11.3947 43.5991H7.81641V47.1774H11.3947V43.5991Z" fill="black"/>
<path d="M14.9802 43.5991H11.4019V47.1774H14.9802V43.5991Z" fill="black"/>
<path d="M14.9673 43.5947V47.173H18.5456C18.5456 45.1968 16.9435 43.5947 14.9673 43.5947Z" fill="black"/>
<path d="M23.921 43.5991C24.9092 43.5991 25.7102 44.4002 25.7102 45.3883C25.7102 46.3764 24.9092 47.1774 23.921 47.1774C22.9329 47.1774 22.1318 46.3764 22.1318 45.3883C22.1318 44.4002 22.9329 43.5991 23.921 43.5991Z" fill="black"/>
<path d="M31.0753 43.5991C32.0635 43.5991 32.8645 44.4002 32.8645 45.3883C32.8645 46.3764 32.0635 47.1774 31.0753 47.1774C30.0872 47.1774 29.2861 46.3764 29.2861 45.3883C29.2861 44.4002 30.0872 43.5991 31.0753 43.5991Z" fill="black"/>
<path d="M43.6013 43.5991H40.0229V47.1774H43.6013V43.5991Z" fill="black"/>
<path d="M47.1765 43.5991H43.5981V47.1774H47.1765V43.5991Z" fill="black"/>
<path d="M50.7702 43.5947H47.1919V47.173C49.1681 47.173 50.7702 45.571 50.7702 43.5947Z" fill="black"/>
<path d="M57.9167 43.5991H54.3384V47.1774H57.9167V43.5991Z" fill="black"/>
<path d="M72.2351 45.3883C72.2351 45.8053 72.2351 47.1774 72.2351 47.1774C72.2351 47.1774 71.017 47.1774 70.4459 47.1774C69.9999 47.1774 68.6567 47.1774 68.6567 47.1774C68.6567 47.1774 68.6567 45.9304 68.6567 45.3882C68.6568 44.4002 69.4578 43.5991 70.4459 43.5991C71.434 43.5991 72.2351 44.4002 72.2351 45.3883Z" fill="black"/>
<path d="M82.9626 43.5991H79.3843V47.1774H82.9626V43.5991Z" fill="black"/>
<path d="M82.9717 43.5947V47.173H86.55C86.55 45.1968 84.9479 43.5947 82.9717 43.5947Z" fill="black"/>
<path d="M104.436 45.3883C104.436 45.8053 104.436 47.1774 104.436 47.1774C104.436 47.1774 103.218 47.1774 102.647 47.1774C102.201 47.1774 100.857 47.1774 100.857 47.1774C100.857 47.1774 100.857 45.9304 100.857 45.3882C100.857 44.4002 101.658 43.5991 102.647 43.5991C103.635 43.5991 104.436 44.4002 104.436 45.3883Z" fill="black"/>
<path d="M2.44834 47.1875C3.43651 47.1875 4.2375 47.9885 4.2375 48.9767C4.2375 49.9648 3.43651 50.7658 2.44834 50.7658C1.46022 50.7658 0.65918 49.9648 0.65918 48.9767C0.65918 47.9885 1.46022 47.1875 2.44834 47.1875Z" fill="black"/>
<path d="M7.81641 48.9767C7.81641 48.5596 7.81641 47.1875 7.81641 47.1875C7.81641 47.1875 9.03447 47.1875 9.60557 47.1875C10.0516 47.1875 11.3947 47.1875 11.3947 47.1875C11.3947 47.1875 11.3947 48.4346 11.3947 48.9767C11.3947 49.9647 10.5936 50.7658 9.60557 50.7658C8.61744 50.7658 7.81641 49.9647 7.81641 48.9767Z" fill="black"/>
<path d="M18.552 47.1875H14.9736V50.7658H18.552V47.1875Z" fill="black"/>
<path d="M29.2922 48.9767C29.2922 49.3936 29.2922 50.7658 29.2922 50.7658C29.2922 50.7658 28.0742 50.7658 27.503 50.7657C27.057 50.7658 25.7139 50.7657 25.7139 50.7657C25.7139 50.7657 25.7139 49.5188 25.7139 48.9766C25.7139 47.9885 26.5149 47.1875 27.503 47.1875C28.4911 47.1875 29.2922 47.9885 29.2922 48.9767Z" fill="black"/>
<path d="M36.4536 50.7663H40.0319V47.188C38.0557 47.188 36.4536 48.79 36.4536 50.7663Z" fill="black"/>
<path d="M43.6013 47.1875H40.0229V50.7658H43.6013V47.1875Z" fill="black"/>
<path d="M47.1706 47.188H43.5923V50.7663C45.5685 50.7663 47.1706 49.1642 47.1706 47.188Z" fill="black"/>
<path d="M57.9167 47.1875H54.3384V50.7658H57.9167V47.1875Z" fill="black"/>
<path d="M61.489 47.1875H57.9106V50.7658H61.489V47.1875Z" fill="black"/>
<path d="M65.0769 47.1875H61.4985V50.7658H65.0769V47.1875Z" fill="black"/>
<path d="M68.6657 47.1875H65.0874V50.7658H68.6657V47.1875Z" fill="black"/>
<path d="M72.2351 47.1875H68.6567V50.7658H72.2351V47.1875Z" fill="black"/>
<path d="M72.2295 47.188V50.7663H75.8078C75.8078 48.79 74.2057 47.188 72.2295 47.188Z" fill="black"/>
<path d="M82.9626 47.1875H79.3843V50.7658H82.9626V47.1875Z" fill="black"/>
<path d="M86.55 47.1875H82.9717V50.7658H86.55V47.1875Z" fill="black"/>
<path d="M88.3307 50.7658C87.9136 50.7658 86.5415 50.7658 86.5415 50.7658C86.5415 50.7658 86.5415 49.5477 86.5415 48.9767C86.5415 48.5306 86.5415 47.1875 86.5415 47.1875C86.5415 47.1875 87.7886 47.1875 88.3307 47.1875C89.3187 47.1875 90.1198 47.9885 90.1198 48.9767C90.1198 49.9647 89.3187 50.7658 88.3307 50.7658Z" fill="black"/>
<path d="M99.0738 47.1875C99.4908 47.1875 100.863 47.1875 100.863 47.1875C100.863 47.1875 100.863 48.4054 100.863 48.9767C100.863 49.4226 100.863 50.7658 100.863 50.7658C100.863 50.7658 99.6162 50.7658 99.0738 50.7658C98.0854 50.7658 97.2847 49.9644 97.2847 48.9767C97.2847 47.9888 98.0854 47.1875 99.0738 47.1875Z" fill="black"/>
<path d="M104.436 47.188H100.858V50.7663C102.834 50.7663 104.436 49.1642 104.436 47.188Z" fill="black"/>
<path d="M7.82197 52.5587C7.82197 52.9757 7.82197 54.3478 7.82197 54.3478C7.82197 54.3478 6.60395 54.3478 6.03281 54.3478C5.58678 54.3478 4.24365 54.3478 4.24365 54.3478C4.24365 54.3478 4.24365 53.1008 4.24365 52.5586C4.2437 51.5706 5.04469 50.7695 6.03277 50.7695C7.02089 50.7695 7.82197 51.5706 7.82197 52.5587Z" fill="black"/>
<path d="M11.4111 54.3518H14.9895V50.7734C13.0132 50.7734 11.4111 52.3755 11.4111 54.3518Z" fill="black"/>
<path d="M18.552 50.7695H14.9736V54.3478H18.552V50.7695Z" fill="black"/>
<path d="M22.134 50.7695H18.5557V54.3478H22.134V50.7695Z" fill="black"/>
<path d="M25.7102 50.7695H22.1318V54.3478H25.7102V50.7695Z" fill="black"/>
<path d="M29.2922 50.7695H25.7139V54.3478H29.2922V50.7695Z" fill="black"/>
<path d="M31.0753 54.3478C30.6583 54.3478 29.2861 54.3478 29.2861 54.3478C29.2861 54.3478 29.2861 53.1297 29.2861 52.5587C29.2861 52.1127 29.2861 50.7695 29.2861 50.7695C29.2861 50.7695 30.5333 50.7695 31.0753 50.7695C32.0634 50.7695 32.8645 51.5706 32.8645 52.5587C32.8645 53.5468 32.0634 54.3478 31.0753 54.3478Z" fill="black"/>
<path d="M36.4536 52.5587C36.4536 52.1417 36.4536 50.7695 36.4536 50.7695C36.4536 50.7695 37.6717 50.7695 38.2428 50.7695C38.6888 50.7695 40.0319 50.7695 40.0319 50.7695C40.0319 50.7695 40.0319 52.0167 40.0319 52.5587C40.0319 53.5468 39.2308 54.3478 38.2428 54.3478C37.2546 54.3478 36.4536 53.5468 36.4536 52.5587Z" fill="black"/>
<path d="M57.9167 50.7695H54.3384V54.3478H57.9167V50.7695Z" fill="black"/>
<path d="M61.489 50.7695H57.9106V54.3478H61.489V50.7695Z" fill="black"/>
<path d="M65.0769 50.7695H61.4985V54.3478H65.0769V50.7695Z" fill="black"/>
<path d="M68.6442 50.7734H65.0659V54.3518C67.0422 54.3518 68.6442 52.7497 68.6442 50.7734Z" fill="black"/>
<path d="M75.8073 50.7695H72.229V54.3478H75.8073V50.7695Z" fill="black"/>
<path d="M82.9626 50.7695H79.3843V54.3478H82.9626V50.7695Z" fill="black"/>
<path d="M91.9127 50.7661C92.3297 50.7661 93.7019 50.7661 93.7019 50.7661C93.7019 50.7661 93.7019 51.984 93.7019 52.5553C93.7019 53.0012 93.7019 54.3444 93.7019 54.3444C93.7019 54.3444 92.455 54.3444 91.9127 54.3444C90.9242 54.3444 90.1235 53.543 90.1235 52.5553C90.1235 51.5674 90.9242 50.7661 91.9127 50.7661Z" fill="black"/>
<path d="M93.7031 50.7734V54.3518H97.2814C97.2814 52.3755 95.6794 50.7734 93.7031 50.7734Z" fill="black"/>
<path d="M7.82197 54.3413H4.24365V57.9196H7.82197V54.3413Z" fill="black"/>
<path d="M11.3947 54.3413H7.81641V57.9196H11.3947V54.3413Z" fill="black"/>
<path d="M14.9802 54.3413H11.4019V57.9196H14.9802V54.3413Z" fill="black"/>
<path d="M25.7139 56.1305C25.7139 55.7134 25.7139 54.3413 25.7139 54.3413C25.7139 54.3413 26.9319 54.3413 27.503 54.3413C27.9491 54.3413 29.2922 54.3413 29.2922 54.3413C29.2922 54.3413 29.2922 55.5884 29.2922 56.1305C29.2922 57.1185 28.4911 57.9196 27.503 57.9196C26.5149 57.9196 25.7139 57.1185 25.7139 56.1305Z" fill="black"/>
<path d="M34.6607 54.3413C35.6489 54.3413 36.4499 55.1424 36.4499 56.1305C36.4499 57.1186 35.6489 57.9196 34.6607 57.9196C33.6726 57.9196 32.8716 57.1186 32.8716 56.1305C32.8716 55.1424 33.6726 54.3413 34.6607 54.3413Z" fill="black"/>
<path d="M43.6013 56.1305C43.6013 56.5475 43.6013 57.9196 43.6013 57.9196C43.6013 57.9196 42.3833 57.9196 41.8121 57.9195C41.3661 57.9196 40.0229 57.9195 40.0229 57.9195C40.0229 57.9195 40.0229 56.6726 40.0229 56.1304C40.023 55.1424 40.824 54.3413 41.8121 54.3413C42.8002 54.3413 43.6013 55.1424 43.6013 56.1305Z" fill="black"/>
<path d="M57.9167 54.3413H54.3384V57.9196H57.9167V54.3413Z" fill="black"/>
<path d="M75.8078 57.9211V54.3428H72.2295C72.2295 56.319 73.8315 57.9211 75.8078 57.9211Z" fill="black"/>
<path d="M79.3923 54.3413H75.814V57.9196H79.3923V54.3413Z" fill="black"/>
<path d="M82.9626 54.3413H79.3843V57.9196H82.9626V54.3413Z" fill="black"/>
<path d="M84.7608 57.9196C84.3438 57.9196 82.9717 57.9196 82.9717 57.9196C82.9717 57.9196 82.9717 56.7015 82.9717 56.1305C82.9717 55.6844 82.9717 54.3413 82.9717 54.3413C82.9717 54.3413 84.2188 54.3413 84.7608 54.3413C85.7489 54.3413 86.55 55.1423 86.55 56.1305C86.55 57.1185 85.7489 57.9196 84.7608 57.9196Z" fill="black"/>
<path d="M97.2834 54.3413H93.7051V57.9196H97.2834V54.3413Z" fill="black"/>
<path d="M102.647 54.3413C103.635 54.3413 104.436 55.1424 104.436 56.1305C104.436 57.1186 103.635 57.9196 102.647 57.9196C101.658 57.9196 100.857 57.1186 100.857 56.1305C100.857 55.1424 101.658 54.3413 102.647 54.3413Z" fill="black"/>
<path d="M4.24365 59.6939C4.24365 59.2769 4.24365 57.9048 4.24365 57.9048C4.24365 57.9048 5.46172 57.9048 6.03281 57.9048C6.47884 57.9048 7.82197 57.9048 7.82197 57.9048C7.82197 57.9048 7.82197 59.1519 7.82197 59.6939C7.82197 60.682 7.02089 61.4831 6.03281 61.4831C5.04469 61.4831 4.24365 60.682 4.24365 59.6939Z" fill="black"/>
<path d="M14.9802 57.9048H11.4019V61.4831H14.9802V57.9048Z" fill="black"/>
<path d="M23.921 57.9048C24.9092 57.9048 25.7102 58.7058 25.7102 59.6939C25.7102 60.6821 24.9092 61.4831 23.921 61.4831C22.9329 61.4831 22.1318 60.6821 22.1318 59.6939C22.1318 58.7058 22.9329 57.9048 23.921 57.9048Z" fill="black"/>
<path d="M43.6013 61.4904V57.9121H40.0229C40.023 59.8884 41.625 61.4904 43.6013 61.4904Z" fill="black"/>
<path d="M43.5923 57.9121V61.4904H47.1706C47.1706 59.5141 45.5685 57.9121 43.5923 57.9121Z" fill="black"/>
<path d="M57.9167 57.9048H54.3384V61.4831H57.9167V57.9048Z" fill="black"/>
<path d="M61.4966 61.4904H65.0749V57.9121C63.0987 57.9121 61.4966 59.5142 61.4966 61.4904Z" fill="black"/>
<path d="M68.6657 57.9048H65.0874V61.4831H68.6657V57.9048Z" fill="black"/>
<path d="M68.6514 57.9121V61.4904H72.2297C72.2297 59.5141 70.6276 57.9121 68.6514 57.9121Z" fill="black"/>
<path d="M75.814 59.6939C75.814 59.2769 75.814 57.9048 75.814 57.9048C75.814 57.9048 77.032 57.9048 77.6031 57.9048C78.0492 57.9048 79.3923 57.9048 79.3923 57.9048C79.3923 57.9048 79.3923 59.1519 79.3923 59.6939C79.3923 60.682 78.5912 61.4831 77.6031 61.4831C76.615 61.4831 75.814 60.682 75.814 59.6939Z" fill="black"/>
<path d="M91.9127 57.9048C92.3297 57.9048 93.7019 57.9048 93.7019 57.9048C93.7019 57.9048 93.7019 59.1227 93.7019 59.6939C93.7019 60.1398 93.7019 61.4831 93.7019 61.4831C93.7019 61.4831 92.455 61.4831 91.9127 61.4831C90.9242 61.4831 90.1235 60.6817 90.1235 59.6939C90.1235 58.7061 90.9242 57.9048 91.9127 57.9048Z" fill="black"/>
<path d="M97.2834 57.9048H93.7051V61.4831H97.2834V57.9048Z" fill="black"/>
<path d="M4.2375 63.2921C4.2375 63.7091 4.2375 65.0812 4.2375 65.0812C4.2375 65.0812 3.01948 65.0812 2.44834 65.0812C2.00231 65.0812 0.65918 65.0812 0.65918 65.0812C0.65918 65.0812 0.65918 63.8342 0.65918 63.292C0.659223 62.304 1.46021 61.5029 2.4483 61.5029C3.43641 61.5029 4.2375 62.304 4.2375 63.2921Z" fill="black"/>
<path d="M11.4019 63.2921C11.4019 62.8751 11.4019 61.5029 11.4019 61.5029C11.4019 61.5029 12.6199 61.5029 13.191 61.5029C13.637 61.5029 14.9802 61.5029 14.9802 61.5029C14.9802 61.5029 14.9802 62.7501 14.9802 63.2921C14.9802 64.2802 14.1791 65.0812 13.191 65.0812C12.2029 65.0812 11.4019 64.2802 11.4019 63.2921Z" fill="black"/>
<path d="M20.3448 61.5029C21.333 61.5029 22.134 62.304 22.134 63.2921C22.134 64.2803 21.333 65.0812 20.3448 65.0812C19.3567 65.0812 18.5557 64.2803 18.5557 63.2921C18.5557 62.304 19.3567 61.5029 20.3448 61.5029Z" fill="black"/>
<path d="M29.2788 65.0759H32.8571V61.4976C30.8809 61.4976 29.2788 63.0996 29.2788 65.0759Z" fill="black"/>
<path d="M34.6607 65.0812C34.2437 65.0812 32.8716 65.0812 32.8716 65.0812C32.8716 65.0812 32.8716 63.8631 32.8716 63.2921C32.8716 62.8461 32.8716 61.5029 32.8716 61.5029C32.8716 61.5029 34.1187 61.5029 34.6607 61.5029C35.6488 61.5029 36.4499 62.304 36.4499 63.2921C36.4499 64.2802 35.6488 65.0812 34.6607 65.0812Z" fill="black"/>
<path d="M47.1765 61.5029H43.5981V65.0812H47.1765V61.5029Z" fill="black"/>
<path d="M50.7683 61.5029H47.1899V65.0812H50.7683V61.5029Z" fill="black"/>
<path d="M54.3439 61.5029H50.7656V65.0812H54.3439V61.5029Z" fill="black"/>
<path d="M57.9167 61.5029H54.3384V65.0812H57.9167V61.5029Z" fill="black"/>
<path d="M61.489 61.5029H57.9106V65.0812H61.489V61.5029Z" fill="black"/>
<path d="M65.0749 61.4976H61.4966V65.0759C63.4728 65.0759 65.0749 63.4738 65.0749 61.4976Z" fill="black"/>
<path d="M72.2351 61.5029H68.6567V65.0812H72.2351V61.5029Z" fill="black"/>
<path d="M74.0182 65.0812C73.6011 65.0812 72.229 65.0812 72.229 65.0812C72.229 65.0812 72.229 63.8631 72.229 63.2921C72.229 62.8461 72.229 61.5029 72.229 61.5029C72.229 61.5029 73.4761 61.5029 74.0182 61.5029C75.0062 61.5029 75.8073 62.304 75.8073 63.2921C75.8073 64.2802 75.0062 65.0812 74.0182 65.0812Z" fill="black"/>
<path d="M81.1734 61.5029C82.1616 61.5029 82.9626 62.304 82.9626 63.2921C82.9626 64.2803 82.1616 65.0812 81.1734 65.0812C80.1853 65.0812 79.3843 64.2803 79.3843 63.2921C79.3843 62.304 80.1853 61.5029 81.1734 61.5029Z" fill="black"/>
<path d="M88.3307 61.5029C89.3188 61.5029 90.1198 62.304 90.1198 63.2921C90.1198 64.2803 89.3188 65.0812 88.3307 65.0812C87.3425 65.0812 86.5415 64.2803 86.5415 63.2921C86.5415 62.304 87.3425 61.5029 88.3307 61.5029Z" fill="black"/>
<path d="M97.2814 65.0759V61.4976H93.7031C93.7031 63.4738 95.3052 65.0759 97.2814 65.0759Z" fill="black"/>
<path d="M100.863 61.5029H97.2847V65.0812H100.863V61.5029Z" fill="black"/>
<path d="M100.858 61.4976V65.0759H104.436C104.436 63.0996 102.834 61.4976 100.858 61.4976Z" fill="black"/>
<path d="M4.2375 65.0781H0.65918V68.6564H4.2375V65.0781Z" fill="black"/>
<path d="M7.82197 65.0781H4.24365V68.6564H7.82197V65.0781Z" fill="black"/>
<path d="M9.60557 68.6564C9.18854 68.6564 7.81641 68.6564 7.81641 68.6564C7.81641 68.6564 7.81641 67.4383 7.81641 66.8673C7.81641 66.4213 7.81641 65.0781 7.81641 65.0781C7.81641 65.0781 9.06353 65.0781 9.60557 65.0781C10.5936 65.0781 11.3947 65.8792 11.3947 66.8673C11.3947 67.8554 10.5936 68.6564 9.60557 68.6564Z" fill="black"/>
<path d="M18.552 66.8673C18.552 67.2843 18.552 68.6564 18.552 68.6564C18.552 68.6564 17.3339 68.6564 16.7628 68.6564C16.3168 68.6564 14.9736 68.6564 14.9736 68.6564C14.9736 68.6564 14.9736 67.4094 14.9736 66.8672C14.9737 65.8792 15.7747 65.0781 16.7627 65.0781C17.7509 65.0781 18.552 65.8792 18.552 66.8673Z" fill="black"/>
<path d="M23.921 65.0781C24.338 65.0781 25.7102 65.0781 25.7102 65.0781C25.7102 65.0781 25.7102 66.2961 25.7102 66.8673C25.7102 67.3132 25.7102 68.6564 25.7102 68.6564C25.7102 68.6564 24.4633 68.6564 23.921 68.6564C22.9325 68.6564 22.1318 67.8551 22.1318 66.8673C22.1318 65.8794 22.9325 65.0781 23.921 65.0781Z" fill="black"/>
<path d="M29.2922 65.0781H25.7139V68.6564H29.2922V65.0781Z" fill="black"/>
<path d="M32.8645 65.0781H29.2861V68.6564H32.8645V65.0781Z" fill="black"/>
<path d="M40.0229 68.6579H43.6013V65.0796C41.625 65.0796 40.0229 66.6816 40.0229 68.6579Z" fill="black"/>
<path d="M47.1706 65.0796H43.5923V68.6579C45.5685 68.6579 47.1706 67.0558 47.1706 65.0796Z" fill="black"/>
<path d="M54.3384 66.8673C54.3384 66.4503 54.3384 65.0781 54.3384 65.0781C54.3384 65.0781 55.5564 65.0781 56.1275 65.0781C56.5736 65.0781 57.9167 65.0781 57.9167 65.0781C57.9167 65.0781 57.9167 66.3252 57.9167 66.8673C57.9167 67.8554 57.1156 68.6564 56.1275 68.6564C55.1394 68.6564 54.3384 67.8554 54.3384 66.8673Z" fill="black"/>
<path d="M72.2351 65.0781H68.6567V68.6564H72.2351V65.0781Z" fill="black"/>
<path d="M91.9127 65.0781C92.9009 65.0781 93.7019 65.8792 93.7019 66.8673C93.7019 67.8555 92.9009 68.6564 91.9127 68.6564C90.9246 68.6564 90.1235 67.8555 90.1235 66.8673C90.1235 65.8792 90.9246 65.0781 91.9127 65.0781Z" fill="black"/>
<path d="M100.857 66.8673C100.857 66.4503 100.857 65.0781 100.857 65.0781C100.857 65.0781 102.075 65.0781 102.647 65.0781C103.093 65.0781 104.436 65.0781 104.436 65.0781C104.436 65.0781 104.436 66.3252 104.436 66.8673C104.436 67.8554 103.635 68.6564 102.647 68.6564C101.658 68.6564 100.857 67.8554 100.857 66.8673Z" fill="black"/>
<path d="M4.2375 68.647H0.65918V72.2253H4.2375V68.647Z" fill="black"/>
<path d="M18.552 68.647H14.9736V72.2253H18.552V68.647Z" fill="black"/>
<path d="M32.8571 72.2321V68.6538H29.2788C29.2788 70.6301 30.8808 72.2321 32.8571 72.2321Z" fill="black"/>
<path d="M34.6607 72.2253C34.2437 72.2253 32.8716 72.2253 32.8716 72.2253C32.8716 72.2253 32.8716 71.0072 32.8716 70.4361C32.8716 69.9901 32.8716 68.647 32.8716 68.647C32.8716 68.647 34.1187 68.647 34.6607 68.647C35.6488 68.647 36.4499 69.448 36.4499 70.4361C36.4499 71.4242 35.6488 72.2253 34.6607 72.2253Z" fill="black"/>
<path d="M43.6013 68.647H40.0229V72.2253H43.6013V68.647Z" fill="black"/>
<path d="M48.9791 68.647C49.9673 68.647 50.7683 69.448 50.7683 70.4361C50.7683 71.4243 49.9673 72.2253 48.9791 72.2253C47.991 72.2253 47.1899 71.4243 47.1899 70.4361C47.1899 69.448 47.991 68.647 48.9791 68.647Z" fill="black"/>
<path d="M61.489 70.4361C61.489 70.8531 61.489 72.2253 61.489 72.2253C61.489 72.2253 60.2709 72.2253 59.6998 72.2252C59.2538 72.2253 57.9106 72.2252 57.9106 72.2252C57.9106 72.2252 57.9106 70.9782 57.9106 70.4361C57.9107 69.448 58.7117 68.647 59.6998 68.647C60.6879 68.647 61.489 69.448 61.489 70.4361Z" fill="black"/>
<path d="M72.2297 72.2321V68.6538H68.6514C68.6514 70.6301 70.2534 72.2321 72.2297 72.2321Z" fill="black"/>
<path d="M75.8073 68.647H72.229V72.2253H75.8073V68.647Z" fill="black"/>
<path d="M79.3923 68.647H75.814V72.2253H79.3923V68.647Z" fill="black"/>
<path d="M79.3843 68.6538V72.2321H82.9626C82.9626 70.2558 81.3605 68.6538 79.3843 68.6538Z" fill="black"/>
<path d="M0.65918 74.0191C0.65918 73.6021 0.65918 72.23 0.65918 72.23C0.65918 72.23 1.87725 72.23 2.44834 72.23C2.89437 72.23 4.2375 72.23 4.2375 72.23C4.2375 72.23 4.2375 73.4771 4.2375 74.0191C4.2375 75.0072 3.43641 75.8083 2.44834 75.8083C1.46021 75.8083 0.65918 75.0072 0.65918 74.0191Z" fill="black"/>
<path d="M9.60557 72.23C10.5937 72.23 11.3947 73.031 11.3947 74.0191C11.3947 75.0073 10.5937 75.8083 9.60557 75.8083C8.61745 75.8083 7.81641 75.0073 7.81641 74.0191C7.81641 73.031 8.61745 72.23 9.60557 72.23Z" fill="black"/>
<path d="M18.5456 75.8088V72.2305H14.9673C14.9673 74.2067 16.5693 75.8088 18.5456 75.8088Z" fill="black"/>
<path d="M22.134 72.23H18.5557V75.8083H22.134V72.23Z" fill="black"/>
<path d="M25.7102 72.23H22.1318V75.8083H25.7102V72.23Z" fill="black"/>
<path d="M27.503 75.8083C27.086 75.8083 25.7139 75.8083 25.7139 75.8083C25.7139 75.8083 25.7139 74.5902 25.7139 74.0191C25.7139 73.5731 25.7139 72.23 25.7139 72.23C25.7139 72.23 26.961 72.23 27.503 72.23C28.4911 72.23 29.2922 73.031 29.2922 74.0191C29.2922 75.0072 28.4911 75.8083 27.503 75.8083Z" fill="black"/>
<path d="M43.6013 72.23H40.0229V75.8083H43.6013V72.23Z" fill="black"/>
<path d="M54.3439 74.0191C54.3439 74.4361 54.3439 75.8083 54.3439 75.8083C54.3439 75.8083 53.1259 75.8083 52.5548 75.8082C52.1088 75.8083 50.7656 75.8082 50.7656 75.8082C50.7656 75.8082 50.7656 74.5612 50.7656 74.0191C50.7657 73.031 51.5667 72.23 52.5547 72.23C53.5429 72.23 54.3439 73.031 54.3439 74.0191Z" fill="black"/>
<path d="M61.489 72.23H57.9106V75.8083H61.489V72.23Z" fill="black"/>
<path d="M63.2877 75.8083C62.8707 75.8083 61.4985 75.8083 61.4985 75.8083C61.4985 75.8083 61.4985 74.5902 61.4985 74.0191C61.4985 73.5731 61.4985 72.23 61.4985 72.23C61.4985 72.23 62.7457 72.23 63.2877 72.23C64.2758 72.23 65.0769 73.031 65.0769 74.0191C65.0769 75.0072 64.2758 75.8083 63.2877 75.8083Z" fill="black"/>
<path d="M75.8073 72.23H72.229V75.8083H75.8073V72.23Z" fill="black"/>
<path d="M79.3923 72.23H75.814V75.8083H79.3923V72.23Z" fill="black"/>
<path d="M82.9626 72.23H79.3843V75.8083H82.9626V72.23Z" fill="black"/>
<path d="M86.55 72.23H82.9717V75.8083H86.55V72.23Z" fill="black"/>
<path d="M86.5444 72.2305V75.8088H90.1228C90.1228 73.8325 88.5207 72.2305 86.5444 72.2305Z" fill="black"/>
<path d="M95.4942 72.23C95.9113 72.23 97.2834 72.23 97.2834 72.23C97.2834 72.23 97.2834 73.4479 97.2834 74.0191C97.2834 74.465 97.2834 75.8083 97.2834 75.8083C97.2834 75.8083 96.0366 75.8083 95.4942 75.8083C94.5058 75.8083 93.7051 75.0069 93.7051 74.0191C93.7051 73.0313 94.5058 72.23 95.4942 72.23Z" fill="black"/>
<path d="M100.863 72.23H97.2847V75.8083H100.863V72.23Z" fill="black"/>
<path d="M102.647 75.8083C102.23 75.8083 100.857 75.8083 100.857 75.8083C100.857 75.8083 100.857 74.5902 100.857 74.0191C100.857 73.5731 100.857 72.23 100.857 72.23C100.857 72.23 102.105 72.23 102.647 72.23C103.635 72.23 104.436 73.031 104.436 74.0191C104.436 75.0072 103.635 75.8083 102.647 75.8083Z" fill="black"/>
<path d="M31.0753 75.811C32.0635 75.811 32.8645 76.6121 32.8645 77.6002C32.8645 78.5884 32.0635 79.3894 31.0753 79.3894C30.0872 79.3894 29.2861 78.5884 29.2861 77.6002C29.2861 76.6121 30.0872 75.811 31.0753 75.811Z" fill="black"/>
<path d="M43.6013 79.3962V75.8179H40.0229C40.023 77.7941 41.625 79.3962 43.6013 79.3962Z" fill="black"/>
<path d="M43.5923 75.8179V79.3962H47.1706C47.1706 77.4199 45.5685 75.8179 43.5923 75.8179Z" fill="black"/>
<path d="M54.3395 79.3962V75.8179H50.7612C50.7612 77.7941 52.3633 79.3962 54.3395 79.3962Z" fill="black"/>
<path d="M57.9167 75.811H54.3384V79.3894H57.9167V75.811Z" fill="black"/>
<path d="M61.489 75.811H57.9106V79.3894H61.489V75.811Z" fill="black"/>
<path d="M66.8766 75.811C67.8647 75.811 68.6657 76.6121 68.6657 77.6002C68.6657 78.5884 67.8647 79.3894 66.8766 79.3894C65.8884 79.3894 65.0874 78.5884 65.0874 77.6002C65.0874 76.6121 65.8884 75.811 66.8766 75.811Z" fill="black"/>
<path d="M75.8073 75.811H72.229V79.3894H75.8073V75.811Z" fill="black"/>
<path d="M90.1198 75.811H86.5415V79.3894H90.1198V75.811Z" fill="black"/>
<path d="M90.1353 75.8179V79.3962H93.7136C93.7136 77.4199 92.1115 75.8179 90.1353 75.8179Z" fill="black"/>
<path d="M34.6607 79.3872C35.0778 79.3872 36.4499 79.3872 36.4499 79.3872C36.4499 79.3872 36.4499 80.6051 36.4499 81.1764C36.4499 81.6223 36.4499 82.9655 36.4499 82.9655C36.4499 82.9655 35.2031 82.9655 34.6607 82.9655C33.6723 82.9655 32.8716 82.1641 32.8716 81.1764C32.8716 80.1885 33.6723 79.3872 34.6607 79.3872Z" fill="black"/>
<path d="M36.4536 79.3872V82.9655H40.0319C40.0319 80.9892 38.4299 79.3872 36.4536 79.3872Z" fill="black"/>
<path d="M47.1765 79.3872H43.5981V82.9655H47.1765V79.3872Z" fill="black"/>
<path d="M57.9128 82.9655V79.3872H54.3345C54.3345 81.3635 55.9365 82.9655 57.9128 82.9655Z" fill="black"/>
<path d="M61.489 79.3872H57.9106V82.9655H61.489V79.3872Z" fill="black"/>
<path d="M63.2877 82.9655C62.8707 82.9655 61.4985 82.9655 61.4985 82.9655C61.4985 82.9655 61.4985 81.7474 61.4985 81.1764C61.4985 80.7303 61.4985 79.3872 61.4985 79.3872C61.4985 79.3872 62.7457 79.3872 63.2877 79.3872C64.2758 79.3872 65.0769 80.1882 65.0769 81.1764C65.0769 82.1644 64.2758 82.9655 63.2877 82.9655Z" fill="black"/>
<path d="M68.6514 82.9655H72.2297V79.3872C70.2535 79.3872 68.6514 80.9892 68.6514 82.9655Z" fill="black"/>
<path d="M75.8073 79.3872H72.229V82.9655H75.8073V79.3872Z" fill="black"/>
<path d="M81.1734 79.3872C82.1616 79.3872 82.9626 80.1882 82.9626 81.1764C82.9626 82.1645 82.1616 82.9655 81.1734 82.9655C80.1853 82.9655 79.3843 82.1645 79.3843 81.1764C79.3843 80.1882 80.1853 79.3872 81.1734 79.3872Z" fill="black"/>
<path d="M90.1198 79.3872H86.5415V82.9655H90.1198V79.3872Z" fill="black"/>
<path d="M93.7019 79.3872H90.1235V82.9655H93.7019V79.3872Z" fill="black"/>
<path d="M95.4942 82.9655C95.0772 82.9655 93.7051 82.9655 93.7051 82.9655C93.7051 82.9655 93.7051 81.7474 93.7051 81.1764C93.7051 80.7303 93.7051 79.3872 93.7051 79.3872C93.7051 79.3872 94.9522 79.3872 95.4942 79.3872C96.4823 79.3872 97.2834 80.1882 97.2834 81.1764C97.2834 82.1644 96.4823 82.9655 95.4942 82.9655Z" fill="black"/>
<path d="M36.4536 84.7643C36.4536 84.3472 36.4536 82.9751 36.4536 82.9751C36.4536 82.9751 37.6717 82.9751 38.2428 82.9751C38.6888 82.9751 40.0319 82.9751 40.0319 82.9751C40.0319 82.9751 40.0319 84.2222 40.0319 84.7643C40.0319 85.7523 39.2308 86.5534 38.2428 86.5534C37.2546 86.5534 36.4536 85.7523 36.4536 84.7643Z" fill="black"/>
<path d="M47.1765 82.9751H43.5981V86.5534H47.1765V82.9751Z" fill="black"/>
<path d="M54.3439 84.7643C54.3439 85.1812 54.3439 86.5534 54.3439 86.5534C54.3439 86.5534 53.1259 86.5534 52.5548 86.5533C52.1088 86.5534 50.7656 86.5533 50.7656 86.5533C50.7656 86.5533 50.7656 85.3064 50.7656 84.7642C50.7657 83.7761 51.5667 82.9751 52.5547 82.9751C53.5429 82.9751 54.3439 83.7761 54.3439 84.7643Z" fill="black"/>
<path d="M61.489 82.9751H57.9106V86.5534H61.489V82.9751Z" fill="black"/>
<path d="M66.8766 82.9751C67.2936 82.9751 68.6657 82.9751 68.6657 82.9751C68.6657 82.9751 68.6657 84.193 68.6657 84.7643C68.6657 85.2102 68.6657 86.5534 68.6657 86.5534C68.6657 86.5534 67.4189 86.5534 66.8766 86.5534C65.8881 86.5534 65.0874 85.752 65.0874 84.7643C65.0874 83.7764 65.8881 82.9751 66.8766 82.9751Z" fill="black"/>
<path d="M72.2351 82.9751H68.6567V86.5534H72.2351V82.9751Z" fill="black"/>
<path d="M75.8073 82.9751H72.229V86.5534H75.8073V82.9751Z" fill="black"/>
<path d="M90.1198 82.9751H86.5415V86.5534H90.1198V82.9751Z" fill="black"/>
<path d="M104.436 84.7643C104.436 85.1812 104.436 86.5534 104.436 86.5534C104.436 86.5534 103.218 86.5534 102.647 86.5533C102.201 86.5534 100.857 86.5533 100.857 86.5533C100.857 86.5533 100.857 85.3064 100.857 84.7642C100.857 83.7761 101.658 82.9751 102.647 82.9751C103.635 82.9751 104.436 83.7761 104.436 84.7643Z" fill="black"/>
<path d="M34.6607 86.5361C35.6489 86.5361 36.4499 87.3372 36.4499 88.3253C36.4499 89.3135 35.6489 90.1145 34.6607 90.1145C33.6726 90.1145 32.8716 89.3135 32.8716 88.3253C32.8716 87.3372 33.6726 86.5361 34.6607 86.5361Z" fill="black"/>
<path d="M40.0229 90.1149H43.6013V86.5366C41.625 86.5366 40.0229 88.1387 40.0229 90.1149Z" fill="black"/>
<path d="M47.1765 86.5361H43.5981V90.1145H47.1765V86.5361Z" fill="black"/>
<path d="M50.7683 86.5361H47.1899V90.1145H50.7683V86.5361Z" fill="black"/>
<path d="M54.3439 86.5361H50.7656V90.1145H54.3439V86.5361Z" fill="black"/>
<path d="M61.489 86.5361H57.9106V90.1145H61.489V86.5361Z" fill="black"/>
<path d="M72.2351 86.5361H68.6567V90.1145H72.2351V86.5361Z" fill="black"/>
<path d="M75.8073 86.5361H72.229V90.1145H75.8073V86.5361Z" fill="black"/>
<path d="M79.3923 86.5361H75.814V90.1145H79.3923V86.5361Z" fill="black"/>
<path d="M82.9626 86.5361H79.3843V90.1145H82.9626V86.5361Z" fill="black"/>
<path d="M86.55 86.5361H82.9717V90.1145H86.55V86.5361Z" fill="black"/>
<path d="M90.1198 86.5361H86.5415V90.1145H90.1198V86.5361Z" fill="black"/>
<path d="M90.1353 86.5366V90.1149H93.7136C93.7136 88.1387 92.1115 86.5366 90.1353 86.5366Z" fill="black"/>
<path d="M104.436 86.5361H100.857V90.1145H104.436V86.5361Z" fill="black"/>
<path d="M43.6013 90.1206H40.0229V93.6989H43.6013V90.1206Z" fill="black"/>
<path d="M54.3439 90.1206H50.7656V93.6989H54.3439V90.1206Z" fill="black"/>
<path d="M57.9167 90.1206H54.3384V93.6989H57.9167V90.1206Z" fill="black"/>
<path d="M61.489 90.1206H57.9106V93.6989H61.489V90.1206Z" fill="black"/>
<path d="M72.2351 90.1206H68.6567V93.6989H72.2351V90.1206Z" fill="black"/>
<path d="M79.3923 90.1206H75.814V93.6989H79.3923V90.1206Z" fill="black"/>
<path d="M93.7019 90.1206H90.1235V93.6989H93.7019V90.1206Z" fill="black"/>
<path d="M93.7031 90.1235V93.7019H97.2814C97.2814 91.7256 95.6794 90.1235 93.7031 90.1235Z" fill="black"/>
<path d="M100.857 91.9098C100.857 91.4927 100.857 90.1206 100.857 90.1206C100.857 90.1206 102.075 90.1206 102.647 90.1206C103.093 90.1206 104.436 90.1206 104.436 90.1206C104.436 90.1206 104.436 91.3677 104.436 91.9098C104.436 92.8978 103.635 93.6989 102.647 93.6989C101.658 93.6989 100.857 92.8978 100.857 91.9098Z" fill="black"/>
<path d="M38.2428 93.709C38.6598 93.709 40.0319 93.709 40.0319 93.709C40.0319 93.709 40.0319 94.9269 40.0319 95.4981C40.0319 95.944 40.0319 97.2873 40.0319 97.2873C40.0319 97.2873 38.7851 97.2873 38.2428 97.2873C37.2543 97.2873 36.4536 96.4859 36.4536 95.4981C36.4536 94.5103 37.2543 93.709 38.2428 93.709Z" fill="black"/>
<path d="M43.6013 93.709H40.0229V97.2873H43.6013V93.709Z" fill="black"/>
<path d="M47.1765 93.709H43.5981V97.2873H47.1765V93.709Z" fill="black"/>
<path d="M50.7683 93.709H47.1899V97.2873H50.7683V93.709Z" fill="black"/>
<path d="M54.3439 93.709H50.7656V97.2873H54.3439V93.709Z" fill="black"/>
<path d="M57.9167 93.709H54.3384V97.2873H57.9167V93.709Z" fill="black"/>
<path d="M61.489 93.709H57.9106V97.2873H61.489V93.709Z" fill="black"/>
<path d="M65.0769 93.709H61.4985V97.2873H65.0769V93.709Z" fill="black"/>
<path d="M68.6657 93.709H65.0874V97.2873H68.6657V93.709Z" fill="black"/>
<path d="M72.2297 93.6982H68.6514V97.2766C70.6276 97.2766 72.2297 95.6745 72.2297 93.6982Z" fill="black"/>
<path d="M79.3923 93.709H75.814V97.2873H79.3923V93.709Z" fill="black"/>
<path d="M82.9626 93.709H79.3843V97.2873H82.9626V93.709Z" fill="black"/>
<path d="M86.55 93.709H82.9717V97.2873H86.55V93.709Z" fill="black"/>
<path d="M90.1198 93.709H86.5415V97.2873H90.1198V93.709Z" fill="black"/>
<path d="M93.7019 93.709H90.1235V97.2873H93.7019V93.709Z" fill="black"/>
<path d="M97.2834 93.709H93.7051V97.2873H97.2834V93.709Z" fill="black"/>
<path d="M99.0738 97.2873C98.6568 97.2873 97.2847 97.2873 97.2847 97.2873C97.2847 97.2873 97.2847 96.0692 97.2847 95.4981C97.2847 95.0521 97.2847 93.709 97.2847 93.709C97.2847 93.709 98.5318 93.709 99.0738 93.709C100.062 93.709 100.863 94.51 100.863 95.4981C100.863 96.4862 100.062 97.2873 99.0738 97.2873Z" fill="black"/>
<path d="M54.3439 97.2876H50.7656V100.866H54.3439V97.2876Z" fill="black"/>
<path d="M57.9128 97.2876H54.3345V100.866C56.3107 100.866 57.9128 99.2638 57.9128 97.2876Z" fill="black"/>
<path d="M65.0874 99.0768C65.0874 98.6597 65.0874 97.2876 65.0874 97.2876C65.0874 97.2876 66.3055 97.2876 66.8766 97.2876C67.3226 97.2876 68.6657 97.2876 68.6657 97.2876C68.6657 97.2876 68.6657 98.5347 68.6657 99.0768C68.6657 100.065 67.8646 100.866 66.8766 100.866C65.8884 100.866 65.0874 100.065 65.0874 99.0768Z" fill="black"/>
<path d="M79.3923 97.2876H75.814V100.866H79.3923V97.2876Z" fill="black"/>
<path d="M93.7019 97.2876H90.1235V100.866H93.7019V97.2876Z" fill="black"/>
<path d="M97.2834 97.2876H93.7051V100.866H97.2834V97.2876Z" fill="black"/>
<path d="M102.647 97.2876C103.635 97.2876 104.436 98.0886 104.436 99.0768C104.436 100.065 103.635 100.866 102.647 100.866C101.658 100.866 100.857 100.065 100.857 99.0768C100.857 98.0886 101.658 97.2876 102.647 97.2876Z" fill="black"/>
<path d="M31.0753 100.857C31.4923 100.857 32.8645 100.857 32.8645 100.857C32.8645 100.857 32.8645 102.075 32.8645 102.646C32.8645 103.092 32.8645 104.435 32.8645 104.435C32.8645 104.435 31.6176 104.435 31.0753 104.435C30.0868 104.435 29.2861 103.634 29.2861 102.646C29.2861 101.658 30.0868 100.857 31.0753 100.857Z" fill="black"/>
<path d="M34.6607 104.435C34.2437 104.435 32.8716 104.435 32.8716 104.435C32.8716 104.435 32.8716 103.217 32.8716 102.646C32.8716 102.2 32.8716 100.857 32.8716 100.857C32.8716 100.857 34.1187 100.857 34.6607 100.857C35.6488 100.857 36.4499 101.658 36.4499 102.646C36.4499 103.634 35.6488 104.435 34.6607 104.435Z" fill="black"/>
<path d="M41.8121 100.857C42.8003 100.857 43.6013 101.658 43.6013 102.646C43.6013 103.634 42.8003 104.435 41.8121 104.435C40.824 104.435 40.0229 103.634 40.0229 102.646C40.0229 101.658 40.824 100.857 41.8121 100.857Z" fill="black"/>
<path d="M48.9791 100.857C49.3961 100.857 50.7683 100.857 50.7683 100.857C50.7683 100.857 50.7683 102.075 50.7683 102.646C50.7683 103.092 50.7683 104.435 50.7683 104.435C50.7683 104.435 49.5214 104.435 48.9791 104.435C47.9906 104.435 47.1899 103.634 47.1899 102.646C47.1899 101.658 47.9906 100.857 48.9791 100.857Z" fill="black"/>
<path d="M54.3395 100.86H50.7612V104.439C52.7375 104.439 54.3395 102.837 54.3395 100.86Z" fill="black"/>
<path d="M63.2877 100.857C64.2759 100.857 65.0769 101.658 65.0769 102.646C65.0769 103.634 64.2759 104.435 63.2877 104.435C62.2996 104.435 61.4985 103.634 61.4985 102.646C61.4985 101.658 62.2996 100.857 63.2877 100.857Z" fill="black"/>
<path d="M70.4459 100.857C71.4341 100.857 72.2351 101.658 72.2351 102.646C72.2351 103.634 71.4341 104.435 70.4459 104.435C69.4578 104.435 68.6567 103.634 68.6567 102.646C68.6567 101.658 69.4578 100.857 70.4459 100.857Z" fill="black"/>
<path d="M75.814 102.646C75.814 102.229 75.814 100.857 75.814 100.857C75.814 100.857 77.032 100.857 77.6031 100.857C78.0492 100.857 79.3923 100.857 79.3923 100.857C79.3923 100.857 79.3923 102.104 79.3923 102.646C79.3923 103.634 78.5912 104.435 77.6031 104.435C76.615 104.435 75.814 103.634 75.814 102.646Z" fill="black"/>
<path d="M84.7608 100.857C85.1779 100.857 86.55 100.857 86.55 100.857C86.55 100.857 86.55 102.075 86.55 102.646C86.55 103.092 86.55 104.435 86.55 104.435C86.55 104.435 85.3032 104.435 84.7608 104.435C83.7724 104.435 82.9717 103.634 82.9717 102.646C82.9717 101.658 83.7724 100.857 84.7608 100.857Z" fill="black"/>
<path d="M90.1198 100.857H86.5415V104.435H90.1198V100.857Z" fill="black"/>
<path d="M93.7019 100.857H90.1235V104.435H93.7019V100.857Z" fill="black"/>
<path d="M97.2814 100.86H93.7031V104.439C95.6794 104.439 97.2814 102.837 97.2814 100.86Z" fill="black"/>
<path d="M17.1567 0.662598H9.21187C5.33992 0.662598 2.0596 3.22077 1.01083 6.71726C0.902373 7.07895 0.81771 7.45067 0.758846 7.83065C0.693971 8.24996 0.660156 8.67928 0.660156 9.11638V17.2498C0.660156 21.9135 4.49754 25.7061 9.21187 25.7061L13.1843 25.7068L17.1567 25.7058C21.8707 25.7058 25.7084 21.9133 25.7084 17.2495V9.11638C25.7084 4.4549 21.871 0.662598 17.1567 0.662598ZM21.9512 17.2498C21.9512 19.8408 19.8005 21.9488 17.1557 21.9488L13.1843 21.9496L9.21287 21.9486C6.56803 21.9486 4.41739 19.8405 4.41739 17.2498V9.11638C4.41739 8.30707 4.62729 7.5451 4.99676 6.87932C5.35244 6.23884 5.85566 5.68802 6.46158 5.27097C7.24058 4.73469 8.18915 4.41983 9.21162 4.41983H17.1567C19.8005 4.41983 21.9512 6.52664 21.9512 9.11638V17.2498Z" fill="black"/>
<path d="M95.8808 0.662598H87.936C84.064 0.662598 80.7837 3.22077 79.735 6.71726C79.6265 7.07895 79.5418 7.45067 79.483 7.83065C79.4181 8.24996 79.3843 8.67928 79.3843 9.11638V17.2498C79.3843 21.9135 83.2217 25.7061 87.936 25.7061L91.9084 25.7068L95.8808 25.7058C100.595 25.7058 104.433 21.9133 104.433 17.2495V9.11638C104.433 4.4549 100.595 0.662598 95.8808 0.662598ZM100.675 17.2498C100.675 19.8408 98.5246 21.9488 95.8798 21.9488L91.9084 21.9496L87.937 21.9486C85.2922 21.9486 83.1415 19.8405 83.1415 17.2498V9.11638C83.1415 8.30707 83.3514 7.5451 83.7209 6.87932C84.0766 6.23884 84.5798 5.68802 85.1857 5.27097C85.9647 4.73469 86.9133 4.41983 87.9357 4.41983H95.8808C98.5246 4.41983 100.675 6.52664 100.675 9.11638V17.2498Z" fill="black"/>
<path d="M17.1567 79.3921H9.21187C5.33992 79.3921 2.0596 81.9503 1.01083 85.4467C0.902373 85.8084 0.81771 86.1802 0.758846 86.5601C0.693971 86.9794 0.660156 87.4088 0.660156 87.8459V95.9793C0.660156 100.643 4.49754 104.436 9.21187 104.436L13.1843 104.436L17.1567 104.435C21.8707 104.435 25.7084 100.643 25.7084 95.979V87.8459C25.7084 83.1844 21.871 79.3921 17.1567 79.3921ZM21.9512 95.9793C21.9512 98.5703 19.8005 100.678 17.1557 100.678L13.1843 100.679L9.21287 100.678C6.56803 100.678 4.41739 98.57 4.41739 95.9793V87.8459C4.41739 87.0366 4.62729 86.2746 4.99676 85.6088C5.35244 84.9683 5.85566 84.4175 6.46158 84.0005C7.24058 83.4642 8.18915 83.1493 9.21162 83.1493H17.1567C19.8005 83.1493 21.9512 85.2561 21.9512 87.8459V95.9793Z" fill="black"/>
<path d="M10.7633 18.5577C9.1434 18.5577 7.82568 17.2661 7.82568 15.6799V10.6991C7.82568 10.2036 7.9545 9.73723 8.18004 9.32919C8.39786 8.93651 8.70616 8.599 9.07749 8.34437C9.55444 8.01609 10.1358 7.82275 10.7617 7.82275H15.6275C17.2459 7.82275 18.5636 9.11288 18.5636 10.699V15.6798C18.5636 17.2659 17.246 18.5576 15.6275 18.5576H13.1947L10.7633 18.5577Z" fill="black"/>
<path d="M89.4645 18.5577C87.8446 18.5577 86.5269 17.2661 86.5269 15.6799V10.6991C86.5269 10.2036 86.6557 9.73723 86.8812 9.32919C87.099 8.93651 87.4073 8.599 87.7787 8.34437C88.2556 8.01609 88.837 7.82275 89.4629 7.82275H94.3287C95.9471 7.82275 97.2648 9.11288 97.2648 10.699V15.6798C97.2648 17.2659 95.9472 18.5576 94.3287 18.5576H91.8958L89.4645 18.5577Z" fill="black"/>
<path d="M10.7633 97.2765C9.1434 97.2765 7.82568 95.9848 7.82568 94.3986V89.4178C7.82568 88.9223 7.9545 88.456 8.18004 88.0479C8.39786 87.6553 8.70616 87.3177 9.07749 87.0631C9.55444 86.7348 10.1358 86.5415 10.7617 86.5415H15.6275C17.2459 86.5415 18.5636 87.8316 18.5636 89.4177V94.3985C18.5636 95.9846 17.246 97.2764 15.6275 97.2764H13.1947L10.7633 97.2765Z" fill="black"/>
</svg>
