<svg width="38" height="38" viewBox="0 0 38 38" fill="none" xmlns="http://www.w3.org/2000/svg">
<path d="M19.0834 37.8538C29.4964 37.8538 37.9373 29.4129 37.9373 18.9999C37.9373 8.58689 29.4964 0.145996 19.0834 0.145996C8.67039 0.145996 0.229492 8.58689 0.229492 18.9999C0.229492 29.4129 8.67039 37.8538 19.0834 37.8538Z" fill="url(#paint0_linear_1_22826)"/>
<path d="M9.91701 19.2928C11.6766 18.3305 13.6416 17.5272 15.4777 16.7208C18.6333 15.3877 21.8123 14.1105 25.0132 12.8898C25.6352 12.6845 26.7548 12.4821 26.8657 13.3994C26.8058 14.6959 26.5585 15.9864 26.3876 17.2754C25.9574 20.1111 25.4598 22.9379 24.9742 25.7632C24.8078 26.706 23.6178 27.1931 22.8579 26.5906C21.0293 25.3645 19.1872 24.152 17.3827 22.8989C16.7921 22.3024 17.3407 21.4466 17.8683 21.0209C19.3731 19.5491 20.9708 18.2991 22.3977 16.7493C22.7829 15.8275 21.6453 16.6054 21.2706 16.8437C19.2082 18.2526 17.1983 19.7484 15.025 20.9864C13.9159 21.592 12.6209 21.0749 11.5118 20.7361C10.5165 20.327 9.05819 19.9163 9.91701 19.2928Z" fill="#13CD90"/>
<defs>
<linearGradient id="paint0_linear_1_22826" x1="19.0834" y1="0.145996" x2="19.0834" y2="37.8538" gradientUnits="userSpaceOnUse">
<stop stop-color="#161B24"/>
<stop offset="1" stop-color="#0E1117"/>
</linearGradient>
</defs>
</svg>
